<?xml version="1.0" encoding="utf-8" ?><svg xmlns="http://www.w3.org/2000/svg" xmlns:xlink="http://www.w3.org/1999/xlink" width="256" height="256" viewBox="0 0 256 256"><path fill="#03080A" d="M78.4007 81.1231C74.3098 75.4483 72.4018 66.1324 71.8731 59.2665C69.0356 22.4184 102.539 -4.65289 137.955 1.48659C152.933 4.08303 165.924 11.5092 174.808 24.0363C183.073 35.7224 186.34 50.2196 183.889 64.321C182.79 70.6307 180.753 75.38 178.34 81.2009C182.728 86.8635 182.88 91.2322 182.929 98.2754C182.971 104.122 183.014 110.178 179.581 115.246C178.712 116.6 174.713 119.46 174.617 120.938C174.413 124.062 175.448 128.44 176.119 131.491C180.352 150.731 188.633 169.071 201.132 184.365C204.197 188.116 206.146 188.472 210.501 190.29C218.11 193.991 221.262 200.38 221.528 208.617C227.175 213.636 230.214 217.305 230.349 225.434C230.48 233.28 231.857 244.116 226.296 250.212C222.944 253.887 220.717 254.104 216.985 256L38.5347 256C26.7314 249.795 24.9446 247.906 25.1131 233.8C25.2627 221.281 24.2646 217.732 33.8088 208.776C34.8832 201.79 35.9349 196.344 42.0564 191.853C43.584 190.749 45.2539 189.858 47.0205 189.202C48.1879 188.77 51.8535 187.918 52.5629 187.126C68.2896 169.583 78.0103 147.127 81.8168 123.991C82.0106 122.812 82.218 121.324 82.2348 120.137C77.5445 116.654 74.5024 113.097 73.9601 107.075C73.1462 98.0377 72.371 89.2295 78.04 81.6038L78.4007 81.1231Z"/><path fill="#FEFEFE" d="M123.989 3.10154C134.518 1.3543 149.828 6.05291 158.687 11.9024C170.322 19.5032 178.465 31.4106 181.329 45.0102C183.632 56.2765 181.666 71.5686 175.313 81.2031C182.217 87.9307 181.473 102.465 179.052 111.006C178.083 114.422 174.504 117.286 171.563 119.039C172.466 123.529 173.08 127.951 174.057 132.55C178.46 153.29 187.657 172.948 201.804 188.835C202.878 189.819 204.656 190.56 206.009 190.993C215.358 193.984 218.758 200.971 219.344 210.461C220.619 211.249 221.803 212.177 222.873 213.227C228.157 218.459 228.004 224.878 228.046 231.875C228.085 238.296 228.54 244.226 223.68 249.159C218.068 254.856 209.88 253.999 202.462 253.991L187.212 253.969L131.625 253.978L72.0821 253.974L55.4387 254.014C51.8714 254.025 48.0557 254.045 44.5362 253.969C25.0651 253.548 26.743 237.203 27.9396 222.85C28.3508 217.918 31.8086 212.887 36.2004 210.511C36.2319 210.099 36.2663 209.688 36.3036 209.277C37.0545 201.027 39.3424 195.181 47.6367 191.787C49.1111 191.122 52.463 190.494 53.595 189.348C70.7411 171.994 82.7312 142.473 84.7974 118.961C83.55 118.112 82.3683 117.171 81.2624 116.144C77.105 112.216 76.0026 107.389 75.964 101.857C75.904 93.2475 75.2452 87.9365 81.3793 81.4678C77.8496 77.3224 75.0324 66.0741 74.4352 60.5498C72.9454 47.049 76.9328 33.5147 85.5044 22.9781C95.4159 10.6829 108.532 4.74351 123.989 3.10154Z"/><path fill="#7AC8BC" d="M100.483 87.2627C91.8201 79.3916 86.3217 69.4246 85.7383 57.5873C85.0929 46.6538 88.91 35.9262 96.3165 27.8577C104.082 19.426 114.903 14.4589 126.359 14.0677C137.836 13.5479 149.052 17.5949 157.553 25.3233C165.687 32.798 170.494 43.2158 170.902 54.2554C171.401 67.5464 166.257 76.1825 157.57 85.496C157.022 86.0839 156.469 86.6675 155.912 87.247C163.15 86.7881 168.983 86.8281 169.057 95.9502C169.109 102.346 170.773 109.453 162.225 110.877C161.202 111.132 159.974 111.014 158.904 110.97C161.57 139.413 170.475 167.802 188.495 190.275C191.609 194.16 193.726 196.96 197.356 200.471C200.4 200.678 203.491 200.619 205.817 202.984C208.818 206.037 208.087 213.409 207.946 217.582C215.435 218.342 216.653 221.747 216.72 228.876C216.756 232.7 216.769 236.451 216.443 240.285C215.407 241.475 215.149 241.732 213.841 242.651C210.324 243.307 200.64 243.129 196.788 243.133L165.268 243.14L97.608 243.105C81.8965 243.146 66.1345 243.281 50.4199 243.185C48.3775 243.068 41.5557 243.244 40.205 241.989C38.6393 240.534 38.52 235.558 38.5618 233.335C38.6328 229.563 38.322 223.399 40.6523 220.173C42.1768 218.062 45.2282 217.777 47.5653 217.516C47.3935 213.388 46.738 206.293 49.5428 203.274C52.1144 200.506 55.6353 200.443 59.0773 200.17C84.9211 171.905 92.7226 148.249 97.6297 111.103C96.6154 111.051 95.9057 110.984 94.9002 110.842C93.0517 110.507 89.5339 109.82 88.6249 107.914C86.6889 103.856 87.3381 97.3614 87.6837 92.9586C88.195 86.4446 95.6493 86.7938 100.483 87.2627Z"/><path fill="#03080A" d="M100.483 87.2627C91.8201 79.3916 86.3217 69.4246 85.7383 57.5873C85.0929 46.6538 88.91 35.9262 96.3165 27.8577C104.082 19.426 114.903 14.4589 126.359 14.0677C137.836 13.5479 149.052 17.5949 157.553 25.3233C165.687 32.798 170.494 43.2158 170.902 54.2554C171.401 67.5464 166.257 76.1825 157.57 85.496C157.022 86.0839 156.469 86.6675 155.912 87.247C163.15 86.7881 168.983 86.8281 169.057 95.9502C169.109 102.346 170.773 109.453 162.225 110.877C160.902 110.791 159.514 111.16 158.934 109.885C159.404 107.964 163.113 109.126 164.338 107.798C167.788 104.059 167.239 94.4095 164.069 90.6511C160.504 90.0278 152.562 90.4103 148.618 90.4951C146.786 91.1168 146.469 91.1265 144.575 91.1678C145.337 91.2024 146.952 91.1256 147.398 91.5269L147.416 91.7437C149.806 91.7901 159.289 91.7915 160.904 92.5087C160.561 93.0541 160.171 93.7134 159.805 94.2307C159.353 94.8405 156.785 98.3703 156.605 98.4307C151.653 100.093 153.98 102.692 152.563 105.249C141.517 104.707 129.081 105.237 117.886 105.204C115.596 100.408 114.176 100.234 110.615 103.993C109.309 105.373 108.709 105.313 106.871 105.231C102.059 99.2049 104.669 101.778 105.341 95.067C106.797 94.5117 108.926 93.4707 109.146 91.6896C108.019 89.6964 94.4573 89.953 92.6203 90.8738C89.3813 92.4975 89.978 104.09 91.4287 107.037C92.4428 109.096 100.081 107.914 97.0815 110.698C96.2672 110.801 95.72 110.823 94.9002 110.842C93.0517 110.507 89.5339 109.82 88.6249 107.914C86.6889 103.856 87.3381 97.3614 87.6837 92.9586C88.195 86.4446 95.6493 86.7938 100.483 87.2627Z"/><path fill="#4B7474" d="M133.493 90.9101C138.736 90.8598 143.092 90.3238 148.618 90.4951C146.786 91.1168 146.469 91.1265 144.575 91.1678C145.337 91.2024 146.952 91.1256 147.398 91.5269L147.416 91.7437C144.843 92.2582 136.132 91.5178 133.493 90.9101Z"/><path fill="#7AC8BC" d="M90.6734 45.9476C94.2415 35.1999 99.9431 26.8037 110.23 21.6233C119.777 16.919 130.785 16.1322 140.904 19.4308C150.383 22.548 158.229 29.3134 162.707 38.2303C163.253 39.3319 164.65 42.0678 164.713 43.1349L164.479 43.4126C163.496 43.179 162.109 41.0022 161.448 40.0945C162.586 43.8264 164.759 49.6137 164.819 53.3194C165.066 54.1251 165.096 54.5698 165.188 55.4016C165.435 57.159 165.662 58.6798 166.262 60.3548L165.692 63.9713C165.182 66.1723 164.698 69.1585 162.853 70.4402C162.634 70.5921 162.434 70.8892 162.283 71.1172C160.822 72.5874 159.359 75.322 158.065 77.091C155.027 81.2417 151.514 84.0206 147.392 86.9831L140.634 87.0997L140.489 86.7849C140.676 86.4011 141.031 85.7263 141.168 85.3547L140.741 85.2342C140.037 85.8716 139.349 86.5261 138.678 87.1973C134.575 87.47 129.647 87.3259 125.482 87.295C121.187 87.2632 116.447 87.358 112.202 87.1543C107.082 86.4884 105.312 83.6874 104.636 78.9298C102.08 77.0257 100.48 75.4576 97.2634 75.4215C92.6362 69.0767 90.5349 62.0888 90.2383 54.2629C89.9977 53.9855 89.4049 53.7673 89.0475 53.6045C88.5475 52.2078 90.2037 47.4374 90.6734 45.9476Z"/><path fill="#7AC8BC" d="M164.18 63.2135C164.375 62.4478 164.57 61.1995 164.724 60.3869C164.751 62.1368 164.687 62.5536 165.692 63.9713C165.182 66.1723 164.698 69.1585 162.853 70.4402C162.634 70.5921 162.434 70.8892 162.283 71.1172C160.822 72.5874 159.359 75.322 158.065 77.091C155.027 81.2417 151.514 84.0206 147.392 86.9831L140.634 87.0997L140.489 86.7849C140.676 86.4011 141.031 85.7263 141.168 85.3547C141.976 84.4178 142.539 82.4489 144.051 81.0725C146.185 79.1291 149.802 77.1183 151.565 75.0322C153.714 72.4901 154.963 69.2449 157.579 66.79C158.807 65.6385 162.229 62.6426 163.821 62.6407L164.18 63.2135Z"/><path fill="#20383B" d="M164.18 63.2135C164.375 62.4478 164.57 61.1995 164.724 60.3869C164.751 62.1368 164.687 62.5536 165.692 63.9713C165.182 66.1723 164.698 69.1585 162.853 70.4402C162.634 70.5921 162.434 70.8892 162.283 71.1172C162.974 68.4971 163.606 65.8618 164.18 63.2135Z"/><path fill="#68A49C" d="M164.819 53.3194C165.066 54.1251 165.096 54.5698 165.188 55.4016C165.435 57.159 165.662 58.6798 166.262 60.3548L165.692 63.9713C164.687 62.5536 164.751 62.1368 164.724 60.3869C164.57 61.1995 164.375 62.4478 164.18 63.2135L163.821 62.6407C162.229 62.6426 158.807 65.6385 157.579 66.79C154.963 69.2449 153.714 72.4901 151.565 75.0322C149.802 77.1183 146.185 79.1291 144.051 81.0725C142.539 82.4489 141.976 84.4178 141.168 85.3547L140.741 85.2342C140.037 85.8716 139.349 86.5261 138.678 87.1973C134.575 87.47 129.647 87.3259 125.482 87.295C121.187 87.2632 116.447 87.358 112.202 87.1543C111.506 81.5253 106.63 78.5352 104.344 74.1852C108.125 76.4966 114.627 79.602 119.206 80.0378C119.89 80.1029 121.461 79.7212 122.191 79.5455C120.441 81.6367 118.679 83.7177 116.905 85.7885L116.747 87.0333C120.78 87.0459 128.201 87.3166 131.944 86.9767C133.404 85.8857 136.342 83.6241 137.898 82.9126C142.19 80.9495 144.835 80.1851 148.406 76.8701C150.327 75.0873 153.528 71.2657 153.657 68.5399C153.281 66.5591 154.595 65.0957 156.244 64.2673C159.547 63.316 160.445 59.1046 162.68 56.7322C162.879 56.5205 164.073 56.1823 164.416 56.0884C164.946 55.3797 164.769 54.384 164.819 53.3194Z"/><path fill="#7AC8BC" d="M113.665 86.322C113.317 84.38 114.086 81.4282 116.171 80.9054L116.565 81.1931C116.777 82.0002 115.817 83.8282 115.641 85.4648C115.017 86.4341 114.918 86.5206 113.665 86.322Z"/><path fill="#0D1A1C" d="M165.188 55.4016C165.435 57.159 165.662 58.6798 166.262 60.3548L165.692 63.9713C164.687 62.5536 164.751 62.1368 164.724 60.3869C164.906 58.7278 165.06 57.0658 165.188 55.4016Z"/><path fill="#3C605E" d="M156.244 64.2673C156.718 66.0164 155.186 67.8422 153.657 68.5399C153.281 66.5591 154.595 65.0957 156.244 64.2673Z"/><path fill="#70B2A9" d="M115.641 85.4648L116.905 85.7885L116.747 87.0333C115.708 87.038 114.869 87.0845 113.848 86.8369L113.665 86.322C114.918 86.5206 115.017 86.4341 115.641 85.4648Z"/><path fill="#5A8D89" d="M90.6734 45.9476C90.7355 48.14 90.8313 52.1454 90.2383 54.2629C89.9977 53.9855 89.4049 53.7673 89.0475 53.6045C88.5475 52.2078 90.2037 47.4374 90.6734 45.9476Z"/><path fill="#03080A" d="M98.1053 38.2572C99.054 35.7702 102.727 31.5313 104.749 29.819C120.033 16.8777 141.727 18.3676 154.906 33.3602C156.374 34.0739 157.897 35.5106 158.601 36.9673C160.424 39.9442 159.655 41.7459 158.914 45.2069C158.449 46.4339 158.103 47.3081 157.755 48.5753C157.476 49.5899 157.646 50.9494 157.339 51.4377C157.2 56.2041 155.901 60.2934 153.138 64.1802C142.921 78.5548 120.509 80.8847 106.72 70.4358C105.328 69.3812 104.026 68.2655 102.604 67.2474C105.752 65.0136 106.239 64.2616 106.829 60.5345C105.471 59.4789 103.521 58.7999 103.097 57.2584L103.469 56.8443C104.456 56.3867 105.413 56.4779 106.497 56.4858C110.121 48.9995 111.546 50.4903 118.229 49.4888C119.288 50.7746 119.241 50.2201 120.803 50.233L121.786 49.487C120.993 47.947 121.185 45.9952 120.962 44.1946L120.323 41.8075L117.172 42.5402L114.933 40.8734C111.393 46.2795 104.704 52.3502 103.914 41.3615C102.084 39.9364 100.559 38.9779 98.5495 37.8432C99.2613 38.9517 101.488 42.2431 100.93 43.4447C100.347 43.423 100.385 43.274 99.8706 42.7667C99.3587 40.019 97.7557 41.5818 98.1053 38.2572Z"/><path fill="#68A49C" d="M154.906 33.3602C156.374 34.0739 157.897 35.5106 158.601 36.9673C160.424 39.9442 159.655 41.7459 158.914 45.2069C158.449 46.4339 158.103 47.3081 157.755 48.5753C157.476 49.5899 157.646 50.9494 157.339 51.4377C157.392 49.4506 157.046 46.6566 156.962 44.4983C155.973 45.0413 153.888 46.4663 153.116 45.2336C153.383 43.4518 154.853 42.0929 156.046 40.7154C155.22 38.7901 154.725 37.7585 153.665 35.9586L154.906 33.3602Z"/><path fill="#4B7474" d="M158.914 45.2069L158.66 45.1191C158.35 44.0732 158.12 37.9072 158.601 36.9673C160.424 39.9442 159.655 41.7459 158.914 45.2069Z"/><path fill="#68A49C" d="M132.948 38.5064C133.328 38.6256 133.7 38.68 133.933 38.9779C131.073 43.7527 129.468 46.3808 124.008 48.4188C123.618 47.3687 123.943 47.1413 124.566 46.4429C126.537 45.5587 127.36 45.0157 128.813 43.5064L129.325 39.7094C130.989 39.5553 131.691 39.5679 132.948 38.5064Z"/><path fill="#68A49C" d="M137.489 31.467C136.927 30.9051 136.341 30.4248 136.33 29.6094C136.303 27.71 138.352 25.1926 139.465 23.5749C139.551 26.5993 139.881 30.4998 137.869 32.9831C137.57 32.5776 137.558 31.9849 137.489 31.467Z"/><path fill="#70B2A9" d="M118.229 49.4888C119.288 50.7746 119.241 50.2201 120.803 50.233C120.142 50.541 119.609 50.8179 118.97 51.1674C118.508 52.6209 121.066 55.1487 119.45 57.3466C118.734 57.6446 118.63 57.6976 117.874 57.5605C117.689 57.0559 117.557 56.5171 117.576 55.9808C117.662 53.4166 116.666 51.7005 118.229 49.4888Z"/><path fill="#4B7474" d="M120.962 44.1946C122.026 44.8342 123.609 45.7218 124.566 46.4429C123.943 47.1413 123.618 47.3687 124.008 48.4188C123.595 48.6067 122.056 49.2731 121.786 49.487C120.993 47.947 121.185 45.9952 120.962 44.1946Z"/><path fill="#3C605E" d="M137.489 31.467C137.558 31.9849 137.57 32.5776 137.869 32.9831L137.774 33.1262C136.684 34.7469 135.273 36.016 134.47 38.0198C134.359 38.2959 134.132 38.7518 133.933 38.9779C133.7 38.68 133.328 38.6256 132.948 38.5064C132.516 36.5753 137.025 33.4871 137.489 31.467Z"/><path fill="#4B7474" d="M149.026 46.4605C149.918 46.3959 150.177 46.5736 150.99 46.9397C151.797 48.444 149.737 48.3814 149.54 49.8405C149.849 50.3292 149.996 50.527 150.378 50.9615C150.309 51.7235 149.72 52.2062 149.188 52.771C148.962 52.8256 148.774 52.7637 148.53 52.7251C147.663 51.8333 146.393 49.5144 145.695 48.3332C146.718 47.5985 147.901 47.0375 149.026 46.4605Z"/><path fill="#5A8D89" d="M129.057 58.8339L132.115 57.5796L132.945 58.5034C132.385 59.5093 132.249 62.1989 132.127 63.443C130.082 62.3459 128.435 62.4726 127.925 62.0767C127.842 61.194 128.658 59.7118 129.057 58.8339Z"/><path fill="#4B7474" d="M122.915 26.7269L123.179 27.2526C123.145 27.3414 123.112 27.4307 123.081 27.5204C122.658 28.7358 122.945 28.7313 123.557 29.9836C122.692 30.7294 120.423 29.3117 118.378 29.1872L118.272 29.1815C117.504 29.0843 117.109 29.0859 116.44 28.6636L116.586 28.3812C118.429 28.1304 118.999 28.2542 120.75 28.9037L122.915 26.7269Z"/><path fill="#3C605E" d="M135.643 63.3887C137.638 63.6182 138.501 65.6759 138.75 67.4131C136.971 67.2518 136.058 64.8557 135.643 63.3887Z"/><path fill="#4B7474" d="M132.115 57.5796L135.3 56.4079C134.699 57.0266 133.678 58.2233 132.945 58.5034L132.115 57.5796Z"/><path fill="#03080A" d="M98.1053 38.2572C97.7557 41.5818 99.3587 40.019 99.8706 42.7667C99.3465 42.1471 99.049 41.7738 98.4272 41.2439L97.9467 41.2488C97.3939 42.3399 98.365 44.5804 98.9823 45.5824C100.586 45.5968 102.552 46.7415 103.718 47.7681C104.253 48.7236 104.237 49.0365 103.945 50.2143C103.078 54.6889 101.988 55.5602 98.3122 58.0259C96.9304 58.1212 94.8189 57.9992 93.3784 57.9521C93.4684 50.8258 94.6358 44.5952 98.1053 38.2572Z"/><path fill="#4B7474" d="M98.9823 45.5824C100.586 45.5968 102.552 46.7415 103.718 47.7681C104.253 48.7236 104.237 49.0365 103.945 50.2143C103.624 49.9425 103.16 49.8616 102.742 49.7475L101.952 49.546C100.654 48.4154 99.8339 47.0556 98.9823 45.5824Z"/><path fill="#20383B" d="M102.742 49.7475C102.976 49.0471 103.035 48.8381 103.147 48.1161L103.173 47.9456L103.718 47.7681C104.253 48.7236 104.237 49.0365 103.945 50.2143C103.624 49.9425 103.16 49.8616 102.742 49.7475Z"/><path fill="#03080A" d="M98.4666 59.4587C101.11 58.0304 103.898 58.7766 102.476 62.2071C101.845 63.7281 99.1376 66.073 97.8313 67.2533C98.263 68.7579 98.0288 72.1684 97.9229 73.7421C96.8428 71.0936 96.5555 69.756 97.3049 67.0842C96.5919 67.4076 96.2408 67.6668 95.6453 68.1571C94.8419 67.4589 93.7414 60.1588 93.5647 58.7538C95.1607 58.9807 96.8887 59.1922 98.4666 59.4587Z"/><path fill="#3C605E" d="M128.847 94.6683C129.279 95.1663 129.17 94.9194 129.144 95.7079C128.658 96.676 127.994 97.1159 127.159 97.7905C126.442 96.5407 127.981 95.4423 128.847 94.6683Z"/><path fill="#70B2A9" d="M94.4048 95.2242C94.5421 94.9278 95.0837 94.2352 95.3681 94.2538C98.7816 94.4758 101.879 95.0497 105.341 95.067C104.669 101.778 102.059 99.2049 106.871 105.231C102.848 105.394 98.8207 105.392 94.7985 105.224C94.6668 101.993 94.2922 99.8474 94.8859 96.6865L94.4048 95.2242Z"/><path fill="#0D1A1C" d="M94.4048 95.2242C96.0754 96.603 98.9531 99.2286 100.265 100.905C97.9551 99.7288 96.5323 98.8399 94.8859 96.6865L94.4048 95.2242Z"/><path fill="#68A49C" d="M159.805 94.2307C160.255 94.8613 160.34 95.0023 160.988 95.4698C160.303 97.3284 159.899 98.4158 158.988 100.133C158.538 100.98 156.347 104.628 156.17 105.271L152.563 105.249C153.98 102.692 151.653 100.093 156.605 98.4307C156.785 98.3703 159.353 94.8405 159.805 94.2307Z"/><path fill="#03080A" d="M160.988 95.4698C161.257 94.5174 161.29 94.3702 161.956 93.6359C162.461 96.0541 162.945 102.364 161.892 104.594C160.975 105.558 157.559 105.252 156.17 105.271C156.347 104.628 158.538 100.98 158.988 100.133C159.899 98.4158 160.303 97.3284 160.988 95.4698Z"/><path fill="#70B2A9" d="M160.904 92.5087L161.177 93.0768L161.887 93.2688L161.956 93.6359C161.29 94.3702 161.257 94.5174 160.988 95.4698C160.34 95.0023 160.255 94.8613 159.805 94.2307C160.171 93.7134 160.561 93.0541 160.904 92.5087Z"/><path fill="#03080A" d="M108.347 108.546C123.863 108.373 139.083 108.806 154.444 108.767C154.664 111.109 154.878 114.327 155.21 116.588C155.405 119.43 156.343 128.044 157.387 130.309C157.957 131.738 157.998 132.941 158.1 134.47C158.717 137.485 161.866 150.125 163.239 152.672C164.428 154.388 164.044 156.21 165.148 157.561C164.301 157.828 162.263 159.86 160.149 160.861C158.949 163.381 157.815 168.588 156.833 171.483C156.492 171.615 155.822 171.853 155.525 172.005C156.558 174.735 151.535 178.815 150.315 181.299C148.522 184.434 148.413 186.018 144.831 187.488L144.268 188.134C145.28 189.107 147.404 191.811 147.922 192.154C148.515 192.139 148.254 192.223 148.74 191.914L149.133 191.978C148.915 192.563 148.691 193.146 148.46 193.726C147.182 196.144 146.697 197.664 145.991 200.316C136.398 200.727 126.369 200.313 116.71 200.499C116.556 200.526 116.402 200.55 116.247 200.571C113.91 200.892 99.8964 200.829 98.664 199.9C97.1379 200.605 96.4962 200.621 94.833 200.333C93.7879 200.531 88.3943 200.836 87.5456 200.574C85.146 200.527 84.5377 200.439 82.2324 199.613C81.7436 199.438 81.2865 199.925 80.7789 200.277C79.4563 200.588 67.6495 200.674 66.7862 200.208C68.0064 198.6 69.2672 196.863 70.6446 195.402L71.358 194.459C72.9446 191.775 76.6635 187.433 78.7963 183.906C88.8037 167.36 94.6565 151.989 98.6107 133.177L98.8564 131.944C99.7803 126.26 100.854 119.89 101.276 114.17C101.274 112.648 101.473 110.283 101.54 108.694C103.036 108.591 105.155 108.649 106.699 108.649C107.226 109.934 107.741 111.375 108.759 112.3C108.782 110.599 108.706 110.178 108.347 108.546Z"/><path fill="#68A49C" d="M101.54 108.694C103.036 108.591 105.155 108.649 106.699 108.649C107.226 109.934 107.741 111.375 108.759 112.3C108.715 113.123 108.606 112.864 109.054 113.373C111.568 114.045 114.072 112.764 116.238 114.295C119.231 119.902 122.458 125.651 120.766 132.474C120.23 134.64 114.578 137.179 115.452 139.791C115.687 139.919 116.055 140.136 116.289 140.23C116.496 140.512 116.836 141.01 117.056 141.257L117.82 141.614L118.044 141.154C118.921 140.878 121.339 141.414 121.945 142.209C121.387 144.3 120.469 147.603 121.349 149.625C122.076 150.279 122.279 150.289 123.272 149.885L123.872 150.226C123.992 150.735 124.05 151.093 124.119 151.611C124.677 152.656 125.401 154.117 126.08 155.042C125.637 156.496 125.286 157.356 125.585 158.898C125.515 159.484 125.542 159.729 125.222 160.201C123.006 158.682 120.874 157.256 118.788 155.554C118.402 156.332 118.051 157.301 117.319 157.622C116.47 156.188 119.131 148.264 117.603 145.947C117.037 145.089 116.646 143.689 115.21 144.313C112.948 148.708 111.918 148.287 111.939 153.663C110.86 154.491 109.716 155.304 108.615 156.109C108.924 150.278 111.645 143.727 113.469 138.01C112.163 138.605 110.824 139.268 109.526 139.889C108.799 139.364 107.683 138.524 106.85 138.642L106.856 138.538C106.81 139.848 106.982 140.292 105.729 140.64C104.699 140.925 104.89 141.658 104.079 142.428C103.203 142.495 99.9204 141.642 98.4877 141.447C101.369 138.486 104.078 135.634 98.6107 133.177L98.8564 131.944C99.7803 126.26 100.854 119.89 101.276 114.17C101.274 112.648 101.473 110.283 101.54 108.694Z"/><path fill="#4B7474" d="M101.276 114.17C106.559 114.188 106.965 113.525 108.935 118.652C109.116 119.367 109.316 120.089 109.423 120.818L113.51 120.704C114.009 121.53 113.217 135.415 112.395 136.273C110.328 137.302 107.851 136.315 105.896 135.582C103.744 134.774 103.474 134.497 102.411 132.485L98.8564 131.944C99.7803 126.26 100.854 119.89 101.276 114.17Z"/><path fill="#70B2A9" d="M108.935 118.652C109.9 117.223 110.581 115.725 112.47 116.772C113.403 117.984 113.408 119.184 113.51 120.704L109.423 120.818C109.316 120.089 109.116 119.367 108.935 118.652Z"/><path fill="#03080A" d="M117.056 141.257L117.82 141.614C117.147 142.476 116.663 143.088 115.448 142.914L115.256 142.535C115.591 141.839 116.345 141.595 117.056 141.257Z"/><path fill="#5A8D89" d="M116.601 123.913C116.947 124.435 117.564 127.913 117.268 128.603C115.317 127.918 115.229 125.313 116.601 123.913Z"/><path fill="#5A8D89" d="M108.347 108.546C123.863 108.373 139.083 108.806 154.444 108.767C154.664 111.109 154.878 114.327 155.21 116.588C153.871 116.856 150.827 120.07 149.663 121.164C148.004 119.815 145.39 118.397 143.468 120.211L142.32 119.945C143.738 119.113 142.714 118.715 144.037 117.86C146.134 116.506 147.913 115.464 149.945 113.963C147.243 114.321 143.65 114.248 140.873 114.258C135.706 114.283 130.54 114.28 125.374 114.249C122.696 114.235 118.839 114.098 116.238 114.295C114.072 112.764 111.568 114.045 109.054 113.373C108.606 112.864 108.715 113.123 108.759 112.3C108.782 110.599 108.706 110.178 108.347 108.546Z"/><path fill="#68A49C" d="M98.664 199.9C99.8978 198.883 102.709 196.674 104.098 196.1L104.607 196.17C104.65 196.807 104.631 197.133 104.582 197.77L104.884 197.986C107.069 197.546 109.389 195.822 111.563 195.233C112.018 195.109 113.48 196.065 114.299 196.021C116.345 195.91 118.875 193.041 120.67 194.637C120.574 196.518 117.513 197.934 116.71 200.499C116.556 200.526 116.402 200.55 116.247 200.571C113.91 200.892 99.8964 200.829 98.664 199.9Z"/><path fill="#70B2A9" d="M163.239 152.672C164.428 154.388 164.044 156.21 165.148 157.561C164.301 157.828 162.263 159.86 160.149 160.861C158.949 163.381 157.815 168.588 156.833 171.483C156.492 171.615 155.822 171.853 155.525 172.005C152.585 169.822 157.323 163.375 157.779 161.135C158.761 156.308 156.947 153.646 163.239 152.672Z"/><path fill="#68A49C" d="M130.046 127.831C129.233 123.264 138.947 121.05 142.32 119.945L143.468 120.211C140.726 122.134 139.729 123.486 138.224 126.389C138.927 127.723 139.361 128.294 139.46 129.826C138.115 132.055 132.406 126.17 130.67 128.136C130.553 128.948 130.414 129.756 130.253 130.56C130.138 129.558 130.442 128.399 130.046 127.831Z"/><path fill="#68A49C" d="M132.11 188.629C134.97 187.956 138.575 185.75 141.247 184.303L141.589 184.529C141.638 186.81 143.005 186.911 144.831 187.488L144.268 188.134C142.53 188.47 141.877 189.457 141.272 191.132C140.458 192.274 138.874 194.908 137.46 194.837C136.761 193.274 139.016 189.408 139.807 187.883C138.814 188.555 137.817 189.218 136.814 189.874L132.666 189.534C132.419 189.223 132.297 188.973 132.11 188.629Z"/><path fill="#68A49C" d="M129.418 162.096C132.23 162.942 135.175 163.362 137.938 164.584C138.169 164.686 139.161 164.504 139.46 164.447L139.777 164.62C139.368 165.788 137.154 167.168 136.021 167.689L133.049 166.802C132.875 166.576 132.06 166.32 131.724 166.187C131.05 164.46 130.314 163.829 128.866 162.674L129.418 162.096Z"/><path fill="#4B7474" d="M124.519 136.03C125.389 136.391 125.923 136.589 126.715 137.11C127.029 137.85 126.991 138.135 127.569 138.489C125.436 139.266 122.917 139.955 121.945 142.209C121.339 141.414 118.921 140.878 118.044 141.154L117.82 141.614L117.056 141.257C116.836 141.01 116.496 140.512 116.289 140.23C116.928 140.035 118.01 140.092 118.796 139.935C121.573 139.38 122.689 137.948 124.519 136.03Z"/><path fill="#70B2A9" d="M87.5456 200.574C87.0237 199.502 86.6693 199.164 86.953 198.178C87.8322 197.3 90.1919 196.979 91.576 196.64C92.5194 197.561 93.9293 199.287 94.833 200.333C93.7879 200.531 88.3943 200.836 87.5456 200.574Z"/><path fill="#5A8D89" d="M141.272 191.132C141.877 189.457 142.53 188.47 144.268 188.134C145.28 189.107 147.404 191.811 147.922 192.154C148.515 192.139 148.254 192.223 148.74 191.914L149.133 191.978C148.915 192.563 148.691 193.146 148.46 193.726C148.336 193.663 146.833 193.39 146.466 193.287C144.483 192.731 143.062 192.123 141.272 191.132Z"/><path fill="#5A8D89" d="M131.724 166.187C132.06 166.32 132.875 166.576 133.049 166.802C132.267 167.645 132.602 168.872 131.944 169.601C129.993 171.76 127.182 173.887 124.926 175.851C126.188 172.72 126.84 171.424 129.73 169.525C131.328 168.475 131.441 168.037 131.724 166.187Z"/><path fill="#68A49C" d="M157.387 130.309C157.957 131.738 157.998 132.941 158.1 134.47C156.853 134.796 154.323 135.254 153.242 134.403C152.646 132.324 155.978 130.96 157.387 130.309Z"/><path fill="#70B2A9" d="M130.253 130.56C130.022 131.501 129.513 131.647 128.693 131.846C127.256 131.58 126.239 130.606 126.004 129.143C126.632 127.082 128.334 127.583 130.046 127.831C130.442 128.399 130.138 129.558 130.253 130.56Z"/><path fill="#03080A" d="M70.6446 195.402C71.1963 196.373 71.4124 198.962 71.5814 200.206L66.7862 200.208C68.0064 198.6 69.2672 196.863 70.6446 195.402Z"/><path fill="#5A8D89" d="M128.725 190.509C126.838 191.164 123.868 192.517 122.104 191.228C122.11 189.605 123.777 189.531 124.979 189.532C126.56 189.71 127.559 189.574 128.725 190.509Z"/><path fill="#3C605E" d="M70.6446 195.402L71.358 194.459C72.5 195.696 72.684 198.543 72.8107 200.243C74.9546 200.241 78.7677 200.133 80.7789 200.277C79.4563 200.588 67.6495 200.674 66.7862 200.208L71.5814 200.206C71.4124 198.962 71.1963 196.373 70.6446 195.402Z"/><defs><linearGradient id="gradient_0" gradientUnits="userSpaceOnUse" x1="130.43738" y1="137.79143" x2="128.81509" y2="135.92355"><stop offset="0" stop-color="#192830"/><stop offset="1" stop-color="#3F6F6A"/></linearGradient></defs><path fill="url(#gradient_0)" d="M126.715 137.11C127.068 137.206 127.5 137.324 128.009 137.464C130.12 136.866 131.638 135.576 133.86 134.832C132.157 137.384 130.839 138.537 127.569 138.489C126.991 138.135 127.029 137.85 126.715 137.11Z"/><path fill="#20383B" d="M123.272 149.885C123.872 148.752 126.333 147.097 127.557 146.828L127.84 147.106C127.413 148.919 124.672 148.823 124.119 151.611C124.05 151.093 123.992 150.735 123.872 150.226L123.272 149.885Z"/><path fill="#4B7474" d="M124.979 189.532C127.815 189.498 129.311 189.161 132.11 188.629C132.297 188.973 132.419 189.223 132.666 189.534L128.725 190.509C127.559 189.574 126.56 189.71 124.979 189.532Z"/><path fill="#3C605E" d="M125.585 158.898C126.304 160.493 127.87 161.159 129.418 162.096L128.866 162.674C127.979 162.257 125.836 160.944 125.222 160.201C125.542 159.729 125.515 159.484 125.585 158.898Z"/><path fill="#5A8D89" d="M137.745 133.698C141.96 133.929 142.803 134.563 143.03 130.031C144.807 131.606 147.148 133.429 147.346 136.012C147.42 136.982 147.093 137.579 147.628 138.298C148.62 138.91 149.632 139.488 150.663 140.033C150.141 145.168 153.158 143.551 157.134 144.173C157.295 146.067 158.077 148.331 158.643 150.188C157.763 149.512 156.551 148.519 155.657 147.923C154.218 148.252 153.255 148.5 151.771 148.597C149.903 150.68 147.868 153.041 145.956 155.048C145.043 149.096 145.67 148.943 150.902 146.028C148.103 144.828 144.911 143.648 142.233 142.456C142.687 142.155 143.47 142.104 144.042 142.016C144.562 142.085 145.046 142.146 145.568 142.19L145.66 141.886C144.817 141.376 143.964 140.885 143.1 140.412C142.989 139.487 142.885 138.391 142.722 137.49L140.057 137.03C139.192 135.503 138.908 135.028 137.745 133.698Z"/><path fill="#68A49C" d="M102.293 172.54C103.047 172.85 104.41 173.527 105.159 173.516C108.663 173.468 108.693 173.536 110.36 176.465C110.135 176.8 109.798 177.382 109.485 177.594L108.652 177.146C107.902 177.357 105.867 179.02 105.008 179.635C105.538 180.938 106.059 182.433 106.555 183.765C104.873 182.127 104.904 182.405 102.885 181.413C102.611 179.622 102.745 176.688 102.672 174.68C102.349 173.712 102.308 173.556 102.293 172.54Z"/><path fill="#5A8D89" d="M88.5664 164.232C92.4533 166.253 93.5321 168.373 95.8443 171.981C97.7348 172.545 99.2055 172.789 100.595 174.192C99.7328 174.756 98.5076 174.575 97.4592 174.717C96.2885 174.648 94.0813 174.741 92.8321 174.753C91.609 171.254 90.3713 167.445 88.5664 164.232Z"/><path fill="#5A8D89" d="M116.14 183.649C117.582 185.001 118.438 185.352 120.187 186.199C117.84 187.96 114.919 189.986 112.917 192.02C112.868 192.085 112.463 192.396 112.37 192.47C111.545 192.575 110.472 191.899 109.679 191.501C111.476 189.033 114.14 186.108 116.14 183.649Z"/><path fill="#4B7474" d="M89.1875 191.288C90.3218 189.291 91.8846 187.981 93.4398 186.262C94.0348 186.502 92.7403 188.535 93.3434 189.473C94.4906 190.02 97.4171 190.485 98.8004 190.75L97.9392 191.593C96.2208 192.941 95.3581 193.055 93.2684 193.424C91.8244 192.316 90.8353 191.918 89.1875 191.288Z"/><path fill="#4B7474" d="M97.7844 160.312C99.2457 160.653 99.3051 161.697 100.272 162.688C100.275 162.691 101.827 163.347 101.934 163.392C101.592 164.921 101.218 166.318 100.803 167.827C100.173 168.6 100.284 168.708 99.4747 169.002L98.9102 168.717C97.5876 166.848 97.7409 162.55 97.7844 160.312Z"/><path fill="#4B7474" d="M134.877 147.345C135.722 147.654 136.563 147.974 137.4 148.304C137.896 148.194 137.957 148.107 138.38 147.79L138.509 147.691L138.883 147.824C139.037 148.35 139.241 149.12 139.462 149.598C139.804 150.338 140.638 150.441 140.795 151.305C140.176 151.892 139.166 152.058 138.314 152.28C138.006 152.174 137.143 151.568 136.653 151.32C135.388 151.458 134.789 152.377 133.768 153.368C134.202 151.595 134.451 149.312 134.877 147.345Z"/><path fill="#68A49C" d="M127.357 178.66C128.196 178.456 129.081 178.723 129.667 179.357C130.254 179.991 130.452 180.894 130.183 181.715C129.915 182.536 129.222 183.148 128.374 183.313C127.104 183.561 125.868 182.748 125.591 181.484C125.315 180.219 126.099 178.965 127.357 178.66Z"/><path fill="#3C605E" d="M104.534 154.96C102.975 152.443 97.2484 153.199 94.9561 150.887L94.9716 150.552C95.7511 150.276 104.013 152.26 104.909 154.228C104.899 154.823 104.899 155.412 104.849 156.005L104.534 154.96Z"/><path fill="#4B7474" d="M97.3495 153.336C99.9432 154.044 101.778 155.055 104.534 154.96L104.849 156.005C104.715 156.353 104.454 156.654 104.228 156.958C102.048 158.023 98.8571 154.719 97.3495 153.336Z"/><path fill="#20383B" d="M123.06 177.234L123.802 177.332L123.877 177.657C122.731 179.279 120.176 179.959 118.307 180.27C117.94 180.303 117.71 180.216 117.356 180.125L117.303 179.679C118.233 178.571 121.593 177.693 123.06 177.234Z"/><path fill="#5A8D89" d="M104.966 164.934C107.158 165.443 107.878 168.479 108.195 170.371C106.108 170.412 105.067 166.584 104.966 164.934Z"/><path fill="#4B7474" d="M84.022 181.373C85.6517 182.391 86.4653 185.218 85.6028 186.851L85.1258 186.811C84.539 186.393 83.8475 186.018 83.5641 185.398C86.0665 183.831 84.0097 183.685 84.022 181.373Z"/><path fill="#5A8D89" d="M110.36 176.465C111.106 177.171 112.786 178.425 113.019 179.177C111.81 180.079 109.857 178.835 109.485 177.594C109.798 177.382 110.135 176.8 110.36 176.465Z"/><path fill="#20383B" d="M98.8004 190.75C99.9199 191 100.631 191.128 101.321 192.017C100.523 193.148 98.8759 192.13 97.9392 191.593L98.8004 190.75Z"/><path fill="#3C605E" d="M142.233 142.456C141.77 142.434 140.093 141.901 139.547 141.739L139.377 141.048C140.691 140.818 142.731 141.604 144.042 142.016C143.47 142.104 142.687 142.155 142.233 142.456Z"/><path fill="#0D1A1C" d="M100.595 174.192C101.479 173.607 101.632 173.384 102.293 172.54C102.308 173.556 102.349 173.712 102.672 174.68C101.456 174.881 98.7001 174.833 97.4592 174.717C98.5076 174.575 99.7328 174.756 100.595 174.192Z"/><path fill="#03080A" d="M190.056 204.163C190.926 203.881 196.408 203.641 197.593 204.078C198.886 206.252 195.235 208.713 193.492 209.396C192.423 209.746 190.88 209.656 189.718 209.657C188.221 210.816 185.147 211.415 183.456 211.369C181.451 214.336 180.331 215.887 177.773 218.358C172.126 218.784 162.489 218.493 156.576 218.48C154.996 218.604 152.055 218.514 150.375 218.479C146.581 218.324 141.667 218.467 137.8 218.466L112.771 218.476C111.154 218.631 110.7 218.54 109.153 218.26C107.47 218.61 105.8 218.475 104.082 218.42L103.576 218.296C101.661 217.95 99.1253 217.967 97.1809 218.088C95.0639 218.323 92.8102 218.467 90.6826 218.271C88.5918 218.317 81.6516 218.649 79.9862 217.973C79.4584 217.304 78.8714 216.666 78.3034 216.03C77.1002 215.785 74.827 214.336 73.7639 213.63C73.5846 212.608 73.7571 212.677 73.1546 212.023C71.8532 212.842 72.4494 213.882 72.0958 214.449L70.9476 218.221C69.7202 218.24 68.4523 218.278 67.2287 218.273L66.4549 218.313L52.5725 218.371C51.5602 214.05 51.7556 209.799 53.3821 205.671C58.3054 203.691 65.2363 204.254 70.5498 204.285C76.5898 204.29 82.6298 204.326 88.6694 204.395C88.9548 205.762 89.0552 206.48 89.7458 207.72C89.9495 207.718 90.3253 207.69 90.4929 207.754C91.4409 206.431 91.6901 205.844 92.2567 204.371C105.635 203.993 120.032 204.366 133.513 204.271L136.074 204.236L171.519 204.288C176.383 204.293 185.553 204.606 190.056 204.163Z"/><path fill="#70B2A9" d="M98.1814 210.608C102.374 212.585 103.845 212.974 108.363 211.428C105.352 213.963 104.485 214.437 104.082 218.42L103.576 218.296C101.661 217.95 99.1253 217.967 97.1809 218.088C95.0639 218.323 92.8102 218.467 90.6826 218.271C90.7595 215.794 90.8107 213.708 93.2247 212.63L93.4564 212.6C96.5106 212.224 96.0149 214.127 98.1814 210.608Z"/><path fill="#4B7474" d="M90.6826 218.271C90.7595 215.794 90.8107 213.708 93.2247 212.63C94.1916 214.298 95.2937 215.575 95.6898 217.387L96.1364 217.527L97.1809 218.088C95.0639 218.323 92.8102 218.467 90.6826 218.271Z"/><path fill="#3C605E" d="M96.1364 217.527C98.1649 216.428 102.045 216.213 103.576 218.296C101.661 217.95 99.1253 217.967 97.1809 218.088L96.1364 217.527Z"/><path fill="#4B7474" d="M190.056 204.163C190.926 203.881 196.408 203.641 197.593 204.078C198.886 206.252 195.235 208.713 193.492 209.396C192.423 209.746 190.88 209.656 189.718 209.657C188.221 210.816 185.147 211.415 183.456 211.369C184.133 210.208 184.702 209.526 185.532 208.492C187.043 206.884 190.346 205.266 190.617 204.376L190.056 204.163Z"/><path fill="#68A49C" d="M185.532 208.492C187.981 209.759 191.616 208.933 193.492 209.396C192.423 209.746 190.88 209.656 189.718 209.657C188.221 210.816 185.147 211.415 183.456 211.369C184.133 210.208 184.702 209.526 185.532 208.492Z"/><path fill="#4B7474" d="M133.513 204.271L136.074 204.236C133.541 204.837 133.42 207.338 133.704 209.371C133.018 210.511 129.867 212.703 128.612 213.647C127.347 212.775 125.811 212.096 124.419 211.423C126.441 210.213 132.825 206.163 133.513 204.271Z"/><path fill="#4B7474" d="M151.597 214.457C156.056 212.95 158.02 210.62 162.612 208.94C162.202 209.836 160.955 212.575 160.031 212.6C156.441 212.7 156.732 215.154 154.819 217.997C155.296 218.454 155.792 218.371 156.576 218.48C154.996 218.604 152.055 218.514 150.375 218.479C151.641 218.338 151.611 218.53 152.517 217.877C152.858 216.809 152.738 216.652 152.18 215.564C151.989 215.193 151.795 214.824 151.597 214.457Z"/><path fill="#68A49C" d="M89.7458 207.72C89.9495 207.718 90.3253 207.69 90.4929 207.754C89.1224 209.677 88.1024 213.985 87.1824 216.48C87.3638 214.438 87.5695 212.689 87.396 210.63C86.7313 210.182 86.0323 209.757 86.0072 208.948C87.1292 207.961 88.5781 208.789 89.7458 207.72Z"/><path fill="#4B7474" d="M78.3034 216.03C80.3585 215.019 83.489 214.653 85.766 214.315C82.8467 217.141 81.2203 216.968 79.9862 217.973C79.4584 217.304 78.8714 216.666 78.3034 216.03Z"/><path fill="#68A49C" d="M72.3728 211.228C72.1147 209.28 71.5125 208.271 71.7468 206.303L72.0707 206.114C72.9176 206.685 73.6219 208.372 74.1605 209.386C73.3374 209.158 73.4125 209.023 72.797 209.346C72.7359 209.829 72.6306 210.843 72.3728 211.228Z"/><path fill="#70B2A9" d="M72.3728 211.228C72.6306 210.843 72.7359 209.829 72.797 209.346C73.4125 209.023 73.3374 209.158 74.1605 209.386C74.074 210.876 74.022 212.153 73.7639 213.63C73.5846 212.608 73.7571 212.677 73.1546 212.023C71.8532 212.842 72.4494 213.882 72.0958 214.449C71.7413 213.254 71.9748 212.351 72.3728 211.228Z"/><path fill="#68A49C" d="M109.153 218.26C109.453 216.923 110.778 215.397 112.152 215.232L112.435 215.564C112.323 216.748 111.469 217.089 110.505 217.758L110.479 218.067C111.342 218.28 111.887 218.362 112.771 218.476C111.154 218.631 110.7 218.54 109.153 218.26Z"/><path fill="#4B7474" d="M64.2979 211.46C65.4919 213.305 67.3127 216.004 67.2287 218.273L66.4549 218.313C65.8468 216.118 64.7768 213.482 64.2979 211.46Z"/><path fill="#03080A" d="M160.149 160.861C162.263 159.86 164.301 157.828 165.148 157.561C165.907 162.459 173.365 176.756 176.34 181.421C177.391 183.069 180.632 187.902 181.28 189.373C181.614 189.745 182.22 190.348 182.413 190.761C183.568 192.285 188.967 198.993 189.046 200.272C187.871 200.994 183.02 200.475 181.237 200.536C179.02 200.766 169.618 201.127 167.983 200.228C165.392 200.704 151.662 200.445 148.171 200.422C149.657 196.576 151.785 194.813 155.105 192.551C158.895 189.97 155.316 189.376 155.793 186.768L155.528 186.036C153.987 186.394 151.994 186.899 151.071 185.385C150.958 184.502 151.635 183.585 152.1 182.78C152.35 181.456 153.024 180.728 153.492 178.974C151.406 180.105 151.884 180.33 150.48 181.199L150.315 181.299C151.535 178.815 156.558 174.735 155.525 172.005C155.822 171.853 156.492 171.615 156.833 171.483C157.815 168.588 158.949 163.381 160.149 160.861Z"/><path fill="#68A49C" d="M181.28 189.373C181.614 189.745 182.22 190.348 182.413 190.761C183.568 192.285 188.967 198.993 189.046 200.272C187.871 200.994 183.02 200.475 181.237 200.536C179.02 200.766 169.618 201.127 167.983 200.228C174.404 196.78 176.536 194.83 181.28 189.373Z"/><path fill="#03080A" d="M182.413 190.761C183.568 192.285 188.967 198.993 189.046 200.272C187.871 200.994 183.02 200.475 181.237 200.536C181.263 198.797 181.795 192.253 182.413 190.761Z"/><path fill="#5A8D89" d="M155.525 172.005C155.822 171.853 156.492 171.615 156.833 171.483C156.488 175.241 154.723 180.042 152.1 182.78C152.35 181.456 153.024 180.728 153.492 178.974C151.406 180.105 151.884 180.33 150.48 181.199L150.315 181.299C151.535 178.815 156.558 174.735 155.525 172.005Z"/><path fill="#3C605E" d="M155.528 186.036C155.382 182.068 155.954 180.584 159.741 178.686C157.811 181.825 156.796 183.207 155.793 186.768L155.528 186.036Z"/><path fill="#5A8D89" d="M169.203 177.425C170.387 178.202 171.19 181.845 170.366 183.29C169.564 183.723 169.935 183.653 168.928 183.463C168.029 183.049 166.946 182.446 166.051 181.979C167.019 179.707 167.43 179.102 169.203 177.425Z"/><path fill="#3C605E" d="M162.465 189.293C163.657 189.241 163.814 189.161 164.673 189.733C165.274 191.367 164.278 192.441 162.963 193.317C161.998 192.855 160.926 191.448 160.926 190.301C161.418 189.588 161.669 189.557 162.465 189.293Z"/><path fill="#20383B" d="M166.482 192.217C166.85 192.495 166.688 192.322 166.88 192.837C166.438 193.973 165.133 194.724 164.14 195.384L163.737 195.05L163.722 194.53C164.314 193.594 165.545 192.868 166.482 192.217Z"/><path fill="#03080A" d="M100.557 222.098C101.317 221.723 102.783 221.94 103.692 221.999C105.257 222.004 107.215 222.316 108.478 222.269C109.412 224.951 111.08 224.624 113.578 224.768C113.622 226.168 113.65 227.609 113.715 229.003L112.915 229.094C110.904 229.747 109.818 228.783 108.336 229.247C109.764 233.627 109.606 235.45 109.478 240.083C103.38 240.395 96.9165 240.161 90.7858 240.047C89.1629 240.017 89.1433 238.853 88.1821 239.206C87.8897 239.646 87.6962 240.142 87.2371 240.173C85.6743 240.279 83.7965 240.24 82.2324 240.242C81.3742 240.299 80.053 240.482 79.3067 240.18L76.8008 240.015L76.567 240.076C74.7382 240.053 72.9095 240.018 71.081 239.972C68.229 234.248 68.3199 227.07 72.9651 222.282C78.6046 222.182 84.2455 222.178 89.8851 222.272C93.0736 222.296 97.4459 222.412 100.557 222.098Z"/><path fill="#68A49C" d="M100.557 222.098C101.317 221.723 102.783 221.94 103.692 221.999C105.257 222.004 107.215 222.316 108.478 222.269C109.412 224.951 111.08 224.624 113.578 224.768C113.622 226.168 113.65 227.609 113.715 229.003L112.915 229.094C110.904 229.747 109.818 228.783 108.336 229.247C106.058 225.14 102.946 225.683 101.211 222.279L100.557 222.098Z"/><path fill="#70B2A9" d="M103.692 221.999C105.257 222.004 107.215 222.316 108.478 222.269C109.412 224.951 111.08 224.624 113.578 224.768C113.622 226.168 113.65 227.609 113.715 229.003L112.915 229.094C111.371 227.374 110.105 226.616 108.179 225.393C106.717 224.464 107.051 224.02 106.379 222.686C105.478 222.382 104.619 222.206 103.692 221.999Z"/><path fill="#70B2A9" d="M79.3067 240.18L79.8888 240.066L80.0359 239.769C79.4336 238.969 79.2677 239.035 79.2685 238.228C79.9824 237.577 82.7392 237.637 83.9897 237.437C83.5253 238.054 82.2343 239.549 82.2324 240.242C81.3742 240.299 80.053 240.482 79.3067 240.18Z"/><path fill="#20383B" d="M76.567 240.076C76.403 238.772 75.4761 234.351 75.5218 233.691C77.4323 234.695 76.5577 238.447 76.8008 240.015L76.567 240.076Z"/><path fill="#3C605E" d="M76.1746 227.217C78.4028 229.143 81.1676 230.655 83.1179 232.572C79.6805 231.554 77.7589 230.838 75.4053 227.834L76.1746 227.217Z"/><path fill="#20383B" d="M88.6465 234.214C87.3583 233.532 85.5821 233.398 84.9818 232.35C86.1438 231.669 88.3671 232.336 89.2635 233.212C89.0832 233.486 88.7631 233.935 88.6465 234.214Z"/><path fill="#3C605E" d="M89.2635 233.212L89.5737 233.293C90.2202 233.462 90.7906 233.512 91.1895 233.979C90.8043 234.741 90.2795 236.032 89.62 236.442C88.7896 235.748 89.3564 235.449 88.6465 234.214C88.7631 233.935 89.0832 233.486 89.2635 233.212Z"/><path fill="#20383B" d="M89.5737 233.293L90.3558 233.193C90.8039 232.52 91.1877 231.853 91.8102 231.341L92.1763 231.405C92.1836 232.113 91.5729 233.472 91.1895 233.979C90.7906 233.512 90.2202 233.462 89.5737 233.293Z"/><path fill="#3C605E" d="M73.0628 224.671C74.4942 225.601 74.9559 226.047 76.1746 227.217L75.4053 227.834C74.6077 226.821 73.8266 225.716 73.0628 224.671Z"/><path fill="#03080A" d="M199.617 222.227C202.98 222.104 204.947 222.014 208.289 222.217C209.921 222.987 211.824 223.687 212.309 225.536C213.422 229.779 213.19 235.735 212.065 239.899C208.224 236.5 207.77 236.413 204.001 239.896C202.137 239.878 200.274 239.837 198.411 239.774C197.598 238.453 196.486 236.539 195.365 235.505C194.963 234.814 194.459 234.614 193.766 234.235C193.272 233.474 193.248 232.567 193.174 231.678C190.84 232.086 190.258 237.179 186.501 231.785C178.071 236.395 179.811 231.037 179.762 225.452C179.34 224.814 179.025 225.191 177.837 224.917L177.889 224.468C180.561 221.855 195.354 222.228 199.617 222.227Z"/><path fill="#4B7474" d="M186.501 231.785C178.071 236.395 179.811 231.037 179.762 225.452C179.34 224.814 179.025 225.191 177.837 224.917L177.889 224.468C180.561 221.855 195.354 222.228 199.617 222.227C199.497 222.656 199.421 223.114 199.178 223.46C200.442 224.246 201.309 225.581 201.827 226.958C202.676 227.997 198.684 231.129 198.075 233.085C198.019 232.982 197.498 232.376 197.39 232.247C196.671 233.347 196.007 234.352 195.365 235.505C194.963 234.814 194.459 234.614 193.766 234.235C193.272 233.474 193.248 232.567 193.174 231.678C190.84 232.086 190.258 237.179 186.501 231.785Z"/><path fill="#68A49C" d="M193.766 234.235C194.49 232.557 196.533 228.158 198.85 229.295C198.846 229.936 197.847 231.25 197.39 232.247C196.671 233.347 196.007 234.352 195.365 235.505C194.963 234.814 194.459 234.614 193.766 234.235Z"/><path fill="#68A49C" d="M199.178 223.46C200.442 224.246 201.309 225.581 201.827 226.958C199.076 227.341 198.789 225.718 199.178 223.46Z"/><path fill="#68A49C" d="M186.193 223.58L186.753 223.586L186.94 223.985C186.73 225.307 186.447 225.871 185.463 226.755C184.681 226.953 185.014 226.954 184.148 226.62C183.199 225.994 182.868 225.959 182.416 225.054L182.607 224.557C183.506 223.929 185.066 223.777 186.193 223.58Z"/><path fill="#5A8D89" d="M199.617 222.227C202.98 222.104 204.947 222.014 208.289 222.217C206.526 222.978 206.615 224.28 206.451 226.044C206.559 226.442 206.745 227.011 206.751 227.407C205.751 229.216 207.079 228.95 206.327 230.912C205.115 230.968 205.6 229.931 204.442 230.282C202.927 232.408 203.453 232.407 201.377 234.076C201.695 234.844 202.313 236.03 202.128 236.778C200.987 237.066 198.775 234.005 198.075 233.085C198.684 231.129 202.676 227.997 201.827 226.958C201.309 225.581 200.442 224.246 199.178 223.46C199.421 223.114 199.497 222.656 199.617 222.227Z"/><path fill="#4B7474" d="M206.451 226.044C208.229 225.878 209.437 225.281 211.083 224.948C209.996 225.725 208.033 227.239 206.751 227.407C206.745 227.011 206.559 226.442 206.451 226.044Z"/><path fill="#4B7474" d="M148.972 222.217C151.778 221.926 167.287 221.792 170.039 222.215L176.846 222.294C170.55 226.904 166.521 230.942 158.523 233.031C157.643 233.261 157.283 232.327 156.115 232.667C153.933 236.042 151.004 235.954 147.794 238.187C147.983 237.233 148.064 236.764 148.428 235.866L148.271 235.282L147.838 235.161C145.973 236.564 147.959 238.608 147.17 240.107C145.653 240.14 144.968 234.565 140.088 234.749C137.57 231.437 136.323 230.685 134.074 226.636C135.249 225.323 137.6 223.932 137.847 222.839C137.246 222.285 136.844 222.461 135.831 222.409C136.927 222.115 147.252 222.222 148.972 222.217Z"/><path fill="#68A49C" d="M148.972 222.217C151.778 221.926 167.287 221.792 170.039 222.215C165.603 222.39 160.51 222.24 156.026 222.206C155.918 223.834 155.847 225.356 154.996 226.805C154.383 227.848 152.764 230.182 151.361 229.373C150.783 227.37 153.586 224.345 154.584 222.465L154.691 222.261C152.784 222.29 150.877 222.275 148.972 222.217Z"/><path fill="#03080A" d="M47.2474 222.035C50.1339 221.8 52.9068 221.601 55.7966 221.967C57.6473 221.974 67.5079 221.798 68.4341 222.093L68.4624 222.467C67.4337 223.588 66.5514 224.45 66.0079 225.907C65.928 226.625 65.1517 232.39 65.025 232.574C63.5357 233.425 58.7809 233.952 56.9063 233.59C53.4939 238.958 53.8177 239.735 47.0059 238.739C46.386 239.124 45.1664 239.907 44.4682 239.75C41.3856 239.058 42.1686 230.788 42.4449 228.342L42.4505 228.21C42.5499 226.014 42.746 224.298 44.4115 222.775L44.6756 222.499C45.7467 222.107 46.0957 222.107 47.2474 222.035Z"/><path fill="#03080A" d="M55.7966 221.967C57.6473 221.974 67.5079 221.798 68.4341 222.093L68.4624 222.467C67.4337 223.588 66.5514 224.45 66.0079 225.907C65.928 226.625 65.1517 232.39 65.025 232.574C63.5357 233.425 58.7809 233.952 56.9063 233.59C58.0107 233.413 59.0631 233.818 59.7351 233.258L59.4679 232.809C59.1355 230.902 60.1807 229.697 59.5211 228.055C58.9716 227.716 57.147 225.911 55.6676 224.948L53.0611 225.901C52.3255 225.043 52.2526 225.215 52.0828 224.246L52.9615 222.729C53.0012 222.393 53.0387 222.427 53.2545 222.116C54.2101 221.963 54.8271 221.972 55.7966 221.967Z"/><path fill="#5A8D89" d="M64.4815 230.506C64.8644 229.613 65.513 227.202 66.0079 225.907C65.928 226.625 65.1517 232.39 65.025 232.574C63.5357 233.425 58.7809 233.952 56.9063 233.59C58.0107 233.413 59.0631 233.818 59.7351 233.258L59.4679 232.809C59.1355 230.902 60.1807 229.697 59.5211 228.055L60.5947 227.259C61.6149 228.264 63.2184 229.806 64.4815 230.506Z"/><path fill="#4B7474" d="M64.4815 230.506C64.8644 229.613 65.513 227.202 66.0079 225.907C65.928 226.625 65.1517 232.39 65.025 232.574C63.5357 233.425 58.7809 233.952 56.9063 233.59C58.0107 233.413 59.0631 233.818 59.7351 233.258L59.4679 232.809C61.3366 232.575 62.9481 233.232 64.348 231.946C64.7035 231.06 64.6686 231.441 64.4815 230.506Z"/><path fill="#4B7474" d="M53.0611 225.901C52.3255 225.043 52.2526 225.215 52.0828 224.246C53.1116 224.717 55.3737 224.251 56.753 224.296C57.9647 225.169 59.5529 226.231 60.5947 227.259L59.5211 228.055C58.9716 227.716 57.147 225.911 55.6676 224.948L53.0611 225.901Z"/><path fill="#68A49C" d="M47.2474 222.035C50.1339 221.8 52.9068 221.601 55.7966 221.967C54.8271 221.972 54.2101 221.963 53.2545 222.116C53.0387 222.427 53.0012 222.393 52.9615 222.729L52.0828 224.246C52.2526 225.215 52.3255 225.043 53.0611 225.901C50.9744 226.641 49.3102 227.352 47.2816 228.251C45.3581 228.768 44.9869 228.644 43.0455 228.048L42.4449 228.342L42.4505 228.21C42.5499 226.014 42.746 224.298 44.4115 222.775L44.6756 222.499C45.7467 222.107 46.0957 222.107 47.2474 222.035Z"/><path fill="#5A8D89" d="M44.4115 222.775L44.6756 222.499C45.1643 225.121 47.7681 224.363 47.2816 228.251C45.3581 228.768 44.9869 228.644 43.0455 228.048L42.4449 228.342L42.4505 228.21C42.5499 226.014 42.746 224.298 44.4115 222.775Z"/><path fill="#20383B" d="M44.4115 222.775C45.1456 224.62 43.3687 225.943 43.0455 228.048L42.4449 228.342L42.4505 228.21C42.5499 226.014 42.746 224.298 44.4115 222.775Z"/><path fill="#3C605E" d="M47.2474 222.035C50.1339 221.8 52.9068 221.601 55.7966 221.967C54.8271 221.972 54.2101 221.963 53.2545 222.116C53.0387 222.427 53.0012 222.393 52.9615 222.729C51.454 221.658 50.1235 224.029 48.1328 223.438C47.3724 222.816 47.5999 223.039 47.2474 222.035Z"/><path fill="#03080A" d="M135.831 222.409C136.844 222.461 137.246 222.285 137.847 222.839C137.6 223.932 135.249 225.323 134.074 226.636C136.323 230.685 137.57 231.437 140.088 234.749C140.524 236.415 140.691 238.491 141.792 239.768C141.114 240.249 116.339 240.04 113.524 240.029C116.376 236.217 117.707 234.436 122.751 234.759C125.618 232.448 127.353 230.858 129.894 228.239C131.055 227.042 134.721 223.151 135.831 222.409Z"/><path fill="#03080A" d="M167.729 231.815C169.362 230.306 173.95 225.639 176.093 226.267C176.708 227.139 177.074 228.983 177.358 230.084C177.999 232.35 177.968 233.449 179.75 234.935C179.001 235.073 178.48 235.196 177.746 235.401C178.863 236.102 179.585 236.663 179.94 237.991C179.972 239.012 180.125 238.899 179.66 239.642L179.328 239.809C177.499 240.248 161.443 240.032 159.424 239.829L159.289 239.321C160 238.003 162.617 236.667 163.564 235.434C163.856 235.053 163.538 234.545 163.381 233.862C163.806 233.49 166.645 232.419 167.729 231.815Z"/><path fill="#5A8D89" d="M179.328 239.809C177.499 240.248 161.443 240.032 159.424 239.829L159.289 239.321C160 238.003 162.617 236.667 163.564 235.434C163.856 235.053 163.538 234.545 163.381 233.862C163.806 233.49 166.645 232.419 167.729 231.815L168.153 232.451C168.669 232.538 168.745 232.576 169.244 232.464L170.518 232.622L170.705 233.097C169.992 233.767 169.208 234.591 168.431 235.166C166.898 236.302 162.549 237.835 161.724 239.354L161.853 239.643C166.871 240.179 174.2 239.435 179.328 239.809Z"/><path fill="#0D1A1C" d="M167.729 231.815C169.362 230.306 173.95 225.639 176.093 226.267C176.708 227.139 177.074 228.983 177.358 230.084C176.668 231.195 170.646 232.352 169.244 232.464C168.745 232.576 168.669 232.538 168.153 232.451L167.729 231.815Z"/><path fill="#3C605E" d="M177.358 230.084C177.999 232.35 177.968 233.449 179.75 234.935C179.001 235.073 178.48 235.196 177.746 235.401C176.911 234.563 176.81 233.187 175.36 232.478C174.051 231.838 172.115 232.663 170.705 233.097L170.518 232.622L169.244 232.464C170.646 232.352 176.668 231.195 177.358 230.084Z"/><path fill="#03080A" d="M188.959 212.452C190.992 211.989 192.584 211.698 194.556 210.965C197.162 209.996 199.809 205.837 202.307 207.236C203.692 209.036 203.985 216.504 201.724 217.774C199.038 219.284 193.65 218.382 190.406 218.527C187.345 218.42 184.284 218.329 181.222 218.253C184.102 216.423 185.254 212.518 188.959 212.452Z"/><path fill="#4B7474" d="M181.222 218.253C184.102 216.423 185.254 212.518 188.959 212.452C188.891 214.008 188.553 217.008 189.406 218.181L190.406 218.527C187.345 218.42 184.284 218.329 181.222 218.253Z"/><path fill="#4B7474" d="M108.478 222.269C116.635 222.238 124.792 222.25 132.949 222.304C131.425 224.08 128.993 227.369 127.211 228.543C124.601 230.261 121.95 231.125 119.249 233.038C117.71 232.298 119.208 230.932 115.285 231.76C114.643 231.343 114.058 229.776 113.715 229.003C113.65 227.609 113.622 226.168 113.578 224.768C111.08 224.624 109.412 224.951 108.478 222.269Z"/><path fill="#0D1A1C" d="M63.884 234.709C64.988 234.755 69.1032 238.897 69.9093 240.004C68.0592 240.154 65.7077 240.085 63.8126 240.078C62.099 240.045 58.6875 240.268 57.3998 239.27L57.3978 238.799C58.383 237.674 62.0233 236.097 63.884 234.709Z"/><path fill="#4B7474" d="M179.75 234.935C183.43 236.017 188.05 234.67 189.479 236.96C189.511 237.891 189.414 238.11 189.143 238.989L188.632 239.457C186.98 239.916 183.571 239.814 181.718 239.808C181.948 238.494 182.157 236.65 180.314 236.598C179.82 237.177 179.973 237.061 179.94 237.991C179.585 236.663 178.863 236.102 177.746 235.401C178.48 235.196 179.001 235.073 179.75 234.935Z"/><path fill="#5A8D89" d="M160.953 234.155C161.246 234.206 161.265 234.256 161.54 234.402C158.647 237.027 156.169 239.589 152.236 239.804C151.749 239.629 151.917 239.72 151.568 239.266C152.27 238.306 154.597 238.469 155.556 237.91C157.326 236.877 159.249 235.351 160.953 234.155Z"/><path fill="#5A8D89" d="M148.74 191.914C148.924 189.417 150.504 188.304 152.644 189.867L152.755 190.301C150.772 191.317 151.04 189.998 149.133 191.978L148.74 191.914Z"/><path fill="#5A8D89" d="M189.143 238.989C190.42 238.65 191.754 237.712 192.992 237.779L193.389 238.019C193.105 239.77 189.963 239.64 188.632 239.457L189.143 238.989Z"/></svg>