<?xml version="1.0" encoding="utf-8" ?><svg xmlns="http://www.w3.org/2000/svg" xmlns:xlink="http://www.w3.org/1999/xlink" width="1024" height="1024" viewBox="0 0 1024 1024"><clipPath id="cl_3"><rect x="-0.0012207031" width="1024" height="1024"/></clipPath><g clip-path="url(#cl_3)"><path transform="matrix(2.35402 0 0 2.2407 -692.084 -685.654)" d="M508.235 247.759C519.401 247.452 521.203 252.246 521.59 262.249C526.042 262.86 529.223 263.209 532.667 266.279C534.985 268.345 536.367 271.262 536.499 274.364C536.874 282.97 529.885 286.468 522.339 286.589C522.122 292.567 522.136 297.716 522.262 303.701C534.02 309.494 551.133 321.737 561.062 330.238C581.657 348.225 603.017 370.052 605.183 398.848C606.656 418.43 600.23 429.051 588.246 443.263C591.132 443.571 593.839 443.969 596.484 445.123C609.428 450.769 610.181 472.03 598.74 479.558C596.821 480.82 594.367 481.535 592.196 482.234C594.973 498.636 599.423 516.847 602.935 533.184C607.328 554.167 611.436 575.208 615.258 596.302C618.746 615.706 622.136 635.513 621.972 655.302C621.891 665.063 620.392 671.417 616.522 680.258C634.506 682.713 631.324 696.042 631.248 709.949C633.541 710.498 636.401 711.369 638.139 712.871C642.013 717.429 642.303 727 643.088 732.442C646.802 758.192 635.435 755.196 615.11 755.076C610.1 755.046 602.151 755.009 596.51 755.006L515.875 755.011L439.322 755.05C422.447 755.085 401.39 756.786 384.943 753.755C377.002 752.292 380.38 723.115 382.588 717.217C384.126 713.11 388.063 711.437 391.921 709.94C393.305 695.787 386.789 684.672 404.997 680.632C394.521 657.153 402.883 620.067 406.867 595.262C412.949 557.393 421.639 519.668 429.614 482.143C420.76 480.541 415.295 476.259 414.823 466.795C414.148 453.284 418.8 444.498 432.738 443.867C429.526 439.458 425.472 435.304 422.803 430.478C405.008 398.306 423.319 365.595 446.676 341.975C462.518 325.956 478.954 315.381 498.588 303.848C498.627 297.968 498.851 292.605 498.771 286.632C487.885 286.189 480.17 278.181 487.544 267.322C490.06 263.617 495.66 263.221 499.894 262.956C500.434 255.119 499.702 250.138 508.235 247.759Z"/><defs><linearGradient id="gradient_0" gradientUnits="userSpaceOnUse" x1="485.32965" y1="317.01819" x2="510.79001" y2="415.04178"><stop offset="0" stop-color="#75756E"/><stop offset="1" stop-color="#908F87"/></linearGradient></defs><path fill="url(#gradient_0)" transform="matrix(2.35402 0 0 2.2407 -692.084 -685.654)" d="M507.045 310.611L509.008 310.502C512.212 310.333 512.482 310.356 515.541 309.219C542.348 321.985 567.285 343.71 585.204 367.272C591.319 376.28 593.868 381.872 596.72 392.507C599.491 404.758 597.384 417.607 590.846 428.332C586.559 435.245 581.071 440.092 574.649 444.942C555.974 444.987 528.333 445.652 509.898 444.187L506.269 444.014C498.906 443.903 491.543 443.966 484.183 444.201L481.979 443.851C481.064 442.494 480.155 440.58 479.386 439.078C480.318 437.58 480.568 437.928 482.729 437.164L482.98 436.155C482.315 434.069 481.455 433.442 479.916 431.782L482.583 426.204C480.517 426.293 477.062 427.403 475.939 427.381C472.179 427.31 457.595 426.606 455.351 424.703L451.914 425.314C448.996 425.847 449.554 425.013 446.773 426.586C445.792 428.747 447.008 429.99 445.439 432.9C442.868 433.162 440.29 433.356 437.709 433.48C434.998 429.896 431.645 424.339 427.634 423.012C425.681 419.033 424.927 413.475 424.178 409.04C423.345 403.44 423.669 400.102 424.163 394.456C425.029 390.18 425.622 388.124 427.085 384.038C436.625 357.29 466.068 333.394 489.687 318.803C494.267 315.974 499.592 312.47 504.456 310.234L507.045 310.611Z"/><defs><linearGradient id="gradient_1" gradientUnits="userSpaceOnUse" x1="536.40289" y1="445.73862" x2="543.94873" y2="364.72302"><stop offset="0" stop-color="#88857B"/><stop offset="1" stop-color="#ABABA2"/></linearGradient></defs><path fill="url(#gradient_1)" transform="matrix(2.35402 0 0 2.2407 -692.084 -685.654)" d="M585.204 367.272C591.319 376.28 593.868 381.872 596.72 392.507C599.491 404.758 597.384 417.607 590.846 428.332C586.559 435.245 581.071 440.092 574.649 444.942C555.974 444.987 528.333 445.652 509.898 444.187L506.269 444.014C498.906 443.903 491.543 443.966 484.183 444.201L481.979 443.851C481.064 442.494 480.155 440.58 479.386 439.078C480.318 437.58 480.568 437.928 482.729 437.164L482.98 436.155C482.315 434.069 481.455 433.442 479.916 431.782L482.583 426.204L485.523 426.091C488.028 425.994 488.044 426.127 490.113 424.711C494.285 422.268 500.519 424.721 502.635 418.234C502.156 414.416 497.941 415.225 494.761 415.146C490.587 415.041 487.945 413.265 484.016 412.441C487.244 409.999 489.881 407.915 492.388 404.739C495.41 403.727 497.295 403.185 499.454 400.877C500.668 401.387 501.906 401.841 503.162 402.236C516.649 406.398 526.758 399.179 530.758 386.391C532.423 387.383 534.469 388.528 536.032 389.615C536.402 388.629 536.654 386.94 536.865 385.847C537.352 383.191 536.886 383.511 538.417 381.781C540.626 380.716 543.263 381.095 545.822 381.165C551.051 382.874 554.208 383.885 559.674 384.388C569.432 373.495 569.01 370.979 585.204 367.272Z"/><defs><linearGradient id="gradient_2" gradientUnits="userSpaceOnUse" x1="555.79077" y1="443.72925" x2="555.18744" y2="394.49396"><stop offset="0" stop-color="#585758"/><stop offset="1" stop-color="#777670"/></linearGradient></defs><path fill="url(#gradient_2)" transform="matrix(2.35402 0 0 2.2407 -692.084 -685.654)" d="M596.72 392.507C599.491 404.758 597.384 417.607 590.846 428.332C586.559 435.245 581.071 440.092 574.649 444.942C555.974 444.987 528.333 445.652 509.898 444.187C511.551 444.028 511.929 444.071 513.29 443.077C526.181 433.661 528.642 434.623 542.967 433.045C551.754 427.958 553.885 429.641 563.827 427.809C566.599 427.298 570.019 425.977 572.683 424.943C582.101 422.154 577.714 422.397 582.757 415.1C579.474 409.375 576.331 405.506 571.993 400.562C582.688 400.464 580.519 399.63 588.944 394.461C591.255 393.043 592.891 395.384 596.72 392.507Z"/><path fill="#71716C" transform="matrix(2.35402 0 0 2.2407 -692.084 -685.654)" d="M572.683 424.943C569.092 431.505 550.246 434.637 542.967 433.045C551.754 427.958 553.885 429.641 563.827 427.809C566.599 427.298 570.019 425.977 572.683 424.943Z"/><path fill="#B6B5B1" transform="matrix(2.35402 0 0 2.2407 -692.084 -685.654)" d="M490.113 424.711C494.68 428.039 505.752 434.499 508.589 438.086C508.569 440.49 506.568 441.366 506.269 444.014C498.906 443.903 491.543 443.966 484.183 444.201L481.979 443.851C481.064 442.494 480.155 440.58 479.386 439.078C480.318 437.58 480.568 437.928 482.729 437.164L482.98 436.155C482.315 434.069 481.455 433.442 479.916 431.782L482.583 426.204L485.523 426.091C488.028 425.994 488.044 426.127 490.113 424.711Z"/><path fill="#908F88" transform="matrix(2.35402 0 0 2.2407 -692.084 -685.654)" d="M536.865 385.847C541.237 385.899 545.607 386.04 549.973 386.268C544.692 388.657 541.429 389.776 536.763 393.203L536.242 392.972L536.032 389.615C536.402 388.629 536.654 386.94 536.865 385.847Z"/><path transform="matrix(2.35402 0 0 2.2407 -692.084 -685.654)" d="M511.637 409.66C518.574 409.563 519.661 414.119 517.315 419.718C514.684 421.102 511.528 420.454 509.553 418.264C505.428 414.134 506.33 411.452 511.637 409.66Z"/><path fill="#807F78" transform="matrix(2.35402 0 0 2.2407 -692.084 -685.654)" d="M511.637 409.66C518.574 409.563 519.661 414.119 517.315 419.718C514.605 418.256 514.942 417.116 514.667 414.215C514.383 411.692 513.589 411.355 511.637 409.66Z"/><path fill="#605F5E" transform="matrix(2.35402 0 0 2.2407 -692.084 -685.654)" d="M509.553 418.264C512.41 417.164 512.794 416.569 514.667 414.215C514.942 417.116 514.605 418.256 517.315 419.718C514.684 421.102 511.528 420.454 509.553 418.264Z"/><path fill="#B6B5B1" transform="matrix(2.35402 0 0 2.2407 -692.084 -685.654)" d="M484.182 367.538C487.91 367.504 492.293 367.576 495.966 367.381C490.97 373.138 489.954 375.649 489.488 383.582C490.705 391.413 492.603 396.208 499.454 400.877C497.295 403.185 495.41 403.727 492.388 404.739C489.881 407.915 487.244 409.999 484.016 412.441C487.945 413.265 490.587 415.041 494.761 415.146C497.941 415.225 502.156 414.416 502.635 418.234C500.519 424.721 494.285 422.268 490.113 424.711C488.044 426.127 488.028 425.994 485.523 426.091L482.583 426.204C480.517 426.293 477.062 427.403 475.939 427.381C472.179 427.31 457.595 426.606 455.351 424.703L451.914 425.314C448.551 424.874 448.617 424.913 446.286 422.426C444.721 421.886 444.177 421.869 443.267 420.494C443.941 419.002 445.233 418.68 446.96 417.607L446.956 416.353C434.639 413.709 436.713 405.42 437.075 395.231C439.312 394.777 441.191 394.649 443.431 394.345L444.047 393.515C443.866 391.254 443.873 391.913 442.243 389.792C445.303 386.983 457.738 382.214 461.785 379.033C463.962 377.321 467.525 375.548 469.812 377.701C470.569 375.565 469.435 375.723 470.595 373.652C472.933 372.111 481.513 368.092 484.182 367.538Z"/><path fill="#71716C" transform="matrix(2.35402 0 0 2.2407 -692.084 -685.654)" d="M463.592 402.548C465.952 402.985 467.991 403.191 470.365 403.447C471.965 404.515 473.639 405.597 475.2 406.714L475.733 409.114C478.42 410.216 481.307 411.466 484.016 412.441C487.945 413.265 490.587 415.041 494.761 415.146C497.941 415.225 502.156 414.416 502.635 418.234C500.519 424.721 494.285 422.268 490.113 424.711C488.044 426.127 488.028 425.994 485.523 426.091L482.583 426.204C480.517 426.293 477.062 427.403 475.939 427.381C472.179 427.31 457.595 426.606 455.351 424.703L451.914 425.314C448.551 424.874 448.617 424.913 446.286 422.426C444.721 421.886 444.177 421.869 443.267 420.494C443.941 419.002 445.233 418.68 446.96 417.607L446.956 416.353C447.826 414.472 449.129 408.524 448.418 406.626C454.841 401.116 456.921 405.231 463.592 402.548Z"/><path fill="#A7A6A2" transform="matrix(2.35402 0 0 2.2407 -692.084 -685.654)" d="M463.592 402.548C465.952 402.985 467.991 403.191 470.365 403.447C468.143 404.195 466.57 404.717 464.412 405.695L463.252 406.055L463.049 406.748C465.011 409.776 468.047 409.978 471.484 410.707L471.97 410.809C471.806 412.285 471.716 412.684 471.327 414.123C470.536 416.501 469.196 417.308 467.112 418.757C465.741 419.515 464.226 420.289 462.96 421.178C459.881 422.879 458.659 423.487 455.351 424.703L451.914 425.314C448.551 424.874 448.617 424.913 446.286 422.426C444.721 421.886 444.177 421.869 443.267 420.494C443.941 419.002 445.233 418.68 446.96 417.607L446.956 416.353C447.826 414.472 449.129 408.524 448.418 406.626C454.841 401.116 456.921 405.231 463.592 402.548Z"/><path fill="#B6B5B1" transform="matrix(2.35402 0 0 2.2407 -692.084 -685.654)" d="M446.96 417.607C448.748 417.884 452.021 418.343 453.79 417.913C455.583 418.612 457.527 419.425 459.423 419.749C460.364 420.111 462.145 420.731 462.96 421.178C459.881 422.879 458.659 423.487 455.351 424.703L451.914 425.314C448.551 424.874 448.617 424.913 446.286 422.426C444.721 421.886 444.177 421.869 443.267 420.494C443.941 419.002 445.233 418.68 446.96 417.607Z"/><path fill="#A7A6A2" transform="matrix(2.35402 0 0 2.2407 -692.084 -685.654)" d="M459.423 419.749C460.364 420.111 462.145 420.731 462.96 421.178C459.881 422.879 458.659 423.487 455.351 424.703L451.914 425.314C448.551 424.874 448.617 424.913 446.286 422.426C451.57 422.448 454.333 420.832 458.983 420.6L459.423 419.749Z"/><path fill="#908F88" transform="matrix(2.35402 0 0 2.2407 -692.084 -685.654)" d="M453.79 417.913C457.724 415.499 464.726 416.839 471.327 414.123C470.536 416.501 469.196 417.308 467.112 418.757C465.741 419.515 464.226 420.289 462.96 421.178C462.145 420.731 460.364 420.111 459.423 419.749C457.527 419.425 455.583 418.612 453.79 417.913Z"/><path fill="#807F78" transform="matrix(2.35402 0 0 2.2407 -692.084 -685.654)" d="M464.412 405.695C466.57 404.717 468.143 404.195 470.365 403.447C471.965 404.515 473.639 405.597 475.2 406.714L475.733 409.114L473.004 408.205L473.238 409.626C475.721 411.159 477.425 410.996 479.895 412.608C478.184 415.447 476.986 417.769 474.415 419.934L467.112 418.757C469.196 417.308 470.536 416.501 471.327 414.123C471.716 412.684 471.806 412.285 471.97 410.809L471.484 410.707C468.047 409.978 465.011 409.776 463.049 406.748L463.252 406.055L464.412 405.695Z"/><path fill="#8B8A81" transform="matrix(2.35402 0 0 2.2407 -692.084 -685.654)" d="M464.412 405.695C466.57 404.717 468.143 404.195 470.365 403.447C471.965 404.515 473.639 405.597 475.2 406.714L475.733 409.114L473.004 408.205C471.268 405.325 467.261 405.42 464.412 405.695Z"/><defs><linearGradient id="gradient_3" gradientUnits="userSpaceOnUse" x1="481.13129" y1="368.46432" x2="485.1907" y2="383.39948"><stop offset="0" stop-color="#676665"/><stop offset="1" stop-color="#92928F"/></linearGradient></defs><path fill="url(#gradient_3)" transform="matrix(2.35402 0 0 2.2407 -692.084 -685.654)" d="M484.182 367.538C487.91 367.504 492.293 367.576 495.966 367.381C490.97 373.138 489.954 375.649 489.488 383.582C485.066 383.451 479.46 383.026 475.292 384.392C472.84 383.769 471.792 382.89 471.322 380.393L469.812 377.701C470.569 375.565 469.435 375.723 470.595 373.652C472.933 372.111 481.513 368.092 484.182 367.538Z"/><path fill="#A7A6A2" transform="matrix(2.35402 0 0 2.2407 -692.084 -685.654)" d="M471.322 380.393C473.543 380.075 473.825 379.909 475.844 380.659C476.857 382.26 476.538 382.836 475.292 384.392C472.84 383.769 471.792 382.89 471.322 380.393Z"/><path fill="#8B8A81" transform="matrix(2.35402 0 0 2.2407 -692.084 -685.654)" d="M440.467 399.593C444.501 400.603 446.74 400.397 450.896 400.697C451.628 400.75 451.03 402.408 453.443 402.232C457.789 401.914 459.267 401.283 463.592 402.548C456.921 405.231 454.841 401.116 448.418 406.626C444.571 405.61 442.972 402.77 440.467 399.593Z"/><path fill="#A7A6A2" transform="matrix(2.35402 0 0 2.2407 -692.084 -685.654)" d="M475.2 406.714C482.955 408.106 485.117 407.262 492.388 404.739C489.881 407.915 487.244 409.999 484.016 412.441C481.307 411.466 478.42 410.216 475.733 409.114L475.2 406.714Z"/><path transform="matrix(2.35402 0 0 2.2407 -692.084 -685.654)" d="M506.971 351.26C507.54 348.66 507.858 345.915 510.066 344.32C514.659 345.758 514.189 357.104 514.168 361.086C521.637 364.337 527.137 367.297 530.018 375.568C530.897 379.861 531.206 381.853 530.758 386.391C526.758 399.179 516.649 406.398 503.162 402.236C501.906 401.841 500.668 401.387 499.454 400.877C492.603 396.208 490.705 391.413 489.488 383.582C489.954 375.649 490.97 373.138 495.966 367.381C499.329 365.049 503.572 362.561 507.096 360.371L506.971 351.26Z"/><path fill="#B6B5B1" transform="matrix(2.35402 0 0 2.2407 -692.084 -685.654)" d="M504.456 310.234L507.045 310.611L507.602 313.674L502.811 317.975L498.959 320.72L498.21 324.802C495.178 326.25 494.175 326.356 490.863 325.68C472.688 334.435 455.801 350.886 442.468 365.927C437.871 371.112 436.46 377.884 432.717 383.4C431.589 385.064 428.678 384.672 427.085 384.038C436.625 357.29 466.068 333.394 489.687 318.803C494.267 315.974 499.592 312.47 504.456 310.234Z"/><path fill="#908F88" transform="matrix(2.35402 0 0 2.2407 -692.084 -685.654)" d="M490.863 325.68C492.524 324.414 496.977 321.906 498.959 320.72L498.21 324.802C495.178 326.25 494.175 326.356 490.863 325.68Z"/><path fill="#B6B5B1" transform="matrix(2.35402 0 0 2.2407 -692.084 -685.654)" d="M474.066 346.855C477.295 348.237 479.147 349.12 482.583 349.869L483.813 349.935C485.18 350.202 487.865 350.643 489.092 351.019C493.841 352.818 501.649 350.21 506.971 351.26L507.096 360.371C503.572 362.561 499.329 365.049 495.966 367.381C492.293 367.576 487.91 367.504 484.182 367.538C481.448 367.618 474.078 368.748 473.604 365.479C474.437 363.752 474.884 362.823 476.723 361.96L476.453 361.135L474.787 361.087C472.814 359.822 471.407 357.935 469.85 356.14L474.066 346.855Z"/><path fill="#807F78" transform="matrix(2.35402 0 0 2.2407 -692.084 -685.654)" d="M530.018 375.568C533.298 373.991 536.371 370.762 539.01 368.204C542.629 372.472 545.312 375.378 545.822 381.165C543.263 381.095 540.626 380.716 538.417 381.781C536.886 383.511 537.352 383.191 536.865 385.847C536.654 386.94 536.402 388.629 536.032 389.615C534.469 388.528 532.423 387.383 530.758 386.391C531.206 381.853 530.897 379.861 530.018 375.568Z"/><path fill="#B6B5B1" transform="matrix(2.35402 0 0 2.2407 -692.084 -685.654)" d="M424.163 394.456C426.669 394.554 426.681 394.15 428.433 395.321C431.232 400.337 428.751 406.035 424.178 409.04C423.345 403.44 423.669 400.102 424.163 394.456Z"/><path fill="#807F78" transform="matrix(2.35402 0 0 2.2407 -692.084 -685.654)" d="M502.811 317.975C503.968 319.739 503.66 319.769 505.984 320.558C502.77 321.536 502.381 323.832 498.21 324.802L498.959 320.72L502.811 317.975Z"/><path fill="#8B8A81" transform="matrix(2.35402 0 0 2.2407 -692.084 -685.654)" d="M482.583 349.869C484.172 347.977 484.478 347.309 486.661 346.383C489.068 346.604 489.094 348.929 489.092 351.019C487.865 350.643 485.18 350.202 483.813 349.935L482.583 349.869Z"/><path fill="#908F88" transform="matrix(2.35402 0 0 2.2407 -692.084 -685.654)" d="M502.811 317.975L507.602 313.674C507.494 316.237 507.694 318.562 505.984 320.558C503.66 319.769 503.968 319.739 502.811 317.975Z"/><path fill="#71716C" transform="matrix(2.35402 0 0 2.2407 -692.084 -685.654)" d="M454.968 371.009L455.181 371.528C454.843 373.837 454.771 376.249 454.642 378.586L453.699 378.797C453.279 377.876 453.437 378.313 453.134 377.198L452.912 376.349C450.358 377.285 450.557 382.831 448.308 384.792L447.532 384.368C447.511 382.7 447.725 380.988 446.988 379.65C445.056 379.609 444.213 379.596 442.326 379.271L442.247 378.503C443.447 377.198 451.753 373.238 454.968 371.009Z"/><defs><linearGradient id="gradient_4" gradientUnits="userSpaceOnUse" x1="398.7984" y1="615.7218" x2="459.20621" y2="688.90906"><stop offset="0" stop-color="#6B6A6B"/><stop offset="1" stop-color="#949390"/></linearGradient></defs><path fill="url(#gradient_4)" transform="matrix(2.35402 0 0 2.2407 -692.084 -685.654)" d="M434.793 493.476C439.324 493.416 443.856 493.445 448.386 493.564L447.299 499.357C446.828 501.078 446.066 503.544 445.711 505.222C438.25 528.733 434.035 529.947 457.988 541.239C455.321 546.648 452.069 552.891 449.785 558.358C456.367 569.371 464.72 580.534 472.334 590.929C474.219 593.354 476.214 595.821 477.939 598.352C480.877 602.268 483.499 605.838 486.253 609.909C492.265 618.391 499.11 629.22 506.77 635.894C506.467 638.314 505.968 641.402 505.992 643.786C505.973 650.353 506.133 657.805 505.916 664.294C505.891 667.752 505.968 672.168 505.615 675.519C505.552 677.292 505.534 679.34 505.3 681.065C494.424 681.128 482.037 681.492 471.255 681.191C453.197 680.677 433.286 682.135 415.723 681.142C406.501 671.668 406.412 652.417 407.753 640.125L408.038 636.47C409.845 625.217 410.783 613.674 412.689 602.137C414.438 593.225 416.128 584.302 417.758 575.368C420.531 564.611 422.736 549.9 424.695 538.781C424.915 536.703 425.323 534.708 425.703 532.654C428.514 519.545 431.544 506.484 434.793 493.476Z"/><path fill="#8B8A81" transform="matrix(2.35402 0 0 2.2407 -692.084 -685.654)" d="M434.793 493.476C439.324 493.416 443.856 493.445 448.386 493.564L447.299 499.357C446.828 501.078 446.066 503.544 445.711 505.222C438.25 528.733 434.035 529.947 457.988 541.239C455.321 546.648 452.069 552.891 449.785 558.358C456.367 569.371 464.72 580.534 472.334 590.929C474.219 593.354 476.214 595.821 477.939 598.352C480.877 602.268 483.499 605.838 486.253 609.909C482.63 610.822 481.14 611.695 478.056 613.82L476.951 612.666C475.757 613.613 474.343 615.019 472.917 615.151L472.765 617.338C473.619 619.88 476.028 622.805 475.493 625.193C472.753 625.415 471.405 627.511 468.312 629.485C466.707 628.014 466.107 627.77 464.157 626.703L460.928 626.29C459.805 629.955 462.158 629.52 459.413 633.139C459.06 633.605 459.116 633.572 458.846 634.183C453.095 632.062 447.821 636.085 439.031 630.132C438.104 628.27 437.714 627.595 435.94 626.958C434.516 627.292 433.879 627.353 432.45 627.508C433.441 626.56 433.005 627.033 433.443 625.437C432.153 624.602 430.87 622.93 429.886 621.732L428.564 622.346C426.102 618.712 431.657 619.118 431.955 616.957C432.552 612.619 426.919 608.093 425.057 604.509C425.123 603.234 425.321 602.408 424.689 601.325C423.06 601.158 420.307 602.581 418.65 603.279C416.451 603.811 414.228 603.882 412.689 602.137C414.438 593.225 416.128 584.302 417.758 575.368C420.531 564.611 422.736 549.9 424.695 538.781C424.915 536.703 425.323 534.708 425.703 532.654C428.514 519.545 431.544 506.484 434.793 493.476Z"/><path fill="#B6B5B1" transform="matrix(2.35402 0 0 2.2407 -692.084 -685.654)" d="M441.778 604.11C446.239 599.451 455.853 594.816 461.294 600.033C464.52 603.223 465.561 605.144 467.547 609.254C470.642 609.679 473.832 609.946 476.745 610.993L477.253 611.892L476.951 612.666C475.757 613.613 474.343 615.019 472.917 615.151L472.765 617.338C473.619 619.88 476.028 622.805 475.493 625.193C472.753 625.415 471.405 627.511 468.312 629.485C466.707 628.014 466.107 627.77 464.157 626.703C461.702 620.37 455.825 623.473 454.478 620.798C455.515 620.049 455.141 620.557 455.721 619.344L454.881 617.85C453.434 618.324 447.599 615.102 445.502 614.911C441.92 614.582 433.408 617.359 431.78 612.161C429.014 603.331 434.709 601.023 441.778 604.11Z"/><path fill="#71716C" transform="matrix(2.35402 0 0 2.2407 -692.084 -685.654)" d="M454.881 617.85C456.835 617.238 461.096 616.983 463.766 616.43C466.516 615.861 469.824 614.592 471.996 614.252L472.917 615.151L472.765 617.338C473.619 619.88 476.028 622.805 475.493 625.193C472.753 625.415 471.405 627.511 468.312 629.485C466.707 628.014 466.107 627.77 464.157 626.703C461.702 620.37 455.825 623.473 454.478 620.798C455.515 620.049 455.141 620.557 455.721 619.344L454.881 617.85Z"/><path fill="#908F88" transform="matrix(2.35402 0 0 2.2407 -692.084 -685.654)" d="M441.778 604.11C446.239 599.451 455.853 594.816 461.294 600.033C457.068 598.993 456.513 598.647 452.195 599.278C449.381 602.157 447.503 605.639 444.248 605.732C443.416 605.212 442.542 604.712 441.778 604.11Z"/><path fill="#B6B5B1" transform="matrix(2.35402 0 0 2.2407 -692.084 -685.654)" d="M417.758 575.368C419.579 575.451 420.879 575.274 422.307 576.325C423.273 579.882 419.738 599.108 418.65 603.279C416.451 603.811 414.228 603.882 412.689 602.137C414.438 593.225 416.128 584.302 417.758 575.368Z"/><path fill="#71716C" transform="matrix(2.35402 0 0 2.2407 -692.084 -685.654)" d="M472.334 590.929C474.219 593.354 476.214 595.821 477.939 598.352C471.114 598.261 467.493 599.783 464.065 593.277C467.241 592 468.995 591.667 472.334 590.929Z"/><path fill="#605F5E" transform="matrix(2.35402 0 0 2.2407 -692.084 -685.654)" d="M425.703 532.654C427.596 534.641 431.615 534.679 434.757 538.308L436.153 539.914C432.1 539.683 428.731 539.296 424.695 538.781C424.915 536.703 425.323 534.708 425.703 532.654Z"/><path fill="#B6B5B1" transform="matrix(2.35402 0 0 2.2407 -692.084 -685.654)" d="M445.711 505.222C443.377 505.066 442.56 505.138 440.691 503.87C439.723 502.205 439.892 503.08 440.211 501.146C442.016 498.772 444.581 498.272 447.299 499.357C446.828 501.078 446.066 503.544 445.711 505.222Z"/><path fill="#605F5E" transform="matrix(2.35402 0 0 2.2407 -692.084 -685.654)" d="M460.928 626.29C458.061 625.074 454.015 623.035 451.893 620.709L452.302 620.253L454.478 620.798C455.825 623.473 461.702 620.37 464.157 626.703L460.928 626.29Z"/><path fill="#B6B5B1" transform="matrix(2.35402 0 0 2.2407 -692.084 -685.654)" d="M429.886 621.732L431.825 620.059C433.481 620.189 433.367 620.153 434.671 621.185C435.341 623.121 435.439 622.31 435.106 624.005L433.443 625.437C432.153 624.602 430.87 622.93 429.886 621.732Z"/><path fill="#807F78" transform="matrix(2.35402 0 0 2.2407 -692.084 -685.654)" d="M471.184 601.216C472.832 601.534 473.771 601.843 474.26 603.472L473.408 604.41C471.896 604.735 471.499 604.978 470.023 604.559C469.829 602.985 470.253 602.938 471.184 601.216Z"/><path fill="#807F78" transform="matrix(2.35402 0 0 2.2407 -692.084 -685.654)" d="M433.469 577.288C435.19 579.516 434.993 581.55 434.802 584.423L434.13 583.923C433.255 581.198 433.431 580.117 433.469 577.288Z"/><defs><linearGradient id="gradient_5" gradientUnits="userSpaceOnUse" x1="474.36682" y1="645.07385" x2="479.29807" y2="683.13556"><stop offset="0" stop-color="#70706B"/><stop offset="1" stop-color="#8A8983"/></linearGradient></defs><path fill="url(#gradient_5)" transform="matrix(2.35402 0 0 2.2407 -692.084 -685.654)" d="M505.992 643.786C505.973 650.353 506.133 657.805 505.916 664.294C505.891 667.752 505.968 672.168 505.615 675.519C505.552 677.292 505.534 679.34 505.3 681.065C494.424 681.128 482.037 681.492 471.255 681.191C471.306 679.292 471.544 677.221 470.051 675.912C465.737 672.126 455.37 672.572 450.226 672.609C447.533 669.985 446.682 669.149 445.678 665.559C447.394 663.206 447.957 661.672 449.095 659.043C448.303 657.013 447.609 655.618 446.616 653.673C448.403 649.198 460.42 646.854 464.665 647.57C466.646 648.51 468.29 648.679 470.451 648.335C473.606 648.042 478.547 648.527 481.64 649.263C484.327 649.799 486.695 648.163 489.061 646.887C490.061 647.734 491.552 648.743 492.652 649.535C496.206 647.764 502.23 644.681 505.992 643.786Z"/><path fill="#807F78" transform="matrix(2.35402 0 0 2.2407 -692.084 -685.654)" d="M505.615 675.519C505.588 675.055 505.555 674.59 505.517 674.126C505.484 673.76 505.199 671.888 505.129 671.84C501.488 669.33 496.604 666.969 493.346 664.075C490.228 661.307 486.381 659.339 482.814 657.529C480.598 656.404 475.383 658.727 473.022 659.608L472.965 659.165C475.004 657.642 478.412 656.091 480.951 656.976C482.479 657.583 488.636 657.762 489.738 658.433C493.829 660.924 499.009 668.769 504.778 666.799L505.916 664.294C505.891 667.752 505.968 672.168 505.615 675.519Z"/><defs><linearGradient id="gradient_6" gradientUnits="userSpaceOnUse" x1="506.48318" y1="635.56445" x2="463.42453" y2="625.64087"><stop offset="0" stop-color="#999892"/><stop offset="1" stop-color="#CECEC7"/></linearGradient></defs><path fill="url(#gradient_6)" transform="matrix(2.35402 0 0 2.2407 -692.084 -685.654)" d="M486.253 609.909C492.265 618.391 499.11 629.22 506.77 635.894C506.467 638.314 505.968 641.402 505.992 643.786C502.23 644.681 496.206 647.764 492.652 649.535C491.552 648.743 490.061 647.734 489.061 646.887C486.695 648.163 484.327 649.799 481.64 649.263C478.547 648.527 473.606 648.042 470.451 648.335C467.649 645.902 461.811 642.295 458.519 640.128C463.413 639.537 467.657 639.534 472.742 638.78C471.086 635.783 470.898 635.071 469.993 631.832C472.197 629.672 474.129 627.967 475.493 625.193C476.028 622.805 473.619 619.88 472.765 617.338L472.917 615.151C474.343 615.019 475.757 613.613 476.951 612.666L478.056 613.82C481.14 611.695 482.63 610.822 486.253 609.909Z"/><path fill="#8B8A81" transform="matrix(2.35402 0 0 2.2407 -692.084 -685.654)" d="M489.347 642.264C489.227 643.803 489.132 645.345 489.061 646.887C486.695 648.163 484.327 649.799 481.64 649.263C480.784 647.164 480.007 645.27 481.106 643.235C482.501 642.461 482.59 642.459 484.201 642.416L489.347 642.264Z"/><path fill="#807F78" transform="matrix(2.35402 0 0 2.2407 -692.084 -685.654)" d="M476.951 612.666L478.056 613.82L472.765 617.338L472.917 615.151C474.343 615.019 475.757 613.613 476.951 612.666Z"/><defs><linearGradient id="gradient_7" gradientUnits="userSpaceOnUse" x1="435.61929" y1="655.42963" x2="464.13925" y2="622.54913"><stop offset="0" stop-color="#959494"/><stop offset="1" stop-color="#B2B2AA"/></linearGradient></defs><path fill="url(#gradient_7)" transform="matrix(2.35402 0 0 2.2407 -692.084 -685.654)" d="M468.312 629.485C471.405 627.511 472.753 625.415 475.493 625.193C474.129 627.967 472.197 629.672 469.993 631.832C470.898 635.071 471.086 635.783 472.742 638.78C467.657 639.534 463.413 639.537 458.519 640.128C461.811 642.295 467.649 645.902 470.451 648.335C468.29 648.679 466.646 648.51 464.665 647.57C460.42 646.854 448.403 649.198 446.616 653.673C447.609 655.618 448.303 657.013 449.095 659.043C447.957 661.672 447.394 663.206 445.678 665.559C441.365 657.658 430.03 650.239 423.119 640.528C429.311 635.142 429.772 629.532 439.031 630.132C447.821 636.085 453.095 632.062 458.846 634.183C459.116 633.572 459.06 633.605 459.413 633.139C462.158 629.52 459.805 629.955 460.928 626.29L464.157 626.703C466.107 627.77 466.707 628.014 468.312 629.485Z"/><path fill="#908F88" transform="matrix(2.35402 0 0 2.2407 -692.084 -685.654)" d="M446.616 653.673C445.931 652.744 446.096 653.264 446.113 652.116C449.419 648.827 448.229 647.092 450.461 645.494C454.427 644.299 460.93 645.962 464.665 647.57C460.42 646.854 448.403 649.198 446.616 653.673Z"/><path fill="#807F78" transform="matrix(2.35402 0 0 2.2407 -692.084 -685.654)" d="M460.928 626.29L464.157 626.703C466.107 627.77 466.707 628.014 468.312 629.485L467.649 629.884C464.103 632.045 463.95 633.185 461.212 636.27L460.345 636.168L458.846 634.183C459.116 633.572 459.06 633.605 459.413 633.139C462.158 629.52 459.805 629.955 460.928 626.29Z"/><path fill="#908F88" transform="matrix(2.35402 0 0 2.2407 -692.084 -685.654)" d="M408.038 636.47C414.716 638.962 413.739 643.305 414.038 649.728C412.394 646.802 408.84 642.297 407.753 640.125L408.038 636.47Z"/><path fill="#908F88" transform="matrix(2.35402 0 0 2.2407 -692.084 -685.654)" d="M429.886 621.732C430.87 622.93 432.153 624.602 433.443 625.437C433.005 627.033 433.441 626.56 432.45 627.508C429.864 626.099 429.819 625.139 428.564 622.346L429.886 621.732Z"/><path fill="#8B8A81" transform="matrix(2.35402 0 0 2.2407 -692.084 -685.654)" d="M416.79 653.873C418.422 653.792 418.924 653.628 419.957 654.791C419.869 656.546 419.037 657.22 417.909 658.606C416.224 658.424 415.528 658.356 414.639 657.006C415.149 655.119 415.245 655.493 416.79 653.873Z"/><path fill="#908F88" transform="matrix(2.35402 0 0 2.2407 -692.084 -685.654)" d="M572.841 559.649C574.591 556.035 586.534 551.562 589.13 553.375C594.076 556.831 596.062 559.834 602.12 562.689C603.474 572.404 605.206 582.062 607.313 591.642C608.846 597.442 609.787 606.182 611.179 610.693C612.324 618.913 613.71 627.715 614.605 635.92C614.99 639.414 614.94 645.001 615.359 647.591L615.69 652.603C616.618 660.243 614.501 671.355 609.719 677.493C608.818 678.63 607.877 679.735 606.899 680.807C597.242 680.921 587.585 680.942 577.928 680.871C573.466 680.868 566.937 681.149 562.73 680.91C547.125 680.957 531.392 680.618 515.856 680.758C514.859 670.799 515.57 650.907 515.628 640.202C520.582 631.076 530.194 619.907 536.297 611.177C548.106 594.284 561.674 576.882 572.841 559.649Z"/><path fill="#4D4D4B" transform="matrix(2.35402 0 0 2.2407 -692.084 -685.654)" d="M600.868 619.391C604.509 615.034 606.14 613.374 611.179 610.693C612.324 618.913 613.71 627.715 614.605 635.92C614.99 639.414 614.94 645.001 615.359 647.591C611.206 645.314 611.051 648.595 608.165 643.436C607.566 640.751 606.699 637.994 605.925 635.343C602.957 635.491 599.679 635.777 597.186 635.861C590.88 636.073 583.287 632.548 579.923 639.588C579.135 641.237 575.847 641.071 573.973 641.024L572.145 640.373L574.308 639.568L571.928 636.821C570.801 637.123 569.353 637.561 568.243 637.788C566.039 634.803 559.228 629.302 555.473 628.126C555.699 626.121 555.691 624.603 556.625 622.856C557.942 621.585 558.568 621.636 560.363 621.294L563.625 620.755C564.269 621.329 564.569 621.666 565.005 622.411C568.104 623.65 574.715 623.575 578.033 623.204L581.334 624.126C588.772 623.815 590.51 624.645 597.88 622.425L600.868 619.391Z"/><path fill="#71716C" transform="matrix(2.35402 0 0 2.2407 -692.084 -685.654)" d="M580.463 634.43C589.173 630.883 605.857 632.417 614.605 635.92C614.99 639.414 614.94 645.001 615.359 647.591C611.206 645.314 611.051 648.595 608.165 643.436C607.566 640.751 606.699 637.994 605.925 635.343C602.957 635.491 599.679 635.777 597.186 635.861C590.88 636.073 583.287 632.548 579.923 639.588C579.135 641.237 575.847 641.071 573.973 641.024L572.145 640.373L574.308 639.568C576.43 637.967 578.203 635.303 580.463 634.43Z"/><path fill="#605F5E" transform="matrix(2.35402 0 0 2.2407 -692.084 -685.654)" d="M571.928 636.821C575.864 633.913 575.842 632.806 580.463 634.43C578.203 635.303 576.43 637.967 574.308 639.568L571.928 636.821Z"/><path fill="#605F5E" transform="matrix(2.35402 0 0 2.2407 -692.084 -685.654)" d="M615.69 652.603C616.618 660.243 614.501 671.355 609.719 677.493C608.818 678.63 607.877 679.735 606.899 680.807C597.242 680.921 587.585 680.942 577.928 680.871C573.466 680.868 566.937 681.149 562.73 680.91C566.019 680.175 576.787 680.398 580.614 680.41C580.482 678.028 580.148 675.993 580.879 673.762C582.325 672.185 581.576 672.635 584.004 672.327C584.636 670.573 583.574 669.004 582.729 667.179C579.183 665.487 578.543 664.349 578.414 660.526L578.634 658.315C577.044 656.531 576.883 655.788 577.143 653.584C585.266 653.094 592.943 653.401 601.048 653.569C604.563 653.641 611.847 654.187 615.016 653.621L615.69 652.603Z"/><path fill="#605F5E" transform="matrix(2.35402 0 0 2.2407 -692.084 -685.654)" d="M578.634 658.315C581.181 660.782 582.835 663.496 582.729 667.179C579.183 665.487 578.543 664.349 578.414 660.526L578.634 658.315Z"/><path fill="#4D4D4B" transform="matrix(2.35402 0 0 2.2407 -692.084 -685.654)" d="M582.238 655.929C587.708 655.778 591.892 658.865 591.103 664.688C584.869 667.057 582.574 661.06 582.238 655.929Z"/><path fill="#807F78" transform="matrix(2.35402 0 0 2.2407 -692.084 -685.654)" d="M573.973 641.024C575.847 641.071 579.135 641.237 579.923 639.588C583.287 632.548 590.88 636.073 597.186 635.861C599.679 635.777 602.957 635.491 605.925 635.343C606.699 637.994 607.566 640.751 608.165 643.436C604.896 644.207 596.399 646.093 593.331 647.175C589.89 647.444 587.287 646.154 584.009 644.971C578.595 645.334 571.983 644.273 566.755 645.042C563.802 645.476 559.321 649.898 555.728 648.291L555.58 647.28C556.857 645.72 562.338 641.523 564.242 640.009C567.979 643.389 569.704 643.671 573.973 641.024Z"/><path fill="#71716C" transform="matrix(2.35402 0 0 2.2407 -692.084 -685.654)" d="M584.009 644.971C582.863 643.507 582.682 643.806 582.756 642.381C585.251 639.977 589.455 640.365 591.906 642.779C592.944 643.801 593.136 645.77 593.331 647.175C589.89 647.444 587.287 646.154 584.009 644.971Z"/><path fill="#807F78" transform="matrix(2.35402 0 0 2.2407 -692.084 -685.654)" d="M607.313 591.642C608.846 597.442 609.787 606.182 611.179 610.693C606.14 613.374 604.509 615.034 600.868 619.391C600.586 612.997 600.258 606.678 600.328 600.279C600.42 591.995 605.05 594.86 607.313 591.642Z"/><path fill="#807F78" transform="matrix(2.35402 0 0 2.2407 -692.084 -685.654)" d="M545.558 619.155C550.91 619.012 556.231 618.104 560.363 621.294C558.568 621.636 557.942 621.585 556.625 622.856C555.691 624.603 555.699 626.121 555.473 628.126C551.102 627.881 534.667 630.485 533.043 625.9C534.348 622.733 537.368 624.504 539.531 623.245C541.166 622.294 543.903 620.301 545.558 619.155Z"/><defs><linearGradient id="gradient_8" gradientUnits="userSpaceOnUse" x1="565.28143" y1="651.07599" x2="567.14246" y2="660.53729"><stop offset="0" stop-color="#535050"/><stop offset="1" stop-color="#74766D"/></linearGradient></defs><path fill="url(#gradient_8)" transform="matrix(2.35402 0 0 2.2407 -692.084 -685.654)" d="M551.828 652.73C561.606 653.295 567.129 653.627 577.143 653.584C576.883 655.788 577.044 656.531 578.634 658.315L578.414 660.526C569.375 654.13 562.712 655.992 551.828 652.73Z"/><path fill="#605F5E" transform="matrix(2.35402 0 0 2.2407 -692.084 -685.654)" d="M563.625 620.755C566.327 619.535 569.533 619.092 572.409 619.969C574.139 620.941 576.425 622.134 578.033 623.204C574.715 623.575 568.104 623.65 565.005 622.411C564.569 621.666 564.269 621.329 563.625 620.755Z"/><path fill="#8B8A81" transform="matrix(2.35402 0 0 2.2407 -692.084 -685.654)" d="M572.409 619.969C575.518 619.489 577.708 618.652 580.197 620.473C581.199 622.147 581.099 622.248 581.334 624.126L578.033 623.204C576.425 622.134 574.139 620.941 572.409 619.969Z"/><path fill="#605F5E" transform="matrix(2.35402 0 0 2.2407 -692.084 -685.654)" d="M568.243 637.788C569.353 637.561 570.801 637.123 571.928 636.821L574.308 639.568L572.145 640.373C570.395 639.629 569.198 639.385 568.243 637.788Z"/><path fill="#71716C" transform="matrix(2.35402 0 0 2.2407 -692.084 -685.654)" d="M519.021 675.905C518.629 673.572 517.081 667.387 518.821 665.921C521.647 666.094 522.394 666.169 525.15 665.661C527.797 662.551 533.798 663.535 537.909 663.544C537.215 667.917 538.125 671.008 535.86 675.022L535.957 675.714L536.566 676.039C530.161 676.676 525.404 676.532 519.021 675.905Z"/><path fill="#B6B5B1" transform="matrix(2.35402 0 0 2.2407 -692.084 -685.654)" d="M535.773 631.687C537.968 631.635 540.197 631.632 542.396 631.609L542.61 640.287C538.733 641.074 536.358 641.311 532.463 641.417C529.668 641.045 527.837 641.311 526.334 638.77C526.776 635.66 533.097 632.457 535.773 631.687Z"/><path transform="matrix(2.35402 0 0 2.2407 -692.084 -685.654)" d="M520.607 644.9C525.949 644.425 526.716 648.533 523.082 652.096C521.716 652.305 522.243 652.272 520.809 651.873C518.203 649.378 518.721 647.558 520.607 644.9Z"/><path fill="#B6B5B1" transform="matrix(2.35402 0 0 2.2407 -692.084 -685.654)" d="M608.088 646.535C609.058 646.778 609.518 647.337 609.912 648.185C608.886 651.738 607.106 651.539 603.818 651.426C603.339 651.119 602.533 650.487 602.054 650.131L602.044 649.195C603.395 647.769 606.107 647.174 608.088 646.535Z"/><path fill="#71716C" transform="matrix(2.35402 0 0 2.2407 -692.084 -685.654)" d="M526.378 649.232C529.336 649.587 541.842 649.276 543.581 650.755C539.798 650.74 529.867 650.902 526.767 649.994L526.378 649.232Z"/><path fill="#71716C" transform="matrix(2.35402 0 0 2.2407 -692.084 -685.654)" d="M536.566 676.039L535.957 675.714L535.86 675.022L536.845 675.062C540.693 675.191 544.159 674.37 548.244 674.718C545.555 675.64 539.487 676.146 536.566 676.039Z"/><defs><linearGradient id="gradient_9" gradientUnits="userSpaceOnUse" x1="573.06769" y1="748.36151" x2="575.11896" y2="715.11401"><stop offset="0" stop-color="#6C6C6C"/><stop offset="1" stop-color="#93928E"/></linearGradient></defs><path fill="url(#gradient_9)" transform="matrix(2.35402 0 0 2.2407 -692.084 -685.654)" d="M393.904 718.438C398.022 717.901 404.964 718.044 409.237 718.031L438.065 718.055L537.836 718.135C560.982 717.995 584.13 717.992 607.277 718.123C613.808 718.146 625.443 717.063 630.631 717.781C636.279 720.601 634.807 726.686 635.547 732.317C636.102 736.778 637.253 742.515 635.903 746.647C632.298 750.299 605.026 748.176 598.118 748.047C591.211 747.918 580.305 748.897 573.828 748.071C565.859 747.935 557.889 747.941 549.921 748.089C544.372 748.437 536.05 748.092 530.244 748.041L498.944 747.99C478.547 748.001 458.116 747.972 437.72 748.096C429.115 748.149 420.239 748.85 411.607 749.03C411.095 746.791 410.674 745.788 411.887 743.819C415.84 741.878 418.856 745.587 423.562 744.788C409.32 737.466 411.95 735.963 415.822 722.07C415.125 722.007 410.434 722.3 409.377 722.307C402.408 722.349 395.331 723.055 388.419 721.827C390.121 718.899 390.504 718.598 393.904 718.438Z"/><path fill="#71716C" transform="matrix(2.35402 0 0 2.2407 -692.084 -685.654)" d="M473.337 721.469C480.059 721.425 486.782 721.467 493.503 721.595C500.78 722.402 508.066 721.885 515.312 722.366C514.92 728.685 514.212 731.881 513.127 738.008L513.467 738.076C513.15 741.519 513.05 744.106 513.007 747.568C508.353 747.533 503.427 747.413 498.796 747.537L498.944 747.99C478.547 748.001 458.116 747.972 437.72 748.096C429.115 748.149 420.239 748.85 411.607 749.03C411.095 746.791 410.674 745.788 411.887 743.819C415.84 741.878 418.856 745.587 423.562 744.788C409.32 737.466 411.95 735.963 415.822 722.07C418.823 723.495 434.47 722.679 438.83 722.349C446.999 721.73 462.297 723.732 469.501 721.841C470.725 721.509 472.057 721.527 473.337 721.469Z"/><defs><linearGradient id="gradient_10" gradientUnits="userSpaceOnUse" x1="439.97757" y1="719.36682" x2="443.9086" y2="742.17151"><stop offset="0" stop-color="#7A7972"/><stop offset="1" stop-color="#949188"/></linearGradient></defs><path fill="url(#gradient_10)" transform="matrix(2.35402 0 0 2.2407 -692.084 -685.654)" d="M415.822 722.07C418.823 723.495 434.47 722.679 438.83 722.349C446.999 721.73 462.297 723.732 469.501 721.841L469.745 723.679C470.553 726.203 470.449 726.494 470.331 729.216C471.022 730.69 471.784 731.175 473.003 732.242C474.355 735.347 472.171 737.101 469.681 738.169C464.975 740.189 449.366 736.276 446.523 739.549C445.298 739.415 428.634 738.584 428.799 738.543C426.937 740.865 428.394 744.11 429.143 746.769L423.562 744.788C409.32 737.466 411.95 735.963 415.822 722.07Z"/><path fill="#605F5E" transform="matrix(2.35402 0 0 2.2407 -692.084 -685.654)" d="M429.143 746.769C428.394 744.11 426.937 740.865 428.799 738.543C428.634 738.584 445.298 739.415 446.523 739.549C455.176 741.746 462.491 741.483 471.272 740.556C477.44 739.905 484.511 740.26 490.764 740.438C492.009 742.724 493.191 745.736 495.024 747.195C496.6 747.578 497.212 747.526 498.796 747.537L498.944 747.99C478.547 748.001 458.116 747.972 437.72 748.096C429.115 748.149 420.239 748.85 411.607 749.03C411.095 746.791 410.674 745.788 411.887 743.819C415.84 741.878 418.856 745.587 423.562 744.788L429.143 746.769Z"/><path fill="#908F88" transform="matrix(2.35402 0 0 2.2407 -692.084 -685.654)" d="M493.503 721.595C500.78 722.402 508.066 721.885 515.312 722.366C514.92 728.685 514.212 731.881 513.127 738.008C507.598 738.184 502.064 738.064 496.547 737.649C494.103 734.062 493.917 732.362 490.721 728.664C491.418 724.59 489.267 723.65 493.503 721.595Z"/><path fill="#605F5E" transform="matrix(2.35402 0 0 2.2407 -692.084 -685.654)" d="M469.501 721.841C470.725 721.509 472.057 721.527 473.337 721.469C478.09 724.793 479.546 723.267 483.469 724.619L483.591 725.017C483.421 725.69 483.304 725.742 482.936 726.361C480.021 727.372 474.312 724.577 470.323 723.788L469.745 723.679L469.501 721.841Z"/><path fill="#807F78" transform="matrix(2.35402 0 0 2.2407 -692.084 -685.654)" d="M490.612 737.561C490.473 734.593 490.195 731.58 490.721 728.664C493.917 732.362 494.103 734.062 496.547 737.649C494.893 737.941 492.357 737.668 490.612 737.561Z"/><path fill="#8B8A81" transform="matrix(2.35402 0 0 2.2407 -692.084 -685.654)" d="M483.469 724.619C485.669 723.834 484.617 723.858 486.723 724.296C488.949 726.412 488.462 728.864 486.953 731.206L486.016 731.56C483.849 730.044 484.345 727.215 483.591 725.017L483.469 724.619Z"/><path fill="#807F78" transform="matrix(2.35402 0 0 2.2407 -692.084 -685.654)" d="M479.988 734.644C481.737 734.706 482.875 734.566 484.382 735.432L484.121 736.192L482.513 736.886C480.668 736.848 478.859 736.974 477.3 736.088C478.015 734.989 478.404 735.188 479.988 734.644Z"/><path fill="#B6B5B1" transform="matrix(2.35402 0 0 2.2407 -692.084 -685.654)" d="M393.904 718.438C398.022 717.901 404.964 718.044 409.237 718.031L438.065 718.055L537.836 718.135C560.982 717.995 584.13 717.992 607.277 718.123C613.808 718.146 625.443 717.063 630.631 717.781C620.972 718.156 623.28 728.015 616.994 719.234C615.578 719.113 615.629 719.205 614.29 719.767L614.163 719.73C611.689 721.762 611.09 721.484 607.805 721.159L607.198 721.095C605.659 722.246 604.086 723.488 602.474 724.519C597.44 724.185 592.354 723.973 587.334 723.587C563.197 721.734 539.55 723.463 515.312 722.366C508.066 721.885 500.78 722.402 493.503 721.595C486.782 721.467 480.059 721.425 473.337 721.469C472.057 721.527 470.725 721.509 469.501 721.841C462.297 723.732 446.999 721.73 438.83 722.349C434.47 722.679 418.823 723.495 415.822 722.07C415.125 722.007 410.434 722.3 409.377 722.307C402.408 722.349 395.331 723.055 388.419 721.827C390.121 718.899 390.504 718.598 393.904 718.438Z"/><path fill="#605F5E" transform="matrix(2.35402 0 0 2.2407 -692.084 -685.654)" d="M393.904 718.438C398.022 717.901 404.964 718.044 409.237 718.031L438.065 718.055L537.836 718.135C560.982 717.995 584.13 717.992 607.277 718.123C613.808 718.146 625.443 717.063 630.631 717.781C620.972 718.156 623.28 728.015 616.994 719.234C615.578 719.113 615.629 719.205 614.29 719.767L614.163 719.73C614.045 719.427 613.685 718.974 613.48 718.682C608.424 718.248 599.099 718.529 593.647 718.536L555.519 718.588L453.981 718.525C435.128 718.551 412.318 719.164 393.904 718.438Z"/><path fill="#605F5E" transform="matrix(2.35402 0 0 2.2407 -692.084 -685.654)" d="M598.357 742.242C607.942 739.878 618.194 742.634 626.913 738.7C629.032 737.745 632.603 734.371 634.784 732.845L635.547 732.317C636.102 736.778 637.253 742.515 635.903 746.647C632.298 750.299 605.026 748.176 598.118 748.047C591.211 747.918 580.305 748.897 573.828 748.071C585.437 747.765 583.074 736.22 598.357 742.242Z"/><path fill="#605F5E" transform="matrix(2.35402 0 0 2.2407 -692.084 -685.654)" d="M540.419 735.489C548.263 736.922 549.404 736.632 557.162 734.155C554.761 741.477 551.757 743.131 549.921 748.089C544.372 748.437 536.05 748.092 530.244 748.041L498.944 747.99L498.796 747.537C503.427 747.413 508.353 747.533 513.007 747.568C513.05 744.106 513.15 741.519 513.467 738.076C520.074 738.207 528.736 739.527 535.689 740.046C537.222 738.544 538.825 736.903 540.419 735.489Z"/><path fill="#605F5E" transform="matrix(2.35402 0 0 2.2407 -692.084 -685.654)" d="M562.171 726.766C564.928 726.176 571.458 725.983 574.048 727.253C571.314 727.615 564.487 728.137 562.171 726.766Z"/><path fill="#A7A6A2" transform="matrix(2.35402 0 0 2.2407 -692.084 -685.654)" d="M609.153 687.988C616.967 687.841 624.935 687.178 624.847 697.665C624.808 702.336 624.201 706.705 623.357 711.292C608.802 711.594 591.745 711.956 577.321 711.041C571.811 711.063 566.3 711.021 560.791 710.915C555.058 711.231 546.238 710.943 540.299 710.953C528.944 711.046 517.588 711.032 506.233 710.91L486.813 711.058C483.681 711.16 480.724 711.125 477.595 711.085C472.71 710.529 468.488 711.61 463.918 710.512C463.061 710.306 462.828 709.186 462.326 708.123C460.518 707.261 457.997 705.784 456.121 705.833C455.175 707.923 456.311 707.802 454.741 710.182C453.184 711.201 451.177 710.882 449.23 710.833C445.841 710.792 443.287 710.745 439.908 711.067C430.769 711.918 410.017 711.34 400.225 711.245C399.528 706.478 399.43 704.458 399.439 699.59C399.445 695.596 399.21 689.064 404.632 688.742C410.051 688.421 415.455 688.501 420.88 688.54L447.507 688.73C470.69 688.88 494.705 688.434 517.766 688.927C523.229 688.22 536.791 688.549 542.956 688.565C557.988 688.628 573.02 688.587 588.052 688.444C592.579 687.871 604.111 688.043 609.153 687.988Z"/><defs><linearGradient id="gradient_11" gradientUnits="userSpaceOnUse" x1="598.211" y1="710.86237" x2="597.50555" y2="688.88501"><stop offset="0" stop-color="#71716D"/><stop offset="1" stop-color="#908F85"/></linearGradient></defs><path fill="url(#gradient_11)" transform="matrix(2.35402 0 0 2.2407 -692.084 -685.654)" d="M609.153 687.988C616.967 687.841 624.935 687.178 624.847 697.665C624.808 702.336 624.201 706.705 623.357 711.292C608.802 711.594 591.745 711.956 577.321 711.041C574.958 707.604 573.738 704.964 571.988 701.188C572.112 699.716 571.778 698.387 571.547 696.891C571.828 696.397 573.347 693.745 573.804 693.614C577.923 692.438 591.596 696.253 593.973 691.682C591.849 690.634 590.092 689.621 588.052 688.444C592.579 687.871 604.111 688.043 609.153 687.988Z"/><path fill="#605F5E" transform="matrix(2.35402 0 0 2.2407 -692.084 -685.654)" d="M588.052 688.444C592.579 687.871 604.111 688.043 609.153 687.988C606.015 691.109 603.233 693.542 598.572 693.395C595.934 693.312 595.897 692.266 593.973 691.682C591.849 690.634 590.092 689.621 588.052 688.444Z"/><defs><linearGradient id="gradient_12" gradientUnits="userSpaceOnUse" x1="413.75665" y1="718.88324" x2="434.65967" y2="690.04236"><stop offset="0" stop-color="#767577"/><stop offset="1" stop-color="#96948A"/></linearGradient></defs><path fill="url(#gradient_12)" transform="matrix(2.35402 0 0 2.2407 -692.084 -685.654)" d="M455.074 693.99C458.083 693.978 461.816 693.862 464.762 693.998C462.678 695.806 460.876 697.282 459.036 699.357C461.416 702.484 461.554 704.23 462.326 708.123C460.518 707.261 457.997 705.784 456.121 705.833C455.175 707.923 456.311 707.802 454.741 710.182C453.184 711.201 451.177 710.882 449.23 710.833C445.841 710.792 443.287 710.745 439.908 711.067C430.769 711.918 410.017 711.34 400.225 711.245C399.528 706.478 399.43 704.458 399.439 699.59C402.201 697.569 403.163 696.548 405.535 694.109C419.553 693.867 436.334 693.764 450.246 694.074L455.074 693.99Z"/><path fill="#807F78" transform="matrix(2.35402 0 0 2.2407 -692.084 -685.654)" d="M455.074 693.99C458.083 693.978 461.816 693.862 464.762 693.998C462.678 695.806 460.876 697.282 459.036 699.357C461.416 702.484 461.554 704.23 462.326 708.123C460.518 707.261 457.997 705.784 456.121 705.833C455.175 707.923 456.311 707.802 454.741 710.182C453.184 711.201 451.177 710.882 449.23 710.833C450.027 703.321 449.532 703.574 442.716 701.537C442.58 699.164 442.584 696.65 442.544 694.262C445.745 694.396 447.02 694.429 450.246 694.074L455.074 693.99Z"/><path fill="#71716C" transform="matrix(2.35402 0 0 2.2407 -692.084 -685.654)" d="M455.074 693.99C458.083 693.978 461.816 693.862 464.762 693.998C462.678 695.806 460.876 697.282 459.036 699.357C457.572 700.634 456.535 701.845 454.553 701.313C453.902 699.593 454.781 696.052 455.074 693.99Z"/><path fill="#B6B5B1" transform="matrix(2.35402 0 0 2.2407 -692.084 -685.654)" d="M437.192 702.297C440.168 702.456 443.716 703.772 443.334 707.323C442.324 708.446 442.412 708.387 441.026 708.982C438.587 709.205 436.231 709.201 433.785 709.237C434.839 706.138 435.559 705.043 437.192 702.297Z"/><path fill="#B6B5B1" transform="matrix(2.35402 0 0 2.2407 -692.084 -685.654)" d="M399.439 699.59C399.445 695.596 399.21 689.064 404.632 688.742C410.051 688.421 415.455 688.501 420.88 688.54L447.507 688.73C470.69 688.88 494.705 688.434 517.766 688.927L518.354 688.983C523.31 689.408 544.28 688.65 546.764 689.392C545.535 695.972 480.007 693.984 470.867 694.065L464.762 693.998C461.816 693.862 458.083 693.978 455.074 693.99L450.246 694.074C436.334 693.764 419.553 693.867 405.535 694.109C403.163 696.548 402.201 697.569 399.439 699.59Z"/><path fill="#908F88" transform="matrix(2.35402 0 0 2.2407 -692.084 -685.654)" d="M464.762 693.998L470.867 694.065C474.41 694.515 479.681 694.733 482.374 696.844C483.792 699.77 482.248 700.76 480.479 703.204C483.622 705.194 486.153 707.131 486.813 711.058C483.681 711.16 480.724 711.125 477.595 711.085C472.71 710.529 468.488 711.61 463.918 710.512C463.061 710.306 462.828 709.186 462.326 708.123C461.554 704.23 461.416 702.484 459.036 699.357C460.876 697.282 462.678 695.806 464.762 693.998Z"/><path fill="#605F5E" transform="matrix(2.35402 0 0 2.2407 -692.084 -685.654)" d="M571.988 701.188C573.738 704.964 574.958 707.604 577.321 711.041C571.811 711.063 566.3 711.021 560.791 710.915C563.039 710.616 566.447 710.676 568.089 709.84C567.859 708.554 564.803 706.527 563.58 705.806C567.107 704.24 568.813 703.293 571.988 701.188Z"/><path fill="#807F78" transform="matrix(2.35402 0 0 2.2407 -692.084 -685.654)" d="M562.235 706.043L563.58 705.806C564.803 706.527 567.859 708.554 568.089 709.84C566.447 710.676 563.039 710.616 560.791 710.915C555.058 711.231 546.238 710.943 540.299 710.953C528.944 711.046 517.588 711.032 506.233 710.91C510.652 710.203 521.45 710.383 526.312 710.387L561.193 710.444C561.584 708.974 561.898 707.526 562.235 706.043Z"/><path fill="#908F88" transform="matrix(2.35402 0 0 2.2407 -692.084 -685.654)" d="M571.547 696.891C571.778 698.387 572.112 699.716 571.988 701.188C568.813 703.293 567.107 704.24 563.58 705.806L562.235 706.043L561.808 703.241C562.928 700.605 567.986 699.092 571.547 696.891Z"/><path fill="#605F5E" transform="matrix(2.35402 0 0 2.2407 -692.084 -685.654)" d="M590.429 451.456C592.59 451.72 594.765 452.104 596.208 453.923C598.975 457.411 599.151 462.059 598.493 466.267C598.137 468.542 597.381 471.675 595.475 473.203C591.889 476.078 548.774 475.045 540.7 475.014C528.438 474.9 516.175 474.903 503.913 475.023L493.2 474.963C486.847 474.966 478.226 474.734 472.091 475.519C469.988 475.48 467.501 475.616 465.366 475.676C455.919 476.531 436.111 476.749 426.336 474.543C421.573 473.469 421.483 461.442 423.569 457.012C424.611 454.955 425.614 452.516 428.226 452.256C433.694 451.713 439.335 451.864 444.84 451.853L478.334 451.918C487.033 451.072 503.962 451.579 513.066 451.518C538.755 451.346 564.727 452.084 590.429 451.456Z"/><path fill="#B6B5B1" transform="matrix(2.35402 0 0 2.2407 -692.084 -685.654)" d="M423.569 457.012C424.611 454.955 425.614 452.516 428.226 452.256C433.694 451.713 439.335 451.864 444.84 451.853L478.334 451.918C488.649 452.55 510.504 452.333 521.182 451.916L516.657 457.179C514.919 457.306 513.156 457.479 511.418 457.487C510.035 461.314 506.119 462.504 505.575 466.413L506.456 467.325C506.144 470.153 506.04 471.477 505.192 474.261C504.754 474.554 504.381 474.872 503.913 475.023L493.2 474.963C486.847 474.966 478.226 474.734 472.091 475.519C469.988 475.48 467.501 475.616 465.366 475.676C455.919 476.531 436.111 476.749 426.336 474.543C421.573 473.469 421.483 461.442 423.569 457.012Z"/><defs><linearGradient id="gradient_13" gradientUnits="userSpaceOnUse" x1="436.86032" y1="479.33136" x2="450.56268" y2="453.81201"><stop offset="0" stop-color="#525252"/><stop offset="1" stop-color="#686866"/></linearGradient></defs><path fill="url(#gradient_13)" transform="matrix(2.35402 0 0 2.2407 -692.084 -685.654)" d="M436.442 456.431C440.989 455.869 456.867 455.605 461.199 456.514C460.888 458.532 460.596 460.939 460.043 462.871C457.598 471.479 464.09 468.522 465.366 475.676C455.919 476.531 436.111 476.749 426.336 474.543C421.573 473.469 421.483 461.442 423.569 457.012C427.785 456.751 432.239 456.39 436.442 456.431Z"/><path fill="#807F78" transform="matrix(2.35402 0 0 2.2407 -692.084 -685.654)" d="M436.442 456.431C440.989 455.869 456.867 455.605 461.199 456.514C460.888 458.532 460.596 460.939 460.043 462.871C458.619 460.498 458.4 459.239 457.711 456.619C450.629 456.383 443.548 456.789 436.442 456.431Z"/><path fill="#8B8A81" transform="matrix(2.35402 0 0 2.2407 -692.084 -685.654)" d="M461.199 456.514C464.977 459.125 466.601 457.056 468.975 458.592C468.603 460.025 468.336 460.44 467.688 461.756L467.956 462.384C470.007 463.005 478.553 466.004 479.786 466.232C474.964 469.045 473.668 469.891 472.091 475.519C469.988 475.48 467.501 475.616 465.366 475.676C464.09 468.522 457.598 471.479 460.043 462.871C460.596 460.939 460.888 458.532 461.199 456.514Z"/><path fill="#B6B5B1" transform="matrix(2.35402 0 0 2.2407 -692.084 -685.654)" d="M491.24 474.33C491.318 471.568 492.516 464.793 494.79 462.804C496.22 461.553 496.963 461.944 498.856 461.987L497.951 462.158C496.77 462.371 497.25 462.327 496.22 462.336L495.878 462.916C498.393 463.894 503.109 465.814 505.575 466.413L506.456 467.325C506.144 470.153 506.04 471.477 505.192 474.261C504.754 474.554 504.381 474.872 503.913 475.023L493.2 474.963L491.24 474.33Z"/><path fill="#807F78" transform="matrix(2.35402 0 0 2.2407 -692.084 -685.654)" d="M479.786 466.232C482.078 466.494 481.989 466.076 483.083 467.362C482.94 469.104 480.423 472.237 479.223 474.458C483.312 474.512 487.147 474.601 491.24 474.33L493.2 474.963C486.847 474.966 478.226 474.734 472.091 475.519C473.668 469.891 474.964 469.045 479.786 466.232Z"/><path fill="#8B8A81" transform="matrix(2.35402 0 0 2.2407 -692.084 -685.654)" d="M498.856 461.987C502.841 465.293 504.944 459.38 508.461 457.511C509.657 457.501 510.642 457.493 511.418 457.487C510.035 461.314 506.119 462.504 505.575 466.413C503.109 465.814 498.393 463.894 495.878 462.916L496.22 462.336C497.25 462.327 496.77 462.371 497.951 462.158L498.856 461.987Z"/><defs><linearGradient id="gradient_14" gradientUnits="userSpaceOnUse" x1="542.10815" y1="482.61053" x2="552.08716" y2="443.06027"><stop offset="0" stop-color="#7B7B77"/><stop offset="1" stop-color="#989693"/></linearGradient></defs><path fill="url(#gradient_14)" transform="matrix(2.35402 0 0 2.2407 -692.084 -685.654)" d="M478.334 451.918C487.033 451.072 503.962 451.579 513.066 451.518C538.755 451.346 564.727 452.084 590.429 451.456C590.502 453.26 590.831 454.82 589.909 456.266C587.499 456.946 582.395 456.229 579.521 456.402C562.541 457.421 546.107 457.222 529.118 456.329C531.702 458.181 532.861 458.892 535.671 460.39L542.014 463.217C543.828 464.034 545.545 464.83 547.416 465.525C546.039 467.602 541.324 473.769 540.7 475.014C528.438 474.9 516.175 474.903 503.913 475.023C504.381 474.872 504.754 474.554 505.192 474.261C506.04 471.477 506.144 470.153 506.456 467.325L505.575 466.413C506.119 462.504 510.035 461.314 511.418 457.487C513.156 457.479 514.919 457.306 516.657 457.179L521.182 451.916C510.504 452.333 488.649 452.55 478.334 451.918Z"/><path fill="#908F88" transform="matrix(2.35402 0 0 2.2407 -692.084 -685.654)" d="M535.671 460.39L542.014 463.217C538.535 465.623 535.766 467.554 531.849 469.163L526.002 466.161C529.958 464.411 532.278 462.978 535.671 460.39Z"/><path fill="#4D4D4B" transform="matrix(2.35402 0 0 2.2407 -692.084 -685.654)" d="M559.417 464.07L559.783 464.519C561.1 464.796 562.879 465.081 563.59 466.212C562.284 467.478 561.104 467.755 559.404 468.404C557.569 468.568 556.062 468.955 554.488 468.144L554.404 467.385C555.791 465.651 557.405 465.087 559.417 464.07Z"/><path fill="#71716C" transform="matrix(2.35402 0 0 2.2407 -692.084 -685.654)" d="M567.623 492.301L568.772 491.743C569.568 494.687 570.239 497.653 570.811 500.648C572.672 510.402 575.362 519.969 577.466 529.669C571.641 532.033 563.363 535.316 558.346 538.99C561.102 545.433 564.263 551.54 567.016 557.868C560.449 568.151 551.992 579.537 544.813 589.545C540.18 586.79 536.31 588.082 532.48 586.237C532.205 584.18 531.801 583.761 530.726 581.905C533.077 576.562 535.158 571.111 537.288 565.676C539.061 560.989 540.756 556.224 542.472 551.513C543.877 547.627 545.075 544.251 546.214 540.287L548.395 534.232C551.546 526.488 554.618 514.437 557.191 506.144C557.672 502.441 559.291 496.576 560.22 492.786C561.567 492.476 565.503 492.549 567.623 492.301Z"/><path fill="#A7A6A2" transform="matrix(2.35402 0 0 2.2407 -692.084 -685.654)" d="M560.22 492.786C562.765 492.939 567.544 493.139 569.793 493.705C566.906 495.844 565.838 496.612 563.544 499.464C561.459 502.056 560.374 506.052 557.191 506.144C557.672 502.441 559.291 496.576 560.22 492.786Z"/><path fill="#A7A6A2" transform="matrix(2.35402 0 0 2.2407 -692.084 -685.654)" d="M542.472 551.513C543.336 551.733 545.15 552.134 545.893 552.448C544.513 556.338 542.724 563.755 539.925 566.092C538.613 566.168 538.571 566.066 537.288 565.676C539.061 560.989 540.756 556.224 542.472 551.513Z"/><path fill="#908F88" transform="matrix(2.35402 0 0 2.2407 -692.084 -685.654)" d="M546.214 540.287L549.038 540.036C548.467 544.75 547.543 547.958 545.893 552.448C545.15 552.134 543.336 551.733 542.472 551.513C543.877 547.627 545.075 544.251 546.214 540.287Z"/><path fill="#B6B5B1" transform="matrix(2.35402 0 0 2.2407 -692.084 -685.654)" d="M548.395 534.232C550.894 534.444 550.73 534.049 552.493 535.281C553.117 537.869 551.238 538.992 549.038 540.036L546.214 540.287L548.395 534.232Z"/><defs><linearGradient id="gradient_15" gradientUnits="userSpaceOnUse" x1="464.47568" y1="558.75977" x2="461.85651" y2="500.07333"><stop offset="0" stop-color="#6C6C68"/><stop offset="1" stop-color="#89857B"/></linearGradient></defs><path fill="url(#gradient_15)" transform="matrix(2.35402 0 0 2.2407 -692.084 -685.654)" d="M453.835 492.987L462.931 493.042L464.412 498.479C469.299 520.075 476.024 538.714 483.497 559.525C479.276 558.351 477.2 557.728 473.775 554.82L466.337 554.251C466.734 552.151 467.24 551.068 465.883 549.36C463.586 548.538 463.045 548.428 461.351 546.704C468.848 536.801 451.342 531.705 444.726 528.987C446.207 522.077 447.972 515.326 449.724 508.483L453.835 492.987Z"/><path fill="#B6B5B1" transform="matrix(2.35402 0 0 2.2407 -692.084 -685.654)" d="M453.835 492.987L462.931 493.042L464.412 498.479C459.803 502.395 455.75 507.229 449.724 508.483L453.835 492.987Z"/><path fill="#908F88" transform="matrix(2.35402 0 0 2.2407 -692.084 -685.654)" d="M455.706 557.694C457.469 553.971 459.352 550.306 461.351 546.704C463.045 548.428 463.586 548.538 465.883 549.36C467.24 551.068 466.734 552.151 466.337 554.251L473.775 554.82C477.2 557.728 479.276 558.351 483.497 559.525C487.304 570.532 492.105 581.484 496.438 592.294C498.028 596.262 501.142 602.785 502.383 606.607C498.314 605.163 494.926 603.966 490.944 605.661L490.138 606.59C483.463 598.559 476.615 588.03 470.579 579.389C466.095 572.968 459.413 564.246 455.706 557.694Z"/><path fill="#807F78" transform="matrix(2.35402 0 0 2.2407 -692.084 -685.654)" d="M484.973 579.315C486.12 579.434 486.566 579.551 487.695 579.8C488.99 580.955 488.653 580.261 488.834 581.905C488.133 583.888 487.167 584.558 485.63 586.096C484.77 586.056 484.163 585.893 483.313 585.729C481.852 584.419 482.249 585.211 482.046 583.29C482.812 581.085 483.169 580.952 484.973 579.315Z"/><path fill="#605F5E" transform="matrix(2.35402 0 0 2.2407 -692.084 -685.654)" d="M592.44 517.552C596.302 531.196 599.723 548.758 602.12 562.689C596.062 559.834 594.076 556.831 589.13 553.375C586.534 551.562 574.591 556.035 572.841 559.649C572.239 556.285 566.44 545.931 564.568 541.123C577.105 531.941 582.845 540.636 580.633 520.345C585.199 519.839 588.25 519.656 592.44 517.552Z"/><path fill="#807F78" transform="matrix(2.35402 0 0 2.2407 -692.084 -685.654)" d="M427.634 423.012C431.645 424.339 434.998 429.896 437.709 433.48C440.29 433.356 442.868 433.162 445.439 432.9C447.008 429.99 445.792 428.747 446.773 426.586C449.554 425.013 448.996 425.847 451.914 425.314L455.351 424.703C457.595 426.606 472.179 427.31 475.939 427.381C477.062 427.403 480.517 426.293 482.583 426.204L479.916 431.782C481.455 433.442 482.315 434.069 482.98 436.155L482.729 437.164C480.568 437.928 480.318 437.58 479.386 439.078C480.155 440.58 481.064 442.494 481.979 443.851L484.183 444.201L475.565 444.582C469.855 445.536 452.374 444.616 446.407 444.297C437.635 438.636 432.317 432.414 427.634 423.012Z"/><defs><linearGradient id="gradient_16" gradientUnits="userSpaceOnUse" x1="451.23471" y1="446.98853" x2="445.47623" y2="420.96481"><stop offset="0" stop-color="#535253"/><stop offset="1" stop-color="#73716E"/></linearGradient></defs><path fill="url(#gradient_16)" transform="matrix(2.35402 0 0 2.2407 -692.084 -685.654)" d="M427.634 423.012C431.645 424.339 434.998 429.896 437.709 433.48C440.29 433.356 442.868 433.162 445.439 432.9C450.204 432.984 451.526 432.608 453.72 437.48C454.87 436.846 454.495 437.169 455.213 436.027C457.715 438.303 462.088 437.867 465.825 438.812C467.894 440.422 468.003 441.012 468.118 443.484C469.932 444.872 473.168 444.555 475.565 444.582C469.855 445.536 452.374 444.616 446.407 444.297C437.635 438.636 432.317 432.414 427.634 423.012Z"/><path fill="#71716C" transform="matrix(2.35402 0 0 2.2407 -692.084 -685.654)" d="M455.213 436.027C460.035 434.682 461.537 432.76 464.83 437.421L465.825 438.812C462.088 437.867 457.715 438.303 455.213 436.027Z"/><defs><linearGradient id="gradient_17" gradientUnits="userSpaceOnUse" x1="545.61755" y1="541.86725" x2="519.76727" y2="539.83917"><stop offset="0" stop-color="#A8A7A6"/><stop offset="1" stop-color="#C7C6C5"/></linearGradient></defs><path fill="url(#gradient_17)" transform="matrix(2.35402 0 0 2.2407 -692.084 -685.654)" d="M548.871 509.378C549.506 515.685 530.344 565.371 527.073 573.945L525.014 564.392C522.87 553.263 520.988 542.085 519.371 530.867C522.431 526.816 523.942 524.566 526.283 520.097C529.747 523.945 533.343 527.772 538.441 522.35C542.064 518.496 545.471 513.578 548.871 509.378Z"/><defs><linearGradient id="gradient_18" gradientUnits="userSpaceOnUse" x1="482.18567" y1="543.24036" x2="503.11484" y2="538.18365"><stop offset="0" stop-color="#A3A2A2"/><stop offset="1" stop-color="#C9C7C6"/></linearGradient></defs><path fill="url(#gradient_18)" transform="matrix(2.35402 0 0 2.2407 -692.084 -685.654)" d="M473.868 510.376C479.14 514.034 482.953 525.485 489.907 525.105C491.959 524.992 494.113 521.747 495.358 520.12C498.019 524.508 499.882 527.448 502.996 531.614C500.886 541.648 499.41 552.312 497.847 562.485C497.221 566.466 496.498 570.43 495.678 574.375C490.592 561.141 485.808 547.793 481.328 534.341C478.844 527.026 475.449 517.788 473.868 510.376Z"/><defs><linearGradient id="gradient_19" gradientUnits="userSpaceOnUse" x1="416.48123" y1="749.07318" x2="389.55658" y2="722.43738"><stop offset="0" stop-color="#464546"/><stop offset="1" stop-color="#706F6E"/></linearGradient></defs><path fill="url(#gradient_19)" transform="matrix(2.35402 0 0 2.2407 -692.084 -685.654)" d="M411.607 749.03C379.412 751.079 389.154 745.481 388.419 721.827C395.331 723.055 402.408 722.349 409.377 722.307C410.434 722.3 415.125 722.007 415.822 722.07C411.95 735.963 409.32 737.466 423.562 744.788C418.856 745.587 415.84 741.878 411.887 743.819C410.674 745.788 411.095 746.791 411.607 749.03Z"/><path fill="#A7A6A2" transform="matrix(2.35402 0 0 2.2407 -692.084 -685.654)" d="M510.33 493.6C525.018 493.531 539.706 493.541 554.394 493.631C553.585 494.653 550.262 498.968 549.529 499.652C544.23 506.832 538.564 512.776 533.221 519.57C528.947 514.566 524.852 509.412 520.945 504.117C517.867 501.606 515.585 497.204 510.678 494.044L510.33 493.6Z"/><path fill="#B6B5B1" transform="matrix(2.35402 0 0 2.2407 -692.084 -685.654)" d="M520.945 504.117L521.646 503.384C525.266 502.293 531.015 502.256 535.051 501.55C538.8 500.895 546.317 498.384 549.529 499.652C544.23 506.832 538.564 512.776 533.221 519.57C528.947 514.566 524.852 509.412 520.945 504.117Z"/><defs><linearGradient id="gradient_20" gradientUnits="userSpaceOnUse" x1="488.60843" y1="489.63422" x2="494.68817" y2="515.54816"><stop offset="0" stop-color="#ACABAB"/><stop offset="1" stop-color="#E2E1DF"/></linearGradient></defs><path fill="url(#gradient_20)" transform="matrix(2.35402 0 0 2.2407 -692.084 -685.654)" d="M468.558 493.411C482.064 493.258 496.859 493.238 510.33 493.6L510.678 494.044C503.653 501.234 495.882 511.209 488.819 518.994C481.552 510.885 474.786 502.342 468.558 493.411Z"/><path fill="#A7A6A2" transform="matrix(2.35402 0 0 2.2407 -692.084 -685.654)" d="M552.099 486.465C524.79 485.984 495.936 486.519 468.453 486.471L446.11 486.438C443.505 486.438 438.095 487.315 436.58 485.502C436.535 483.953 436.388 483.702 437.109 482.326C438.955 481.957 461.136 482.156 465.047 482.142L544.762 482.075C547.034 482.324 549.736 482.133 551.306 483.304C551.958 484.861 552.017 484.808 552.099 486.465Z"/><path fill="#8B8A81" transform="matrix(2.35402 0 0 2.2407 -692.084 -685.654)" d="M530.726 581.905C531.801 583.761 532.205 584.18 532.48 586.237C536.31 588.082 540.18 586.79 544.813 589.545C539.021 597.759 533.172 605.932 527.268 614.066C523.795 611.972 522.028 613.341 520.288 611.818C522.72 609.297 523.379 606.196 521.762 602.964L523.16 599.877C525.649 593.872 528.171 587.882 530.726 581.905Z"/><path fill="#B6B5B1" transform="matrix(2.35402 0 0 2.2407 -692.084 -685.654)" d="M530.726 581.905C531.801 583.761 532.205 584.18 532.48 586.237L532.127 587.082C529.925 592.481 530.346 599.026 523.16 599.877C525.649 593.872 528.171 587.882 530.726 581.905Z"/><defs><linearGradient id="gradient_21" gradientUnits="userSpaceOnUse" x1="589.76282" y1="496.55603" x2="577.54669" y2="516.92938"><stop offset="0" stop-color="#6E6E68"/><stop offset="1" stop-color="#919089"/></linearGradient></defs><path fill="url(#gradient_21)" transform="matrix(2.35402 0 0 2.2407 -692.084 -685.654)" d="M573.767 493.072C578.015 493.117 582.58 493.38 586.851 493.544C588.884 500.688 590.368 509.829 592.44 517.552C588.25 519.656 585.199 519.839 580.633 520.345C578.638 511.179 576.169 502.139 573.767 493.072Z"/><path fill="#8B8A81" transform="matrix(2.35402 0 0 2.2407 -692.084 -685.654)" d="M506.412 284.488L514.596 284.34C514.611 289.946 514.511 296.059 514.673 301.622C515.417 303.064 515.499 307.411 515.541 309.219C512.482 310.356 512.212 310.333 509.008 310.502L507.045 310.611L504.456 310.234C506.277 307.702 504.542 303.32 505.811 301.125C506.029 295.667 506.352 289.927 506.412 284.488Z"/><path fill="#201F1F" transform="matrix(2.35402 0 0 2.2407 -692.084 -685.654)" d="M504.456 310.234C506.277 307.702 504.542 303.32 505.811 301.125C505.862 303.78 505.406 303.523 506.752 305.011C510.007 306.264 511.009 306.179 514.475 305.619C514.659 303.984 514.678 303.278 514.673 301.622C515.417 303.064 515.499 307.411 515.541 309.219C512.482 310.356 512.212 310.333 509.008 310.502L507.045 310.611L504.456 310.234Z"/><path fill="#A7A6A2" transform="matrix(2.35402 0 0 2.2407 -692.084 -685.654)" d="M521.762 602.964C523.379 606.196 522.72 609.297 520.288 611.818C522.028 613.341 523.795 611.972 527.268 614.066C523.823 618.935 520.232 623.936 516.986 628.925C514.725 632.402 512.996 636.235 510.539 639.639C509.055 639.366 509.724 639.7 508.629 638.324C507.088 631.41 518.271 610.395 521.762 602.964Z"/><path fill="#A7A6A2" transform="matrix(2.35402 0 0 2.2407 -692.084 -685.654)" d="M490.138 606.59L490.944 605.661C494.926 603.966 498.314 605.163 502.383 606.607C504.593 611.193 506.395 614.403 508.952 618.756L505.583 627.936C501.89 623.076 493.217 611.643 490.138 606.59Z"/><path fill="#605F5E" transform="matrix(2.35402 0 0 2.2407 -692.084 -685.654)" d="M544.762 482.075C555.18 481.793 565.627 481.524 576.052 481.606C579.275 481.632 582.436 481.667 584.952 483.87L585.025 484.847C582.325 487.584 572.461 486.539 568.43 486.647L568.772 491.743L567.623 492.301L568.008 486.541L552.099 486.465C552.017 484.808 551.958 484.861 551.306 483.304C549.736 482.133 547.034 482.324 544.762 482.075Z"/><path fill="#71716C" transform="matrix(2.35402 0 0 2.2407 -692.084 -685.654)" d="M449.23 710.833C451.177 710.882 453.184 711.201 454.741 710.182C456.311 707.802 455.175 707.923 456.121 705.833C457.997 705.784 460.518 707.261 462.326 708.123C462.828 709.186 463.061 710.306 463.918 710.512C468.488 711.61 472.71 710.529 477.595 711.085C469.296 712.044 448.323 711.834 439.908 711.067C443.287 710.745 445.841 710.792 449.23 710.833Z"/></g></svg>