<?xml version="1.0" encoding="utf-8" ?><svg xmlns="http://www.w3.org/2000/svg" xmlns:xlink="http://www.w3.org/1999/xlink" width="1024" height="1024" viewBox="0 0 1024 1024"><path d="M577.021 54.013C596.194 55.0555 621.189 54.1708 640.701 54.3606C688.332 54.8239 736.299 53.8744 783.922 54.4676L784.085 64.0952C790.391 64.0912 797.239 63.9658 803.493 64.1701L803.575 197.463L803.58 235.314C803.574 246.413 804.239 259.703 801.633 270.39C796.84 290.048 784.625 302.251 767.134 311.046C767.685 319.208 767.414 327.22 767.141 335.384C767.562 335.741 768.29 336.42 768.733 336.656C778.805 339.417 787.061 344.21 792.328 353.543C802.617 371.771 799.064 401.799 779.535 412.637C769.891 417.989 758.254 418.1 747.614 418.073C749.269 428.795 751.758 440.113 753.86 450.81L764.294 504.794L797.787 687.304C803.931 721.214 811.231 756.088 816.106 790.097C818.113 792.629 820.648 793.634 823.57 795.09C839.699 801.915 852.715 813.931 859.358 830.323C865.963 847.011 865.746 865.626 858.754 882.156C857.207 885.747 855.407 888.588 853.922 891.815L856.61 893.526C876.382 899.897 890.77 917.126 891.44 937.95C891.909 952.549 891.444 967.278 892.017 981.787C875.138 981.375 857.447 981.624 840.522 981.624L751.469 981.683L526.613 981.874L290.738 981.617C256.768 981.603 220.294 980.981 186.525 981.632L186.421 969.578C179.597 969.214 172.759 969.201 165.934 969.537C165.886 930.244 159.521 896.858 204.032 881.752C200.175 874.679 197.235 869.198 195.464 861.285C191.368 842.975 193.226 824.975 203.539 809.049C212.261 795.581 226.206 785.787 241.785 782.267L287.676 536.242C292.722 508.962 297.914 481.708 303.249 454.483C305.239 443.97 307.643 426.315 310.229 416.664C310.744 412.839 311.395 409.673 312.199 405.887C303.64 405.732 295.857 405.808 287.403 404.257C267.796 396.248 260.33 387.949 259.626 366.043C258.929 344.358 269.849 331.829 290.041 326.175C289.376 316.648 289.527 307.241 289.506 297.688C259.138 282.961 253.13 265.46 253.543 232.911C253.716 219.303 253.79 204.678 253.799 190.999L253.988 54.1676L396.724 54.2906L440.113 54.2269C448.026 54.2014 457.823 53.8294 465.51 54.4082L465.547 64.2884C472.24 64.5372 478.765 64.4075 485.41 64.5447L485.371 131.871C485.398 141.802 484.988 158.241 485.71 167.707C490.268 168.604 509.976 167.404 515.901 167.397C535.293 167.373 557.851 166.173 577.01 167.349C576.49 155.343 576.935 140.088 576.955 127.921L577.021 54.013Z"/><path fill="#818080" d="M856.61 893.526C876.382 899.897 890.77 917.126 891.44 937.95C891.909 952.549 891.444 967.278 892.017 981.787C875.138 981.375 857.447 981.624 840.522 981.624L751.469 981.683L526.613 981.874L290.738 981.617C256.768 981.603 220.294 980.981 186.525 981.632L186.421 969.578C210.109 970.138 236.094 969.601 259.972 969.643L424.808 969.669L872.414 969.51C872.497 949.78 875.125 923.68 866.267 905.848C864.337 901.963 859.544 896.902 856.61 893.526Z"/><path fill="#818080" d="M768.733 336.656C778.805 339.417 787.061 344.21 792.328 353.543C802.617 371.771 799.064 401.799 779.535 412.637C769.891 417.989 758.254 418.1 747.614 418.073C749.269 428.795 751.758 440.113 753.86 450.81L764.294 504.794L797.787 687.304C803.931 721.214 811.231 756.088 816.106 790.097C808.574 785.831 805.889 784.6 797.464 782.699C796.024 776.906 794.205 764.414 792.947 757.863L779.878 687.458L743.122 489.24C737.94 461.514 733.407 433.117 727.43 405.577C753.185 405.927 773.44 403.396 777.832 372.892C779.826 359.045 777.28 347.848 768.733 336.656Z"/><path fill="#818080" d="M784.085 64.0952C790.391 64.0912 797.239 63.9658 803.493 64.1701L803.575 197.463L803.58 235.314C803.574 246.413 804.239 259.703 801.633 270.39C796.84 290.048 784.625 302.251 767.134 311.046C767.685 319.208 767.414 327.22 767.141 335.384C760.244 329.482 756.836 328.487 748.236 325.701C747.698 317.117 748.416 308.048 748.011 299.084C784.487 280.804 784.02 261.283 784.087 224.518L784.131 183.766L784.163 105C784.155 91.5132 784.476 77.5316 784.085 64.0952Z"/><path fill="#818080" d="M465.547 64.2884C472.24 64.5372 478.765 64.4075 485.41 64.5447L485.371 131.871C485.398 141.802 484.988 158.241 485.71 167.707C480.281 167.137 472.44 166.983 466.814 166.699C464.668 135.362 465.681 96.2881 465.547 64.2884Z"/><path fill="#818080" d="M823.57 795.09C839.699 801.915 852.715 813.931 859.358 830.323C865.963 847.011 865.746 865.626 858.754 882.156C857.207 885.747 855.407 888.588 853.922 891.815C847.463 886.519 841.624 884.999 834.292 881.611C850.413 849.585 848.573 821.802 823.57 795.09Z"/><path fill="#F7F7F7" d="M346.698 405.961L534.387 405.928L631.89 405.948C651.984 405.955 672.521 406.223 692.558 405.881L715.576 529.392C719.202 548.064 722.656 566.769 725.939 585.504C727.578 594.365 729.703 603.888 731.045 612.721C731.46 614.885 732.031 617.477 732.314 619.624L733.222 624.487C733.985 628.338 734.844 632.346 735.52 636.198C740.502 661.394 744.675 686.967 749.54 712.275C752.648 728.147 755.65 744.04 758.545 759.953C759.712 766.291 761.473 774.195 762.352 780.42L568.146 780.464L513.829 780.469C508.161 780.469 492.04 780.146 486.997 780.812C483.047 781.298 470.063 781.009 465.357 781.014L421.172 781.048L277.25 780.962C278.142 772.616 280.165 762.583 281.702 754.265C284.179 740.74 286.747 727.233 289.408 713.743L305.393 628.225L330.037 494.752C333.53 475.75 336.703 456.36 340.661 437.461C342.605 428.466 345.771 414.958 346.698 405.961Z"/><path fill="#B2B1B1" d="M346.698 405.961L534.387 405.928L631.89 405.948C651.984 405.955 672.521 406.223 692.558 405.881L715.576 529.392C719.202 548.064 722.656 566.769 725.939 585.504C727.578 594.365 729.703 603.888 731.045 612.721C731.46 614.885 732.031 617.477 732.314 619.624L733.222 624.487C733.985 628.338 734.844 632.346 735.52 636.198C740.502 661.394 744.675 686.967 749.54 712.275C752.648 728.147 755.65 744.04 758.545 759.953C759.712 766.291 761.473 774.195 762.352 780.42L568.146 780.464L513.829 780.469C508.161 780.469 492.04 780.146 486.997 780.812C487.15 774.886 486.478 764.82 490.176 760.592C491.187 759.436 493.504 757.703 494.987 757.649C503.557 757.338 513.868 758.876 522.323 759.124C553.738 760.043 588.258 758.903 618.839 751.614C625.745 749.539 635.102 747.02 641.58 744.399C651.626 740.336 652.487 741.401 662.2 742.798C666.311 743.389 669.939 732.933 672.986 729.753C678.137 724.379 680.854 723.921 688.385 723.208C688.19 713.736 685.195 694.458 683.809 684.743C681.084 665.652 678.509 645.703 675.288 626.77C675.267 626.115 674.857 623.807 674.739 623.032L674.708 622.175C674.652 620.421 674.767 618.75 674.102 617.162C673.35 608.441 671.646 597.997 670.453 589.153L661.805 526.196L655.249 473.474C654.177 465.313 653.497 456.754 651.706 448.733C651.04 445.748 649.326 442.145 647.02 440.083C629.594 424.504 493.196 429.785 463.049 430.488C443.122 430.953 423.174 430.932 403.267 432.032C393.749 432.558 384.168 433.004 374.678 433.912C363.327 434.998 352.036 436.614 340.661 437.461C342.605 428.466 345.771 414.958 346.698 405.961Z"/><path fill="#919191" d="M731.045 612.721C731.46 614.885 732.031 617.477 732.314 619.624L733.222 624.487C733.985 628.338 734.844 632.346 735.52 636.198C732.663 632.604 734.209 630.925 732.486 626.548L731.554 626.204C728.887 627.232 727.664 629.43 726.664 629.841C720.263 632.471 719.577 631.021 714.997 627.165C714.399 626.662 710.255 626 709.133 625.804C711.156 625.442 712.55 624.492 714.513 625.28C716.825 626.208 716.006 628.574 718.308 629.86C720.923 630.046 724.397 629.849 726.82 628.758L726.645 628.325C725.813 628.435 724.979 628.53 724.144 628.61C722.271 628.778 721.316 628.872 719.856 627.673C719.037 626.087 719.186 625.966 719.31 624.215C720.596 622.462 721.844 622.316 724.028 621.54C724.175 620.691 724.332 619.843 724.498 618.997C727.593 617.709 728.793 620.251 730.754 616.783C730.381 614.722 730.27 614.573 731.045 612.721Z"/><path fill="#818080" d="M732.314 619.624L733.222 624.487C730.976 625.277 729.813 625.051 727.662 625.175C727.371 625.191 726.25 627.381 724.538 627.893L723.654 626.827C722.127 626.675 721.999 626.663 720.545 626.196L720.612 625.521C724 622.791 728.745 621.899 732.314 619.624Z"/><path fill="#CDCDCC" d="M581.418 619.116C580.844 618.693 580.784 618.54 580.312 617.995C581.191 614.536 585.122 615.647 586.556 613.598C585.68 613.813 585.059 613.925 584.167 614.068C580.161 612.092 583.157 615.134 580.831 616.392C574.839 619.633 570.69 604.694 576.181 603.962C576.253 606.056 575.286 607.576 575.313 611.114C575.579 607.411 576.941 604.05 580.515 602.324L581.688 603.223L583.427 602.271C583.122 602.178 582.817 602.085 582.512 601.991C578.648 599.296 579.211 602.503 576.856 602.281L577.042 601.522C579.709 599.824 581.052 598.978 584.117 600.565C589.067 603.13 593.334 607.2 594.753 612.724C595.866 611.792 602.352 611.082 604.076 612.758L603.766 613.409C602.417 612.851 602.951 612.762 601.909 613.068C601.156 616.983 607.341 620.187 609.32 619.864C607.674 618.281 603.928 612.757 604.615 610.364C606.743 613.898 610.04 619.834 613.683 621.577C613.9 619.176 613.369 620.001 614.85 618.732C617.511 618.574 623.83 617.214 625.892 617.501C635.735 618.87 646.102 621.037 656.013 622.154C658.627 622.449 672.915 621.233 674.049 620.268C674.041 619.189 674.059 618.241 674.102 617.162C674.767 618.75 674.652 620.421 674.708 622.175L674.739 623.032C674.857 623.807 675.267 626.115 675.288 626.77C672.423 626.701 671.759 628.828 669.372 629.136L668.84 627.645C661.986 622.457 656.53 626.19 650.372 625.081C639.166 623.064 636.14 620.805 625.149 626.097C624.309 626.501 617.308 626.216 613.975 627.798C613.67 628.984 613.538 629.273 613.036 630.399C611.686 630.833 611.585 630.473 609.918 629.946L609.366 630.389C608.779 632.673 609.053 633.037 609.861 635.261L609.523 635.631L608.513 635.12C607.913 633.518 608.221 632.478 608.33 630.646L607.791 630.158L605.023 630.602L604.725 630.02C608.494 622.5 599.792 628.136 594.576 622.002L593.326 623.448C586.138 624.619 586.749 619.378 581.418 619.116Z"/><path fill="#C3C2C2" d="M674.708 622.175L674.739 623.032C673.815 623.701 673.269 623.984 672.27 624.562C670.622 624.641 670.736 624.674 669.325 623.821L669.381 622.978C671.273 621.845 672.268 622.22 674.708 622.175Z"/><path fill="#B2B1B1" d="M580.537 605.577L581.553 605.528C583.812 603.392 587.213 604.228 588.128 607.089L587.706 608.121C586.252 608.716 587.006 608.526 585.321 608.327L585.152 609.023C584.658 610.985 580.04 614.535 577.573 614.66C576.122 613.655 576.691 614.303 575.977 612.516C577.13 610.045 577.122 610.93 576.834 608.502C577.023 606.521 577.884 605.398 579.674 604.724L580.537 605.577Z"/><path fill="#B2B1B1" d="M576.834 608.502C577.023 606.521 577.884 605.398 579.674 604.724L580.537 605.577C581.009 606.775 581.229 607.474 581.579 608.716L580.467 610.117C577.902 609.987 579.919 608.889 576.834 608.502Z"/><path fill="#C3C2C2" d="M590.092 613.422C590.852 614.176 591.065 615.092 591.946 616.09C594.013 615.993 594.147 614.447 597.226 613.507C601.24 614.518 602.069 619.899 599.01 622.71C595.771 617.552 594.754 621.317 589.634 620.353L588.8 619.043L587.186 618.92L587.095 618.371C588.687 616.644 589.81 615.865 590.092 613.422Z"/><path fill="#C3C2C2" d="M609.54 620.805C612.03 621.832 614.282 622.52 612.943 625.798L612.27 625.536C610.444 626.51 610.224 626.712 608.409 626.023C607.271 624.079 608.452 622.409 609.54 620.805Z"/><path fill="#DDDCDC" d="M594.576 622.002L594.131 623.747C592.712 625.093 592.501 624.757 590.248 625.273L591.485 626.449L590.748 626.739C588.999 626.215 589.553 626.369 588.3 624.304C587.41 625.17 587.44 625.257 586.312 625.715C584.617 624.801 582.853 624.258 582.143 622.805C582.997 621.637 582.938 622.089 583.091 620.841C581.345 621.059 580.881 621.189 579.099 620.901C577.99 619.747 578.337 620.438 578.23 618.666C579.21 618.683 580.287 619.773 581.285 620.499L581.874 620.284L581.418 619.116C586.749 619.378 586.138 624.619 593.326 623.448L594.576 622.002Z"/><path fill="#DDDCDC" d="M529.876 518.041C529.785 516.091 529.411 515.844 530.298 514.596C535.107 516.367 536.119 530.536 538.797 535.729C538.409 536.834 538.259 537.24 537.725 538.274C538.206 539.049 538.074 539.334 538.941 539.556C543.324 540.675 548.367 554.591 548.229 558.389C551.328 564.451 556.663 576.087 562.064 580.672C562.562 581.324 562.932 581.825 563.389 582.515L563.755 583.076C564.266 583.018 564.777 582.965 565.29 582.917C567.839 582.681 568.575 582.529 570.375 584.018C570.934 586.491 570.829 585.615 569.275 588.48L569.681 589.438C568.785 590.726 569.365 590.277 567.862 590.805C557.51 589.152 552.779 573.719 548.298 571.75L548.045 572.267C548.458 573.903 551.717 577.39 552.958 578.932L552.205 579.549L551.29 579.284C545.849 571.986 534.958 547.612 529.645 538.237C528.996 537.092 530.776 533.36 529.326 529.388C528.649 530.306 528.164 531.348 527.299 531.635L528.28 527.99C527.352 526.261 526.784 525.63 527.574 523.914L528.265 523.932L529.052 526.001C529.132 525.587 530.083 522.617 530.189 523.31C529.981 521.951 527.779 518.753 528.084 517.634L529.146 518.318L529.876 518.041Z"/><path fill="#C3C2C2" d="M529.876 518.041C529.785 516.091 529.411 515.844 530.298 514.596C535.107 516.367 536.119 530.536 538.797 535.729C538.409 536.834 538.259 537.24 537.725 538.274C538.206 539.049 538.074 539.334 538.941 539.556C543.324 540.675 548.367 554.591 548.229 558.389L547.511 558.606C547.297 558.391 547.083 558.175 546.87 557.959C544.464 556.919 540.97 553.492 539.424 551.442L538.418 551.52C538.048 551.516 537.677 551.513 537.307 551.509L536.25 549.439C536.071 546.238 537.506 542.015 537.353 541.118L536.521 539.789C536.5 536.966 534.34 523.652 532.973 522.206L531.558 522.468L531.398 521.754C529.424 519.897 529.872 520.685 529.876 518.041Z"/><path fill="#CDCDCC" d="M538.418 551.52L539.424 551.442C540.97 553.492 544.464 556.919 546.87 557.959C547.083 558.175 547.297 558.391 547.511 558.606L548.229 558.389C551.328 564.451 556.663 576.087 562.064 580.672C562.299 582.19 562.398 583.538 563.035 584.93C561.429 584.746 560.994 583.978 559.211 584.483C558.3 581.283 550.523 573.042 547.901 570.474C548.418 569.271 548.206 569.898 548.529 568.593C546.773 564.188 544.54 558.257 541.089 554.92C539.622 553.502 539.726 552.776 538.418 551.52Z"/><path fill="#B2B1B1" d="M531.558 522.468L532.973 522.206C534.34 523.652 536.5 536.966 536.521 539.789L537.353 541.118L536.228 541.491C531.773 539.301 534.875 536.654 530.916 533.191C531.316 529.117 530.101 525.931 531.558 522.468Z"/><path fill="#D3D3D3" d="M530.916 533.191C534.875 536.654 531.773 539.301 536.228 541.491L537.353 541.118C537.506 542.015 536.071 546.238 536.25 549.439C534.789 547.433 533.82 542.749 532.666 540.317C531.489 537.838 530.442 536.02 530.916 533.191Z"/><path fill="#C3C2C2" d="M559.211 584.483C560.994 583.978 561.429 584.746 563.035 584.93C564.804 585.622 567.848 586.942 568.309 588.872C565.625 589.818 561.084 586.306 559.211 584.483Z"/><path fill="#DDDCDC" d="M381.943 534.3C384.705 527.799 389.587 531.992 393.074 529.873C395.07 528.661 398.607 523.619 400.775 522.281L401.898 522.737C403.104 524.38 403.061 524.276 403.341 526.295C401.922 529.665 401.595 529.779 398.287 531.373L397.534 533.198C400.49 533.268 404.326 527.027 405.449 524.425L406.076 524.138C406.565 525.974 403.285 530.56 401.748 532.427C399.294 535.162 397.599 533.942 394.634 533.368C394.041 533.253 391.826 536.155 391.13 536.137C386.92 536.03 371.648 539.789 368.919 538.391C368.33 536.507 368.888 531.722 369.331 529.733C369.6 531.306 369.578 531.645 369.574 533.193C372.772 532.754 372.034 532.049 376.171 532.128C375.859 530.087 375.426 529.814 376.22 528.406C378.031 528.043 379.542 529.403 381.021 530.257C382.482 531.1 381.771 533.49 381.461 534.822C381.943 534.458 381.841 534.672 381.943 534.3Z"/><path fill="#CDCDCC" d="M381.943 534.3C384.705 527.799 389.587 531.992 393.074 529.873C395.07 528.661 398.607 523.619 400.775 522.281L401.898 522.737C403.104 524.38 403.061 524.276 403.341 526.295C401.922 529.665 401.595 529.779 398.287 531.373C395.923 533.008 384.312 537.162 381.943 534.3Z"/><path fill="#C3C2C2" d="M425.946 503.923C427.616 503.788 427.193 503.688 428.756 504.02C426.245 505.193 423.793 506.34 422.208 508.718C427.078 510.547 426.58 505.17 431.446 509.899C436.858 510.184 445.168 510.82 450.33 510.221L451.123 510.123L451.082 510.611C443.431 512.882 431.545 506.567 426.489 516.268C425.201 516.497 425.679 516.475 424.372 516.231L423.607 518.203C419.945 520.696 410.965 521.253 406.2 523.46C405.012 523.033 405.565 523.31 404.535 522.639C405.734 521.519 408.089 520.909 409.776 520.294C406.636 519.971 406.467 519.885 403.637 521.305L403.102 521.579L402.8 521.242C403.575 519.758 422.764 506.761 425.946 503.923Z"/><path fill="#CDCDCC" d="M627.863 729.844C633.809 728.039 638.285 732.776 643.295 733.703C645.399 734.092 644.894 732.8 646.569 735.045C643.036 736.373 638.634 731.046 634.855 731.577C635.704 733.453 635.857 731.5 637.001 732.519C638.614 733.954 637.018 733.314 638.206 735.187C639.143 735.037 640.077 734.87 641.008 734.685L641.689 735.245C642.216 737.063 642.219 736.927 641.796 738.769C640.554 740.254 641.309 739.812 639.517 740.244L638.283 739.165L637.518 739.522C637.917 740.757 637.847 740.487 637.994 741.751C637.113 742.885 637.65 742.572 636.352 743.014C631.833 744.556 633.228 741.02 630.097 739.446C629.471 740.201 629.708 742.081 629.127 744.008L628.654 743.855C628.213 737.829 625.261 738.613 623.762 734.488C624.489 733.456 624.018 733.855 625.189 733.311C625.397 736.041 626.518 737.184 628.64 738.841C628.863 737.812 627.983 736.999 627.219 735.746C627.44 733.849 627.788 733.543 628.844 731.84L629.181 731.304L628.974 730.724L627.71 730.483L627.863 729.844Z"/><path fill="#B2B1B1" d="M629.248 732.828C631.939 733.583 634.856 732.773 636.782 735.142C637.23 737.355 637.276 736.26 636.419 738.528C634.114 737.808 629.902 736.777 628.603 734.757L629.248 732.828Z"/><path fill="#DDDCDC" d="M349.697 541C351.477 540.791 352.269 541.09 353.996 541.48L354.325 542.216C352.553 546.08 332.308 553.609 329.347 552.608C329.504 551.08 329.997 551.087 331.335 549.67C332.337 549.094 333.559 548.737 335.031 547.886C333.979 547.097 328.173 549.146 325.896 548.381C327.928 547.576 332.463 546.851 334.724 546.293C334.724 546.293 336.607 547.128 336.607 547.128C343.251 544.17 342.001 542.348 349.697 541Z"/><path fill="#CDCDCC" d="M623.932 712.518C624.566 716.081 624.626 724.021 626.35 726.039C627.171 725.332 628.001 724.635 628.838 723.948C629.894 724.692 629.487 724.193 629.778 725.712C629.14 728.112 628.123 728.772 626.293 730.41C624.724 729.114 623.851 728.113 622.107 726.939C621.77 728.154 621.79 727.513 622.497 728.909C623.583 729.813 623.836 730.138 624.763 731.225L624.576 731.619C620.795 729.759 620.051 726.884 619.204 722.773L619.776 722.542L621.376 723.91C621.374 721.584 619.757 721.892 619.307 719.369C620.336 717.786 621.898 715.376 623.511 714.485L623.932 712.518Z"/><path fill="#EEEEED" d="M613.741 76.5723C657.694 75.7119 702.083 76.6596 746.053 77.012C751.132 77.0527 756.063 76.9783 761.143 77.3696C761.692 89.4442 761.499 102.798 761.514 114.936L761.522 180.073L761.623 221.354C761.647 236.878 763.485 256.239 752.516 268.677C742.693 279.815 728.783 279.478 715.172 279.543C711.33 279.418 707.962 279.48 704.114 279.589L427.395 279.918L355.709 279.93C349.213 279.913 342.539 279.983 336.044 279.851C305.75 279.235 291.8 284.038 276.847 254.098C275.332 248.624 275.64 229.42 275.687 223.301L275.717 209.635C275.296 165.704 275.88 120.59 276.023 76.5813C314.16 76.9838 352.674 76.1138 390.851 76.5363C407.82 76.724 425.668 76.1739 442.537 76.9533C443.807 114.117 442.689 153.87 442.512 191.311C465.595 191.837 489.62 190.516 513.234 191.042C525.926 190.606 539.789 191.165 552.609 191.028C556.985 190.981 570.911 190.67 574.776 191.042C581.552 190.9 592.797 190.559 599.328 191.162C601.349 178.719 599.994 151.454 600.494 137.338C600.067 133.539 600.363 121.366 600.373 117.187L600.494 76.6239C604.857 76.5072 609.366 76.5692 613.741 76.5723Z"/><path fill="#F7F7F7" d="M276.023 76.5813C314.16 76.9838 352.674 76.1138 390.851 76.5363C407.82 76.724 425.668 76.1739 442.537 76.9533C443.807 114.117 442.689 153.87 442.512 191.311C465.595 191.837 489.62 190.516 513.234 191.042C508.602 192.753 501.906 190.965 496.565 192.9C486.214 196.652 473.521 207.747 462.45 208.387C454.809 208.828 445.951 207.587 438.163 207.932C432.726 208.086 426.901 209.308 421.175 208.626C417.067 208.136 415.84 209.833 412.592 206.535C408.488 208.251 403.5 204.711 400.237 205.133C397.998 205.423 386.244 209.579 384.591 211.631C382.935 213.685 381.183 213.54 378.899 214.119C369.147 208.739 363.444 194.306 357.166 185.324C354.567 181.605 348.683 176.004 346.98 172.216C343.088 163.563 340.168 155.461 335.369 147.124C333.187 143.333 327.313 139.872 325.858 137.183C322.554 141.4 328.655 208.161 325.5 217.239C324.522 220.051 322.944 222.691 320.431 224.049C307.171 231.219 305.031 216.658 304.031 207.129C302.939 204.237 299.112 200.85 296.99 199.325C289.916 194.239 285.674 197.162 280.518 203.068C278.189 205.735 277.257 207.454 276.505 211.015C276.091 212.973 276.663 216.464 276.319 217.919C276.306 215.805 276.57 211.192 275.717 209.635C275.296 165.704 275.88 120.59 276.023 76.5813Z"/><path fill="#CDCDCC" d="M291.595 95.9002L291.809 97.1236C284.435 111.546 291.663 104.466 296.806 111.246C299.867 115.28 297.247 122.116 301.149 128.145C294.321 124.631 300.156 118.609 295.403 111.958L294.387 110.279C293.716 112.333 294.339 111.696 292.9 112.647C290.692 112.361 291.697 112.739 289.829 111.331L289.327 111.772C289.073 113.909 290.748 115.45 290.888 116.857C291.058 118.571 290.995 120.569 291.205 122.611C292.508 123.39 292.945 123.038 293.809 124.205C292.581 124.484 292.419 124.328 291.151 124.164L291.247 125.073L290.99 125.06C289.71 122.656 290.509 120.675 289.913 118.533C287.139 108.562 285.565 105.056 291.595 95.9002Z"/><path fill="#B2B1B1" d="M613.741 76.5723C657.694 75.7119 702.083 76.6596 746.053 77.012C751.132 77.0527 756.063 76.9783 761.143 77.3696C761.692 89.4442 761.499 102.798 761.514 114.936L761.522 180.073L761.623 221.354C761.647 236.878 763.485 256.239 752.516 268.677C742.693 279.815 728.783 279.478 715.172 279.543C711.33 279.418 707.962 279.48 704.114 279.589L427.395 279.918L355.709 279.93C349.213 279.913 342.539 279.983 336.044 279.851C305.75 279.235 291.8 284.038 276.847 254.098C284.074 254.651 298.728 254.057 306.388 253.879C320.251 253.548 334.118 253.405 347.984 253.45C353.525 253.89 358.912 253.19 363.824 253.506C367.604 253.468 370.636 253.466 374.395 253.733L375.316 253.261C387.601 253.576 400.742 253.113 413.351 253.33C422.934 253.489 432.517 253.552 442.101 253.519C445.461 253.521 452.775 253.739 455.903 253.428C490.932 254.348 526.145 251.832 561.193 251.98C572.615 252.028 584.181 251.998 595.577 251.415C598.729 251.644 607.232 251.014 610.721 250.833L612.359 251.156C614.981 251.129 616.007 251.039 618.592 250.601C620.374 250.426 621.549 250.228 623.348 250.449C624.941 250.422 630.03 250.502 631.348 250.37C648.722 250.633 693.799 247.385 707.2 236.366C717.492 231.338 721.574 218.496 723.21 208.113C724.162 201.234 724.505 177.5 723.278 170.91C722.204 169.81 721.782 170.152 719.788 169.943L719.223 169.091C719.425 167.775 719.733 167.748 720.743 166.778C722.148 167.348 721.739 167.308 722.575 169.165C722.583 164.191 724.239 162.317 724.219 156.875C724.172 144.398 725.38 129.924 724.933 117.644C725.455 103.073 725.349 91.5554 724.875 77.0604C696.564 76.7048 668.25 76.7034 639.938 77.0563C633.835 76.8266 627.726 76.8254 621.623 77.0527C618.829 76.9738 616.511 76.8136 613.741 76.5723Z"/><path fill="#7A797A" d="M706.499 271.997C709.127 274.061 713.204 277.037 715.172 279.543C711.33 279.418 707.962 279.48 704.114 279.589C704.884 277.051 705.679 274.52 706.499 271.997Z"/><path fill="#7A797A" d="M618.592 250.601C620.374 250.426 621.549 250.228 623.348 250.449C625.556 250.921 627.007 250.589 626.677 253.313C624.778 254.923 620.744 255.913 618.517 255.546C618.312 254.257 618.516 252.001 618.592 250.601Z"/><path fill="#919191" d="M618.592 250.601C618.516 252.001 618.312 254.257 618.517 255.546C616.532 257.007 616.345 259.954 617.511 262.069L617.044 262.528L616.063 262.27C613.142 258.406 617.383 256.531 615.037 251.734L612.359 251.156C614.981 251.129 616.007 251.039 618.592 250.601Z"/><path fill="#919191" d="M363.824 253.506C367.604 253.468 370.636 253.466 374.395 253.733L372.136 254.399C370.483 256.301 370.939 258.059 369.913 260.849L369.193 260.47C366.627 255.759 368.564 254.736 363.824 253.506Z"/><path fill="#F7F7F7" d="M639.938 77.0563C668.25 76.7034 696.564 76.7048 724.875 77.0604C725.349 91.5554 725.455 103.073 724.933 117.644C724.388 115.311 724.739 113.804 723.802 111.422C716.405 107.694 703.22 121.64 699.505 125.996C694.854 131.451 679.585 142.427 673.503 143.713C666.551 145.182 658.742 129.101 656.926 123.872C647.109 107.329 647.264 100.02 648.142 81.5104C647.194 80.3148 647.016 80.194 646.39 78.7601C646.951 78.0096 646.666 78.423 647.232 77.51C644.511 77.5406 642.623 77.6417 639.938 77.0563Z"/><path fill="#F7F7F7" d="M275.687 223.301L276.425 220.461C276.796 223.908 276.364 232.176 276.678 233.269C278.912 232.679 277.883 232.719 280.044 233.024C286.855 233.986 293.759 230.5 300.239 229.106C303.241 228.461 310.146 229.532 313.281 229.963C316.261 230.532 322.327 229.958 324.804 231.167C332.684 235.013 339.693 241.602 346.647 246.931C347.154 247.32 348.91 251.444 349.295 252.291L352.61 253.024L347.984 253.45C334.118 253.405 320.251 253.548 306.388 253.879C298.728 254.057 284.074 254.651 276.847 254.098C275.332 248.624 275.64 229.42 275.687 223.301Z"/><path fill="#F7F7F7" d="M455.903 253.428C457.498 252.964 462.9 252.959 465.202 252.683C469.762 252.241 473.212 251.427 477.857 250.864C486.303 249.841 495.442 249.166 503.551 246.584C504.031 246.431 503.151 243.376 504.623 241.929C511.218 243.911 512.011 241.616 518.673 240.553C519.741 239.964 521.534 242.854 521.769 242.851C527.759 242.771 532.849 245.432 538.224 247.851C542.171 249.628 542.039 248.963 546.285 249.182C561.416 249.963 565.58 238.154 578.495 251C582.607 250.975 592.037 250.692 595.577 251.415C584.181 251.998 572.615 252.028 561.193 251.98C526.145 251.832 490.932 254.348 455.903 253.428Z"/><path fill="#F7F7F7" d="M600.494 76.6239C604.857 76.5072 609.366 76.5692 613.741 76.5723C616.511 76.8136 618.829 76.9738 621.623 77.0527C616.83 78.1397 611.615 76.6074 607.406 77.7744L607.326 78.2179L608.409 78.7362C605.861 84.0999 608.381 95.2763 608.262 102.059C608.149 108.507 606.186 119.006 604.567 125.627C603.496 130.007 600.79 132.088 600.846 136.913L600.494 137.338C600.067 133.539 600.363 121.366 600.373 117.187L600.494 76.6239Z"/><path fill="#F7F7F7" d="M707.2 236.366C708.341 232.187 708.924 233.326 706.864 228.414C704.069 221.748 699.831 216.905 707.683 211.706C712.014 208.838 715.078 210.978 719.655 211.301C722.975 209.388 720.839 207.039 722.238 204.514C723.089 205.644 723.041 206.683 723.21 208.113C721.574 218.496 717.492 231.338 707.2 236.366Z"/><path fill="#CDCDCC" d="M644.794 227.926L646.946 227.04L646.351 226.071L646.665 227.175L646.151 226.341C648.058 225.8 651.689 226.075 653.576 226.886L654.025 227.736C653.171 229.345 650.231 232.509 648.754 233.575C649.819 234.499 649.203 234.156 650.809 234.269C653.908 231.658 652.675 227.798 658.513 229.181C658.108 230.419 658.34 229.848 657.16 230.877L656.721 230.364C652.159 231.727 653.173 234.722 651.684 235.019C647.118 235.929 645.645 235.503 641.855 239.369C639.153 238.42 641.191 237.129 638.735 237.363C634.585 240.454 635.546 237.066 631.803 238.246C632.192 239.428 632.214 239.256 632.044 240.527C630.511 240.861 629.55 240.473 628.341 239.477L626.665 240.384C626.274 243.541 629.711 244.114 627.467 248.326C627.156 248.91 627.266 248.961 627.39 249.787C629.133 249.838 630.218 249.531 631.348 250.37C630.03 250.502 624.941 250.422 623.348 250.449C621.549 250.228 620.374 250.426 618.592 250.601C616.007 251.039 614.981 251.129 612.359 251.156L610.721 250.833C612.482 250.25 614.305 249.876 616.115 249.463C615.38 246.126 614.566 244.193 616.487 241.214C617.83 239.131 620.812 235.625 623.223 234.993C624.697 235.472 624.245 235.365 625.29 237.107L624.46 237.652C623.617 238.194 623.467 238.356 622.461 238.297L622.157 237.648L623.927 236.701L623.708 235.79L622.818 235.62C621.135 236.962 621.097 237.055 619.996 238.945C620.654 239.623 620.609 239.572 621.344 240.124L621.551 241.585C622.295 241.828 622.97 242.035 623.723 242.246C624.497 243.947 623.929 243.335 625.276 244.325L625.82 244.026L625.678 243.347C625.381 241.882 624.957 240.921 625.561 239.645C627.087 238.769 626.288 238.988 628.051 238.969C629.065 238.736 628.818 239.264 630.281 238.738L630.04 238.447C631.186 237.763 632.03 237.431 632.05 236.088C631.371 235.235 630.722 234.374 630.112 233.47L629.992 233.918L630.008 232.803L630.765 232.275C631.497 234.642 632.963 235.482 635.173 236.271C636.804 236.21 638.853 234.712 639.438 233.21C643.654 232.715 645.43 234.662 647.979 231.671L645.723 232.558L645.188 232.106C645.392 230.813 645.472 230.393 645.424 229.071L645.384 228.13L644.794 227.926Z"/><path fill="#B2B1B1" d="M645.384 228.13C647.557 227.857 649.056 227.424 651.05 228.228L651.573 228.951C650.93 230.24 650.303 230.575 649.177 231.456L647.979 231.671L645.723 232.558L645.188 232.106C645.392 230.813 645.472 230.393 645.424 229.071L645.384 228.13Z"/><path fill="#C3C2C2" d="M628.817 231.445L628.585 232.391C629.19 234.158 629.218 234.661 628.148 236.211L627.683 235.577C627.564 232.117 628.05 226.402 632.07 225.502L632.176 226.805L632.424 225.815L632.102 226.692L633.03 227.416C633.862 226.842 633.88 226.685 634.472 225.857C636.84 226.065 637.192 228.073 639.531 228.373C640.375 227.71 640.806 227.357 641.726 226.814C642.736 227.259 643.726 227.641 644.794 227.926L645.384 228.13L645.424 229.071C645.472 230.393 645.392 230.813 645.188 232.106L645.723 232.558L647.979 231.671C645.43 234.662 643.654 232.715 639.438 233.21C638.853 234.712 636.804 236.21 635.173 236.271C632.963 235.482 631.497 234.642 630.765 232.275L630.008 232.803L628.817 231.445Z"/><path fill="#B2B1B1" d="M628.817 231.445C629.428 230.557 629.991 229.681 630.464 228.712C633.971 227.086 635.612 227.14 638.459 229.701C638.831 230.912 639.12 231.989 639.438 233.21C638.853 234.712 636.804 236.21 635.173 236.271C632.963 235.482 631.497 234.642 630.765 232.275L630.008 232.803L628.817 231.445Z"/><path fill="#C3C2C2" d="M365.198 252.883C364.563 250.04 363.678 244.708 366.071 242.489C369.735 243.096 370.033 249.838 370.292 252.798L375.316 253.261L374.395 253.733C370.636 253.466 367.604 253.468 363.824 253.506C358.912 253.19 353.525 253.89 347.984 253.45L352.61 253.024C356.616 253.246 361.147 253.004 365.198 252.883Z"/><path fill="#D3D3D3" d="M616.115 249.463C610.038 240.498 621.54 233.735 623.442 225.683C623.623 224.917 623.55 225.225 624.311 224.508C624.516 225.412 624.527 226.294 624.534 227.219L625.469 227.205L625.92 227.722C624.844 229.399 624.061 227.437 622.007 229.307L622.059 231.074C622.985 230.731 623.169 230.964 624.146 231.025C624.316 231.194 624.485 231.363 624.655 231.532C623.889 230.725 624.127 231.069 623.744 230.002L624.213 229.677C625.688 230.717 626.404 230.963 625.632 232.641C624.071 232.977 623.58 232.869 622.026 232.753L621.771 233.441C622.813 235.253 622.077 234.232 624.577 234.744C624.749 234.78 626.702 236.983 626.965 237.28C625.909 237.667 626.455 237.636 625.29 237.107C624.245 235.365 624.697 235.472 623.223 234.993C620.812 235.625 617.83 239.131 616.487 241.214C614.566 244.193 615.38 246.126 616.115 249.463Z"/><path fill="#F7F7F7" d="M574.776 191.042C581.552 190.9 592.797 190.559 599.328 191.162C598.307 191.741 597.087 191.179 595.753 191.848C591.11 194.179 585.749 192.338 580.946 191.713C578.772 191.431 577.02 191.479 574.776 191.042Z"/><path fill="#CDCDCC" d="M629.02 118.5C633.586 123.338 631.625 122.277 632.445 128.472C632.827 131.359 629.784 136.288 627.462 137.737L627.186 137.164C630.167 133.509 631.989 124.102 629.397 120.103L628.939 120.513C631.686 129.052 622.211 133.013 621.377 134.736C621.761 135.9 622.04 136.829 622.349 138.014C620.688 140.26 618.948 142.36 618.962 145.199C620.132 146.443 620.565 146.517 622.108 147.17L622.253 146.819C620.983 145.771 620.737 145.854 620.192 144.453C622.53 143.373 621.926 144.803 624.157 143.283L624.343 142.297C622.57 140.63 623.106 140.601 623.494 138.271L623.935 138.048C624.513 139.241 624.293 138.626 623.65 140.52C625.152 142.325 625.447 140.779 627.996 142.497C627.781 144.482 627.666 145.769 627.641 147.759C628.629 145.689 629.206 144.898 629.324 142.673C627.635 140.364 627.385 142.543 624.95 140.166C624.863 138.487 624.563 138.986 625.259 137.951C626.113 139.414 626.107 139.601 627.451 140.696L628.391 140.382C627.957 139.452 627.342 138.983 626.601 138.212L626.968 137.901C628.81 138.674 628.747 138.653 630.261 139.976C631.836 143.869 629.864 147.524 626.729 150.122C625.853 150.848 625.9 149.268 624.551 150.664C626.105 151.503 626.529 151.485 627.541 152.807L626.582 153.042C624.96 152.555 618.631 146.555 616.942 144.968C618.044 143.707 618.048 143.4 618.647 141.857C618.4 140.932 618.016 140.097 617.604 139.234C617.873 135.06 620.213 134.249 622.789 131.255C624.352 129.437 623.416 126.919 623.733 124.341C625.053 126.464 623.7 128.225 625.13 129.602C628.524 126.832 626.413 122.859 629.02 118.5Z"/><path fill="#B2B1B1" d="M627.652 198.807C628.883 199.442 631.605 201.782 632.795 202.788C633.125 204.512 631.855 202.954 630.776 205.456C631.527 206.615 633.017 207.309 634.253 208.059C635.423 207.663 635.444 207.677 636.682 207.59L637.467 208.373C637.844 210.093 637.956 209.479 637.526 211.003C636.721 210.245 636.213 209.821 635.339 209.142L634.862 209.731C634.744 212.247 633.279 215.107 634.82 216.961L635.33 216.704C635.228 214.653 635.098 213.757 635.464 211.767L636.219 211.51C636.269 211.657 636.717 215.884 637.077 216.459C637.542 217.201 634.729 217.46 634.17 219.008L635.393 219.645L634.617 220.068C633.851 222.112 633.832 222.364 632.458 223.991L631.829 223.84C631.061 222.755 630.806 222.239 629.761 221.419L628.53 221.862C627.95 220.531 628.079 218.473 628.845 217.224L629.457 217.281C629.465 218.778 629.38 218.516 629.721 219.93C630.715 218.555 630.233 216.878 629.312 215.976C629.295 214.79 629.281 213.796 629.27 212.994L628.924 212.867C628.194 215.543 627.721 217.971 627.185 220.679C627.312 215.096 626.466 202.4 627.652 198.807Z"/><path fill="#919191" d="M630.229 207.679C633.601 208.985 632.515 211.823 631.703 214.583C629.743 212.571 629.498 210.279 630.229 207.679Z"/><path fill="#D3D3D3" d="M711.349 169.068L711.952 167.528C713.854 166.817 712.929 166.863 714.818 167.248C717.68 169.445 716.092 170.837 717.596 173.257C719.173 173.591 719.157 173.408 720.802 173.072L721.163 173.531C719.508 175.682 718.152 174.056 715.997 173.885C714.879 174.649 712.505 176.279 711.432 177.005C710.778 177.447 706.066 176.26 705.189 177.231C703.971 178.579 703.033 180.677 702.308 182.17C702.223 182.344 697.748 181.596 697.782 181.568C695.267 183.613 694.683 188.165 692.558 190.231L692.849 188.156C691.249 189.431 691.358 190.704 689.672 191.845L689.09 191.107C689.721 188.855 689.948 187.497 691.246 185.512C692.197 185.469 691.708 185.409 692.706 185.749C695.364 183.116 698.136 180.531 700.8 177.958C701.819 176.974 702.144 172.532 705.661 172.183C708.049 176.188 712.82 174.484 715.374 171.407C715.763 169.584 715.934 170.36 715.21 168.95C713.441 168.039 713.921 168.369 711.349 169.068Z"/><path fill="#C3C2C2" d="M705.661 172.183C705.982 171.828 707.106 169.784 707.772 168.932C708.251 165.623 707.59 165.249 706.129 162.044L705.497 162.139C705.116 165.497 699.829 177.35 696.968 179.446L696.37 179.261C699.209 174.726 701.276 170.523 702.705 165.364L703.182 165.716C704.008 163.874 704.443 162.447 706.051 161.295C709.587 162.514 707.167 165.051 709.371 167.432C710.211 168.34 709.455 166.521 710.872 167.693L709.933 169.019L710.03 169.572L709.963 169.565L710.14 169.293C711.017 169.383 710.616 169.47 711.349 169.068C713.921 168.369 713.441 168.039 715.21 168.95C715.934 170.36 715.763 169.584 715.374 171.407C712.82 174.484 708.049 176.188 705.661 172.183Z"/><path fill="#DDDCDC" d="M456.677 233.195C458.632 233.546 464.238 233.942 465.145 235.288C463.726 236.157 462.817 235.995 461.145 236.018C459.206 236.574 457.264 237.305 455.275 237.211L455.517 237.218L455 236.846C455.027 235.482 455.924 234.41 456.677 233.195Z"/><path fill="#C3C2C2" d="M339.763 187.226C344.226 188.253 346.376 196.094 346.486 200.142C345.885 199.517 340.045 188.354 339.763 187.226Z"/><path fill="#D3D3D3" d="M333.468 179.683L334.74 180.252C336.459 182.936 336.776 184.393 336.405 187.578C333.932 185.738 333.151 182.606 333.468 179.683Z"/><path fill="#F7F7F7" d="M221.057 864.7C210.519 847.024 217.032 820.39 234.392 809.569C248.275 800.916 271.04 803.858 287.186 803.746C315.918 803.501 344.651 803.428 373.384 803.526L639.929 804.506C673.636 804.584 707.921 803.047 741.708 803.524C745.866 803.582 768.926 803.15 771.835 803.784C786.516 804.203 799.785 804.344 810.897 815.774C825.626 830.925 826.023 859.22 810.823 874.186C807.641 877.319 801.835 880.263 797.267 880.574C793.129 881.245 785.267 881.045 780.878 881.028L755.459 880.938L664.497 880.929L515.652 880.994L467.761 881.001C461.169 881.002 449.711 881.342 443.418 880.896C430.237 881.201 415.918 880.882 402.593 880.913L319.774 880.929C314.137 881.215 306.386 880.945 300.52 880.98C292.279 881.056 284.038 881.03 275.798 880.902C270.442 881.067 244.439 881.387 240.368 880.554C232.234 880.066 224.908 871.243 221.057 864.7Z"/><path fill="#B2B1B1" d="M771.835 803.784C786.516 804.203 799.785 804.344 810.897 815.774C825.626 830.925 826.023 859.22 810.823 874.186C807.641 877.319 801.835 880.263 797.267 880.574C792.186 880.241 784.765 880.447 779.535 880.445L747.17 880.431L648.151 880.273C648.229 879.791 648.979 875.211 649.035 875.137C650.18 873.613 652.884 871.54 653.391 869.518L652.807 869.07L650.855 870.396C650.783 869.364 650.561 868.387 650.323 867.382C650.863 866.833 654.221 866.92 655.327 866.872C654.101 866.74 653.345 866.668 652.143 866.384L651.302 866.18L657.765 865.895C690.291 864.65 737.86 864.595 765.044 844.539C779.006 834.239 784.341 818.241 771.835 803.784Z"/><path fill="#B2B1B1" d="M636.418 866.464C638.959 866.532 643.233 866.912 645.249 865.526C644.972 863.765 644.721 862.997 645.126 861.242L646.064 860.667C647.9 860.849 647.85 860.78 649.567 861.715C650.794 863.721 650.807 863.844 651.302 866.18L652.143 866.384C653.345 866.668 654.101 866.74 655.327 866.872C654.221 866.92 650.863 866.833 650.323 867.382C650.561 868.387 650.783 869.364 650.855 870.396L652.807 869.07L653.391 869.518C652.884 871.54 650.18 873.613 649.035 875.137C648.979 875.211 648.229 879.791 648.151 880.273L747.17 880.431L779.535 880.445C784.765 880.447 792.186 880.241 797.267 880.574C793.129 881.245 785.267 881.045 780.878 881.028L755.459 880.938L664.497 880.929L515.652 880.994L467.761 881.001C461.169 881.002 449.711 881.342 443.418 880.896C430.237 881.201 415.918 880.882 402.593 880.913L319.774 880.929C314.137 881.215 306.386 880.945 300.52 880.98C300.672 879.524 301.028 878.976 301.637 877.67C300.816 874.529 292.579 869.88 300.797 866.673L304.055 867.21L308.033 867.004C309.981 866.993 311.885 866.967 313.834 867.048C316.382 866.561 335.202 866.999 339.369 867.011L403.137 867.015L574.298 867.091C594.948 867.062 615.953 866.259 636.418 866.464Z"/><path fill="#919191" d="M443.418 880.896C447.807 879.428 476.13 880.502 483.266 880.515C494.251 880.536 640.223 881.167 642.456 879.981C643.038 879.672 643.041 879 643.221 878.416C642.736 876.741 642.451 876.571 642.753 874.984L644.748 873.85L644.917 873.015C644.064 872.119 643.992 872.068 643.37 871.011L644.127 869.794L644.8 869.693L645.049 871.738L645.637 871.772C646.277 869.899 646.73 868.506 647.57 866.722C649.325 865.711 648.899 866.051 651.302 866.18L652.143 866.384C653.345 866.668 654.101 866.74 655.327 866.872C654.221 866.92 650.863 866.833 650.323 867.382C650.561 868.387 650.783 869.364 650.855 870.396L652.807 869.07L653.391 869.518C652.884 871.54 650.18 873.613 649.035 875.137C648.979 875.211 648.229 879.791 648.151 880.273L747.17 880.431L779.535 880.445C784.765 880.447 792.186 880.241 797.267 880.574C793.129 881.245 785.267 881.045 780.878 881.028L755.459 880.938L664.497 880.929L515.652 880.994L467.761 881.001C461.169 881.002 449.711 881.342 443.418 880.896Z"/><path fill="#919191" d="M308.033 867.004C309.981 866.993 311.885 866.967 313.834 867.048C311.548 867.739 309.341 867.431 307.555 868.476L307.249 869.288C307.89 870.277 308.43 871.029 309.136 871.974C309.019 873.563 309.328 872.923 308.287 874.006L305.969 873.81C305.034 875.178 305.372 874.404 305.322 876.356C306.201 878.016 306.324 878.483 307.818 879.682L308.383 879.779C308.474 878.493 308.407 876.745 308.968 875.748C311.03 878.126 308.112 880.145 311.556 880.302C314.512 880.436 316.839 880.297 319.774 880.929C314.137 881.215 306.386 880.945 300.52 880.98C300.672 879.524 301.028 878.976 301.637 877.67C300.816 874.529 292.579 869.88 300.797 866.673L304.055 867.21L308.033 867.004Z"/><path fill="#818080" d="M300.797 866.673L304.055 867.21C304.439 869.29 304.621 871.78 302.932 873.39C300.326 873.227 300.637 868.642 300.797 866.673Z"/><defs><linearGradient id="gradient_0" gradientUnits="userSpaceOnUse" x1="299.9147" y1="872.05017" x2="223.67149" y2="873.93536"><stop offset="0" stop-color="#9D9C9C"/><stop offset="1" stop-color="#BCBCBC"/></linearGradient></defs><path fill="url(#gradient_0)" d="M221.057 864.7C224.096 865.625 227.802 866.73 231.048 866.772C254.032 867.069 277.281 867.296 300.247 866.479C303.464 866.365 304.846 865.982 308.033 867.004L304.055 867.21L300.797 866.673C292.579 869.88 300.816 874.529 301.637 877.67C301.028 878.976 300.672 879.524 300.52 880.98C292.279 881.056 284.038 881.03 275.798 880.902C270.442 881.067 244.439 881.387 240.368 880.554C232.234 880.066 224.908 871.243 221.057 864.7Z"/><path fill="#919191" d="M240.368 880.554C244.007 880.54 256.819 880.87 259.547 879.447C260.751 876.483 261.516 872.634 262.114 869.453L262.816 869.352C265.392 872.515 262.953 879.554 270.204 880.276C272.403 880.494 273.564 880.319 275.798 880.902C270.442 881.067 244.439 881.387 240.368 880.554Z"/><path fill="#D3D3D3" d="M636.418 866.464C638.418 865.794 639.417 865.843 641.677 864.912L641.943 863.993C640.971 862.627 639.781 862.13 638.318 861.276L638.695 860.903L640.023 861.085C641.6 862.207 641.736 862.727 642.752 864.483L643.08 865.059C645.172 863.145 644.628 855.189 650.676 858.267C655.332 860.637 651.329 864.225 657.765 865.895L651.302 866.18C650.807 863.844 650.794 863.721 649.567 861.715C647.85 860.78 647.9 860.849 646.064 860.667L645.126 861.242C644.721 862.997 644.972 863.765 645.249 865.526C643.233 866.912 638.959 866.532 636.418 866.464Z"/><path fill="#CDCDCC" d="M296.948 831.733C300.594 831.467 304.839 830.387 307.465 833.283C309.227 837.765 305.576 845.888 303.851 850.677C302.426 847.125 307.004 843.81 306.373 836.69L306.288 835.904C303.841 838.152 303.697 838.763 300.494 838.376L300.368 838.986L302.732 841.377C300.084 842.719 301.572 846.213 301.481 849.368L300.988 849.541C300.409 843.891 298.602 837.505 298.71 832.182L296.948 831.733Z"/><path fill="#F7F7F7" d="M189.571 946.054L189.414 935.891C189.047 902.698 205.557 903.981 232.212 904.265L261.66 904.475L357.354 904.445L670.868 904.492C674.291 906.227 677.75 905.534 681.324 906.381C703.431 911.622 704.988 927.224 703.869 945.948L697.668 945.933C685.966 946.502 669.811 945.996 657.763 945.991C650.588 946.072 643.412 946.05 636.237 945.925C620.843 946.487 601.825 945.96 586.207 945.966L486.308 945.987L189.571 946.054Z"/><path fill="#C3C2C2" d="M642.854 945.513L645.191 944.667C646.573 942.884 645.771 939.531 646.728 936.892C649.028 930.55 651.421 923.127 652.871 916.525C650.52 914.054 649.982 913.639 646.645 912.754L647.047 912.321C650.541 912.481 651.895 914.061 654.038 916.791C653.801 918.233 653.788 917.88 653.883 919.322C659.23 918.601 657.205 918.801 660.071 915.017C660.374 914.617 664.67 913.834 664.726 913.785C665.833 912.828 666.226 911.967 667.861 911.338L668.33 911.807C665.243 914.662 661.137 914.92 659.677 918.261C657.615 922.975 654.73 919.46 652.085 921.18C652.876 924.227 652.204 923.573 652.286 926.219C653.907 924.628 653.993 924.246 655.05 922.206L655.375 921.567L656.948 923.27C658.8 923.119 660.521 922.71 661.879 924.03L661.284 925.884L662.171 926.272C662.641 924.422 662.791 923.926 663.521 922.172C664.874 924.064 664.253 926.334 662.533 927.816L660.289 927.621C659.96 929.485 659.683 932.193 659.061 933.834L659.034 934.604C659.024 940.742 656.171 940.652 654.373 945.082C655.811 945.568 656.234 945.738 657.763 945.991C650.588 946.072 643.412 946.05 636.237 945.925C638.854 945.538 640.238 945.535 642.854 945.513Z"/><path fill="#B2B1B1" d="M649.768 945.166C649.543 940.727 649.813 930.926 656.279 931.612C657.216 932.432 658.077 933.085 659.061 933.834L659.034 934.604C659.024 940.742 656.171 940.652 654.373 945.082C655.811 945.568 656.234 945.738 657.763 945.991C650.588 946.072 643.412 946.05 636.237 945.925C638.854 945.538 640.238 945.535 642.854 945.513C645.854 945.859 646.868 945.617 649.768 945.166Z"/><path fill="#C3C2C2" d="M654.373 945.082C654.793 942.493 655.268 938.671 656.364 936.311C657.106 934.714 657.513 934.965 659.034 934.604C659.024 940.742 656.171 940.652 654.373 945.082Z"/><path fill="#CDCDCC" d="M659.061 933.834C659.683 932.193 659.96 929.485 660.289 927.621C660.946 930.808 663.012 934.678 662.578 936.268C661.682 936.525 661.146 936.657 660.23 936.825C658.958 939.249 657.254 942.251 656.291 944.754C662.807 945.041 669.458 944.821 675.985 944.798C676.676 944.796 679.618 940.719 680.124 940.036C679.71 941.813 679.457 943.057 678.812 944.755C681.327 944.833 683.446 945.22 685.566 944.054C685.97 943.4 686.389 943.071 686.084 942.525C681.846 934.926 677.853 939.287 681.268 929.999L681.984 929.525C682.667 932.81 680.264 934.697 681.952 936.404C685.08 937.102 683.692 936.399 685.967 938.888C686.628 938.397 686.359 938.652 686.806 938.156C686.986 940.718 686.215 942.696 687.035 944.552C688.877 945.834 694.768 945.555 697.668 945.933C685.966 946.502 669.811 945.996 657.763 945.991C656.234 945.738 655.811 945.568 654.373 945.082C656.171 940.652 659.024 940.742 659.034 934.604L659.061 933.834Z"/><path fill="#F7F7F7" d="M689.488 382.497C685.303 383.552 669.922 382.985 665.009 382.974L622.596 382.808L498.091 382.962L364.197 382.998L320.378 382.994C312.782 382.985 305.107 383.103 297.524 382.828C287.472 382.464 281.952 376.019 281.84 366.19C281.719 355.559 287.547 347.735 298.447 346.853C306.746 346.181 315.234 346.363 323.564 346.348L370.201 346.478L506.128 346.633C544.832 345.835 583.992 347.123 622.737 346.503C628.423 346.412 634.584 346.377 640.234 346.59C657.023 346.327 673.04 346.783 689.826 347.04C706.627 347.144 723.551 346.488 740.287 348.262C744.476 348.9 747.556 349.374 750.806 352.22C756.864 357.527 756.563 372.885 751.151 378.252C745.893 383.468 730.243 382.344 723.139 382.458C711.908 382.639 700.677 382.294 689.488 382.497Z"/><path fill="#B2B1B1" d="M640.234 346.59C657.023 346.327 673.04 346.783 689.826 347.04C706.627 347.144 723.551 346.488 740.287 348.262C744.476 348.9 747.556 349.374 750.806 352.22C756.864 357.527 756.563 372.885 751.151 378.252C745.893 383.468 730.243 382.344 723.139 382.458C711.908 382.639 700.677 382.294 689.488 382.497C697.434 376.827 706.045 367.962 698.779 357.324C693.961 350.269 684.803 348.368 676.771 347.098C674.655 351.639 671.663 355.206 669.331 359.635C667.7 362.732 664.199 366.728 660.512 363.753C658.035 361.755 658.599 360.156 657.884 357.587L657.62 356.655C657.345 355.233 656.916 353.807 656.587 352.361C657.822 351.411 658.761 351.747 660.697 351.673C663.411 350.931 667.514 352.298 668.579 349.795C667.459 347.24 666.368 347.473 663.777 347.098C658.29 347.233 645.385 347.295 640.234 346.59Z"/><path fill="#C3C2C2" d="M663.777 347.098C665.949 346.992 667.395 346.68 669.301 347.651C670.506 349.191 670.259 348.355 670.193 350.205C668.446 353.506 667.642 353.695 664.029 355.022L660.697 351.673C663.411 350.931 667.514 352.298 668.579 349.795C667.459 347.24 666.368 347.473 663.777 347.098Z"/><path fill="#919191" d="M661.273 356.51C663.089 356.772 664.11 356.841 665.85 357.506C666.677 358.918 666.369 358.584 665.935 360.721C664.323 361.443 663.757 361.574 662.263 361.166C661.149 359.676 661.345 358.412 661.273 356.51Z"/><path fill="#CDCDCC" d="M506.128 346.633C544.832 345.835 583.992 347.123 622.737 346.503C628.423 346.412 634.584 346.377 640.234 346.59C645.385 347.295 658.29 347.233 663.777 347.098C666.368 347.473 667.459 347.24 668.579 349.795C667.514 352.298 663.411 350.931 660.697 351.673C658.761 351.747 657.822 351.411 656.587 352.361C656.916 353.807 657.345 355.233 657.62 356.655C656.951 355.833 655.23 353.115 654.555 352.125C652.981 352.428 651.779 352.845 650.273 352.398L650.002 351.717C651.464 351.479 652.427 351.449 653.688 350.662C653.587 348.967 653.494 349.381 652.192 347.753C646.982 347.696 629.912 346.787 624.985 348.818C620.907 350.498 623.24 353.743 615.854 352.117C618.202 351.459 619.364 351.17 620.706 349.088C619.343 346.349 590.685 347.092 586.204 347.1L526.096 347.202C522.919 347.206 507.623 347.544 506.128 346.633Z"/><path fill="#B2B1B1" d="M623.616 351.141C631.769 353.37 626.177 359.029 623.336 362.634C616.77 361.633 622.134 353.934 623.616 351.141Z"/><defs><linearGradient id="gradient_1" gradientUnits="userSpaceOnUse" x1="458.10757" y1="355.04617" x2="441.25781" y2="284.57327"><stop offset="0" stop-color="#DAD9DA"/><stop offset="1" stop-color="#FFFFFD"/></linearGradient></defs><path fill="url(#gradient_1)" d="M313.582 303.803C322.896 303.455 334.444 303.806 343.988 303.815L411.848 303.9L520.731 303.89C547.097 303.804 573.464 303.862 599.829 304.064C595.647 305.519 592.911 303.824 589.088 305.4L588.807 306.282C589.92 307.587 589.835 307.496 591.484 307.999C592.895 307.762 592.969 307.583 594.223 306.828L594.537 307.154L593.607 308.445L589.99 309.022L586.481 309.023L584.491 310.435C581.857 311.353 579.954 311.643 578.814 314.423C576.113 321.005 568.008 320.84 561.682 321.936C565.517 322.663 569.544 321.525 572.185 322.176L572.257 323.976L572.824 324.074C574.061 322.677 575.193 321.121 576.852 320.364L577.664 320.533C578.381 321.636 579.162 326.229 577.862 326.44C573.877 327.09 571.3 326.6 567.192 327.851C551.784 328.451 533.232 327.758 517.726 327.732L438.051 327.963L361.975 327.898C346.212 327.89 329.194 328.18 313.541 327.442L313.455 314.203L313.582 303.803Z"/><path fill="#B2B1B1" d="M313.582 303.803C322.896 303.455 334.444 303.806 343.988 303.815L411.848 303.9L520.731 303.89C547.097 303.804 573.464 303.862 599.829 304.064C595.647 305.519 592.911 303.824 589.088 305.4L588.807 306.282C589.92 307.587 589.835 307.496 591.484 307.999C592.895 307.762 592.969 307.583 594.223 306.828L594.537 307.154L593.607 308.445L589.99 309.022L586.481 309.023C566.166 308.013 544.927 309.308 524.482 309.084C484.235 308.644 444.137 309.107 403.985 312.168C390.408 313.203 375.898 311.979 362.241 312.588C352.529 313.021 342.768 312.942 333.052 313.089C326.663 313.24 320.186 314.053 313.455 314.203L313.582 303.803Z"/><path fill="#B2B1B1" d="M670.868 904.492L773.441 904.946L804.992 904.902C832.301 904.869 849.488 903.547 849.005 937.06C848.954 939.956 848.859 942.851 848.722 945.744L753.453 945.893C737.583 945.891 719.559 945.466 703.869 945.948C704.988 927.224 703.431 911.622 681.324 906.381C677.75 905.534 674.291 906.227 670.868 904.492Z"/><defs><linearGradient id="gradient_2" gradientUnits="userSpaceOnUse" x1="698.17694" y1="293.87143" x2="599.14954" y2="332.34015"><stop offset="0" stop-color="#979696"/><stop offset="1" stop-color="#C0BFBF"/></linearGradient></defs><path fill="url(#gradient_2)" d="M599.829 304.064C613.862 303.711 628.799 304.028 642.935 303.994C661.568 303.821 680.203 303.828 698.836 304.013L704.055 303.976L710.321 304.077C712.512 304.059 714.901 303.987 717.073 304.05L721.432 303.928C723.173 303.976 723.502 303.736 724.839 304.557C725.466 309.863 724.996 321.695 725.018 327.528L699.849 327.567C683.032 327.436 665.928 328.037 649.125 327.635L648.732 327.581C644.947 328.196 628.427 327.951 623.81 327.96L567.192 327.851C571.3 326.6 573.877 327.09 577.862 326.44C579.162 326.229 578.381 321.636 577.664 320.533L576.852 320.364C575.193 321.121 574.061 322.677 572.824 324.074L572.257 323.976L572.185 322.176C569.544 321.525 565.517 322.663 561.682 321.936C568.008 320.84 576.113 321.005 578.814 314.423C579.954 311.643 581.857 311.353 584.491 310.435L586.481 309.023L589.99 309.022L593.607 308.445L594.537 307.154L594.223 306.828C592.969 307.583 592.895 307.762 591.484 307.999C589.835 307.496 589.92 307.587 588.807 306.282L589.088 305.4C592.911 303.824 595.647 305.519 599.829 304.064Z"/><path fill="#EEEEED" d="M593.607 308.445C606.139 308.579 648.299 303.549 656.408 311.4C657.547 312.503 658.264 313.952 658.264 315.559C658.263 318.627 656.463 321.188 654.281 323.172C652.6 324.7 650.842 326.147 649.125 327.635L648.732 327.581C644.947 328.196 628.427 327.951 623.81 327.96L567.192 327.851C571.3 326.6 573.877 327.09 577.862 326.44C579.162 326.229 578.381 321.636 577.664 320.533L576.852 320.364C575.193 321.121 574.061 322.677 572.824 324.074L572.257 323.976L572.185 322.176C569.544 321.525 565.517 322.663 561.682 321.936C568.008 320.84 576.113 321.005 578.814 314.423C579.954 311.643 581.857 311.353 584.491 310.435L586.481 309.023L589.99 309.022L593.607 308.445Z"/><path fill="#D3D3D3" d="M567.192 327.851C571.3 326.6 573.877 327.09 577.862 326.44C579.162 326.229 578.381 321.636 577.664 320.533L576.852 320.364C575.193 321.121 574.061 322.677 572.824 324.074L572.257 323.976L572.185 322.176C569.544 321.525 565.517 322.663 561.682 321.936C568.008 320.84 576.113 321.005 578.814 314.423C579.954 311.643 581.857 311.353 584.491 310.435C583.445 312.726 583.201 313.054 581.542 314.958C580.494 315.956 579.788 317.389 578.686 318.643C578.6 319.758 578.35 319.956 579.087 320.674C580.479 322.033 578.881 326.418 580.416 326.678C584.865 327.431 591.031 327.369 595.533 327.402L630.494 327.316C635.433 327.303 644.214 327.059 648.732 327.581C644.947 328.196 628.427 327.951 623.81 327.96L567.192 327.851Z"/><path fill="#C3C2C2" d="M586.481 309.023L589.99 309.022C587.335 312.28 586.849 316.321 584.154 318.387L583.714 318.288C584.681 317.037 585.556 316.146 585.977 314.635L585.551 314.464C583.72 315.585 583.738 316.025 581.542 314.958C583.201 313.054 583.445 312.726 584.491 310.435L586.481 309.023Z"/><path fill="#B2B1B1" d="M717.073 304.05L721.432 303.928C723.173 303.976 723.502 303.736 724.839 304.557C725.466 309.863 724.996 321.695 725.018 327.528L699.849 327.567C698.725 326.776 699.058 327.127 698.363 325.975C698.399 324.038 699.564 322.72 700.655 321.074L700.932 321.118L702.792 318.514C705.053 316.576 710.441 313.663 711.636 310.455C710.782 308.331 710.151 307.87 711.223 305.834C713.097 304.328 714.652 304.384 717.073 304.05Z"/><path fill="#919191" d="M717.073 304.05L721.432 303.928C720.337 304.735 719.777 304.795 719.732 306.46C719.651 309.413 719.657 312.34 719.24 315.285C707.248 312.778 711.721 318.686 700.932 321.118L702.792 318.514C705.053 316.576 710.441 313.663 711.636 310.455C710.782 308.331 710.151 307.87 711.223 305.834C713.097 304.328 714.652 304.384 717.073 304.05Z"/><path fill="#7A797A" d="M698.836 304.013L704.055 303.976L710.321 304.077C712.512 304.059 714.901 303.987 717.073 304.05C714.652 304.384 713.097 304.328 711.223 305.834C710.151 307.87 710.782 308.331 711.636 310.455C710.441 313.663 705.053 316.576 702.792 318.514L699.817 319.085L699.068 318.406C699.506 315.43 703.568 313.85 703.466 310.334L701.663 308.84C701.705 308.448 702.611 306.354 702.824 305.524C701.664 304.326 700.782 304.485 698.836 304.013Z"/><path fill="#818080" d="M704.055 303.976L710.321 304.077L709.992 304.337C705.022 304.578 708.135 306.661 705.428 308.325C704.283 306.329 704.091 306.191 704.055 303.976Z"/><path fill="#818080" d="M701.663 308.84L703.466 310.334C703.568 313.85 699.506 315.43 699.068 318.406L699.817 319.085L702.792 318.514L700.932 321.118L700.655 321.074C698.479 321.864 698.546 322.982 696.464 321.339C694.148 316.614 698.851 313.453 702.278 310.802L701.663 308.84Z"/><path fill="#818080" fill-opacity="0.80392158" d="M287.403 404.257C295.857 405.808 303.64 405.732 312.199 405.887C311.395 409.673 310.744 412.839 310.229 416.664C303.05 414.06 292.643 409.655 287.403 404.257Z"/></svg>