<?xml version="1.0" encoding="utf-8" ?><svg xmlns="http://www.w3.org/2000/svg" xmlns:xlink="http://www.w3.org/1999/xlink" width="1024" height="1024" viewBox="0 0 1024 1024"><clipPath id="cl_5"><rect x="-0.0029602051" y="9.1552734e-05" width="1024" height="1024"/></clipPath><g clip-path="url(#cl_5)"><path fill="#040D0F" transform="matrix(1.87203 0 0 1.806 -447.418 -411.767)" d="M511.463 248.241C528.588 248.791 543.086 251.057 558.87 258.363C585.359 270.346 605.779 292.661 615.371 320.105C626.541 351.178 623.252 380.678 609.404 409.961C610.045 410.724 610.675 411.497 611.293 412.278C619.109 422.194 618.341 433.865 618.489 445.644C618.735 465.224 617.923 475.699 601.824 488.12C605.472 524.559 620.303 566.445 639.966 597.289C645.628 606.17 652.458 614.826 658.939 623.159C681.344 629.775 692.377 642.119 693.429 665.975C706.24 674.495 710.852 688.714 710.492 703.536C710.083 720.346 713.776 737.162 700.694 750.372C688.596 762.588 675.385 760.935 659.491 760.918L628.901 760.947L509.25 760.989C454.768 761.005 399.8 761.114 345.308 760.49C336.919 760.394 326.571 754.478 321.276 748.221C312.794 738.197 313.212 726.474 313.672 714.15C313.626 692.19 312.86 680.377 330.692 665.724C331.847 642.303 343.328 628.487 366.066 623.218C373.339 614.199 380.384 605.308 386.621 595.523C406.073 565.003 420.301 523.761 424.167 487.768C423.377 487.26 422.604 486.725 421.851 486.164C407.611 475.473 407.144 460.215 407.311 444.053C407.465 429.072 407.365 422.209 416.563 409.971C408.944 397.157 404.786 379.137 403.865 364.396C401.981 335.432 411.719 306.912 430.923 285.148C453.119 260.177 478.901 250.178 511.463 248.241Z"/><path fill="#FEFEFE" transform="matrix(1.87203 0 0 1.806 -447.418 -411.767)" d="M506.309 253.194C524.675 251.568 544.666 256.303 560.97 264.605C585.811 277.38 604.465 299.615 612.729 326.298C621.773 354.826 617.9 383.835 604.256 410.121C605.741 411.994 607.04 413.687 608.296 415.731C610.65 419.578 612.325 423.801 613.248 428.215C614.762 435.683 614.616 457.231 612.752 464.955C610.461 474.442 605.118 480.732 596.878 485.65C603.152 531.116 615.037 569.118 641.311 607.575C645.317 613.439 652.319 623.023 657.223 627.923C679.296 633.224 688.102 647.222 689.15 669.075C707.646 680.507 705.779 697.94 705.954 716.949C706.061 728.444 705.899 738.029 697.239 746.84C693.002 751.113 687.578 754.014 681.67 755.165C675.342 756.353 666.102 756.062 659.447 756.048L631.256 756.033L517.955 756.056L396.75 756.019L365.094 756.076C349.035 756.103 333.388 757.927 323.265 742.595C321.064 739.233 319.561 735.464 318.844 731.51C317.572 724.619 318.045 698.868 319.398 691.5C321.17 681.855 327.001 674.123 335.285 668.773C335.959 645.152 345.589 633.091 368.526 627.681C403.842 586.929 422.855 538.947 429.098 485.598C410.752 472.634 411.886 460.079 411.964 439.393C412.009 427.33 413.732 419.864 422.151 410.815C414.612 395.992 410.214 383.336 408.776 366.589C406.33 338.768 415.127 311.126 433.203 289.836C452.192 267.64 477.401 255.524 506.309 253.194Z"/><path fill="#7CCBBD" transform="matrix(1.87203 0 0 1.806 -447.418 -411.767)" d="M459.445 421.764C441.168 406.035 430.754 382.322 430.673 358.319C430.499 336.139 439.207 314.812 454.856 299.093C470.353 283.733 491.29 275.115 513.11 275.114C534.984 275.245 555.921 284.006 571.369 299.492C586.873 315.342 595.555 336.633 595.557 358.805C595.313 385.473 584.78 403.682 566.381 421.854C571.998 421.863 580.927 421.292 585.859 424.022C588.569 425.654 591.733 431.476 591.673 434.494C591.415 447.636 597.026 466.521 579.135 469.288C576.685 469.78 574.794 469.605 572.306 469.543C577.564 526.554 594.551 583.608 630.086 629.234C634.604 635.034 641.616 644.489 646.962 649.249C663.322 648.632 667.299 655.22 667.423 670.948C667.461 675.057 667.345 679.167 667.076 683.267C683.42 684.15 684.253 694.184 684.086 708.232C684.009 714.728 684.249 721.638 683.83 728.111C681.869 730.977 679.651 733.641 675.962 733.956C667.765 734.655 658.22 734.44 649.99 734.453L596.182 734.484L402.097 734.506C393.657 734.496 347.853 735.69 343.485 732.937C340.733 731.202 340.074 725.561 339.973 722.645C339.682 714.224 338.434 694 344.087 687.759C347.48 684.013 352.312 683.524 357.035 683.148C356.631 663.511 353.834 648.43 379.211 648.451C428.688 591.912 445.202 543.118 453.785 469.484C431.464 469.227 434.172 458.881 433.996 441.253C433.792 420.803 442.897 421.447 459.445 421.764Z"/><path fill="#040D0F" transform="matrix(1.87203 0 0 1.806 -447.418 -411.767)" d="M459.445 421.764C441.168 406.035 430.754 382.322 430.673 358.319C430.499 336.139 439.207 314.812 454.856 299.093C470.353 283.733 491.29 275.115 513.11 275.114C534.984 275.245 555.921 284.006 571.369 299.492C586.873 315.342 595.555 336.633 595.557 358.805C595.313 385.473 584.78 403.682 566.381 421.854C571.998 421.863 580.927 421.292 585.859 424.022C588.569 425.654 591.733 431.476 591.673 434.494C591.415 447.636 597.026 466.521 579.135 469.288C576.207 468.889 573.895 470.348 572.236 467.56C572.567 462.723 579.306 467.499 583.507 462.359C586.667 459.076 586.945 453.992 586.718 449.429C586.299 441.008 588.355 434.822 581.69 428.558C569.232 427.52 547.811 429.106 534.163 429.048C532.096 429.271 529.55 429.27 527.93 430.414C536.278 430.699 571.2 430.968 576.548 432.598C572.423 437.169 569.477 443.2 567.107 445.728C565.703 445.579 564.806 445.176 563.659 446.279C561.622 448.238 560.469 455.308 560.294 458.019C538.196 457.676 514.884 458.062 492.678 458.029L492.498 456.971C489.71 457.808 481.186 457.381 478.152 456.911C477.285 457.412 476.949 457.686 476.011 458.005L471.307 458.061C470.077 455.812 467.022 451.694 465.437 449.434C467.459 444.921 468.798 443.037 468.4 438.116C471.244 436.804 471.986 436.275 474.468 434.496C475.36 432.792 476.205 431.707 476.023 429.842C475.734 429.548 475.445 429.255 475.157 428.962C466.74 427.979 458.124 428.469 449.573 427.981C435.852 427.656 440.931 446.182 439.949 454.761C439.648 457.391 441.241 461.174 443.09 462.946C447.551 467.218 454.913 461.306 453.785 469.484C431.464 469.227 434.172 458.881 433.996 441.253C433.792 420.803 442.897 421.447 459.445 421.764Z"/><path fill="#7CCBBD" transform="matrix(1.87203 0 0 1.806 -447.418 -411.767)" d="M478.152 456.911C484.014 448.793 487.317 446.577 492.498 456.971C489.71 457.808 481.186 457.381 478.152 456.911Z"/><path fill="#253F3E" transform="matrix(1.87203 0 0 1.806 -447.418 -411.767)" d="M527.93 430.414C526.801 430.421 523.002 430.207 522.38 429.551C526.407 428.708 530.065 428.785 534.163 429.048C532.096 429.271 529.55 429.27 527.93 430.414Z"/><path fill="#7CCBBD" transform="matrix(1.87203 0 0 1.806 -447.418 -411.767)" d="M442.569 332.356C451.006 311.747 462.75 296.761 483.754 287.961C502.264 280.27 523.061 280.2 541.622 287.768C559.244 295.07 573.932 309.234 581.176 326.958C582.132 329.339 583.051 331.735 583.932 334.145L583.225 335.127C581.352 332.635 579.624 330.183 577.465 327.934C580.904 338.697 583.748 347.085 584.246 358.496C584.447 363.681 583.77 367.513 582.786 372.581C582.009 377.254 580.685 381.816 579.279 386.336C578.503 387.896 577.696 389.441 577.051 391.059C569.957 404.275 562.272 413.237 549.622 421.475C544.901 421.54 540.18 421.54 535.458 421.476L534.435 420.802C531.643 422.65 525.524 422.062 522.001 422.01C509.465 421.875 496.906 422.229 484.358 421.8L482.771 421.791C482.385 421.755 482 421.718 481.615 421.682C478.482 421.375 475.509 420.152 473.067 418.168C468.515 414.496 467.985 410.496 467.367 405.261C465.841 404.081 458.529 398.767 456.306 398.046C455.369 397.741 456.549 398.9 454.074 398.848C444.395 389.524 438.734 365.717 440.088 352.831L439.817 352.265C438.496 353.228 439.815 354.56 438.105 356.447L437.38 355.855C436.056 350.535 440.281 337.57 442.569 332.356Z"/><path fill="#7CCBBD" transform="matrix(1.87203 0 0 1.806 -447.418 -411.767)" d="M557.492 399.94C561.387 394.683 563.07 389.377 566.815 384.461C569.634 380.761 578.373 373.075 582.786 372.581C582.009 377.254 580.685 381.816 579.279 386.336C578.503 387.896 577.696 389.441 577.051 391.059C569.957 404.275 562.272 413.237 549.622 421.475C544.901 421.54 540.18 421.54 535.458 421.476C537.685 419.684 538.203 419.033 539.699 416.641C540.981 411.26 547.83 406.059 552.048 402.204C554.039 401.521 555.582 400.804 557.492 399.94Z"/><path fill="#6AA79E" transform="matrix(1.87203 0 0 1.806 -447.418 -411.767)" d="M482.771 421.791C479.496 411.968 475.662 406.817 468.105 399.908C467.314 399.184 467.347 398.071 467.393 397.104C470.011 395.981 474.388 399.973 477.026 401.072C483.089 403.597 489.273 405.763 495.448 407.999C497.423 406.98 498.258 406.221 500.279 406.649L500.785 407.235C500.201 409.095 497.2 411.833 495.832 413.667C493.914 416.24 492.492 419.792 488.922 418.346C487.994 416.989 488.062 417.087 488.102 415.431C489.061 413.511 489.498 413 490.832 411.273C490.109 410.237 490.459 410.703 488.743 410.217C484.522 411.387 484.883 417.921 484.358 421.8L482.771 421.791Z"/><path fill="#6AA79E" transform="matrix(1.87203 0 0 1.806 -447.418 -411.767)" d="M584.246 358.496C584.447 363.681 583.77 367.513 582.786 372.581C578.373 373.075 569.634 380.761 566.815 384.461C563.07 389.377 561.387 394.683 557.492 399.94C555.582 400.804 554.039 401.521 552.048 402.204L551.525 400.958C554.249 398.082 556.713 394.969 558.887 391.657C560.497 389.152 562.111 386.781 561.504 383.968C561.731 380.412 563.677 377.501 566.587 375.556C568.564 375.387 570.14 374.201 571.841 373.161C575.601 367.62 576.049 361.406 584.246 358.496Z"/><path fill="#4B7472" transform="matrix(1.87203 0 0 1.806 -447.418 -411.767)" d="M561.504 383.968C561.731 380.412 563.677 377.501 566.587 375.556C568.234 379.425 565.425 383.231 561.504 383.968Z"/><path fill="#6AA79E" transform="matrix(1.87203 0 0 1.806 -447.418 -411.767)" d="M551.525 400.958L552.048 402.204C547.83 406.059 540.981 411.26 539.699 416.641C538.203 419.033 537.685 419.684 535.458 421.476L534.435 420.802C531.643 422.65 525.524 422.062 522.001 422.01C522.179 421.862 522.357 421.714 522.536 421.566C526.011 413.427 535.207 412.293 542.298 408.472C546.179 406.381 548.204 404.359 551.525 400.958Z"/><path fill="#253F3E" transform="matrix(1.87203 0 0 1.806 -447.418 -411.767)" d="M534.435 420.802C535.72 419.453 537.985 416.925 539.699 416.641C538.203 419.033 537.685 419.684 535.458 421.476L534.435 420.802Z"/><path fill="#5C8E89" transform="matrix(1.87203 0 0 1.806 -447.418 -411.767)" d="M442.569 332.356C443.09 334.8 440.966 351.49 440.088 352.831L439.817 352.265C438.496 353.228 439.815 354.56 438.105 356.447L437.38 355.855C436.056 350.535 440.281 337.57 442.569 332.356Z"/><path fill="#040D0F" transform="matrix(1.87203 0 0 1.806 -447.418 -411.767)" d="M445.325 362.873C445.353 360.554 445.436 358.236 445.575 355.921C446.853 337.658 455.234 316.565 469.707 304.944C498.836 281.555 539.632 284.698 563.801 312.942C566.999 314.175 569.894 318.492 571.953 321.239C573.668 324.01 573.983 325.064 574.14 328.337C575.373 335.86 573.054 337.76 569.251 343.793C569.973 358.598 566.738 370.606 556.632 381.624C533.575 406.761 491.618 407.848 466.912 384.68C465.865 383.705 464.838 382.71 463.83 381.695C465.817 379.848 468.218 377.719 470.085 375.813C470.602 373.51 471.605 370.206 471.252 368.014C468.516 365.685 466.005 365.378 464.023 363.073L464.015 361.959C465.939 360.122 466.962 360.117 469.412 360.33L470.218 360.393C470.392 360.409 470.566 360.426 470.739 360.443C474.391 354.279 475.058 349.959 483.788 346.962C485.741 346.292 488.468 347.7 493.036 346.523L493.899 347.113C493.302 348.804 491.338 349.158 491.37 349.402C492.127 355.279 493.845 355.112 492.242 361.285L492.535 362.236C494.359 362.427 494.23 362.454 495.885 361.671C498.853 358.061 495.615 353.416 494.335 349.843C495.285 348.461 496.746 348.217 498.486 346.818C499.8 343.741 498.908 335.065 496.739 332.382L490.782 332.547L487.345 330.686C484.332 335.714 476.492 344.702 469.933 343.112C465.041 341.925 466.222 333.311 464.889 330.545C464.282 329.287 460.976 328.08 459.414 325.245L457.788 324.014L457.187 324.11C457.95 327.623 461.603 332.077 461.084 334.877C458.485 334.104 456.461 331.4 455.175 329.13C454.654 330.74 454.662 334.152 455.376 335.474C458.298 340.886 469.157 339.055 466.442 347.852C465.602 350.575 466.486 351.604 464.343 354.183C462.654 358.514 461.306 359.099 457.521 361.638C453.433 364.234 450.348 363.202 445.325 362.873Z"/><path fill="#6AA79E" transform="matrix(1.87203 0 0 1.806 -447.418 -411.767)" d="M563.801 312.942C566.999 314.175 569.894 318.492 571.953 321.239C573.668 324.01 573.983 325.064 574.14 328.337C575.373 335.86 573.054 337.76 569.251 343.793L568.677 340.524C568.587 338.552 568.605 338.537 568.008 336.671C565.572 337.691 563.483 339.188 561.179 339.221L560.382 338.255C561.03 335.834 564.919 331.03 566.506 328.966C565.191 325.207 564.527 323.162 562.62 319.708C563.281 317.029 563.639 315.757 563.801 312.942Z"/><path fill="#5C8E89" transform="matrix(1.87203 0 0 1.806 -447.418 -411.767)" d="M568.008 336.671C572.094 335.046 567.132 327.223 571.953 321.239C573.668 324.01 573.983 325.064 574.14 328.337C575.373 335.86 573.054 337.76 569.251 343.793L568.677 340.524C568.587 338.552 568.605 338.537 568.008 336.671Z"/><path fill="#6AA79E" transform="matrix(1.87203 0 0 1.806 -447.418 -411.767)" d="M574.14 328.337C575.373 335.86 573.054 337.76 569.251 343.793L568.677 340.524L569.288 338.565L569.88 338.277C572.275 334.044 574.085 332.572 574.14 328.337Z"/><path fill="#6AA79E" transform="matrix(1.87203 0 0 1.806 -447.418 -411.767)" d="M459.414 325.245L466.036 329.797C466.231 333.39 466.144 337.918 468.905 340.548C469.874 341.481 471.181 341.981 472.525 341.932C478.548 341.754 483.894 334.004 486.863 329.406L491.584 331.789L497.941 331.254L499.564 336.426C500.918 337.166 504.79 339.053 505.667 339.867L506.231 339.946C504.761 341.419 501.824 343.877 501.605 345.753L500.669 346.179C498.124 348.679 497.733 349.059 494.335 349.843C495.285 348.461 496.746 348.217 498.486 346.818C499.8 343.741 498.908 335.065 496.739 332.382L490.782 332.547L487.345 330.686C484.332 335.714 476.492 344.702 469.933 343.112C465.041 341.925 466.222 333.311 464.889 330.545C464.282 329.287 460.976 328.08 459.414 325.245Z"/><path fill="#040D0F" transform="matrix(1.87203 0 0 1.806 -447.418 -411.767)" d="M500.669 346.179C500.491 344.094 499.795 341.884 500.059 339.875C502.261 340.273 503.519 340.688 505.667 339.867L506.231 339.946C504.761 341.419 501.824 343.877 501.605 345.753L500.669 346.179Z"/><path fill="#72B4A9" transform="matrix(1.87203 0 0 1.806 -447.418 -411.767)" d="M515.059 326.819C519.218 326.438 522.357 326.554 523.45 321.343C523.684 320.227 523.56 320.39 524.197 319.445L525.317 321.567C521.429 330.892 516.132 339.991 506.202 343.297C504.491 343.867 503.051 344.672 501.605 345.753C501.824 343.877 504.761 341.419 506.231 339.946C510.138 338.739 511.803 337.29 514.402 334.294C514.459 331.649 514.753 329.433 515.059 326.819Z"/><path fill="#5C8E89" transform="matrix(1.87203 0 0 1.806 -447.418 -411.767)" d="M463.401 347.507C462.803 347.192 461.813 346.657 461.427 346.071C456.882 339.157 453.244 336.594 454.166 328.018L454.683 327.739L455.175 329.13C454.654 330.74 454.662 334.152 455.376 335.474C458.298 340.886 469.157 339.055 466.442 347.852C465.602 350.575 466.486 351.604 464.343 354.183L465.334 348.598C464.539 347.967 464.332 347.954 463.401 347.507Z"/><path fill="#132325" transform="matrix(1.87203 0 0 1.806 -447.418 -411.767)" d="M463.401 347.507C463.637 345.75 463.68 344.524 464.431 342.906L465.036 342.851C465.785 344.714 465.648 346.588 465.334 348.598C464.539 347.967 464.332 347.954 463.401 347.507Z"/><path fill="#6AA79E" transform="matrix(1.87203 0 0 1.806 -447.418 -411.767)" d="M530.457 313.086C531.008 310.878 531.478 311.01 529.703 309.331C525.939 305.769 532.458 297.922 534.72 295.085C534.809 302.382 535.658 307.228 531.614 313.466L530.457 313.086Z"/><path fill="#5C8E89" transform="matrix(1.87203 0 0 1.806 -447.418 -411.767)" d="M530.457 313.086L531.614 313.466C529.259 315.743 525.409 318.56 525.317 321.567L524.197 319.445C526.419 317.612 528.175 314.48 530.457 313.086Z"/><path fill="#5C8E89" transform="matrix(1.87203 0 0 1.806 -447.418 -411.767)" d="M524.284 360.987C524.965 360.992 524.654 360.887 525.209 361.324C523.939 362.811 522.741 364.113 521.403 365.54C521.016 368.49 520.82 371.131 520.364 374.187C518.251 373.169 516.309 372.156 514.083 371.406C513.109 372.72 513.118 373.256 511.926 373.491C512.02 371.432 513.771 367.073 514.553 364.891C518.189 363.879 520.861 362.553 524.284 360.987Z"/><path fill="#4B7472" transform="matrix(1.87203 0 0 1.806 -447.418 -411.767)" d="M553.797 339.956C555.471 340.29 556.965 340.869 557.449 342.547C557.199 343.802 556.71 344.046 555.754 344.905L553.703 346.765L554.052 347.83C555.192 348.35 555.621 348.531 556.659 349.215C556.11 350.69 555.201 351.054 553.813 352.242C552.75 353.015 553.311 352.923 552.161 352.806C549.768 350.702 548.416 346.704 547.185 343.705C549.814 341.805 550.943 341.3 553.797 339.956Z"/><path fill="#5C8E89" transform="matrix(1.87203 0 0 1.806 -447.418 -411.767)" d="M501.661 301.111L502.64 301.529L502.15 304.045C502.55 306.198 503.826 307.239 505.314 308.925C502.277 307.735 499.293 306.405 496.081 305.866C494.35 305.575 490.317 305.304 489.162 304.307C491.484 302.803 496.304 304.809 499.751 305.194C501.024 304.078 501.022 302.994 501.661 301.111Z"/><path fill="#4B7472" transform="matrix(1.87203 0 0 1.806 -447.418 -411.767)" d="M527.077 374.473C530.061 375.21 533.555 378.678 533.063 382.002L531.594 381.66C529.786 379.699 527.944 377.011 527.077 374.473Z"/><path fill="#132325" transform="matrix(1.87203 0 0 1.806 -447.418 -411.767)" d="M501.661 301.111C502.397 299.455 503.046 297.543 504.344 296.364C504.605 297.83 503.311 299.971 502.64 301.529L501.661 301.111Z"/><path fill="#040D0F" transform="matrix(1.87203 0 0 1.806 -447.418 -411.767)" d="M445.325 362.873C450.348 363.202 453.433 364.234 457.521 361.638C458.165 363.636 457.809 364.119 460.045 364.543C466.719 366.13 463.444 372.829 460.27 376.279C459.164 377.482 455.961 379.948 455.464 381.137L454.963 382.664C455.006 385.25 455.562 390.877 454.055 392.623L453.424 392.139C452.332 389.775 451.2 387.43 450.028 385.104C447.605 377.713 446.888 372.511 445.703 364.861L445.325 362.873Z"/><path fill="#5C8E89" transform="matrix(1.87203 0 0 1.806 -447.418 -411.767)" d="M450.028 385.104C450.187 383.747 450.225 383.651 450.677 382.354C452.625 380.996 452.722 381.416 455.464 381.137L454.963 382.664C455.006 385.25 455.562 390.877 454.055 392.623L453.424 392.139C452.332 389.775 451.2 387.43 450.028 385.104Z"/><path fill="#132325" transform="matrix(1.87203 0 0 1.806 -447.418 -411.767)" d="M453.424 392.139C453.359 389.385 452.943 385.321 453.989 383.024L454.963 382.664C455.006 385.25 455.562 390.877 454.055 392.623L453.424 392.139Z"/><path fill="#5C8E89" transform="matrix(1.87203 0 0 1.806 -447.418 -411.767)" d="M445.325 362.873C450.348 363.202 453.433 364.234 457.521 361.638C458.165 363.636 457.809 364.119 460.045 364.543C458.568 365.373 457.252 366.098 455.734 366.849C453.48 366.515 446.747 364.892 445.703 364.861L445.325 362.873Z"/><path fill="#335D5C" transform="matrix(1.87203 0 0 1.806 -447.418 -411.767)" d="M579.279 386.336L579.996 386.403C583.126 380.823 583.993 370.902 586.387 365.864C586.434 371.466 582.541 387.791 578.597 391.925L577.673 392.145L577.051 391.059C577.696 389.441 578.503 387.896 579.279 386.336Z"/><path fill="#132325" transform="matrix(1.87203 0 0 1.806 -447.418 -411.767)" d="M585.728 344.699C588.434 347.47 587.591 358.912 587.039 362.678C585.861 361.344 586.512 355.208 586.36 352.998C586.169 350.225 585.998 347.478 585.728 344.699Z"/><path fill="#4B7472" transform="matrix(1.87203 0 0 1.806 -447.418 -411.767)" d="M514.868 437.472L515.305 438.062C514.705 440.123 512.018 441.352 510.25 442.31L509.813 441.74C511.022 439.984 513.086 438.75 514.868 437.472Z"/><path fill="#132325" transform="matrix(1.87203 0 0 1.806 -447.418 -411.767)" d="M583.932 334.145C584.827 336.81 585.529 338.447 585.598 341.299C584.583 340.563 583.649 336.573 583.225 335.127L583.932 334.145Z"/><path fill="#72B4A9" transform="matrix(1.87203 0 0 1.806 -447.418 -411.767)" d="M447.505 439.028C446.877 436.959 446.766 437.576 447.17 435.671C448.469 435.47 464.443 438.024 468.4 438.116C468.798 443.037 467.459 444.921 465.437 449.434C467.022 451.694 470.077 455.812 471.307 458.061C466.607 458.998 453.646 458.535 448.809 457.919C447.866 451.799 447.433 445.611 447.514 439.419L447.505 439.028Z"/><path fill="#040D0F" transform="matrix(1.87203 0 0 1.806 -447.418 -411.767)" d="M447.505 439.028C448.538 439.083 456.317 446.123 457.352 447.249C457.602 447.521 457.846 447.798 458.084 448.081L457.831 447.741L457.35 448.161C452.488 445.392 450.976 443.794 447.514 439.419L447.505 439.028Z"/><path fill="#6AA79E" transform="matrix(1.87203 0 0 1.806 -447.418 -411.767)" d="M576.548 432.598C577.683 433.534 577.906 433.54 578.525 434.83C576.502 438.031 574.702 443.159 573.041 446.753C570.986 451.198 569.252 453.921 566.54 458.048C564.322 458.153 562.498 458.089 560.294 458.019C560.469 455.308 561.622 448.238 563.659 446.279C564.806 445.176 565.703 445.579 567.107 445.728C569.477 443.2 572.423 437.169 576.548 432.598Z"/><path fill="#040D0F" transform="matrix(1.87203 0 0 1.806 -447.418 -411.767)" d="M566.54 458.048C569.252 453.921 570.986 451.198 573.041 446.753C574.702 443.159 576.502 438.031 578.525 434.83C579.041 438.441 580.226 454.2 577.961 457.401C577.164 458.528 568.575 458.076 566.54 458.048Z"/><path fill="#5C8E89" transform="matrix(1.87203 0 0 1.806 -447.418 -411.767)" d="M492.498 456.971L492.678 458.029C487.122 458.086 481.566 458.078 476.011 458.005C476.949 457.686 477.285 457.412 478.152 456.911C481.186 457.381 489.71 457.808 492.498 456.971Z"/><path fill="#040D0F" transform="matrix(1.87203 0 0 1.806 -447.418 -411.767)" d="M474.467 464.663C504.172 464.217 533.884 464.446 563.579 465.35C564.08 470.406 564.642 475.487 564.881 480.558C565.898 489.146 566.93 500.565 569.147 508.624C569.946 511.829 570.258 513.415 570.652 516.707C571.955 522.982 578.308 547.897 580.707 553.587C581.761 555.606 583.428 560.263 583.668 562.496C580.717 566.654 578.624 567.504 574.238 569.857C572.195 576.415 570.315 584.509 568.294 590.532C567.604 590.295 567.186 589.992 566.585 589.592L566.425 589.997C566.438 601.186 561.19 601.758 555.394 610.548C554.259 612.27 553.12 615.674 552.438 617.686C550.519 619.77 547.67 621.798 545.104 622.994C543.659 623.971 544.277 623.318 543.632 625.397C545.72 626.343 547.165 626.856 548.655 628.642C549.772 630.42 550.307 631.23 551.637 632.839L552.178 632.955L552.187 632.243C552.388 622.028 561.678 625.507 562.712 628.931C560.842 631.728 555.675 629.098 554.112 631.495C553.362 632.646 553.458 633.972 552.186 635.216C549.313 640.49 548.822 642.939 547.361 648.792C535.759 648.988 524.155 649.049 512.552 648.976C506.964 648.975 499.033 648.74 493.688 649.201C490.954 649.655 486.553 649.457 483.648 649.421C478.81 649.797 458.064 649.562 453.512 648.985C451.913 648.84 450.774 648.926 449.178 648.974C443.301 649.745 440.761 649.515 434.832 649.049C432.195 648.879 428.823 648.926 426.121 648.895C425.202 647.84 424.603 646.842 423.303 646.529C422.817 647.13 422.534 647.497 422.095 648.149L421.736 648.691C416.575 649.061 410.378 648.84 405.131 648.787L404.19 648.646L393.766 648.83C396.897 644.918 399.316 641.661 402.196 637.577L403.098 636.364C420.386 615.796 439.931 574.61 446.856 548.751L447.197 547.634C450.559 538.779 454.014 522.57 455.991 513.481L456.292 511.424C458.123 499.667 459.974 488.361 460.982 476.508L461.899 465.015L471.934 464.984C472.635 468.988 472.855 469.466 475.657 472.417C475.827 469.959 475.128 467.047 474.467 464.663Z"/><defs><linearGradient id="gradient_0" gradientUnits="userSpaceOnUse" x1="448.25266" y1="478.67999" x2="500.45538" y2="537.09058"><stop offset="0" stop-color="#629692"/><stop offset="1" stop-color="#73B3A8"/></linearGradient></defs><path fill="url(#gradient_0)" transform="matrix(1.87203 0 0 1.806 -447.418 -411.767)" d="M471.934 464.984C472.635 468.988 472.855 469.466 475.657 472.417L475.59 473.758C478.964 476.415 488.194 472.227 489.675 475.966C495.575 487.941 501.656 497.179 498.743 511.85C497.912 516.039 488.855 522.164 487.224 525.758C487.351 526.222 487.477 526.686 487.604 527.15L488.883 528.076C490.413 529.473 490.086 528.679 490.444 530.307C488.267 531.464 487.658 531.316 487.506 534.061L487.629 534.929C486.249 543.576 480.502 542.616 481.351 554.641C479.601 556.204 477.544 558.851 475.741 559.793C474.09 552.119 482.731 532.664 484.195 524.319L484.322 523.559C482.069 524.544 479.63 525.923 477.436 527.088C475.459 526.207 471.545 524.159 469.805 525.697L469.899 526.361L472.514 527.495L472.32 527.968C467.419 529.306 468.317 528.51 466.489 533.031C462.179 531.659 459.802 531.155 455.322 530.343C463.537 523.175 464.753 520.992 455.991 513.481L456.292 511.424C458.123 499.667 459.974 488.361 460.982 476.508L461.899 465.015L471.934 464.984Z"/><path fill="#4B7472" transform="matrix(1.87203 0 0 1.806 -447.418 -411.767)" d="M460.982 476.508C467.045 476.251 472.398 473.976 474.346 481.7C475.006 484.32 475.823 487.131 476.513 489.767L482.069 489.263L484.822 488.097C485.852 489.643 484.526 499.119 484.26 501.591C483.898 504.959 484.351 519.399 482.551 521.199C478.071 522.908 467.82 519.354 464.334 516.143C463.849 514.63 463.992 514.611 464.28 513.005C461.879 512.145 459.451 512.551 456.292 511.424C458.123 499.667 459.974 488.361 460.982 476.508Z"/><path fill="#72B4A9" transform="matrix(1.87203 0 0 1.806 -447.418 -411.767)" d="M482.069 489.263C480.529 489.112 479.094 489.328 478.444 488.055C477.271 485.757 476.312 483.334 476.815 480.816C478.532 481.815 477.738 481.798 479.271 481.536L480.445 479.863L481.489 479.926C483.919 481.978 483.272 485.35 484.822 488.097L482.069 489.263Z"/><path fill="#6AA79E" transform="matrix(1.87203 0 0 1.806 -447.418 -411.767)" d="M488.612 494.543C487.408 492.617 484.994 487.968 486.856 485.951C489.151 487.464 488.353 489.226 490.72 490.536L492.767 489.949C495.521 492.008 495.225 496.594 493.536 499.146C493.499 501.209 493.467 501.362 492.997 503.382L491.853 504.953L490.811 505.037C489.53 503.952 489.369 503.445 488.584 501.993C487.889 499.191 487.669 497.28 488.612 494.543Z"/><path fill="#5C8E89" transform="matrix(1.87203 0 0 1.806 -447.418 -411.767)" d="M488.584 501.993C487.889 499.191 487.669 497.28 488.612 494.543L491.011 497.781C491.681 499.548 492.54 501.584 492.997 503.382L491.853 504.953L490.811 505.037C489.53 503.952 489.369 503.445 488.584 501.993Z"/><path fill="#5C8E89" transform="matrix(1.87203 0 0 1.806 -447.418 -411.767)" d="M488.584 501.993C487.889 499.191 487.669 497.28 488.612 494.543L491.011 497.781L488.584 501.993Z"/><path fill="#5C8E89" transform="matrix(1.87203 0 0 1.806 -447.418 -411.767)" d="M490.72 490.536L492.767 489.949C495.521 492.008 495.225 496.594 493.536 499.146C492.205 496.312 490.617 493.589 490.72 490.536Z"/><path fill="#5C8E89" transform="matrix(1.87203 0 0 1.806 -447.418 -411.767)" d="M474.467 464.663C504.172 464.217 533.884 464.446 563.579 465.35C564.08 470.406 564.642 475.487 564.881 480.558C563.046 481.301 556.849 487.769 554.695 489.651C551.216 487.275 547.653 485.034 543.504 487.119L542.897 486.275L542.836 485.96C541.858 485.035 542.017 485.418 541.54 484.286C545.76 481.733 549.855 479.843 553.587 476.632L554.171 476.122C533.252 475.991 510.351 476.6 489.675 475.966C488.194 472.227 478.964 476.415 475.59 473.758L475.657 472.417C475.827 469.959 475.128 467.047 474.467 464.663Z"/><path fill="#6AA79E" transform="matrix(1.87203 0 0 1.806 -447.418 -411.767)" d="M488.883 528.076L493.096 528.086C496.866 530.592 496.942 528.382 499.965 530.772L500.955 531.519C500.128 534.953 496.6 547.712 501.666 548.47C503.15 547.883 503.296 547.915 504.537 546.84L504.884 547.679C504.288 551.124 506.908 554.966 508.563 558.136C507.247 562.679 506.004 565.283 510.002 568.879L509.689 569.776C504.541 566.229 499.432 562.624 494.365 558.962C494.041 560.784 493.808 563.223 491.8 563.803C489.47 557.23 499.47 540.512 487.629 534.929L487.506 534.061C487.658 531.316 488.267 531.464 490.444 530.307C490.086 528.679 490.413 529.473 488.883 528.076Z"/><path fill="#5C8E89" transform="matrix(1.87203 0 0 1.806 -447.418 -411.767)" d="M488.883 528.076L493.096 528.086C496.866 530.592 496.942 528.382 499.965 530.772C497.91 531.149 495.233 531.973 493.506 531.268C493.351 530.711 493.486 531.083 492.892 530.254L490.444 530.307C490.086 528.679 490.413 529.473 488.883 528.076Z"/><path fill="#040D0F" transform="matrix(1.87203 0 0 1.806 -447.418 -411.767)" d="M490.444 530.307L492.892 530.254C493.486 531.083 493.351 530.711 493.506 531.268C491.175 532.408 489.3 534.15 487.506 534.061C487.658 531.316 488.267 531.464 490.444 530.307Z"/><path fill="#5C8E89" transform="matrix(1.87203 0 0 1.806 -447.418 -411.767)" d="M499.042 553.091C503.757 553.875 503.714 557.942 503.993 561.83C499.215 559.54 497.827 558.198 499.042 553.091Z"/><path fill="#6AA79E" transform="matrix(1.87203 0 0 1.806 -447.418 -411.767)" d="M465.978 643.413C470.504 645.016 472.463 639.911 477.469 640.298L478.382 640.362L480.172 638.221C483.379 638.265 482.205 640.575 486.846 639.724C489.908 639.163 495.079 635.559 497.343 636.023C498.659 637.535 498.372 636.701 498.453 638.524C496.252 643.476 491.237 643.782 491.127 648.233C492.399 649.392 491.643 648.943 493.688 649.201C490.954 649.655 486.553 649.457 483.648 649.421C478.81 649.797 458.064 649.562 453.512 648.985C457.681 647.7 463.605 640.154 467.725 640.461L467.799 641.231L465.978 643.413Z"/><path fill="#72B4A9" transform="matrix(1.87203 0 0 1.806 -447.418 -411.767)" d="M453.512 648.985C457.681 647.7 463.605 640.154 467.725 640.461L467.799 641.231L465.978 643.413C466.335 645.788 465.351 646.918 464.054 649.069C468.732 649.013 479.35 648.669 483.648 649.421C478.81 649.797 458.064 649.562 453.512 648.985Z"/><path fill="#72B4A9" transform="matrix(1.87203 0 0 1.806 -447.418 -411.767)" d="M565.494 578.903C570.335 573.828 570.191 570.326 570.74 563.684C571.265 557.338 573.774 552.745 580.707 553.587C581.761 555.606 583.428 560.263 583.668 562.496C580.717 566.654 578.624 567.504 574.238 569.857C572.195 576.415 570.315 584.509 568.294 590.532C567.604 590.295 567.186 589.992 566.585 589.592L566.425 589.997C565.613 590.84 565.068 591.41 564.178 592.167C564.275 588.099 564.973 582.966 565.494 578.903Z"/><path fill="#6AA79E" transform="matrix(1.87203 0 0 1.806 -447.418 -411.767)" d="M542.897 486.275L543.504 487.119C537.324 491.861 535.573 493.567 532.351 500.766C533.492 502.795 536.464 506.958 533.684 508.621C528.554 508.294 520.068 500.13 517.23 504.469L516.356 503.488C514.387 493.173 536.852 489.871 542.897 486.275Z"/><path fill="#6AA79E" transform="matrix(1.87203 0 0 1.806 -447.418 -411.767)" d="M529.102 627.814C525.372 627.231 524.666 627.093 520.955 627.084C515.922 627.072 505.225 633.069 501.834 631.439C500.492 626.245 506.111 627.214 508.916 627.437C514.372 627.87 522.947 625.057 527.848 622.709C531.216 621.095 534.354 618.331 537.966 616.614C539.614 617.035 539.23 616.582 539.828 617.579C539.209 618.443 538.626 619.192 537.966 620.025C538.592 620.748 543.828 622.515 545.104 622.994C543.659 623.971 544.277 623.318 543.632 625.397L542.985 625.413C541.076 624.877 541.988 624.86 540.15 625.359C539.151 626.495 539.318 626.595 539.185 628.161L539.488 628.364C538.918 629.817 539.207 629.279 537.984 630.424C536.497 632.665 532.792 638.359 530.28 638.7C528.867 635.619 533.593 627.543 535.204 624.486C533.121 625.484 531.114 626.673 529.102 627.814Z"/><path fill="#6AA79E" transform="matrix(1.87203 0 0 1.806 -447.418 -411.767)" d="M514.951 571.897L515.594 572.144C519.676 573.669 521.336 573.325 525.461 574.222C527.005 574.558 529.854 577.166 531.366 577.43C533.185 577.748 533.469 575.857 535.464 576.836C534.609 578.714 531.414 581.887 529.38 582.525C527.028 583.263 524.033 581.976 521.721 581.196C520.723 589.281 517.676 588.909 511.971 594.129C510.414 595.553 508.531 597.708 507.082 599.318C508.412 595.714 509.496 592.774 511.677 589.543C521.678 586.44 522.421 580.873 515.282 573.67L514.951 571.897Z"/><path fill="#72B4A9" transform="matrix(1.87203 0 0 1.806 -447.418 -411.767)" d="M442.018 641.325C444.884 643.761 447.185 648.154 449.178 648.974C443.301 649.745 440.761 649.515 434.832 649.049C433.408 647.111 433.024 646.538 432.02 644.363C435.164 643.377 438.875 642.112 442.018 641.325Z"/><path fill="#4B7472" transform="matrix(1.87203 0 0 1.806 -447.418 -411.767)" d="M493.096 528.086C498.822 527.182 501.906 524.825 505.414 520.238C508.06 521.139 510.902 522.279 513.537 523.282L513.236 524.322C507.289 525.916 504.868 526.534 500.955 531.519L499.965 530.772C496.942 528.382 496.866 530.592 493.096 528.086Z"/><path fill="#6AA79E" transform="matrix(1.87203 0 0 1.806 -447.418 -411.767)" d="M548.655 628.642C549.772 630.42 550.307 631.23 551.637 632.839L552.178 632.955L552.187 632.243C552.388 622.028 561.678 625.507 562.712 628.931C560.842 631.728 555.675 629.098 554.112 631.495C553.362 632.646 553.458 633.972 552.186 635.216C550.317 634.757 548.953 634.497 547.05 634.202C545.756 632.14 545.077 631.908 545.221 629.995L546.582 628.907L548.655 628.642Z"/><path fill="#6AA79E" transform="matrix(1.87203 0 0 1.806 -447.418 -411.767)" d="M569.147 508.624C569.946 511.829 570.258 513.415 570.652 516.707C567.4 517.705 563.995 518.711 561.401 516.164C560.721 511.544 565.431 509.663 569.147 508.624Z"/><path fill="#72B4A9" transform="matrix(1.87203 0 0 1.806 -447.418 -411.767)" d="M517.23 504.469C518.359 514.781 509.205 512.212 508.819 505.664C510.315 502.054 513.145 502.872 516.356 503.488L517.23 504.469Z"/><path fill="#040D0F" transform="matrix(1.87203 0 0 1.806 -447.418 -411.767)" d="M402.196 637.577L404.19 648.646L393.766 648.83C396.897 644.918 399.316 641.661 402.196 637.577Z"/><path fill="#5C8E89" transform="matrix(1.87203 0 0 1.806 -447.418 -411.767)" d="M537.984 630.424C539.207 629.279 538.918 629.817 539.488 628.364L539.185 628.161C539.318 626.595 539.151 626.495 540.15 625.359C541.988 624.86 541.076 624.877 542.985 625.413L543.632 625.397C545.72 626.343 547.165 626.856 548.655 628.642L546.582 628.907L545.221 629.995C545.077 631.908 545.756 632.14 547.05 634.202C543.988 633.361 540.885 631.771 537.984 630.424Z"/><path fill="#5C8E89" transform="matrix(1.87203 0 0 1.806 -447.418 -411.767)" d="M543.632 625.397C545.72 626.343 547.165 626.856 548.655 628.642L546.582 628.907C544.189 627.706 544.038 629.026 542.749 627.602L542.985 625.413L543.632 625.397Z"/><defs><linearGradient id="gradient_1" gradientUnits="userSpaceOnUse" x1="463.03107" y1="555.35004" x2="460.00055" y2="559.53497"><stop offset="0" stop-color="#629089"/><stop offset="1" stop-color="#527A7A"/></linearGradient></defs><path fill="url(#gradient_1)" transform="matrix(1.87203 0 0 1.806 -447.418 -411.767)" d="M453.81 554.357C457.123 555.476 460.155 557.162 463.55 557.981C465.368 558.419 465.527 557.89 466.939 556.877L467.325 557.722C467.545 559.593 467.675 560.522 466.513 561.932C461.588 563.055 456.544 557.907 453.81 554.357Z"/><path fill="#5C8E89" transform="matrix(1.87203 0 0 1.806 -447.418 -411.767)" d="M447.197 547.634C452.234 551.055 463.655 551.577 467.587 555.117C467.817 556.444 467.727 556.406 467.325 557.722L466.939 556.877C466.554 556.256 466.099 555.49 465.385 555.235C458.5 552.768 453.644 551.953 446.856 548.751L447.197 547.634Z"/><path fill="#4B7472" transform="matrix(1.87203 0 0 1.806 -447.418 -411.767)" d="M513.537 523.282C517.054 522.197 518.676 520.004 521.913 518.989L522.344 519.232C520.087 521.426 516.342 523.879 513.236 524.322L513.537 523.282Z"/><path fill="#6AA79E" transform="matrix(1.87203 0 0 1.806 -447.418 -411.767)" d="M403.098 636.364C403.867 640.34 404.858 644.791 405.131 648.787L404.19 648.646L402.196 637.577L403.098 636.364Z"/><path fill="#4B7472" transform="matrix(1.87203 0 0 1.806 -447.418 -411.767)" d="M504.537 546.84C507.103 544.038 509.416 542.258 513.303 542.116C512.955 542.727 506.724 546.039 504.884 547.679L504.537 546.84Z"/><path fill="#5C8E89" transform="matrix(1.87203 0 0 1.806 -447.418 -411.767)" d="M510.002 568.879L514.951 571.897L515.282 573.67L509.689 569.776L510.002 568.879Z"/><path fill="#5C8E89" transform="matrix(1.87203 0 0 1.806 -447.418 -411.767)" d="M541.706 507.805C544.015 509.729 546.183 512.803 549.232 515.308L549.265 515.275L548.716 517.421C549.348 518.374 549.909 519.126 550.601 520.038C550.734 521.393 549.976 522.244 549.24 523.465C551.232 524.722 553.993 526.436 555.872 527.798C556.819 528.484 555.819 530.863 556 533.268C558.917 536.88 564.637 534.445 568.643 536.583C569.928 539.136 568.683 539.834 568.996 540.559C569.963 542.798 570.973 544.027 571.458 546.7L570.83 546.94C568.489 545.835 567.922 545.13 566.027 543.372C563.27 544.603 562.632 544.664 559.741 544.833L558.971 544.874C557.259 545.858 549.224 555.636 547.512 557.9L546.183 549.467C548.241 544.284 551.214 542.955 555.855 540.861L555.914 540.095C551.651 536.58 538.246 532.165 531.925 529.103C537.815 529.805 542.956 532.117 547.972 532.664C547.278 531.321 543.459 529.598 541.877 528.783C541.475 526.143 541.865 524.825 540.381 522.87C539.172 522.028 539.097 521.924 537.643 521.921C533.483 521.913 536.717 519.484 532.016 516.322L532.651 515.389C539.87 514.75 541.604 518.012 541.706 507.805Z"/><path fill="#6AA79E" transform="matrix(1.87203 0 0 1.806 -447.418 -411.767)" d="M463.491 593.13C466.991 593.92 466.592 597.114 473.409 594.624C475.796 593.752 477.931 601.431 479.635 602.74C480.845 603.67 483.042 605.323 484.423 606.536C483.686 606.953 480.95 606.559 479.855 606.478C478.182 604.843 475.633 601.918 473.447 601.853L473.675 603.038C472.669 604.418 469.324 606.161 467.694 607.132C469.158 610.456 470.178 613.017 471.386 616.441C470.133 614.895 468.216 611.884 466.737 610.989C465.814 611.249 465.021 611.508 464.112 611.816C463.386 610.747 463.909 600.401 463.6 597.25C462.959 596.316 462.724 596.001 462.246 594.983L463.491 593.13Z"/><path fill="#5C8E89" transform="matrix(1.87203 0 0 1.806 -447.418 -411.767)" d="M437.207 577.157C442.632 578.627 447.553 587.058 449.897 591.697C453.229 592.882 458.4 593.413 459.942 596.809C454.683 597.153 450.104 597.432 444.817 597.438C441.918 590.057 440.787 585.178 437.207 577.157Z"/><path fill="#5C8E89" transform="matrix(1.87203 0 0 1.806 -447.418 -411.767)" d="M489.449 615.345C492.591 618.3 493.436 618.713 497.525 619.782C492.937 625.26 488.596 625.507 482.055 633.53L481.818 633.687C481.101 632.908 480.893 632.57 480.36 631.67C478.583 631.135 479.121 631.32 476.945 632.191C477.077 630.431 487.212 618.606 489.449 615.345Z"/><path fill="#4B7472" transform="matrix(1.87203 0 0 1.806 -447.418 -411.767)" d="M445.024 621.22L445.703 622.276C445.165 623.846 444.628 625.343 444.199 626.95C447.79 627.84 454.076 629.194 457.384 630.329C456.039 630.84 455.939 630.939 454.531 631.081C450.523 634.05 449.135 633.963 444.27 634.411C443.395 633.147 442.651 631.688 441.328 631.085C440.734 632.206 441.145 631.782 440.147 632.406C435.56 627.88 442.594 625.854 444.773 621.709L445.024 621.22Z"/><path fill="#4B7472" transform="matrix(1.87203 0 0 1.806 -447.418 -411.767)" d="M453.934 569.437C455.589 569.333 456.162 569.198 457.782 569.673C457.299 570.962 457.255 570.909 457.256 572.266C458.714 573.66 459.731 573.561 461.88 574.121C461.434 577.723 461.113 579.31 460.168 582.818C459.331 584.849 459.337 585.296 457.366 586.009L456.295 585.323C454.265 581.736 454.199 573.8 453.934 569.437Z"/><path fill="#4B7472" transform="matrix(1.87203 0 0 1.806 -447.418 -411.767)" d="M526.604 542.627C530.74 544.311 529.623 546.121 533.193 543.215L533.861 543.462L534.111 547.42C535.575 548.476 536.042 548.161 538.169 548.365L538.248 548.961C536.559 550.897 536.331 550.89 533.869 551.885C529.29 552.11 531.448 550.264 527.87 549.884C526.329 551.133 525.562 553.381 524.703 555.248C524.546 550.668 524.027 546.484 526.604 542.627Z"/><path fill="#6AA79E" transform="matrix(1.87203 0 0 1.806 -447.418 -411.767)" d="M510.017 605.908C512.198 604.588 515.036 605.289 516.351 607.473C517.667 609.657 516.959 612.494 514.773 613.805C512.593 615.112 509.766 614.407 508.454 612.23C507.143 610.052 507.842 607.224 510.017 605.908Z"/><path fill="#5C8E89" transform="matrix(1.87203 0 0 1.806 -447.418 -411.767)" d="M467.97 577.698C471.546 578.245 474.011 585.353 474.656 588.539C469.81 587.543 468.001 582.143 467.97 577.698Z"/><path fill="#5C8E89" transform="matrix(1.87203 0 0 1.806 -447.418 -411.767)" d="M426.454 609.961C428.237 611.327 429.477 613.13 430.885 614.906C431.054 618.03 431.643 620.897 429.137 622.937L428.658 622.616L429.418 621.803C428.049 619.116 428.77 620.06 425.599 618.279C427.609 617.878 428.424 618.178 429.369 616.939C429.225 614.921 427.431 612.131 426.454 609.961Z"/><path fill="#4B7472" transform="matrix(1.87203 0 0 1.806 -447.418 -411.767)" d="M504.392 602.561L504.637 602.731L504.46 603.376C500.266 606.407 496.982 607.468 491.748 607.49L491.598 607.419L491.644 607.032C497.419 605.636 498.951 604.97 504.392 602.561Z"/><path fill="#335D5C" transform="matrix(1.87203 0 0 1.806 -447.418 -411.767)" d="M457.384 630.329C459.686 631.091 460.101 631.251 462.112 632.589C459.457 632.607 457.213 631.544 454.531 631.081C455.939 630.939 456.039 630.84 457.384 630.329Z"/><path fill="#253F3E" transform="matrix(1.87203 0 0 1.806 -447.418 -411.767)" d="M445.024 621.22C445.49 619.754 445.624 618.306 446.608 617.586C446.893 619.438 446.321 620.497 445.703 622.276L445.024 621.22Z"/><path fill="#040D0F" transform="matrix(1.87203 0 0 1.806 -447.418 -411.767)" d="M634.524 656.394C636.689 655.654 644.824 655.322 647.285 656.413C649.212 659.497 643.14 664.816 640.879 667.072C638.25 667.219 634.278 667.325 631.822 667.769C630.265 669.655 629.788 670.743 627.78 672.128C623.91 667.823 626.882 670.039 621.64 667.99C617.197 674.889 614.296 679.193 608.278 685.017C593.391 685.119 578.504 685.114 563.617 685.002L559.769 685.052L507.556 685.035C499.018 685.033 486.423 685.366 478.209 684.665L476.074 684.67C473.804 685.201 468.996 685.036 466.429 685.033L464.876 684.993L450.282 685.015L449.454 685.116C441.592 684.325 425.606 686.028 419.266 684.574C418.517 681.303 418.841 682.226 415.708 680.03C413.36 678.861 410.173 676.902 407.826 675.555L404.684 675.749C403.909 678.593 402.845 681.827 402.15 684.564C400.178 684.617 397.286 684.789 395.391 684.716C392.343 685.531 370.007 685.274 366.815 684.822C364.728 676.936 364.935 666.893 368.34 659.402C376.405 655.433 389.024 656.561 398.081 656.583L436.463 656.693C437.25 660.049 437.475 661.094 438.912 664.268L439.727 664.011C441.41 661.584 442.338 659.376 443.59 656.718L523.447 656.533L526.923 656.472L595.501 656.573C607.857 656.591 622.285 656.942 634.524 656.394Z"/><path fill="#72B4A9" transform="matrix(1.87203 0 0 1.806 -447.418 -411.767)" d="M450.663 674.293C452.259 672.808 453.871 671.371 455.342 669.764C463.969 673.264 465.597 674.109 474.618 670.976C468.607 675.971 466.342 676.96 466.429 685.033L464.876 684.993L450.282 685.015L450.571 683.781C451.578 682.796 452.37 682.276 452.614 680.922C451.688 680.432 451.301 680.127 450.439 679.526C449.643 677.843 450.268 676.177 450.663 674.293Z"/><path fill="#5C8E89" transform="matrix(1.87203 0 0 1.806 -447.418 -411.767)" d="M452.614 680.922C455.366 680.358 461.385 679.519 463.58 681.35C464.697 682.282 464.696 683.578 464.876 684.993L450.282 685.015L450.571 683.781C451.578 682.796 452.37 682.276 452.614 680.922Z"/><defs><linearGradient id="gradient_2" gradientUnits="userSpaceOnUse" x1="647.60187" y1="658.98364" x2="624.87665" y2="664.49097"><stop offset="0" stop-color="#4C7977"/><stop offset="1" stop-color="#5E958C"/></linearGradient></defs><path fill="url(#gradient_2)" transform="matrix(1.87203 0 0 1.806 -447.418 -411.767)" d="M634.524 656.394C636.689 655.654 644.824 655.322 647.285 656.413C649.212 659.497 643.14 664.816 640.879 667.072C638.25 667.219 634.278 667.325 631.822 667.769C630.265 669.655 629.788 670.743 627.78 672.128C623.91 667.823 626.882 670.039 621.64 667.99L623.339 665.523C626.81 661.453 629.955 659.867 634.519 657.159L634.524 656.394Z"/><path fill="#6AA79E" transform="matrix(1.87203 0 0 1.806 -447.418 -411.767)" d="M623.339 665.523C625.544 665.717 629.153 665.634 630.852 666.565C631.032 666.798 631.627 667.614 631.822 667.769C630.265 669.655 629.788 670.743 627.78 672.128C623.91 667.823 626.882 670.039 621.64 667.99L623.339 665.523Z"/><path fill="#4B7472" transform="matrix(1.87203 0 0 1.806 -447.418 -411.767)" d="M439.711 684.368C442.99 677.925 438.174 673.885 448.65 672.846C449.64 673.467 449.826 673.505 450.663 674.293C450.268 676.177 449.643 677.843 450.439 679.526C451.301 680.127 451.688 680.432 452.614 680.922C452.37 682.276 451.578 682.796 450.571 683.781L450.282 685.015L449.454 685.116C441.592 684.325 425.606 686.028 419.266 684.574C418.517 681.303 418.841 682.226 415.708 680.03L416.402 679.768C419.182 678.73 426.763 676.074 429.351 677.249C428.79 679.828 423.113 682.682 420.549 684.364C426.935 684.566 433.325 684.567 439.711 684.368Z"/><path fill="#6AA79E" transform="matrix(1.87203 0 0 1.806 -447.418 -411.767)" d="M448.65 672.846C449.64 673.467 449.826 673.505 450.663 674.293C450.268 676.177 449.643 677.843 450.439 679.526C451.301 680.127 451.688 680.432 452.614 680.922C452.37 682.276 451.578 682.796 450.571 683.781L450.282 685.015L449.454 685.116C449.577 682.571 449.72 681.462 449.25 678.897C447.233 677.735 446.412 677.357 445.794 675.232C446.676 673.298 446.222 673.95 448.65 672.846Z"/><path fill="#4B7472" transform="matrix(1.87203 0 0 1.806 -447.418 -411.767)" d="M523.447 656.533L526.923 656.472C525.426 660.049 523.61 660.388 522.278 663.17C522.09 663.562 523.955 664.521 523.95 666.704C522.62 668.407 516.291 673.142 514.114 674.964C511.401 673.669 508.695 672.358 505.997 671.031C509.71 668.224 522.306 659.955 523.447 656.533Z"/><path fill="#4B7472" transform="matrix(1.87203 0 0 1.806 -447.418 -411.767)" d="M557.42 677.283L557.943 677.107C561.527 675.927 562.206 675.592 565.5 673.711L568.282 677.14L563.617 685.002L559.769 685.052C560.228 683.138 560.577 682.194 560.484 680.257C559.905 678.623 558.905 678.244 557.42 677.283Z"/><path fill="#72B4A9" transform="matrix(1.87203 0 0 1.806 -447.418 -411.767)" d="M404.684 675.749C403.809 675.072 403.932 675.168 403.203 674.359C408.39 668.859 401.164 662.914 403.859 659.216L404.768 659.204L405.476 660.114C404.942 664.163 406.668 663.513 408.313 666.587C408.893 667.669 407.84 672.785 407.825 675.03L407.826 675.555L404.684 675.749Z"/><path fill="#72B4A9" transform="matrix(1.87203 0 0 1.806 -447.418 -411.767)" d="M438.912 664.268L439.727 664.011C438.964 665.425 437.883 667.357 437.334 668.842C436.432 671.288 435.024 678.202 433.489 680.056C434.707 674.78 435.334 672.179 433.542 666.901C432.335 667.342 432.054 668.617 431.236 670.117L430.973 669.475C432.145 662.201 435.397 666.429 438.912 664.268Z"/><path fill="#4B7472" transform="matrix(1.87203 0 0 1.806 -447.418 -411.767)" d="M569.459 671.586C571.352 667.827 573.639 669.09 577.793 666.915L578.585 667.199C578.637 670.296 574.4 674.214 571.512 674.559C570.417 673.846 570.626 674.047 569.711 673.118C569.758 672.326 569.679 672.392 569.459 671.586Z"/><path fill="#5C8E89" transform="matrix(1.87203 0 0 1.806 -447.418 -411.767)" d="M389.622 672.225C392.691 676.547 394.361 679.247 395.391 684.716C392.343 685.531 370.007 685.274 366.815 684.822C375.347 684.239 385.518 684.8 394.256 684.555C392.77 680.423 391.225 676.313 389.622 672.225Z"/><path fill="#6AA79E" transform="matrix(1.87203 0 0 1.806 -447.418 -411.767)" d="M476.074 684.67C477.728 680.646 477.778 680.307 481.543 678.315L482.642 678.554C482.635 680.553 481.445 681.5 480.069 682.864C479.455 683.47 478.835 684.071 478.209 684.665L476.074 684.67Z"/><path fill="#4B7472" transform="matrix(1.87203 0 0 1.806 -447.418 -411.767)" d="M569.459 671.586C569.679 672.392 569.758 672.326 569.711 673.118C569.466 673.849 568.576 676.57 568.282 677.14L565.5 673.711C567.13 672.599 567.63 672.387 569.459 671.586Z"/><path fill="#132325" transform="matrix(1.87203 0 0 1.806 -447.418 -411.767)" d="M495.32 665.581L495.626 666.001C494.121 667.322 492.597 667.658 490.692 668.32L490.346 667.892C490.985 666.769 493.754 666.146 495.32 665.581Z"/><path fill="#040D0F" transform="matrix(1.87203 0 0 1.806 -447.418 -411.767)" d="M574.238 569.857C578.624 567.504 580.717 566.654 583.668 562.496C592.38 586.88 601.624 604.651 615.474 626.338C616.328 627.357 617.392 628.33 617.702 629.489C620.178 632.933 630.071 645.716 630.932 648.731C629.827 649.639 628.95 649.334 627.152 649.429C622.553 649.916 593.013 649.518 588.94 648.962C576.534 649.04 564.128 649.027 551.722 648.923C556.202 635.26 563.494 636.502 568.358 629.795C568.684 626.755 565.62 625.637 566.142 620.502L565.439 620.053C562.368 620.865 562.294 620.737 559.314 620.486L558.735 620.43L556.992 620.405C553.86 618.543 557.529 614.314 558.541 611.462L558.016 610.487C555.638 611.85 556.338 614.799 552.438 617.686C553.12 615.674 554.259 612.27 555.394 610.548C561.19 601.758 566.438 601.186 566.425 589.997L566.585 589.592C567.186 589.992 567.604 590.295 568.294 590.532C570.315 584.509 572.195 576.415 574.238 569.857Z"/><path fill="#6AA79E" transform="matrix(1.87203 0 0 1.806 -447.418 -411.767)" d="M615.474 626.338C616.328 627.357 617.392 628.33 617.702 629.489C620.178 632.933 630.071 645.716 630.932 648.731C629.827 649.639 628.95 649.334 627.152 649.429C622.553 649.916 593.013 649.518 588.94 648.962C601.024 642.664 607.492 637.176 615.474 626.338Z"/><path fill="#040D0F" transform="matrix(1.87203 0 0 1.806 -447.418 -411.767)" d="M617.702 629.489C620.178 632.933 630.071 645.716 630.932 648.731C629.827 649.639 628.95 649.334 627.152 649.429C623.747 649.045 618.927 649.141 615.382 649.113C615.472 642.836 616.704 635.73 617.702 629.489Z"/><path fill="#6AA79E" transform="matrix(1.87203 0 0 1.806 -447.418 -411.767)" d="M566.425 589.997L566.585 589.592C567.186 589.992 567.604 590.295 568.294 590.532C566.924 597.183 566.451 599.564 563.869 605.906C562.185 610.043 556.694 616.384 557.038 619.193C557.681 619.701 558.025 620.024 558.735 620.43L556.992 620.405C553.86 618.543 557.529 614.314 558.541 611.462L558.016 610.487C555.638 611.85 556.338 614.799 552.438 617.686C553.12 615.674 554.259 612.27 555.394 610.548C561.19 601.758 566.438 601.186 566.425 589.997Z"/><path fill="#4B7472" transform="matrix(1.87203 0 0 1.806 -447.418 -411.767)" d="M574.405 605.564C569.636 610.941 567.69 613.294 566.142 620.502L565.439 620.053C566.844 610.104 565.355 611.281 574.405 605.564Z"/><path fill="#5C8E89" transform="matrix(1.87203 0 0 1.806 -447.418 -411.767)" d="M591.945 602.833C594.383 604.239 595.944 611.59 594.785 614.323C593.353 615.304 593.887 615.017 591.713 614.811C589.194 613.719 588.477 613.079 586.308 611.474C588.027 607.656 588.962 605.753 591.945 602.833Z"/><path fill="#4B7472" transform="matrix(1.87203 0 0 1.806 -447.418 -411.767)" d="M578.466 629.975C577.093 631.399 577.716 631.273 576.213 631.648C574.194 628.075 579.693 625.977 583.532 626.97C584.176 631.393 582.812 631.954 579.859 635.079C579.487 633.553 579.052 631.368 578.466 629.975Z"/><path fill="#4B7472" transform="matrix(1.87203 0 0 1.806 -447.418 -411.767)" d="M583.532 626.97C584.176 631.393 582.812 631.954 579.859 635.079C579.487 633.553 579.052 631.368 578.466 629.975C580.579 629.864 582.281 628.614 583.532 626.97Z"/><path fill="#4B7472" transform="matrix(1.87203 0 0 1.806 -447.418 -411.767)" d="M587.762 632.06L587.757 632.673C586.373 634.789 583.815 636.988 581.929 638.785L581.781 637.863C583.268 634.956 585.044 633.868 587.762 632.06Z"/><path fill="#040D0F" transform="matrix(1.87203 0 0 1.806 -447.418 -411.767)" d="M402.655 696.814C403.697 694.933 405.492 692.726 407.773 692.648C425.728 692.037 443.981 693.118 461.925 692.438C461.954 694.116 461.593 695.63 462.968 696.543C468.806 700.422 470.184 699.335 474.14 705.479C477.227 713.69 477.447 719.66 476.465 728.482C470.347 728.501 445.148 728.982 437.882 728.02C437.542 727.976 436.808 726.303 436.57 725.786L435.853 725.761C435.55 727.074 435.603 727.128 434.922 728.284C431.544 729.01 427.362 728.442 423.708 728.576C422.923 728.685 421.748 728.551 420.916 728.5L419.509 728.449C415.17 728.719 407.594 728.471 403.051 728.443L400.204 728.412C396.236 728.412 378.018 728.869 375.734 727.47C375.378 725.623 375.628 726.005 376.682 723.876C377.61 721.16 378.29 718.947 379.043 716.171L378.556 715.516L379.57 715.192L380.012 714.081C381.747 713.757 383.128 713.427 384.904 713.419L384.546 714.636C386.614 714.739 386.783 714.667 388.825 714.152C390.188 713.862 390.096 713.877 391.24 713.066C391.843 711.561 391.725 711.453 392.966 710.484C393.108 711.151 393.238 711.23 393.581 711.852L394.472 711.948C399.057 707.971 397.033 702.056 402.655 696.814Z"/><path fill="#132325" transform="matrix(1.87203 0 0 1.806 -447.418 -411.767)" d="M380.012 714.081C381.747 713.757 383.128 713.427 384.904 713.419L384.546 714.636C386.614 714.739 386.783 714.667 388.825 714.152C388.484 715.732 388.258 716.063 388.404 717.645C392.468 720.506 398.221 723.931 400.204 728.412C396.236 728.412 378.018 728.869 375.734 727.47C375.378 725.623 375.628 726.005 376.682 723.876C377.61 721.16 378.29 718.947 379.043 716.171L378.556 715.516L379.57 715.192L380.012 714.081Z"/><path fill="#72B4A9" transform="matrix(1.87203 0 0 1.806 -447.418 -411.767)" d="M380.012 714.081C381.747 713.757 383.128 713.427 384.904 713.419L384.546 714.636C386.614 714.739 386.783 714.667 388.825 714.152C388.484 715.732 388.258 716.063 388.404 717.645C384.226 720.671 381.754 722.576 376.682 723.876C377.61 721.16 378.29 718.947 379.043 716.171L378.556 715.516L379.57 715.192L380.012 714.081Z"/><path fill="#253F3E" transform="matrix(1.87203 0 0 1.806 -447.418 -411.767)" d="M380.012 714.081C381.747 713.757 383.128 713.427 384.904 713.419L384.546 714.636C382.175 715.075 381.167 715.133 379.043 716.171L378.556 715.516L379.57 715.192L380.012 714.081Z"/><path fill="#6AA79E" transform="matrix(1.87203 0 0 1.806 -447.418 -411.767)" d="M392.966 710.484C393.108 711.151 393.238 711.23 393.581 711.852L394.472 711.948C399.057 707.971 397.033 702.056 402.655 696.814C399.091 706.881 395.8 718.478 403.007 728.127L403.051 728.443L400.204 728.412C398.221 723.931 392.468 720.506 388.404 717.645C388.258 716.063 388.484 715.732 388.825 714.152C390.188 713.862 390.096 713.877 391.24 713.066C391.843 711.561 391.725 711.453 392.966 710.484Z"/><path fill="#72B4A9" transform="matrix(1.87203 0 0 1.806 -447.418 -411.767)" d="M420.916 728.5C419.545 727.285 418.306 726.531 417.896 724.821C419.294 722.696 424.311 723.39 426.823 723.419L423.708 728.576C422.923 728.685 421.748 728.551 420.916 728.5Z"/><path fill="#335D5C" transform="matrix(1.87203 0 0 1.806 -447.418 -411.767)" d="M413.049 728.018C412.856 720.822 413.494 720.821 409.582 714.949C415.131 715.235 412.66 724.279 414.404 727.643C414.647 728.111 418.972 728.412 419.509 728.449C415.17 728.719 407.594 728.471 403.051 728.443L403.007 728.127C406.353 727.992 409.701 727.956 413.049 728.018Z"/><path fill="#4B7472" transform="matrix(1.87203 0 0 1.806 -447.418 -411.767)" d="M407.697 698.368C408.98 699.157 412.976 703.592 415.058 705.275C418.338 707.926 421.182 709.554 424.424 712.04C417.139 712.214 410.761 704.303 407.697 698.368Z"/><path fill="#4B7472" transform="matrix(1.87203 0 0 1.806 -447.418 -411.767)" d="M442.803 709.379C442.614 714.203 439.884 718.599 437.624 722.814C437.647 718.565 438.488 716.569 434.377 714.791L426.872 712.595C432.67 712.58 434.993 713.408 440.083 715.552C441.004 713.501 441.91 711.443 442.803 709.379Z"/><path fill="#4B7472" transform="matrix(1.87203 0 0 1.806 -447.418 -411.767)" d="M650.982 692.481C655.291 692.427 662.979 692.111 667.005 692.552C668.952 693.393 673.949 695.314 674.939 697.122C677.044 700.967 678.213 726.027 674.319 727.459C668.475 721.581 666.883 720.192 660.202 727.374L659.759 727.86C656.161 727.873 652.221 727.967 648.658 727.756C647.069 724.548 644.98 721.759 642.929 718.824C641.716 717.562 641.685 717.291 639.972 716.914L638.882 716.067C638.454 713.975 639.052 712.578 639.606 710.493C637.493 712.372 633.702 716.098 631.011 716.539C627.247 717.156 628.009 714.124 625.777 712.356C623.309 712.464 621.512 715.295 617.857 715.627C609.754 716.363 612.289 704.133 612.716 698.505L606.314 697.768C620.663 690.98 635.21 692.513 650.982 692.481Z"/><path fill="#040D0F" transform="matrix(1.87203 0 0 1.806 -447.418 -411.767)" d="M650.982 692.481C655.291 692.427 662.979 692.111 667.005 692.552C668.952 693.393 673.949 695.314 674.939 697.122C677.044 700.967 678.213 726.027 674.319 727.459C668.475 721.581 666.883 720.192 660.202 727.374L659.759 727.86C656.161 727.873 652.221 727.967 648.658 727.756C647.069 724.548 644.98 721.759 642.929 718.824L644.556 715.889C645.475 714.751 645.414 714.616 646.726 714.064L648.152 714.706C648.239 708.467 656.856 707.477 655.472 701.125L655.485 700.516C652.839 697.113 652.726 699.08 650.553 694.479C650.757 694.056 650.888 693.005 650.982 692.481Z"/><path fill="#5C8E89" transform="matrix(1.87203 0 0 1.806 -447.418 -411.767)" d="M650.982 692.481C655.291 692.427 662.979 692.111 667.005 692.552C665.064 694.991 663.439 697.489 665.068 700.663C666.922 701.015 668.396 699.191 669.73 697.958L670.343 698.209C669.452 702.948 665.77 701.077 664.051 704.163C663.239 705.619 666.013 708.485 663.535 710.48C662.578 709.307 662.381 708.941 661.638 707.668C658.441 709.712 659.876 712.858 654.248 716.142C655.262 718.449 656.236 720.616 657.113 722.985C652.466 720.117 651.442 719.117 648.152 714.706C648.239 708.467 656.856 707.477 655.472 701.125L655.485 700.516C652.839 697.113 652.726 699.08 650.553 694.479C650.757 694.056 650.888 693.005 650.982 692.481Z"/><path fill="#6AA79E" transform="matrix(1.87203 0 0 1.806 -447.418 -411.767)" d="M639.972 716.914C641.131 713.543 645.002 705.145 649.531 706.932C648.733 709.459 645.079 711.732 643.832 714.756L644.556 715.889L642.929 718.824C641.716 717.562 641.685 717.291 639.972 716.914Z"/><path fill="#6AA79E" transform="matrix(1.87203 0 0 1.806 -447.418 -411.767)" d="M650.553 694.479C652.726 699.08 652.839 697.113 655.485 700.516L655.472 701.125C653.626 702.061 653.872 702.296 652.116 702.178C649.349 700.22 649.101 697.35 650.553 694.479Z"/><path fill="#6AA79E" transform="matrix(1.87203 0 0 1.806 -447.418 -411.767)" d="M626.228 694.448L626.782 695.059C626.165 697.534 624.702 700.145 623.55 702.474L619.188 699.94C618.452 699.197 618.137 698.788 617.481 697.975C618.107 695.706 622.943 696.567 626.228 694.448Z"/><path fill="#4B7472" transform="matrix(1.87203 0 0 1.806 -447.418 -411.767)" d="M533.515 692.48C557.667 692.395 583.183 691.95 607.251 692.527C601.185 697.001 595.825 701.331 590.185 706.146C587.038 708.832 575.26 713.233 570.892 714.602L566.722 713.293C566.056 714.557 566.287 714.11 566.222 715.696C564.67 717.764 554.819 721.564 550.67 724.355L551.906 716.282C550.102 719.887 547.332 723.11 550.45 726.394L550.24 727.633C548.45 728.549 549.365 728.375 547.409 728.241C546.275 726.201 547.3 725.861 547.058 725.089C545.907 721.407 538.997 717.811 535.737 716.665C533.045 714.752 525.165 704.961 524.842 701.483C524.655 699.473 531.733 695.033 533.515 692.48Z"/><path fill="#6AA79E" transform="matrix(1.87203 0 0 1.806 -447.418 -411.767)" d="M564.327 692.909C566.248 693.783 565.621 693.129 566.631 694.596C566.785 698.985 563.752 705.361 559.967 707.705L557.97 707.365L557.356 706.436C557.393 702.252 561.831 696.264 564.327 692.909Z"/><path fill="#040D0F" transform="matrix(1.87203 0 0 1.806 -447.418 -411.767)" d="M399.126 692.094L399.992 692.719L401.027 692.315C401.416 693.701 401.518 693.084 401.11 694.251L399.255 693.592C396.885 694.959 394.012 703.575 392.855 706.478L393.046 706.872C393.611 706.209 397.502 701.255 397.953 701.197C396.534 704.873 395.874 707.212 392.975 710.126L392.966 710.484C391.725 711.453 391.843 711.561 391.24 713.066C390.096 713.877 390.188 713.862 388.825 714.152C386.783 714.667 386.614 714.739 384.546 714.636L384.904 713.419C383.128 713.427 381.747 713.757 380.012 714.081L379.57 715.192L378.556 715.516C372.521 714.364 373.309 721.865 369.231 724.602C364.838 727.55 360.831 726.392 355.969 725.678C350.976 729.954 347.37 727.692 347.147 721.741C346.864 714.225 345.459 700.251 350.114 694.327L350.179 693.974C352.238 692.544 353.147 692.274 355.495 692.596C359.392 692.72 363.463 691.906 368.405 692.108C378.658 692.008 388.937 692.202 399.126 692.094Z"/><path fill="#040D0F" transform="matrix(1.87203 0 0 1.806 -447.418 -411.767)" d="M399.126 692.094L399.992 692.719L401.027 692.315C401.416 693.701 401.518 693.084 401.11 694.251L399.255 693.592C396.885 694.959 394.012 703.575 392.855 706.478L393.046 706.872C393.611 706.209 397.502 701.255 397.953 701.197C396.534 704.873 395.874 707.212 392.975 710.126L392.966 710.484C391.725 711.453 391.843 711.561 391.24 713.066C390.096 713.877 390.188 713.862 388.825 714.152C386.783 714.667 386.614 714.739 384.546 714.636L384.904 713.419C383.128 713.427 381.747 713.757 380.012 714.081C379.883 710.922 380.137 710.051 380.797 707.067C380.196 703.254 375.741 698.965 372.282 697.456L371.535 697.021C370.285 697.063 369.353 697.027 368.114 696.851L365.46 697.012L365.381 695.989C366.297 695.112 366.89 694.562 367.686 693.574L368.223 692.9L368.405 692.108C378.658 692.008 388.937 692.202 399.126 692.094Z"/><path fill="#5C8E89" transform="matrix(1.87203 0 0 1.806 -447.418 -411.767)" d="M383.959 704.686L384.648 705.444C386.092 706.484 387.428 707.448 388.922 708.414L389.869 708.245L390.693 706.006C391.398 707.6 391.792 709.295 392.975 710.126L392.966 710.484C391.725 711.453 391.843 711.561 391.24 713.066C390.096 713.877 390.188 713.862 388.825 714.152C386.783 714.667 386.614 714.739 384.546 714.636L384.904 713.419C383.128 713.427 381.747 713.757 380.012 714.081C379.883 710.922 380.137 710.051 380.797 707.067L381.037 706.586C382.834 706.486 382.879 705.971 383.959 704.686Z"/><path fill="#6AA79E" transform="matrix(1.87203 0 0 1.806 -447.418 -411.767)" d="M383.959 704.686L384.648 705.444C384.436 707.132 384.26 708.825 384.12 710.521L384.559 711.019L386.216 709.338L386.832 709.621C387.147 711.663 387.214 710.635 386.25 712.765C385.716 713.071 385.469 713.295 384.904 713.419C383.128 713.427 381.747 713.757 380.012 714.081C379.883 710.922 380.137 710.051 380.797 707.067L381.037 706.586C382.834 706.486 382.879 705.971 383.959 704.686Z"/><path fill="#6AA79E" transform="matrix(1.87203 0 0 1.806 -447.418 -411.767)" d="M399.126 692.094L399.992 692.719L401.027 692.315C401.416 693.701 401.518 693.084 401.11 694.251L399.255 693.592C396.885 694.959 394.012 703.575 392.855 706.478L393.046 706.872C393.611 706.209 397.502 701.255 397.953 701.197C396.534 704.873 395.874 707.212 392.975 710.126C391.792 709.295 391.398 707.6 390.693 706.006C392.833 698.726 392.807 695.983 399.126 692.094Z"/><path fill="#5C8E89" transform="matrix(1.87203 0 0 1.806 -447.418 -411.767)" d="M368.114 696.851C370.483 696.329 371.769 696.449 374.146 696.486C377.292 699.163 383.011 702.279 383.959 704.686C382.879 705.971 382.834 706.486 381.037 706.586L380.797 707.067C380.196 703.254 375.741 698.965 372.282 697.456L371.535 697.021C370.285 697.063 369.353 697.027 368.114 696.851Z"/><path fill="#6AA79E" transform="matrix(1.87203 0 0 1.806 -447.418 -411.767)" d="M355.495 692.596C359.392 692.72 363.463 691.906 368.405 692.108L368.223 692.9L367.686 693.574C366.89 694.562 366.297 695.112 365.381 695.989L365.46 697.012L368.114 696.851C369.353 697.027 370.285 697.063 371.535 697.021L372.282 697.456C368.482 699.645 364.787 700.357 361.102 702.492L357.005 704.443C355.445 701.245 358.266 701.769 355.238 698.52C353.26 695.028 353.112 695.95 350.179 693.974C352.238 692.544 353.147 692.274 355.495 692.596Z"/><path fill="#6AA79E" transform="matrix(1.87203 0 0 1.806 -447.418 -411.767)" d="M362.401 693.776L368.223 692.9L367.686 693.574C366.89 694.562 366.297 695.112 365.381 695.989L365.46 697.012C365.125 698.581 365.017 698.401 363.935 699.718C362.562 700.245 363.208 700.296 361.953 699.86C360.94 697.52 361.517 696.389 362.401 693.776Z"/><path fill="#6AA79E" transform="matrix(1.87203 0 0 1.806 -447.418 -411.767)" d="M355.238 698.52C357.192 697.483 357.447 696.914 359.279 697.041C360.394 698.666 360.205 700.23 361.102 702.492L357.005 704.443C355.445 701.245 358.266 701.769 355.238 698.52Z"/><path fill="#132325" transform="matrix(1.87203 0 0 1.806 -447.418 -411.767)" d="M355.495 692.596C359.392 692.72 363.463 691.906 368.405 692.108L368.223 692.9L362.401 693.776C359.397 694.925 357.948 694.287 355.495 692.596Z"/><path fill="#5C8E89" transform="matrix(1.87203 0 0 1.806 -447.418 -411.767)" d="M350.179 693.974C353.112 695.95 353.26 695.028 355.238 698.52C358.266 701.769 355.445 701.245 357.005 704.443C355.642 705.206 354.073 705.52 352.521 705.341C350.71 705.145 349.154 704.812 348.041 703.351C347.881 701.503 350.021 698.756 351.128 696.801L350.114 694.327L350.179 693.974Z"/><path fill="#040D0F" transform="matrix(1.87203 0 0 1.806 -447.418 -411.767)" d="M526.817 693.052C528.953 692.967 531.364 692.682 533.515 692.48C531.733 695.033 524.655 699.473 524.842 701.483C525.165 704.961 533.045 714.752 535.737 716.665C537.246 720.152 536.67 722.224 537.665 725.962C539.023 726.677 539.259 726.599 540.17 727.74C536 728.654 524.619 728.403 519.632 728.411C508.02 728.467 496.408 728.439 484.796 728.325C488.267 722.085 494.166 715.584 502.023 717.658C507.011 714.895 522.948 697.752 526.817 693.052Z"/><path fill="#4B7472" transform="matrix(1.87203 0 0 1.806 -447.418 -411.767)" d="M461.925 692.438C465.13 691.951 467.826 692.024 471.032 692.542L473.864 692.421L522.635 692.5C511.787 704.216 517.161 704.141 500.601 710.889C499.137 712.252 497.761 713.82 495.909 714.455C493.758 713.89 494.014 713.629 493.451 711.276L491.989 711.086C490.08 712.067 489.626 712.537 487.673 711.868C486.324 710.086 485.307 707.011 484.452 704.844L482.998 706.325C482.239 706.887 481.781 707.132 480.965 707.609C477.671 707.618 477.791 704.638 474.14 705.479C470.184 699.335 468.806 700.422 462.968 696.543C461.593 695.63 461.954 694.116 461.925 692.438Z"/><path fill="#6AA79E" transform="matrix(1.87203 0 0 1.806 -447.418 -411.767)" d="M461.925 692.438C465.13 691.951 467.826 692.024 471.032 692.542L473.864 692.421L477.636 697.27C480.044 697.34 482.034 697.42 484.446 697.644C484.526 700.159 484.642 702.323 484.452 704.844L482.998 706.325C482.239 706.887 481.781 707.132 480.965 707.609C477.671 707.618 477.791 704.638 474.14 705.479C470.184 699.335 468.806 700.422 462.968 696.543C461.593 695.63 461.954 694.116 461.925 692.438Z"/><path fill="#72B4A9" transform="matrix(1.87203 0 0 1.806 -447.418 -411.767)" d="M471.032 692.542L473.864 692.421L477.636 697.27C480.044 697.34 482.034 697.42 484.446 697.644C484.526 700.159 484.642 702.323 484.452 704.844L482.998 706.325C479.407 700.07 477.866 697.939 470.317 697.387L469.373 697.324L469.131 696.513C470.061 695.948 470.885 695.514 471.843 695.006L472.129 693.969L471.032 692.542Z"/><path fill="#5C8E89" transform="matrix(1.87203 0 0 1.806 -447.418 -411.767)" d="M493.451 711.276C495.832 711.109 498.216 710.979 500.601 710.889C499.137 712.252 497.761 713.82 495.909 714.455C493.758 713.89 494.014 713.629 493.451 711.276Z"/><path fill="#040D0F" transform="matrix(1.87203 0 0 1.806 -447.418 -411.767)" d="M588.881 712.318C592.285 709.404 601.352 699.404 605.461 700.2C606.839 702.343 607.253 706.89 608.168 709.665C609.182 711.319 609.572 711.719 609.837 713.673L609 714.525C607.822 713.067 608.541 713.398 607.025 713.009L606.013 713.931C608.652 722.871 613.212 717.188 612.478 726.917L612.04 727.939C600.474 727.916 588.908 727.954 577.342 728.053C575.597 728.276 574.269 728.715 572.84 727.85C573.003 724.142 581.682 721.106 583.082 716.553C575.866 714.519 573.852 720.145 569.5 723.614C567.847 724.209 567.979 724.843 566.628 724.709L566.526 723.442C571.056 721.289 572.7 717.874 576.601 716.094C580.139 714.48 585.192 714.669 588.881 712.318Z"/><path fill="#132325" transform="matrix(1.87203 0 0 1.806 -447.418 -411.767)" d="M588.881 712.318C592.285 709.404 601.352 699.404 605.461 700.2C606.839 702.343 607.253 706.89 608.168 709.665C605.066 711 593.846 713.52 589.971 713.517C589.462 713.516 589.225 712.86 588.881 712.318Z"/><path fill="#5C8E89" transform="matrix(1.87203 0 0 1.806 -447.418 -411.767)" d="M608.168 709.665C609.182 711.319 609.572 711.719 609.837 713.673L609 714.525C607.822 713.067 608.541 713.398 607.025 713.009L606.013 713.931L605.705 712.788C604.086 711.973 599.126 712.639 597.306 713.196C590.355 715.326 593.242 719.721 586.694 720.357C584.68 718.861 584.527 718.709 583.082 716.553C575.866 714.519 573.852 720.145 569.5 723.614C567.847 724.209 567.979 724.843 566.628 724.709L566.526 723.442C571.056 721.289 572.7 717.874 576.601 716.094C580.139 714.48 585.192 714.669 588.881 712.318C589.225 712.86 589.462 713.516 589.971 713.517C593.846 713.52 605.066 711 608.168 709.665Z"/><path fill="#5C8E89" transform="matrix(1.87203 0 0 1.806 -447.418 -411.767)" d="M583.082 716.553C584.527 718.709 584.68 718.861 586.694 720.357C585.875 721.157 585.486 721.563 584.565 722.232C583.814 722.076 584.156 722.167 583.535 721.976C579.813 723.713 579.563 724.79 577.342 728.053C575.597 728.276 574.269 728.715 572.84 727.85C573.003 724.142 581.682 721.106 583.082 716.553Z"/><path fill="#040D0F" transform="matrix(1.87203 0 0 1.806 -447.418 -411.767)" d="M630.648 672.667C633.72 671.836 638.936 670.832 641.626 669.81C645.497 668.339 650.91 660.965 655.099 661.02C658.508 663.39 657.649 668.552 658.005 672.47C658.434 677.186 658.092 684.936 651.548 685.187C644.845 685.444 637.918 684.956 631.072 685.022C629.8 679.713 629.911 677.981 630.648 672.667Z"/><path fill="#4B7472" transform="matrix(1.87203 0 0 1.806 -447.418 -411.767)" d="M606.013 713.931L607.025 713.009C608.541 713.398 607.822 713.067 609 714.525L608.71 715.654C614.968 720.186 628.303 718.644 631.198 720.284C631.278 720.833 631.405 721.498 631.421 722.036L631.79 723.218C635.832 724.862 637.219 722.202 639.286 723.475C640.553 730.199 629.428 727.364 625.678 728.003C625.203 727.979 624.729 727.955 624.254 727.931L616.692 728.065L612.04 727.939L612.478 726.917C613.212 717.188 608.652 722.871 606.013 713.931Z"/><path fill="#6AA79E" transform="matrix(1.87203 0 0 1.806 -447.418 -411.767)" d="M631.421 722.036L631.79 723.218C635.832 724.862 637.219 722.202 639.286 723.475C640.553 730.199 629.428 727.364 625.678 728.003C625.203 727.979 624.729 727.955 624.254 727.931C626.145 727.79 626.95 727.778 628.754 727.285C630.427 726.027 630.724 724.132 631.421 722.036Z"/><path fill="#72B4A9" transform="matrix(1.87203 0 0 1.806 -447.418 -411.767)" d="M612.478 726.917C614.429 723.298 614.158 726.609 614.765 723.95L613.021 723.386L612.767 722.776C613.9 721.581 613.811 721.449 615.369 721.091C617.877 722.995 617.453 725.378 616.692 728.065L612.04 727.939L612.478 726.917Z"/><path fill="#4B7472" transform="matrix(1.87203 0 0 1.806 -447.418 -411.767)" d="M621.64 667.99C626.882 670.039 623.91 667.823 627.78 672.128C623.524 670.951 626.873 669.398 621.736 669.806C619.458 673.341 617.298 676.353 614.81 679.752C615.321 681.711 615.149 682.711 616.409 683.535C619.681 681.447 620.78 676.111 625.991 673.334L626.671 673.655C627.974 673.277 629.326 672.982 630.648 672.667C629.911 677.981 629.8 679.713 631.072 685.022C626.402 685.009 621.733 684.973 617.063 684.913C614.788 684.795 611.4 685.163 608.278 685.017C614.296 679.193 617.197 674.889 621.64 667.99Z"/><path fill="#6AA79E" transform="matrix(1.87203 0 0 1.806 -447.418 -411.767)" d="M621.64 667.99C626.882 670.039 623.91 667.823 627.78 672.128C623.524 670.951 626.873 669.398 621.736 669.806C619.458 673.341 617.298 676.353 614.81 679.752C615.321 681.711 615.149 682.711 616.409 683.535C619.681 681.447 620.78 676.111 625.991 673.334L626.671 673.655C624.526 675.735 617.807 682.34 617.063 684.913C614.788 684.795 611.4 685.163 608.278 685.017C614.296 679.193 617.197 674.889 621.64 667.99Z"/><path fill="#6AA79E" transform="matrix(1.87203 0 0 1.806 -447.418 -411.767)" d="M566.526 723.442L566.628 724.709C567.979 724.843 567.847 724.209 569.5 723.614C568.295 724.785 567.013 726.59 565.968 727.956C563.266 728.148 559.445 728.817 557.372 727.151L557.688 726.268C560.202 724.577 563.429 724.192 566.526 723.442Z"/></g></svg>