<?xml version="1.0" encoding="utf-8" ?><svg xmlns="http://www.w3.org/2000/svg" xmlns:xlink="http://www.w3.org/1999/xlink" width="1024" height="1024" viewBox="0 0 1024 1024"><clipPath id="cl_6"><rect x="-0.00098609924" y="-0.00023651123" width="1024" height="1024"/></clipPath><g clip-path="url(#cl_6)"><path fill="#FBF2F1" transform="matrix(1.06004 0 0 1.09636 -30.7422 -49.3364)" d="M513.203 56.2575C545.56 56.8858 570.22 62.4703 599.486 75.5965C686.278 114.523 729.655 214.821 700.275 305.062C696.654 316.183 691.23 326.023 686.364 336.578C704.62 356.92 703.101 372.439 702.898 398.434C702.923 413.52 704.032 425.934 698.78 440.444C692.673 457.313 685.517 461.442 672.693 471.972C674.198 485.307 677.691 502.406 680.739 515.484C694.768 575.687 720.074 635.948 758.78 684.535C762.558 689.277 772.93 702.693 776.83 706.092C799.223 711.559 816.845 721.8 828.519 742.306C835.504 754.576 838.158 765.556 837.89 779.576C864.073 798.366 868.385 817.875 868.577 848.207L868.771 875.075C868.789 895.609 865.729 910.604 850.903 925.858C830.434 946.918 807.409 944.543 780.659 944.557L724.929 944.624L512.482 945.014L312.296 944.524L251.286 944.449C220.516 944.455 188.603 947.839 166.914 920.629C150.964 900.618 154.256 884.685 153.964 861.371C153.487 823.367 154.126 803.899 184.972 778.847C184.685 763.681 189.263 748.821 198.035 736.446C211.063 718.144 226.242 709.987 247.794 706.322C252.595 701.601 261.762 689.756 266.134 684.329C301.643 640.261 326.544 586.613 341.069 532.067C345.748 514.495 351.426 489.314 353.068 470.972C323.917 452.976 322.38 425.827 322.587 394.621C322.776 366.333 322.49 359.138 339.9 336.014C305.377 279.934 309.617 201.037 344.729 146.376C351.615 135.655 361.006 124.645 369.896 115.519C398.847 86.1274 436.206 66.4432 476.818 59.1817C489.705 56.9672 500.204 56.4443 513.203 56.2575Z"/><path transform="matrix(1.06004 0 0 1.09636 -30.7422 -49.3364)" d="M501.727 64.7064C537.559 61.6117 579.106 72.3326 610.07 90.1391C652.432 114.392 683.283 154.638 695.698 201.846C707.423 245.834 700.137 297.198 677.284 336.531C681.113 341.22 684.455 345.474 687.339 350.812C690.381 356.401 692.559 362.418 693.799 368.659C695.778 379.141 694.652 389.048 695.011 399.471C696.006 428.297 691.99 452.422 664.288 467.216C665.044 477.333 667.542 490.734 669.398 500.855C681.483 567.94 708.899 631.328 749.51 686.076C755.899 694.566 763.034 703.757 770.285 711.564C773.559 715.089 783.102 716.36 788.222 718.606C796.212 722.11 803.242 725.893 809.43 732.202C824.936 748.01 829.766 763.732 830.047 785.308C844.382 792.673 854.76 807.671 858.214 823.199C860.225 832.238 860.078 841.095 860.165 850.275L860.436 875.567C860.516 893.091 857.687 906.79 845.038 919.667C826.621 938.414 801.696 935.914 777.863 935.902L722.964 935.92L520.75 935.953L303.892 935.9L248.909 935.922C221.352 935.928 193.001 939.81 173.708 915.495C172.084 913.447 170.684 911.33 169.396 909.057C166.326 903.703 164.22 897.852 163.175 891.769C161.445 881.163 162.149 843.193 163.294 831.736C163.685 827.958 164.393 824.22 165.411 820.561C169.721 805.217 179.101 792.859 192.971 785.018C193.752 769.646 194.842 758.121 203.266 744.591C211.151 731.843 223.237 722.244 237.44 717.451C241.898 715.971 248.008 714.797 252.755 713.681C258.084 708.821 273.993 688.196 278.613 682.146C325.668 620.521 353.074 543.84 362.153 467.023C356.841 464.085 351.996 460.371 347.778 456.005C332.453 440.119 331.377 423.604 331.431 402.728C331.499 376.481 328.945 357.629 349.668 337.87C335.102 310.394 327.238 287.965 325.11 256.544C322.234 209.935 337.93 164.084 368.765 129.014C402.826 90.0124 450.376 68.1815 501.727 64.7064Z"/><path fill="#843642" transform="matrix(1.06004 0 0 1.09636 -30.7422 -49.3364)" d="M416.737 356.865C413.292 354.062 409.377 350.251 406.236 347.039C379.196 319.722 364.308 282.66 364.935 244.23C365.369 207.151 380.461 171.752 406.914 145.766C435.831 117.617 474.752 102.118 515.104 102.683C553.992 103.355 594.282 119.7 621.237 147.964C647.838 175.492 662.373 212.484 661.629 250.757C660.433 296.396 640.787 326.935 609.18 357C621.213 356.933 639.723 355.066 648.648 364.426C658.145 374.387 654.604 395.545 655.192 408.446C656.441 435.86 642.855 439.482 619.848 438.932C620.993 457.361 625.894 483.256 629.148 501.507C643.564 582.355 675.375 657.504 727.926 720.996C733.544 727.783 744.762 742.621 751.158 748.268C752.124 749.117 753.115 749.939 754.128 750.732C764.576 750.598 773.679 749.43 781.905 757.44C791.816 767.09 791.084 784.088 790.924 797.119C790.86 801.337 790.712 805.554 790.48 809.767C799.752 810.394 806.853 810.797 813.794 818.333C816.551 821.327 818.921 826.39 819.663 830.501C821.594 841.201 820.764 853.327 820.999 864.252C821.126 870.174 821.031 876.646 820.9 882.513C820.808 886.645 818.619 891.454 815.351 894.032C811.226 897.286 806.815 897.853 801.728 898.03C784.558 898.626 767.304 898.473 750.12 898.471L670.365 898.522L410.47 898.633L272.371 898.485L236.768 898.3C226.743 898.304 203.258 900.882 202.296 887.157C201.073 869.695 201.292 848.934 202.498 831.348C202.965 824.527 207.517 818.391 212.814 814.594C218.565 810.498 225.65 810.131 232.442 809.6C231.626 795.028 229.564 769.459 240.051 758.732C249.552 749.015 259.966 749.727 272.263 749.373C283.347 738.614 297.917 718.664 307.744 706.381C357.873 643.728 386.132 569.016 399.278 490.458C402.202 472.988 403.976 456.868 406.526 439.433C396.34 439.205 386.218 439.969 378.313 432.327C367.983 422.341 371.454 406.51 370.916 393.855C369.236 354.348 386.636 356.745 416.737 356.865Z"/><path fill="#FBF2F1" transform="matrix(1.06004 0 0 1.09636 -30.7422 -49.3364)" d="M416.737 356.865C413.292 354.062 409.377 350.251 406.236 347.039C379.196 319.722 364.308 282.66 364.935 244.23C365.369 207.151 380.461 171.752 406.914 145.766C435.831 117.617 474.752 102.118 515.104 102.683C553.992 103.355 594.282 119.7 621.237 147.964C647.838 175.492 662.373 212.484 661.629 250.757C660.433 296.396 640.787 326.935 609.18 357C621.213 356.933 639.723 355.066 648.648 364.426C658.145 374.387 654.604 395.545 655.192 408.446C656.441 435.86 642.855 439.482 619.848 438.932C619.674 436.688 619.604 434.304 619.498 432.044C626.633 432.12 635.897 432.602 640.853 426.534C646.39 419.755 645.575 410.135 645.528 401.968C645.488 395.006 645.423 388.026 644.96 381.096C644.57 375.256 640.782 372.002 636.49 368.671C629.525 367.58 620.371 368.044 613.153 368.19C601.795 368.413 590.438 368.704 579.084 369.063C573.883 370.159 554.179 369.639 552.49 370.413L552.247 371.264L552.71 371.83C557.741 371.725 578.777 371.844 582.785 372.907C590.409 373.082 621.928 373.306 627.307 375.602C624.085 379.345 620.966 382.893 618.249 387.029C615.23 391.625 613.172 395.911 609.578 400.105C608.302 398.542 607.114 397.143 605.992 395.453C601.038 405.005 599.58 409.003 598.071 419.591C594.78 419.378 589.14 419.679 585.573 419.73C578.546 419.815 571.519 419.823 564.493 419.754L476.343 419.581L476.137 418.196C467.501 418.074 458.496 418.231 449.91 417.796C448.457 419.343 447.941 419.09 445.461 419.458C443.421 419.418 441.42 419.607 439.383 419.752C437.256 419.423 429.647 407.727 427.408 404.831C430.593 396.091 433.458 395.363 432.721 385.29C437.445 383.13 449.247 376.345 446.76 370.176C442.612 366.812 402.205 368.259 394.531 368.149C380.396 367.946 381.505 386.173 381.677 395.695C381.886 420.141 377.476 431.785 407.089 431.967C406.938 434.427 406.833 436.996 406.526 439.433C396.34 439.205 386.218 439.969 378.313 432.327C367.983 422.341 371.454 406.51 370.916 393.855C369.236 354.348 386.636 356.745 416.737 356.865Z"/><path fill="#94535D" transform="matrix(1.06004 0 0 1.09636 -30.7422 -49.3364)" d="M449.91 417.796C453.606 413.436 458.393 405.835 463.934 405.642C466.28 405.559 468.198 406.683 470.318 407.64C471.924 410.402 475.453 415.568 476.137 418.196C467.501 418.074 458.496 418.231 449.91 417.796Z"/><path fill="#9F636B" transform="matrix(1.06004 0 0 1.09636 -30.7422 -49.3364)" d="M540.901 369.521C553 369.082 567.003 368.858 579.084 369.063C573.883 370.159 554.179 369.639 552.49 370.413L552.247 371.264L552.71 371.83C557.741 371.725 578.777 371.844 582.785 372.907C577.359 373.02 543.801 373.141 541.028 371.787L540.901 369.521Z"/><path fill="#B58D8E" transform="matrix(1.06004 0 0 1.09636 -30.7422 -49.3364)" d="M541.028 371.787C538.829 369.975 531.121 372.132 529.169 369.926C531.932 369.374 537.822 369.53 540.901 369.521L541.028 371.787Z"/><path fill="#843642" transform="matrix(1.06004 0 0 1.09636 -30.7422 -49.3364)" d="M386.608 201.376C401.267 165.805 422.736 141.26 458.625 125.702C528.243 95.522 619.847 130.367 640.584 206.476L639.83 207.032C636.686 202.884 633.41 198.082 629.389 194.857C634.881 214.206 640.754 225.429 641.155 247.105C641.403 255.318 640.271 264.515 638.356 272.504C631.759 307.331 612.704 332.837 583.958 353.136C577.002 358.048 567.803 356.599 559.12 356.454C555.177 356.707 553.863 356.62 549.918 356.176C546.728 357.69 534.832 357.135 530.708 357.105C509.677 356.432 484.852 357.051 463.499 357.006C461.381 356.97 459.266 356.826 457.151 356.704C448.045 356.18 438.97 350.399 434.347 342.527C431.821 338.225 431.654 333.493 431.301 328.661C426.53 324.406 417.25 319.027 411.447 315.462L407.556 318.219C389.761 300.742 382.485 267.981 381.457 243.813L379.485 243.685C377.429 243.877 378.134 244.221 376.912 243.305C375.408 237.977 379.536 219.633 381.388 213.67C382.265 210.843 385.247 204.363 386.608 201.376Z"/><path fill="#843642" transform="matrix(1.06004 0 0 1.09636 -30.7422 -49.3364)" d="M561.361 347.181C562.186 340.758 567.691 337.271 571.981 332.848C573.898 331.268 580.865 323.715 582.969 323.173C598.907 319.068 599.376 308.148 606.703 295.344C610.372 288.933 627.137 277.345 633.886 272.958C635.504 271.906 636.521 271.948 638.356 272.504C631.759 307.331 612.704 332.837 583.958 353.136C577.002 358.048 567.803 356.599 559.12 356.454C557.71 356.314 556.508 356.356 555.336 355.618C555.879 353.628 558.941 351.716 561.056 347.761L561.361 347.181Z"/><path fill="#94535D" transform="matrix(1.06004 0 0 1.09636 -30.7422 -49.3364)" d="M609.143 277.188C620.048 274.324 621.241 268.441 625.995 259.571C628.641 254.633 635.748 248.633 641.155 247.105C641.403 255.318 640.271 264.515 638.356 272.504C636.521 271.948 635.504 271.906 633.886 272.958C627.137 277.345 610.372 288.933 606.703 295.344C599.376 308.148 598.907 319.068 582.969 323.173C580.865 323.715 573.898 331.268 571.981 332.848C567.691 337.271 562.186 340.758 561.361 347.181L561.056 347.761C558.941 351.716 555.879 353.628 555.336 355.618C556.508 356.356 557.71 356.314 559.12 356.454C555.177 356.707 553.863 356.62 549.918 356.176C546.728 357.69 534.832 357.135 530.708 357.105C532.96 343.214 554.614 340.283 564.854 334.692C579.313 326.798 594.755 308.898 601.245 293.831C601.541 293.144 599.976 292.428 600.089 290.084C600.34 289.207 600.639 288.345 600.986 287.501C602.615 283.495 605.033 278.888 609.143 277.188Z"/><path fill="#B58D8E" transform="matrix(1.06004 0 0 1.09636 -30.7422 -49.3364)" d="M609.143 277.188C610.238 278.611 610.826 278.783 610.666 280.808C610.384 284.372 604.27 291.949 600.482 291.145L600.089 290.084C600.34 289.207 600.639 288.345 600.986 287.501C602.615 283.495 605.033 278.888 609.143 277.188Z"/><path fill="#E4CCCC" transform="matrix(1.06004 0 0 1.09636 -30.7422 -49.3364)" d="M549.918 356.176C552.574 353.999 558.785 347.84 561.361 347.181L561.056 347.761C558.941 351.716 555.879 353.628 555.336 355.618C556.508 356.356 557.71 356.314 559.12 356.454C555.177 356.707 553.863 356.62 549.918 356.176Z"/><path fill="#9F636B" transform="matrix(1.06004 0 0 1.09636 -30.7422 -49.3364)" d="M457.151 356.704L457.84 355.988C457.392 349.097 446.891 331.244 440.814 326.624C437.135 323.827 431.073 319.778 430.037 314.936L430.536 313.967C434.82 312.621 444.492 319.414 448.873 321.014C459.644 324.95 471.233 330.038 482.295 332.997C485.611 330.928 486.811 329.529 490.527 330.303L491.301 330.95C491.414 333.331 489.273 335.22 487.526 336.652C482.673 340.626 478.051 351.43 471.409 352.167C469.962 351.618 469.8 351.754 469.088 350.267C465.161 342.058 472.823 341.502 473.91 338.563C472.057 336.638 467.834 336.161 465.649 338.21C463.137 340.565 460.829 355.349 463.499 357.006C461.381 356.97 459.266 356.826 457.151 356.704Z"/><path fill="#A77479" transform="matrix(1.06004 0 0 1.09636 -30.7422 -49.3364)" d="M379.485 243.685C377.429 243.877 378.134 244.221 376.912 243.305C375.408 237.977 379.536 219.633 381.388 213.67C382.265 210.843 385.247 204.363 386.608 201.376C388.537 205.939 384.399 219.28 383.957 224.828C383.869 225.938 382.506 235.224 382.201 235.863L381.457 243.813L379.485 243.685Z"/><path fill="#E4CCCC" transform="matrix(1.06004 0 0 1.09636 -30.7422 -49.3364)" d="M379.485 243.685C379.472 241.3 379.181 236.706 380.673 234.966C381.861 235.069 381.326 234.855 382.201 235.863L381.457 243.813L379.485 243.685Z"/><path fill="#FBF2F1" transform="matrix(1.06004 0 0 1.09636 -30.7422 -49.3364)" d="M391.221 254.918C391.223 249.453 391.5 243.992 392.049 238.554C395.298 206.622 410.72 173.221 436.239 153.432C485.732 115.051 564.603 119.056 604.489 168.641C608.982 169.742 616.969 178.417 618.841 182.511C625.314 191.492 623.663 201.358 622.821 212.083C614.305 214.426 618.285 218.586 614.302 222.388C614.451 236.654 613.986 250.96 607.602 264.013C589.229 301.578 550.243 320.712 509.576 321.145C475.409 321.509 449.268 311.318 424.855 287.676L424.505 287.331C435.378 278.237 436.29 278.542 438.341 264.387C437.072 262.976 435.733 261.537 434.548 260.062C430.876 259.395 424.39 258.553 425.094 253.51C428.632 248.527 434.57 250.194 439.474 251.238C439.174 245.691 439.912 242.404 443.876 237.919C447.528 233.786 459.564 226.939 464.724 225.255C466.82 226.475 468.559 227.601 470.838 228.448C473.237 227.614 474.968 226.716 477.429 227.061L478.385 227.633C477.959 229.89 475.177 230.491 473.181 231.252C475.92 236.179 476.778 240.639 476.932 246.273C477.631 247.823 478.286 249.233 479.051 250.753C481.384 251.391 481.25 249.956 483.382 249.089C487.364 242.604 481.857 239.121 479.518 232.701C485.484 230.321 486.37 230.525 490.38 225.681C490.15 220.31 489.694 218.672 488.671 213.386L489.162 213.096L489.483 213.42C491.598 215.521 497.367 216.476 499.631 214.985C498.551 213.265 492.124 211.194 489.898 209.839C487.648 206.093 486.775 204.19 485.8 199.721C475.982 201.381 474.4 201.29 465.71 196.843C461.002 205.233 452.53 215.526 443.164 218.442C429.768 222.613 428.925 205.654 428.268 197.53C423.863 194.223 415.429 188.437 410.738 185.826C413.139 190.079 421.132 202.497 420.15 206.443C415.702 208.222 408.528 195.014 406.932 191.622C406.909 200.435 405.926 206.863 412.24 213.916C414.645 216.602 419.771 226.649 422.623 227.388C426.238 225.985 423.215 220.662 425.248 218.38C431.374 221.708 425.345 240.704 423.052 245.7C420.993 247.197 418.911 248.662 416.808 250.097C407.436 256.757 402.835 256.446 391.221 254.918Z"/><path fill="#94535D" transform="matrix(1.06004 0 0 1.09636 -30.7422 -49.3364)" d="M604.489 168.641C608.982 169.742 616.969 178.417 618.841 182.511C625.314 191.492 623.663 201.358 622.821 212.083C614.305 214.426 618.285 218.586 614.302 222.388C613.299 217.908 614.36 212.017 611.458 209.514C606.638 211.455 603.46 213.3 598.96 215.83C599.584 212.507 599.254 210.32 601.057 207.212C603.416 203.148 606.607 199.594 609.378 195.801C607.206 189.618 605.436 185.551 602.54 179.702C603.177 175.637 604.753 172.817 604.489 168.641Z"/><path fill="#9F636B" transform="matrix(1.06004 0 0 1.09636 -30.7422 -49.3364)" d="M618.841 182.511C625.314 191.492 623.663 201.358 622.821 212.083C614.305 214.426 618.285 218.586 614.302 222.388C613.299 217.908 614.36 212.017 611.458 209.514C616.573 207.767 615.472 199.901 615.393 195.638C615.036 192.77 614.942 192.237 615.459 189.419C615.585 186.381 617.035 185.49 618.841 182.511Z"/><path fill="#B58D8E" transform="matrix(1.06004 0 0 1.09636 -30.7422 -49.3364)" d="M615.459 189.419C617.296 189.734 617.232 189.656 618.774 190.899C619.452 192.596 619.386 191.732 618.845 193.586C617.507 195.014 617.198 195.019 615.393 195.638C615.036 192.77 614.942 192.237 615.459 189.419Z"/><path fill="#A77479" transform="matrix(1.06004 0 0 1.09636 -30.7422 -49.3364)" d="M483.382 249.089C482.141 251.495 479.857 254.967 476.888 254.79C474.724 252.693 476.268 248.876 476.932 246.273C477.631 247.823 478.286 249.233 479.051 250.753C481.384 251.391 481.25 249.956 483.382 249.089Z"/><path fill="#94535D" transform="matrix(1.06004 0 0 1.09636 -30.7422 -49.3364)" d="M516.741 192.23C521.183 191.917 529.649 191.451 531.427 186.27C532.165 184.121 531.056 181.833 532.125 179.389C533.654 179.919 532.901 179.887 534.462 179.503L535.515 179.95C535.404 180.745 535.272 181.537 535.119 182.325C533.677 189.688 518.102 213.787 510.784 216.936C502.928 220.317 498.009 221.231 489.935 226.573C492.362 223.406 496.665 218.679 499.981 216.546C506.958 212.06 509.562 212.088 515.322 205.674C515.931 201.443 516.308 196.528 516.741 192.23Z"/><path fill="#A77479" transform="matrix(1.06004 0 0 1.09636 -30.7422 -49.3364)" d="M535.041 250.974L535.794 251.16L535.919 251.839L534.494 252.913C526.208 259.098 527.365 265.295 526.721 274.779C523.926 273.203 519.626 270.974 516.461 269.997C515.402 269.67 514.464 270.559 513.638 271.147C512.43 272.801 511.122 274.447 509.866 276.07C511.786 269.457 513.536 264.685 515.98 258.258C523.354 255.993 527.897 253.911 535.041 250.974Z"/><path fill="#B58D8E" transform="matrix(1.06004 0 0 1.09636 -30.7422 -49.3364)" d="M586.767 215.071C589.109 215.457 591.115 216.326 592.499 218.325C593.566 223.504 588.749 224.967 584.923 226.383C588.291 229.925 588.993 230.094 593.518 231.445C589.801 233.571 589.503 233.72 586.331 236.494L584.264 238.241C581.437 236.52 574.503 224.461 575.787 221.131C578.55 218.081 582.937 216.669 586.767 215.071Z"/><path fill="#843642" transform="matrix(1.06004 0 0 1.09636 -30.7422 -49.3364)" d="M552.443 137.618C552.363 149.345 553.741 161.719 545.182 170.434L543.606 168.963C544.867 166.68 545.584 165.41 546.52 162.921C544.97 162.708 542.373 162.558 541.483 161.216C537.273 154.869 548.371 141.878 552.443 137.618Z"/><path fill="#94535D" transform="matrix(1.06004 0 0 1.09636 -30.7422 -49.3364)" d="M492.347 148.991L493.643 149.005C493.487 151.177 493.286 153.206 493.37 155.385C495.522 157.415 497.481 159.346 499.832 161.153C496.981 160.19 494.173 159.281 491.395 158.121L489.45 157.317C485.937 155.662 472.57 154.128 467.78 153.451C476.181 152.3 482.661 153.602 490.66 155.894C491.053 153.713 491.783 151.168 492.347 148.991Z"/><path fill="#9F636B" transform="matrix(1.06004 0 0 1.09636 -30.7422 -49.3364)" d="M538.506 274.95C542.702 276.458 549.837 282.54 549.027 287.47C548.148 287.488 547.759 287.686 547.209 287.181C545.137 285.276 538.811 277.184 538.506 274.95Z"/><path fill="#A77479" transform="matrix(1.06004 0 0 1.09636 -30.7422 -49.3364)" d="M543.606 168.963L545.182 170.434C542.13 173.182 537.859 176.728 535.515 179.95L534.462 179.503C535.41 177.36 541.677 171.027 543.606 168.963Z"/><path fill="#B58D8E" transform="matrix(1.06004 0 0 1.09636 -30.7422 -49.3364)" d="M492.347 148.991C494.569 143.897 496.174 140.781 500.011 136.605C497.393 141.266 495.946 144.241 493.643 149.005L492.347 148.991Z"/><path fill="#E4CCCC" transform="matrix(1.06004 0 0 1.09636 -30.7422 -49.3364)" d="M489.45 157.317L491.395 158.121C489.97 159.015 487.765 164.045 486.201 166.347C487.201 162.876 488.076 160.671 489.45 157.317Z"/><path fill="#FBF2F1" transform="matrix(1.06004 0 0 1.09636 -30.7422 -49.3364)" d="M391.221 254.918C402.835 256.446 407.436 256.757 416.808 250.097C415.795 252.007 414.943 253.594 415.183 255.794C416.564 257.581 416.819 257.426 419.214 257.494C424.692 259.48 424.768 267.792 422.973 272.227C420.755 277.706 412.983 281.68 409.078 286.27L408.444 288.501C409.191 296.231 408.938 300.662 408.199 308.331C407.112 306.753 405.695 304.865 404.914 303.157C403.729 301.099 402.462 299.178 401.787 296.919C393.703 280.656 395.264 272.806 391.804 257.232L391.663 256.621L391.221 254.918Z"/><path fill="#A77479" transform="matrix(1.06004 0 0 1.09636 -30.7422 -49.3364)" d="M391.221 254.918C402.835 256.446 407.436 256.757 416.808 250.097C415.795 252.007 414.943 253.594 415.183 255.794C416.564 257.581 416.819 257.426 419.214 257.494C416 258.913 412.798 260.357 409.608 261.827C403.749 260.887 397.012 259.215 391.663 256.621L391.221 254.918Z"/><path fill="#9F636B" transform="matrix(1.06004 0 0 1.09636 -30.7422 -49.3364)" d="M409.078 286.27L408.444 288.501C409.191 296.231 408.938 300.662 408.199 308.331C407.112 306.753 405.695 304.865 404.914 303.157C403.729 301.099 402.462 299.178 401.787 296.919C403.066 293.608 400.08 291.551 400.605 288.753C402.521 286.648 406.313 286.563 409.078 286.27Z"/><path fill="#E4CCCC" transform="matrix(1.06004 0 0 1.09636 -30.7422 -49.3364)" d="M404.914 303.157C405.218 298.999 403.703 290.323 408.444 288.501C409.191 296.231 408.938 300.662 408.199 308.331C407.112 306.753 405.695 304.865 404.914 303.157Z"/><path fill="#B68185" transform="matrix(1.06004 0 0 1.09636 -30.7422 -49.3364)" d="M645.432 257.536C645.82 258.116 645.707 258.567 645.622 259.408C644.43 271.228 638.682 298.126 630.268 305.659L629.736 305.069C629.884 303.925 634.202 296.312 635.057 294.242C639.954 282.385 642.122 269.822 645.432 257.536Z"/><path fill="#B68185" transform="matrix(1.06004 0 0 1.09636 -30.7422 -49.3364)" d="M516.216 384.411C517.149 384.632 516.746 384.385 517.37 385.238C515.795 388.435 510.124 391.227 506.81 392.377L506.449 392.311C506.828 391.062 514.772 385.357 516.216 384.411Z"/><path fill="#E4CCCC" transform="matrix(1.06004 0 0 1.09636 -30.7422 -49.3364)" d="M644.741 224.328C646.545 227.031 646.045 230.244 645.767 233.351C644.661 230.785 644.837 227.222 644.741 224.328Z"/><path fill="#E4CCCC" transform="matrix(1.06004 0 0 1.09636 -30.7422 -49.3364)" d="M640.584 206.476C641.499 208.781 641.969 209.752 642.378 212.211L642.076 212.786C640.925 211.262 640.404 208.916 639.83 207.032L640.584 206.476Z"/><path fill="#94535D" transform="matrix(1.06004 0 0 1.09636 -30.7422 -49.3364)" d="M394.42 385.109C393.775 383.479 394.21 382.01 395.214 380.702C399.604 379.975 408.63 383.498 414.464 384.172C420.553 384.876 427.191 384.534 432.721 385.29C433.458 395.363 430.593 396.091 427.408 404.831C429.647 407.727 437.256 419.423 439.383 419.752C436.388 421.423 403.441 420.004 397.86 419.647C396.663 413.479 393.91 393.581 395.674 387.844L394.42 385.109Z"/><path fill="#E4CCCC" transform="matrix(1.06004 0 0 1.09636 -30.7422 -49.3364)" d="M394.42 385.109C396.9 385.675 406.147 396.098 409.792 398.102C411.066 398.802 415.455 401.069 416.061 401.949C411.233 406.142 398.149 391.62 395.674 387.844L394.42 385.109Z"/><path fill="#94535D" transform="matrix(1.06004 0 0 1.09636 -30.7422 -49.3364)" d="M627.307 375.602C629.556 376.743 629.715 377.549 631.241 379.485C632.163 389.535 632.216 400.425 632.264 410.541C632.29 416.258 632.119 419.087 626.039 419.862C623.691 420.605 601.418 419.983 598.071 419.591C599.58 409.003 601.038 405.005 605.992 395.453C607.114 397.143 608.302 398.542 609.578 400.105C613.172 395.911 615.23 391.625 618.249 387.029C620.966 382.893 624.085 379.345 627.307 375.602Z"/><path fill="#FBF2F1" transform="matrix(1.06004 0 0 1.09636 -30.7422 -49.3364)" d="M609.626 419.525C615.077 410.934 620.187 403.605 624.086 394.103C625.634 390.329 628.669 382.223 631.241 379.485C632.163 389.535 632.216 400.425 632.264 410.541C632.29 416.258 632.119 419.087 626.039 419.862C624.573 419.582 612.038 419.568 609.626 419.525Z"/><path fill="#B68185" transform="matrix(1.06004 0 0 1.09636 -30.7422 -49.3364)" d="M445.461 419.458C447.941 419.09 448.457 419.343 449.91 417.796C458.496 418.231 467.501 418.074 476.137 418.196L476.343 419.581C466.482 419.923 455.281 419.687 445.461 419.458Z"/><path fill="#FBF2F1" transform="matrix(1.06004 0 0 1.09636 -30.7422 -49.3364)" d="M443.836 431.455C461.949 430.425 484.386 431.263 502.814 431.262C536.67 430.963 570.528 431.273 604.372 432.193C604.579 437.298 606.804 455.1 606.423 457.937C608.505 475.265 610.066 490.168 613.946 507.235C614.992 510.036 616.961 518.277 616.869 521.225C620.686 542.101 629.319 565.297 634.917 585.873C622.522 581.989 621.256 591.714 615.326 599.915L617.977 604.462C616.538 615.281 615.66 620.947 607.857 628.712C606.034 636.494 606.303 645.862 604.695 653.633C605.874 651.713 606.633 650.127 608.373 648.72L609.098 648.894C610.117 653.045 608.236 660.863 605.923 664.337C601.586 670.851 595.554 674.583 590.889 681.146C586.88 686.787 586.339 691.936 583.206 697.573L582.795 697.833C577.413 701.294 576.612 703.6 570.099 705.182C569.241 707.237 569.123 707.511 568.774 709.683C571.944 711.257 575.228 712.615 577.548 715.321L578.6 716.853L580.499 718.983C580.935 721.532 582.09 721.974 584.176 723.168C582.942 724.105 583.032 724.098 582.235 725.454L581.114 725.816L583.331 726.523C578.478 736.541 577.804 739.294 574.944 750.219C553.808 750.484 532.67 750.567 511.532 750.468C502.033 750.47 490.406 750.168 481.128 750.566C475.995 751.351 465.292 751.044 459.853 751L423.973 750.644C421.751 751.528 400.593 751.103 399.142 750.146L397.078 750.237C393.423 750.911 385.237 750.707 381.252 750.677L355 750.503C348.075 750.506 324.503 751.053 319.18 750.261L317.206 750.098C311.112 750.12 305.018 750.112 298.924 750.072C301.949 745.365 310.047 735.485 313.83 730.602L315.18 728.889C337.373 701.464 362.47 658.702 375.677 626.251L375.667 625.749C379.791 620.163 391.818 583.982 394.243 576.584L394.628 575.007C396.597 570.034 398.309 563.132 399.893 557.966C404.212 543.885 407.169 529.918 410.456 515.605C410.504 514.134 410.552 514.271 410.916 512.8C414.335 495.557 417.876 468.519 419.524 451.583C419.481 447.21 420.719 436.609 421.097 431.617C427.204 431.745 433.163 431.613 439.268 431.497C439.658 433.784 440.022 436.075 440.361 438.369C440.996 439.163 441.639 439.951 442.289 440.733C443.566 442.257 444.089 443.106 445.844 443.268L446.363 442.091C445.593 438.529 444.751 434.983 443.836 431.455Z"/><defs><linearGradient id="gradient_0" gradientUnits="userSpaceOnUse" x1="488.65198" y1="562.47687" x2="400.73047" y2="448.52509"><stop offset="0" stop-color="#8F505A"/><stop offset="1" stop-color="#9E686C"/></linearGradient></defs><path fill="url(#gradient_0)" transform="matrix(1.06004 0 0 1.09636 -30.7422 -49.3364)" d="M421.097 431.617C427.204 431.745 433.163 431.613 439.268 431.497C439.658 433.784 440.022 436.075 440.361 438.369C440.996 439.163 441.639 439.951 442.289 440.733C443.566 442.257 444.089 443.106 445.844 443.268L446.363 442.091C447.056 444.336 444.968 445.05 445.699 447.68C449.34 450.586 466.28 444.462 471.084 450.563C476.823 462.604 484.751 474.814 487.643 487.739C488.478 491.587 487.833 496.304 488.229 500.013C489.614 513.011 483.464 521.94 473.606 529.54C470.431 531.987 465.674 533.874 466.625 538.617C467.764 540.482 468.704 540.904 470.872 541.027C475.176 542.839 479.752 541.222 481.189 543.233C480.722 543.899 480.26 543.965 479.399 544.419L478.944 543.896C477.413 543.423 477.274 543.701 475.551 544.081C470.294 545.535 468.33 545.408 466.545 550.944L466.031 551.469C466.405 552.352 466.566 552.83 467.058 553.651C465.834 563.453 457.856 567.626 456.123 576.718C455.605 579.436 455.826 584.09 455.898 586.998C451.515 591.13 449.25 593.601 445.327 598.083C445.389 584.669 449.783 570.493 453.989 557.749C457.11 548.295 459.753 543.718 460.948 533.437C457.074 534.835 452.767 537.394 449.105 539.419C445.994 538.061 440.278 535.05 436.814 535.819C435.258 536.164 435.038 537.446 434.281 538.958C433.23 540.442 433.131 540.512 432.42 542.276C432.077 543.962 430.381 545.614 429.64 549.617C421.978 547.116 416.754 545.856 408.783 545.353C416.703 537.89 429.624 530.23 415.183 519.697C415.209 516.878 414.971 516.038 416.538 513.79C414.249 513.033 413.364 513.033 410.916 512.8C414.335 495.557 417.876 468.519 419.524 451.583C419.481 447.21 420.719 436.609 421.097 431.617Z"/><path fill="#B58D8E" transform="matrix(1.06004 0 0 1.09636 -30.7422 -49.3364)" d="M419.524 451.583C425.843 451.596 431.991 450.035 437.302 450.466C442.341 456.099 444.278 463.09 445.978 470.278C446.35 471.851 446.321 473.466 447.513 474.411C449.513 474.432 449.78 474.438 451.73 474.088C455.769 473.721 458.302 473.365 462.054 471.869C462.604 472.149 463.649 472.436 463.59 473.021C462.449 484.426 461.187 496.257 460.721 507.735C460.439 514.702 460.743 521.297 459.719 528.042C454.845 533.572 424.883 525.234 424.54 517.468L425.924 515.196L425.62 514.244C424.144 513.512 420.181 514.983 416.538 513.79C414.249 513.033 413.364 513.033 410.916 512.8C414.335 495.557 417.876 468.519 419.524 451.583Z"/><path fill="#94535D" transform="matrix(1.06004 0 0 1.09636 -30.7422 -49.3364)" d="M454.973 456.199C461.105 461.895 459.431 464.906 462.054 471.869C458.302 473.365 455.769 473.721 451.73 474.088C446.678 466.706 450.866 462.591 454.973 456.199Z"/><path fill="#9F636B" transform="matrix(1.06004 0 0 1.09636 -30.7422 -49.3364)" d="M469.005 495.677C467.657 490.754 468.157 488.017 468.782 483.02C470.96 485.307 471.588 485.897 473.173 488.764C475.045 492.467 478.451 498.041 474.698 501.647C471.546 501.509 470.237 498.33 469.005 495.677Z"/><path fill="#A77479" transform="matrix(1.06004 0 0 1.09636 -30.7422 -49.3364)" d="M469.005 495.677C467.657 490.754 468.157 488.017 468.782 483.02C470.96 485.307 471.588 485.897 473.173 488.764C471.92 491.579 471.304 493.587 469.005 495.677Z"/><defs><linearGradient id="gradient_1" gradientUnits="userSpaceOnUse" x1="525.02527" y1="505.93057" x2="525.29639" y2="431.81998"><stop offset="0" stop-color="#924F5B"/><stop offset="1" stop-color="#A8787B"/></linearGradient></defs><path fill="url(#gradient_1)" transform="matrix(1.06004 0 0 1.09636 -30.7422 -49.3364)" d="M443.836 431.455C461.949 430.425 484.386 431.263 502.814 431.262C536.67 430.963 570.528 431.273 604.372 432.193C604.579 437.298 606.804 455.1 606.423 457.937C600.758 462.638 593.707 469.273 588.284 474.427C582.338 470.167 578.716 469.018 571.454 468.215C562.619 472.986 552.933 480.948 549.31 490.744C547.535 495.544 551.268 499.87 553.875 503.678C550.144 506.731 548.989 506.798 544.368 507.591C537.858 502.702 528.808 494.383 520.405 499.399C520.046 499.275 518.887 498.607 518.503 498.398C519.193 497.123 518.549 493.892 518.36 492.247C527.896 483.12 542.786 474.8 556.046 472.893C560.967 472.185 564.137 469.972 568.051 467.211C566.644 466.849 565.332 466.405 563.953 465.956L563.822 465.513C565.631 463.592 572.782 460.842 575.671 459.177C580.821 456.209 582.342 455.091 586.701 450.999C548.6 450.022 509.522 451.33 471.084 450.563C466.28 444.462 449.34 450.586 445.699 447.68C444.968 445.05 447.056 444.336 446.363 442.091C445.593 438.529 444.751 434.983 443.836 431.455Z"/><path fill="#94535D" transform="matrix(1.06004 0 0 1.09636 -30.7422 -49.3364)" d="M475.551 544.081C477.274 543.701 477.413 543.423 478.944 543.896L479.399 544.419C483.245 543.891 485.256 543.576 488.873 545.455C490.373 545.882 490.346 545.89 491.681 546.714C489.804 551.807 481.694 585.538 497.247 574.057L497.966 576.043C499.187 585.148 503.037 586.675 504.024 591.977C505.447 599.613 500.744 598.295 504.313 608.707C509.443 613.736 519.776 619.871 526.837 619.577C536.95 619.156 540.99 625.248 548.991 627.104L555.172 623.096C550.95 629.277 547.426 633.909 540.388 636.393C536.551 635.206 532.528 634.149 528.645 633.076C528.603 633.563 528.557 634.05 528.506 634.537C527.19 647.614 522.877 645.15 514.304 652.019C510.416 655.134 507.056 660.123 502.543 663.793C503.976 660.228 507.258 651.892 509.675 649.532C516.682 642.693 520.394 647.794 525.859 636.772C525.804 635.6 525.712 634.429 525.583 633.263C525.13 629.46 521.519 623.648 518.63 621.234C507.009 611.524 491.814 604.027 480.03 594.699L479.269 594.091C478.93 598.243 478.954 600.567 476.23 603.753L475.199 603.54C473.166 600.717 473.92 593.397 474.911 590.224C475.691 587.198 477.754 583.376 478.118 580.311C478.936 573.419 476.74 552.654 467.058 553.651C466.566 552.83 466.405 552.352 466.031 551.469L466.545 550.944C468.33 545.408 470.294 545.535 475.551 544.081Z"/><path fill="#FBF2F1" transform="matrix(1.06004 0 0 1.09636 -30.7422 -49.3364)" d="M475.551 544.081L478.011 544.812L478.041 545.437L476.684 546.706C474.349 548.294 470.041 551.809 467.423 551.579L466.545 550.944C468.33 545.408 470.294 545.535 475.551 544.081Z"/><path fill="#A77479" transform="matrix(1.06004 0 0 1.09636 -30.7422 -49.3364)" d="M475.551 544.081C477.274 543.701 477.413 543.423 478.944 543.896L479.399 544.419C483.245 543.891 485.256 543.576 488.873 545.455C484.837 546.721 480.594 548.556 476.684 546.706L478.041 545.437L478.011 544.812L475.551 544.081Z"/><path fill="#9F636B" transform="matrix(1.06004 0 0 1.09636 -30.7422 -49.3364)" d="M454.738 730.213C462.2 743.862 478.92 724.52 485.811 728.797C488.872 733.864 485.74 735.996 481.797 738.708C479.915 739.789 478.01 740.721 476.455 742.207C474.913 745.33 473.923 747.176 472.946 750.523C475.542 750.532 478.57 750.472 481.128 750.566C475.995 751.351 465.292 751.044 459.853 751L423.973 750.644C426.016 748.179 428.935 745.867 428.705 742.484C432.791 741.339 437.016 739.43 441.755 738.115C446.516 732.318 444.939 735.272 450.731 734.852C452.618 733.919 453.518 732.046 454.738 730.213Z"/><path fill="#A77479" transform="matrix(1.06004 0 0 1.09636 -30.7422 -49.3364)" d="M476.455 742.207C476.635 740.553 476.641 738.168 477.637 737.023C479.628 736.971 479.731 737.502 481.797 738.708C479.915 739.789 478.01 740.721 476.455 742.207Z"/><path fill="#94535D" transform="matrix(1.06004 0 0 1.09636 -30.7422 -49.3364)" d="M556.797 693.806L562.323 695.075C560.464 697.717 559.209 698.951 556.966 701.268C562.054 702.113 565.264 703.335 570.099 705.182C569.241 707.237 569.123 707.511 568.774 709.683L567.362 709.277C564.869 708.75 564.141 708.76 561.659 709.51C557.025 714.647 560.448 714.118 557.951 718.534C554.669 722.23 547.674 732.989 543.777 734.231L543.147 733.751C541.921 727.221 549.486 714.504 552.594 708.54C548.108 710.183 546.24 711.387 542.257 713.893C523.3 711.529 523.769 711.674 504.968 718.409C504.043 717.406 503.784 716.579 503.954 715.263C505.281 713.967 506.993 714.016 508.965 713.702C516.971 712.32 527.537 709.468 535.438 707.39C540.848 705.967 551.996 697.384 556.797 693.806Z"/><path fill="#9F636B" transform="matrix(1.06004 0 0 1.09636 -30.7422 -49.3364)" d="M375.667 625.749C381.013 626.397 388.292 634.398 391.724 638.254C393.905 640.705 397.649 648.89 399.335 650.066C406.734 655.226 410.872 652.885 418.509 659.893C409.135 660.695 399.728 661.063 390.32 660.994C387.594 653.98 380.773 629.812 375.677 626.251L375.667 625.749Z"/><path fill="#B68185" transform="matrix(1.06004 0 0 1.09636 -30.7422 -49.3364)" d="M514.196 532.833C522.969 529.892 524.813 525.891 533.408 523.42C518.626 537.707 502.816 531.882 491.681 546.714C490.346 545.89 490.373 545.882 488.873 545.455C485.256 543.576 483.245 543.891 479.399 544.419C480.26 543.965 480.722 543.899 481.189 543.233C479.752 541.222 475.176 542.839 470.872 541.027C484.458 540.7 490.943 538.224 499.461 527.485C505.138 529.222 508.858 530.907 514.196 532.833Z"/><path fill="#9F636B" transform="matrix(1.06004 0 0 1.09636 -30.7422 -49.3364)" d="M561.659 709.51C564.141 708.76 564.869 708.75 567.362 709.277L568.774 709.683C571.944 711.257 575.228 712.615 577.548 715.321L578.6 716.853L580.499 718.983C580.935 721.532 582.09 721.974 584.176 723.168C582.942 724.105 583.032 724.098 582.235 725.454L581.114 725.816L573.679 724.664C569.123 723.324 562.693 720.333 557.951 718.534C560.448 714.118 557.025 714.647 561.659 709.51Z"/><path fill="#94535D" transform="matrix(1.06004 0 0 1.09636 -30.7422 -49.3364)" d="M577.548 715.321L578.6 716.853L580.499 718.983C580.935 721.532 582.09 721.974 584.176 723.168C582.942 724.105 583.032 724.098 582.235 725.454L581.114 725.816L573.679 724.664C573.491 722.591 572.292 720.858 571.584 718.329C572.901 715.841 575.133 716.355 577.548 715.321Z"/><path fill="#94535D" transform="matrix(1.06004 0 0 1.09636 -30.7422 -49.3364)" d="M578.6 716.853L580.499 718.983C579.163 720.591 578.477 721.705 576.311 721.809L575.516 721.051L575.501 719.68C576.705 717.592 576.31 718.246 578.6 716.853Z"/><path fill="#B68185" transform="matrix(1.06004 0 0 1.09636 -30.7422 -49.3364)" d="M561.659 709.51C564.141 708.76 564.869 708.75 567.362 709.277C566.97 711.364 567.017 712.254 565.705 713.802L564.391 714.298C562.04 713.178 561.903 711.954 561.659 709.51Z"/><path fill="#94535D" transform="matrix(1.06004 0 0 1.09636 -30.7422 -49.3364)" d="M367.505 742.229C373.578 740.585 379.256 738.442 385.475 737.384C389.607 740.476 392.353 744.715 395.48 748.848C389.191 749.034 377.584 748.816 371.91 749.717C369.621 747.554 368.724 745.056 367.505 742.229Z"/><path fill="#94535D" transform="matrix(1.06004 0 0 1.09636 -30.7422 -49.3364)" d="M616.869 521.225C596.737 528.822 591.774 514.156 613.946 507.235C614.992 510.036 616.961 518.277 616.869 521.225Z"/><path fill="#94535D" transform="matrix(1.06004 0 0 1.09636 -30.7422 -49.3364)" d="M505.937 508.184C505.7 497.561 508.318 496.097 518.503 498.398C518.887 498.607 520.046 499.275 520.405 499.399C522.498 510.755 515.54 515.946 505.937 508.184Z"/><path fill="#94535D" transform="matrix(1.06004 0 0 1.09636 -30.7422 -49.3364)" d="M408.228 749.97C420.352 742.319 419.612 737.311 434.507 734.696C431.345 737.235 428.939 738.246 428.705 742.484C428.935 745.867 426.016 748.179 423.973 750.644C421.751 751.528 400.593 751.103 399.142 750.146C401.552 749.954 405.684 750.016 408.228 749.97Z"/><path fill="#FBF2F1" transform="matrix(1.06004 0 0 1.09636 -30.7422 -49.3364)" d="M313.83 730.602C315.069 735.069 316.424 745.146 317.206 750.098C311.112 750.12 305.018 750.112 298.924 750.072C301.949 745.365 310.047 735.485 313.83 730.602Z"/><path fill="#B58D8E" transform="matrix(1.06004 0 0 1.09636 -30.7422 -49.3364)" d="M431.124 586.737L431.783 587.287C431.398 591.687 430.938 596.08 430.402 600.464C417.185 597.529 415.363 596.945 406.642 586.775C410.339 587.936 425.066 593.721 427.373 592.981C429.004 591.526 429.073 590.822 429.884 588.693C430.147 588.557 430.864 587.968 431.131 587.761L431.124 586.737Z"/><path fill="#9F636B" transform="matrix(1.06004 0 0 1.09636 -30.7422 -49.3364)" d="M496.435 711.766C500.748 712.601 504.553 713.416 508.965 713.702C506.993 714.016 505.281 713.967 503.954 715.263C503.784 716.579 504.043 717.406 504.968 718.409C501.812 720.015 494.38 723.165 492.366 718.971C492.489 715.81 494.399 714.182 496.435 711.766Z"/><path fill="#A77479" transform="matrix(1.06004 0 0 1.09636 -30.7422 -49.3364)" d="M348.923 749.995C349.669 748.25 350.012 746.735 351.497 745.621C354.222 745.83 354.182 750.209 359.022 750.185C363.216 750.165 367.75 750.552 371.91 749.717C377.584 748.816 389.191 749.034 395.48 748.848L397.078 750.237C393.423 750.911 385.237 750.707 381.252 750.677L355 750.503C348.075 750.506 324.503 751.053 319.18 750.261C322.687 749.722 343.644 750.011 348.923 749.995Z"/><path fill="#94535D" transform="matrix(1.06004 0 0 1.09636 -30.7422 -49.3364)" d="M394.243 576.584L394.628 575.007C397.259 577.687 426.004 585.119 431.124 586.737L431.131 587.761C430.864 587.968 430.147 588.557 429.884 588.693C422.859 585.603 416.301 584.685 409.072 582.547C404.537 581.206 398.689 578.523 394.243 576.584Z"/><path fill="#9F636B" transform="matrix(1.06004 0 0 1.09636 -30.7422 -49.3364)" d="M313.83 730.602L315.18 728.889C316.582 733.447 318.586 745.21 319.18 750.261L317.206 750.098C316.424 745.146 315.069 735.069 313.83 730.602Z"/><path fill="#A77479" transform="matrix(1.06004 0 0 1.09636 -30.7422 -49.3364)" d="M497.247 574.057C504.823 566.916 506.547 566.157 516.751 565.051C508.565 568.231 503.962 568.497 497.966 576.043L497.247 574.057Z"/><path fill="#94535D" transform="matrix(1.06004 0 0 1.09636 -30.7422 -49.3364)" d="M410.916 512.8C413.364 513.033 414.249 513.033 416.538 513.79C414.971 516.038 415.209 516.878 415.183 519.697L410.456 515.605C410.504 514.134 410.552 514.271 410.916 512.8Z"/><path fill="#B68185" transform="matrix(1.06004 0 0 1.09636 -30.7422 -49.3364)" d="M434.281 538.958C436.549 538.912 438.27 538.638 440.291 539.569L440.327 540.201C437.14 542.118 436.017 541.553 432.42 542.276C433.131 540.512 433.23 540.442 434.281 538.958Z"/><path fill="#A77479" transform="matrix(1.06004 0 0 1.09636 -30.7422 -49.3364)" d="M565.238 505.291C566.293 506.131 566.914 508.139 567.897 509.279C570.149 511.892 572.384 514.567 575.065 516.762C575.065 516.762 577.943 517.115 578.206 517.147C578.615 518.542 577.53 522.984 577.202 524.747C579.307 525.051 580.411 524.916 581.544 526.405C581.631 528.378 579.626 531.025 578.501 532.866C582.145 535.554 588.633 538.749 591.335 541.772C590.514 545.479 590.386 546.382 590.538 550.204L590.578 551.11C598.137 554.775 605.767 553.475 613.062 555.256C614.918 558.323 615.078 559.191 614.028 562.233C614.689 566.522 617.772 570.812 620.079 574.622C614.077 572.601 613.3 571.776 608.61 567.51C602.7 569.766 600.75 571.155 594.792 569.189C592.609 572.277 589.886 576.177 587.359 578.958C582.584 584.215 578.83 587.056 574.969 593.167C574.681 588.415 572.8 580.63 573.086 576.973C576.046 571.602 580.536 567.491 585.382 563.848C587.3 564.157 589.212 564.713 590.95 564.007C591.342 563.226 591.567 563.304 591.249 562.655C588.891 557.837 553.407 545.662 546.828 542.52C551.813 543.374 556.868 544.316 561.769 545.571C568.299 547.244 573.446 549.5 580.255 550.042C576.128 547.078 571.446 546.091 567.251 543.076C562.295 539.513 565.434 533.979 562.258 530.646C558.846 529.444 556.159 530.344 552.595 531.038C552.551 528.361 552.464 525.685 552.332 523.011C550.395 522.234 547.214 521.417 545.125 520.812C561.089 514.937 562.57 528.572 565.238 505.291Z"/><path fill="#9F636B" transform="matrix(1.06004 0 0 1.09636 -30.7422 -49.3364)" d="M424.214 687.004C424.264 678.879 425.155 669.351 424.325 661.071C424.245 660.27 422.727 658.658 422.134 657.993L421.632 657.441L421.832 656.409C427.773 650.983 427.772 657.387 430.885 657.892C434.721 658.514 439.564 656.128 444.704 656.334C449.954 668.161 453.224 671.242 463.656 677.549C460.592 677.427 457.243 677.116 454.16 676.891C452.101 675.522 447.808 671.614 445.701 669.817C443.733 671.896 443.581 671.868 440.988 672.913C437.97 673.802 434.25 676.246 431.489 677.899C433.48 683.549 436.417 688.039 438.389 694.417C436.25 692.193 432.167 686.437 430.202 683.825L424.214 687.004Z"/><path fill="#E4CCCC" transform="matrix(1.06004 0 0 1.09636 -30.7422 -49.3364)" d="M440.988 672.913C440.949 670.716 440.647 669.669 441.79 668.189C443.286 668.086 444.348 669.001 445.701 669.817C443.733 671.896 443.581 671.868 440.988 672.913Z"/><path fill="#A77479" transform="matrix(1.06004 0 0 1.09636 -30.7422 -49.3364)" d="M470.752 691.782C476.417 697.42 477.671 698.569 485.333 699.226C478.651 707.385 475.787 707.439 467.482 713.32C464.171 715.665 460.273 720.137 457.678 723.227C456.858 723.939 457.315 723.702 456.327 723.973C455.301 721.094 455.552 720.909 452.667 719.869C450.511 720.001 448.98 721.301 447.086 722.502C450.287 714.693 456.567 710.263 461.954 703.71C465.58 699.3 467.643 696.483 470.752 691.782Z"/><path fill="#B58D8E" transform="matrix(1.06004 0 0 1.09636 -30.7422 -49.3364)" d="M393.661 694.9L393.93 695.077C394.302 697.475 390.13 709.055 389.138 712.051C401.789 716.296 411.889 715.49 424.283 723.789C419.314 722.087 413.368 719.675 408.204 719.699C400.252 724.223 398.309 724.678 389.161 724.889C387.628 722.896 386.351 720.618 384.149 719.734C381.697 720.67 383.782 720.29 382.548 721.842C381.264 721.615 381.848 721.873 380.903 720.791C380.725 719.497 379.274 711.755 379.321 711.556C380.926 710.319 382.141 710.705 384.531 710.548C389.687 706.513 391.385 700.8 393.661 694.9Z"/><path fill="#B58D8E" transform="matrix(1.06004 0 0 1.09636 -30.7422 -49.3364)" d="M407.497 612.657C409.765 612.469 414.045 611.78 415.732 613.089C413.717 614.872 410.671 615.366 411.704 617.921C413.37 619.154 418.833 620.241 421.294 620.903C420.389 625.937 419.721 630.114 418.176 635.022C416.932 638.232 416.317 641.662 412.121 640.966C407.707 637.765 405.824 615.172 407.497 612.657Z"/><path fill="#B58D8E" transform="matrix(1.06004 0 0 1.09636 -30.7422 -49.3364)" d="M538.588 566.302C541.067 567.717 543.605 569.295 546.059 570.776C547.804 568.506 549.028 567.225 550.985 565.207C551.181 570.25 548.625 574.394 553.974 575.958L560.513 575.563C559.471 576.564 557.286 578.539 556.48 579.579C553.556 581.759 549.589 582.084 546 582.633C544.542 580.401 542.803 578.496 541.069 576.469C537.727 580.932 536.245 583.101 533.986 588.152C534.912 579.678 531.584 572.34 538.588 566.302Z"/><path fill="#B58D8E" transform="matrix(1.06004 0 0 1.09636 -30.7422 -49.3364)" d="M553.974 575.958L560.513 575.563C559.471 576.564 557.286 578.539 556.48 579.579C555.084 578.003 554.854 577.823 553.974 575.958Z"/><path fill="#843642" transform="matrix(1.06004 0 0 1.09636 -30.7422 -49.3364)" d="M507.865 675.04C512.507 674.781 516.721 674.85 519.547 679.134C522.497 683.604 519.395 687.452 515.682 689.805C504.125 692.477 499.698 681.754 507.865 675.04Z"/><path fill="#A77479" transform="matrix(1.06004 0 0 1.09636 -30.7422 -49.3364)" d="M432.936 626.657C437.185 627.869 444.013 641.45 444.201 645.3C443.479 645.289 441.312 645.25 440.782 644.921C435.892 641.887 430.102 632.285 432.936 626.657Z"/><defs><linearGradient id="gradient_2" gradientUnits="userSpaceOnUse" x1="364.11993" y1="691.90948" x2="358.22214" y2="693.63678"><stop offset="0" stop-color="#A15F60"/><stop offset="1" stop-color="#AE7875"/></linearGradient></defs><path fill="url(#gradient_2)" transform="matrix(1.06004 0 0 1.09636 -30.7422 -49.3364)" d="M356.554 682.269C359.077 683.703 363.176 688.958 365.204 691.402C365.496 695.442 365.244 698.539 364.995 702.595C363.814 704.145 363.365 705.094 361.542 705.726L360.962 704.944C361.228 703.554 361.047 704.035 361.825 702.858C361.361 701.174 361.4 701.026 360.437 699.504C357.999 697.912 354.864 697.392 352.001 696.409C355.831 696.555 359.739 698.095 362.449 694.633C362.734 691.548 358.379 685.604 356.554 682.269Z"/><path fill="#9F636B" transform="matrix(1.06004 0 0 1.09636 -30.7422 -49.3364)" d="M498.558 669.583L498.854 670.181C492.246 676.081 482.872 678.135 474.241 678.529L473.907 678.317C474.956 677.25 481.451 676.583 484.258 675.646C489.715 673.823 493.462 672.082 498.558 669.583Z"/><path fill="#B68185" transform="matrix(1.06004 0 0 1.09636 -30.7422 -49.3364)" d="M577.904 595.006C577.014 601.019 580.054 598.306 573.83 603.26C573.384 603.351 573.674 603.338 572.99 603.03C573.269 601.13 576.496 598.207 577.904 595.006Z"/><path fill="#B68185" transform="matrix(1.06004 0 0 1.09636 -30.7422 -49.3364)" d="M563.542 623.935C566.374 624.908 570.044 628.079 570.763 631.101C567.743 630.542 565.159 626.328 563.542 623.935Z"/><path fill="#FBF2F1" transform="matrix(1.06004 0 0 1.09636 -30.7422 -49.3364)" d="M733.999 762.966C738.225 762.091 752.944 762.305 757.507 762.7C754.251 770.498 749.436 776.955 742.475 781.875C736.561 781.953 729.097 780.81 724.8 785.228L724.991 784.255L726.278 782.781C721.858 776.928 719.842 781.767 716.566 775.216C712.884 778.381 708.982 785.965 706.324 787.101C697.71 799.594 694.938 802.389 684.803 812.878C658.068 813.064 631.333 813.079 604.599 812.925L597.354 812.977L510.544 812.946C490.892 812.951 470.295 813.226 450.719 812.495L446.739 812.872C440.847 812.828 434.954 812.825 429.061 812.861C423.219 812.986 416.681 813.295 410.922 812.918L405.142 812.923C401.965 813.071 384.641 813.439 382.189 812.707L381.198 812.425C369.596 812.532 358.004 812.369 346.397 812.551C346.02 812.721 344.944 812.831 344.474 812.901C343.483 811.873 343.972 810.682 343.828 808.564C342.355 806.597 340.009 805.526 337.823 804.252C333.382 801.938 329.016 799.483 324.733 796.89C322.309 796.626 320.115 796.06 317.979 797.047C316.528 802.481 315.025 807.082 313.246 812.393L301.196 812.485L299.38 812.486C282.974 812.665 266.366 812.542 249.952 812.497C246.58 800.115 246.357 780.077 252.713 768.708C264.543 761.752 289.675 763.838 303.499 763.841L375.491 763.978C376.559 769.332 377.249 771.931 379.639 776.838L381.581 776.101C384.296 771.66 385.908 768.851 387.785 764.006L532.491 763.423C534.32 763.412 536.736 763.321 538.51 763.516L664.483 763.694C680.871 763.884 697.261 763.897 713.649 763.734C719.962 763.619 727.851 763.721 733.999 762.966Z"/><path fill="#94535D" transform="matrix(1.06004 0 0 1.09636 -30.7422 -49.3364)" d="M401.08 794.525C403.505 791.748 406.518 789.105 409.188 786.515C426.456 792.088 426.011 794.944 444.574 788.083C433.297 796.975 429.689 797.754 429.061 812.861C423.219 812.986 416.681 813.295 410.922 812.918L405.142 812.923C401.965 813.071 384.641 813.439 382.189 812.707C387.536 812.505 393.06 812.541 398.423 812.507C398.489 808.578 398.697 806.378 399.215 802.471C399.815 800.242 401.493 796.329 401.08 794.525Z"/><path fill="#A77479" transform="matrix(1.06004 0 0 1.09636 -30.7422 -49.3364)" d="M405.142 812.923C403.404 812.753 401.629 812.719 400.032 812.132C401.709 809.508 403.855 807.169 405.889 804.802C409.225 804.788 423.135 804.944 425.317 806.676C426.134 808.949 426.179 810.136 426.465 812.526C422.434 812.582 414.648 812.463 410.922 812.918L405.142 812.923Z"/><defs><linearGradient id="gradient_3" gradientUnits="userSpaceOnUse" x1="717.01459" y1="772.33948" x2="755.44519" y2="772.59943"><stop offset="0" stop-color="#A46B74"/><stop offset="1" stop-color="#B6898B"/></linearGradient></defs><path fill="url(#gradient_3)" transform="matrix(1.06004 0 0 1.09636 -30.7422 -49.3364)" d="M733.999 762.966C738.225 762.091 752.944 762.305 757.507 762.7C754.251 770.498 749.436 776.955 742.475 781.875C736.561 781.953 729.097 780.81 724.8 785.228L724.991 784.255L726.278 782.781C721.858 776.928 719.842 781.767 716.566 775.216C712.884 778.381 708.982 785.965 706.324 787.101C709.732 781.059 712.805 777.087 718.299 772.816C723.059 769.116 729.619 766.758 733.999 762.966Z"/><path fill="#B58D8E" transform="matrix(1.06004 0 0 1.09636 -30.7422 -49.3364)" d="M532.491 763.423C534.32 763.412 536.736 763.321 538.51 763.516C538.167 763.883 538.224 763.788 537.946 764.234C535.466 768.21 532.646 771.296 529.481 774.733C531.594 777.246 532.004 777.86 533.644 780.72C528.224 785.808 521.003 790.429 514.98 795.657C510.698 793.143 504.929 790.813 500.276 788.928C510.15 780.562 524.688 773.71 532.491 763.423Z"/><path fill="#B58D8E" transform="matrix(1.06004 0 0 1.09636 -30.7422 -49.3364)" d="M398.79 791.91C399.451 792.721 400.308 793.895 401.08 794.525C401.493 796.329 399.815 800.242 399.215 802.471C398.697 806.378 398.489 808.578 398.423 812.507C393.06 812.541 387.536 812.505 382.189 812.707L381.198 812.425C381.782 809.776 382.374 808.896 383.733 806.537L383.48 795.891C389.395 794.65 389.611 792.408 396.2 791.954L398.79 791.91Z"/><path fill="#94535D" transform="matrix(1.06004 0 0 1.09636 -30.7422 -49.3364)" d="M398.79 791.91C399.451 792.721 400.308 793.895 401.08 794.525C401.493 796.329 399.815 800.242 399.215 802.471L395.282 802.628C392.774 799.736 392.108 794.111 396.2 791.954L398.79 791.91Z"/><path fill="#9F636B" transform="matrix(1.06004 0 0 1.09636 -30.7422 -49.3364)" d="M398.79 791.91C399.451 792.721 400.308 793.895 401.08 794.525C401.493 796.329 399.815 800.242 399.215 802.471L395.282 802.628C399.485 801.791 397.867 796.172 398.79 791.91Z"/><path fill="#B58D8E" transform="matrix(1.06004 0 0 1.09636 -30.7422 -49.3364)" d="M606.846 793.645C609.145 795.432 611.064 796.658 612.683 799.067C611.252 801.392 604.964 811.249 604.599 812.925L597.354 812.977C598.975 804.79 601.004 803.009 592.205 799.57C598.911 797.754 600.81 797.081 606.846 793.645Z"/><path fill="#B58D8E" transform="matrix(1.06004 0 0 1.09636 -30.7422 -49.3364)" d="M337.823 804.252C342.608 802.501 358.684 797.405 363.172 798.928L363.512 799.829C361.603 803.818 350.742 808.917 346.397 812.551C346.02 812.721 344.944 812.831 344.474 812.901C343.483 811.873 343.972 810.682 343.828 808.564C342.355 806.597 340.009 805.526 337.823 804.252Z"/><path fill="#94535D" transform="matrix(1.06004 0 0 1.09636 -30.7422 -49.3364)" d="M316.163 773.598L318.793 773.323C320.922 776.803 323.138 777.951 324.985 781.111C325.154 787.137 322.249 793.626 324.733 796.89C322.309 796.626 320.115 796.06 317.979 797.047C316.781 795.844 315.563 794.662 314.325 793.499L314.53 792.968C315.882 792.968 316.85 793.049 318.168 792.698C320.351 789.355 317.044 777.935 316.163 773.598Z"/><path fill="#B58D8E" transform="matrix(1.06004 0 0 1.09636 -30.7422 -49.3364)" d="M614.704 790.129C616.65 782.86 618.512 785.873 624.748 783.908C627.073 783.175 628.93 781.06 631.35 780.981L632.509 781.473C632.732 785.448 622.304 793.194 619.363 795.711C618.099 794.762 616.446 793.669 615.489 792.502C615.391 791.168 615.42 791.26 614.704 790.129Z"/><path fill="#94535D" transform="matrix(1.06004 0 0 1.09636 -30.7422 -49.3364)" d="M379.639 776.838L381.581 776.101C379.905 779.569 376.458 784.4 375.536 786.827C373.738 791.56 374.472 802.019 369.876 805.68L368.7 805.696L368.404 805.018C371.913 798.963 372.885 793.863 371.545 786.772C371.216 784.997 370.798 783.187 370.413 781.419C371.136 779.893 371.413 778.762 371.876 777.159C372.617 777.515 373.836 778.05 374.504 778.441C377.502 778.852 377.651 779.132 379.639 776.838Z"/><path fill="#843642" transform="matrix(1.06004 0 0 1.09636 -30.7422 -49.3364)" d="M371.876 777.159C372.617 777.515 373.836 778.05 374.504 778.441C373.56 782.741 372.112 783.958 371.545 786.772C371.216 784.997 370.798 783.187 370.413 781.419C371.136 779.893 371.413 778.762 371.876 777.159Z"/><path fill="#9F636B" transform="matrix(1.06004 0 0 1.09636 -30.7422 -49.3364)" d="M446.739 812.872C446.918 812.33 447.104 811.791 447.298 811.255C449.177 806.059 452.342 799.631 459.254 802.143L459.495 803.003C457.945 805.952 453.137 809.022 450.719 812.495L446.739 812.872Z"/><path fill="#9F636B" transform="matrix(1.06004 0 0 1.09636 -30.7422 -49.3364)" d="M299.38 812.486C296.968 803.388 293.847 798.774 290.88 790.712C295.811 796.637 300.183 804.765 301.196 812.485L299.38 812.486Z"/><path fill="#B58D8E" transform="matrix(1.06004 0 0 1.09636 -30.7422 -49.3364)" d="M614.704 790.129C615.42 791.26 615.391 791.168 615.489 792.502C613.556 794.009 614.312 796.389 612.683 799.067C611.064 796.658 609.145 795.432 606.846 793.645C609.978 791.648 611.045 790.868 614.704 790.129Z"/><path fill="#A77479" transform="matrix(1.06004 0 0 1.09636 -30.7422 -49.3364)" d="M370.413 781.419C367.018 780.897 368.207 786.172 364.967 788.441C364.154 783.512 367.576 779.182 371.876 777.159C371.413 778.762 371.136 779.893 370.413 781.419Z"/><path fill="#9F636B" transform="matrix(1.06004 0 0 1.09636 -30.7422 -49.3364)" d="M316.163 773.598L315.433 770.245C315.93 768.564 315.96 768.694 317.323 767.544C318.769 767.523 318.091 767.345 319.304 768.388C319.992 770.176 319.345 771.417 318.793 773.323L316.163 773.598Z"/><path fill="#E4CCCC" transform="matrix(1.06004 0 0 1.09636 -30.7422 -49.3364)" d="M481.655 779.104C482.073 781.47 474.128 783.288 472.163 783.369L471.881 782.627C474.244 781.534 477.813 780.868 481.655 779.104Z"/><path fill="#FBF2F1" transform="matrix(1.06004 0 0 1.09636 -30.7422 -49.3364)" d="M623.377 612.869C630.728 609.632 635.798 607.535 640.012 600.323C657.053 643.619 671.256 671.962 697.527 711.117C699.253 712.472 700.569 714.279 701.329 716.337C708.683 726.895 720.783 740.127 726.403 750.907C719.342 750.972 708.459 750.516 702.031 750.932C701.213 751.054 687.592 751.112 686.279 751.043C676.87 750.543 657.192 752.017 648.692 750.412C626.74 750.597 604.786 750.576 582.834 750.346C591.917 722.964 603.62 731.601 613.562 716.161C612.096 713.099 610.236 710.137 608.493 707.216C608.427 704.956 608.578 703.219 608.743 700.981L607.967 699.398C604.04 701.994 595.202 702.606 592.257 698.787C591.747 693.938 599.624 685.367 602.103 680.857C606.572 672.729 608.752 665.733 610.918 656.804C614.443 642.272 618.641 627.05 623.377 612.869Z"/><path fill="#94535D" transform="matrix(1.06004 0 0 1.09636 -30.7422 -49.3364)" d="M697.527 711.117C699.253 712.472 700.569 714.279 701.329 716.337C708.683 726.895 720.783 740.127 726.403 750.907C719.342 750.972 708.459 750.516 702.031 750.932C701.213 751.054 687.592 751.112 686.279 751.043C676.87 750.543 657.192 752.017 648.692 750.412C652.936 749.381 657.483 746.253 661.251 744.03C677.629 734.367 686.2 726.564 697.527 711.117Z"/><path fill="#FBF2F1" transform="matrix(1.06004 0 0 1.09636 -30.7422 -49.3364)" d="M701.329 716.337C708.683 726.895 720.783 740.127 726.403 750.907C719.342 750.972 708.459 750.516 702.031 750.932C700.076 750.799 699.684 750.768 697.798 750.318C696.151 747.685 700.674 721.564 701.329 716.337Z"/><path fill="#B68185" transform="matrix(1.06004 0 0 1.09636 -30.7422 -49.3364)" d="M607.967 699.398C608.659 684.269 609.074 682.82 623.366 675.902C614.865 683.917 611.275 689.275 608.743 700.981L607.967 699.398Z"/><path fill="#A77479" transform="matrix(1.06004 0 0 1.09636 -30.7422 -49.3364)" d="M655.65 670.371C658.929 672.812 661.95 684.438 660.961 688.564C659.767 693.547 655.036 691.19 652.145 690.014C649.567 688.744 647.331 687.102 644.954 685.484C648.337 678.826 649.798 675.076 655.65 670.371Z"/><path fill="#B58D8E" transform="matrix(1.06004 0 0 1.09636 -30.7422 -49.3364)" d="M633.75 711.59C636.832 711.436 638.318 711.072 640.521 713.509C642.124 718.024 636.07 725.851 632.713 724.46L632.541 722.882C632.191 720.3 632.424 718.956 629.981 717.845C628.018 718.941 629.495 719.954 627.346 721.544C625.647 720.466 626.321 721.154 625.31 719.339C625.238 715.448 630.364 712.357 633.75 711.59Z"/><path fill="#B68185" transform="matrix(1.06004 0 0 1.09636 -30.7422 -49.3364)" d="M647.733 720.974L648.109 721.225C647.714 723.21 639.139 730.741 637.182 732.586L636.771 731.743C638.013 727.668 644.327 723.405 647.733 720.974Z"/><path fill="#FBF2F1" transform="matrix(1.06004 0 0 1.09636 -30.7422 -49.3364)" d="M420.174 825.837L420.987 826.511C421.191 831.698 420.687 833.173 426.331 835.082C434.51 837.849 438.097 840.493 442.617 847.857C449.157 860.372 448.588 874.342 447.484 888.109C432.345 888.269 417.205 888.333 402.065 888.301C396.924 888.303 383.793 887.976 379.319 888.521C377.903 888.634 374.465 888.424 372.896 888.373C367.254 888.348 361.074 888.19 355.482 888.507C352.76 888.67 347.655 888.966 345.102 888.243C342.306 887.909 339.515 888.008 336.695 888.019C329.885 887.766 322.557 888.127 315.434 887.907L309.516 887.933C303.263 887.996 268.211 888.797 265.449 886.137C265.172 883.677 266.117 882.765 267.58 880.558C268.263 877.875 269.618 875.08 270.535 872.487C272.299 867.499 271.018 867.076 266.956 865.35C269.271 865.087 269.362 865.107 271.643 865.713C273.411 864.767 273.505 863.94 273.66 862.151C275.833 863.356 277.722 862.332 279.997 861.546C282.106 862.397 281.939 862.052 282.81 864.315C287.066 864.914 285.886 863.692 289.452 863.139C290.948 863.552 290.243 863.623 291.635 862.892L294.242 861.599L295.347 858.984L295.863 858.52C296.93 860.039 298.505 861.43 300.321 860.423C302.444 856.084 304.3 855.958 305.617 852.681C306.647 849.305 306.279 845.018 307.669 841.819C308.201 840.597 308.753 839.202 309.719 838.352L310.366 838.695C310.677 841.461 305.994 845.074 308.029 849.359C308.051 846.5 311.806 836.206 314.033 834.353C318.786 824.007 325.27 826.084 334.745 825.896C362.891 825.337 392.129 827.216 420.174 825.837Z"/><path fill="#FBF2F1" transform="matrix(1.06004 0 0 1.09636 -30.7422 -49.3364)" d="M273.66 862.151C275.833 863.356 277.722 862.332 279.997 861.546C282.106 862.397 281.939 862.052 282.81 864.315C287.066 864.914 285.886 863.692 289.452 863.139C288.69 865.959 288.258 866.747 289.046 869.483C292.856 872.269 296.045 874.595 300.085 877.085C302.884 879.24 309.206 883.974 309.691 887.541L309.516 887.933C303.263 887.996 268.211 888.797 265.449 886.137C265.172 883.677 266.117 882.765 267.58 880.558C268.263 877.875 269.618 875.08 270.535 872.487C272.299 867.499 271.018 867.076 266.956 865.35C269.271 865.087 269.362 865.107 271.643 865.713C273.411 864.767 273.505 863.94 273.66 862.151Z"/><path fill="#94535D" transform="matrix(1.06004 0 0 1.09636 -30.7422 -49.3364)" d="M273.66 862.151C275.833 863.356 277.722 862.332 279.997 861.546C282.106 862.397 281.939 862.052 282.81 864.315C287.066 864.914 285.886 863.692 289.452 863.139C288.69 865.959 288.258 866.747 289.046 869.483C279.888 875.385 277.763 877.078 267.58 880.558C268.263 877.875 269.618 875.08 270.535 872.487C272.299 867.499 271.018 867.076 266.956 865.35C269.271 865.087 269.362 865.107 271.643 865.713C273.411 864.767 273.505 863.94 273.66 862.151Z"/><path fill="#E4CCCC" transform="matrix(1.06004 0 0 1.09636 -30.7422 -49.3364)" d="M273.66 862.151C275.833 863.356 277.722 862.332 279.997 861.546C282.106 862.397 281.939 862.052 282.81 864.315C279.671 864.603 272.798 866.609 271.643 865.713C273.411 864.767 273.505 863.94 273.66 862.151Z"/><path fill="#94535D" transform="matrix(1.06004 0 0 1.09636 -30.7422 -49.3364)" d="M295.863 858.52C296.93 860.039 298.505 861.43 300.321 860.423C302.444 856.084 304.3 855.958 305.617 852.681C306.647 849.305 306.279 845.018 307.669 841.819C308.201 840.597 308.753 839.202 309.719 838.352L310.366 838.695C310.677 841.461 305.994 845.074 308.029 849.359C308.051 846.5 311.806 836.206 314.033 834.353C306.633 854.425 303.751 864.272 313.326 885.249C313.905 886.517 314.144 887.041 315.343 887.561L315.434 887.907L309.516 887.933L309.691 887.541C309.206 883.974 302.884 879.24 300.085 877.085C296.045 874.595 292.856 872.269 289.046 869.483C288.258 866.747 288.69 865.959 289.452 863.139C290.948 863.552 290.243 863.623 291.635 862.892L294.242 861.599L295.347 858.984L295.863 858.52Z"/><path fill="#9F636B" transform="matrix(1.06004 0 0 1.09636 -30.7422 -49.3364)" d="M291.635 862.892L294.242 861.599C295.151 863.852 298.19 866.587 298.29 867.069C298.986 870.423 299.107 873.661 300.085 877.085C296.045 874.595 292.856 872.269 289.046 869.483C288.258 866.747 288.69 865.959 289.452 863.139C290.948 863.552 290.243 863.623 291.635 862.892Z"/><path fill="#94535D" transform="matrix(1.06004 0 0 1.09636 -30.7422 -49.3364)" d="M345.102 888.243L346.566 887.747C344.795 884.573 341.121 884.44 341.244 880.579C344.316 879.186 354.246 879.335 358.103 879.257C356.561 881.649 354.061 884.803 353.406 887.247L353.738 888.022L355.482 888.507C352.76 888.67 347.655 888.966 345.102 888.243Z"/><path fill="#B68185" transform="matrix(1.06004 0 0 1.09636 -30.7422 -49.3364)" d="M325.122 861.806C330.879 865.965 332.487 867.632 334.034 875.251C334.667 878.363 334.397 884.734 335.28 887.266L336.695 888.019C329.885 887.766 322.557 888.127 315.434 887.907L315.343 887.561C321.384 887.586 327.425 887.567 333.466 887.506C333.476 879.854 333.714 874.969 329.382 868.157C327.946 865.898 326.132 864.054 325.122 861.806Z"/><path fill="#94535D" transform="matrix(1.06004 0 0 1.09636 -30.7422 -49.3364)" d="M372.896 888.373C373.195 886.565 373.228 885.011 374.311 883.593L375.044 883.584C376.424 885.32 376.717 885.792 377.698 887.782L379.319 888.521C377.903 888.634 374.465 888.424 372.896 888.373Z"/><defs><linearGradient id="gradient_4" gradientUnits="userSpaceOnUse" x1="362.27371" y1="862.18488" x2="384.48608" y2="866.42706"><stop offset="0" stop-color="#8E5D64"/><stop offset="1" stop-color="#B79898"/></linearGradient></defs><path fill="url(#gradient_4)" transform="matrix(1.06004 0 0 1.09636 -30.7422 -49.3364)" d="M386.465 856.027C386.681 861.614 381.076 872.697 377.507 876.702C377.675 867.96 378.573 866.473 370.016 863.624C366.575 862.752 362.95 861.944 359.677 860.621C369.418 861.462 372.338 862.594 381.711 865.798C383.619 862.566 384.938 859.447 386.465 856.027Z"/><path fill="#94535D" transform="matrix(1.06004 0 0 1.09636 -30.7422 -49.3364)" d="M322.962 834.992C328.21 839.834 332.667 846.223 338.327 850.478C342.936 853.944 348.499 856.07 353.255 859.58C340.57 858.823 328.831 845.188 322.962 834.992Z"/><path fill="#B58D8E" transform="matrix(1.06004 0 0 1.09636 -30.7422 -49.3364)" d="M762.064 825.777C766.499 825.573 787.423 824.934 790.451 826.095C795.219 827.98 802.424 830.017 805.322 835.153C808.123 840.115 811.129 890.631 802.135 886.568C799.954 883.446 798.141 878.275 794.186 877.598C787.694 876.488 781.311 882.82 777.154 887.01C770.601 887.187 764.043 887.167 757.49 886.953C754.431 881.104 750.422 877.002 747.173 871.575C744.663 869.714 746.125 868.665 741.849 868.388C739.876 867.769 740.598 868.341 739.495 866.764C738.86 862.939 740.048 860.372 741.232 856.676C739.176 858.204 736.96 860.194 735.009 861.834C730.727 865.434 723.79 871.846 718.891 865.404C718.107 864.373 717.124 860.477 716.735 859.083C705.822 864.171 704.518 869.113 691.637 862.254C691.467 854.372 691.485 848.438 692.753 840.704C693.806 834.288 684.186 835.136 679.884 835.376C684.898 833.09 697.54 828.323 702.928 827.631C722.025 825.177 742.824 826.339 762.064 825.777Z"/><path fill="#FBF2F1" transform="matrix(1.06004 0 0 1.09636 -30.7422 -49.3364)" d="M762.064 825.777C766.499 825.573 787.423 824.934 790.451 826.095C795.219 827.98 802.424 830.017 805.322 835.153C808.123 840.115 811.129 890.631 802.135 886.568C799.954 883.446 798.141 878.275 794.186 877.598C787.694 876.488 781.311 882.82 777.154 887.01C770.601 887.187 764.043 887.167 757.49 886.953C754.431 881.104 750.422 877.002 747.173 871.575C748.319 869.453 749.495 867.348 750.703 865.261C752.602 863.565 752.057 863.547 754.201 863.142C755.821 863.862 756.116 864.311 757.336 865.553C757.252 864.792 756.778 860.765 757.017 860.444C760.746 855.456 765.122 851.18 770.131 848.194C770.407 845.652 770.356 843.211 770.367 840.657L770.284 840.096C767.807 836.888 765.913 836.299 762.286 834.636C762.277 832.457 762.213 830.279 762.093 828.103L762.064 825.777Z"/><path fill="#A77479" transform="matrix(1.06004 0 0 1.09636 -30.7422 -49.3364)" d="M762.064 825.777C766.499 825.573 787.423 824.934 790.451 826.095C788.041 828.266 780.844 838.243 788.288 840.494C789.287 840.796 794.332 835.826 796.379 835.556C796.541 836.75 795.907 837.79 795.188 838.695C790.585 844.492 781.55 841.292 786.282 851.409C783.729 851.547 783.365 851.557 781.413 853.262L780.726 851.407L780.105 851.257C775.037 858.776 776.243 861.925 766.794 867.05C769.706 870.878 770.674 873.586 772.329 878.086C764.417 874.173 762.95 872.378 757.336 865.553C757.252 864.792 756.778 860.765 757.017 860.444C760.746 855.456 765.122 851.18 770.131 848.194C770.407 845.652 770.356 843.211 770.367 840.657L770.284 840.096C767.807 836.888 765.913 836.299 762.286 834.636C762.277 832.457 762.213 830.279 762.093 828.103L762.064 825.777Z"/><path fill="#B58D8E" transform="matrix(1.06004 0 0 1.09636 -30.7422 -49.3364)" d="M781.413 853.262C783.365 851.557 783.729 851.547 786.282 851.409C786.073 853.752 786.238 854.637 784.864 856.386L783.799 856.804C782.405 856.057 781.917 854.788 781.413 853.262Z"/><path fill="#94535D" transform="matrix(1.06004 0 0 1.09636 -30.7422 -49.3364)" d="M743.143 864.921C743.835 860.924 747.044 856.709 750.008 854.056C753.243 851.16 755.777 850.695 759.819 849.682C757.679 853.44 755.561 856.604 752.361 859.556C751.504 861.687 750.829 862.941 750.703 865.261C749.495 867.348 748.319 869.453 747.173 871.575C744.663 869.714 746.125 868.665 741.849 868.388C742.712 867.123 742.783 866.39 743.143 864.921Z"/><path fill="#9F636B" transform="matrix(1.06004 0 0 1.09636 -30.7422 -49.3364)" d="M743.143 864.921C747.609 866.276 746.745 862.265 752.361 859.556C751.504 861.687 750.829 862.941 750.703 865.261C749.495 867.348 748.319 869.453 747.173 871.575C744.663 869.714 746.125 868.665 741.849 868.388C742.712 867.123 742.783 866.39 743.143 864.921Z"/><path fill="#9F636B" transform="matrix(1.06004 0 0 1.09636 -30.7422 -49.3364)" d="M762.093 828.103C762.213 830.279 762.277 832.457 762.286 834.636C765.913 836.299 767.807 836.888 770.284 840.096L770.367 840.657C768.91 841.294 766.445 842.232 765.285 843.187C762.123 842.764 762.224 842.75 760.885 840.082C760.548 838.24 759.077 835.365 758.254 833.53C759.721 830.972 760.144 830.295 762.093 828.103Z"/><path fill="#B68185" transform="matrix(1.06004 0 0 1.09636 -30.7422 -49.3364)" d="M760.885 840.082C762.224 842.75 762.123 842.764 765.285 843.187C764.305 844.826 763.972 845.378 762.491 845.899L761.713 845.253C760.824 843.285 760.966 842.302 760.885 840.082Z"/><path fill="#94535D" transform="matrix(1.06004 0 0 1.09636 -30.7422 -49.3364)" d="M706.395 831.652C707.543 827.573 711.329 829.084 713.635 830.978C715.632 829.771 715.618 829.339 717.605 829.296C718.648 831.852 713.523 840.458 711.731 842.709C708.713 841.333 705.592 839.875 703.08 837.654C701.846 836.591 700.743 835.027 699.726 833.71C702.528 832.565 703.351 832.201 706.395 831.652Z"/><path fill="#B58D8E" transform="matrix(1.06004 0 0 1.09636 -30.7422 -49.3364)" d="M706.395 831.652C707.543 827.573 711.329 829.084 713.635 830.978L711.387 832.32C709.797 832.225 707.993 831.899 706.395 831.652Z"/><path fill="#B58D8E" transform="matrix(1.06004 0 0 1.09636 -30.7422 -49.3364)" d="M550.038 825.89C554.058 825.352 561.47 825.55 565.767 825.543L593.782 825.497C623.001 825.453 653.22 825.031 682.348 825.715C678.697 829.266 672.94 832.929 668.657 835.791C658.42 842.632 652.507 852.859 640.019 855.54C633.359 856.969 620.355 865.677 613.681 862.822C612.088 864.03 610.665 865.012 609.29 866.482C601.982 871.391 590.783 874.798 581.197 880.728L581.016 882.501C581.024 885.928 580.748 887.805 576.705 888.472C575.129 887.909 575.081 888.043 574.085 886.751C573.761 885.212 574.138 884.727 574.758 883.272L574.982 882.761C571.853 877.983 559.9 867.042 554.26 868.44C553.541 867.927 549.274 862.795 548.288 861.705C541.763 854.492 535.794 849.544 534.027 839.608C538.347 835.689 547.06 830.3 550.038 825.89Z"/><path fill="#94535D" transform="matrix(1.06004 0 0 1.09636 -30.7422 -49.3364)" d="M581.016 882.501L576.799 882.431L576.637 881.834C577.921 877.22 580.885 870.451 583.37 866.343C582.514 871.117 581.79 875.914 581.197 880.728L581.016 882.501Z"/><path fill="#94535D" transform="matrix(1.06004 0 0 1.09636 -30.7422 -49.3364)" d="M609.29 866.482C608.758 864.331 607.84 862.569 609.876 861.224C611.653 861.513 612.147 861.93 613.681 862.822C612.088 864.03 610.665 865.012 609.29 866.482Z"/><path fill="#94535D" transform="matrix(1.06004 0 0 1.09636 -30.7422 -49.3364)" d="M606.022 826.282C607.327 826.952 609.649 828.516 610.977 829.349C607.254 837.583 606.094 848.954 596.61 852.072C594.902 852.075 594.832 852.194 593.313 851.314C590.865 846.017 601.946 830.117 606.022 826.282Z"/><path fill="#FBF2F1" transform="matrix(1.06004 0 0 1.09636 -30.7422 -49.3364)" d="M231.847 825.992C234.346 825.963 238.427 825.353 241.184 825.177C246.346 824.847 250.879 824.943 256.042 825.06C260.491 825.01 306.396 824.724 307.5 825.493L307.541 826.132C297.366 829.975 296.586 837.639 293.58 847.085C294.781 849.305 294.822 849.198 294.326 851.877C293.824 854.591 296.069 855.06 296.793 857.203L295.863 858.52L295.347 858.984L294.242 861.599L291.635 862.892C290.243 863.623 290.948 863.552 289.452 863.139C285.886 863.692 287.066 864.914 282.81 864.315C281.939 862.052 282.106 862.397 279.997 861.546C277.722 862.332 275.833 863.356 273.66 862.151C273.505 863.94 273.411 864.767 271.643 865.713C269.362 865.107 269.271 865.087 266.956 865.35C259.201 869.463 259.17 878.383 253.308 882.815C248.629 886.352 236.289 884.167 230.649 883.175C226.312 886.66 224.646 886.75 219.318 887.538C212.637 880.743 213.91 865.092 213.925 855.957C213.941 845.909 213.256 836.1 220.628 828.414C221.726 827.41 222.87 826.783 224.133 825.976C227.036 825.818 228.961 825.871 231.847 825.992Z"/><path fill="#9F636B" transform="matrix(1.06004 0 0 1.09636 -30.7422 -49.3364)" d="M231.847 825.992C234.346 825.963 238.427 825.353 241.184 825.177C246.346 824.847 250.879 824.943 256.042 825.06C260.491 825.01 306.396 824.724 307.5 825.493L307.541 826.132C297.366 829.975 296.586 837.639 293.58 847.085C294.781 849.305 294.822 849.198 294.326 851.877C293.824 854.591 296.069 855.06 296.793 857.203L295.863 858.52L295.347 858.984L294.242 861.599L291.635 862.892C290.243 863.623 290.948 863.552 289.452 863.139C285.886 863.692 287.066 864.914 282.81 864.315C281.939 862.052 282.106 862.397 279.997 861.546C277.722 862.332 275.833 863.356 273.66 862.151C273.362 858.949 274.413 852.36 274.67 848.494C270.964 841.494 267.337 838.735 260.917 834.442C255.66 836.403 250.321 838.386 245.229 840.577C237.833 843.76 230.767 849.107 222.301 847.569C220.006 847.152 217.781 845.913 215.714 844.876C216.92 840.662 217.126 840.369 219.652 836.755C222.25 833.04 221.479 832.257 220.628 828.414C221.726 827.41 222.87 826.783 224.133 825.976C227.036 825.818 228.961 825.871 231.847 825.992Z"/><path fill="#FBF2F1" transform="matrix(1.06004 0 0 1.09636 -30.7422 -49.3364)" d="M256.042 825.06C260.491 825.01 306.396 824.724 307.5 825.493L307.541 826.132C297.366 829.975 296.586 837.639 293.58 847.085C292.814 849.586 291.916 852.243 291.416 854.793C288.437 852.511 285.748 850.654 282.631 848.555C277.705 844.872 281.962 843.243 274.406 841.433C272.113 840.884 265.657 834.99 262.862 833.025C258.291 832.729 250.085 833.415 245.073 833.515C247.759 831.362 250.055 829.645 252.363 827.078L252.675 825.675C254.095 825.209 254.571 825.218 256.042 825.06Z"/><path fill="#A77479" transform="matrix(1.06004 0 0 1.09636 -30.7422 -49.3364)" d="M293.58 847.085C294.781 849.305 294.822 849.198 294.326 851.877C293.824 854.591 296.069 855.06 296.793 857.203L295.863 858.52L295.347 858.984L294.242 861.599L291.635 862.892C290.243 863.623 290.948 863.552 289.452 863.139C285.886 863.692 287.066 864.914 282.81 864.315C281.939 862.052 282.106 862.397 279.997 861.546L280.794 861.533C283.935 861.44 286.069 861.203 285.998 857.428C284.911 855.857 285.612 856.296 284.002 855.819C283.43 856.855 283.244 857.115 282.514 858.052L281.608 858.049L280.68 856.804C280.67 854.266 282.1 851.735 282.631 848.555C285.748 850.654 288.437 852.511 291.416 854.793C291.916 852.243 292.814 849.586 293.58 847.085Z"/><path fill="#B58D8E" transform="matrix(1.06004 0 0 1.09636 -30.7422 -49.3364)" d="M291.635 862.892C290.714 861.044 290.101 859.493 291.7 858.047C293.436 857.861 293.798 858.203 295.347 858.984L294.242 861.599L291.635 862.892Z"/><path fill="#E4CCCC" transform="matrix(1.06004 0 0 1.09636 -30.7422 -49.3364)" d="M231.847 825.992C234.346 825.963 238.427 825.353 241.184 825.177C246.346 824.847 250.879 824.943 256.042 825.06C254.571 825.218 254.095 825.209 252.675 825.675L252.363 827.078C250.007 826.195 240.213 828.846 237.069 829.557C235.477 829.1 230.966 828.133 230.409 826.729L231.847 825.992Z"/><path fill="#FBF2F1" transform="matrix(1.06004 0 0 1.09636 -30.7422 -49.3364)" d="M542.643 826.602L550.038 825.89C547.06 830.3 538.347 835.689 534.027 839.608C535.794 849.544 541.763 854.492 548.288 861.705C549.274 862.795 553.541 867.927 554.26 868.44C556.551 873.595 556.55 878.536 556.884 884.098L564.612 887.043C553.305 888.373 536.261 887.977 524.721 887.986L462.543 887.941C467.365 878.367 473.992 872.117 484.529 869.11C486.941 868.422 489.267 867.148 491.816 867.185L492.308 867.833L491.767 870.575C496.088 870.21 529.898 835.881 535.222 830.08C538.035 827.109 538.502 827.104 542.643 826.602Z"/><path fill="#FBF2F1" transform="matrix(1.06004 0 0 1.09636 -30.7422 -49.3364)" d="M649.554 860.425C654.444 856.49 673.323 837.024 679.208 838.759C681.324 840.782 683.235 851.735 684.319 855.629L685.29 856.928C686.007 858.618 687.754 862.116 687.637 863.728L686.986 863.787C684.897 864.749 685.075 864.306 683.882 865.927C691.139 867.343 695.898 870.612 703.193 871.969C708.835 873.018 721.645 871.287 725.811 873.65C726.795 875.464 726.288 876.526 725.717 878.667C724.58 881.547 723.571 884.103 722.624 887.057L714.785 887.118C709.754 888.279 658.889 888.081 653.256 887.418C648.851 886.988 636.442 887.392 631.498 887.506C626.936 887.62 623.272 887.682 618.693 887.436C620.54 885.042 621.037 884.526 623.356 882.585C627.471 879.12 637.319 872.372 639.375 868.37L637.068 866.311C628.807 867.156 623.835 869.514 618.358 876.058C617.094 877.141 615.651 878.601 614.133 879.074C614.609 877.799 616.785 875.557 617.863 874.066C625.937 866.106 628.288 865.724 639.61 863.851C643.237 862.614 646.4 862.45 649.554 860.425Z"/><path fill="#E4CCCC" transform="matrix(1.06004 0 0 1.09636 -30.7422 -49.3364)" d="M649.554 860.425C654.444 856.49 673.323 837.024 679.208 838.759C681.324 840.782 683.235 851.735 684.319 855.629L685.29 856.928C686.007 858.618 687.754 862.116 687.637 863.728L686.986 863.787C684.897 864.749 685.075 864.306 683.882 865.927L681.768 865.995L680.157 861.065C678.913 860.299 678.048 860.388 676.5 860.173C669.325 861.058 662.164 862.125 655.507 865.097C653.812 864.021 651.941 864.636 650.048 865.027L645.846 865.054L639.922 868.732L639.375 868.37L637.068 866.311C628.807 867.156 623.835 869.514 618.358 876.058C617.094 877.141 615.651 878.601 614.133 879.074C614.609 877.799 616.785 875.557 617.863 874.066C625.937 866.106 628.288 865.724 639.61 863.851C643.237 862.614 646.4 862.45 649.554 860.425Z"/><path fill="#B68185" transform="matrix(1.06004 0 0 1.09636 -30.7422 -49.3364)" d="M684.319 855.629L685.29 856.928C686.007 858.618 687.754 862.116 687.637 863.728L686.986 863.787C684.897 864.749 685.075 864.306 683.882 865.927L681.768 865.995L680.157 861.065C678.913 860.299 678.048 860.388 676.5 860.173C669.325 861.058 662.164 862.125 655.507 865.097C653.812 864.021 651.941 864.636 650.048 865.027L645.846 865.054L639.922 868.732L639.375 868.37L637.068 866.311C628.807 867.156 623.835 869.514 618.358 876.058C617.094 877.141 615.651 878.601 614.133 879.074C614.609 877.799 616.785 875.557 617.863 874.066C625.937 866.106 628.288 865.724 639.61 863.851C643.237 862.614 646.4 862.45 649.554 860.425C650.966 862.523 650.442 862.466 652.366 863.181C659.213 861.301 665.633 859.523 672.668 858.483C675.393 858.08 682.31 857.108 684.319 855.629Z"/><path fill="#B58D8E" transform="matrix(1.06004 0 0 1.09636 -30.7422 -49.3364)" d="M639.61 863.851L640.307 864.463C642.527 863.956 648.313 862.034 649.796 862.183L650.388 862.933L650.172 863.908C645.942 863.807 643.914 864.586 640.672 867.424C639.295 867.282 638.989 866.912 637.819 866.145L637.068 866.311C628.807 867.156 623.835 869.514 618.358 876.058C617.094 877.141 615.651 878.601 614.133 879.074C614.609 877.799 616.785 875.557 617.863 874.066C625.937 866.106 628.288 865.724 639.61 863.851Z"/><path fill="#B58D8E" transform="matrix(1.06004 0 0 1.09636 -30.7422 -49.3364)" d="M685.29 856.928C686.007 858.618 687.754 862.116 687.637 863.728L686.986 863.787C684.897 864.749 685.075 864.306 683.882 865.927L681.768 865.995L680.157 861.065C678.913 860.299 678.048 860.388 676.5 860.173C676.607 860.125 676.714 860.076 676.821 860.028C679.672 859.868 682.605 858.206 685.29 856.928Z"/><path fill="#9F636B" transform="matrix(1.06004 0 0 1.09636 -30.7422 -49.3364)" d="M680.157 861.065C683.285 860.89 684.221 861.959 686.986 863.787C684.897 864.749 685.075 864.306 683.882 865.927L681.768 865.995L680.157 861.065Z"/><path fill="#B58D8E" transform="matrix(1.06004 0 0 1.09636 -30.7422 -49.3364)" d="M681.768 865.995L683.882 865.927C691.139 867.343 695.898 870.612 703.193 871.969C708.835 873.018 721.645 871.287 725.811 873.65C726.795 875.464 726.288 876.526 725.717 878.667C724.58 881.547 723.571 884.103 722.624 887.057L714.785 887.118L699.791 887.073C701.348 881.857 703.796 876.557 695.492 876.692C693.733 876.721 693.564 877.32 692.428 878.512C690.381 870.201 684.004 875.229 681.768 865.995Z"/><path fill="#A77479" transform="matrix(1.06004 0 0 1.09636 -30.7422 -49.3364)" d="M645.846 865.054L650.048 865.027C650.942 866.952 651.005 866.378 650.796 868.213C650.498 870.442 650.614 870.746 650.984 873.016C645.758 874.264 644.854 873.818 641.633 879.07L641.432 878.5C640.817 876.79 641.064 876.771 639.847 875.697C636.585 876.222 631.292 884.102 629.319 886.8L631.498 887.506C626.936 887.62 623.272 887.682 618.693 887.436C620.54 885.042 621.037 884.526 623.356 882.585C627.471 879.12 637.319 872.372 639.375 868.37L639.922 868.732L645.846 865.054Z"/><path fill="#9F636B" transform="matrix(1.06004 0 0 1.09636 -30.7422 -49.3364)" d="M645.846 865.054L650.048 865.027C650.942 866.952 651.005 866.378 650.796 868.213C650.498 870.442 650.614 870.746 650.984 873.016C649.001 872.859 646.003 872.895 643.936 872.851C641.77 871.46 640.716 871.071 639.922 868.732L645.846 865.054Z"/><path fill="#94535D" transform="matrix(1.06004 0 0 1.09636 -30.7422 -49.3364)" d="M645.846 865.054L650.048 865.027C650.942 866.952 651.005 866.378 650.796 868.213C649.523 868.369 649.6 868.322 648.301 868.236C646.693 867.28 646.624 866.747 645.846 865.054Z"/><path fill="#B58D8E" transform="matrix(1.06004 0 0 1.09636 -30.7422 -49.3364)" d="M623.356 882.585C625.864 885.39 626.563 884.884 629.319 886.8L631.498 887.506C626.936 887.62 623.272 887.682 618.693 887.436C620.54 885.042 621.037 884.526 623.356 882.585Z"/><path fill="#94535D" transform="matrix(1.06004 0 0 1.09636 -30.7422 -49.3364)" d="M692.428 878.512C693.564 877.32 693.733 876.721 695.492 876.692C703.796 876.557 701.348 881.857 699.791 887.073L714.785 887.118C709.754 888.279 658.889 888.081 653.256 887.418C661.794 886.593 682.804 887.129 692.351 887.13C692.62 883.616 692.804 882.022 692.428 878.512Z"/><path fill="#A77479" transform="matrix(1.06004 0 0 1.09636 -30.7422 -49.3364)" d="M650.048 865.027C651.941 864.636 653.812 864.021 655.507 865.097C655.96 871.885 654.723 868.843 650.984 873.016C650.614 870.746 650.498 870.442 650.796 868.213C651.005 866.378 650.942 866.952 650.048 865.027Z"/><path fill="#B58D8E" transform="matrix(1.06004 0 0 1.09636 -30.7422 -49.3364)" d="M420.174 825.837C423.119 824.158 437.804 825.821 442.16 825.613C470.752 824.37 502.093 826.395 530.995 825.445L534.346 825.39C536.725 825.756 540.355 826.418 542.643 826.602C538.502 827.104 538.035 827.109 535.222 830.08C533.61 827.636 532.986 826.399 530.002 826.072C522.255 834.353 516.339 845.598 507.61 850.522C502.923 853.166 495.595 855.274 490.192 858.204C487.309 861.073 483.349 865.503 478.777 863.649C478.601 862.575 478.472 862.175 478.141 861.131L477.287 860.802C476.121 861.719 475.878 862.038 474.471 862.533L473.66 861.974C473.921 860.367 474.216 859.667 473.47 858.123L469.783 862.424C465.914 856.898 464.021 853.209 461.61 846.985C459.289 848.937 457.334 850.751 455.13 852.823C451.203 850.619 446.539 846.976 442.617 847.857C438.097 840.493 434.51 837.849 426.331 835.082C420.687 833.173 421.191 831.698 420.987 826.511L420.174 825.837Z"/><defs><linearGradient id="gradient_5" gradientUnits="userSpaceOnUse" x1="449.7533" y1="826.65222" x2="435.46735" y2="843.19696"><stop offset="0" stop-color="#8C4651"/><stop offset="1" stop-color="#9C6168"/></linearGradient></defs><path fill="url(#gradient_5)" transform="matrix(1.06004 0 0 1.09636 -30.7422 -49.3364)" d="M420.174 825.837C423.119 824.158 437.804 825.821 442.16 825.613L442.699 826.075C445.248 828.899 447.014 830.92 449.265 833.965C453.917 834.044 457.065 834.307 461.705 834.832C462.114 840.363 461.793 841.734 461.61 846.985C459.289 848.937 457.334 850.751 455.13 852.823C451.203 850.619 446.539 846.976 442.617 847.857C438.097 840.493 434.51 837.849 426.331 835.082C420.687 833.173 421.191 831.698 420.987 826.511L420.174 825.837Z"/><path fill="#A77479" transform="matrix(1.06004 0 0 1.09636 -30.7422 -49.3364)" d="M473.47 858.123L473.995 857.492C475.421 857.749 475.521 857.826 476.866 858.411C480.409 858.272 487.099 857.678 490.192 858.204C487.309 861.073 483.349 865.503 478.777 863.649C478.601 862.575 478.472 862.175 478.141 861.131L477.287 860.802C476.121 861.719 475.878 862.038 474.471 862.533L473.66 861.974C473.921 860.367 474.216 859.667 473.47 858.123Z"/><path fill="#94535D" transform="matrix(1.06004 0 0 1.09636 -30.7422 -49.3364)" d="M473.47 858.123L473.995 857.492C475.421 857.749 475.521 857.826 476.866 858.411C479.044 859.097 478.483 858.445 479.254 859.921L478.777 863.649C478.601 862.575 478.472 862.175 478.141 861.131L477.287 860.802C476.121 861.719 475.878 862.038 474.471 862.533L473.66 861.974C473.921 860.367 474.216 859.667 473.47 858.123Z"/><path fill="#9F636B" transform="matrix(1.06004 0 0 1.09636 -30.7422 -49.3364)" d="M534.346 825.39C536.725 825.756 540.355 826.418 542.643 826.602C538.502 827.104 538.035 827.109 535.222 830.08C533.61 827.636 532.986 826.399 530.002 826.072C517.825 825.529 501.925 826.071 489.246 825.975L460.678 825.913C455.262 825.899 447.976 825.68 442.699 826.075L442.16 825.613C470.752 824.37 502.093 826.395 530.995 825.445L534.346 825.39Z"/><path fill="#FBF2F1" transform="matrix(1.06004 0 0 1.09636 -30.7422 -49.3364)" d="M724.621 791.841C731.493 789.398 737.882 788.853 744.459 786.749C750.148 784.1 755.787 778.698 760.466 774.574C764.335 771.164 770.094 767.499 772.058 774.966C774.652 784.83 776.201 804.094 769.513 812.36C755.233 813.299 739.965 812.99 725.594 812.965C716.921 812.626 708.296 813.031 699.455 812.647C703.59 806.64 711.944 796.963 718.502 793.29C719.515 792.722 723.289 792.083 724.621 791.841Z"/><path fill="#B68185" transform="matrix(1.06004 0 0 1.09636 -30.7422 -49.3364)" d="M699.455 812.647C703.59 806.64 711.944 796.963 718.502 793.29C719.515 792.722 723.289 792.083 724.621 791.841C722.671 802.466 724.539 804.032 725.594 812.965C716.921 812.626 708.296 813.031 699.455 812.647Z"/><path fill="#9F636B" transform="matrix(1.06004 0 0 1.09636 -30.7422 -49.3364)" d="M584.176 723.168C584.81 722.346 584.754 722.385 585.235 721.466C583.153 714.366 582.804 709.155 592.201 710.189C597.446 710.767 600.748 710.051 602.351 716.025C597.711 720.681 592.172 715.963 587.106 720.018C586.073 723.158 585.758 724.332 583.331 726.523L581.114 725.816L582.235 725.454C583.032 724.098 582.942 724.105 584.176 723.168Z"/><path fill="#94535D" transform="matrix(1.06004 0 0 1.09636 -30.7422 -49.3364)" d="M587.106 720.018C587.053 717.158 586.849 715.269 589.49 713.147C592.49 712.885 593.527 715.443 596.378 717.17C598.671 717.498 600.124 716.764 602.351 716.025C597.711 720.681 592.172 715.963 587.106 720.018Z"/><path fill="#94535D" transform="matrix(1.06004 0 0 1.09636 -30.7422 -49.3364)" d="M608.087 887.256C604.555 887.608 593.483 888.48 591.376 885.837L591.503 884.753C594.677 881.489 605.455 881.173 609.717 879.358C611.635 878.541 616.042 875.341 617.863 874.066C616.785 875.557 614.609 877.799 614.133 879.074C615.651 878.601 617.094 877.141 618.358 876.058C616.932 878.855 611.125 883.603 608.087 887.256Z"/><path fill="#9F636B" transform="matrix(1.06004 0 0 1.09636 -30.7422 -49.3364)" d="M725.717 878.667C728.883 881.615 736.916 878.958 740.495 877.738C739.984 885.015 739.607 887.701 731.064 887.266C728.332 887.127 725.375 887.038 722.624 887.057C723.571 884.103 724.58 881.547 725.717 878.667Z"/><path fill="#9F636B" transform="matrix(1.06004 0 0 1.09636 -30.7422 -49.3364)" d="M293.58 847.085C296.586 837.639 297.366 829.975 307.541 826.132L306.578 828.314C295.602 830.081 295.83 846.606 295.745 854.741C297.563 851.263 305.892 835.158 308.53 834.15C309.756 837.546 299.789 854.193 296.793 857.203C296.069 855.06 293.824 854.591 294.326 851.877C294.822 849.198 294.781 849.305 293.58 847.085Z"/><path fill="#B68185" transform="matrix(1.06004 0 0 1.09636 -30.7422 -49.3364)" d="M724.8 785.228C723.795 787.196 722.132 789.223 719.863 789.588C718.098 788.96 718.722 789.519 717.881 787.909C718.581 784.958 722.328 783.949 724.991 784.255L724.8 785.228Z"/><path fill="#94535D" transform="matrix(1.06004 0 0 1.09636 -30.7422 -49.3364)" d="M530.995 825.445C531.104 823.22 530.718 822.086 531.781 820.544L533.269 819.896L534.099 820.247C534.57 821.948 534.264 822.769 533.946 824.499L534.346 825.39L530.995 825.445Z"/></g></svg>