<?xml version="1.0" encoding="utf-8" ?><svg xmlns="http://www.w3.org/2000/svg" xmlns:xlink="http://www.w3.org/1999/xlink" width="1024" height="1024" viewBox="0 0 1024 1024"><path d="M290.166 0L319.866 0C322.093 1.06743 326.827 2.83016 328.458 4.0889C350.921 21.4247 366.193 50.2528 383.848 71.3091C391.114 48.4112 401.872 20.5373 414.327 0L430.402 0L438.313 0L461.078 0C471.005 6.9152 494.787 31.2971 503.979 41.1707C515.399 39.9364 525.109 41.9125 535.152 47.3483C559.844 29.2374 586.756 10.8625 615.625 0L656.419 0L657.24 0L671.973 0C672.133 9.13722 672.2 18.2758 672.177 27.4144C683.098 14.7914 686.264 6.92463 702.559 0L734.329 0C749.2 6.12908 755.076 11.7835 761.605 27.2273C769.306 45.4446 774.149 65.3048 779.581 84.3949C794.886 81.6929 851.647 80.2662 864.26 87.4438L864.712 87.1695C883.845 75.359 898.157 57.7979 925.158 63.8856C937.166 66.6352 947.601 74.0182 954.19 84.4264C971.429 112.016 949.063 144.166 936.26 169.2L893.878 253.699C889.181 262.829 884.396 271.914 879.523 280.952C877.614 284.507 873.725 291.199 872.294 294.55C884.822 305.897 911.026 328.003 912.344 345.669C912.585 348.908 911.926 351.984 909.779 354.497C902.507 363.009 868.822 363.993 856.865 364.888C862.136 374.757 867.381 384.647 871.594 395.035C876.313 406.671 883.507 425.956 868.648 433.523C862.461 436.673 851.797 434.018 845.635 431.528C845.272 431.381 844.913 431.228 844.555 431.069L844.43 500.983C844.422 509.611 844.375 518.592 844.452 526.9C844.512 533.463 842.621 544.02 835.363 545.557C825.396 547.667 811.006 546.294 800.706 546.593C805.165 562.537 808.786 580.933 812.791 597.166L841.837 713.904L861.697 795.795C865.357 810.718 870.648 829.695 873.348 844.546C885.648 844.468 897.948 844.494 910.248 844.625C919.141 844.676 933.094 843.295 940.068 849.174C945.922 854.108 944.748 862.698 944.848 869.856C944.955 878.564 945 887.272 944.982 895.981L944.815 979.627C944.759 990.958 945.279 1004.15 943.28 1015.25C942.757 1018.16 935.048 1022.42 932.377 1024L112.202 1024C108.054 1019.97 106.792 1018.51 103.595 1013.69C103.502 1012.59 103.425 1011.26 103.415 1010.16C103.141 978.178 103.253 946.06 103.278 914.079L103.314 878.33C103.337 866.644 100.296 848.118 115.283 845.431C124.224 843.829 133.581 844.34 142.674 844.351L189.774 844.55C192.794 829.073 196.486 813.759 199.775 798.34L230.506 658.895C238.623 622.709 246.162 582.402 255.539 546.65L225.008 546.253C218.089 546.18 204.51 547.233 199.369 542.344C197.344 540.448 195.977 537.956 195.465 535.23C194.319 529.252 194.618 508.05 194.603 501.099L194.527 435.505C153.526 437.878 180.439 390.593 189.359 373.226C187.286 369.515 185.526 365.639 184.095 361.636C174.459 360.578 164.835 359.401 155.227 358.106C145.456 356.841 128.938 356.741 127.08 344.27C125.511 333.74 134.229 325.515 140.562 318.272C144.895 313.317 149.724 308.356 154.349 303.651C150.69 297.3 146.318 287.546 142.947 280.681L122.595 239.723L93.4228 181.178C84.5834 163.789 74.3922 145.973 67.0751 128.105C55.777 100.514 69.3966 68.5138 100.182 63.5755C124.448 59.683 141.475 75.0233 159.877 87.7658L228.366 136.107C230.006 129.881 232.343 122.969 234.252 116.729C231.012 104.817 216.229 60.8384 219.411 50.752C220.508 47.2765 223.334 43.7922 226.687 42.2767C234.564 38.7155 248.095 44.804 255.548 47.481C262.193 25.2988 266.097 8.34463 290.166 0Z"/><path fill="#FEFEFE" d="M290.166 0L319.866 0C322.093 1.06743 326.827 2.83016 328.458 4.0889C350.921 21.4247 366.193 50.2528 383.848 71.3091C391.114 48.4112 401.872 20.5373 414.327 0L430.402 0C412.446 28.6813 400.826 62.0955 391.596 94.4722C382.814 87.2998 377.625 83.6389 370.36 75.0413C358.108 60.5432 335.546 24.9198 320.748 15.8836C314.917 12.3466 308.089 10.8155 301.306 11.5243C272.853 14.3781 272.181 44.3863 264.522 65.1979C253.397 62.2006 244.398 57.4785 232.653 54.8266C236.228 76.8125 241.486 95.3945 249.009 116.339C243.992 130.629 240.773 144.779 236.098 158.674C215.136 141.872 185.62 122.398 163.139 106.821L139.92 90.7758C134.207 86.8365 128.538 82.5267 122.223 79.6098C107.736 72.919 89.6682 77.7226 81.422 91.7213C73.7719 104.708 77.0286 117.266 82.846 130.149C87.1995 139.79 92.358 148.753 97.2647 158.114C103.498 170.254 109.648 182.437 115.714 194.661C134.205 231.674 152.374 270.37 171.826 306.659C159.969 317.777 149.483 328.426 139.915 341.712C156.332 345.319 176.628 347.146 193.512 348.934C196.084 356.388 201.221 366.692 205.141 373.708C202.698 378.344 181.617 415.263 187.475 421.281C189.717 423.583 204.03 417.912 208.879 416.081L209 532.469L248.636 532.418C255.717 532.416 265.715 532.189 272.565 532.756L223.351 757.294L208.44 825.326C206.729 833.265 202.274 851.557 201.779 858.869C173.876 858.963 145.268 858.569 117.474 859.005L117.332 960.545C117.298 976.549 116.802 994.067 117.144 1009.93L930.534 1010.01L930.52 858.963L863.419 859.03C854.374 824.399 845.717 789.668 837.447 754.843L809.638 642.492C800.97 605.75 791.994 569.08 782.712 532.488L830.766 532.462L830.621 454.139C830.624 441.227 830.024 423.869 830.923 411.448C837.554 414.029 856.691 422.439 863.07 421.17C868.653 414.278 848.036 377.421 843.375 369.407C840.356 364.217 836.129 358.587 833.558 352.957L867.614 350.213C875.909 349.505 891.903 348.048 899.744 345.787C890.625 328.29 868.862 311.614 855.945 297.583C878.543 253.402 900.883 209.089 922.962 164.646L938.278 134.158C944.277 121.928 950.138 111.727 945.15 97.6897C942.555 90.3862 935.334 82.892 928.367 79.624C920.597 76.0391 911.706 75.7516 903.72 78.8268C892.266 83.3362 874.824 97.7344 864.533 104.969C855.041 111.642 845.323 118.155 835.745 124.715C841.766 116.417 848.846 105.874 854.897 98.0186C828.595 95.7702 796.498 95.3298 770.422 99.6552C766.39 87.193 762.437 74.7055 758.562 62.1935C753.684 46.3308 749.71 23.4624 733.809 15.11C726.061 11.1322 717.042 10.4221 708.767 13.1381C698.699 16.3886 693.456 23.4327 687.283 31.5155C676.996 44.985 666.176 58.3523 656.006 71.8882C656.848 55.9682 657.403 40.0344 657.67 24.0944C657.761 16.87 658.004 7.07939 657.24 0L671.973 0C672.133 9.13722 672.2 18.2758 672.177 27.4144C683.098 14.7914 686.264 6.92463 702.559 0L734.329 0C749.2 6.12908 755.076 11.7835 761.605 27.2273C769.306 45.4446 774.149 65.3048 779.581 84.3949C794.886 81.6929 851.647 80.2662 864.26 87.4438L864.712 87.1695C883.845 75.359 898.157 57.7979 925.158 63.8856C937.166 66.6352 947.601 74.0182 954.19 84.4264C971.429 112.016 949.063 144.166 936.26 169.2L893.878 253.699C889.181 262.829 884.396 271.914 879.523 280.952C877.614 284.507 873.725 291.199 872.294 294.55C884.822 305.897 911.026 328.003 912.344 345.669C912.585 348.908 911.926 351.984 909.779 354.497C902.507 363.009 868.822 363.993 856.865 364.888C862.136 374.757 867.381 384.647 871.594 395.035C876.313 406.671 883.507 425.956 868.648 433.523C862.461 436.673 851.797 434.018 845.635 431.528C845.272 431.381 844.913 431.228 844.555 431.069L844.43 500.983C844.422 509.611 844.375 518.592 844.452 526.9C844.512 533.463 842.621 544.02 835.363 545.557C825.396 547.667 811.006 546.294 800.706 546.593C805.165 562.537 808.786 580.933 812.791 597.166L841.837 713.904L861.697 795.795C865.357 810.718 870.648 829.695 873.348 844.546C885.648 844.468 897.948 844.494 910.248 844.625C919.141 844.676 933.094 843.295 940.068 849.174C945.922 854.108 944.748 862.698 944.848 869.856C944.955 878.564 945 887.272 944.982 895.981L944.815 979.627C944.759 990.958 945.279 1004.15 943.28 1015.25C942.757 1018.16 935.048 1022.42 932.377 1024L112.202 1024C108.054 1019.97 106.792 1018.51 103.595 1013.69C103.502 1012.59 103.425 1011.26 103.415 1010.16C103.141 978.178 103.253 946.06 103.278 914.079L103.314 878.33C103.337 866.644 100.296 848.118 115.283 845.431C124.224 843.829 133.581 844.34 142.674 844.351L189.774 844.55C192.794 829.073 196.486 813.759 199.775 798.34L230.506 658.895C238.623 622.709 246.162 582.402 255.539 546.65L225.008 546.253C218.089 546.18 204.51 547.233 199.369 542.344C197.344 540.448 195.977 537.956 195.465 535.23C194.319 529.252 194.618 508.05 194.603 501.099L194.527 435.505C153.526 437.878 180.439 390.593 189.359 373.226C187.286 369.515 185.526 365.639 184.095 361.636C174.459 360.578 164.835 359.401 155.227 358.106C145.456 356.841 128.938 356.741 127.08 344.27C125.511 333.74 134.229 325.515 140.562 318.272C144.895 313.317 149.724 308.356 154.349 303.651C150.69 297.3 146.318 287.546 142.947 280.681L122.595 239.723L93.4228 181.178C84.5834 163.789 74.3922 145.973 67.0751 128.105C55.777 100.514 69.3966 68.5138 100.182 63.5755C124.448 59.683 141.475 75.0233 159.877 87.7658L228.366 136.107C230.006 129.881 232.343 122.969 234.252 116.729C231.012 104.817 216.229 60.8384 219.411 50.752C220.508 47.2765 223.334 43.7922 226.687 42.2767C234.564 38.7155 248.095 44.804 255.548 47.481C262.193 25.2988 266.097 8.34463 290.166 0Z"/><path fill="#FEFEFE" d="M438.313 0L461.078 0C471.005 6.9152 494.787 31.2971 503.979 41.1707C515.399 39.9364 525.109 41.9125 535.152 47.3483C559.844 29.2374 586.756 10.8625 615.625 0L656.419 0C654.356 1.13257 645 4.09089 641.924 5.15635C634.158 7.8378 626.482 10.7729 618.907 13.957C584.16 28.8144 565.165 42.306 535.98 64.8819C522.738 56.119 515.637 51.6285 499.432 57.9479C485.961 40.1072 456.788 12.3573 438.313 0Z"/><path fill="#C1BFBF" d="M378.686 353.046C398.138 349.959 423.619 348.901 443.628 348.002C513.487 344.861 589.755 345.056 659.273 353.071C661.907 353.074 664.852 353.016 667.459 353.089C675.99 372.351 690.669 401.54 685.04 423.155C684.417 438.537 684.285 454.557 680.271 469.468C677.58 479.466 674.123 483.131 663.676 483.348C636.919 483.904 610.227 483.04 583.481 482.626C551.899 482.314 520.315 482.229 488.732 482.37L407.696 483.499C397.275 483.591 380.928 483.92 370.803 483.295C351.121 482.078 353.817 438.515 351.668 424.4C349.206 417.765 352.842 397.381 355.107 390.32C359.096 380.983 365.628 361.426 371.053 353.485C373.567 353.266 376.16 353.173 378.686 353.046Z"/><path fill="#848383" d="M659.273 353.071C661.907 353.074 664.852 353.016 667.459 353.089C675.99 372.351 690.669 401.54 685.04 423.155C684.364 422.214 684.575 422.666 684.239 421.602C679.708 407.541 674.636 393.66 669.033 379.991C671.851 377.682 672.844 373.81 671.484 370.429C670.125 367.049 666.728 364.942 663.095 365.227C661.364 360.546 660.449 357.947 659.273 353.071Z"/><path fill="#848383" d="M371.053 353.485C373.567 353.266 376.16 353.173 378.686 353.046C377.618 356.863 375.288 361.274 375.354 364.731C365.976 366.591 363.855 371.274 368.333 379.627C366.671 387.689 363.078 392.28 361.881 396.892C360.894 395.476 356.586 391.668 355.107 390.32C359.096 380.983 365.628 361.426 371.053 353.485Z"/><path d="M663.095 365.227C666.728 364.942 670.125 367.049 671.484 370.429C672.844 373.81 671.851 377.682 669.033 379.991C666.254 382.268 662.33 382.51 659.293 380.591C656.256 378.672 654.789 375.024 655.652 371.537C656.515 368.05 659.514 365.508 663.095 365.227Z"/><path fill="#C1BFBF" d="M662.131 368.762C664.617 367.885 667.343 369.191 668.216 371.678C669.089 374.165 667.778 376.889 665.289 377.757C662.807 378.624 660.091 377.317 659.22 374.836C658.35 372.355 659.652 369.638 662.131 368.762Z"/><path d="M368.333 379.627C363.855 371.274 365.976 366.591 375.354 364.731C378.381 365.986 380.706 367.007 381.951 370.335C382.712 372.424 382.602 374.731 381.648 376.739C380.65 378.868 378.82 380.493 376.588 381.232C374.079 382.038 371.882 381.647 369.626 380.396C369.188 380.151 368.757 379.895 368.333 379.627Z"/><path fill="#C1BFBF" d="M372.534 368.744C374.154 368.11 375.992 368.407 377.331 369.519C378.67 370.631 379.298 372.383 378.972 374.093C378.646 375.803 377.416 377.2 375.762 377.741C373.302 378.546 370.649 377.247 369.775 374.812C368.901 372.376 370.124 369.687 372.534 368.744Z"/><path fill="#5F5D5F" d="M351.668 424.4C349.206 417.765 352.842 397.381 355.107 390.32C356.586 391.668 360.894 395.476 361.881 396.892C360.295 400.665 358.705 404.663 357.298 408.367C356.139 411.419 352.86 422.621 351.668 424.4Z"/><path d="M573.47 364.857C577.611 365.906 579.772 368.698 582.462 371.762C575.173 379.927 567.339 387.588 559.013 394.691C547.288 388.951 534.745 380.709 521.023 383.266C512.315 384.978 504.602 389.979 499.484 397.23C494.424 404.427 492.484 413.362 494.103 422.01C495.725 430.589 500.749 438.546 508.034 443.419C515.589 448.447 524.847 450.229 533.728 448.365C545.814 445.906 555.11 435.192 552.907 422.004C551.501 413.586 537.952 405.301 529.141 408.083C525.92 409.085 523.279 411.413 521.884 414.484C519.9 418.912 522.089 426.307 526.844 427.773C532.741 429.59 536.125 416.837 538.514 415.227C543.47 416.157 543.483 422.664 542.185 426.447C540.784 430.621 537.745 434.044 533.767 435.929C524.502 440.373 513.917 434.74 510.078 425.714C507.516 419.693 508.515 415.095 510.728 409.273C526.643 383.276 563.189 398.069 565.333 424.211C565.962 432.943 563.155 441.577 557.51 448.27C538.45 470.624 499.34 457.825 474.119 457.032C468.897 456.868 458.911 455.936 454.915 452.526C452.537 444.832 472.318 422.492 476.443 415.156C486.481 397.308 491.403 377.899 513.403 371.636C530.41 366.795 543.065 371.712 558.142 379.688C563.482 374.293 567.743 369.863 573.47 364.857Z"/><path fill="#5F5D5F" d="M574.323 368.345C575.192 369.028 577.256 371.108 578.157 371.964C572.247 378.026 564.674 385.49 558.297 390.985C544.919 381.778 528.548 375.561 512.759 382.066C503.624 385.83 496.961 392.643 493.21 401.754C489.414 411.194 489.517 421.754 493.498 431.118C497.2 439.851 503.846 446.539 512.699 450.004C521.757 453.562 531.867 453.319 540.745 449.331C570.273 435.911 553.003 393.502 524.94 406.343C519.871 408.663 518.091 413.755 516.57 418.766C518.558 423.871 521.23 429.188 527.155 430.125C532.133 430.912 535.043 426.174 538.604 423.451L538.922 424.069C535.675 439.049 515.26 435.435 512.05 419.369C512.441 405.006 522.412 398.592 535.988 399.625C562.893 401.672 570.912 434.206 550.222 450.222C545.611 453.801 540.184 456.179 534.427 457.144C524.321 458.872 510.137 456.978 499.723 455.943C485.475 454.544 471.248 452.931 457.048 451.105C464.023 438.131 472.841 426.504 480.644 414.02C484.887 407.232 487.069 400.529 490.854 393.876C496.308 384.419 505.291 377.512 515.832 374.669C531.487 370.418 544.875 375.757 558.283 383.554C563.608 378.716 569.083 373.326 574.323 368.345Z"/><path d="M483.442 418.342C484.91 419.924 486.954 429.735 488.705 433.428C492.671 441.796 496.002 445.035 502.621 451.166C498.148 450.964 492.894 450.309 488.381 449.859C480.922 448.958 474.328 448.098 466.951 446.747C470.962 437.251 477.483 426.804 483.442 418.342Z"/><path fill="#C1BFBF" d="M481.796 426.884C482.969 428.328 484.516 431.942 485.315 433.73C488.052 439.861 489.406 442.259 493.782 447.235L483.48 445.91C480.443 445.756 474.166 444.696 470.913 444.252C474.432 438.442 477.93 432.456 481.796 426.884Z"/><path d="M668.813 410.763C673.351 409.421 678.118 412.01 679.464 416.546C680.81 421.083 678.227 425.853 673.691 427.204C669.149 428.557 664.371 425.969 663.023 421.425C661.675 416.882 664.268 412.106 668.813 410.763Z"/><path fill="#C1BFBF" d="M670.189 413.821C672.767 413.268 675.325 414.837 675.999 417.387C676.673 419.936 675.226 422.565 672.711 423.359C670.976 423.906 669.08 423.455 667.777 422.184C666.474 420.914 665.976 419.029 666.48 417.281C666.984 415.532 668.41 414.203 670.189 413.821Z"/><path d="M662.631 455.78C667.029 454.281 671.813 456.606 673.353 460.991C674.892 465.375 672.612 470.181 668.242 471.761C663.815 473.362 658.931 471.045 657.371 466.602C655.811 462.16 658.174 457.298 662.631 455.78Z"/><path fill="#C1BFBF" d="M664.637 458.802C667.168 458.423 669.562 460.068 670.115 462.568C670.669 465.067 669.193 467.569 666.738 468.294C664.991 468.81 663.103 468.308 661.842 466.994C660.581 465.679 660.159 463.772 660.747 462.048C661.335 460.324 662.835 459.072 664.637 458.802Z"/><path d="M372.242 455.322C376.867 455.091 380.816 458.628 381.092 463.251C381.368 467.874 377.868 471.856 373.248 472.177C368.565 472.502 364.516 468.944 364.236 464.258C363.956 459.572 367.553 455.557 372.242 455.322Z"/><path fill="#C1BFBF" d="M371.914 458.778C373.649 458.515 375.39 459.206 376.473 460.586C377.556 461.966 377.812 463.822 377.144 465.444C376.476 467.066 374.987 468.203 373.247 468.421C370.604 468.751 368.186 466.895 367.821 464.257C367.457 461.618 369.281 459.177 371.914 458.778Z"/><path d="M364.102 410.799C368.519 409.572 373.099 412.134 374.366 416.539C375.633 420.944 373.114 425.548 368.721 426.856C364.27 428.181 359.592 425.621 358.309 421.158C357.025 416.695 359.627 412.041 364.102 410.799Z"/><path fill="#C1BFBF" d="M365.639 413.794C368.251 413.44 370.671 415.226 371.102 417.826C371.533 420.426 369.819 422.898 367.233 423.405C365.491 423.747 363.701 423.114 362.561 421.754C361.42 420.394 361.11 418.521 361.75 416.865C362.39 415.21 363.88 414.033 365.639 413.794Z"/><path fill="#1F416A" d="M723.726 353.881C741.581 373.438 762.472 395.973 774.938 419.233C778.338 425.577 776.012 445.44 774.321 452.389C771.612 460.669 770.795 464.751 766.599 472.516C760.51 471.25 750.981 471.472 744.749 471.655C756.021 476.34 775.82 478.716 772.149 497.018C770.93 503.092 766.038 506.675 761.077 509.831C752.855 509.421 743.634 508.35 735.31 507.66C718.971 506.356 702.618 505.233 686.254 504.292C597.206 499.597 507.997 498.785 418.879 501.858C372.504 503.346 324.908 504.899 278.812 510.593C271.913 505.294 263.723 495.664 268.695 486.611C274.161 476.659 287.953 474.384 297.885 471.124C289.671 471.477 281.627 471.341 273.422 472.073C268.614 463.047 267.302 456.698 264.945 446.833C263.428 439.82 263.913 426.252 264.049 418.821C267.266 413.452 274.003 404.685 278.046 399.448C289.102 385.131 301.84 368.7 314.421 355.749C314.774 363.203 316.168 369.491 315.888 377.424C318.549 402.859 321.865 427.27 330.431 451.509C336.179 438.624 340.977 427.014 346.284 413.932C345.542 429.539 347.723 469.798 357.244 482.718C359.954 486.395 364.997 488.067 369.448 488.405C389.026 489.889 409.701 489.343 429.284 488.909C453.905 488.407 478.531 488.111 503.157 488.02C533.64 487.94 564.123 488.136 594.603 488.607C618.091 489.002 641.59 489.538 665.069 488.646C679.916 488.083 683.245 480.732 686.479 467.93C691.116 449.576 689.646 431.457 690.96 412.854C693.735 420.045 696.615 427.195 699.597 434.303C701.675 439.183 704.982 446.233 706.415 451.072C713.339 436.653 720.911 393.447 722.566 376.798C722.413 371.896 723.178 358.808 723.726 353.881Z"/><path fill="#15253C" d="M723.726 353.881C741.581 373.438 762.472 395.973 774.938 419.233C778.338 425.577 776.012 445.44 774.321 452.389C769.753 448.672 762.983 434.333 759.435 428.75C751.267 415.892 733.145 385.635 722.566 376.798C722.413 371.896 723.178 358.808 723.726 353.881Z"/><path fill="#15253C" d="M314.421 355.749C314.774 363.203 316.168 369.491 315.888 377.424C307.554 380.516 271.656 436.217 264.945 446.833C263.428 439.82 263.913 426.252 264.049 418.821C267.266 413.452 274.003 404.685 278.046 399.448C289.102 385.131 301.84 368.7 314.421 355.749Z"/><path fill="#FEFEFE" d="M469.976 231.49C483.991 206.184 497.43 180.356 511.99 155.378C531.928 189.302 551.568 227.086 570.62 261.801L590.198 297.153C593.437 302.985 599.157 312.683 601.478 318.599C565.034 316.171 528.495 315.474 491.985 316.51C475.426 316.887 457.677 317.195 441.254 318.716C434.524 319.447 427.764 319.877 420.995 320.003C424.505 313.418 428.329 306.162 432.483 299.98C441.5 281.825 453.499 261.704 463.138 243.302C465.384 239.213 467.434 235.418 469.976 231.49Z"/><path fill="#C1BFBF" d="M432.483 299.98C433.787 304.854 435.87 314.326 438.635 318.153C439.862 318.604 439.939 318.58 441.254 318.716C434.524 319.447 427.764 319.877 420.995 320.003C424.505 313.418 428.329 306.162 432.483 299.98Z"/><path fill="#C1BFBF" d="M469.976 231.49C473.349 239.592 476.619 247.738 479.784 255.924C474.101 251.008 469.768 246.914 463.138 243.302C465.384 239.213 467.434 235.418 469.976 231.49Z"/><path fill="#FEFEFE" d="M259.114 272.479C260.141 272.416 265.715 271.282 267.143 271.037C272.212 270.208 277.293 269.46 282.386 268.793C286.305 271.258 290.488 274.073 294.208 276.81C315.101 292.182 338.571 306.289 359.118 321.931C364.013 324.901 367.853 327.697 372.479 331.049C367.081 346.331 360.265 359.768 354.512 374.745C346.777 394.882 340.277 413.831 331.559 433.642C330.215 428.598 327.019 416.062 326.973 411.223C321.801 384.488 319.665 353.82 317.914 326.353L317.275 326.231C315.665 331.902 315.703 340.291 314.815 346.404C302.315 359.688 290.414 373.524 279.147 387.87C272.552 396.414 263.372 409.961 257.032 417.508C257.783 411.217 259.868 390.958 261.768 385.977C266.493 357.112 273.871 333.76 282.814 305.938C268.712 327.707 264.541 346.621 257.982 371.04C247.381 375.282 229.853 385.212 219.205 390.823C227.31 372.69 246.964 348.996 258.314 331.587C253.458 326.777 248.074 315.289 245.477 308.964L234.806 287.069C240.663 282.688 252.603 275.556 259.114 272.479Z"/><path fill="#C1BFBF" d="M359.118 321.931C364.013 324.901 367.853 327.697 372.479 331.049C367.081 346.331 360.265 359.768 354.512 374.745C346.777 394.882 340.277 413.831 331.559 433.642C330.215 428.598 327.019 416.062 326.973 411.223C329.691 407.268 335.194 380.802 337.13 374.34C342.86 355.21 351.189 339.88 359.118 321.931Z"/><path fill="#C1BFBF" d="M261.768 385.977C265.559 385.194 273.414 370.859 276.524 367.316C288.5 353.672 303.062 328.434 317.448 317.959C317.424 320.835 317.665 323.492 317.914 326.353L317.275 326.231C315.665 331.902 315.703 340.291 314.815 346.404C302.315 359.688 290.414 373.524 279.147 387.87C272.552 396.414 263.372 409.961 257.032 417.508C257.783 411.217 259.868 390.958 261.768 385.977Z"/><path fill="#C1BFBF" d="M245.477 308.964C249.988 308.416 269.302 307.172 272.47 309.351C273.615 314.562 261.535 326.942 258.314 331.587C253.458 326.777 248.074 315.289 245.477 308.964Z"/><path fill="#FEFEFE" d="M749.347 263.741C753.635 264.974 761.595 265.093 766.547 265.817C769.962 266.316 778.016 268.423 780.677 268.549C785.449 271.33 789.651 274.142 794.24 277.2C790.12 285.964 785.258 295.078 781.472 303.798C777.357 312.386 773.153 320.931 768.861 329.432C766.968 325.676 760.265 311.327 757.754 309.652L757.376 309.586C766.904 333.295 773.011 361.024 777.599 386.079C779.955 393.225 781.263 409.932 782.03 417.839C766.25 393.159 743.648 366.49 723.077 345.304C723.076 340.38 722.304 329.461 721.333 324.686C719.384 354.33 716.679 382.911 710.849 412.139C709.641 418.196 707.596 427.869 705.382 433.4C690.55 395.634 678.661 360.902 661.062 324.127C664.724 321.659 668.414 319.233 672.131 316.848C688.593 306.012 705.067 293.861 721.402 282.762C730.435 276.624 739.909 269.085 749.347 263.741Z"/><path fill="#C1BFBF" d="M704.633 387.414C706.833 377.845 708.91 366.215 710.727 356.516C713.278 342.891 717.595 321.689 717.498 307.835C727.636 317.284 735.982 329.906 744.153 339.754C749.965 346.759 772.82 383.769 777.599 386.079C779.955 393.225 781.263 409.932 782.03 417.839C766.25 393.159 743.648 366.49 723.077 345.304C723.076 340.38 722.304 329.461 721.333 324.686C719.384 354.33 716.679 382.911 710.849 412.139C709.641 418.196 707.596 427.869 705.382 433.4C690.55 395.634 678.661 360.902 661.062 324.127C664.724 321.659 668.414 319.233 672.131 316.848C677.847 328.374 684.249 338.683 689.682 350.515C694.736 361.523 699.381 377.139 704.633 387.414Z"/><path fill="#C1BFBF" d="M751.718 296.293C761.685 298.523 771.514 301.415 781.472 303.798C777.357 312.386 773.153 320.931 768.861 329.432C766.968 325.676 760.265 311.327 757.754 309.652L757.376 309.586C756.268 305.889 753.385 299.981 751.718 296.293Z"/><path fill="#FEFEFE" d="M627.618 211.673C631.123 208.238 639.906 196.424 643.318 192.023L671.207 156.095C688.287 133.897 684.557 136.755 710.919 129.235C716.878 146.444 721.548 165.295 727.643 182.117L732.121 196.283C730.787 197.154 727.911 199.161 726.595 199.705C719.137 205.029 711.59 210.226 703.956 215.294C697.876 220.377 688.238 226.843 681.518 231.502L643.174 257.789C635.509 245.079 628.371 232.06 621.778 218.764C623.598 216.334 625.651 213.995 627.618 211.673Z"/><path fill="#C1BFBF" d="M627.982 226.609C644.203 214.025 659.242 202.97 676.991 192.493C681.54 189.808 687.3 185.911 691.935 183.666C688.88 196.673 684.553 209.424 679.887 221.941C686.663 220.149 697.663 215.876 703.956 215.294C697.876 220.377 688.238 226.843 681.518 231.502L643.174 257.789C635.509 245.079 628.371 232.06 621.778 218.764C623.598 216.334 625.651 213.995 627.618 211.673C628.183 216.565 627.888 221.669 627.982 226.609Z"/><path fill="#C1BFBF" d="M709.513 198.585C714.849 194.889 722.683 186.925 727.643 182.117L732.121 196.283C730.787 197.154 727.911 199.161 726.595 199.705C722.955 197.756 713.966 198.469 709.513 198.585Z"/><path fill="#FEFEFE" d="M317.988 112.91C334.537 133.017 350.305 153.402 366.391 173.871C378.023 188.674 391.136 203.648 401.838 219.046C397.977 228.204 386.328 248.792 380.798 257.311C361.971 243.501 342.113 230.574 322.964 217.168C312.988 210.183 301.112 202.632 291.893 194.831C298.795 195.668 304.247 196.193 310.926 198.288C308.529 189.919 303.603 178.957 300.117 170.673C302.513 160.96 306.642 148.413 309.746 138.795C312.887 130.297 315.637 121.66 317.988 112.91Z"/><path fill="#C1BFBF" d="M300.117 170.673C302.513 160.96 306.642 148.413 309.746 138.795C313.222 143.739 316.577 149.052 319.739 154.209C331.295 173.059 343.585 191.388 353.026 211.438C339.504 207.263 324.362 202.109 310.926 198.288C308.529 189.919 303.603 178.957 300.117 170.673Z"/><path fill="#FEFEFE" d="M546.731 82.0044C575.037 58.0932 604.024 41.5557 638.073 27.4704C636.98 50.7961 635.748 74.1149 634.376 97.4258C626.373 108.037 618.024 119.113 609.634 129.422C608.286 131.803 603.642 137.47 601.778 139.815C597.063 145.679 592.415 151.597 587.836 157.568C582.529 149.154 574.577 134.391 570.345 125.367C565.285 115.601 560.086 105.908 554.748 96.2923C552.357 91.9807 548.759 86.2092 546.731 82.0044Z"/><path fill="#C1BFBF" d="M570.345 125.367C574.584 120.508 578.36 114.824 582.328 109.684C591.226 98.1589 600.271 85.9011 610.542 75.5886C610.259 82.9568 607.772 125.792 609.634 129.422C608.286 131.803 603.642 137.47 601.778 139.815C597.063 145.679 592.415 151.597 587.836 157.568C582.529 149.154 574.577 134.391 570.345 125.367Z"/><path fill="#FEFEFE" d="M439.354 25.3558C452.077 35.2757 473.553 57.9911 483.579 70.567C481.29 76.0778 476.123 84.8738 473.06 90.4254C466.809 101.806 460.499 113.153 454.128 124.467C448.633 135.802 441.843 146.263 436.512 157.332C432.833 152.729 428.939 148.047 425.638 143.184C419.758 135.016 412.612 126.33 406.465 118.053C415.797 79.4638 423.176 60.9128 439.354 25.3558Z"/><path fill="#C1BFBF" d="M425.638 143.184C427.801 139.199 430.705 124.472 432.217 119.018C434.487 110.83 436.776 103.595 439.483 95.4478C442.228 101.739 449.777 119.427 454.128 124.467C448.633 135.802 441.843 146.263 436.512 157.332C432.833 152.729 428.939 148.047 425.638 143.184Z"/><path fill="#1F416A" d="M417.41 326.521C421.822 326.048 426.392 325.776 430.824 325.463C488.877 321.366 547.152 323.233 605.231 325.215C620.641 337.448 631.798 343.41 650.459 331.728C653.913 329.249 656.188 329.556 658.591 333.19C661.309 337.302 663.695 343.308 665.013 348.021C662.208 347.869 657.967 347.755 655.347 347.286C649.901 345.564 622.021 343.866 614.715 343.388C537.317 337.871 459.584 339.158 382.41 347.232C383.884 343.926 385.076 341.004 387.049 337.959C401.444 338.507 406.402 335.655 417.41 326.521Z"/><path fill="#15253C" d="M650.459 331.728C653.913 329.249 656.188 329.556 658.591 333.19C661.309 337.302 663.695 343.308 665.013 348.021C662.208 347.869 657.967 347.755 655.347 347.286C654.367 342.528 652.094 336.397 650.459 331.728Z"/><path fill="#C1BFBF" d="M813.591 218.914C816.404 220.297 819.147 220.619 822.239 221.215C806.987 252.702 810.374 249.033 780.677 268.549C778.016 268.423 769.962 266.316 766.547 265.817C761.595 265.093 753.635 264.974 749.347 263.741C754.904 259.059 765.419 252.299 771.676 247.987L813.591 218.914Z"/><path fill="#C1BFBF" d="M195.841 208.777C208.868 216.991 222.544 227.132 235.321 236.095C250.878 247.009 266.984 257.752 282.386 268.793C277.293 269.46 272.212 270.208 267.143 271.037C265.715 271.282 260.141 272.416 259.114 272.479C255.303 267.611 248.809 263.119 244.209 258.972C228.944 245.211 203.897 227.611 195.841 208.777Z"/><path fill="#FEFEFE" d="M812.623 116.437L814.474 116.337L814.859 116.92C811.666 122.644 791.317 144.794 785.915 150.223C784.459 145.667 782.846 140.948 781.769 136.306C780.906 132.159 778.266 124.288 777.046 119.646C788.842 117.967 800.717 116.896 812.623 116.437Z"/><path fill="#C1BFBF" d="M812.623 116.437L814.474 116.337L814.859 116.92C811.666 122.644 791.317 144.794 785.915 150.223C784.459 145.667 782.846 140.948 781.769 136.306C787.724 133.765 807.465 120.36 812.623 116.437Z"/><path fill="#C1BFBF" d="M844.67 322.145C845.441 320.431 846.231 318.582 847.066 316.91C850.082 319.29 852.836 321.701 855.092 324.851L861.098 331.446C854.133 331.614 847.054 332.417 839.877 332.576C841.327 329.169 843.104 325.528 844.67 322.145Z"/><path fill="#FEFEFE" d="M844.67 322.145C845.441 320.431 846.231 318.582 847.066 316.91C850.082 319.29 852.836 321.701 855.092 324.851C852.103 325.256 847.317 323.484 844.67 322.145Z"/><path fill="#C1BFBF" d="M818.619 375.122C819.364 373.483 820.172 371.575 820.979 369.993C823.345 373.748 824.741 376.342 826.733 380.327C828.596 383.372 830.49 387.746 832.042 391.072C826.288 388.279 820.885 385.651 815.276 382.578L818.619 375.122Z"/><path fill="#FEFEFE" d="M818.619 375.122C819.364 373.483 820.172 371.575 820.979 369.993C823.345 373.748 824.741 376.342 826.733 380.327C825.167 380.291 819.998 376.322 818.619 375.122Z"/><path fill="#15253C" d="M378.383 334.961C381.061 336.08 384.262 337.04 387.049 337.959C385.076 341.004 383.884 343.926 382.41 347.232C381.363 347.489 374.082 347.811 372.683 347.885C374.669 343.615 376.57 339.307 378.383 334.961Z"/><path fill="#FEFEFE" d="M813.591 218.914C817.795 215.843 823.93 211.167 828.443 208.969C826.358 213.008 824.178 217.113 822.239 221.215C819.147 220.619 816.404 220.297 813.591 218.914Z"/></svg>