<?xml version="1.0" encoding="utf-8" ?><svg xmlns="http://www.w3.org/2000/svg" xmlns:xlink="http://www.w3.org/1999/xlink" width="1024" height="1024" viewBox="0 0 1024 1024"><path fill="#030303" d="M568.821 29.8279C591.067 21.3521 613.23 12.6235 635.705 4.79613C639.249 3.56197 643.371 2.38459 646.633 0.597688C640.24 8.45786 633.789 19.5659 628.416 28.3915C624.568 34.7124 618.795 43.695 615.559 50.1168C649.241 40.5363 683.876 33.1913 717.862 24.7528C737.366 19.91 757.308 16.1099 776.776 11.2846C761.145 33.785 745.374 61.4446 730.231 84.7477C742.698 82.0234 771.686 80.5688 785.816 79.5181C818.99 77.0514 853.755 74.2071 886.94 72.876C880.292 84.9532 871.78 97.0447 864.053 108.592C852.874 125.181 841.788 141.831 830.795 158.543C826.741 164.684 816.952 178.647 813.798 184.678L895.663 203.323C905.193 205.436 914.652 207.906 924.215 209.802C900.872 220.433 878.42 232.398 855.736 244.338C851.895 246.36 848.01 248.491 844.105 250.359C859.326 263.455 874.692 276.382 890.2 289.137C897.925 295.607 905.53 302.52 913.26 308.868C901.675 309.216 888.875 310.564 877.17 311.355C870.647 311.796 860.259 312.125 854.109 312.903C858.713 319.362 893.231 366.244 894.024 369.138C883.169 366.712 871.065 364.648 860.589 362.115C863.682 368.928 867.339 381.315 869.292 388.607C881.764 434.523 879.281 483.218 862.204 527.626C858.806 536.972 854.769 546.072 850.121 554.863C838.096 577.76 838.685 572.413 838.626 598.674L838.678 646.768C838.716 653.779 839.18 666.663 838.644 673.076C825.202 673.174 811.758 673.132 798.316 672.953C800.921 688.959 802.825 707.282 805.064 723.56L817.731 812.763C819.835 827.979 821.837 846.214 824.489 861.042C832.61 860.138 848.076 860.538 856.575 860.538L914.909 860.514L914.915 968.178C914.908 986.299 915.262 1005.96 914.811 1024L109.227 1024C108.751 1016.98 108.995 1007.54 108.992 1000.34L108.993 958.464C109.001 926.707 108.324 892.093 109.253 860.545C138.79 860.524 170.415 859.979 199.733 861.046C200.337 848.828 202.552 837.507 204.252 825.444L212.626 766.302C215.367 747.636 217.99 728.953 220.493 710.253C222.035 698.759 223.596 684.327 225.817 673.193C221.45 673.194 187.678 673.654 186.152 673.144C182.249 664.15 186.83 608.468 185.072 595.1C184.658 591.606 185.723 579.54 184.715 576.975C179.274 563.122 171.452 549.922 165.396 536.033C105.565 398.818 196.653 272.766 305.093 194.44C313.083 188.669 321.812 181.256 329.974 175.967C323.868 149.51 317.149 123.198 309.821 97.0539C320.579 107.708 338.139 122.402 350.1 132.969C352.838 110.467 358.695 97.2714 371.577 79.2962C385.732 59.5448 398.887 39.54 414.689 20.9345C413.895 28.0377 413.697 36.5297 413.687 43.7178C413.666 59.0634 412.386 74.8439 412.477 90.1146C416.649 86.0518 420.912 82.0829 425.262 78.2111C430.844 53.5822 439.853 39.1106 461.644 24.8203C482.434 11.1867 509.895 8.16544 533.957 13.7253C546.593 16.5475 558.48 22.0376 568.821 29.8279Z"/><path fill="#181818" d="M482.723 160.583C486.231 160.2 497.642 162.53 502.378 162.907C516.92 164.067 525.998 162.486 540.058 160.277C550.654 165.13 559.006 173.728 568.219 180.218C582.026 189.944 594.392 198.959 607.078 210.157C617.432 219.296 628.734 227.614 638.413 237.724C652.66 251.781 668.086 266.35 680.476 282.129C711.249 321.321 731.445 366.321 732.421 416.56C733.275 460.489 715.078 501.493 668.482 511.089C656.009 513.658 644.349 512.968 631.811 513.174C613.624 513.587 595.431 513.75 577.24 513.661C538.782 513.852 500.326 514.316 461.875 515.052L291.786 516.887C278.436 517.014 265.087 517.068 251.737 517.05C245.913 517.06 234.834 516.803 229.448 517.551C228.508 516.414 227.055 514.573 226.47 513.235C211.901 479.857 208.176 441.897 217.836 406.806C237.474 335.467 296.321 282.132 354.15 239.817C394.013 210.649 438.92 184.267 482.723 160.583Z"/><path fill="#030303" d="M503.652 294.185C545.783 289.617 583.644 320.058 588.23 362.187C592.815 404.316 562.39 442.19 520.263 446.793C478.111 451.399 440.21 420.952 435.621 378.798C431.033 336.644 461.496 298.755 503.652 294.185Z"/><path fill="#F9F9F9" d="M491.646 430.857C486.494 429.572 479.966 425.943 475.603 422.947C461.718 413.251 452.213 398.475 449.144 381.82C438.894 326.569 502.079 285.539 547.552 317.607C561.481 326.793 571.183 341.143 574.519 357.491C581.607 391.5 559.263 425.991 525.231 433.259C515.178 435.405 501.253 434.834 491.646 430.857Z"/><path fill="#C3C2C2" d="M547.552 317.607C561.481 326.793 571.183 341.143 574.519 357.491C581.607 391.5 559.263 425.991 525.231 433.259C515.178 435.405 501.253 434.834 491.646 430.857C493.22 430.014 495.451 430.461 497.442 430.607C515.734 431.945 533.413 425.655 546.973 413.006C559.554 401.336 566.914 385.099 567.399 367.946C568.004 349.028 560.865 334.035 548.322 319.996C547.329 318.885 547.805 319.593 547.552 317.607Z"/><path fill="#030303" d="M504.768 319.839C533.053 316.291 558.85 336.369 562.357 364.659C565.863 392.95 545.749 418.717 517.454 422.183C489.216 425.642 463.512 405.577 460.012 377.345C456.513 349.112 476.54 323.379 504.768 319.839Z"/><path fill="#5F2F34" d="M472.349 397.637C458.299 377.066 462.747 349.104 482.487 333.908C502.228 318.713 530.397 321.566 546.689 340.412C562.981 359.257 561.731 387.543 543.841 404.878C525.951 422.214 497.64 422.573 479.317 405.696C476.696 403.283 474.359 400.579 472.349 397.637Z"/><path fill="#030303" d="M483.42 339.058C495.225 330.167 504.777 328.148 519.499 329.9C527.702 330.876 533.391 334.353 540.347 338.516L541.478 337.648C543.923 338.249 543.53 342.166 543.497 344.28C543.441 345.485 541.801 357.867 541.487 356.799C545.775 371.363 544.143 380.057 536.59 392.992C538.142 395.003 539.576 396.915 541.282 398.806C543.067 399.763 544.463 400.44 546.317 401.255C541.739 402.734 540.058 403.104 535.023 403.145C535.336 403.762 535.24 403.37 534.929 404.352C523.18 413.081 507.697 415.522 494.072 409.854C489.825 408.087 486.253 405.006 481.582 403.277L480.562 403.379C479.336 402.465 479.766 402.76 479.023 401.166C479.029 399.526 478.926 398.19 478.801 396.553C479.805 392.913 480.726 389.577 481.942 386.003C476.651 371.833 478.718 361.949 484.656 348.67C483.423 347.519 481.935 346.57 480.539 345.609C478.846 344.164 476.889 343.217 477.554 340.958C479.334 339.589 481.162 339.494 483.42 339.058Z"/><path fill="#BB4248" d="M483.42 339.058C495.225 330.167 504.777 328.148 519.499 329.9C527.702 330.876 533.391 334.353 540.347 338.516C538.059 341.06 535.737 343.572 533.381 346.053C529.022 342.982 526.18 341.526 521.198 339.515C514.339 337.493 508.442 337.646 501.378 338.732C493.712 341.455 491.644 340.367 483.42 339.058Z"/><path fill="#A64046" d="M501.378 338.732C501.802 337.647 501.756 337.048 502.542 336.746C506.444 335.247 513.378 336.415 517.519 336.867L514.407 337.137C517.437 337.58 519.229 337.356 521.198 339.515C514.339 337.493 508.442 337.646 501.378 338.732Z"/><path fill="#BB4248" d="M489.112 396.196C502.828 406.044 509.932 407.585 525.94 401.533C528.762 402.085 532.235 402.863 535.023 403.145C535.336 403.762 535.24 403.37 534.929 404.352C523.18 413.081 507.697 415.522 494.072 409.854C489.825 408.087 486.253 405.006 481.582 403.277C484.101 400.833 486.494 398.533 489.112 396.196Z"/><path fill="#BB4248" d="M505.819 341.139C515.281 340.445 522.325 341.881 529.85 347.985C527.493 350.299 526.674 351.174 523.885 352.977C529.531 358.045 530.759 356.328 537.055 359.263C538.676 360.019 540.197 362.131 540.553 363.912C542.287 372.578 538.732 382.298 534.475 389.499C533.892 388.957 533.297 388.428 532.69 387.913C531.217 386.683 530.452 386.184 528.536 386.378C522.973 389.356 528.301 398.594 517.464 400.956C511.539 401.972 494.181 400.534 492.72 393.392C496.382 392.035 495.993 391.151 497.368 387.614C493.167 385.356 490.777 384.906 486.242 384.098C477.638 374.667 482.866 362.627 487.258 352.573C489.138 354.713 491.161 356.486 493.26 358.399C497.403 352.345 497.309 351.248 497.144 344.026C500.632 342.553 502.14 342.082 505.819 341.139Z"/><path fill="#030303" d="M508.869 358.3C515.733 357.02 522.323 361.582 523.541 368.457C524.759 375.332 520.138 381.882 513.252 383.038C506.453 384.179 500.005 379.628 498.803 372.84C497.6 366.053 502.092 359.564 508.869 358.3Z"/><path fill="#BB4248" d="M543.497 344.28C549.369 349.82 551.752 358.695 551.979 366.574C552.372 380.249 548.278 387.845 541.282 398.806C539.576 396.915 538.142 395.003 536.59 392.992C544.143 380.057 545.775 371.363 541.487 356.799C541.801 357.867 543.441 345.485 543.497 344.28Z"/><path fill="#BB4248" d="M478.801 396.553C476.327 394.864 473.769 389.875 472.852 387.06C468.322 373.159 469.177 356.053 480.539 345.609C481.935 346.57 483.423 347.519 484.656 348.67C478.718 361.949 476.651 371.833 481.942 386.003C480.726 389.577 479.805 392.913 478.801 396.553Z"/><path fill="#4A2C2F" d="M472.349 397.637C476.763 397.794 475.834 399.717 479.023 401.166C479.766 402.76 479.336 402.465 480.562 403.379L479.317 405.696C476.696 403.283 474.359 400.579 472.349 397.637Z"/><path fill="#F9F9F9" d="M765.925 867.575C806.831 866.949 847.968 867.934 888.896 867.543C895.191 867.483 901.586 867.491 907.884 867.56L907.977 1017.39L809.966 1017.49C794.979 1017.49 773.288 1018.18 758.799 1017.43C751.318 1017.73 742.037 1017.47 734.401 1017.47L685.179 1017.47L536.774 1017.46L115.832 1017.43L115.975 867.586L765.925 867.575Z"/><path fill="#030303" d="M765.925 867.575C806.831 866.949 847.968 867.934 888.896 867.543C895.191 867.483 901.586 867.491 907.884 867.56L907.977 1017.39L809.966 1017.49C794.979 1017.49 773.288 1018.18 758.799 1017.43C760.785 1017.1 763.838 1017.09 765.929 1017.01C768.406 1014.46 771.5 1009.53 772.975 1006.28C779.971 990.894 775.961 980.009 770.696 965.451L166.983 965.507C167.016 950.152 166.815 934.321 167.207 919.01L776.521 919.058C784.801 900.667 786.311 884.277 772.334 867.935C769.996 867.937 768.242 867.782 765.925 867.575Z"/><path fill="#C3C2C2" d="M765.925 867.575C806.831 866.949 847.968 867.934 888.896 867.543C895.191 867.483 901.586 867.491 907.884 867.56L907.977 1017.39L809.966 1017.49C794.979 1017.49 773.288 1018.18 758.799 1017.43C760.785 1017.1 763.838 1017.09 765.929 1017.01C768.406 1014.46 771.5 1009.53 772.975 1006.28C779.971 990.894 775.961 980.009 770.696 965.451L857.121 965.535C856.903 950.007 856.832 934.477 856.907 918.948L776.521 919.058C784.801 900.667 786.311 884.277 772.334 867.935C769.996 867.937 768.242 867.782 765.925 867.575Z"/><path fill="#181818" d="M174.433 944.069C174.494 942.017 174.21 940.434 175.137 938.851C178.595 937.806 204.641 938.517 209.802 938.533L276.529 938.463L548.562 938.522L622.858 938.612C655.118 938.745 687.393 938.966 719.656 938.792C729.539 938.741 739.423 938.758 749.306 938.844C760.474 938.89 775.043 935.894 766.392 957.139C765.393 959.593 759.26 958.339 756.374 958.573L478.994 958.778L272.626 958.84C239.902 958.618 207.177 958.627 174.454 958.867L174.433 944.069Z"/><path fill="#F9F9F9" d="M292.189 673.262L732.112 673.277C733.343 686.722 735.426 698.736 737.184 711.929C741.098 742.423 745.239 772.887 749.605 803.32C751.76 818.917 754.622 836.463 756.261 851.966L536.567 851.87L477.011 851.963C474.354 851.956 458.992 851.995 457.633 851.597L267.664 851.93C276.194 799.908 281.717 745.703 289.687 693.292C290.498 686.894 291.597 679.611 292.189 673.262Z"/><path fill="#C3C2C2" d="M292.189 673.262L732.112 673.277C733.343 686.722 735.426 698.736 737.184 711.929C741.098 742.423 745.239 772.887 749.605 803.32C751.76 818.917 754.622 836.463 756.261 851.966L536.567 851.87L477.011 851.963C474.354 851.956 458.992 851.995 457.633 851.597L458.367 851.307C457.687 850.528 455.426 851.198 453.517 850.722C457.523 850.862 459.862 849.886 463.713 849.62C469.418 849.225 475.289 849.075 481.013 848.897L623.557 843.758C641.026 843.157 658.466 842.526 675.952 842.246C686.745 842.073 696.371 841.244 701.81 830.531C701.598 819.815 697.295 793.398 695.721 782.217L683.747 695.579L569.092 694.989C552.282 694.91 535.456 694.575 518.665 695.304C515.188 695.455 506.904 694.418 504.181 696.332C507.575 696.294 517.758 695.483 520.033 697.513C514.702 696.86 509.31 696.865 503.98 697.528C503.785 696.507 503.633 696.114 503.314 695.121C501.278 694.248 458.137 694.519 453.554 694.517L342.006 693.8L310.62 693.568C304.097 693.55 296.095 693.748 289.687 693.292C290.498 686.894 291.597 679.611 292.189 673.262Z"/><path fill="#030303" d="M503.98 697.528C509.31 696.865 514.702 696.86 520.033 697.513C554.394 701.724 579.546 731.943 577.452 766.496C575.358 801.05 546.741 828.01 512.124 828.041C477.507 828.072 448.841 801.164 446.685 766.614C444.529 732.064 469.627 701.8 503.98 697.528Z"/><path fill="#BB4248" d="M505.433 702.179C510.063 701.75 516.425 701.919 521.012 702.542C536.771 704.782 550.977 713.237 560.459 726.021C572.049 741.34 573.951 757.015 571.297 775.387C562.607 764.964 551.55 760.969 538.439 760.015C535.477 747.764 531.228 742.142 519.421 737.662C500.799 734.678 489.783 741.941 485.29 760.388C470.246 760.653 463.763 764.75 452.779 774.723C446.725 738.044 468.728 707.843 505.433 702.179Z"/><path fill="#181818" d="M508.963 741.567C525.485 740.208 531.93 751.042 534.434 765.544C536.043 765.51 537.652 765.508 539.261 765.539C552.764 765.898 561.077 771.319 569.987 780.804C566.855 788.123 563.113 795.165 558.801 801.857C548.969 794.259 535.307 787.97 524.277 799.15C518.415 805.092 519.796 814.82 520.239 822.616C519.045 823.701 518.915 823.335 516.858 823.467C512.323 823.475 508.387 823.308 503.855 823.043C504.821 816.376 505.297 805.656 500.742 800.449C489.364 787.441 476.187 793.453 465.559 802.071C461.163 797.073 456.305 786.733 454.437 780.311C466.549 769.035 472.392 765.116 489.328 765.671C492.047 752.358 495.007 745.569 508.963 741.567Z"/><path fill="#F9F9F9" d="M482.334 797.572C483.776 797.479 486.219 797.376 487.615 797.526C491.412 797.925 494.862 799.912 497.111 802.996C501.368 808.905 500.405 815.792 499.276 822.363L491.376 819.699C481.818 816.023 476.504 812.811 469.357 805.283C473.471 801.266 476.95 799.355 482.334 797.572Z"/><path fill="#F9F9F9" d="M535.58 797.596C544.644 796.469 548.517 799.648 555.092 805.116C550.44 809.889 545.061 813.894 539.154 816.98C533.748 819.566 530.517 820.531 524.692 821.975C522.431 809.528 523.422 803.2 535.58 797.596Z"/><path fill="#F9F9F9" d="M192.443 550.346C192.703 545.408 195.737 541.144 200.941 540.975C208.808 540.719 216.645 540.801 224.516 540.813L261.75 540.797L385.023 540.844L769.405 540.784C781.399 540.876 793.393 540.891 805.387 540.83C811.896 540.817 818.638 540.551 825.081 541.212C828.178 541.53 831.257 546.097 831.457 549.041C832.307 561.593 831.873 574.38 831.875 586.984L831.913 665.954L405.505 665.978L266.044 665.957L219.17 665.827C210.716 665.82 200.422 666.094 192.074 665.775L192.058 585.348C192.059 579.608 191.664 554.263 192.443 550.346Z"/><path fill="#030303" d="M400.692 655.079C389.874 654.419 373.233 654.995 365.314 646.637C355.711 636.502 353.595 610.857 354.115 597.555C354.611 584.88 356.923 565.317 367.02 556.281C374.673 549.434 408.136 549.789 419.613 549.268C488.288 546.134 557.079 546.517 625.715 550.415C634.297 550.892 653.837 551.096 659.117 558.175C673.188 577.038 674.192 634.393 655.403 649.75C643.197 655.134 616.356 655.473 602.176 656.177C555.919 658.577 509.584 659.106 463.284 657.761C442.413 657.028 421.549 656.134 400.692 655.079Z"/><path fill="#C3C2C2" d="M500.851 550.969C533.868 550.856 566.883 551.555 599.866 553.067C611.552 553.929 640.824 553.643 650.814 557.496C670.575 565.118 668.921 633.137 654.391 645.31C647.996 650.668 617.418 651.588 606.497 652.18C553.233 654.917 499.872 655.251 446.578 653.181C431.799 652.64 383.52 651.847 372.28 646.818C362.901 642.621 359.964 624.307 359.01 615.161C358.718 612.654 358.521 610.137 358.419 607.615C357.873 593.768 358.765 571.132 368.816 560.093C370.965 557.734 375.675 556.182 378.818 555.766C391.175 554.131 404.962 553.711 417.426 553.176C445.22 551.97 473.032 551.235 500.851 550.969Z"/><path fill="#929494" d="M599.866 553.067C611.552 553.929 640.824 553.643 650.814 557.496C670.575 565.118 668.921 633.137 654.391 645.31C647.996 650.668 617.418 651.588 606.497 652.18C553.233 654.917 499.872 655.251 446.578 653.181C431.799 652.64 383.52 651.847 372.28 646.818C374.455 645.561 377.41 646.357 380.355 646.408C393.907 646.583 407.659 646.254 421.219 645.862C468.622 644.494 518.404 645.119 565.46 640.208C594.375 637.19 600.826 584.356 601.13 561.833C601.165 559.222 601.729 555.039 599.866 553.067Z"/><path fill="#030303" d="M637.548 564.727C641.538 563.187 646.019 565.182 647.545 569.178C649.071 573.173 647.06 577.648 643.059 579.159C640.087 580.282 636.73 579.47 634.599 577.113C632.893 575.226 632.226 572.62 632.815 570.145C633.404 567.67 635.174 565.643 637.548 564.727Z"/><path fill="#929494" d="M638.87 567.814C640.397 567.256 642.108 567.598 643.304 568.699C644.5 569.801 644.981 571.478 644.55 573.046C644.119 574.614 642.849 575.81 641.258 576.146C639.028 576.618 636.812 575.284 636.183 573.092C635.555 570.901 636.728 568.596 638.87 567.814Z"/><path fill="#030303" d="M639.847 625.182C644.027 624.981 647.589 628.182 647.834 632.359C648.08 636.536 644.917 640.132 640.743 640.422C638.003 640.613 635.372 639.317 633.853 637.028C632.334 634.739 632.162 631.811 633.402 629.36C634.642 626.91 637.104 625.314 639.847 625.182Z"/><path fill="#929494" d="M639.509 628.808C641.743 628.362 643.921 629.794 644.398 632.021C644.875 634.249 643.475 636.447 641.254 636.955C639.789 637.291 638.258 636.812 637.245 635.701C636.233 634.591 635.897 633.021 636.365 631.594C636.834 630.166 638.035 629.102 639.509 628.808Z"/><path fill="#030303" d="M649.572 595.296C652.246 594.558 655.111 595.329 657.053 597.311C658.994 599.293 659.707 602.173 658.914 604.832C658.122 607.49 655.948 609.509 653.238 610.104C649.199 610.991 645.189 608.499 644.195 604.485C643.201 600.471 645.586 596.396 649.572 595.296Z"/><path fill="#929494" d="M650.403 598.295C651.919 597.862 653.552 598.278 654.676 599.384C655.8 600.49 656.243 602.115 655.835 603.638C655.428 605.162 654.232 606.348 652.706 606.745C650.384 607.347 648.01 605.971 647.38 603.657C646.749 601.344 648.097 598.953 650.403 598.295Z"/><path fill="#F9F9F9" d="M359.01 615.161C358.718 612.654 358.521 610.137 358.419 607.615C357.873 593.768 358.765 571.132 368.816 560.093C370.965 557.734 375.675 556.182 378.818 555.766C391.175 554.131 404.962 553.711 417.426 553.176C445.22 551.97 473.032 551.235 500.851 550.969C502.094 552.771 502.008 551.906 501.77 553.564C498.61 555.949 453.156 557.654 445.023 559.025C434.915 583.746 426.493 609.701 418.182 635.119C412.677 614.948 407.886 582.019 407.453 561.076C399.363 561.705 377.344 560.28 372.881 566.417C363.769 578.947 363.744 599.374 361.068 614.235C360.946 614.913 359.528 615.089 359.01 615.161Z"/><path fill="#030303" d="M546.817 564.326C547.502 564.328 548.273 564.459 548.969 564.545C551.239 566.006 552.256 567.864 553.823 570.094C548.113 576.092 541.678 582.623 535.24 587.829C532.34 585.688 529.281 583.772 526.09 582.097C490.698 563.385 473.99 612.458 502.087 624.637C507.445 626.971 513.512 627.07 518.943 624.914C526.644 621.86 531.901 614.493 530.341 606.062C529.884 603.59 528.717 601.123 527.732 598.814C527.281 607.782 525.175 616.81 515.051 619.25C510.86 620.252 506.443 619.509 502.81 617.192C498.77 614.588 496.01 610.406 495.204 605.668C493.243 594.779 499.614 586.862 510.359 585.35C514.406 585.63 518.57 585.804 522.554 586.618C528.215 587.774 531.994 590.108 535.128 595.01C538.753 600.681 540.593 607.979 539.08 614.614C537.537 621.387 533.026 627.213 527.213 630.908C523.398 633.333 518.899 635.047 514.395 635.557C506.788 636.417 468.841 632.702 460.507 630.788C463.582 620.581 470.97 612.421 475.616 603.022C478.554 597.254 479.566 589.902 482.922 584.389C495.347 563.976 516.525 565.761 534.69 575.825C539.243 571.396 541.734 568.409 546.817 564.326Z"/><path fill="#5F5F70" d="M547.697 567.32C548.596 567.531 548.343 567.491 549.16 568.026L549.148 569.291C546.759 573.843 538.975 580.834 535.059 584.661C525.29 575.063 507.789 570.93 496.065 579.779C475.756 594.191 484.327 626.784 508.251 629.669C522.949 631.441 540.179 614.778 531.031 599.934C526.588 592.726 523.331 593.829 519.313 589.205L519.945 588.585C525.685 588.414 529.385 591.748 532.762 596.038L533.209 596.615C539.86 606.684 536.857 620.66 527.117 627.655C523.883 629.991 520.154 631.548 516.219 632.204C504.794 634.102 475.385 630.02 463.943 628.286C468.637 619.919 474.765 611.408 479.04 603.16C481.219 598.957 481.346 592.614 484.538 586.904C488.469 579.737 495.144 574.475 503.031 572.327C514.645 569.207 525.011 573.925 534.852 579.525C538.954 575.988 543.717 571.164 547.697 567.32Z"/><path fill="#030303" d="M480.244 608.739C482.904 610.512 484.971 617.939 486.769 620.68C487.898 622.401 489.922 624.847 491.251 626.698C489.587 627.963 484.891 627.503 482.611 627.456C478.286 626.931 474.737 626.444 470.468 625.619C472.938 619.423 476.493 614.184 480.244 608.739Z"/><path fill="#C3C2C2" d="M479.757 613.838C481.688 615.976 485.043 622.108 486.652 624.858C484.948 624.876 482.891 624.708 481.159 624.617L472.926 623.848C474.917 620.602 477.554 617.002 479.757 613.838Z"/><defs><linearGradient id="gradient_0" gradientUnits="userSpaceOnUse" x1="497.42291" y1="605.97211" x2="523.22455" y2="598.56006"><stop offset="0" stop-color="#B6B1E1"/><stop offset="1" stop-color="#CCCAE5"/></linearGradient></defs><path fill="url(#gradient_0)" d="M526.149 601.621C525.937 605.377 525.412 608.092 523.356 611.313C514.103 625.808 494.793 614.981 496.123 600.267C496.536 596.101 498.665 592.295 501.999 589.764C507.043 585.925 511.348 586.414 517.023 587.171C516.182 588.259 515.239 589.418 515.016 590.698C515.031 591.045 513.972 593.927 513.876 593.946C508.902 594.907 503.477 594.747 502.808 601.118C502.105 607.805 511.492 613.879 516.674 608.734C518.786 606.637 518.915 603.121 518.844 600.365C517.764 598.492 516.753 596.549 515.392 594.882C521.387 594.87 525.382 594.396 526.149 601.621Z"/><path fill="#B9B5DD" d="M515.392 594.882C521.387 594.87 525.382 594.396 526.149 601.621C523.727 602.114 522.603 600.291 519.326 599.705L518.844 600.365C517.764 598.492 516.753 596.549 515.392 594.882Z"/><path fill="#030303" d="M382.246 564.345C386.353 563.65 390.268 566.347 391.082 570.433C391.896 574.518 389.314 578.51 385.254 579.442C382.521 580.07 379.663 579.162 377.793 577.072C375.923 574.983 375.336 572.041 376.263 569.394C377.189 566.747 379.481 564.813 382.246 564.345Z"/><path fill="#C3C2C2" d="M382.557 567.736C384.905 567.223 387.221 568.721 387.716 571.073C388.211 573.424 386.695 575.728 384.34 576.206C382.01 576.678 379.736 575.182 379.246 572.856C378.756 570.529 380.235 568.243 382.557 567.736Z"/><path fill="#030303" d="M381.061 625.769C385.021 624.437 389.314 626.546 390.682 630.493C392.049 634.441 389.98 638.754 386.045 640.157C382.059 641.579 377.678 639.477 376.293 635.478C374.907 631.479 377.049 627.118 381.061 625.769Z"/><path fill="#C3C2C2" d="M382.867 628.77C384.412 628.576 385.94 629.234 386.861 630.489C387.782 631.744 387.952 633.399 387.304 634.814C386.657 636.23 385.294 637.184 383.742 637.308C381.416 637.493 379.368 635.787 379.131 633.466C378.893 631.146 380.552 629.06 382.867 628.77Z"/><path fill="#030303" d="M369.964 595.306C373.941 594.159 378.098 596.437 379.27 600.406C380.442 604.375 378.19 608.546 374.228 609.743C370.231 610.951 366.015 608.674 364.832 604.67C363.65 600.665 365.953 596.463 369.964 595.306Z"/><path fill="#C3C2C2" d="M371.251 598.334C373.381 597.862 375.515 599.104 376.158 601.189C376.801 603.273 375.736 605.501 373.711 606.311C372.246 606.896 370.577 606.609 369.392 605.567C368.207 604.526 367.708 602.908 368.101 601.38C368.494 599.852 369.711 598.675 371.251 598.334Z"/><path fill="#C3C2C2" d="M769.405 540.784C781.399 540.876 793.393 540.891 805.387 540.83C811.896 540.817 818.638 540.551 825.081 541.212C828.178 541.53 831.257 546.097 831.457 549.041C832.307 561.593 831.873 574.38 831.875 586.984L831.913 665.954L405.505 665.978L266.044 665.957L219.17 665.827C210.716 665.82 200.422 666.094 192.074 665.775L192.058 585.348C192.059 579.608 191.664 554.263 192.443 550.346C192.88 563.211 192.572 577.798 192.571 590.781L192.481 662.738C201.115 663.158 211.624 662.538 220.389 662.253L265.107 660.981L354.671 658.796C370.088 658.342 383.99 658.264 399.532 657.266L398.787 657.145L398.308 656.634L398.774 655.897C400.608 655.737 401.301 655.754 403.148 655.865L401.553 655.656L401.643 655.331L400.692 655.079C421.549 656.134 442.413 657.028 463.284 657.761C509.584 659.106 555.919 658.577 602.176 656.177C616.356 655.473 643.197 655.134 655.403 649.75C663.132 651.265 678.395 649.457 686.762 649.561C723.923 650.026 773.904 651.559 780.021 603.519C782.587 583.371 782.128 557.946 769.405 540.784Z"/><path fill="#F9F9F9" d="M504.907 18.2026C515.082 17.1857 526.88 18.6696 536.67 21.4067C556.252 26.8814 574.27 39.255 584.156 57.28C591.546 70.755 594.256 85.752 590.329 100.737C588.881 106.261 586.854 111.344 585.259 116.84C589.254 120.722 605.369 128.852 611.239 132.32C624.314 140.002 637.4 147.399 650.249 155.49C756.971 222.734 880.759 325.101 869.346 464.997C866.423 500.821 855.253 528.94 839.064 560.367C840.67 535.389 831.873 533.667 809.861 533.75C805.241 533.762 800.622 533.69 796.004 533.534C798.707 528.662 801.323 523.878 803.576 518.77C869.518 369.261 713.756 253.167 604.126 187.507C590.164 179.034 576.015 170.873 561.689 163.032C555.308 159.542 547.503 155.102 540.991 152.206C532.305 153.492 527.17 154.982 517.833 155.809C502.308 157.306 495.597 153.484 482.367 152.334C481.836 152.58 481.31 152.837 480.789 153.106C459.539 164.092 438.797 176.312 418.086 188.77C309.117 254.316 160.494 365.079 217.597 511.723C220.514 519.215 224.597 526.614 228.338 533.769C206.086 534.588 180.712 526.931 185.078 560.387C168.836 530.789 157.772 498.363 154.59 464.667C141.583 326.939 269.599 220.009 374.815 154.726C383.529 149.319 436.054 119.566 437.868 117.037C438.32 116.406 438.303 115.795 438.201 115.039C437.908 112.873 436.646 110.256 435.952 108.149C434.323 103.205 433.049 98.3244 432.476 93.1389C430.629 76.4293 436.278 60.1685 446.681 47.2129C461.165 29.1772 482.347 20.5948 504.907 18.2026Z"/><path fill="#030303" d="M510.311 69.2103C542.861 67.1992 553.819 100.118 515.405 104.937C506.479 105.096 497.83 104.421 490.728 98.8206C479.242 89.7647 483.621 76.6667 496.236 71.9394C501.663 69.9055 504.635 69.5493 510.311 69.2103Z"/><path fill="#C3C2C2" d="M507.822 76.639C531.002 74.5414 544.479 93.0003 516.705 97.2295C493.929 100.424 478.455 81.3973 507.822 76.639Z"/><path fill="#F9F9F9" d="M575.282 34.7041L629.219 13.9967C626.407 19.2135 622.698 24.4693 619.592 29.6021C613.126 40.2853 606.433 50.8729 600.393 61.8064C616.938 57.6828 634.039 52.4461 650.855 48.1344C687.448 39.0013 724.174 30.4083 761.02 22.3583L758.397 26.1966C753.285 35.648 719.128 87.1061 718.268 91.6474C718.573 91.8228 719.018 92.1127 719.327 92.2153C753.613 88.9773 787.945 86.2361 822.31 83.9927C834.133 83.1776 845.96 82.4307 857.792 81.7519C860.472 81.6071 871.64 80.3673 872.889 81.6457L871.874 83.1277C864.248 97.1001 803.018 185.685 802.557 188.279C802.511 188.54 802.687 188.793 802.751 189.05L804.407 189.872C813.373 191.574 899.816 211.12 901.841 212.419C901.071 213.631 901.424 213.094 899.645 213.807C877.813 225.874 854.134 236.588 832.172 248.793C837.342 254.231 848.509 263.248 854.566 268.369L896.46 303.379C878.107 304.103 859.144 305.487 840.79 306.691C852.947 323.416 866.271 342.713 878.795 358.886C871.872 357.284 864.914 355.841 857.926 354.558C832.688 303.92 803.196 265.204 760.348 227.998C758.178 226.115 755.585 223.872 753.581 221.843C735.584 206.853 721.471 195.511 702.525 181.638C697.158 178.451 687.488 171.394 681.872 167.625C669.265 159.098 656.461 150.868 643.47 142.94C633.227 136.755 622.912 130.687 612.53 124.739C606.095 121.22 599.893 117.893 593.715 113.922C598.183 102.442 599.184 95.3233 599.064 83.2166L599.051 82.5705C598.482 62.7056 589.247 47.9886 575.282 34.7041Z"/><path fill="#C3C2C2" d="M793.746 234.296C801.228 233.632 812.818 230.965 820.596 229.438C837.709 226.103 854.777 222.538 871.795 218.747C876.932 217.582 896.288 212.13 899.645 213.807C877.813 225.874 854.134 236.588 832.172 248.793C837.342 254.231 848.509 263.248 854.566 268.369L896.46 303.379C878.107 304.103 859.144 305.487 840.79 306.691C852.947 323.416 866.271 342.713 878.795 358.886C871.872 357.284 864.914 355.841 857.926 354.558C832.688 303.92 803.196 265.204 760.348 227.998C758.178 226.115 755.585 223.872 753.581 221.843C769.032 223.444 791.514 224.671 807.068 225.007L793.746 234.296Z"/><path fill="#C3C2C2" d="M745.11 187.203C748.831 183.307 758.986 175.231 763.536 171.458L800.301 141.286L853.448 97.5228C856.659 94.9054 868.817 84.0846 871.874 83.1277C864.248 97.1001 803.018 185.685 802.557 188.279C802.511 188.54 802.687 188.793 802.751 189.05L804.407 189.872C799 192.422 753.87 187.706 745.11 187.203Z"/><path fill="#C3C2C2" d="M643.47 142.94L713.386 135.967C728.001 134.563 743.88 133.51 758.277 131.869C746.254 144.717 729.041 157.498 716.044 169.724C713.471 172.144 704.41 179.471 702.525 181.638C697.158 178.451 687.488 171.394 681.872 167.625C669.265 159.098 656.461 150.868 643.47 142.94Z"/><path fill="#C3C2C2" d="M670.812 101.168C670.926 101.03 671.04 100.891 671.154 100.752L671.736 100.069C675.56 95.5307 681.579 90.3286 686.086 86.2525C694.279 78.7944 702.584 71.4609 711 64.2545C718.487 57.7524 751.88 27.4887 758.397 26.1966C753.285 35.648 719.128 87.1061 718.268 91.6474C718.573 91.8228 719.018 92.1127 719.327 92.2153C703.511 96.8039 686.359 97.2849 670.812 101.168Z"/><path fill="#C3C2C2" d="M599.064 83.2166L599.797 86.1707C600.575 86.4377 649.392 71.0425 657.529 70.1328C647.739 82.7178 637.856 94.3912 627.605 106.54C623.382 111.546 616.201 119.615 612.53 124.739C606.095 121.22 599.893 117.893 593.715 113.922C598.183 102.442 599.184 95.3233 599.064 83.2166Z"/><path fill="#C3C2C2" d="M230.169 692.999C230.572 689.201 231.527 675.788 233.581 673.689C237.228 672.849 241.378 673.086 245.115 673.048C259.404 672.905 273.787 673.358 288.067 673.099C287.331 678.352 286.304 688.28 285.273 693.202C281.287 715.251 278.303 742.42 275.304 765L263.376 851.99C245.039 851.736 226.242 851.977 207.849 851.915C214.62 798.972 222.999 745.976 230.169 692.999Z"/><path fill="#F9F9F9" d="M255.1 693.426L255.617 693.485C256.242 697.982 251.328 729.052 250.45 735.186C246.498 762.349 242.901 789.562 239.66 816.819C238.519 826.087 235.782 843.023 235.379 851.603C230.98 851.5 226.432 851.527 222.018 851.494C226.092 813.771 233.904 774.826 239.029 737.12C240.893 723.409 243.888 707.155 244.71 693.544C248.339 693.596 251.479 693.592 255.1 693.426Z"/><path fill="#929494" d="M230.169 692.999C230.572 689.201 231.527 675.788 233.581 673.689C237.228 672.849 241.378 673.086 245.115 673.048C259.404 672.905 273.787 673.358 288.067 673.099C287.331 678.352 286.304 688.28 285.273 693.202C278.323 693.814 263.388 693.317 255.617 693.485L255.1 693.426C250.315 692.835 235.161 692.817 230.169 692.999Z"/><path fill="#929494" d="M736.266 673.34L790.836 673.363C793.959 691.033 796.653 711.814 799.178 729.723L812.143 821.777C813.536 831.554 814.681 842.308 816.247 851.896C800.925 851.98 782.083 852.553 766.89 851.925L760.401 852.021C754.134 800.822 746.403 748.614 739.339 697.448C738.431 689.38 737.153 681.306 736.266 673.34Z"/><path fill="#C3C2C2" d="M739.339 697.448C739.572 695.708 739.324 694.828 740.319 693.966C745.132 693.635 759.147 693.667 764.093 694.073C765.67 700.584 766.487 708.504 767.48 715.255L773.161 756.426C777.502 788.209 782.579 820.022 786.746 851.682C782.129 851.593 771.089 851.192 766.89 851.925L760.401 852.021C754.134 800.822 746.403 748.614 739.339 697.448Z"/><path fill="#F9F9F9" d="M406.744 42.3719C407.045 43.9994 406.303 59.3139 406.239 61.948C405.87 77.2434 405.496 92.6394 404.851 107.928C411.016 101.319 418.109 94.6553 424.623 88.3173C425.212 98.6049 426.866 104.667 430.103 114.132C425.124 117.233 419.616 120.352 414.471 123.196C388.231 137.698 363.421 153.445 338.483 170.059L336.98 171.039C335.861 170.198 323.75 122.639 322.467 117.779C331.11 126.217 346.335 138.88 355.869 147.316C359.117 112.266 363.05 102.754 384.531 73.645C391.462 64.2538 399.402 52.1665 406.744 42.3719Z"/></svg>