<?xml version="1.0" encoding="utf-8" ?><svg xmlns="http://www.w3.org/2000/svg" xmlns:xlink="http://www.w3.org/1999/xlink" width="1024" height="1024" viewBox="0 0 1024 1024"><path d="M429.872 0L439.587 0C457.229 13.0551 472.85 27.8346 487.715 43.955C490.853 47.3579 497.029 53.8428 499.567 57.501C513.303 51.0733 525.087 55.9371 536.077 64.6728L536.603 64.2975C544.023 58.9258 550.253 53.0863 558.431 47.3624C588.239 26.501 620.747 11.3045 655.284 0L658.032 0C658.4 16.359 658.149 33.3301 657.433 49.6885C657.124 56.7419 656.521 63.6636 656.442 70.7472C666.67 58.9821 675.681 44.9648 685.88 32.9965C693.476 24.0834 697.007 16.3126 709.114 12.6576C717.688 10.0224 726.961 10.9511 734.841 15.234C741.84 19.1267 747.51 25.9146 749.863 33.5155C756.635 55.3949 764.032 77.6944 770.414 99.6507C777.037 98.3761 784.832 97.9434 791.572 97.3535C813.254 95.4557 833.559 95.6455 855.216 97.7171C852.792 102.892 840.787 118.545 836.917 123.186C855.655 111.584 873.646 97.5628 891.935 85.1178C905.256 76.0531 915.694 73.0861 930.948 80.4523C944.545 87.0182 951.055 105.142 945.604 119.049C942.702 126.451 939.127 133.289 935.571 140.415L917.025 177.451C896.992 217.388 877.019 258.203 856.531 297.821C870.624 310.383 890.805 330.66 901.308 346.235C894.606 348.07 881.646 349.204 874.637 349.936C861.137 351.345 847.366 352.592 833.804 353.162C836.393 356.869 838.893 360.638 841.301 364.466C846.243 372.322 867.701 413.808 865.129 420.346C864.59 421.716 864.175 421.871 862.944 422.502C857.606 422.551 837.068 413.993 831.003 411.607C831.16 451.992 830.586 492.278 831.029 532.807C815.242 533.113 798.992 532.975 783.187 532.998C789.313 555.604 794.599 579.501 800.318 602.362L842.511 772.698C849.37 800.623 856.221 831.366 863.961 858.832C872.276 858.343 883.475 858.594 892.041 858.626C905.056 858.683 918.07 858.649 931.084 858.525C931.413 869.364 931.048 882.484 931.043 893.472L931.027 976.325C931.027 991.471 930.704 1008.18 931.228 1023.21C921.631 1023.59 910.912 1023.21 901.176 1023.19L844.476 1023.13L668.365 1023.14L117.379 1023.14C116.476 1007.21 117.161 983.343 117.147 966.9L117.211 858.585L201.12 858.491C203.52 849.091 205.274 839.305 207.297 829.79L216.693 786.83L248.895 639.981C254.127 615.037 259.549 590.134 265.161 565.273C267.509 554.677 269.712 543.456 272.312 532.971L208.596 533.075C208.317 517.212 208.554 500.572 208.541 484.658C208.364 461.781 208.501 438.902 208.952 416.028C203.738 418.217 192.046 423.652 186.816 421.804C186.097 421.55 185.678 421.027 185.423 420.3C183.168 413.859 201.62 380.853 205.173 373.943C200.93 366.398 196.708 357.309 192.973 349.47C174.129 346.919 158.613 346.039 139.055 342.114C140.788 340.443 142.628 338.084 144.104 336.123C152.363 325.143 161.577 315.868 171.635 306.515C168.524 301.481 163.686 291.295 160.917 285.715L142.184 247.848L94.8212 153.069C85.0196 133.129 67.3974 110.985 82.4939 89.7081C87.4924 82.8068 95.0136 78.1583 103.422 76.7735C109.551 75.7035 115.861 76.4804 121.548 79.0055C129.339 82.4347 150.714 98.2591 158.657 103.747C184.584 121.533 210.392 139.492 236.08 157.623C240.023 144.071 244.165 129.119 248.973 115.941C242.234 99.9934 234.869 70.6298 231.679 53.6956C240.003 56.3602 256.918 61.6338 264.299 65.4573C271.855 43.4809 272.966 13.1379 303.154 11.1631C321.465 9.9654 330.058 22.6832 340.253 35.4749C347.099 44.0176 353.852 52.6342 360.511 61.3231C364.696 66.8232 370.379 74.7167 374.741 79.7961C377.948 83.531 386.953 89.7245 391.548 93.8481C398.329 67.7601 407.861 42.4664 419.986 18.3927C422.812 12.7251 426.478 5.25963 429.872 0Z"/><path fill="#E26A41" d="M337.784 538.073L717.297 538.046C720.097 549.119 722.834 560.207 725.51 571.31C742.767 641.736 761.493 713.051 778.015 783.52C613.401 782.333 448.782 782.331 284.168 783.515C286.374 775.257 288.319 765.201 290.164 756.762L300.758 708.291L330.648 571.093C332.956 560.071 335.334 549.064 337.784 538.073Z"/><path fill="#C64C39" d="M337.784 538.073L717.297 538.046C720.097 549.119 722.834 560.207 725.51 571.31C639.004 566.825 552.373 565.241 465.761 566.561C440.235 567.115 414.713 567.813 389.195 568.655C369.704 569.435 350.148 570.62 330.648 571.093C332.956 560.071 335.334 549.064 337.784 538.073Z"/><path fill="#BEBEBE" d="M379.621 352.696C390.145 350.726 414.749 349.739 426.105 348.98C483.152 345.26 540.371 344.97 597.453 348.113C617.427 349.212 639.319 350.448 659.217 352.931L667.613 353.748L677.961 378.97C680.059 384.13 683.847 393.15 684.897 398.382C685.732 402.546 685.816 416.361 685.193 420.557C684.968 433.923 684.483 470.171 675.073 480.529C672.895 482.926 667.629 483.381 664.383 483.438C636.334 483.93 608.051 483.346 580 482.762C555.41 482.4 530.817 482.241 506.224 482.285C479.899 482.325 453.574 482.657 427.256 483.28C409.143 483.654 390.574 484.036 372.451 483.545C368.835 483.447 364.059 482.413 361.679 479.522C354.679 471.018 352.468 442.18 352.439 431.252C350.651 420.231 351.683 400.762 355.306 390.281C359.972 378.234 365.626 366.216 369.948 354.208C372.674 353.603 376.759 353.118 379.621 352.696Z"/><path fill="#868587" d="M659.217 352.931L667.613 353.748L677.961 378.97C680.059 384.13 683.847 393.15 684.897 398.382C685.732 402.546 685.816 416.361 685.193 420.557C681.627 416.27 675.185 388.339 669.223 379.741C671.874 377.434 672.788 373.71 671.506 370.438C670.225 367.165 667.024 365.052 663.512 365.159C662.325 360.745 660.02 357.693 659.217 352.931Z"/><path fill="#868587" d="M369.948 354.208C372.674 353.603 376.759 353.118 379.621 352.696C378.556 354.904 374.573 362.723 374.93 364.986C371.235 364.658 367.766 366.802 366.406 370.253C365.046 373.704 366.121 377.638 369.046 379.918C367.964 382.119 362.799 395.278 362.319 395.769C357.446 393.293 358.952 392.859 355.306 390.281C359.972 378.234 365.626 366.216 369.948 354.208Z"/><path d="M374.93 364.986C378.484 365.302 381.447 367.837 382.308 371.3C383.17 374.763 381.74 378.391 378.748 380.335C375.756 382.279 371.86 382.112 369.046 379.918C366.121 377.638 365.046 373.704 366.406 370.253C367.766 366.802 371.235 364.658 374.93 364.986Z"/><path fill="#BEBEBE" d="M373.594 368.351C376.2 367.985 378.624 369.755 379.069 372.348C379.514 374.941 377.818 377.418 375.24 377.942C373.501 378.295 371.708 377.674 370.56 376.321C369.412 374.968 369.091 373.098 369.723 371.439C370.354 369.781 371.837 368.598 373.594 368.351Z"/><path d="M663.512 365.159C667.024 365.052 670.225 367.165 671.506 370.438C672.788 373.71 671.874 377.434 669.223 379.741C666.462 382.144 662.453 382.458 659.351 380.515C656.249 378.572 654.783 374.828 655.74 371.295C656.698 367.762 659.853 365.271 663.512 365.159Z"/><path fill="#BEBEBE" d="M661.455 368.934C663.046 368.121 664.953 368.237 666.433 369.237C667.914 370.236 668.734 371.961 668.575 373.741C668.416 375.52 667.303 377.072 665.668 377.793C663.239 378.865 660.397 377.809 659.256 375.411C658.116 373.013 659.09 370.143 661.455 368.934Z"/><path fill="#5E5E61" d="M355.306 390.281C358.952 392.859 357.446 393.293 362.319 395.769C359.245 403.847 355.636 412.097 353.081 420.331C351.985 423.863 352.629 427.608 352.439 431.252C350.651 420.231 351.683 400.762 355.306 390.281Z"/><path d="M573.455 364.961C577.957 366.229 579.621 368.11 582.074 371.899C578.294 376.839 563.717 391.251 558.823 394.617C544.029 386.944 530.515 377.958 513.265 385.571C505.159 389.212 498.806 395.889 495.571 404.165C492.409 412.568 492.758 421.89 496.54 430.033C500.238 438.119 507.007 444.397 515.347 447.479C544.259 457.986 570.908 423.339 539.381 408.035C532.86 404.87 522.469 409.231 520.848 416.626C519.783 421.484 522.333 426.313 527.74 426.853C537.641 428.189 534.921 416.485 537.912 414.113C539.293 414.481 540.638 415.578 541.219 416.912C547.415 431.144 533.267 440.507 520.364 435.673C515.726 433.97 511.974 430.464 509.96 425.952C507.473 420.249 508.323 415.053 510.521 409.523C521.201 390.326 546.425 392.506 558.801 407.974C563.912 414.329 566.205 422.497 565.149 430.584C564.004 439.763 559.154 448.075 551.726 453.587C531.052 469.198 492.944 456.861 468.925 456.301C465.478 456.221 456.495 455.33 454.447 452.603C453.23 443.631 478.031 415.632 481.366 406.463C494.558 370.193 524.104 360.136 558.03 379.581C562.387 375.585 569.199 367.998 573.455 364.961Z"/><path fill="#5E5E61" d="M574.219 368.317C575.993 369.29 576.816 370.366 578.243 371.847C572.008 378.421 565.105 384.893 558.53 391.165C546.535 383.743 535.112 377.526 520.386 379.984C510.98 381.532 502.6 386.817 497.151 394.638C491.462 402.697 489.251 412.705 491.017 422.411C494.537 442.483 512.649 455.963 533.308 451.728C555.537 447.172 566.362 421.433 544.734 406.798C533.757 398.519 511.79 409.052 518.287 423.166C522.755 432.871 534.355 432.417 538.403 421.875L538.639 421.245L539.036 421.224C541.756 435.121 518.072 440.756 511.919 420.548C510.368 396.806 542.05 392.156 556.429 410.337C561.023 416.166 562.999 423.637 561.889 430.976C560.694 438.907 556.063 446.223 549.614 450.952C544.859 454.437 539.32 456.702 533.485 457.547C524.439 458.895 516.935 457.559 508.108 456.865C491.021 455.543 473.985 453.638 457.028 451.154C459.054 446.814 461.72 443.253 464.174 439.185C470.561 428.598 477.474 418.332 484.172 407.963C486.297 404.034 487.38 399.243 489.544 395.354C499.091 378.196 517.384 369.885 536.601 373.991C545.064 375.8 551.083 379.229 558.604 383.267C563.718 378.251 569.031 373.27 574.219 368.317Z"/><path d="M483.437 418.754C485.366 420.333 485.896 428.015 487.644 432.013C491.482 440.786 495.47 444.55 502.042 451.116C497.074 450.798 492.789 450.362 487.877 449.778C484.494 449.318 469.113 447.852 467.53 446.045C468.142 441.869 480.346 422.867 483.437 418.754Z"/><path fill="#BEBEBE" d="M481.969 425.933C482.48 426.509 485.633 434.607 486.322 436.077C488.764 441.282 490.175 443.191 493.97 447.445C490.682 447.006 487.397 446.541 484.116 446.05C480.134 445.733 474.727 444.878 470.649 444.365L481.969 425.933Z"/><path d="M668.675 410.898C673.169 409.465 677.972 411.961 679.381 416.463C680.79 420.965 678.267 425.754 673.757 427.138C669.282 428.512 664.538 426.013 663.14 421.546C661.742 417.078 664.215 412.321 668.675 410.898Z"/><path fill="#BEBEBE" d="M669.399 413.918C672.031 412.843 675.035 414.118 676.091 416.758C677.147 419.397 675.851 422.392 673.205 423.43C670.584 424.457 667.624 423.177 666.578 420.563C665.533 417.949 666.792 414.981 669.399 413.918Z"/><path d="M371.198 455.352C375.811 454.526 380.223 457.588 381.064 462.198C381.905 466.809 378.857 471.231 374.249 472.087C369.62 472.947 365.173 469.882 364.328 465.25C363.484 460.618 366.563 456.181 371.198 455.352Z"/><path fill="#BEBEBE" d="M371.379 458.808C373.137 458.323 375.019 458.833 376.292 460.139C377.565 461.445 378.026 463.34 377.496 465.084C376.966 466.829 375.528 468.147 373.744 468.525C371.099 469.084 368.488 467.44 367.849 464.813C367.209 462.186 368.773 459.527 371.379 458.808Z"/><path d="M662.21 455.955C665.028 454.825 668.238 455.303 670.605 457.205C672.973 459.107 674.131 462.138 673.635 465.134C673.138 468.13 671.065 470.626 668.21 471.663C663.896 473.23 659.122 471.048 657.484 466.761C655.846 462.473 657.949 457.664 662.21 455.955Z"/><path fill="#BEBEBE" d="M663.798 458.87C665.523 458.309 667.417 458.722 668.751 459.951C670.085 461.18 670.651 463.034 670.232 464.799C669.813 466.564 668.474 467.965 666.73 468.464C664.1 469.216 661.353 467.722 660.553 465.106C659.754 462.491 661.197 459.717 663.798 458.87Z"/><path d="M363.976 410.816C368.403 409.505 373.054 412.031 374.366 416.457C375.677 420.883 373.153 425.535 368.727 426.848C364.299 428.162 359.645 425.637 358.333 421.208C357.021 416.78 359.548 412.126 363.976 410.816Z"/><path fill="#BEBEBE" d="M364.777 413.864C367.325 413.049 370.062 414.393 370.976 416.907C371.889 419.422 370.653 422.209 368.176 423.22C366.486 423.91 364.553 423.62 363.14 422.464C361.727 421.307 361.059 419.471 361.401 417.677C361.742 415.883 363.038 414.42 364.777 413.864Z"/><path fill="#1D4370" d="M283.222 787.5C448.547 788.668 613.878 788.699 779.204 787.593L794.853 851.768L782.25 851.892L269.363 851.913C274.014 831.196 279.443 808.247 283.222 787.5Z"/><path fill="#E26A41" d="M182.441 924.018L866.048 924.055C866.06 928.484 866.633 956.311 865.423 958.138L370.44 958.154C307.974 958.144 244.865 958.783 182.476 958.092L182.441 924.018Z"/><path fill="#1D4370" d="M723.986 354.666C733.749 365.096 770.898 408.184 775.087 419.283C776.917 424.131 776.191 431.026 776.019 436.197C775.832 441.828 775.382 447.515 774.134 453.02C772.268 461.041 770.705 465.221 766.809 472.393C759.708 471.752 751.959 471.778 744.777 471.659C752.933 474.638 766.223 476.823 770.449 485.097C775.808 495.589 770.992 505.318 760.746 510.22C720.021 505.436 677.691 503.909 636.709 502.425C564.229 499.523 491.665 499.374 419.174 501.979C375.459 503.463 322.141 504.74 279.059 510.715C273.685 507.605 269.994 503.676 268.324 497.591C263.158 478.763 285.014 474.583 298.01 471.532C289.699 471.343 281.385 471.508 273.088 472.026C268.378 462.441 266.95 457.448 265.148 446.955C263.547 437.921 264.151 427.871 264.583 418.747C270.12 409.552 282.206 394.934 289.025 386.178C297.11 375.797 304.891 366.014 314.112 356.616C314.424 363.282 315.21 370.169 315.867 376.831C318.425 400.174 322.145 428.831 330.253 451.072C336.241 440.29 341.102 424.596 346.467 412.901C346.554 421.474 347.174 430.738 347.481 439.376C347.795 449.572 350.545 476.233 358.003 483.624C361.825 487.411 368.675 488.619 374.023 488.87C393.946 489.805 414.614 489.19 434.577 488.808C462.525 488.311 490.476 488.033 518.429 487.974C545.838 488 573.246 488.26 600.65 488.751C621.463 489.154 643.34 489.536 664.122 488.726C669.508 488.516 677.089 487.074 680.429 482.671C687.424 473.447 689.067 450.683 690.115 439.124C690.611 430.224 690.9 421.315 690.983 412.402C693.659 419.168 703.254 445.367 706.654 450.09L707.003 449.947C711.555 444.682 721.786 385.975 722.649 376.383C723.194 369.067 723.506 361.934 723.986 354.666Z"/><path fill="#15273F" d="M723.986 354.666C733.749 365.096 770.898 408.184 775.087 419.283C776.917 424.131 776.191 431.026 776.019 436.197C775.832 441.828 775.382 447.515 774.134 453.02C768.757 445.688 762.513 433.049 757.355 425.002C749.582 412.875 741.747 400.455 733.146 388.89C730.84 385.789 725.453 378.563 722.649 376.383C723.194 369.067 723.506 361.934 723.986 354.666Z"/><path fill="#15273F" d="M264.583 418.747C270.12 409.552 282.206 394.934 289.025 386.178C297.11 375.797 304.891 366.014 314.112 356.616C314.424 363.282 315.21 370.169 315.867 376.831C310.729 377.894 279.176 424.318 274.29 431.756C271.011 436.68 267.961 441.751 265.148 446.955C263.547 437.921 264.151 427.871 264.583 418.747Z"/><path fill="#15273F" d="M346.467 412.901C346.554 421.474 347.174 430.738 347.481 439.376L346.714 438.483C345.329 441.431 344.274 445.601 343.101 448.797C340.891 454.822 338.603 460.793 336.308 466.787C334.203 462.108 332.154 454.57 330.253 451.072C336.241 440.29 341.102 424.596 346.467 412.901Z"/><path fill="#15273F" d="M690.983 412.402C693.659 419.168 703.254 445.367 706.654 450.09C703.56 452.04 702.342 460.862 700.514 465.398C697.365 458.285 693.848 447.384 691.092 439.724C690.766 439.524 690.44 439.324 690.115 439.124C690.611 430.224 690.9 421.315 690.983 412.402Z"/><path fill="#E4D545" d="M512.028 155.089C525.377 178.134 538.663 203.353 551.525 226.777L602.029 318.57C549.562 314.712 490.714 315.683 438.382 318.752C435.475 319.251 424.551 319.565 421.055 319.739C425.019 313.89 428.661 306.131 432.288 299.736C442.512 281.299 453.405 262.002 463.113 243.334C465.203 239.487 467.359 235.677 469.579 231.905L498.587 179.37C502.93 171.553 507.455 162.622 512.028 155.089Z"/><path fill="#E4A63F" d="M432.288 299.736C433.329 302.539 437.763 317.886 438.382 318.752C435.475 319.251 424.551 319.565 421.055 319.739C425.019 313.89 428.661 306.131 432.288 299.736Z"/><path fill="#E0923B" d="M463.113 243.334C465.203 239.487 467.359 235.677 469.579 231.905C471.726 234.533 474.573 243.491 475.812 247.011C475.288 248.38 474.868 249.529 474.429 250.927C470.67 247.725 467.837 244.752 463.113 243.334Z"/><path fill="#E0923B" d="M475.812 247.011C477.865 250.533 478.855 252.644 480.481 256.408C479.355 255.387 475.489 251.693 474.429 250.927C474.868 249.529 475.288 248.38 475.812 247.011Z"/><defs><linearGradient id="gradient_0" gradientUnits="userSpaceOnUse" x1="232.83275" y1="400.59998" x2="327.55975" y2="295.35263"><stop offset="0" stop-color="#E2A840"/><stop offset="1" stop-color="#E6E146"/></linearGradient></defs><path fill="url(#gradient_0)" d="M259.002 271.791C266.074 270.554 274.547 269.042 281.601 268.176C307.527 285.888 333.329 303.78 359.006 321.85C363.291 324.899 367.983 328.106 372.169 331.233C363.178 353.024 354.37 373.713 345.928 395.831C342.047 405.998 335.841 423.605 331.492 432.953C329.506 425.415 328.014 417.27 326.549 409.58C320.444 380.634 319.59 351.108 317.345 321.907C315.72 327.042 315.178 340.247 314.833 345.933C292.682 368.75 275.731 390.978 257.287 416.795C258.65 406.058 259.967 393.585 262.197 383.135C266.163 359.002 274.616 327.462 283.431 305.066C270.038 324.175 263.352 348.59 258.131 371.059C248.853 374.584 227.87 386.444 218.782 391.303C229.633 369.792 245.57 350.295 258.982 330.905C258.36 330.649 256.762 329.961 256.41 329.446C252.59 323.869 248.573 315.334 245.715 309.339C241.844 302.124 238.136 294.31 234.413 286.949C242.467 281.622 250.849 276.963 259.002 271.791Z"/><path fill="#E4A63F" d="M359.006 321.85C363.291 324.899 367.983 328.106 372.169 331.233C363.178 353.024 354.37 373.713 345.928 395.831C342.047 405.998 335.841 423.605 331.492 432.953C329.506 425.415 328.014 417.27 326.549 409.58C330.416 406.827 331.828 393.505 333.147 388.237C339.275 363.755 348.116 344.379 359.006 321.85Z"/><path fill="#E4A63F" d="M262.197 383.135L262.32 384.046C264.482 384.16 263.495 384.386 265.391 383.348C268.377 376.67 311.312 320.595 316.503 318.208C317.519 319.379 317.195 319.963 317.345 321.907C315.72 327.042 315.178 340.247 314.833 345.933C292.682 368.75 275.731 390.978 257.287 416.795C258.65 406.058 259.967 393.585 262.197 383.135Z"/><path fill="#E4A63F" d="M245.715 309.339C253.685 308.738 266.719 307.911 274.736 308.054C270.6 317.126 265.159 323.149 258.982 330.905C258.36 330.649 256.762 329.961 256.41 329.446C252.59 323.869 248.573 315.334 245.715 309.339Z"/><path fill="#E4D545" d="M749.544 263.287C755.983 263.58 776.414 265.098 780.802 268.348C784.437 271.216 790.447 274.618 794.564 277.095C790.145 286.259 785.604 295.363 780.943 304.406C776.791 312.551 772.719 320.736 768.728 328.961C766.318 323.472 760.646 311.121 756.691 307.068C759.454 315.879 762.749 324.413 765.532 333.387C770.648 349.991 774.587 366.935 777.319 384.092C778.922 389.821 780.924 410.373 781.71 417.065C769.574 396.15 740.516 363.022 723.439 345.182C723.114 336.286 722.543 329.438 720.749 320.689C719.924 356.258 714.761 398.415 705.508 432.744C691.315 397.349 678.646 358.631 661.524 324.424C664.826 321.869 668.353 319.413 671.756 316.978C697.663 299.169 723.498 280.855 749.544 263.287Z"/><path fill="#E4A63F" d="M704.43 387.927C709.445 361.647 715.709 334.163 717.681 307.639C734.03 325.34 746.208 340.906 759.269 361.3C761.111 364.176 774.07 383.983 775.864 385.171C777.113 384.823 776.629 385.184 777.319 384.092C778.922 389.821 780.924 410.373 781.71 417.065C769.574 396.15 740.516 363.022 723.439 345.182C723.114 336.286 722.543 329.438 720.749 320.689C719.924 356.258 714.761 398.415 705.508 432.744C691.315 397.349 678.646 358.631 661.524 324.424C664.826 321.869 668.353 319.413 671.756 316.978C685.334 338.744 696 363.68 704.43 387.927Z"/><path fill="#E4A63F" d="M751.175 296.089C760.2 298.693 772.7 300.639 780.943 304.406C776.791 312.551 772.719 320.736 768.728 328.961C766.318 323.472 760.646 311.121 756.691 307.068C755.856 305.77 752.15 297.978 751.175 296.089Z"/><path fill="#E4D545" d="M687.398 135.894C695.327 133.728 703.237 131.494 711.128 129.193C716.944 146.513 722.31 164.991 727.689 182.519C729.006 186.927 730.355 191.816 731.903 196.109C731.043 196.704 727.24 199.427 726.558 199.757C723.489 201.867 706.874 213.629 704.448 214.703L663.583 243.266C657.709 247.33 648.556 253.159 643.157 257.381C638.677 249.696 631.542 237.48 627.691 229.549C625.745 226.145 623.799 222.332 621.931 218.851C624.006 216.197 626.102 213.56 628.22 210.939C630.633 207.517 634.102 203.168 636.81 199.974C654.102 179.583 669.892 155.903 687.398 135.894Z"/><path fill="#E4A63F" d="M628.112 226.41C632.862 221.846 642.792 215.093 648.347 211.268C662.494 201.351 677.047 192.024 691.967 183.311C688.77 196.965 684.531 209.373 679.63 222.445C684.754 220.436 699.583 215.366 704.448 214.703L663.583 243.266C657.709 247.33 648.556 253.159 643.157 257.381C638.677 249.696 631.542 237.48 627.691 229.549C627.87 228.744 628.003 227.282 628.112 226.41Z"/><path fill="#E4A63F" d="M727.689 182.519C729.006 186.927 730.355 191.816 731.903 196.109C731.043 196.704 727.24 199.427 726.558 199.757C724.561 198.234 723.242 198.587 720.655 198.566C721.653 193.953 723.522 193.478 719.329 190.004C722.473 187.387 724.796 185.389 727.689 182.519Z"/><path fill="#E4A63F" d="M621.931 218.851C624.006 216.197 626.102 213.56 628.22 210.939C627.883 216.051 628.292 221.253 628.112 226.41C628.003 227.282 627.87 228.744 627.691 229.549C625.745 226.145 623.799 222.332 621.931 218.851Z"/><path fill="#E0923B" d="M719.329 190.004C723.522 193.478 721.653 193.953 720.655 198.566C716.339 198.471 713.846 198.381 709.615 198.941C712.799 195.904 716.038 192.924 719.329 190.004Z"/><defs><linearGradient id="gradient_1" gradientUnits="userSpaceOnUse" x1="295.0824" y1="199.89034" x2="386.26404" y2="174.52133"><stop offset="0" stop-color="#E6C43A"/><stop offset="1" stop-color="#E5EB51"/></linearGradient></defs><path fill="url(#gradient_1)" d="M317.993 112.328L364.923 171.777C367.319 174.854 378.323 187.873 379.646 190.218C381.064 191.916 382.596 193.686 383.92 195.444C386.191 198.48 388.998 202.466 391.384 205.31C395.032 209.823 398.571 214.423 401.996 219.107C396.269 230.846 387.488 245.802 380.916 257.353L320.94 215.877C315.587 212.166 295.303 199.153 292.668 195.406L292.956 194.873C296.76 194.38 307.231 197.201 311.4 198.17C309.79 191.306 303.054 177.741 300.055 170.496L309.892 138.849C312.53 130.392 315.763 120.808 317.993 112.328Z"/><path fill="#E4A63F" d="M300.055 170.496L309.892 138.849C320.496 156.504 332.207 172.721 342.039 190.854C345.524 197.283 349.96 204.373 352.89 211.037C339.441 207.307 324.307 203.251 311.4 198.17C309.79 191.306 303.054 177.741 300.055 170.496Z"/><path fill="#E3F14B" d="M383.92 195.444C386.191 198.48 388.998 202.466 391.384 205.31C391.315 206.315 391.24 207.319 391.159 208.323C386.311 202.485 387.215 207.408 383.742 205.489C382.811 204.064 382.918 203.715 382.718 202.027C383.883 198.979 384.038 198.857 383.92 195.444Z"/><path fill="#DEF970" d="M379.646 190.218C381.064 191.916 382.596 193.686 383.92 195.444C384.038 198.857 383.883 198.979 382.718 202.027C379.23 201.35 373.943 203.61 369.269 202.178L369.326 201.585C376.621 197.206 377.777 203.22 382.551 199.963C386.215 197.463 379.854 193.728 379.646 190.218Z"/><path fill="#E4D545" d="M546.374 81.7621C573.771 58.8334 604.703 40.4971 637.968 27.4667C637.284 50.5473 635.587 74.404 634.307 97.5521C628.801 105.122 616.21 121.397 610.152 128.441C609.047 130.195 604.328 135.848 602.767 137.809L587.642 157.016L570.346 125.56L546.374 81.7621Z"/><path fill="#E4A63F" d="M570.346 125.56C573.383 123.244 578.87 113.536 581.845 109.905C589.85 100.133 601.741 83.4104 610.7 75.2084C610.482 83.0067 608.042 123.186 609.351 127.682L610.152 128.441C609.047 130.195 604.328 135.848 602.767 137.809L587.642 157.016L570.346 125.56Z"/><path fill="#E4D545" d="M439.498 24.8667C455.478 38.8564 470.312 54.1041 483.856 70.4633C473.634 88.3862 464.099 107.571 453.697 125.139C448.142 135.512 441.608 146.643 436.371 156.926C433.012 152.676 428.938 147.748 425.824 143.422L406.151 118.504C408.656 108.797 410.422 99.7944 413.362 89.9937C420.089 67.562 429.046 45.7986 439.498 24.8667Z"/><path fill="#E4A63F" d="M439.564 95.5667C443.233 101.892 450.53 122.577 453.697 125.139C448.142 135.512 441.608 146.643 436.371 156.926C433.012 152.676 428.938 147.748 425.824 143.422C427.668 140.597 430.814 122.481 432.384 117.212C434.637 109.644 436.828 103.151 439.564 95.5667Z"/><path fill="#1D4370" d="M417.253 326.535C429.228 325.417 443.815 324.824 455.874 324.261C487.296 322.76 518.762 322.369 550.212 323.091C568.765 323.533 587.154 324.698 605.545 325.119C619.166 338.809 633.628 341.908 650.633 331.861C652.394 330.507 652.506 330.326 654.596 329.774C659.334 331.054 663.108 343.354 665.168 348.17C663.171 347.989 657.013 347.542 655.408 347.113C568.619 337.534 468.876 338.245 382.033 347.168C382.461 345.031 384.943 339.583 385.936 337.371C398.785 339.912 408.02 334.799 417.253 326.535Z"/><path fill="#15273F" d="M650.633 331.861C652.394 330.507 652.506 330.326 654.596 329.774C659.334 331.054 663.108 343.354 665.168 348.17C663.171 347.989 657.013 347.542 655.408 347.113C654.818 343.431 651.986 335.624 650.633 331.861Z"/><path fill="#E4A63F" d="M810.376 221.218C814.825 217.76 823.609 211.653 828.418 208.797C826.48 212.806 824.573 216.847 822.469 220.769C817.529 230.596 812.71 240.484 808.014 250.43C798.733 256.076 789.656 262.052 780.802 268.348C776.414 265.098 755.983 263.58 749.544 263.287L788.587 236.154C795.465 231.392 803.371 225.647 810.376 221.218Z"/><path fill="#E4D545" d="M810.376 221.218C814.825 217.76 823.609 211.653 828.418 208.797C826.48 212.806 824.573 216.847 822.469 220.769C819.713 221.617 813.298 222.008 810.376 221.218Z"/><path fill="#E4A63F" d="M195.269 208.401C203.34 213.228 214.962 221.92 223.111 227.551L281.601 268.176C274.547 269.042 266.074 270.554 259.002 271.791C239.883 254.706 219.071 239.341 201.906 220.07C199.219 217.052 197.006 212.073 195.269 208.401Z"/><path fill="#E4D545" d="M810.669 116.424L815.94 116.007L785.869 149.889C784.476 145.447 783.051 141.029 781.852 136.53C780.079 130.885 778.353 125.225 776.675 119.551C787.415 117.724 799.742 116.985 810.669 116.424Z"/><path fill="#E4A63F" d="M810.669 116.424L815.94 116.007L785.869 149.889C784.476 145.447 783.051 141.029 781.852 136.53C785.813 134.24 809.601 119.164 810.669 116.424Z"/><path fill="#E4A63F" d="M847.015 316.79C850.271 319.488 852.985 322.299 855.837 325.426C856.931 326.335 860.526 330.22 861.711 331.438L839.257 333.023C840.955 329.347 842.636 325.544 844.601 322.016L847.015 316.79Z"/><path fill="#E4D545" d="M847.015 316.79C850.271 319.488 852.985 322.299 855.837 325.426C855.264 325.78 854.914 325.83 854.259 326.045C851.436 325.353 846.65 324.044 844.601 322.016L847.015 316.79Z"/><path fill="#E4A63F" d="M818.651 374.762L821.014 370.026C823.337 373.851 825.451 377.213 827.367 381.279C828.654 383.229 831.452 389.405 832.607 391.794C827.648 388.86 820.199 385.353 814.852 382.537L818.651 374.762Z"/><path fill="#E4D545" d="M818.651 374.762L821.014 370.026C823.337 373.851 825.451 377.213 827.367 381.279C823.618 381.057 820.637 377.729 818.651 374.762Z"/><path fill="#15273F" d="M378.453 335.118C381.518 336.334 382.764 336.642 385.936 337.371C384.943 339.583 382.461 345.031 382.033 347.168C378.938 347.859 375.513 348.11 372.342 348.438C374.238 343.648 376.187 339.717 378.453 335.118Z"/><defs><linearGradient id="gradient_2" gradientUnits="userSpaceOnUse" x1="234.98566" y1="691.70245" x2="232.96623" y2="691.79987"><stop offset="0" stop-color="black" stop-opacity="0"/><stop offset="1" stop-color="#0F0D11" stop-opacity="0.031372551"/></linearGradient></defs><path fill="url(#gradient_2)" d="M233.231 690.546L234.353 690.272C235.59 691.725 235.207 691.918 235.465 694.25L235.224 694.26C234.366 693.283 234.308 693.408 233.127 692.801C233.31 691.799 233.393 691.716 233.89 690.847L233.231 690.546Z"/></svg>