<?xml version="1.0" encoding="utf-8" ?><svg xmlns="http://www.w3.org/2000/svg" xmlns:xlink="http://www.w3.org/1999/xlink" width="1024" height="1024" viewBox="0 0 1024 1024"><path d="M569.042 29.5345C594.798 20.0611 620.005 9.74619 646.194 0.823212C642.143 6.19751 637.849 12.8545 634.476 18.7418C628.618 28.966 620.984 39.5889 615.717 50.0441C649.65 40.815 683.792 32.3723 718.115 24.7229C737.274 20.3261 757.908 15.1498 777.119 11.2772C772.846 16.9054 763.227 32.3858 759.254 38.9161C750.755 52.8882 738.391 70.1891 730.886 84.1826C782.994 79.3036 835.194 75.461 887.455 72.657C878.431 87.5873 867.541 103.599 857.816 118.108L813.5 184.639C837.931 190.052 862.329 195.612 886.692 201.318L911.008 206.869C914.867 207.76 920.445 209.28 924.252 209.828C898.801 220.776 869.29 237.96 843.944 250.324C867.18 269.045 890.467 289.676 913.374 308.968C906.275 308.935 898.443 309.98 891.231 310.487L854.257 312.918C862.766 325.084 871.46 337.12 880.336 349.021C884.828 355.14 891.174 363.425 895.144 369.716C885.841 367.383 870.396 364.091 860.986 362.607C887.233 430.069 880.99 497.012 847.492 560.252C845.005 564.947 841.512 570.394 839.51 575.367C837.982 583.018 839.137 594.595 838.917 602.677C838.298 625.505 839.663 650.515 838.59 673.172C825.149 673.493 811.702 673.468 798.262 673.097C800.934 690.187 803.013 708.002 805.388 725.237C809.631 756.253 814.051 787.246 818.648 818.212C820.593 831.527 822.364 847.654 824.693 860.517L914.941 860.524L914.919 957.233C914.913 979.221 914.564 1002.08 914.909 1024L109.023 1024C108.491 1005.31 109.002 984.776 109.007 965.947L109.043 860.577L199.422 860.514C199.882 852.579 202.209 839.469 203.364 831.268C205.866 812.258 208.56 793.273 211.446 774.318C214.52 753.585 217.473 732.834 220.305 712.067C221.983 699.767 223.543 685.32 225.709 673.223C212.675 673.464 198.113 673.132 184.982 672.984L185.07 605.276C185.073 597.667 185.404 583.453 184.628 576.3C184.295 573.23 175.016 557.659 172.855 553.124C165.744 538.199 160.341 525.445 155.743 509.602C126.318 408.217 170.234 319.503 241.806 248.497C271.396 219.14 297.049 200.065 330.038 175.667C323.693 149.399 316.946 123.229 309.8 97.1678C313.82 100.924 318.035 104.564 322.228 108.129C331.618 116.113 340.577 124.765 350.036 132.651C351.683 119.512 355.726 102.391 363.287 91.3671C379.274 68.0591 396.64 42.3731 414.63 20.6615C413.666 24.6112 413.446 50.1168 413.458 55.4773C413.483 66.1937 412.423 79.1328 412.506 89.5571C416.472 85.9539 421.626 81.5059 425.343 77.7882C427.111 68.5898 429.076 60.9468 433.9 52.8102C461.682 5.94695 526.758 -1.30205 569.042 29.5345Z"/><path fill="#FEFEFE" d="M483.92 159.709C500.822 163.444 522.908 165.135 539.516 159.589C543.103 161.208 546.58 163.061 549.924 165.137C569.253 174.953 589.157 186.457 607.583 197.892C718.885 266.965 866.484 378.959 791.314 527.077C790.21 529.272 789.079 531.453 787.921 533.62L236.163 533.615C233.165 528.081 230.574 522.638 227.853 516.968C160.693 368.024 321.67 254.476 431.495 188.788C447.367 179.294 467.269 167.698 483.92 159.709Z"/><path fill="#CDCDCF" d="M549.924 165.137C569.253 174.953 589.157 186.457 607.583 197.892C718.885 266.965 866.484 378.959 791.314 527.077C790.21 529.272 789.079 531.453 787.921 533.62L236.163 533.615C233.165 528.081 230.574 522.638 227.853 516.968C239.414 516.206 256.796 516.628 269.001 516.512L355.157 515.947L559.477 513.708L624.315 513.109C636.744 513.01 649.648 513.582 662.002 512.22C672.017 511.115 681.481 508.242 690.307 503.368C709.298 492.879 721.612 476.214 727.553 455.521C732.252 439.153 732.78 421.612 731.664 404.696C725.801 315.853 656.258 247.705 590.261 195.938C585.438 192.155 551.139 167.798 550.263 165.942C550.139 165.678 550.037 165.405 549.924 165.137Z"/><path d="M509.864 294.071C552.025 292.981 587.082 326.285 588.157 368.446C589.231 410.608 555.916 445.653 513.754 446.713C471.613 447.772 436.588 414.477 435.514 372.336C434.44 330.195 467.723 295.159 509.864 294.071Z"/><path fill="#363B4D" d="M487.887 429.781C465.455 420.742 450.052 399.809 448.096 375.704C446.14 351.599 457.967 328.457 478.648 315.92C499.329 303.383 525.317 303.602 545.784 316.486C573.766 334.101 583.678 370.16 568.632 399.603C553.585 429.046 518.556 442.138 487.887 429.781Z"/><path fill="#1A1D26" d="M545.784 316.486C573.766 334.101 583.678 370.16 568.632 399.603C553.585 429.046 518.556 442.138 487.887 429.781C489.709 429.569 497.349 430.705 499.991 430.822C532.048 432.237 561.424 407.413 566.567 375.711C569.253 359.843 565.654 343.554 556.534 330.295C553.244 325.512 549.262 321.407 546.025 316.831L545.784 316.486Z"/><path d="M506.76 319.497C535.239 317.097 560.258 338.267 562.604 366.75C564.95 395.233 543.732 420.213 515.245 422.505C486.834 424.791 461.936 403.642 459.596 375.235C457.256 346.829 478.358 321.891 506.76 319.497Z"/><path fill="#60333C" d="M546.598 402.079C533.815 416.712 513.36 421.997 495.089 415.388C476.817 408.778 464.477 391.63 464.013 372.206C463.55 352.781 475.059 335.064 492.995 327.591C510.93 320.118 531.614 324.422 545.08 338.429C562.014 356.042 562.673 383.678 546.598 402.079Z"/><path d="M483.353 339.471C497.641 325.453 523.804 325.523 539.07 338.008C539.363 338.248 539.794 338.917 540.028 339.263L541.444 337.814L542.208 338.015L542.838 340.119C543.004 341.136 542.946 341.674 543.425 342.453C546.606 344.32 549.843 353.365 550.82 357.083C554.093 369.537 552.245 380.719 545.907 391.877C545.025 393.43 542.23 397.531 540.857 398.41C541.987 399.553 543.108 400.705 544.221 401.864C541.977 402.819 539.192 402.944 536.737 403.059C524.909 413.863 505.281 416.045 491.444 408.962C488.355 407.381 484.853 404.754 481.709 402.997C481.571 403.085 480.765 403.204 480.567 403.24C478.879 401.262 479.356 397.675 479.421 394.96C479.164 396.171 479.179 396.251 478.639 397.348C475.804 396.245 473.492 388.515 472.393 385.798C466.597 371.461 470.686 356.62 479.823 344.702L475.958 341.463C478.487 340.556 480.751 340.08 483.353 339.471Z"/><path fill="#C4464C" d="M483.353 339.471C497.641 325.453 523.804 325.523 539.07 338.008C539.363 338.248 539.794 338.917 540.028 339.263C538.294 341.228 535.453 343.895 533.537 345.797C521.245 338.175 509.412 334.454 495.521 341.258C490.939 339.961 488.062 339.5 483.353 339.471Z"/><path fill="#C4464C" d="M481.709 402.997C484.154 400.592 486.15 398.627 488.376 396.026C501.442 405.295 510.887 407.88 526.02 401.087C530.231 402.455 532.18 403.134 536.737 403.059C524.909 413.863 505.281 416.045 491.444 408.962C488.355 407.381 484.853 404.754 481.709 402.997Z"/><path fill="#C4464C" d="M543.425 342.453C546.606 344.32 549.843 353.365 550.82 357.083C554.093 369.537 552.245 380.719 545.907 391.877C545.025 393.43 542.23 397.531 540.857 398.41C539.355 396.749 537.767 394.722 536.325 392.973C544.041 380.34 546.136 371.051 540.801 356.797C543.508 351.173 543.618 348.367 543.425 342.453Z"/><path fill="#C4464C" d="M479.823 344.702C482.214 346.293 482.909 347.062 484.897 349.079C478.1 362.537 477.085 370.834 481.742 385.005L481.949 385.628C480.648 389.091 479.865 391.22 479.421 394.96C479.164 396.171 479.179 396.251 478.639 397.348C475.804 396.245 473.492 388.515 472.393 385.798C466.597 371.461 470.686 356.62 479.823 344.702Z"/><path fill="#C4464C" d="M496.646 344.174C508.792 337.986 519.493 340.472 530.209 347.716L524.194 353.25C527.764 356.164 530.097 357.509 534.685 358.116C537.567 358.498 539.68 359.716 540.283 362.861C542.246 373.094 539.508 381.22 534.551 390.061C532.797 387.957 531.356 385.53 528.376 385.608C522.614 389.15 529.296 401.576 514.282 401.606C504.264 401.626 499.503 400.542 491.822 393.765C494.306 392.126 496.598 391.284 496.86 388.13C495.012 384.837 487.856 385.371 485.794 383.711C477.324 376.895 483.166 358.931 487.238 352.038L490.188 355.539L492.699 358.163C497.332 354.04 497.619 349.947 496.646 344.174Z"/><path fill="#D3615F" d="M490.188 355.539L492.699 358.163C492.249 360.116 492.182 360.025 490.773 361.331C489.018 361.648 489.787 361.818 488.361 360.952C486.932 358.283 487.721 356.969 490.188 355.539Z"/><path d="M509.259 358.431C516.034 357.389 522.381 362.01 523.47 368.777C524.559 375.545 519.982 381.923 513.222 383.059C506.396 384.206 499.941 379.575 498.841 372.74C497.742 365.906 502.417 359.484 509.259 358.431Z"/><path fill="#363B4D" d="M526.893 867.578C538.885 867.188 551.868 867.406 563.916 867.401L644.297 867.672C685.945 867.725 731.106 866.663 772.44 867.926C817.377 867.052 862.929 868.009 907.991 867.537L908.005 1017.46L321.303 1017.49L171.392 1017.51L132.639 1017.57C129.74 1017.58 118.034 1017.79 115.822 1017.4C115.587 1002.99 115.981 987.477 115.984 972.949L115.942 867.718L526.893 867.578Z"/><path d="M776.131 918.973L857.088 918.727C857.422 934.437 857.535 950.151 857.428 965.865L784.025 965.726C774.149 965.65 754.952 964.787 745.77 965.578L167.078 965.643C166.765 951.078 166.815 933.501 167.176 918.993C190.111 918.535 214.397 918.964 237.422 918.979L368.249 918.987L776.131 918.973Z"/><path fill="#FEFEFE" d="M174.379 925.996L849.624 925.98L849.588 958.553L765.89 958.596L174.305 958.511L174.327 937.85L174.379 925.996Z"/><path fill="#CDCDCF" d="M174.379 925.996L849.624 925.98L849.588 958.553L765.89 958.596C770.306 951.523 769.098 945.978 766.672 938.56L338.183 938.104C284.281 938.059 228.074 938.863 174.327 937.85L174.379 925.996Z"/><path fill="#1A1D26" d="M772.44 867.926C817.377 867.052 862.929 868.009 907.991 867.537L908.005 1017.46L321.303 1017.49L171.392 1017.51L132.639 1017.57C129.74 1017.58 118.034 1017.79 115.822 1017.4C119.051 1017.16 121.694 1017.08 124.936 1017.05L764.816 1016.97C779.418 1002.62 779.563 983.253 770.395 965.991C762.702 965.936 753.312 966.099 745.77 965.578C754.952 964.787 774.149 965.65 784.025 965.726L857.428 965.865C857.535 950.151 857.422 934.437 857.088 918.727L776.131 918.973C786.347 903.137 784.932 882.058 772.44 867.926Z"/><path fill="#5F6080" d="M115.942 867.718L526.893 867.578C532.453 867.992 544.231 867.586 548.43 868.316C533.114 868.785 506.873 867.526 492.966 869.088C493.011 870.433 493.03 870.646 492.407 871.838C506.907 871.039 526.939 869.441 540.998 869.518L541.221 869.806L251.977 885.14L174.489 889.206C165.844 889.682 141.762 890.438 135.035 892.479C132.053 897.097 131.205 909.72 131.019 915.397C129.915 949.051 125.873 983.476 124.936 1017.05C121.694 1017.08 119.051 1017.16 115.822 1017.4C115.587 1002.99 115.981 987.477 115.984 972.949L115.942 867.718Z"/><path fill="#363B4D" d="M292.273 673.486L586.565 673.502L681.202 673.521C697.194 673.524 716.047 674.013 731.743 673.397C735.817 707.841 741.482 744.591 746.241 779.148C748.223 793.1 750.133 807.061 751.969 821.032C753.328 831.345 754.452 841.735 756.269 851.958C732.704 851.386 708.266 851.742 684.622 851.724L549.493 851.798L506.773 851.92C499.045 851.944 478.574 852.349 471.935 850.492C403.744 852.663 335.989 851.417 267.807 851.85C275.072 799.376 282.742 745.935 289.325 693.443C290.514 686.547 291.611 680.445 292.273 673.486Z"/><path fill="#1A1D26" d="M292.273 673.486L586.565 673.502L681.202 673.521C697.194 673.524 716.047 674.013 731.743 673.397C735.817 707.841 741.482 744.591 746.241 779.148C748.223 793.1 750.133 807.061 751.969 821.032C753.328 831.345 754.452 841.735 756.269 851.958C732.704 851.386 708.266 851.742 684.622 851.724L549.493 851.798L506.773 851.92C499.045 851.944 478.574 852.349 471.935 850.492C477.268 849.074 488.913 848.845 494.757 848.628L524.023 847.544L622.966 843.775L657.172 842.582C669.582 842.265 703.447 845.905 701.618 826.851C697.403 782.949 688.883 739.189 683.866 695.38C655.808 695.77 625.952 695.355 597.835 695.178L493.719 694.67L289.325 693.443C290.514 686.547 291.611 680.445 292.273 673.486Z"/><path d="M504.45 697.399C540.333 693.235 572.81 718.918 577.027 754.795C581.245 790.672 555.611 823.186 519.74 827.458C483.794 831.738 451.195 806.037 446.969 770.085C442.742 734.132 468.491 701.572 504.45 697.399Z"/><path fill="#C4464C" d="M507.037 701.686C511.906 701.139 518.717 701.59 523.531 702.533C539.492 705.816 553.513 715.267 562.544 728.83C571.999 742.975 574.654 758.907 571.321 775.525C560.656 764.771 553.215 760.87 538.399 760.171C535.493 747.839 529.786 740.503 517.112 737.131C500.555 735.011 487.907 743.912 485.295 760.395C470.811 760.349 463.108 765.066 452.743 775.008C452.405 773.706 452.155 772.382 451.997 771.046C447.41 735.412 471.614 705.757 507.037 701.686Z"/><path fill="#FEFEFE" d="M509.428 741.129C509.565 741.113 509.703 741.096 509.84 741.08C515.913 740.547 521.936 742.546 526.487 746.602C532.163 751.738 533.806 757.864 534.085 765.153C550.317 763.389 559.255 769.147 570.017 780.776C567.562 788.643 563.514 795.921 558.126 802.157C551.33 796.037 544.072 791.353 534.396 793.651C529.275 794.876 524.876 798.14 522.22 802.687C518.176 809.533 519.126 815.957 520.92 823.125L515.37 823.499C510.795 823.516 507.809 823.517 503.304 822.999C505.31 814.974 505.959 807.174 500.325 800.276C496.922 796.106 491.916 793.566 486.541 793.282C478.004 792.791 471.977 797.004 466.097 802.369C460.276 795.732 457.135 789.218 453.944 781.06C463.1 769.26 474.317 763.459 489.266 765.451C491.024 752.218 494.978 743.73 509.428 741.129Z"/><path fill="#FEFEFE" d="M483.001 797.575C498.437 796.476 502.961 809.149 499.015 822.196C496.254 821.465 493.593 820.598 490.872 819.737C481.745 816.239 476.167 812.361 469.131 805.66C473.798 800.77 476.466 799.337 483.001 797.575Z"/><path fill="#FEFEFE" d="M535.729 797.583C544.417 796.87 549.068 799.248 555.05 805.283C549.309 811.129 544.9 814.104 537.644 817.751C533.192 819.72 529.517 820.834 524.852 822.196C521.813 810.719 523.73 801.754 535.729 797.583Z"/><path fill="#363B4D" d="M213.337 540.925C219.787 540.364 229.548 540.57 236.269 540.564L275.569 540.569L405.803 540.783L659.233 540.843C696.162 540.866 733.507 540.51 770.405 540.902C782.412 541.017 794.377 540.854 806.387 540.853C812.453 540.852 818.899 540.643 824.914 541.406C827.697 541.759 829.367 544.137 831.035 546.182C832.673 554.212 831.887 577.658 831.862 587.184L831.907 666.08L360.56 666.096L239.238 666.009L211.397 666.047C206.835 666.069 196.915 666.356 192.909 665.526C191.727 664.272 191.914 662.352 191.955 660.642C191.966 660.206 191.982 659.769 192.001 659.333C192.363 651.192 192.099 641.741 192.186 633.504C192.416 607.411 192.175 581.295 191.943 555.204C191.798 538.913 200.436 540.742 213.337 540.925Z"/><path d="M422.535 656.09C421.767 656.07 420.999 656.039 420.231 655.996C405.899 655.228 386.995 654.951 373.245 651.866C370.712 651.154 366.142 648.41 364.683 646.178C350.817 624.971 349.598 574.849 367.298 555.849C372.039 550.759 395.431 550.381 403.205 549.988C415.802 549.289 428.406 548.726 441.015 548.3C486.4 546.79 531.822 546.746 577.21 548.17C598.662 548.819 620.325 549.569 641.728 551.429C648.494 552.207 655.306 553.35 659.605 559.036C672.85 576.553 673.877 635.999 655.385 649.723C643.214 655.542 613.151 655.678 598.667 656.396C558.136 658.362 517.551 658.96 476.979 658.188C465.383 657.937 453.789 657.55 442.201 657.028C436.393 656.76 428.065 656.035 422.535 656.09Z"/><path fill="#CDCDCF" d="M503.927 550.953C536.304 550.872 568.679 551.547 601.024 552.977C610.741 553.475 620.505 553.994 630.248 554.666C636.922 555.127 651.204 555.28 655.622 560.77C663.96 571.134 665.491 590.553 665.278 603.067C665.076 614.911 663.122 637.067 654.253 645.363C648.755 650.506 619.184 651.257 611.055 651.733C558.442 654.645 505.724 655.149 453.065 653.245C433.218 652.596 413.373 651.658 393.558 650.357C386.787 649.913 375.591 649.522 369.966 645.783C362.75 640.631 360.247 624.488 359.068 616.307C358.828 613.881 358.659 611.448 358.564 609.012C357.927 595 358.638 571.462 368.745 559.732C370.467 557.734 376.989 555.844 379.867 555.548C392.611 554.242 406.097 553.792 418.912 553.238C447.235 551.98 475.578 551.218 503.927 550.953Z"/><path fill="#96989A" d="M601.024 552.977C610.741 553.475 620.505 553.994 630.248 554.666C636.922 555.127 651.204 555.28 655.622 560.77C663.96 571.134 665.491 590.553 665.278 603.067C665.076 614.911 663.122 637.067 654.253 645.363C648.755 650.506 619.184 651.257 611.055 651.733C558.442 654.645 505.724 655.149 453.065 653.245C433.218 652.596 413.373 651.658 393.558 650.357C386.787 649.913 375.591 649.522 369.966 645.783C380.86 646.873 389.502 646.429 400.476 646.229C410.986 646.134 421.496 645.959 432.004 645.706C466.855 645.241 501.698 644.263 536.52 642.77C544.575 642.396 569.433 641.309 575.219 637.452C597.596 622.534 602.098 574.783 601.024 552.977Z"/><path d="M637.739 564.739C640.325 563.805 643.212 564.331 645.301 566.117C647.391 567.904 648.359 570.674 647.839 573.373C647.318 576.072 645.387 578.283 642.783 579.164C638.815 580.506 634.505 578.402 633.123 574.447C631.74 570.493 633.799 566.162 637.739 564.739Z"/><path fill="#96989A" d="M638.85 567.759C640.349 567.199 642.035 567.494 643.255 568.53C644.475 569.567 645.039 571.182 644.728 572.753C644.418 574.323 643.282 575.603 641.759 576.097C639.475 576.839 637.016 575.619 636.225 573.351C635.433 571.084 636.6 568.599 638.85 567.759Z"/><path d="M649.73 595.237C653.674 594.209 657.73 596.462 658.941 600.354C660.153 604.246 658.092 608.402 654.261 609.794C651.619 610.754 648.662 610.184 646.567 608.309C644.471 606.434 643.576 603.559 644.238 600.827C644.899 598.094 647.009 595.946 649.73 595.237Z"/><path fill="#96989A" d="M650.945 598.277C653.234 597.883 655.424 599.374 655.896 601.649C656.367 603.923 654.951 606.162 652.695 606.71C651.165 607.082 649.554 606.59 648.493 605.427C647.432 604.264 647.09 602.615 647.601 601.126C648.112 599.637 649.394 598.545 650.945 598.277Z"/><path d="M637.717 625.791C640.32 624.87 643.217 625.44 645.277 627.278C647.336 629.116 648.231 631.93 647.611 634.62C646.991 637.31 644.954 639.448 642.297 640.198C638.37 641.308 634.27 639.101 633.034 635.212C631.798 631.322 633.87 627.153 637.717 625.791Z"/><path fill="#96989A" d="M638.691 628.842C640.167 628.268 641.839 628.534 643.065 629.537C644.29 630.541 644.881 632.127 644.609 633.688C644.338 635.249 643.247 636.543 641.755 637.074C639.492 637.879 637.003 636.719 636.165 634.468C635.328 632.218 636.452 629.712 638.691 628.842Z"/><path fill="#FEFEFE" d="M359.068 616.307C358.828 613.881 358.659 611.448 358.564 609.012C357.927 595 358.638 571.462 368.745 559.732C370.467 557.734 376.989 555.844 379.867 555.548C392.611 554.242 406.097 553.792 418.912 553.238C447.235 551.98 475.578 551.218 503.927 550.953C503.732 553.248 504.139 552.938 502.879 554.155C486.777 556.48 462.188 557.298 445.143 558.611C437.943 575.32 432.013 594.509 425.82 611.697C423.471 618.219 420.558 628.71 418.02 634.492C412.543 614.046 408.076 582.557 407.371 561.346C402.164 561.503 382.806 561.736 378.835 562.934C376.741 563.58 374.853 564.761 373.356 566.361C362.323 577.967 362.936 614.537 360.604 616.649C359.967 616.541 359.666 616.538 359.068 616.307Z"/><path d="M534.793 575.777C538.763 572.183 544.025 565.177 547.753 564.469C550.214 564.896 550.641 565.756 552.021 567.711C552.59 568.519 553.149 569.334 553.7 570.156C548.876 574.909 540.431 583.764 535.553 587.837C527.183 582.221 517.625 575.85 507.122 578.123C485.505 582.802 480.573 611.688 499.405 623.385C504.453 626.53 510.571 627.462 516.326 625.965C527.566 623.145 535.55 609.736 527.748 599.507C526.698 600.021 527.225 599.707 526.185 600.478C524.969 594.448 520.531 595.084 515.468 594.899L514.997 594.435L514.913 593.85C514.421 590.173 514.622 590.035 516.87 587.071L517.755 586.004L518.443 586.062C524.01 586.574 530.578 588.432 533.966 593.268C550.266 616.529 528.409 639.643 503.855 635.381C498.474 634.447 463.209 632.6 460.876 630.478C460.578 625.383 474.655 606.936 476.861 600.627C479.372 593.445 480.95 585.243 486.258 579.578C500.939 563.908 517.88 566.713 534.793 575.777Z"/><path fill="#5F6080" d="M547.788 567.347C549.221 567.785 548.554 567.444 549.62 568.742C549.128 572.441 538.585 580.55 535.576 584.606C525.94 577.73 513.963 572.084 502.03 576.773C487.897 582.327 480.575 599.5 487.163 613.429C493.454 627.088 508.704 634.032 522.298 626.286C535.365 618.84 537.569 603.009 525.657 593.781C521.934 590.897 522.208 590.558 517.459 589.414L516.726 589.243C521.495 586.223 528.959 591.457 532.236 594.992L532.723 595.526C536.049 600.338 537.561 606.846 536.683 612.613C535.801 618.407 532.25 624.166 527.543 627.633C523.687 630.474 518.886 632.106 514.15 632.67C505.51 633.698 472.995 630.02 463.628 628.443C468.668 620.718 474.802 610.426 479.218 602.302C481.747 596.315 481.738 590.812 485.57 585.23C498.792 565.963 518.164 568.83 535.047 579.48C539.321 575.274 543.328 571.365 547.788 567.347Z"/><path d="M480.217 608.721C482.534 610.084 485.047 618.278 487.116 621.145C488.537 623.116 490.24 624.679 491.247 626.708L490.49 627.39C487.563 627.85 485.075 627.429 482.121 627.143C479.696 626.994 472.588 626.951 470.955 625.487C471.166 622.312 478.125 611.906 480.217 608.721Z"/><path fill="#CDCDCF" d="M479.921 613.441C480.151 613.712 485.416 622.865 486.887 624.958L482.624 624.641C479.577 624.537 476.295 624.071 473.247 623.718C475.358 620.22 477.584 616.793 479.921 613.441Z"/><path fill="#C1B4E8" d="M527.748 599.507C527.566 602.399 527.467 604.879 526.704 607.701C524.639 615.339 517.85 620.351 509.802 619.781C494.606 618.705 489.503 596.69 501.688 588.176C506.555 584.775 512.205 585.135 517.755 586.004L516.87 587.071C514.622 590.035 514.421 590.173 514.913 593.85L514.997 594.435L515.468 594.899C520.531 595.084 524.969 594.448 526.185 600.478C527.225 599.707 526.698 600.021 527.748 599.507Z"/><path d="M515.468 594.899L516.015 595.672C517.577 597.844 519.236 599.923 519.019 602.715C518.497 606.909 516.317 610.83 511.551 610.682C504.74 610.472 499.969 601.146 505.648 596.444C508.392 594.172 511.491 594.008 514.997 594.435L515.468 594.899Z"/><path fill="#1A1D26" d="M527.748 599.507C527.566 602.399 527.467 604.879 526.704 607.701C524.639 615.339 517.85 620.351 509.802 619.781C494.606 618.705 489.503 596.69 501.688 588.176C506.555 584.775 512.205 585.135 517.755 586.004L516.87 587.071C503.32 583.155 490.242 596.862 498.495 610.022C506.369 622.579 523.049 619.819 525.609 605.249C525.834 603.849 525.893 601.808 526.185 600.478C527.225 599.707 526.698 600.021 527.748 599.507Z"/><path d="M380.995 564.732C383.596 563.83 386.481 564.401 388.543 566.225C390.604 568.048 391.523 570.842 390.945 573.533C390.368 576.225 388.384 578.396 385.756 579.213C381.781 580.449 377.55 578.269 376.25 574.314C374.951 570.36 377.063 566.095 380.995 564.732Z"/><path fill="#CDCDCF" d="M381.998 567.817C383.513 567.253 385.216 567.56 386.439 568.618C387.662 569.676 388.21 571.317 387.87 572.898C387.53 574.478 386.354 575.748 384.804 576.209C382.516 576.889 380.101 575.633 379.344 573.37C378.587 571.106 379.761 568.65 381.998 567.817Z"/><path d="M381.419 625.74C385.407 624.625 389.553 626.914 390.732 630.884C391.912 634.853 389.69 639.035 385.741 640.279C383.128 641.103 380.274 640.453 378.275 638.58C376.277 636.707 375.443 633.902 376.094 631.241C376.746 628.58 378.781 626.478 381.419 625.74Z"/><path fill="#CDCDCF" d="M381.769 628.915C384.023 628.012 386.585 629.08 387.531 631.316C388.477 633.553 387.459 636.135 385.24 637.124C383.767 637.78 382.055 637.59 380.762 636.626C379.469 635.662 378.798 634.074 379.006 632.475C379.215 630.876 380.272 629.515 381.769 628.915Z"/><path d="M370.862 595.2C374.928 594.555 378.75 597.32 379.409 601.383C380.069 605.447 377.317 609.278 373.256 609.952C369.175 610.628 365.321 607.86 364.658 603.777C363.995 599.694 366.776 595.849 370.862 595.2Z"/><path fill="#CDCDCF" d="M371.144 598.245C373.419 597.749 375.677 599.147 376.247 601.404C376.818 603.661 375.494 605.964 373.257 606.608C371.743 607.043 370.112 606.619 369.002 605.502C367.892 604.384 367.48 602.751 367.925 601.24C368.371 599.729 369.605 598.581 371.144 598.245Z"/><path fill="#1A1D26" d="M770.405 540.902C782.412 541.017 794.377 540.854 806.387 540.853C812.453 540.852 818.899 540.643 824.914 541.406C827.697 541.759 829.367 544.137 831.035 546.182C832.673 554.212 831.887 577.658 831.862 587.184L831.907 666.08L360.56 666.096L239.238 666.009L211.397 666.047C206.835 666.069 196.915 666.356 192.909 665.526C191.727 664.272 191.914 662.352 191.955 660.642C191.966 660.206 191.982 659.769 192.001 659.333L192.7 662.51C205.415 662.742 217.645 661.99 230.313 661.647L297.383 659.98L384.225 657.99C389.565 657.839 419.974 657.651 422.535 656.09C428.065 656.035 436.393 656.76 442.201 657.028C453.789 657.55 465.383 657.937 476.979 658.188C517.551 658.96 558.136 658.362 598.667 656.396C613.151 655.678 643.214 655.542 655.385 649.723C661.639 650.618 679.565 649.757 686.938 649.646C701.378 649.121 716.366 650.32 730.638 648.184C765.047 643.035 780.82 625.545 781.245 590.646C781.502 569.484 781.084 559.682 770.405 540.902Z"/><path fill="#5F6080" d="M192.001 659.333C192.363 651.192 192.099 641.741 192.186 633.504C192.416 607.411 192.175 581.295 191.943 555.204C191.798 538.913 200.436 540.742 213.337 540.925C221.693 541.313 230.657 541.166 239.074 541.075C272.932 540.712 306.933 541.439 340.772 541.039L340.501 542.176L250.529 546.568C242.999 546.938 235.466 547.25 227.931 547.505C223.004 547.652 215.532 547.633 210.788 548.392C208.446 548.746 206.291 549.875 204.666 551.597C200.151 556.346 199.309 565.687 199.641 572.003C200.456 587.55 209.896 603.683 209.57 619.218C209.272 633.429 200.991 651.241 192.7 662.51L192.001 659.333Z"/><path fill="#5F6080" d="M340.772 541.039C344.057 541.065 347.499 540.987 350.743 541.428C347.281 542.06 344.012 542.063 340.501 542.176L340.772 541.039Z"/><path fill="#363B4D" d="M154 455.133C153.068 439.139 154.132 423.091 157.168 407.361C178.351 300.459 275.113 218.727 362.557 162.661C378.55 152.372 394.804 142.492 411.301 133.031C419.494 128.3 428.107 124.015 436.105 119.038C437.349 118.264 438.791 117.246 438.483 115.813C437.923 113.216 436.417 109.822 435.546 107.215C431.982 96.8831 431.144 85.8063 433.112 75.0555C436.359 58.1759 447.592 42.5175 461.798 33.1119C484.33 18.1931 507.687 15.517 533.676 20.6177C568.766 27.9614 598.686 61.715 591.081 98.4761C590.103 103.203 584.992 114.153 586.029 117.602C589.275 120.483 607.99 130.474 612.925 133.282C627.742 141.756 642.359 150.575 656.764 159.733C678.929 173.78 700.473 188.784 721.335 204.704C792.046 259.535 864.118 337.825 869.751 431.852C871.699 467.209 865.431 502.537 851.438 535.065C847.886 543.503 843.377 552.245 839.259 560.477C839.464 552.758 840.213 545.04 834.635 538.692C831.157 534.734 826.125 533.486 821.026 533.446C812.839 533.382 804.596 533.524 796.394 533.523C889.626 358.326 676.541 224.152 546.908 155.22C545.005 154.207 543.086 153.224 541.152 152.273C517.369 156.862 507.328 158.006 483.08 152.146C463.195 161.527 441.246 174.398 422.356 185.809C305.535 256.375 150.107 370.937 224.266 526.646C225.366 528.983 226.533 531.288 227.766 533.557C220.381 533.573 212.533 533.606 205.19 533.516C185.976 533.28 184.324 544.579 184.613 560.175C169.499 530.469 159.575 505.302 155.261 471.667C154.751 467.694 153.696 458.679 154 455.133Z"/><path fill="#5F6080" d="M154 455.133C153.068 439.139 154.132 423.091 157.168 407.361C178.351 300.459 275.113 218.727 362.557 162.661C378.55 152.372 394.804 142.492 411.301 133.031C419.494 128.3 428.107 124.015 436.105 119.038C437.349 118.264 438.791 117.246 438.483 115.813C437.923 113.216 436.417 109.822 435.546 107.215C431.982 96.8831 431.144 85.8063 433.112 75.0555C436.359 58.1759 447.592 42.5175 461.798 33.1119C484.33 18.1931 507.687 15.517 533.676 20.6177L533.814 21.5323C532.707 22.3862 518.396 24.4962 515.08 25.4114C473.971 36.7564 436.138 74.5293 442.927 120.374C417.437 134.537 390.236 153.024 366.576 170.461C281.223 233.367 193.288 311.33 161.942 416.227C159.774 423.482 155.801 451.745 154 455.133Z"/><path d="M508.032 69.1991C521.367 68.1267 536.778 72.2488 540.645 86.7389C538.312 99.4132 527.259 103.36 515.901 104.823C481.693 108.921 468.812 73.0307 508.032 69.1991Z"/><path fill="#CDCDCF" d="M507.805 76.6461C529.913 74.5664 545.607 91.7967 516.862 97.4416C509.746 97.9237 503.694 97.7968 497.19 94.3266C493.472 92.3434 488.836 87.7904 492.189 83.3726C495.423 79.1124 502.657 77.354 507.805 76.6461Z"/><path fill="#363B4D" d="M575.259 34.5789C592.978 27.6834 610.799 21.0549 628.717 14.6955C620.124 30.1449 608.816 45.9105 600.298 62.012C603.083 61.3266 605.729 60.4894 608.477 59.6919C656.756 45.6832 706.108 34.8397 755.159 23.7764C757.062 23.2439 758.506 23.0631 760.468 22.7701C750.743 39.9446 738.552 56.3905 728.661 73.5552C726.995 76.4466 718.678 88.5149 718.081 91.1287C719.408 92.3884 721.195 92.0589 723.156 92.0194C726.988 91.9151 733.677 91.0229 737.661 90.6307C746.974 89.6993 756.292 88.8255 765.615 88.0093C775.158 87.1862 870.917 80.5448 872.788 81.3315L872.515 82.2431C869.859 86.5556 866.486 91.1975 863.636 95.6545C850.754 115.656 837.69 135.539 824.443 155.3C818.053 164.843 807.271 179.933 801.923 189.575L807.413 190.86C836.62 197.579 870.186 203.99 898.929 211.661L900.57 212.038L900.769 212.628C897.59 215.494 882.227 222.331 877.541 224.884C862.934 232.84 845.708 240.463 831.494 248.655L873.706 285.025C880.135 290.523 889.06 297.133 894.821 302.918C883.218 304.271 871.452 304.601 859.806 305.363C854.037 305.74 846.303 306.028 840.649 307.064C846.157 315.48 851.577 322.246 857.485 330.268C864.325 339.556 870.935 349.597 878.388 358.454C871.43 357.24 864.766 355.427 858.08 354.254C852.945 343.697 846.837 331.094 840.634 321.061C817.143 283.066 787.302 250.894 753.649 221.868C738.266 208.196 719.16 193.926 702.545 181.665C701.448 181.255 693.631 175.451 692.112 174.336C676.308 162.736 659.157 153.146 642.879 142.444C633.259 136.456 622.073 130.161 612.138 124.65C608.217 122.767 597.641 116.382 593.963 114.093C598.058 102.177 598.693 98.9362 599.524 86.333L599.519 85.8747C599.1 64.5456 590.124 49.005 575.259 34.5789Z"/><path fill="#1A1D26" d="M898.929 211.661L900.57 212.038L900.769 212.628C897.59 215.494 882.227 222.331 877.541 224.884C862.934 232.84 845.708 240.463 831.494 248.655L873.706 285.025C880.135 290.523 889.06 297.133 894.821 302.918C883.218 304.271 871.452 304.601 859.806 305.363C854.037 305.74 846.303 306.028 840.649 307.064C846.157 315.48 851.577 322.246 857.485 330.268C864.325 339.556 870.935 349.597 878.388 358.454C871.43 357.24 864.766 355.427 858.08 354.254C852.945 343.697 846.837 331.094 840.634 321.061C817.143 283.066 787.302 250.894 753.649 221.868C769.899 223.632 789.88 223.856 806.845 225.194C802.58 228.051 798.354 230.745 794.455 234.094C805.488 232.897 819.348 229.646 830.39 227.435C849.487 223.61 868.864 219.4 887.764 214.719C889.931 214.182 897.579 212.396 898.929 211.661Z"/><path fill="#1A1D26" d="M872.515 82.2431C869.859 86.5556 866.486 91.1975 863.636 95.6545C850.754 115.656 837.69 135.539 824.443 155.3C818.053 164.843 807.271 179.933 801.923 189.575L807.413 190.86C800.342 192.456 780.071 189.721 771.736 189.199C763.429 188.679 753.361 188.034 745.105 187.292L834.671 113.089C840.276 108.428 867.905 84.4719 872.515 82.2431Z"/><path fill="#1A1D26" d="M642.879 142.444C651.479 142.555 666.537 140.483 675.753 139.569L726.878 134.713C736.886 133.807 747.831 132.586 757.789 132.28C740.387 149.965 720.331 165.027 702.545 181.665C701.448 181.255 693.631 175.451 692.112 174.336C676.308 162.736 659.157 153.146 642.879 142.444Z"/><path fill="#1A1D26" d="M755.159 23.7764C757.062 23.2439 758.506 23.0631 760.468 22.7701C750.743 39.9446 738.552 56.3905 728.661 73.5552C726.995 76.4466 718.678 88.5149 718.081 91.1287C719.408 92.3884 721.195 92.0589 723.156 92.0194C716.454 94.3407 709.741 94.7639 702.829 95.8752C692.439 97.5456 680.643 98.8912 670.493 101.373C676.6 94.5906 684.616 87.8692 691.376 81.6077C706.117 67.9542 721.817 55.1936 736.75 41.7629C739.579 39.2183 754.506 26.6061 755.846 24.4873L755.159 23.7764Z"/><path fill="#1A1D26" d="M599.524 86.333C615.857 81.613 641.421 73.2779 657.297 70.0421C654.78 73.7887 651.989 76.8906 649.234 80.4059C637.407 95.4938 624.129 109.765 612.138 124.65C608.217 122.767 597.641 116.382 593.963 114.093C598.058 102.177 598.693 98.9362 599.524 86.333Z"/><path fill="#96989A" d="M736.123 673.33L791.251 673.342C792.816 686.646 795.069 700.108 796.925 713.415L809.639 804.107C811.751 819.1 814.719 837.016 816.183 851.927C804.76 851.936 789.86 852.354 778.725 851.897C773.002 852.089 766.453 851.963 760.663 851.989L739.196 695.961C738.138 688.551 736.981 680.741 736.123 673.33Z"/><path fill="#CDCDCF" d="M739.196 695.961L739.598 694.487C742.485 693.479 760.627 693.968 764.325 694.189C771.486 738.038 776.203 782.891 783.321 826.825C784.61 834.786 785.813 843.393 786.645 851.418C784.268 851.463 780.96 851.375 778.725 851.897C773.002 852.089 766.453 851.963 760.663 851.989L739.196 695.961Z"/><path fill="#CDCDCF" d="M232.956 673.386L287.764 673.462L285.089 693.436C281.999 710.857 279.551 733.586 277.115 751.44L263.34 851.943L207.781 851.982C210.113 830.251 214.044 806.539 217.189 784.797L230.133 692.933C231.024 686.41 231.965 679.894 232.956 673.386Z"/><path fill="#96989A" d="M232.956 673.386L287.764 673.462L285.089 693.436L230.133 692.933C231.024 686.41 231.965 679.894 232.956 673.386Z"/><path fill="#FEFEFE" d="M245.167 693.512C248.746 693.472 252.47 693.549 256.063 693.573C251.921 725.188 247.607 756.781 243.122 788.349C242.379 793.92 235.837 849.261 234.803 851.232L233.625 851.494C229.758 851.555 225.891 851.582 222.023 851.576C222.853 846.038 223.305 840.006 224.122 834.308L234.036 769.293C236.557 753.28 238.978 737.252 241.296 721.209C242.571 712.57 244.408 702.069 245.167 693.512Z"/><path fill="#363B4D" d="M406.399 43.3731C406.989 46.3148 406.559 60.3162 406.445 63.8196C405.966 78.5621 405.15 93.2974 404.812 108.067C411.214 101.387 417.829 94.9132 424.647 88.6568C425.402 98.2373 426.427 105.299 430.206 114.076C398.527 131.379 367.664 150.138 337.718 170.293L337.398 170.651L336.69 170.492C334.54 166.823 324.063 124.726 322.455 117.779C327.65 122.114 333.05 127.299 338.228 131.835C343.6 136.541 350.666 142.101 355.448 147.167C356.842 137.537 357.508 126.294 360.031 117.04C364.707 99.8867 376.219 84.8624 386.496 70.6093C393.048 61.4703 399.682 52.3912 406.399 43.3731Z"/><path d="M594.425 13.6092C595.178 13.9968 594.863 13.7162 595.34 14.4839C593.617 15.9822 594.846 16.5842 593.259 18.5147L592.348 18.3055C592.263 15.5952 592.681 15.3285 594.425 13.6092Z"/></svg>