<svg xmlns="http://www.w3.org/2000/svg" width="1024" height="1024" viewBox="0 0 1024 1024">
    <path fill="#878586"
        d="M335.149 480c-15.549-.033-27.822 1.005-29.847-19.017-.707-6.987-.326-14.095-.268-21.113l.265-34.623c.054-9.448-.03-18.893.001-28.342.033-10.14-1.435-23.415 8.705-29.505 5.948-3.573 13.808-1.592 20.106.074 18.51.207 38.04-.296 56.249.113 3.959 4.971 7.37 8.763 11.31 14.011l-64.33-.006c-4.728 4.657-9.694 9.412-14.327 14.134q-.285 36.056.007 72.111c4.539 4.611 9.288 9.618 13.894 14.108l85.301.035c2.184 3.111 8.414 13.252 12.4 12.867.346-2.482-8.824-12.959-10.901-15.518-27.247.003-58.333.781-85.239-.031l-12.979-12.923c.641-23.448.253-46.048.524-69.357 3.892-4.062 8.408-8.99 12.709-12.509 20.232-.554 44.624-.752 64.893-.272a379 379 0 0 1 9.605 12.028q98.608.8 197.217.219c3.183-3.855 6.733-8.038 9.788-11.975 20.376-.611 44.79-.991 65.097 0l12.371 11.95c.363 21.074 1.048 49.636-.03 70.211-4.099 4.654-8.08 8.67-12.869 12.632-27.718-.152-57.429-.844-84.965.045-3.321 3.979-7.831 8.734-9.442 13.558l.091.641c2.757-.384 5.983-4.779 7.667-7.007a408 408 0 0 0 3.155-4.24l85.586-.339c4.653-4.574 9.511-9.224 14.085-13.851l-.005-72.486-14.016-14.074c-21.139 0-43.383.304-64.436-.194a481 481 0 0 1 11.335-13.73l40.696-.167c8.935-.03 28.799-1.501 36.208 4.412 1.804 1.439 3.261 5.946 3.52 8.169.479 11.028.359 22.306.405 33.349q.094 21.504-.109 43.007c-.043 7.968.017 16.263-.265 24.194-.136 3.827-.564 9.177-3.514 11.647-5.901 4.942-14.672 4.163-21.784 3.768-.629 7.1.466 14.904 1.126 22.061 10.925 118.515 58.566 235.089 135.329 326.198 7.77 9.222 23.304 26.402 33.14 33.128 16.181 1.326 27.819-1.634 42.17 10.581 7.603 6.471 12.457 17.589 12.62 27.435.276 16.65.059 33.838.079 50.55l.033 30.788c.001 11.115 1.382 28.695-6.136 37.685-4.525 5.4-12.48 6.67-19.244 6.72-17.43.12-34.896.07-52.341.07H433.244l-202.588.01h-65.681c-11.459 0-22.975.11-34.426-.14-4.535-.09-9.943-2.57-13.143-5.74-6.091-6.03-7.4-14.11-7.377-22.286-.117-26.503.166-52.965-.072-79.47-.126-15.594-1.238-30.974 10.481-42.953 12.253-12.523 24.158-12.894 40.667-13.149a110 110 0 0 0 5.263-4.122c15.445-13.013 32.841-32.072 45.636-47.48C287.01 715.564 325.56 595.972 335.149 480" />
    <path
        d="m733.023 856.017 2.713 2.661c2.361 2.642 3.101 3.349 6.839 3.332 30.811-.144 61.627.084 92.44-.12 15.76-.105 32.021-1.051 47.658 1.076 5.987.843 14.326 6.813 18.381 11.243a30.4 30.4 0 0 1 7.398 14.331c1.821 8.217 1.441 28.2 1.336 37.231-.069 5.969.351 44.392-1.438 47.651.834 1.704.917 1.642.753 3.62a2943 2943 0 0 1-22.156 25.448H621.386a153 153 0 0 1-10.862 13.35c-1.917.38-2.697.87-4.607.09-3.938 1.45-92.336.8-104.296.89-21.083.15-55.089-.07-77.243-.11-2.007 0-4.388-.24-6.382-.77-1.759.69-1.707.68-3.591.8-4.1-4.49-7.977-9.49-11.798-14.24l-266.294-.01c-6.433-8.217-15.052-17.547-22.028-25.464-.223-2.113-.23-2.538-.041-4.66-.219-.828-.217-.639-.217-1.661.001-24.335-.239-48.706.289-73.033.084-3.846.556-6.799 1.294-10.515 2.015-10.144 16.069-23.099 26.176-24.308 19.248-2.303 39.043-.884 58.289-.865l89.02-.056c20.044-.024 40.459.229 60.453-.534.393.057 11.323-.883 12.706-.976 2.358-.271 8.386-.082 10.979-.084a690 690 0 0 1 22.615.172q26.591.478 53.187.496l185.588 1.223 65.098.284c12.065.022 25.821.375 37.682-.213-1.678-1.819-3.404-3.842-5.05-5.709z" />
    <path fill="#fff"
        d="M652.611 879.476c-2.858-3.003-13.889-12.829-14.582-15.787l.82-.265c2.94.201 12.556 10.298 15.462 13.069q75.216.578 150.436.323c24.405-.017 47.471-.33 71.954.214 6.957 4.931 11.307 9.851 17.272 15.959q.466 41.785.001 83.57c-5.01 5.335-9.763 10.896-14.56 16.425q-81.125.53-162.25.032l-52.032-.049c-11.556-.001-24.038-.186-35.515.37-1.812 1.93-3.532 4.109-5.221 6.16l260.919-.002c7.869-8.635 15.254-17.636 23.035-26.073.834 1.704.917 1.642.753 3.62a2943 2943 0 0 1-22.156 25.448H621.386a153 153 0 0 1-10.862 13.35c-1.917.38-2.697.87-4.607.09 7.061-8.58 14.737-16.807 21.906-25.595l249.961-.327a390 390 0 0 0 13.213-14.953l.001-80.841c-4.063-4.379-10.999-11.012-15.732-14.21-23.878-1.387-49.936-.535-74.051-.528zm-268.667-17.232 3.95-.035c-5.269 6.298-10.815 11.742-16.717 17.436l-138.273-.072c-27.963.074-57.081-.508-84.843.491-5.783 4.66-10.261 9.028-15.558 14.256q.199 40.483-.274 80.964c4.595 4.918 9.42 10.238 14.129 15.018l249.624-.279c7.284 8.509 14.669 17.557 22.014 25.917-1.759.69-1.707.68-3.591.8-4.1-4.49-7.977-9.49-11.798-14.24l-266.294-.01c-6.433-8.217-15.052-17.547-22.028-25.464-.223-2.113-.23-2.538-.041-4.66 7.35 8.534 16.337 18.909 23.876 27.135l261.525.009c-1.853-2.086-3.468-3.953-5.221-6.136-13.255-.663-26.621-.26-39.89-.408-69.813-.779-139.992 1.147-209.769-.019-5.055-5.269-10.281-10.597-15.252-15.927q-.255-41.843-.003-83.686c6.091-6.249 10.338-10.287 17.204-15.911 16.385-1.419 40.631-.66 57.902-.658l109.519.032c17.061.003 39.605.741 55.999-.124z" />
    <path fill="#fff"
        d="m172.007 920.012 679.715.01c-.305 11.377.468 28.495-.386 38.968q-112.527.827-225.055-.016l-454.271.028z" />
    <path d="m175.745 923.523 672.333.036-.006 31.945-672.529-.007z" />
    <path fill="#fff"
        d="m427.699 475.919 118.221-.974q14.803-.07 29.605-.296c5.031-.067 10.364-.209 15.393-.021 1.756.066 1.488.202 2.399 1.325l.921-.039c4.168 1.486 2.304 2.388 3.982 5.953 1.528 12.29 2.523 24.754 4.057 36.91l-.659 1.873-.44.116a1384 1384 0 0 0 4.132 25.772c4.137 25.931 8.151 51.922 14.616 77.367.722 2.838 1.826 5.297 2.188 8.215l-1.091.491-1.14.33c1.883 8.272 3.708 16.778 6.026 24.919 6.025 18.574 16.979 37.85 25.726 55.405 1.655 3.322 8.688 17.191 10.537 19.787 1.958 4.785 7.076 13.779 9.641 18.574l19.945 36.772c1.814 3.314 13.716 25.481 15.373 27.59l1.072-.448c1.117 1.103 3.385 4.037 3.585 5.483.076 4.078 17.328 30.729 21.235 34.994l-.67.57c1.646 1.867 3.372 3.89 5.05 5.709-11.861.588-25.617.235-37.682.213l-65.098-.284-185.588-1.223q-26.596-.018-53.187-.496a690 690 0 0 0-22.615-.172c-2.593.002-8.621-.187-10.979.084-1.383.093-12.313 1.033-12.706.976-4.803-.997-21.339-.887-27.082-.974a2155 2155 0 0 1-38.046-1.133c1.274-.412.748-.057 1.596-1.037 19.88-24.225 39.155-61.869 53.685-90.324 15.138-29.646 31.242-64.024 42.257-95.173 4.385-12.398 9.499-33.391 12.801-46.321a3366 3366 0 0 0 17.634-72.727 1824 1824 0 0 0 10.541-48.568c1.645-8.298 4.183-20.93 4.765-29.218" />
    <path fill="#181719"
        d="m593.317 475.953.921-.039c4.168 1.486 2.304 2.388 3.982 5.953 1.528 12.29 2.523 24.754 4.057 36.91l-.659 1.873-.44.116a1384 1384 0 0 0 4.132 25.772c4.137 25.931 8.151 51.922 14.616 77.367.722 2.838 1.826 5.297 2.188 8.215l-1.091.491-1.14.33a2248 2248 0 0 1-20.284-115.415l-4.16-25.642c-.671-4.141-2.14-12.004-2.122-15.931" />
    <path fill="#fff"
        d="M594.238 475.914c4.168 1.486 2.304 2.388 3.982 5.953 1.528 12.29 2.523 24.754 4.057 36.91l-.659 1.873-.44.116c-2.421-14.755-4.418-30.344-6.94-44.852" />
    <path fill="#181719"
        d="M286.016 858.25c3.258-.198 6.452-.003 9.706.14 22.193.976 44.338.779 66.532 2.028-1.383.093-12.313 1.033-12.706.976-4.803-.997-21.339-.887-27.082-.974a2155 2155 0 0 1-38.046-1.133c1.274-.412.748-.057 1.596-1.037m421.115-42.262 1.072-.448c1.117 1.103 3.385 4.037 3.585 5.483.076 4.078 17.328 30.729 21.235 34.994l-.67.57c-6.22-5.92-20.614-31.755-25.222-40.599" />
    <path
        d="M334.111 347.474c18.51.207 38.04-.296 56.249.113 3.959 4.971 7.37 8.763 11.31 14.011l-64.33-.006c-4.728 4.657-9.694 9.412-14.327 14.134q-.285 36.056.007 72.111c4.539 4.611 9.288 9.618 13.894 14.108l85.301.035c2.184 3.111 8.414 13.252 12.4 12.867.346-2.482-8.824-12.959-10.901-15.518-27.247.003-58.333.781-85.239-.031l-12.979-12.923c.641-23.448.253-46.048.524-69.357 3.892-4.062 8.408-8.99 12.709-12.509 20.232-.554 44.624-.752 64.893-.272a379 379 0 0 1 9.605 12.028q98.608.8 197.217.219c3.183-3.855 6.733-8.038 9.788-11.975 20.376-.611 44.79-.991 65.097 0l12.371 11.95c.363 21.074 1.048 49.636-.03 70.211-4.099 4.654-8.08 8.67-12.869 12.632-27.718-.152-57.429-.844-84.965.045-3.321 3.979-7.831 8.734-9.442 13.558l.091.641c2.757-.384 5.983-4.779 7.667-7.007a408 408 0 0 0 3.155-4.24l85.586-.339c4.653-4.574 9.511-9.224 14.085-13.851l-.005-72.486-14.016-14.074c-21.139 0-43.383.304-64.436-.194a481 481 0 0 1 11.335-13.73l40.696-.167c8.935-.03 28.799-1.501 36.208 4.412 1.804 1.439 3.261 5.946 3.52 8.169.479 11.028.359 22.306.405 33.349q.094 21.504-.109 43.007c-.043 7.968.017 16.263-.265 24.194-.136 3.827-.564 9.177-3.514 11.647-5.901 4.942-14.672 4.163-21.784 3.768l-3.994-.018c2.42.471 2.075-.005 3.203 1.486-1.95 3.979-25.565.586-28.61 2.385l-5.769.199-3.454-.051c-2.066-.245-5.166-.237-7.321-.297-6.251.281-12.826-.119-18.518.161-1.225.181-1.828.095-3.057.054-3.272-.955-18.527-.059-22.282.944-.246.233-.837.747-.991 1-1.678-3.565.186-4.467-3.982-5.953l-.921.039c-.911-1.123-.643-1.259-2.399-1.325-5.029-.188-10.362-.046-15.393.021q-14.802.226-29.605.296l-118.221.974c-.582 8.288-3.12 20.92-4.765 29.218a1824 1824 0 0 1-10.541 48.568 3366 3366 0 0 1-17.634 72.727c-3.302 12.93-8.416 33.923-12.801 46.321-11.015 31.149-27.119 65.527-42.257 95.173-14.53 28.455-33.805 66.099-53.685 90.324-.848.98-.322.625-1.596 1.037-.855.474-1.719.854-2.605 1.268-1.632-.072-2.453-1.152-3.743-2.295-7.383-.603-13.608-.817-21.02-.929-1.872 1.002-2.573.761-4.396.087-10.454.162-22.743.393-33.096-.01-2.309.742-2.717 1.139-4.558-.535C311.956 755.949 358.374 621.688 370.123 484.3c.693-1.211.522-2.451.534-3.891l.68-.511 2.332.333c3.414-.819 20.252-.003 25.83-.577.995-.062 2.016-.169 3.003-.114 6.639.614 15.471.234 22.618.537-.054 1.665-.42 5.716.073 6.939.937-3.424 1.375-7.601 1.853-11.173-8.47-.774-20.392-.148-29.246-.067l-51.508.262c-8.584.026-21.014.406-29.22-.979-9.881-7.249-8.019-16.415-8.086-27.499l-.043-29.207.011-35.15c.01-8.098-1.27-22.504 3.275-29.118 5.063-7.37 14.319-5.351 21.882-6.611" />
    <path
        d="M399.499 479.654c.995-.062 2.016-.169 3.003-.114-.582 25.757-4.192 50.49-8.81 75.727a698 698 0 0 1-48.856 160.731c4.04 1.515 12.475 4.24 15.301 7.058l-.407.46c-4.703-.044-11.65-3.033-16.254-4.746-20.855 45.664-53.23 100.783-86.424 138.561-1.872 1.002-2.573.761-4.396.087-10.454.162-22.743.393-33.096-.01-2.309.742-2.717 1.139-4.558-.535C311.956 755.949 358.374 621.688 370.123 484.3c.693-1.211.522-2.451.534-3.891l.68-.511 2.332.333c3.414-.819 20.252-.003 25.83-.577" />
    <path
        d="M317.447 708.808c7.454 2.729 15.949 5.866 23.225 8.965-21.796 47.972-53.361 99.811-88.016 139.645-10.454.162-22.743.393-33.096-.01 2.074-3.288 5.651-6.907 8.337-9.867 8.753-9.645 16.882-19.827 24.836-30.137a541 541 0 0 0 64.714-108.596" />
    <path fill="#fff"
        d="M399.499 479.654c.995-.062 2.016-.169 3.003-.114-.582 25.757-4.192 50.49-8.81 75.727a698 698 0 0 1-48.856 160.731c4.04 1.515 12.475 4.24 15.301 7.058l-.407.46c-4.703-.044-11.65-3.033-16.254-4.746-20.855 45.664-53.23 100.783-86.424 138.561-1.872 1.002-2.573.761-4.396.087 34.655-39.834 66.22-91.673 88.016-139.645-7.276-3.099-15.771-6.236-23.225-8.965a541 541 0 0 1-64.714 108.596c-7.954 10.31-16.083 20.492-24.836 30.137-2.686 2.96-6.263 6.579-8.337 9.867-2.309.742-2.717 1.139-4.558-.535C311.956 755.949 358.374 621.688 370.123 484.3c.693-1.211.522-2.451.534-3.891l.68-.511 2.332.333c-1.276 8.187-1.96 17.995-2.796 26.378a798 798 0 0 1-4.423 34.804c-9.372 59.64-24.864 109.011-47.402 164.548 7.716 3.169 15.096 5.788 22.964 8.566 27.926-65.867 46.253-127.144 54.288-198.433 1.424-12.638 1.942-24.246 3.199-36.44" />
    <defs>
        <linearGradient id="a" gradientUnits="userSpaceOnUse" x1="597.502" y1="478.007" x2="642.502"
            y2="477.908">
            <stop offset="0" stop-color="#9c9b9c" />
            <stop offset="1" stop-color="#c1bfc1" />
        </linearGradient>
    </defs>
    <path fill="url(#a)"
        d="M594.238 475.914c15.072.614 34.667-.026 50.215.092-1.131 1.584-1.091 1.838-1.385 3.702-6.251.281-12.826-.119-18.518.161-1.225.181-1.828.095-3.057.054-3.272-.955-18.527-.059-22.282.944-.246.233-.837.747-.991 1-1.678-3.565.186-4.467-3.982-5.953" />
    <path fill="#d4d3d5"
        d="M644.453 476.006c12.094.026 28.78.581 40.566-.02 2.42.471 2.075-.005 3.203 1.486-1.95 3.979-25.565.586-28.61 2.385l-5.769.199-3.454-.051c-2.066-.245-5.166-.237-7.321-.297.294-1.864.254-2.118 1.385-3.702" />
    <path fill="#fff"
        d="m346.686 390.506 330.1-.004c-.233 15.576.665 30.003-.308 45.827l-219.053-.336c-36.289.059-74.657 1.228-110.759.303a1801 1801 0 0 1 .02-45.79" />
    <path
        d="M350.85 394.253c34.808.344 70.429-.071 105.307-.102l217.11-.147a734 734 0 0 0 .075 38.294c-2.257.432-20.847.236-24.218.233l-61.623-.037-237.012.003c.046-6.178-.512-33.974.361-38.244m292.218 85.455c2.155.06 5.255.052 7.321.297l3.454.051c-.493 3.632.604 12.393.98 16.316a722 722 0 0 0 4.456 37.692C674.463 636.803 710.67 733.9 773.871 816.921a515 515 0 0 0 21.337 26.659c3.304 3.829 9.715 10.281 12.334 13.815-2.184.434-2.068.394-4.133-.542-5.349 1.667-26.655.099-33.387.538-1.927.899-2.158.638-4-.045a401 401 0 0 1-28.745-.109l-1.541 1.441-2.713-2.661c-3.907-4.265-21.159-30.916-21.235-34.994-.2-1.446-2.468-4.38-3.585-5.483l-1.072.448c-1.657-2.109-13.559-24.276-15.373-27.59l-19.945-36.772c-2.565-4.795-7.683-13.789-9.641-18.574-1.849-2.596-8.882-16.465-10.537-19.787-8.747-17.555-19.701-36.831-25.726-55.405-2.318-8.141-4.143-16.647-6.026-24.919l1.14-.33 1.091-.491c-.362-2.918-1.466-5.377-2.188-8.215-6.465-25.445-10.479-51.436-14.616-77.367a1384 1384 0 0 1-4.132-25.772l.44-.116.659-1.873c-1.534-12.156-2.529-24.62-4.057-36.91.154-.253.745-.767.991-1 3.755-1.003 19.01-1.899 22.282-.944 1.229.041 1.832.127 3.057-.054 5.692-.28 12.267.12 18.518-.161" />
    <path
        d="M598.22 481.867c.154-.253.745-.767.991-1 3.755-1.003 19.01-1.899 22.282-.944 2.357 69.62 27.367 174.185 58.101 236.603-6.451 2.222-14.442 4.768-20.609 7.353-8.921-21.308-18.274-43.055-25.159-65.091-3.644-11.661 5.16-16.513-8.569-26.817-6.578-25.058-15.277-59.501-18.904-85.17l-1.043-.263a1384 1384 0 0 1-4.132-25.772l.44-.116.659-1.873c-1.534-12.156-2.529-24.62-4.057-36.91" />
    <path fill="#d4d3d5"
        d="M602.277 518.777c.864 9.112 2.481 18.969 4.076 28.024l-1.043-.263a1384 1384 0 0 1-4.132-25.772l.44-.116z" />
    <path
        d="m683.253 718.008 22.95-8.977c6.675 13.626 12.919 26.922 20.198 40.297a574.3 574.3 0 0 0 54.199 81.385c6.453 8.079 15.255 19.246 22.809 26.14-5.349 1.667-26.655.099-33.387.538-31.998-34.562-67.064-96.289-86.769-139.383" />
    <path
        d="M659.977 726.348c6.803-2.099 13.58-4.644 20.284-7.072 15.001 30.295 30.23 60.594 49.04 88.75 11.238 16.821 23.066 34.368 36.721 49.32a401 401 0 0 1-28.745-.109l-1.541 1.441-2.713-2.661c-3.907-4.265-21.159-30.916-21.235-34.994-.2-1.446-2.468-4.38-3.585-5.483l-1.072.448c-1.657-2.109-13.559-24.276-15.373-27.59l-19.945-36.772c-2.565-4.795-7.683-13.789-9.641-18.574.9-2.346-.822-4.888-2.195-6.704" />
    <path fill="#fff"
        d="M733.023 856.017c-3.907-4.265-21.159-30.916-21.235-34.994a618 618 0 0 0 25.489 36.214l-1.541 1.441zm-82.634-376.012 3.454.051c-.493 3.632.604 12.393.98 16.316a722 722 0 0 0 4.456 37.692C674.463 636.803 710.67 733.9 773.871 816.921a515 515 0 0 0 21.337 26.659c3.304 3.829 9.715 10.281 12.334 13.815-2.184.434-2.068.394-4.133-.542-7.554-6.894-16.356-18.061-22.809-26.14a574.3 574.3 0 0 1-54.199-81.385c-7.279-13.375-13.523-26.671-20.198-40.297l-22.95 8.977c19.705 43.094 54.771 104.821 86.769 139.383-1.927.899-2.158.638-4-.045-13.655-14.952-25.483-32.499-36.721-49.32-18.81-28.156-34.039-58.455-49.04-88.75-6.704 2.428-13.481 4.973-20.284 7.072 1.373 1.816 3.095 4.358 2.195 6.704-1.849-2.596-8.882-16.465-10.537-19.787-8.747-17.555-19.701-36.831-25.726-55.405-2.318-8.141-4.143-16.647-6.026-24.919l1.14-.33 1.091-.491c-.362-2.918-1.466-5.377-2.188-8.215-6.465-25.445-10.479-51.436-14.616-77.367l1.043.263c3.627 25.669 12.326 60.112 18.904 85.17 13.729 10.304 4.925 15.156 8.569 26.817 6.885 22.036 16.238 43.783 25.159 65.091 6.167-2.585 14.158-5.131 20.609-7.353-30.734-62.418-55.744-166.983-58.101-236.603 1.229.041 1.832.127 3.057-.054 2.68 64.084 19.454 136.684 41.801 196.891 4.143 11.161 10.365 27.758 15.647 38.128a862 862 0 0 0 22.98-8.923c-7.462-18.261-14.769-36.227-21.043-54.942a714.5 714.5 0 0 1-28.594-123.157c-1.885-13.419-4.62-34.226-4.952-47.861" />
    <path fill="#181719"
        d="M627.183 658.028q.132-1.523.332-3.038l.64-.203.852 1.081.393-.064c7.065 21.581 14.278 41.342 25.264 61.266 1.093 1.982 4.009 8.083 5.313 9.278 1.373 1.816 3.095 4.358 2.195 6.704-1.849-2.596-8.882-16.465-10.537-19.787-8.747-17.555-19.701-36.831-25.726-55.405z" />
    <path fill="#fff"
        d="M627.183 658.028q.132-1.523.332-3.038l.64-.203.852 1.081c.871 7.878 3.912 12.877 5.313 19.757-2.397-3.776-6.206-13.145-7.137-17.597" />
    <path
        d="m619.883 632.941 1.14-.33.5 1.59c3.007.455 6.495 3.558 7.969 6.127 2.734 4.766-.146 10.683-.092 15.476l-.393.064-.852-1.081-.64.203a69 69 0 0 0-.332 3.038l-1.274-.168c-2.318-8.141-4.143-16.647-6.026-24.919M338.923 479.97c7.009-.153 24.069-.855 30.459.642 1.071 1.038.674 1.636.741 3.688-11.749 137.388-58.167 271.649-155.121 372.573-3.211 1.505-39.807.644-47.29.987a121 121 0 0 0 4.296-3.647c89.64-78.704 145.014-208.072 162.09-324.228 2.433-16.552 3.749-33.339 4.825-50.015m320.689-.113 24.813-.064c2.195 28.553 5.174 53.763 10.838 82.117 19.035 95.281 62.306 187.644 124.659 262.326 10.617 12.717 20.842 21.752 32 33.268q-16.26.278-32.52.162c-2.698-.038-9.617.011-11.86-.271-2.619-3.534-9.03-9.986-12.334-13.815a515 515 0 0 1-21.337-26.659C710.67 733.9 674.463 636.803 659.279 534.064a722 722 0 0 1-4.456-37.692c-.376-3.923-1.473-12.684-.98-16.316zm249.491 497.185c1.349 3.428.989 10.565.787 14.322-.721 13.396-3.122 25.406-19.19 25.546-15.019.14-29.827.11-44.729.11h-82.643l-102.17-.01c-7.787 0-45.475.53-50.634-1.17 3.868-4.24 7.495-8.7 10.862-13.35h265.561a2943 2943 0 0 0 22.156-25.448m-794.818-.016c6.976 7.917 15.595 17.247 22.028 25.464l266.294.01c3.821 4.75 7.698 9.75 11.798 14.24-12.736 1-36.732.28-50.347.28l-97.218-.01-89.458.01h-29.113c-21.211-.01-34.297 1.29-34.346-25.345-.008-4.846-.28-9.781.362-14.649M502.126 12.232c85.203-5.43 158.672 59.244 164.092 144.447s-59.262 158.666-144.465 164.076c-85.191 5.41-158.639-59.26-164.058-144.449S416.937 17.66 502.126 12.232" />
    <path fill="#fff"
        d="M503.952 39.134c70.375-4.453 131.014 49.034 135.381 119.415 4.367 70.38-49.195 130.954-119.581 135.234-70.263 4.273-130.708-49.175-135.068-119.434-4.359-70.258 49.015-130.769 119.268-135.215" />
    <path fill="white"
        d="M505.893 48.277c65.288-3.345 120.909 46.907 124.186 112.198 3.278 65.292-47.032 120.861-112.327 124.07-65.199 3.205-120.669-47.015-123.941-112.211-3.272-65.195 46.89-120.717 112.082-124.057m73.465 299.969c13.92-.628 27.96-1.627 41.873-.676 2.506.171 5.056.405 7.557.51-.862 1.048-2.031 2.556-2.916 3.523-5.668 6.802-11.623 14.685-17.163 21.703l-193.96-.315c-5.215-6.983-10.511-14.261-15.975-21.02-.756-.71-2.509-3.047-3.225-3.952 17.591.159 36.595-.45 54.047.407 3.728.094 4.46.152 7.198 2.581q47.231-.138 94.462.327c8.567.048 17.387-.427 25.864-.28-1.513-1.011-1.039-.368-1.747-1.781l.289-.837c1.477-.629 2.108-.396 3.696-.19" />
    <path fill="#b2b1b1"
        d="M579.358 348.246c13.92-.628 27.96-1.627 41.873-.676 2.506.171 5.056.405 7.557.51-.862 1.048-2.031 2.556-2.916 3.523-4.957-1.714-36.035.49-44.938-.481l-3.814-.068c-1.513-1.011-1.039-.368-1.747-1.781l.289-.837c1.477-.629 2.108-.396 3.696-.19" />
    <path fill="#d4d3d5"
        d="M577.12 351.054c-1.513-1.011-1.039-.368-1.747-1.781l.289-.837c1.477-.629 2.108-.396 3.696-.19.346 1.493.636 1.541 1.779 2.572l-.203.304z" />
    <defs>
        <linearGradient id="b" gradientUnits="userSpaceOnUse" x1="406.864" y1="336.851" x2="437.488"
            y2="361.716">
            <stop offset="0" stop-color="#aaa2aa" />
            <stop offset="1" stop-color="#ccd1cc" />
        </linearGradient>
    </defs>
    <path fill="url(#b)"
        d="M395.549 348.019c17.591.159 36.595-.45 54.047.407-.866 1.21-1.068 1.246-1.289 2.673q-14.034.298-28.07.388c-6.213.009-15.657-.295-21.463.484-.756-.71-2.509-3.047-3.225-3.952" />
    <path fill="#d4d3d5"
        d="M449.596 348.426c3.728.094 4.46.152 7.198 2.581l-8.487.092c.221-1.427.423-1.463 1.289-2.673" />
</svg>