<?xml version="1.0" encoding="utf-8"?>
<svg xmlns="http://www.w3.org/2000/svg" xmlns:xlink="http://www.w3.org/1999/xlink" width="1024"
    height="1024" viewBox="0 0 1024 1024">
    <path fill="#777A7F"
        d="M385.468 345.88C392.266 344.88 391.994 346.43 398.502 347.462C400.229 347.736 404.368 347.628 406.282 347.579C418.391 347.21 431.334 347.462 443.545 347.48L518.027 347.607L576.535 347.513C584.8 347.506 598.365 347.062 606.144 347.566C611.518 347.566 621.563 348.153 626.342 347.453C634.755 346.221 631.747 344.837 641.731 345.99C658.52 346.224 678.006 346.405 694.753 345.979C700.222 344.085 709.019 345.677 713.217 349.568C717.38 353.428 718.245 359.899 718.19 365.224C717.846 398.563 718.959 431.957 717.932 465.258C717.397 481.323 699.806 479.851 688.823 479.646C689.568 503.137 694.449 535.664 699.095 558.549C718.796 655.584 761.262 749.079 825.967 824.464C836.509 836.745 846.767 846.548 858.427 857.538C875.33 857.557 886.475 855.87 900.219 867.8C915.823 881.345 913.592 894.342 913.517 913.052L913.434 950.395L913.557 982.922C913.582 989.403 914.051 997.001 913.056 1003.18C910.969 1016.14 900.948 1021.29 889.027 1021.37C872.536 1021.49 856.213 1021.46 839.859 1021.44L749.712 1021.43L456.82 1021.4L244.222 1021.34L170.262 1021.38C157.252 1021.4 144.01 1021.73 131.04 1021.25C118.207 1020.78 110.43 1009.92 110.217 997.805C109.969 974.428 109.902 951.049 110.016 927.671C109.982 915.191 109.434 899.674 110.809 887.296C111.322 882.681 116.671 874.367 120.217 870.96C134.47 857.267 142.966 857.722 160.974 857.487C162.611 856.222 164.214 854.914 165.782 853.564C269.631 763.445 325.833 614.69 335.245 479.844C326.159 479.297 315.178 481.891 308.984 473.324C304.26 466.79 305.37 456.05 305.41 448.266L305.524 420.644L305.548 380.251C305.605 361.866 302.839 341.051 329.918 346.005C346.687 346.024 369.198 346.756 385.468 345.88Z" />
    <path fill="#FCFCFC"
        d="M406.282 347.579C418.391 347.21 431.334 347.462 443.545 347.48L518.027 347.607L576.535 347.513C584.8 347.506 598.365 347.062 606.144 347.566C602.571 348.003 576.957 348.483 576.082 349.789C575.974 349.949 575.796 350.55 575.731 350.753C585.851 351.259 596.702 350.703 606.708 351.537L625.386 351.503C622.006 356.111 612.186 369.244 608.508 372.996L592.683 373.062C586.307 372.719 577.84 372.978 571.285 372.978L529.641 373.011C499.663 373.039 468.139 372.417 438.279 373.073C431.247 372.793 422.454 373.051 415.284 373.059C409.381 366.074 404.195 358.653 398.091 351.658C407.134 351.537 416.177 351.493 425.22 351.525C427.631 349.475 444.196 352.207 450.36 350.194L450.47 349.287C449.831 349.021 411.126 347.896 406.282 347.579Z" />
    <path fill="#96A1AA"
        d="M406.282 347.579C418.391 347.21 431.334 347.462 443.545 347.48L518.027 347.607L576.535 347.513C584.8 347.506 598.365 347.062 606.144 347.566C602.571 348.003 576.957 348.483 576.082 349.789C575.974 349.949 575.796 350.55 575.731 350.753C585.851 351.259 596.702 350.703 606.708 351.537C602.29 352.223 586.473 351.697 580.823 351.708C560.774 351.84 540.724 351.841 520.675 351.71C498.082 351.886 475.487 351.882 452.894 351.699C446.149 351.661 431.212 352.183 425.22 351.525C427.631 349.475 444.196 352.207 450.36 350.194L450.47 349.287C449.831 349.021 411.126 347.896 406.282 347.579Z" />
    <path fill="#96A1AA"
        d="M438.279 373.073C468.139 372.417 499.663 373.039 529.641 373.011L571.285 372.978C577.84 372.978 586.307 372.719 592.683 373.062C573.843 376.824 552.262 371.68 533.273 374.389C527.205 375.254 526.862 376.021 520.802 374.178C518.429 373.988 515.159 374.347 512.872 374.2C493.77 372.969 474.978 374.228 455.939 374.137C450.525 374.112 443.451 373.737 438.279 373.073Z" />
    <path fill="#0F0D10"
        d="M329.918 346.005C346.687 346.024 369.198 346.756 385.468 345.88C384.574 346.329 382.922 347.208 381.986 347.19C371.05 346.986 339.6 348.624 330.369 347.04L329.918 346.005Z" />
    <path fill="#0F0D10"
        d="M694.753 345.979C694.38 346.237 693.211 347 692.848 346.999C683.618 346.971 648.413 349.261 641.731 345.99C658.52 346.224 678.006 346.405 694.753 345.979Z" />
    <path fill="#"
        d="M435.141 479.988L588.65 480.019C589.239 488.33 590.783 501.099 591.018 508.623C596.027 550.065 603.82 593.539 615.733 633.6C610.284 639.024 611.559 646.599 614.915 653.091C617.1 657.317 619.514 658.503 623.993 659.614C640.928 711.153 663.6 760.626 691.582 807.101C701.854 824.298 712.927 841.738 725.157 857.602C711.441 857.893 696.661 857.601 682.839 857.614L594.035 857.559L371.932 857.857C347.347 858.011 322.771 857.135 298.122 857.884C307.611 846.186 316.747 832.343 324.814 819.669C356.41 769.49 381.688 715.601 400.075 659.226C401.661 658.978 403.265 658.619 404.839 658.294C411.115 651.696 415.786 641.291 408.054 633.914C411.305 624.25 413.496 613.573 416.044 603.692C424.272 571.787 428.928 541.28 432.989 508.625C433.317 499.329 434.734 489.575 435.141 479.988Z" />
    <path fill="#C5CED5"
        d="M435.141 479.988L588.65 480.019C589.239 488.33 590.783 501.099 591.018 508.623C589.097 506.077 588.625 492.645 588.279 488.487C585.35 488.992 579.849 490.357 577.462 490.447C570.689 490.7 562.861 489.188 556.108 489.025C548.853 488.895 540.616 490.502 533.465 490.23C524.064 489.873 514.413 489.253 504.998 488.869C502.5 490.528 494.736 490.06 491.23 490.217L447.213 491.77C444.083 491.855 439.391 491.957 436.343 491.993C433.507 492.026 435.802 505.049 432.989 508.625C433.317 499.329 434.734 489.575 435.141 479.988Z" />
    <path fill="#FCFCFC"
        d="M388.734 862.049C398.676 861.619 410.72 861.93 420.794 861.937L474.829 861.904L635.517 861.9C638.198 865.123 651.18 879.76 654.613 879.936C659.885 880.206 668.584 880.011 674.089 880.009L717.5 880.01C769.744 880.022 822.798 879.589 874.96 880.162C879.33 882.591 887.868 890.827 890.946 894.998C891.372 902.863 891.036 913.862 891.084 921.961C891.259 939.863 891.233 957.766 891.006 975.668C886.857 980.296 881.725 985.319 877.326 989.742C864.938 990.295 850.484 989.868 837.929 989.908L746.193 989.725L680.757 989.774C664.116 989.889 644.931 990.291 628.445 989.532C624.7 993.534 621.184 997.078 617.889 1001.48C614.473 1006.08 609.114 1011.98 605.252 1016.45L481.052 1016.73C462.77 1016.7 436.711 1015.7 418.934 1016.83C411.173 1007.95 403.582 998.92 396.165 989.747C379.967 990.103 362.993 989.707 346.75 989.718C311.416 989.934 276.08 989.958 240.746 989.79L179.337 989.927C168.963 989.955 156.282 990.33 146.187 989.804C142.727 986.169 134.979 978.658 132.582 974.936C132.2 961.478 133.074 946.188 132.697 932.369C132.469 923.988 132.188 902.126 133.204 894.461C136.274 890.486 144.067 883.893 148.054 880.336C154.599 879.816 164.747 880.056 171.496 880.049L212.572 880.009L324.264 880.03C339.749 880.03 355.789 880.327 371.212 880.093C376.98 874.009 382.822 867.994 388.734 862.049Z" />
    <path fill="#777A7F"
        d="M172.381 920.216C177.524 920.014 184.11 920.321 189.435 920.344L222.986 920.275L350.899 920.305L697.508 920.122C748.222 920.038 800.924 921.01 851.475 920.027C851.792 932.582 851.544 946.248 851.549 958.868C850.348 959.691 830.578 959.161 827.889 959.145L788.425 959.137L643.644 959.097L171.994 959.409C172.113 950.846 172.148 942.283 172.098 933.72C172.087 930.361 171.841 923.265 172.381 920.216Z" />
    <path fill="#D4D9DC"
        d="M259.786 923.737C270.873 923.43 284.387 923.881 295.734 923.897L364.316 923.765L592.459 923.947L756.999 923.731C778.59 923.594 800.182 923.634 821.773 923.852C830.482 923.909 839.18 923.664 847.88 923.917C848.613 932.459 848.746 946.957 847.893 955.384C822.058 956.355 791.483 955.506 765.231 955.553C739.421 955.918 714.221 955.488 688.581 955.586L403.661 955.52L243.741 955.626L202.685 955.514C194.527 955.512 183.767 955.765 175.858 955.087C175.229 945.992 175.645 933.44 175.718 924.114C203.804 923.593 231.763 924.168 259.786 923.737Z" />
    <path fill="#FCFCFC"
        d="M649.203 364.223C659.876 363.88 674.052 364.549 685.204 364.619C689.068 367.987 694.255 373.421 698.005 377.159C697.932 399.129 697.406 424.48 698.202 446.302C695.331 449.685 689.099 455.537 685.736 458.874C657.841 459.666 628.384 458.539 600.308 459.008C595.747 463.385 590.167 469.977 587.687 475.831C568.153 476.139 548.533 475.404 529 475.521L473.649 475.64C461.371 475.692 448.333 476.027 436.14 475.73C432.549 468.843 428.669 464.521 423.51 458.954C410.938 459.529 394.634 458.957 381.75 458.909L338.189 458.945C334.164 454.85 330.105 450.789 326.014 446.761C326.344 423.386 325.845 400.048 326.104 376.699C330.698 372.877 334.114 368.744 338.509 364.776C357.264 363.445 384.967 364.658 404.264 364.917C407.587 368.44 409.77 372.474 413.593 376.376C433.888 376.859 456.027 376.392 476.456 376.379L610.324 376.501C612.817 374.016 617.217 367.899 619.523 364.872C628.826 364.289 639.639 364.546 649.203 364.223Z" />
    <path fill="#777A7F"
        d="M347.091 390.517L676.991 390.564C677.012 396.158 677.595 433.975 676.402 436.302L675.125 436.496C646.584 435.608 616.309 436.306 587.616 436.309L430.09 436.197L377.354 436.226C367.897 436.259 356.411 436.665 347.147 436.157C346.353 424.221 347.053 403.211 347.091 390.517Z" />
    <path fill="#D4D9DC"
        d="M350.62 394.125L673.379 394.087C673.518 406.867 673.577 419.649 673.554 432.43C580.266 433.504 486.682 431.701 393.368 432.498C379.155 432.619 364.883 432.581 350.672 432.409C350.557 419.648 350.54 406.886 350.62 394.125Z" />
    <path fill="#FCFCFC"
        d="M339.555 479.968C348.975 479.854 361.06 479.416 370.308 479.818C369.842 487.553 369.07 504.106 367.553 511.164C354.697 617.141 321.213 717.78 258.323 804.903C248.881 817.983 238.064 830.69 227.574 842.972C223.313 847.961 218.715 852.56 214.408 857.654C199.214 857.821 183.66 857.628 168.43 857.623C171.406 854.82 174.845 852.322 177.837 849.489C259.797 771.918 308.964 663.104 330.632 553.569C333.63 538.413 335.505 522.346 337.47 507.02C337.92 498.029 339.11 489.054 339.555 479.968Z" />
    <path fill="#C5CED5"
        d="M339.555 479.968C348.975 479.854 361.06 479.416 370.308 479.818C369.842 487.553 369.07 504.106 367.553 511.164C366.192 505.609 370.185 491.74 368.397 488.94L367.127 490.201C363.576 489.585 360.255 490.618 356.857 490.273C351.985 489.78 340.993 487.47 343.155 480.677L341.742 480.684C337.667 483.696 341.134 502.692 337.47 507.02C337.92 498.029 339.11 489.054 339.555 479.968Z" />
    <path fill="#FCFCFC"
        d="M653.52 479.74L684.456 479.829C684.615 489.321 685.984 500.199 686.994 509.756C688.689 530.945 693.93 557.645 698.773 578.265C717.599 660.978 753.954 738.688 805.383 806.149C816.034 820.077 835.609 843.537 848.95 854.908C850.02 855.817 851.114 856.697 852.232 857.547C837.784 857.563 822.417 857.313 808.026 857.634C803.393 852.372 798.591 847.418 794.089 842.02C728.483 763.363 689.233 678.504 667.668 578.618C663.62 560.541 660.432 542.282 658.112 523.904C657.778 521.11 656.633 512.757 656.631 510.248C655.251 505.311 653.989 485.808 653.52 479.74Z" />
    <path fill="#C5CED5"
        d="M653.52 479.74L684.456 479.829C684.615 489.321 685.984 500.199 686.994 509.756C684.034 503.736 685.79 495.714 683.809 489.649L682.783 489.294C676.622 492.341 675.668 489.182 669.813 489.302C663.898 489.424 660.366 481.23 657.418 480.137C655.728 480.351 656.508 480.042 655.114 481.341C653.171 486.325 658.278 505.977 656.631 510.248C655.251 505.311 653.989 485.808 653.52 479.74Z" />
    <path fill="#FCFCFC"
        d="M147.323 862.184C155.757 861.714 166.497 862.002 175.108 861.998L225.497 861.967L383.714 861.875C379.466 866.786 374.145 872.059 369.635 876.926L217.25 876.872C195.569 876.878 168.014 875.897 147.003 877.087C141.627 880.786 133.526 888.221 129.658 893.525C128.754 904.464 129.829 924.818 129.414 936.415C129.197 942.502 129.159 973.238 130.138 977.939C135.454 982.85 140.47 988.135 145.67 993.205C158.056 993.516 172.222 993.122 184.836 993.196L338.512 993.231C357.228 993.286 376.183 992.912 394.878 993.209L399.598 999.453C368.737 1000.08 336.698 999.541 305.75 999.593L138.411 999.441C129.797 989.29 122.717 982.802 114.444 971.699L114.42 920.453C114.289 896.476 110.68 878.306 135.797 865.324C139.914 863.196 142.788 862.641 147.323 862.184Z" />
    <path fill="#FCFCFC"
        d="M639.896 861.494C648.791 862.219 659.481 861.941 668.575 861.931L712.665 861.93L870.837 861.887C884.254 861.979 890.701 865.223 900.406 874.35C912.089 885.338 909.322 903.637 909.361 918.147C909.446 936.178 909.367 954.21 909.125 972.24C903.042 980.443 892.343 992.343 885.037 999.581L638.75 999.557L624.039 999.455C625.948 997.4 627.56 995.23 629.276 993.015L783.457 993.069C815.254 993.1 847.529 993.692 879.274 993.014C894.588 974.902 894.578 983.327 894.471 958.907L894.288 932.585C894.206 921.458 894.887 904.098 894.032 893.793C890.618 888.806 882.119 880.427 876.954 877.066C868.695 876.46 854.989 876.816 846.528 876.821L792.813 876.869L654.687 876.919C650.019 872.65 644.336 866.254 639.896 861.494Z" />
    <path fill="#FCFCFC"
        d="M624.57 479.655C633.424 479.884 641.453 480.042 650.351 479.981C650.551 489.727 652.86 506.826 654.1 516.798C659.702 564.783 670.432 612.03 686.106 657.728C691.498 673.528 698.097 691.215 705.271 706.364L698.185 708.96C694.124 710.893 686.75 713.565 682.342 715.36C678.562 707.705 673.395 694.358 670.219 686.24C645.416 622.832 627.446 547.833 624.57 479.655Z" />
    <path fill="#FCFCFC"
        d="M373.765 480.039L399.427 480.065C396.798 553.872 372.792 646.482 342.461 713.206C342.406 713.38 341.807 714.155 341.675 714.335C339.157 714.669 323.093 707.945 318.984 706.563C342.785 649.588 358.981 595.362 367.715 533.996C370.127 517.046 373.151 497.02 373.765 480.039Z" />
    <path fill="#FCFCFC"
        d="M402.606 479.868L425.949 479.828C425.43 487.827 424.583 504.867 423.022 512.204C422.45 521.294 420.03 536.015 418.538 545.025C413.72 574.27 407.209 603.211 399.038 631.702L398.519 631.964L397.706 632.392C391.18 635.776 391.049 643.19 390.375 649.979C390.194 651.803 391.51 655.49 390.903 657.344C383.529 679.86 374.601 701.778 365.486 723.636L344.933 716.211C372.317 654.396 394.102 578.609 400.015 511.314C400.709 500.775 402.529 490.359 402.606 479.868Z" />
    <path fill="#C5CED5"
        d="M402.606 479.868L425.949 479.828C425.43 487.827 424.583 504.867 423.022 512.204C422.359 505.655 426.448 484.097 423.671 480.581C422.638 480.929 422.987 480.601 422.54 481.471C424.389 481.703 423.717 481.282 424.781 482.487C424.957 484.16 424.938 484.043 424.36 485.636C423.397 485.372 423.855 485.549 423.057 484.471L423.897 484.402L423.898 483.821L423.6 483.63L423.041 484.467L423.715 483.66L423.186 484.871L423.62 485.108C422.972 486.321 423.343 485.976 422.224 486.654C418.557 484.802 417.912 485.522 414.079 484.718C413.256 484.545 411.966 483.29 411.665 482.369C412.124 481.987 412.541 481.635 412.992 481.24C409.68 480.976 407.229 480.717 403.907 480.945C401.415 489.01 403.367 502.44 400.015 511.314C400.709 500.775 402.529 490.359 402.606 479.868Z" />
    <path fill="#FCFCFC"
        d="M598.075 479.945C605.828 480.005 613.581 479.925 621.331 479.703C621.62 489.624 622.995 500.155 623.51 510.175C629.748 566.996 642.961 622.833 662.85 676.425C667.795 689.974 673.784 702.943 679.015 716.286L658.439 723.445C650.123 702.193 640.54 681.122 633.865 659.254C631.294 650.832 638.396 637.678 624.89 631.673C616.21 600.765 609.374 569.369 604.417 537.65C603.415 531.14 601.163 517.106 601.028 510.606C599.483 504.729 598.545 486.913 598.075 479.945Z" />
    <path fill="#C5CED5"
        d="M598.075 479.945C605.828 480.005 613.581 479.925 621.331 479.703C621.62 489.624 622.995 500.155 623.51 510.175C620.613 505.903 622.776 490.441 620.215 488.898C619.624 489.156 619.032 489.413 618.441 489.671C613.827 488.994 604.472 488.67 600.412 487.731C599.908 485.109 601.878 482.972 601.602 480.766L599.526 480.737C597.396 483.238 602.733 506.099 601.028 510.606C599.483 504.729 598.545 486.913 598.075 479.945Z" />
    <defs>
        <linearGradient id="gradient_0" gradientUnits="userSpaceOnUse" x1="373.12701" y1="484.79044"
            x2="347.89047" y2="344.08725">
            <stop offset="0" stop-color="#D4DBDF" />
            <stop offset="1" stop-color="white" />
        </linearGradient>
    </defs>
    <path fill="url(#gradient_0)"
        d="M432.845 475.881C395.357 474.887 356.179 476.795 318.583 475.177C317.161 475.116 314.215 472.907 313.203 471.876C311.26 469.874 310 467.308 309.604 464.546C309.208 461.736 309.366 454.094 309.362 451.016L309.31 426.941L309.21 388.962C309.141 380.592 308.92 372.103 309.13 363.807C309.558 346.958 323.367 347.63 336.071 347.92C353.727 348.322 371.888 347.336 389.495 348.176C389.99 348.197 390.485 348.231 390.979 348.278C394.378 352.453 398.234 357.437 401.809 361.377C395.205 361.411 372.101 361.128 367.306 361.956L348.865 361.899C346.08 361.372 340.239 361.499 337.178 361.466C332.499 366.16 327.779 370.989 323.04 375.605L322.75 447.377C326.397 451.993 332.933 457.829 337.403 461.973L392.051 461.992C401.163 461.945 410.731 461.429 419.781 462.101C424.295 462.436 430.169 472.439 432.845 475.881Z" />
    <defs>
        <linearGradient id="gradient_1" gradientUnits="userSpaceOnUse" x1="650.6015" y1="484.35144"
            x2="674.7926" y2="344.13351">
            <stop offset="0" stop-color="#D5DBE0" />
            <stop offset="1" stop-color="white" />
        </linearGradient>
    </defs>
    <path fill="url(#gradient_1)"
        d="M633.789 348.28C647.357 347.532 662.008 348.026 675.681 347.899C683.946 347.823 693.143 347.796 701.345 348.355C703.349 348.491 707.686 349.591 709.23 350.982C712.522 353.946 714.416 357.77 714.474 362.224C714.713 380.489 714.489 398.866 714.636 417.125C714.751 427.36 714.778 437.595 714.716 447.83C714.75 473.448 715.115 475.656 688.858 475.696C681.008 475.749 673.158 475.754 665.308 475.712L594.625 475.769C592.84 475.788 593.27 476.149 592.439 475.335C593.095 471.485 599.594 464.66 602.462 461.924C630.29 462.008 658.786 462.268 686.587 461.984C690.622 459.367 697.532 451.582 701.046 447.827C701.33 423.833 701.115 399.485 701.088 375.471C696.228 370.955 691.541 366.183 686.844 361.493C682.866 361.415 678.838 361.377 674.86 361.481C657.349 361.939 639.881 361.358 622.371 361.505C624.554 358.788 631.595 349.643 633.789 348.28Z" />
    <path fill="#FCFCFC"
        d="M706.057 709.496C706.853 710.178 713.735 724.73 714.756 726.755C723.122 743.71 732.275 760.266 742.184 776.367C755.125 797.488 785.75 840.033 803.555 857.511L781.875 857.701C777.866 857.871 773.933 857.808 769.924 857.772C735.097 815.224 706.068 768.245 683.596 718.063C691.117 715.298 698.605 712.442 706.057 709.496Z" />
    <path fill="#FCFCFC"
        d="M317.611 709.285C325.202 712.336 332.911 714.984 340.571 718.08C321.814 759.318 298.571 798.365 271.262 834.514C266.251 841.137 258.165 852.069 252.514 857.594L242.307 857.815L218.889 857.84C262.283 811.935 290.832 765.627 317.611 709.285Z" />
    <path fill="#D4D9DC"
        d="M908.784 977.427C909.193 977.881 909.434 978.612 909.399 979.214C908.806 989.506 911.419 1004.27 903.347 1012.1C900.85 1014.67 897.339 1016.26 893.736 1016.43C883.699 1016.89 873.464 1016.65 863.408 1016.63L806.451 1016.66L610.634 1016.6L610.277 1016.14C611.903 1013.53 619.17 1005.3 621.413 1002.96C644.739 1003.64 672.063 1002.94 695.809 1002.95L886.265 1002.95C892.376 998.052 903.956 983.633 908.784 977.427Z" />
    <path fill="#D4D9DC"
        d="M114.383 977.755C116.336 979.494 121.293 985.469 123.187 987.628C127.67 992.693 132.224 997.694 136.847 1002.63C144.771 1003.36 158.911 1002.97 167.148 1002.98L222.304 1002.97L402.586 1003.02C405.683 1006.7 411.261 1012.89 413.754 1016.61C397.412 1017.74 377.845 1016.6 361.138 1016.59L250.291 1016.59L167.109 1016.6L142.083 1016.57C138.99 1016.57 135.891 1016.59 132.799 1016.53C110.46 1016.06 114.688 992.962 114.383 977.755Z" />
    <path fill="#FCFCFC"
        d="M343.637 719.06C348.784 720.41 358.733 724.566 363.842 726.662C348.835 762.881 311.98 829.102 286.181 857.919L277.814 857.773L256.723 857.835C293.618 815.288 319.98 769.76 343.637 719.06Z" />
    <path fill="#FCFCFC"
        d="M679.665 719.51C681.019 719.772 690.439 740.359 691.853 743.144C712.256 783.339 736.649 823.442 765.882 857.879L747.625 857.825L737.285 857.887C729.502 846.952 721.602 836.899 714.033 825.478C692.584 793.118 675.993 761.571 659.894 726.361C666.196 723.992 673.252 721.72 679.665 719.51Z" />
    <path fill="#D4D9DC"
        d="M394.996 657.764C396.218 658.512 395.846 657.966 396.275 659.325C377.403 719.763 344.903 784.155 309.321 836.448C306.066 841.233 296.515 855.683 292.341 858.167L291.51 857.876L291.374 857.235C294.51 852.705 298.2 848.592 301.382 844.096C305.649 838.068 309.979 832.054 314.071 825.906C333.707 795.812 350.965 764.233 365.688 731.454C371.474 718.373 376.954 705.322 382.257 692.071C384.924 685.405 391.907 662.452 394.996 657.764Z" />
    <defs>
        <linearGradient id="gradient_2" gradientUnits="userSpaceOnUse" x1="682.67102" y1="755.99432"
            x2="670.552" y2="761.79041">
            <stop offset="0" stop-color="#CED7DC" />
            <stop offset="1" stop-color="#F5FAFB" />
        </linearGradient>
    </defs>
    <path fill="url(#gradient_2)"
        d="M627.299 657.215L628.763 657.582C630.483 659.031 636.949 678.847 638.434 682.828C648.138 709.385 659.378 735.355 672.098 760.607C686.512 789.46 703.462 817.159 722.072 843.465C725.378 848.139 729.836 853.349 732.505 858.303C727.701 857.23 719.393 843.597 716.243 838.995C683.388 790.883 656.604 738.895 636.501 684.213C634.836 679.741 627.819 661.238 627.299 657.215Z" />
    <defs>
        <linearGradient id="gradient_3" gradientUnits="userSpaceOnUse" x1="624.44818" y1="546.97546"
            x2="587.96387" y2="563.83417">
            <stop offset="0" stop-color="#C3C9D4" />
            <stop offset="1" stop-color="#EBF3F1" />
        </linearGradient>
    </defs>
    <path fill="url(#gradient_3)"
        d="M592.909 478.759C593.116 478.884 594 479.328 594.052 479.627C595.542 488.038 596.535 503.488 597.412 511.394C599.921 532.123 603.173 552.755 607.16 573.25C609.095 582.872 611.776 593.099 613.824 602.645C615.217 609.14 620.89 627.291 620.402 632.625C618.128 630.76 616.352 622.725 615.516 619.525C604.996 579.238 596.617 538.203 593.445 496.623C593.104 492.141 592.049 482.793 592.909 478.759Z" />
    <defs>
        <linearGradient id="gradient_4" gradientUnits="userSpaceOnUse" x1="412.6893" y1="554.94904"
            x2="422.33466" y2="557.17175">
            <stop offset="0" stop-color="#ADBAC0" />
            <stop offset="1" stop-color="#EDF0F2" />
        </linearGradient>
    </defs>
    <path fill="url(#gradient_4)"
        d="M429.295 479.121C429.823 479.259 431.596 479.689 431.564 480.263C429.227 522.201 422.576 564.617 412.027 605.345C409.434 615.355 407.72 623.341 404.827 632.343C404.366 632.419 403.886 632.291 403.382 632.219C402.403 629.805 404.361 626.255 405.021 623.725C409.988 604.686 414.431 585.514 418.347 566.232C424.193 536.422 426.952 509.165 429.295 479.121Z" />
    <defs>
        <linearGradient id="gradient_5" gradientUnits="userSpaceOnUse" x1="625.74683" y1="654.08356"
            x2="620.00012" y2="636.66492">
            <stop offset="0" stop-color="#D6DBDF" />
            <stop offset="1" stop-color="white" />
        </linearGradient>
    </defs>
    <path fill="url(#gradient_5)"
        d="M621.99 635.523C625.166 635.465 627.608 637.897 628.529 640.69C630.803 647.592 632.506 652.892 624.897 655.645C620.153 655.406 617.595 651.802 616.519 647.561C614.901 641.191 615.619 637.321 621.99 635.523Z" />
    <defs>
        <linearGradient id="gradient_6" gradientUnits="userSpaceOnUse" x1="405.17679" y1="651.58337"
            x2="396.01096" y2="638.78217">
            <stop offset="0" stop-color="#D3D8DD" />
            <stop offset="1" stop-color="white" />
        </linearGradient>
    </defs>
    <path fill="url(#gradient_6)"
        d="M399.198 635.5C412.38 634.53 408.734 650.483 402.282 655.215C389.133 657.508 393.993 640.607 399.198 635.5Z" />
    <path fill="#434346"
        d="M348.865 361.899L367.306 361.956C368.506 362.034 369.863 361.983 370.898 362.421L364.522 363.186L370.342 363.596C366.591 363.945 352.128 364.299 348.905 363.644C349.535 362.773 353.38 364.133 354.754 363.153C352.783 362.029 350.442 363.442 347.998 362.334L348.865 361.899Z" />
    <defs>
        <linearGradient id="gradient_7" gradientUnits="userSpaceOnUse" x1="541.70624" y1="316.26102"
            x2="481.4097" y2="15.317735">
            <stop offset="0" stop-color="#D4DEE4" />
            <stop offset="1" stop-color="#FEFDFD" />
        </linearGradient>
    </defs>
    <path fill="url(#gradient_7)"
        d="M462.988 15.0796C482.05 7.46351 528.751 4.94427 547.616 11.5749C554.716 13.0372 579.626 20.5913 585.15 25.3621C621.957 44.2043 649.777 76.8911 662.493 116.237C675.625 156.4 672.37 200.124 653.437 237.9C641.378 261.443 623.626 281.598 601.795 296.534C598.661 298.711 588.635 305.254 584.999 306.19C572.783 315.09 544.05 322.212 528.546 323.726C502.942 326.31 477.092 322.692 453.182 313.176C448.943 311.537 441.39 308.615 437.948 305.777C411.133 293.525 384.901 265.162 371.404 239.193C351.984 202.022 348.095 158.668 360.588 118.634C372.379 81.1799 399.334 46.0702 434.436 27.8332C439.507 23.5675 456.031 17.4771 462.988 15.0796Z" />
    <defs>
        <linearGradient id="gradient_8" gradientUnits="userSpaceOnUse" x1="669.34344" y1="164.58545"
            x2="574.29486" y2="167.82196">
            <stop offset="0" stop-color="#798085" />
            <stop offset="1" stop-color="#99A3AC" />
        </linearGradient>
    </defs>
    <path fill="url(#gradient_8)"
        d="M584.956 30.0346C585.886 28.1452 586.437 28.7331 586.649 26.8792L585.012 25.9333L585.15 25.3621C621.957 44.2043 649.777 76.8911 662.493 116.237C675.625 156.4 672.37 200.124 653.437 237.9C641.378 261.443 623.626 281.598 601.795 296.534C598.661 298.711 588.635 305.254 584.999 306.19C582.662 306.246 582.019 307.485 579.698 306.861C580.032 304.979 580.881 304.775 582.621 303.319C584.608 302.012 587.532 300.721 589.689 299.45C652.839 262.258 682.225 185.976 658.201 116.304C645.805 80.3555 619.585 46.905 584.956 30.0346Z" />
    <defs>
        <linearGradient id="gradient_9" gradientUnits="userSpaceOnUse" x1="354.21613" y1="173.03458"
            x2="440.58716" y2="168.92447">
            <stop offset="0" stop-color="#757B7F" />
            <stop offset="1" stop-color="#8D969E" />
        </linearGradient>
    </defs>
    <path fill="url(#gradient_9)"
        d="M434.436 27.8332L434.57 28.6047L434.112 29.422L434.165 30.5901C435.495 31.5543 434.768 31.3145 436.424 31.3177C433.851 32.8558 431.287 34.4037 428.758 36.0156C358.758 80.6341 336.095 173.456 379.479 245.054C391.049 264.252 406.616 280.734 425.122 293.381C430.965 297.32 437.032 300.555 443.042 304.195C443.773 305.411 444.487 305.54 445.732 306.098C445.675 307.755 445.899 306.992 444.942 308.436C442.205 308.608 439.519 304.379 437.948 305.777C411.133 293.525 384.901 265.162 371.404 239.193C351.984 202.022 348.095 158.668 360.588 118.634C372.379 81.1799 399.334 46.0702 434.436 27.8332Z" />
    <defs>
        <linearGradient id="gradient_10" gradientUnits="userSpaceOnUse" x1="512.31946"
            y1="303.39441" x2="513.26434" y2="323.57297">
            <stop offset="0" stop-color="#8E9EAB" />
            <stop offset="1" stop-color="#C6DCE9" />
        </linearGradient>
    </defs>
    <path fill="url(#gradient_10)"
        d="M443.042 304.195C444.295 304.472 451.204 307.837 452.901 308.554C456.506 310.436 460.731 311.32 464.409 312.828C472.52 316.153 480.605 316.446 488.962 318.384C493.487 319.433 497.236 318.941 501.647 319.879C506.039 320.813 510.426 320.143 514.9 320.258C540.726 319.832 559.656 314.295 582.621 303.319C580.881 304.775 580.032 304.979 579.698 306.861C582.019 307.485 582.662 306.246 584.999 306.19C572.783 315.09 544.05 322.212 528.546 323.726C502.942 326.31 477.092 322.692 453.182 313.176C448.943 311.537 441.39 308.615 437.948 305.777C439.519 304.379 442.205 308.608 444.942 308.436C445.899 306.992 445.675 307.755 445.732 306.098C444.487 305.54 443.773 305.411 443.042 304.195Z" />
    <path fill="#D4D9DC"
        d="M462.988 15.0796C482.05 7.46351 528.751 4.94427 547.616 11.5749C541.54 12.281 534.997 7.93798 529.599 10.4198L529.264 11.1925C532.487 13.8519 543.425 12.5969 546.54 15.6171C537.376 14.2377 529.107 12.4086 519.742 11.7891C501.692 10.5952 482.173 13.868 464.961 19.1845C464.743 17.1116 464.599 16.2546 462.988 15.0796Z" />
    <path fill="#C5CED5"
        d="M546.54 15.6171C543.425 12.5969 532.487 13.8519 529.264 11.1925L529.599 10.4198C534.997 7.93798 541.54 12.281 547.616 11.5749C554.716 13.0372 579.626 20.5913 585.15 25.3621L585.012 25.9333L586.649 26.8792C586.437 28.7331 585.886 28.1452 584.956 30.0346C581.751 28.7769 576.501 25.8776 572.691 24.2646C563.729 20.4703 555.907 18.0888 546.54 15.6171Z" />
    <path fill="#C5CED5"
        d="M462.988 15.0796C464.599 16.2546 464.743 17.1116 464.961 19.1845C454.819 21.3759 445.457 27.4722 436.424 31.3177C434.768 31.3145 435.495 31.5543 434.165 30.5901L434.112 29.422L434.57 28.6047L434.436 27.8332C439.507 23.5675 456.031 17.4771 462.988 15.0796Z" />
    <path fill="#"
        d="M453.834 59.1947C487.599 40.9362 527.98 39.5993 562.879 55.5846C567.381 57.6468 571.754 59.9807 575.973 62.5735C610.114 83.5537 631.804 119.936 634.023 159.947C636.242 199.957 618.708 238.515 587.097 263.142C551.247 291.07 502.863 296.805 461.477 278.03C421.001 259.668 393.682 220.782 390.132 176.477C386.583 132.173 407.362 89.433 444.398 64.8605C447.457 62.8312 450.605 60.9407 453.834 59.1947Z" />
    <defs>
        <linearGradient id="gradient_11" gradientUnits="userSpaceOnUse" x1="390.93832"
            y1="179.09756" x2="462.19446" y2="170.9335">
            <stop offset="0" stop-color="#808488" />
            <stop offset="1" stop-color="#96A3AE" />
        </linearGradient>
    </defs>
    <path fill="url(#gradient_11)"
        d="M444.398 64.8605C445.746 64.5287 447.63 63.838 448.893 63.8534L448.474 64.015L449.115 64.6652L449.661 64.1229C448.959 66.3004 448.066 65.4203 446.921 67.7676C419.38 87.1856 401.047 112.278 395.142 146.014C389.597 177.678 397.103 210.238 415.948 236.28C424.53 248.337 435.516 258.105 447.591 266.669C449.81 268.242 459.036 272.722 460.062 273.725C462.606 276.413 465.54 276.167 467.919 278.607L467.696 279.809L467.054 279.532C464.581 278.489 464.112 278.294 461.477 278.03C421.001 259.668 393.682 220.782 390.132 176.477C386.583 132.173 407.362 89.433 444.398 64.8605Z" />
    <path fill="#96A1AA"
        d="M561.497 58.5037C562.221 57.2679 562.36 56.9279 562.879 55.5846C567.381 57.6468 571.754 59.9807 575.973 62.5735C610.114 83.5537 631.804 119.936 634.023 159.947C636.242 199.957 618.708 238.515 587.097 263.142C585.669 262.788 584.139 262.549 582.686 262.288C592.192 255.561 604.882 241.167 611.208 231.391C628.408 205.019 634.429 172.896 627.948 142.085C620.534 108.213 601.175 82.6582 572.406 64.1979C570.592 63.6483 563.582 59.6405 561.497 58.5037Z" />
    <path fill="#C5CED5"
        d="M561.497 58.5037C562.221 57.2679 562.36 56.9279 562.879 55.5846C567.381 57.6468 571.754 59.9807 575.973 62.5735C572.614 62.9425 571.849 59.5232 567.737 60.2969C568.607 62.0677 571.967 62.3739 572.406 64.1979C570.592 63.6483 563.582 59.6405 561.497 58.5037Z" />
    <defs>
        <linearGradient id="gradient_12" gradientUnits="userSpaceOnUse" x1="526.20813"
            y1="262.78085" x2="526.33002" y2="287.43408">
            <stop offset="0" stop-color="#8C98A1" />
            <stop offset="1" stop-color="#BCCDD9" />
        </linearGradient>
    </defs>
    <path fill="url(#gradient_12)"
        d="M460.062 273.725C463.333 274.626 468.216 276.983 471.692 278.186C477.812 280.304 484.607 282.374 490.972 283.621C512.767 287.891 538.738 283.87 559.188 275.567C566.853 272.455 575.88 266.892 582.686 262.288C584.139 262.549 585.669 262.788 587.097 263.142C551.247 291.07 502.863 296.805 461.477 278.03C464.112 278.294 464.581 278.489 467.054 279.532L467.696 279.809L467.919 278.607C465.54 276.167 462.606 276.413 460.062 273.725Z" />
    <defs>
        <linearGradient id="gradient_13" gradientUnits="userSpaceOnUse" x1="509.00494"
            y1="59.893379" x2="508.97513" y2="45.482456">
            <stop offset="0" stop-color="#AFB6BA" />
            <stop offset="1" stop-color="#EBF1F6" />
        </linearGradient>
    </defs>
    <path fill="url(#gradient_13)"
        d="M453.834 59.1947C487.599 40.9362 527.98 39.5993 562.879 55.5846C562.36 56.9279 562.221 57.2679 561.497 58.5037C525.024 44.2779 498.398 43.0609 461.518 59.3141L460.557 59.7408C460.371 59.7098 460.185 59.6788 460 59.6479C456.82 60.4194 457.527 58.9247 453.834 59.1947Z" />
    <path fill="#C5CED5"
        d="M453.834 59.1947C457.527 58.9247 456.82 60.4194 460 59.6479C460.185 59.6788 460.371 59.7098 460.557 59.7408C455.854 62.3621 451.392 65.2655 446.921 67.7676C448.066 65.4203 448.959 66.3004 449.661 64.1229L449.115 64.6652L448.474 64.015L448.893 63.8534C447.63 63.838 445.746 64.5287 444.398 64.8605C447.457 62.8312 450.605 60.9407 453.834 59.1947Z" />
</svg>