<?xml version="1.0" encoding="utf-8"?>
<svg xmlns="http://www.w3.org/2000/svg" viewBox="0 0 486.872 493.436">
  <g transform="matrix(1.389493, 0, 0, 1.389493, -914.360304, -485.601081)" style="">
    <path
      d="M846.39 351.947C847.671 351.871 849.317 351.95 850.36 352.782C853.079 354.952 852.542 380.704 852.701 385.688C858.204 386.875 869.959 389.044 874.52 391.889C880.96 395.908 885.917 404.853 892.796 409.912C901.25 416.129 910.424 421.365 918.969 426.981C923.635 430.048 943.857 440.898 946.18 443.7C951.076 449.602 955.22 463.129 953.617 471.351C951.677 481.307 945.765 489.164 937.707 494.722C922.171 505.439 917.471 496.783 904.419 491.437C902.197 490.527 886.009 487.997 882.27 487.371C877.204 490.422 872.119 493.436 866.362 494.883C873.288 506.294 880.716 513.258 889.721 522.649C907.458 541.147 925.242 560.942 929.34 587.227C932.154 605.276 929.321 624.1 918.665 639.15C931.908 644.048 933.11 650.214 932.814 663.035C936.229 663.805 938.434 664.251 941.346 666.376C944.523 668.703 946.643 672.199 947.237 676.092C947.846 680.218 948.519 695.753 946.14 698.92C941.865 700.655 897.382 699.899 889.75 699.899L777.083 699.926L746.1 699.937C740.594 699.936 731.611 700.202 726.494 699.36C725.494 698.459 724.766 696.76 724.735 695.411C724.409 681.417 721.511 666.055 739.728 663.276C739.521 650.308 740.546 642.974 754.632 639.641C742.621 621.223 746.443 611.003 753.487 591.711C755.837 585.278 757.266 578 758.438 571.235C747.149 567.785 733.35 564.518 723.416 558.483C721.924 555.524 725.097 541.253 725.399 538.573C731.257 486.436 704.904 435.542 751.422 394.124C774.196 373.847 793.476 365.661 824.097 366.523C831.288 360.083 837.595 355.727 846.39 351.947Z" />
    <path fill="#2E88C9"
      d="M842.526 363.362L843.014 363.445C844.735 366.225 843.078 388.001 845.272 391.995C846.561 394.341 858.058 395.628 861.431 396.245C873.54 397.907 877.427 409.299 886.374 415.893C902.748 427.961 921.016 437.561 938.202 448.398C938.995 448.899 940.265 450.422 940.715 451.271C943.923 457.323 946.803 464.517 945.114 471.444C942.968 478.367 936.967 485.047 930.907 488.794C926.053 491.975 920.698 490.746 916.194 487.573C908.938 482.46 901.445 481.94 892.911 480.521C889.17 479.9 885.303 478.843 881.517 477.783C879.252 478.816 876.41 480.691 874.243 481.983C858.188 491.553 837.632 491.085 824.883 476.276C820.223 470.863 818.496 466.093 816.267 459.293C815.433 456.747 814.081 455.347 811.649 454.267C807.599 454.505 807.592 460.84 808.329 463.706C811.164 474.733 818.408 483.311 827.424 489.964C837.742 496.226 845.542 497.846 857.301 496.465C866.97 512.005 873.062 517.548 885.226 531.023C839.442 538.034 813.634 534.705 767.434 527.356C763.53 496.751 753.687 463.628 767.941 434.881C777.862 414.869 792.552 403.391 813.095 396.07C815.142 393.015 817.055 389.237 819.245 385.984C826.198 375.651 832.378 370.109 842.526 363.362Z" />
    <path
      d="M862.264 420.352C865.055 419.116 868.32 420.379 869.553 423.172C870.787 425.965 869.521 429.229 866.727 430.46C863.937 431.69 860.677 430.426 859.445 427.636C858.213 424.846 859.475 421.586 862.264 420.352Z" />
    <path
      d="M927.947 453.492C933.009 453.471 934.688 455.875 933.996 460.973C933.799 462.432 932.467 462.665 931.242 463.228C923.972 462.842 921.671 457.684 927.947 453.492Z" />
    <path fill="#2E88C9"
      d="M739.765 671.715C746.593 671.415 755.876 671.822 762.987 671.847L811.809 671.883L890.625 671.874C904.842 671.848 919.487 671.408 933.625 671.72C941.66 676.508 939.256 682.643 939.016 691.307L932.817 691.305L733.546 691.469C733.179 684.194 730.953 674.176 739.765 671.715Z" />
    <path fill="#2E88C9"
      d="M768.198 536.008C774.904 537.343 781.592 538.253 788.356 539.232C786.696 545.506 780.811 569.452 782.018 574.393C784.825 577.864 790.608 579.238 795.068 581.764L795.66 582.104C792.461 587.137 787.281 593.377 792.307 598.565C805.706 612.395 820.025 625.307 833.825 638.711L833.362 639.327C811.247 639.67 788.46 639.43 766.292 639.43C744.626 619.494 761.811 602.612 765.871 579.1C768.634 563.098 768.934 552.124 768.198 536.008Z" />
    <path fill="#2E88C9"
      d="M891.281 537.827C892.01 538.008 893.174 538.477 893.669 539.03C906.9 553.798 919.701 572.395 921.419 592.497C922.984 610.813 919.202 625.56 907.785 639.415C892.777 639.642 877.296 639.454 862.25 639.46L843.297 639.481C851.605 629.264 865.355 618.828 874.5 608.83C878.244 604.737 884.386 600.494 887.143 595.727C887.796 591.832 883.635 585.769 881.615 582.116C884.069 580.658 894.132 576.801 895.294 574.516C898.66 567.898 886.893 541.881 891.281 537.827Z" />
    <path fill="#CCEEF5"
      d="M754.602 648.097C760.072 647.576 769.863 647.931 775.815 647.953L813.832 648.016C847.684 648.02 884.94 647.13 918.376 648.073C921.149 649.727 921.877 650.445 923.877 652.958C924.434 656.971 924.42 659.241 924.396 663.336L919.061 663.42L748.521 663.418C748.452 655.657 747.229 651.939 754.602 648.097Z" />
    <path fill="#2E88C9"
      d="M796.409 539.649C796.813 539.814 798.317 540.546 798.432 540.827C807.634 563.338 819.968 602.762 829.376 623.499C826.939 621.203 824.395 618.58 821.998 616.206C814.231 608.807 806.529 601.34 798.893 593.806C801.279 588.371 803.964 584.929 805.816 579.056C801.863 574.494 795.402 573.118 789.675 570.564C792.168 560.53 793.955 549.898 796.409 539.649Z" />
    <path fill="#2E88C9"
      d="M880.241 539.278C882.631 540.756 886.781 566.114 887.817 570.415C869.34 576.927 869.433 577.025 878.365 593.753L856.169 615.153L848.267 623.341C854.754 608.008 860.069 591.085 866.571 575.833C869.949 567.91 875.981 545.182 880.241 539.278Z" />
    <path fill="#CCEEF5"
      d="M734.739 527.354C742.919 529.029 751.169 530.347 759.465 531.303C759.7 536.86 760.92 557.834 759.073 561.924L757.879 561.927C752.139 560.447 736.517 555.758 732.087 553.151C733.817 543.139 734.314 537.48 734.739 527.354Z" />
    <path fill="#CCEEF5"
      d="M733.084 486.746C738.925 487.5 747.807 489.306 753.497 490.678C754.959 501.482 756.553 512.268 758.279 523.033C750.498 521.728 742.708 520.479 734.909 519.286C734.668 507.728 734.103 498.326 733.084 486.746Z" />
    <path fill="#CCEEF5"
      d="M731.604 448.67C736.351 449.511 748.01 453.369 753.131 454.919C751.706 463.103 751.691 472.594 752.431 480.83L752.131 481.116C750.449 481.357 735.598 478.736 732.347 478.296C731.131 467.343 731.251 459.5 731.604 448.67Z" />
    <path fill="#CCEEF5"
      d="M807.52 541.156C830.922 543.689 846.722 544.128 870.586 541.307C866.137 547.401 860.46 553.665 855.378 559.309L854.999 559.717C851.649 560.403 844.274 546.99 838.668 545.106C835.734 546.123 826.785 556.986 823.43 560.304C820.53 557.259 808.623 544.364 807.52 541.156Z" />
    <path fill="#CCEEF5"
      d="M745.119 414.323C750.698 417.513 757.52 422.212 762.646 426.046C759.356 432.56 757.071 438.944 754.801 445.855C754.537 446.062 754.272 446.269 754.008 446.476L752.388 445.927C745.972 444.084 739.491 442.297 733.161 440.183C737.207 427.996 738.156 425.188 745.119 414.323Z" />
    <path fill="#CCEEF5"
      d="M773.144 387.968C774.388 388.514 781.326 400.705 782.614 402.875C775.956 408.539 772.74 412.237 767.436 418.954L763.891 416.604C759.692 413.399 755.007 410.552 750.671 407.339C758.426 398.714 763.447 394.296 773.144 387.968Z" />
    <path fill="#CCEEF5"
      d="M814.823 375.23L815.117 375.4C815.123 376.222 808.586 386.676 807.611 388.579C800.975 390.92 795.608 393.771 789.621 397.383L786.439 392.44C784.625 389.623 782.895 386.754 781.25 383.835C791.981 377.887 802.816 376.039 814.823 375.23Z" />
    <path fill="#CCEEF5"
      d="M861.34 564.407C861.627 566.279 850.754 594.087 849.358 598.428L847.928 592.337C846.75 585.839 845.713 579.317 844.818 572.774L849.916 565.974C854.731 573.02 857.175 569.31 861.34 564.407Z" />
    <path fill="#CCEEF5"
      d="M815.794 563.353C820.788 567.29 821.334 573.72 828.241 566.56L833.072 572.758L829.454 590.93C828.839 593.577 828.507 596.183 828.112 598.87C824.44 588.298 818.834 573.569 815.794 563.353Z" />
  </g>
</svg>