<?xml version="1.0" encoding="utf-8"?>
<svg xmlns="http://www.w3.org/2000/svg" xmlns:xlink="http://www.w3.org/1999/xlink" width="1024"
    height="1024" viewBox="0 0 1024 1024">
    <path fill="#FFFFFE" d="M0 0L1024 0L1024 1024L0 1024L0 0Z" />
    <path
        d="M846.39 351.947C847.671 351.871 849.317 351.95 850.36 352.782C853.079 354.952 852.542 380.704 852.701 385.688C858.204 386.875 869.959 389.044 874.52 391.889C880.96 395.908 885.917 404.853 892.796 409.912C901.25 416.129 910.424 421.365 918.969 426.981C923.635 430.048 943.857 440.898 946.18 443.7C951.076 449.602 955.22 463.129 953.617 471.351C951.677 481.307 945.765 489.164 937.707 494.722C922.171 505.439 917.471 496.783 904.419 491.437C902.197 490.527 886.009 487.997 882.27 487.371C877.204 490.422 872.119 493.436 866.362 494.883C873.288 506.294 880.716 513.258 889.721 522.649C907.458 541.147 925.242 560.942 929.34 587.227C932.154 605.276 929.321 624.1 918.665 639.15C931.908 644.048 933.11 650.214 932.814 663.035C936.229 663.805 938.434 664.251 941.346 666.376C944.523 668.703 946.643 672.199 947.237 676.092C947.846 680.218 948.519 695.753 946.14 698.92C941.865 700.655 897.382 699.899 889.75 699.899L777.083 699.926L746.1 699.937C740.594 699.936 731.611 700.202 726.494 699.36C725.494 698.459 724.766 696.76 724.735 695.411C724.409 681.417 721.511 666.055 739.728 663.276C739.521 650.308 740.546 642.974 754.632 639.641C742.621 621.223 746.443 611.003 753.487 591.711C755.837 585.278 757.266 578 758.438 571.235C747.149 567.785 733.35 564.518 723.416 558.483C721.924 555.524 725.097 541.253 725.399 538.573C731.257 486.436 704.904 435.542 751.422 394.124C774.196 373.847 793.476 365.661 824.097 366.523C831.288 360.083 837.595 355.727 846.39 351.947Z" />
    <path fill="#2E88C9"
        d="M842.526 363.362L843.014 363.445C844.735 366.225 843.078 388.001 845.272 391.995C846.561 394.341 858.058 395.628 861.431 396.245C873.54 397.907 877.427 409.299 886.374 415.893C902.748 427.961 921.016 437.561 938.202 448.398C938.995 448.899 940.265 450.422 940.715 451.271C943.923 457.323 946.803 464.517 945.114 471.444C942.968 478.367 936.967 485.047 930.907 488.794C926.053 491.975 920.698 490.746 916.194 487.573C908.938 482.46 901.445 481.94 892.911 480.521C889.17 479.9 885.303 478.843 881.517 477.783C879.252 478.816 876.41 480.691 874.243 481.983C858.188 491.553 837.632 491.085 824.883 476.276C820.223 470.863 818.496 466.093 816.267 459.293C815.433 456.747 814.081 455.347 811.649 454.267C807.599 454.505 807.592 460.84 808.329 463.706C811.164 474.733 818.408 483.311 827.424 489.964C837.742 496.226 845.542 497.846 857.301 496.465C866.97 512.005 873.062 517.548 885.226 531.023C839.442 538.034 813.634 534.705 767.434 527.356C763.53 496.751 753.687 463.628 767.941 434.881C777.862 414.869 792.552 403.391 813.095 396.07C815.142 393.015 817.055 389.237 819.245 385.984C826.198 375.651 832.378 370.109 842.526 363.362Z" />
    <path
        d="M862.264 420.352C865.055 419.116 868.32 420.379 869.553 423.172C870.787 425.965 869.521 429.229 866.727 430.46C863.937 431.69 860.677 430.426 859.445 427.636C858.213 424.846 859.475 421.586 862.264 420.352Z" />
    <path
        d="M927.947 453.492C933.009 453.471 934.688 455.875 933.996 460.973C933.799 462.432 932.467 462.665 931.242 463.228C923.972 462.842 921.671 457.684 927.947 453.492Z" />
    <path fill="#2E88C9"
        d="M739.765 671.715C746.593 671.415 755.876 671.822 762.987 671.847L811.809 671.883L890.625 671.874C904.842 671.848 919.487 671.408 933.625 671.72C941.66 676.508 939.256 682.643 939.016 691.307L932.817 691.305L733.546 691.469C733.179 684.194 730.953 674.176 739.765 671.715Z" />
    <path fill="#2E88C9"
        d="M768.198 536.008C774.904 537.343 781.592 538.253 788.356 539.232C786.696 545.506 780.811 569.452 782.018 574.393C784.825 577.864 790.608 579.238 795.068 581.764L795.66 582.104C792.461 587.137 787.281 593.377 792.307 598.565C805.706 612.395 820.025 625.307 833.825 638.711L833.362 639.327C811.247 639.67 788.46 639.43 766.292 639.43C744.626 619.494 761.811 602.612 765.871 579.1C768.634 563.098 768.934 552.124 768.198 536.008Z" />
    <path fill="#2E88C9"
        d="M891.281 537.827C892.01 538.008 893.174 538.477 893.669 539.03C906.9 553.798 919.701 572.395 921.419 592.497C922.984 610.813 919.202 625.56 907.785 639.415C892.777 639.642 877.296 639.454 862.25 639.46L843.297 639.481C851.605 629.264 865.355 618.828 874.5 608.83C878.244 604.737 884.386 600.494 887.143 595.727C887.796 591.832 883.635 585.769 881.615 582.116C884.069 580.658 894.132 576.801 895.294 574.516C898.66 567.898 886.893 541.881 891.281 537.827Z" />
    <path fill="#CCEEF5"
        d="M754.602 648.097C760.072 647.576 769.863 647.931 775.815 647.953L813.832 648.016C847.684 648.02 884.94 647.13 918.376 648.073C921.149 649.727 921.877 650.445 923.877 652.958C924.434 656.971 924.42 659.241 924.396 663.336L919.061 663.42L748.521 663.418C748.452 655.657 747.229 651.939 754.602 648.097Z" />
    <path fill="#2E88C9"
        d="M796.409 539.649C796.813 539.814 798.317 540.546 798.432 540.827C807.634 563.338 819.968 602.762 829.376 623.499C826.939 621.203 824.395 618.58 821.998 616.206C814.231 608.807 806.529 601.34 798.893 593.806C801.279 588.371 803.964 584.929 805.816 579.056C801.863 574.494 795.402 573.118 789.675 570.564C792.168 560.53 793.955 549.898 796.409 539.649Z" />
    <path fill="#2E88C9"
        d="M880.241 539.278C882.631 540.756 886.781 566.114 887.817 570.415C869.34 576.927 869.433 577.025 878.365 593.753L856.169 615.153L848.267 623.341C854.754 608.008 860.069 591.085 866.571 575.833C869.949 567.91 875.981 545.182 880.241 539.278Z" />
    <path fill="#CCEEF5"
        d="M734.739 527.354C742.919 529.029 751.169 530.347 759.465 531.303C759.7 536.86 760.92 557.834 759.073 561.924L757.879 561.927C752.139 560.447 736.517 555.758 732.087 553.151C733.817 543.139 734.314 537.48 734.739 527.354Z" />
    <path fill="#CCEEF5"
        d="M733.084 486.746C738.925 487.5 747.807 489.306 753.497 490.678C754.959 501.482 756.553 512.268 758.279 523.033C750.498 521.728 742.708 520.479 734.909 519.286C734.668 507.728 734.103 498.326 733.084 486.746Z" />
    <path fill="#CCEEF5"
        d="M731.604 448.67C736.351 449.511 748.01 453.369 753.131 454.919C751.706 463.103 751.691 472.594 752.431 480.83L752.131 481.116C750.449 481.357 735.598 478.736 732.347 478.296C731.131 467.343 731.251 459.5 731.604 448.67Z" />
    <path fill="#CCEEF5"
        d="M807.52 541.156C830.922 543.689 846.722 544.128 870.586 541.307C866.137 547.401 860.46 553.665 855.378 559.309L854.999 559.717C851.649 560.403 844.274 546.99 838.668 545.106C835.734 546.123 826.785 556.986 823.43 560.304C820.53 557.259 808.623 544.364 807.52 541.156Z" />
    <path fill="#CCEEF5"
        d="M745.119 414.323C750.698 417.513 757.52 422.212 762.646 426.046C759.356 432.56 757.071 438.944 754.801 445.855C754.537 446.062 754.272 446.269 754.008 446.476L752.388 445.927C745.972 444.084 739.491 442.297 733.161 440.183C737.207 427.996 738.156 425.188 745.119 414.323Z" />
    <path fill="#CCEEF5"
        d="M773.144 387.968C774.388 388.514 781.326 400.705 782.614 402.875C775.956 408.539 772.74 412.237 767.436 418.954L763.891 416.604C759.692 413.399 755.007 410.552 750.671 407.339C758.426 398.714 763.447 394.296 773.144 387.968Z" />
    <path fill="#CCEEF5"
        d="M814.823 375.23L815.117 375.4C815.123 376.222 808.586 386.676 807.611 388.579C800.975 390.92 795.608 393.771 789.621 397.383L786.439 392.44C784.625 389.623 782.895 386.754 781.25 383.835C791.981 377.887 802.816 376.039 814.823 375.23Z" />
    <path fill="#CCEEF5"
        d="M861.34 564.407C861.627 566.279 850.754 594.087 849.358 598.428L847.928 592.337C846.75 585.839 845.713 579.317 844.818 572.774L849.916 565.974C854.731 573.02 857.175 569.31 861.34 564.407Z" />
    <path fill="#CCEEF5"
        d="M815.794 563.353C820.788 567.29 821.334 573.72 828.241 566.56L833.072 572.758L829.454 590.93C828.839 593.577 828.507 596.183 828.112 598.87C824.44 588.298 818.834 573.569 815.794 563.353Z" />
    <path
        d="M106.461 505.565C115.345 504.677 127.933 505.391 137.13 505.392L196.121 505.393L249.015 505.361C257.19 505.359 276.568 504.308 283.719 507.08C290.553 509.73 291.477 529.704 285.428 534.464C280.741 538.153 277.269 537.654 271.354 537.579L285.497 599.682C288.774 613.957 294.472 626.911 290.006 641.269C302.327 647.736 300.756 655.03 300.585 667.176C304.012 667.101 309.528 666.653 312.575 667.738C315.386 670.452 314.562 680.38 314.64 684.475C314.726 689.003 315.126 695.229 312.194 698.891C308.355 700.644 288.049 699.841 282.225 699.799L151.897 699.732C143.227 699.73 79.5173 700.483 75.3254 698.753C72.1926 694.566 72.9161 674.013 74.4146 668.48C75.0368 666.182 84.615 666.958 86.7672 667.025C86.6621 655.396 85.2383 647.542 97.1852 641.563C93.1274 628.454 98.4862 613.331 101.4 600.161C106.203 579.305 110.859 558.416 115.367 537.494C109.517 537.656 101.607 537.385 99.2993 531.166C95.8409 521.847 96.8961 510.109 106.461 505.565Z" />
    <path fill="#2E88C9"
        d="M124.314 537.474L141.773 537.531C140.204 548.745 136.114 561.273 135.521 572.31C140.1 575.531 145.403 577.343 150.622 579.428C147.746 584.461 145.839 587.641 144.21 593.19C148.085 599.254 181.527 629.877 189.22 636.748C189.976 637.423 192.212 638.882 193.394 638.63C194.835 638.324 198.238 636.249 199.132 635.324C206.221 627.986 238.236 599.553 242.298 592.888C240.886 588.045 238.51 584.172 236.119 579.75C241.734 576.599 246.334 576.178 251.135 571.57C249.875 559.699 246.591 549.344 244.829 537.587C250.764 537.51 256.819 537.566 262.765 537.559C263.787 543.113 264.973 548.636 266.322 554.121L277.736 603.821C279.73 612.418 282.692 623.194 283.44 631.927C283.659 634.478 281.518 638.342 280.251 640.633L106.6 640.549C105.141 637.904 103.586 634.21 103.921 631.197C104.966 621.807 107.778 611.792 109.813 602.461C114.461 580.758 119.295 559.095 124.314 537.474Z" />
    <path fill="#FFFFFE"
        d="M81.8809 675.552C156.534 674.86 231.191 674.902 305.843 675.678C305.849 680.83 305.799 685.983 305.691 691.135C277.606 691.795 247.59 691.268 219.41 691.241L81.9993 691.088L81.8809 675.552Z" />
    <path fill="#CCEEF5"
        d="M100.442 649.513C108.612 648.942 124.016 649.425 132.688 649.427L197.651 649.457L254.816 649.438C265.017 649.416 275.525 649.259 285.723 649.591C288.736 649.689 290.011 651.709 291.867 653.916C291.993 658.328 293.096 662.553 291.352 666.227C289.506 667.469 288.985 667.04 286.455 667.04L95.549 666.976C95.3086 659.686 93.6485 653.886 100.442 649.513Z" />
    <path fill="#FFFFFE"
        d="M110.433 513.709C164.746 514.508 219.258 513.545 273.582 513.773C278.881 513.796 281.037 514.672 280.608 520.412C280.328 524.158 281.611 527.938 277.125 528.999L156.173 528.985C140.542 529.002 124.493 529.514 108.965 528.572C105.488 528.361 106.064 517.612 106.898 515.428C108.254 514.074 108.594 514.116 110.433 513.709Z" />
    <path fill="#2E88C9"
        d="M150.736 537.098C151.076 537.209 152.917 537.845 152.991 538.034C156.059 545.819 158.723 553.978 161.46 561.868C168.474 581.981 175.98 601.918 183.971 621.663L176.062 613.387C169.102 606.722 159.808 598.339 153.45 591.41C155.263 587.762 160.262 580.67 159.718 576.925C159.168 573.138 147.53 569.898 144.002 567.596C146.588 557.634 148.625 547.197 150.736 537.098Z" />
    <path fill="#2E88C9"
        d="M233.597 537.308C234.188 537.367 235.676 537.461 235.821 537.858C237.9 543.556 241.442 562.92 242.446 567.767L234.792 571.129C221.964 576.759 227.462 581.778 233.024 591.562C226.327 597.389 218.787 605.123 212.338 611.407L203.158 620.687C213.382 593.25 224.885 565.277 233.597 537.308Z" />
    <path fill="#CCEEF5"
        d="M161.173 537.523L225.234 537.538C222.038 542.775 213.304 552.425 209.021 557.169C206.087 557.57 197.311 542.488 193.106 543.108C189.544 543.634 180.843 554.653 177.78 557.677C172.063 551.311 165.728 544.726 161.173 537.523Z" />
    <path fill="#CCEEF5"
        d="M169.931 561.34C175.415 565.864 176.25 570.862 182.37 563.43L187.397 569.963C186.434 576.452 185.348 582.922 184.139 589.37L182.77 596.391C178.559 584.907 173.751 572.881 169.931 561.34Z" />
    <path fill="#CCEEF5"
        d="M216.402 561.051L216.691 561.482C212.959 572.383 207.938 584.842 203.89 595.842L202.425 588.618C201.295 582.377 200.223 576.383 198.807 570.197L203.494 563.583C209.585 570.477 211.432 566.703 216.402 561.051Z" />
    <path
        d="M435.498 525.398C453.068 525.816 471.969 525.493 489.627 525.493L591.59 525.513C593.54 530.658 595.592 541.511 596.783 547.136L603.973 580.782L609.997 608.647C612.747 621.172 615.48 627.636 611.257 640.299C624.085 646.657 622.262 653.964 622.026 666.523C636.5 666.28 635.767 665.677 635.658 680.889C635.622 685.935 636.4 694.528 633.618 698.629C629.316 700.474 598.176 699.7 591.75 699.689L451.032 699.679L415.742 699.681C410.324 699.677 398.347 700.01 393.56 698.89C389.392 694.466 392.009 676.287 391.512 669.762C391.149 664.999 401.9 666.425 404.921 666.526C404.766 654.792 403.033 645.956 415.694 640.561C415.239 639.225 414.829 637.873 414.466 636.508C411.987 627.284 414.488 620.134 416.51 611.1C418.032 604.195 419.506 597.28 420.933 590.355C423.154 579.869 432.444 530.74 435.498 525.398Z" />
    <path fill="#2E88C9"
        d="M441.831 533.814L461.776 534.009C460.607 541.994 454.399 562.879 455.902 569.135C457.941 572.023 466.659 574.927 470.201 576.384C468.922 578.78 462.599 589.358 464.772 591.368C475.741 601.519 501.82 631.944 513.587 637.071C519.925 633.299 559.811 594.906 562.789 589.794C561.363 585.055 558.781 580.954 556.346 576.629C573.95 567.985 573.304 572.396 568.659 551.215C567.431 545.617 566.193 539.591 565.073 533.966L585.301 533.86C586.139 539.554 587.326 544.778 588.556 550.391L598.65 597.204C600.779 606.789 603.238 616.728 604.852 626.391C605.741 631.712 604.49 635.538 601.179 639.756C542.764 639.195 483.585 640.561 425.281 639.62C423.705 636.722 421.792 632.655 422.154 629.335C423.307 618.749 426.357 607.155 428.568 596.704L441.831 533.814Z" />
    <path fill="#2E88C9"
        d="M399.779 674.924C408.053 674.664 417.648 674.961 426.081 674.987L475.674 675.061L627.182 674.931L626.997 691.051L399.976 691.115C399.882 685.718 399.816 680.321 399.779 674.924Z" />
    <path fill="#CCEEF5"
        d="M594.708 648.25C599.832 648.171 603.827 648.188 608.992 648.492C615.535 652.81 613.65 659.356 613.457 666.531L432.118 666.561L413.537 666.485C413.397 660.612 411.706 649.065 419.906 648.582C426.703 648.183 433.53 648.315 440.341 648.34L474.175 648.397C514.197 648.402 554.74 648.7 594.708 648.25Z" />
    <path fill="#2E88C9"
        d="M554.204 533.573L555.925 534.117C557.715 536.673 561.809 559.822 563.059 564.882C544.583 572.496 543.757 570.783 553.338 588.923C545.874 596.085 538.46 603.299 531.097 610.565C527.704 613.729 525.616 615.834 522.58 619.331C533.615 590.39 543.668 562.684 554.204 533.573Z" />
    <path fill="#2E88C9"
        d="M470.333 533.593L472.013 534.009C472.659 534.453 472.873 534.613 473.131 535.387C482.483 563.41 493.137 590.885 503.294 618.617L496.242 611.31C488.502 603.848 480.46 596.443 472.938 588.793C483.345 570.955 482.216 572.456 463.853 565.069C466.093 554.594 468.253 544.102 470.333 533.593Z" />
    <path fill="#CCEEF5"
        d="M480.845 533.947L545.457 533.88C543.17 538.339 533.005 549.71 529.253 553.649C525.483 553.282 517.72 539.303 512.907 539.437C509.699 539.526 500.521 551.243 497.561 554.272C493.218 549.667 483.868 539.165 480.845 533.947Z" />
    <path fill="#CCEEF5"
        d="M489.531 557.329C494.525 560.661 495.289 568.192 502.334 559.91C504.065 562.073 505.769 564.569 507.392 566.836C506.303 573.361 505.178 579.879 504.018 586.391C503.825 588.218 503.014 591.349 502.587 593.249C498.385 581.66 493.236 568.904 489.531 557.329Z" />
    <path fill="#CCEEF5"
        d="M536.309 557.917C536.436 559.87 525.417 588.55 523.898 592.583L522.536 585.009C521.242 579.199 520.127 572.48 519.003 566.569L523.92 560.068C524.365 560.617 524.823 561.155 525.293 561.683C529.771 566.66 533.346 561.354 536.309 557.917Z" />
    <path
        d="M192.036 323.928C200.517 323.974 197.982 335.333 197.81 341.571C201.131 341.596 210.338 340.717 213.486 342.676C216.438 344.513 215.296 348.938 211.768 349.818C207.904 350.782 201.909 350.383 197.686 350.339C197.652 354.122 197.735 358.006 197.77 361.798C239.55 367.113 292.719 413.637 294.902 458.078C295.224 471.953 288.935 484.72 277.701 492.708C266.474 500.692 253.11 498.601 239.919 498.589L196.25 498.531L146.321 498.587C138.764 498.592 127.858 499.262 120.743 497.955C107.101 495.311 94.5998 480.883 93.0022 467.253C87.1131 417.012 144.844 369.382 189.084 361.645L189.235 350.123C185.924 350.155 175.247 351.032 173.686 348.993C166.282 339.317 186.342 341.525 189.17 341.57C189.128 335.39 187.227 328.294 192.036 323.928Z" />
    <path fill="#FFFFFE"
        d="M191.291 370.15C210.373 367.934 244.134 390.032 257.098 403.343C271.164 417.784 285.713 437.994 286.165 459.09C286.436 471.731 277.651 486 264.793 489.206C258.035 490.561 247.095 489.976 239.92 489.976L196.921 489.945L148.765 489.98C140.7 489.984 130.686 490.536 122.949 489.379C111.377 487.649 102.787 475.219 101.235 464.386C98.9268 448.264 107.772 430.56 116.905 418.069C133.687 395.118 162.971 374.619 191.291 370.15Z" />
    <path
        d="M192.573 399.854C198.525 400.431 198.05 404.438 198.007 409.476C197.984 412.288 197.888 415.154 197.856 417.971C202.137 419.19 204.686 419.941 208.372 422.823C213.283 426.64 216.404 432.313 216.999 438.505C217.724 444.943 215.854 451.405 211.803 456.461C207.255 462.035 201.643 464.327 194.694 465.095C189.845 465.11 185.874 464.361 181.593 461.929C175.955 458.689 171.904 453.265 170.398 446.939C168.905 440.764 169.934 434.249 173.257 428.834C177.018 422.765 182.21 419.772 188.982 418.221C189.171 411.45 186.898 404.195 192.573 399.854Z" />
    <path
        d="M511.634 343.376C514.447 343.292 515.651 343.28 517.354 345.725C527.738 360.636 536.792 376.683 547.247 391.536C552.007 388 564.714 376.7 569.326 375.364C570.492 375.026 571.633 374.987 572.683 375.699C575.222 377.418 580.883 399.681 582.324 404.394C590.161 399.458 598.136 394.55 606.06 389.755C608.526 388.262 611.286 387.112 614.139 387.912C614.761 388.462 615.318 388.951 615.614 389.761C616.758 392.894 598.187 464.884 596.039 472.086C595.383 474.285 594.626 476.326 593.445 478.306C589.244 479.865 525.076 478.983 515.75 478.97L459.893 478.971C451.59 478.963 442.303 479.257 434.093 478.512C431.95 478.317 427.975 461.182 427.27 458.435C423.729 444.279 420.285 430.1 416.937 415.898C415.065 408.21 412.486 400.442 411.178 392.658C411.002 391.61 410.845 390.536 411.295 389.524C411.736 388.531 412.667 387.836 413.693 387.603C418.852 386.435 439.223 401.148 444.399 404.713C446.682 398.709 450.85 380.785 453.064 377.152C453.571 376.32 454.416 375.448 455.397 375.277C459.322 374.592 475.77 388.627 479.822 391.512C488.512 378.438 496.619 364.904 505.335 351.835C507.385 348.761 508.963 345.987 511.634 343.376Z" />
    <path fill="#2E88C9"
        d="M513.271 355.761C515.105 357.638 520.52 366.373 522.268 369.083L545.672 405.42C549.302 411.065 552.65 417.169 556.682 422.521C557.757 423.947 559.075 425.57 560.788 426.226C563.903 427.419 598.424 403.868 604.284 401.086L604.919 400.788C602.483 410.766 600.151 420.578 597.234 430.434C590.118 430.411 584.707 432.328 580.836 438.752C578.315 443.03 577.594 448.133 578.83 452.942C580.397 459.004 583.874 461.647 588.857 464.597L587.158 470.553C562.864 470.249 538.082 470.49 513.75 470.509L439.807 470.419L438.045 465.078C439.907 463.873 442.209 462.252 443.715 460.646C447.099 457.042 448.88 452.222 448.654 447.283C448.272 436.883 440.362 429.895 429.988 430.93C427.422 423.427 424.136 408.695 422.02 400.44C435.989 407.286 450.964 421.282 465.79 426.173C468.311 427.005 482.064 403.808 483.664 401.326L513.271 355.761Z" />
    <path
        d="M509.417 417.793C520.436 415.52 531.195 422.666 533.372 433.705C535.549 444.743 528.309 455.439 517.252 457.519C506.331 459.574 495.795 452.442 493.645 441.54C491.495 430.637 498.534 420.039 509.417 417.793Z" />
    <path fill="#CCEEF5"
        d="M512.243 426.134C518.573 425.467 524.251 430.045 524.941 436.372C525.632 442.7 521.076 448.395 514.751 449.109C508.392 449.827 502.661 445.241 501.967 438.88C501.272 432.519 505.879 426.805 512.243 426.134Z" />
    <path fill="#CCEEF5"
        d="M567.592 386.983C568.98 388.652 573.57 405.609 574.575 409.109C572.258 410.566 565.296 415.414 563.053 415.744L562.032 414.679C558.525 409.6 555.228 404.289 551.913 399.077C555.878 395.504 563.174 390.281 567.592 386.983Z" />
    <path fill="#CCEEF5"
        d="M459.235 386.845C464.538 390.753 469.788 394.733 474.983 398.783C472 403.626 468.984 408.449 465.934 413.25C465.303 414.209 465.055 414.469 464.309 415.346C461.707 415.745 455.39 411.012 452.601 409.329C454.921 402.144 457.027 394.18 459.235 386.845Z" />
    <path fill="#CCEEF5"
        d="M431.426 439.257C439.861 439.9 441.409 446.867 438.618 453.825C437.215 455.068 437.551 455.14 435.966 455.474C434.718 452.827 432.168 442.34 431.426 439.257Z" />
    <path fill="#CCEEF5"
        d="M594.994 439.029C595.232 441.389 592.273 453.609 590.429 455.24L589.015 454.684C584.65 448.052 587.232 441.097 594.994 439.029Z" />
    <path
        d="M424.978 486.083C430.476 485.613 440.656 485.893 446.447 485.892L486.363 485.914L559.974 485.907C571.865 485.887 583.989 485.974 595.994 485.963C612.711 485.948 611.26 497.049 609.959 510.032C609.6 513.615 604.702 516.778 601.646 518.023C597.16 518.74 586.703 518.454 581.589 518.452L545.318 518.459L471.648 518.461C456.704 518.458 438.246 519.357 423.333 517.181C421.589 516.926 418.349 513.465 417.705 511.664C415.783 506.289 415.937 498.28 417.531 492.789C418.606 489.326 421.905 487.379 424.978 486.083Z" />
    <path fill="#2E88C9"
        d="M426.534 494.53C437.363 494.107 450.308 494.421 461.261 494.414L527.453 494.415L573.178 494.372C581.131 494.361 592.158 494.035 599.926 494.666C603.592 497.14 602.51 506.314 600.169 509.68C594.487 510.174 584.782 509.877 578.868 509.872L540.431 509.872C504.665 509.912 468.848 510.095 433.081 509.872C432.073 509.769 427.34 509.822 426.622 509.197C423.596 506.561 424.815 497.195 426.534 494.53Z" />
</svg>