<?xml version="1.0" encoding="utf-8" ?><svg xmlns="http://www.w3.org/2000/svg" xmlns:xlink="http://www.w3.org/1999/xlink" width="1024" height="1024" viewBox="0 0 1024 1024"><path d="M517.76 100.709C538.446 99.6321 565.276 104.673 584.627 111.854C633.948 130.154 672.198 163.35 694.26 211.376C714.922 256.352 716.998 301.722 718.938 350.429C719.993 377.019 720.861 403.616 721.542 430.218C722.6 467.795 725.6 505.292 730.532 542.559C733.009 560.578 736.566 578.681 740.541 596.432C755.716 664.195 779.657 732.839 754.264 801.129C765.217 802.039 777.044 799.426 786.929 806.65C792.223 810.519 795.309 815.863 796.218 822.335C797.184 828.834 795.516 835.45 791.583 840.714C786.337 847.615 780.413 849.253 772.489 850.369C772.486 857.196 773.257 869.367 772.622 875.577C781.977 875.915 788.758 876.071 796.538 882.741C810.48 894.696 803.993 923.073 784.98 924.621C772.528 925.635 758.153 925.013 745.252 925.119C714.419 925.608 683.581 925.736 652.745 925.504L379.75 925.503L290.589 925.482C280.864 925.48 271.117 925.558 261.395 925.485C251.37 925.409 239.611 926.235 231.687 919.029C226.885 914.642 224.064 908.498 223.867 901.997C223.11 882.531 237.972 875.614 254.699 875.285C255.27 869.337 254.911 857.137 254.91 850.729C248.724 849.541 245.604 849.017 240.32 845.192C227.535 835.936 227.909 817.35 239.327 807.178C245.242 801.909 254.586 802.499 261.48 798.811C276.756 790.638 290.631 779.804 303.059 767.768C310.621 760.404 318.532 752.55 325.304 744.457C320.411 737.374 317.355 727.861 324.033 720.78C330.048 714.402 339.555 714.744 347.65 714.722C352.554 707.996 359.603 694.314 363.62 686.651C388.022 639.358 403.954 588.156 410.692 535.367C411.743 527.208 412.136 519.969 412.843 511.863C401.67 511.892 382.238 514.751 373.088 506.82C367.215 501.73 368.114 488.501 374.225 483.587C379.347 479.468 382.884 479.524 389.111 479.799C388.025 470.311 388.433 457.722 388.534 447.938C382.592 447.439 377.714 447.013 373.263 442.509C366.957 436.127 367.493 424.846 374.414 419.157C379.936 414.617 386.931 414.827 393.583 415.429C361.528 385.033 351.689 365.902 340.609 323.558C333.437 323.24 331.542 319.487 338.414 315.467C337.736 310.633 337.318 305.257 336.837 300.362C320.507 279.038 319.291 257.769 341.438 239.985C346.279 215.514 362.793 184.683 379.391 166.388C417.672 124.194 461.585 104.093 517.76 100.709Z"/><path fill="#7C2B2C" d="M513.72 108.201C538.215 105.051 571.09 113.869 593.551 123.603C638.665 142.796 673.528 178.342 691.265 224.141C712.517 279.015 710.578 339.095 713.035 397.084C714.941 444.204 718.752 491.229 724.458 538.041C732.751 602.68 755.878 661.952 760.24 727.017C761.904 751.839 759.675 774.281 749.682 797.344C725.402 784.014 701.49 764.813 684.903 742.491C692.591 723.863 684.723 715.619 665.568 714.728C660.33 705.961 653.893 696.213 653.411 685.824C652.829 673.286 651.053 661.247 649.004 648.887C642.604 614.24 631.519 582.901 623.522 549.1C620.736 536.892 618.509 524.562 616.846 512.151C630.229 512.236 658.013 516.822 657.518 496.276C657.121 479.791 645.775 478.842 633.05 479.343C632.859 469.163 633.253 458.107 633.318 447.815C640.699 447.876 647.538 448.236 653.412 442.944C660.024 436.904 658.974 425.357 652.679 419.457C645.759 412.971 633.649 415.501 624.978 415.302C622.372 415.243 619.523 415.367 616.89 415.379C618.996 408.462 622.741 400.811 625.345 393.811C643.848 344.067 656.94 270.51 623.485 224.432C596.151 186.784 526.301 181.139 488.807 205.767C483.608 209.158 478.371 214.438 473.26 218.357C455.099 216.95 428.734 217.491 410.428 217.564C398.285 198.186 394.013 192.212 369.994 192.496C374.625 185.211 379.766 178.263 385.379 171.705C418.005 133.613 463.998 111.988 513.72 108.201Z"/><path fill="#FEFEFE" d="M536.041 196.794C552.596 195.083 572.251 198.187 587.581 204.438C654.943 231.904 642.35 322.971 624.94 378.691C621.093 391.005 615.438 403.72 610.54 415.496L405.942 415.541C380.85 396.987 363.559 371.479 353.504 342.119C351.746 336.54 350.501 331.833 349.095 326.162C371.068 330.443 393.396 334.75 415.676 336.745C425.88 337.276 437.18 339.474 446.623 334.528C454.155 330.583 461.7 325.914 464.558 317.568C455.398 280.176 417.847 291.119 391.121 298.6C392.446 296.917 393.702 295.181 394.888 293.398C400.687 284.744 403.275 273.932 401.167 263.653C398.991 253.512 392.933 244.625 384.29 238.892C372.769 231.322 363.331 232.314 350.587 234.875C353.633 224.098 359.509 209.454 365.105 199.887C388.289 193.284 396.835 204.404 406.484 222.864C413.133 223.16 422.111 222.908 428.963 222.93C444.44 222.859 459.917 223.185 475.377 223.908C495.58 205.512 508.682 199.613 536.041 196.794Z"/><path d="M541.614 225.747C567.525 222.019 591.56 239.98 595.326 265.886C599.092 291.792 581.166 315.853 555.266 319.657C529.312 323.468 505.19 305.497 501.416 279.538C497.642 253.578 515.649 229.483 541.614 225.747Z"/><path d="M511.867 251.48C521.342 235.168 540.481 227.111 558.77 231.733C577.059 236.356 590.071 252.539 590.658 271.394C591.245 290.25 579.266 307.211 561.3 312.963C543.334 318.715 523.731 311.864 513.259 296.174C504.307 282.761 503.767 265.424 511.867 251.48Z"/><path fill="#FEFEFE" d="M511.867 251.48C521.342 235.168 540.481 227.111 558.77 231.733C577.059 236.356 590.071 252.539 590.658 271.394C591.245 290.25 579.266 307.211 561.3 312.963C543.334 318.715 523.731 311.864 513.259 296.174L514.251 295.342C524.241 309.393 542.285 315.199 558.595 309.61C574.905 304.02 585.595 288.368 584.867 271.142C584.138 253.916 572.165 239.221 555.441 235.029C538.718 230.836 521.228 238.144 512.46 252.989L511.867 251.48Z"/><path fill="#C3C4C8" d="M511.867 251.48L512.46 252.989C504.644 266.222 505.345 282.816 514.251 295.342L513.259 296.174C504.307 282.761 503.767 265.424 511.867 251.48Z"/><path fill="#FEFEFE" d="M525.142 245.765C530.494 243.827 536.406 246.58 538.366 251.925C540.326 257.269 537.597 263.192 532.26 265.174C526.893 267.167 520.929 264.418 518.958 259.043C516.986 253.668 519.759 247.715 525.142 245.765Z"/><path fill="#162837" d="M421.593 512.235C438.441 511.673 459.031 512.307 476.233 512.297L592.384 512.227C596.625 574.877 614.127 635.911 643.733 691.288C647.655 698.69 651.951 707.47 656.376 714.445L593.75 714.473L357.057 714.47C363.564 704.521 368.423 694.24 373.79 683.68C402.375 627.436 414.3 574.946 420.759 512.816L421.593 512.235Z"/><path fill="#7C2B2C" d="M345.846 719.733C368.231 719.325 391.807 719.73 414.269 719.782L526.475 719.862L615.58 719.861C631.928 719.859 648.359 719.774 664.705 720.039C668.156 720.095 673.605 720.71 676.914 721.794C678.705 722.381 681.035 724.83 681.675 726.743C683.439 732.017 680.377 737.767 678.245 742.431C691.298 762.548 712.358 779.508 731.953 792.897C735.493 795.315 739.606 797.741 742.944 800.353L743.721 800.967C717.977 801.411 692.228 801.542 666.481 801.358L397.739 801.439C354.988 801.44 310.888 800.834 268.25 801.45C292.655 786.254 314.217 766.91 331.965 744.292C328.168 738.537 326.807 737.215 325.168 730.664C328.452 719.279 335.739 720.006 345.846 719.733Z"/><path fill="#7C2B2C" d="M250.926 881.194C255.853 880.61 266.565 880.924 271.987 880.94L310.263 880.959L439.307 880.938L661.178 880.863L733.704 880.879C747.255 880.887 760.974 880.788 774.515 881.097C779.975 881.221 786.284 882.027 790.778 885.305C795.145 888.552 797.98 893.457 798.613 898.862C800.26 912.639 789.881 919.186 777.622 920.325C765.337 920.657 752.17 920.405 739.834 920.384L673.827 920.329L470.404 920.372L325.77 920.339L278.702 920.367C267.287 920.373 254.815 920.972 243.689 919.31C229.726 917.224 224.846 898.851 233.629 888.697C238.572 882.982 243.954 881.929 250.926 881.194Z"/><path fill="#7C2B2C" d="M258.65 806.687C266.009 806.238 276.923 806.545 284.642 806.526L337.355 806.507L493.637 806.514L671.345 806.508L732.44 806.525C744.91 806.552 757.494 806.597 769.962 806.972C774.821 807.118 778.614 807.828 782.736 810.604C787.07 813.468 790.023 817.999 790.892 823.12C793.2 837.036 782.543 843.614 770.538 845.485L424.458 845.507L313.241 845.509L277.651 845.509C267.452 845.51 252.507 847.172 243.957 841.28C235.264 835.289 233.647 823.058 240.218 814.851C244.966 808.921 251.493 807.36 258.65 806.687Z"/><path fill="#7C2B2C" d="M260.198 851.072L767.423 851.06C767.119 858.849 767.339 867.545 767.397 875.365C732.998 875.733 698.029 875.361 663.584 875.354L465.297 875.363L331.854 875.385C308.613 875.392 283.074 875.921 260.007 875.267C260.011 867.202 260.075 859.137 260.198 851.072Z"/><path fill="#7C2B2C" d="M394.173 447.698L627.667 447.793C628.082 458.198 627.753 469.071 627.502 479.502L393.804 479.467C393.369 470.779 393.873 456.611 394.173 447.698Z"/><path fill="#7C2B2C" d="M383.806 485.194C430.762 484.208 480.559 485.035 527.654 485.049L604.241 485.075C614.223 485.072 636.166 484.216 646.666 485.86C650.468 486.455 653.58 498.978 649.629 502.34C646.783 504.76 647.81 505.038 643.07 506.506C627.955 507.025 611.099 506.668 595.873 506.637L520.132 506.628L432.752 506.566C418.132 506.552 403.496 506.652 388.879 506.527C379.304 506.444 377.216 505.088 374.223 496.245C375.917 490.087 377.044 486.491 383.806 485.194Z"/><path fill="#7C2B2C" d="M385.422 421.153C397.565 420.53 412.112 420.936 424.503 420.953L491.701 420.993L589.918 421.046C606.035 421.048 622.193 420.939 638.308 421.007C640.684 421.136 644.665 421.167 646.776 422.235C651.371 424.561 653.108 432.794 650.562 437.047C648.456 440.564 644.32 441.613 640.646 442.467C619.485 442.92 596.627 442.486 575.313 442.468L457.401 442.443L408.396 442.44C401.544 442.443 386.246 442.882 380.357 441.571C376.409 437.977 375.704 436.07 374.316 431.166C376.141 423.921 378.188 422.239 385.422 421.153Z"/><path fill="#162837" d="M600.578 512.283C604.105 512.097 607.867 512.131 611.418 512.105C611.885 530.626 621.5 563.935 626.664 582.306C633.455 606.463 640.576 631.243 644.808 656.019C645.924 662.551 647.947 676.425 647.442 682.564C618.316 623.326 607.632 577.667 600.578 512.283Z"/><path fill="#F2CA38" d="M426.326 296.189C445.125 294.876 452.262 300.706 458.957 317.491C432.055 317.404 404.237 318.557 377.25 319.206C366.119 319.503 354.644 319.423 343.487 319.477C361.925 311.667 406.516 298.516 426.326 296.189Z"/><path fill="#BE9F41" d="M433.145 322.728L454.155 322.445C438.472 337.33 419.505 332.807 399.878 329.336C391.094 327.815 382.236 326.57 373.508 324.771C388.325 322.899 417.071 323.18 433.145 322.728Z"/><path fill="#FEFEFE" d="M347.567 246.29C352.642 244.674 358.061 247.499 359.643 252.584C361.226 257.669 358.365 263.069 353.269 264.617C348.222 266.151 342.883 263.323 341.316 258.286C339.749 253.249 342.541 247.891 347.567 246.29Z"/><path fill="#FEFEFE" d="M356.558 238.603L362.672 238.282C358.579 239.517 352.718 241.006 348.968 243.138C333.111 252.221 328.368 272.675 337.163 288.389C343.18 299.139 350.518 301.9 361.74 305.114L361.755 305.742C360.067 306.27 357.043 305.394 355.229 304.981C342.966 302.195 334.245 292.074 331.006 280.287C328.602 271.578 329.839 262.266 334.433 254.487C339.981 244.959 346.29 241.24 356.558 238.603Z"/><path fill="#FEFEFE" d="M345.373 306.322C347.329 307.11 350.776 308.218 351.939 309.768L351.518 310.58C349.457 311.338 348.028 312.062 346.117 311.566C345.165 310.237 345.394 308.076 345.373 306.322Z"/></svg>