<?xml version="1.0" encoding="utf-8" ?><svg xmlns="http://www.w3.org/2000/svg" xmlns:xlink="http://www.w3.org/1999/xlink" width="1024" height="1024" viewBox="0 0 1024 1024"><path d="M512.723 100.703C539.579 98.5063 570.135 105.279 594.669 115.768C642.532 136.231 678.404 171.121 697.976 219.609C706.387 240.305 711.921 262.056 714.421 284.256C718.443 317.095 718.983 349.703 720.182 382.719C722.169 447.137 723.582 509.978 735.805 573.482C749.29 643.54 783.556 732.038 754.266 801.105C765.593 802.008 776.906 799.279 786.854 806.566C792.006 810.364 795.416 816.072 796.319 822.408C797.337 828.872 795.731 835.474 791.858 840.747C786.661 847.731 780.709 849.549 772.707 850.683C772.651 858.862 772.844 867.288 772.932 875.486C781.535 875.38 789.505 876.133 796.194 882.281C811.14 896.016 804.359 924.045 782.851 925.14C768.072 925.891 753.274 925.567 738.521 925.564L655.515 925.561L386.25 925.584L289.965 925.599L262.058 925.611C251.482 925.607 239.889 927.056 231.515 919.452C226.676 915.018 223.811 908.832 223.559 902.273C223.202 894.66 225.997 888.553 231.115 883.1C237.691 876.095 245.601 875.497 254.473 875.402C254.366 867.191 254.384 858.978 254.526 850.767C231.161 848.539 222.514 823.5 239.244 807.159C245.711 801.311 255.313 802.116 262.646 798.09C287.496 784.446 306.492 765.691 325.101 744.546C324.4 743.55 323.724 742.538 323.072 741.509C320.471 737.336 319.37 731.69 320.71 726.99C325.324 710.805 344.451 716.13 347.945 714.029C351.526 709.574 358.717 695.599 361.761 689.984C384.94 647.231 399.851 600.734 407.915 552.859C409.829 541.496 412.502 523.671 412.575 512.059C402.754 511.954 380.385 514.385 373.053 507.501C366.778 501.611 367.939 486.581 375.959 482.078C381.17 479.151 382.951 479.407 388.774 479.617C388.172 471.317 388.57 457.157 388.437 448.076C382.82 447.755 377.961 447.692 373.651 443.544C367.091 437.231 367.342 425.6 373.893 419.412C379.138 414.457 386.819 415.337 393.438 415.402C361.928 386.61 351.335 364.7 340.443 324.241C337.31 323.432 333.57 323.357 334.03 319.206C335.264 317.167 336.191 316.853 338.298 315.544C337.626 310.256 336.99 304.964 336.39 299.668C319.231 279.294 320.627 256.94 341.237 239.714C348.399 212.447 360.049 188.675 378.608 167.237C412.53 127.905 460.883 103.918 512.723 100.703Z"/><path fill="#162735" d="M519.142 107.728C539.767 106.638 567.628 112.879 586.812 120.589C633.828 139.488 670.24 172.959 689.818 220.032C713.001 275.772 710.417 338.539 712.919 397.667C714.391 430.46 716.721 463.209 719.905 495.881C722.603 524.058 725.621 552.172 731.626 579.875C742.13 628.341 756.798 676.365 760.329 726.064C762.21 752.542 760.085 772.964 750.039 797.736C724.765 784.107 702.64 765.314 685.101 742.579C693.354 724.685 683.952 715.281 665.709 714.438C652.109 693.214 654.825 695.284 651.994 670.185C650.902 661.221 649.599 652.284 648.085 643.381C643.902 621.644 636.536 597.762 630.636 576.173C624.359 553.201 620.163 535.53 616.843 512.038C626.162 512.04 646.014 514.71 652.979 508.226C662.023 499.805 657.022 479.72 643.181 479.406C639.867 479.331 636.433 479.44 633.059 479.513C633.296 468.884 633.3 458.251 633.073 447.622L633.889 447.673C640.767 448.065 647.853 448.35 653.242 443.465C659.777 437.339 658.705 425.349 652.666 419.332C647.387 414.072 637.277 415.527 630.377 415.369C625.933 415.267 621.019 415.448 616.481 415.495C617.313 413.024 618.409 410.558 619.431 408.156C630.783 381.49 639.64 353.051 642.507 324.088C645.874 290.067 644.351 250.551 622.095 222.749C606.706 203.526 582.365 193.941 558.375 191.73C535.548 189.539 510.669 192.622 490.678 204.686C484.496 208.416 478.764 213.88 473.184 218.495C451.344 217.32 432.303 217.347 410.445 217.492C398.963 198.28 392.248 191.933 369.585 192.648C403.042 140.273 457.765 111.179 519.142 107.728Z"/><path fill="#FEFEFE" d="M543.055 196.208C557.18 195.963 575.31 199.146 588.323 204.604C654.506 232.362 642.593 323.238 625.064 378.509C621.082 391.063 615.389 403.569 610.459 415.564L405.947 415.549C380.054 396.195 361.16 368.945 352.117 337.91C350.85 333.916 349.982 330.258 349.008 326.199C377.412 331.413 408.685 338.176 437.474 337.574C444.367 337.43 467.008 324.572 464.02 315.666C452.061 280.009 417.883 291.203 390.868 298.623C392.603 296.554 394.166 294.684 395.631 292.407C401.256 283.828 403.188 273.345 400.991 263.325C398.658 253.094 392.389 244.194 383.542 238.551C372.325 231.46 362.825 232.031 350.493 234.863C353.381 225.427 359.747 208.221 365.019 199.96C387.562 193.225 397.363 204.407 406.649 222.855C430.039 222.905 452.002 222.819 475.391 223.853C497.156 203.41 513.584 198.171 543.055 196.208Z"/><path d="M541.811 225.749C567.82 222.124 591.833 240.296 595.411 266.311C598.989 292.326 580.773 316.306 554.751 319.837C528.797 323.358 504.892 305.199 501.324 279.251C497.755 253.303 515.87 229.365 541.811 225.749Z"/><path d="M506.253 268.306C508.397 248.061 524.646 232.209 544.938 230.566C565.229 228.924 583.817 241.956 589.19 261.592C594.562 281.228 585.199 301.907 566.897 310.824C548.596 319.741 526.54 314.369 514.388 298.036C508.037 289.5 505.133 278.886 506.253 268.306Z"/><path fill="#FEFEFE" d="M506.253 268.306C508.397 248.061 524.646 232.209 544.938 230.566C565.229 228.924 583.817 241.956 589.19 261.592C594.562 281.228 585.199 301.907 566.897 310.824C548.596 319.741 526.54 314.369 514.388 298.036L515.208 296.786C526.627 311.432 546.797 315.981 563.397 307.654C579.997 299.327 588.411 280.44 583.499 262.53C578.587 244.621 561.715 232.668 543.19 233.974C524.665 235.281 509.638 249.482 507.288 267.904L506.253 268.306Z"/><path fill="#C4C5C8" d="M506.253 268.306L507.288 267.904C505.974 278.202 508.825 288.599 515.208 296.786L514.388 298.036C508.037 289.5 505.133 278.886 506.253 268.306Z"/><path fill="#FEFEFE" d="M527.07 245.259C532.66 244.405 537.913 248.162 538.909 253.729C539.906 259.296 536.284 264.642 530.744 265.78C527.033 266.543 523.2 265.232 520.733 262.358C518.266 259.483 517.552 255.496 518.868 251.943C520.185 248.391 523.325 245.832 527.07 245.259Z"/><path fill="#FEFEFE" d="M420.573 512.008L592.436 512.018C594.461 530.462 596.048 545.5 599.335 563.884C609.404 620.184 628.127 665.675 656.697 714.663L593.503 714.573L356.781 714.62C384.892 667.997 404.288 616.65 414.025 563.086C417.036 547.336 419.953 527.982 420.573 512.008Z"/><path fill="#FEFEFE" d="M339.799 719.741C360.133 719.425 381.433 719.757 401.821 719.777L523.766 719.872L615.607 719.887C632.338 719.891 649.07 719.791 665.811 720.044C671.859 720.135 680.447 720.751 682.16 728.035C683.381 733.225 680.856 737.803 678.278 742.098C693.392 765.616 721.321 786.79 744.939 801.243L671.75 801.423L267.974 801.405C294.203 784.389 312.635 769.115 331.915 744.087C321.737 732.567 322.974 721.156 339.799 719.741Z"/><path fill="#162735" d="M249.645 881.174C253.18 880.696 263.867 880.925 268.013 880.927L303.183 880.961L423.089 880.963L655.435 880.948L732.605 880.946C747.087 880.947 761.541 881.004 776.022 881.11C787.095 881.19 796.864 886.673 798.695 898.463C799.489 903.531 798.1 908.698 794.872 912.684C790.49 918.167 785.664 919.538 779.19 920.404L438.484 920.421L315.654 920.43C297.463 920.431 279.267 920.469 261.077 920.392C253.459 920.36 243.105 920.742 236.514 916.435C227.657 910.647 227.066 897.252 233.1 889.232C237.336 883.602 243.067 882.04 249.645 881.174Z"/><path fill="#162735" d="M255.944 806.665C288.919 805.873 324.843 806.493 357.986 806.492L549.404 806.498L689.33 806.49C715.723 806.489 742.355 806.232 768.755 806.962C773.827 807.102 777.876 807.501 782.315 810.165C794.134 817.26 794.548 836.093 781.618 842.267C777.805 844.12 775.723 844.644 771.613 845.447C761.818 845.859 750.021 845.566 740.101 845.563L683.124 845.545L507.813 845.492L342.444 845.539L287.063 845.562C277.024 845.559 266.866 845.636 256.838 845.396C252.083 845.282 248.161 844.666 244.212 841.821C239.899 838.731 236.981 834.062 236.094 828.831C234.081 816.34 244.658 808.316 255.944 806.665Z"/><path fill="#FEFEFE" d="M259.87 850.898L767.492 850.921L767.5 875.4L260.014 875.475L259.87 850.898Z"/><path fill="#FEFEFE" d="M394.212 447.729L627.903 447.909C627.85 451.989 628.25 477.955 627.363 479.499L393.567 479.538C393.547 475.458 392.898 449.374 394.212 447.729Z"/><path fill="#162735" d="M632.488 484.722C637.037 484.565 641.711 484.885 646.268 485.11C647.12 485.898 647.924 486.737 648.675 487.622C654.277 494.283 652.467 501.457 645.86 506.429C623.855 507.396 597.045 506.702 574.629 506.682L459.806 506.578C438.599 506.56 416.536 506.243 395.386 506.657C388.996 507.149 383.483 507.172 377.732 504.153C372.526 496.89 374.292 491.823 379.985 485.698C386.041 484.585 398.584 484.929 405.23 484.933L446.894 484.979L563.158 485.033C585.176 485.058 610.655 485.672 632.488 484.722Z"/><path fill="#162735" d="M388.039 420.676C394.397 420.154 404.552 420.933 411.348 420.943L467.836 420.958L594.041 421.181C606.217 421.204 618.413 420.644 630.611 420.889C634.04 420.957 644.453 420.722 647.231 422.071C649.641 423.737 651.328 427.038 651.725 429.703C653.212 439.688 646.707 441.88 638.124 442.765C633.361 443.269 621.624 442.503 616.067 442.497L559.341 442.482C502.983 442.479 446.579 442.519 390.221 442.459C387.451 442.2 381.976 442.854 379.797 441.291C375.725 438.369 372.819 430.175 375.964 425.74C378.735 421.833 383.633 421.318 388.039 420.676Z"/><path fill="#FEFEFE" d="M600.49 512.157C604.096 512.098 607.827 512.145 611.445 512.141C615.479 553.756 633.226 598.134 641.757 639.388C644.747 653.843 647.803 668.341 647.849 683.205C619.351 629.769 606.482 571.906 600.49 512.157Z"/><path fill="#F2CA2C" d="M424.864 296.189C444.185 294.827 451.615 299.539 459.167 317.437C433.086 317.542 404.85 318.732 378.537 319.236C366.828 319.395 355.118 319.453 343.409 319.409C356.799 312.954 409.883 297.941 424.864 296.189Z"/><path fill="#C19F31" d="M437.908 322.73L454.468 322.492C452.284 324.494 449.971 326.35 447.545 328.05C435.077 336.81 408.73 330.815 393.881 328.303C386.395 327.173 378.919 325.969 371.457 324.691C391.434 323.149 417.45 323.323 437.908 322.73Z"/><path fill="#FEFEFE" d="M348.001 246.254C353.185 244.899 358.48 248.026 359.796 253.22C361.112 258.414 357.946 263.685 352.743 264.964C347.594 266.229 342.388 263.102 341.085 257.962C339.783 252.822 342.871 247.594 348.001 246.254Z"/><path fill="#FEFEFE" d="M360.067 238.19C361.395 238.14 360.948 237.898 361.774 238.488C353.428 241.509 349.629 241.207 342.469 248.019C324.955 264.685 331.589 295.094 354.289 303.066C356.377 303.799 361.68 304.593 363.101 305.866C346.377 306.966 332.037 291.786 329.931 275.818C328.792 266.659 331.395 257.428 337.15 250.213C343.216 242.504 350.555 239.279 360.067 238.19Z"/><path fill="#FEFEFE" d="M344.891 306.356C346.847 307.06 350.904 308.274 352.112 309.744L351.35 310.546L345.635 312.466L344.891 306.356Z"/></svg>