<?xml version="1.0" encoding="utf-8"?>
<svg xmlns="http://www.w3.org/2000/svg" xmlns:xlink="http://www.w3.org/1999/xlink" width="796"
    height="796" viewBox="0 0 796 796">
    <path fill="#EDEED2"
        d="M0 0L97.0495 0L196.999 0L297.001 0L396.946 0L497.052 0L596.985 0L697.003 0L796 0L796 96.9856L796 197.028L796 296.971L796 397L796 497.01L796 597.006L796 696.962L796 796L696.954 796L597.03 796L497.006 796L397.071 796L296.966 796L197.054 796L96.9835 796L0 796L0 696.992L0 596.996L0 497.047L0 396.973L0 296.993L0 197.015L0 97.045L0 0Z" />
    <path fill="#EDEED2"
        d="M396.979 596.999L497.015 597.006L596.998 596.999C596.987 630.01 596.56 664.054 596.997 696.986L597.03 796L497.006 796L397.071 796L296.966 796L296.978 696.974C297.385 663.985 297.01 630.054 296.98 597.004L396.979 596.999Z" />
    <path fill="#14813D"
        d="M497.015 597.006L596.998 596.999C596.987 630.01 596.56 664.054 596.997 696.986C585.978 696.727 574.069 696.957 562.939 696.957L497.045 696.96L497.015 597.006Z" />
    <path fill="#14813D"
        d="M396.979 596.999L396.928 696.966L296.978 696.974C297.385 663.985 297.01 630.054 296.98 597.004L396.979 596.999Z" />
    <path fill="#14813D"
        d="M397.042 697.007L497.002 696.975L497.006 796L397.071 796C396.83 763.492 396.638 729.47 397.042 697.007Z" />
    <path fill="#EDEED2"
        d="M497.052 0L596.985 0L697.003 0L796 0L796 96.9856L796 197.028L696.974 197.025C664.417 196.42 629.7 197 597 197.02L497.015 197.027C496.733 185.754 496.994 173.331 496.995 161.983L497.03 97.014L497.052 0Z" />
    <path fill="#14813D"
        d="M597.022 97.0583L696.949 97.028L696.947 163.403C696.947 174.057 696.608 186.633 696.974 197.025C664.417 196.42 629.7 197 597 197.02L597.022 97.0583Z" />
    <path fill="#14813D" d="M497.052 0L596.985 0L596.972 97.005L497.03 97.014L497.052 0Z" />
    <path fill="#14813D" d="M697.003 0L796 0L796 96.9856L696.989 97.0129L697.003 0Z" />
    <path fill="#EDEED2"
        d="M596.998 596.999L696.974 597.004L796 597.006L796 696.962L796 796L696.954 796L597.03 796L596.997 696.986C596.56 664.054 596.987 630.01 596.998 596.999Z" />
    <path fill="#14813D"
        d="M696.974 597.004L796 597.006L796 696.962L796 796L696.954 796L696.969 696.974C697.203 685.666 696.994 673.598 696.996 662.242L696.974 597.004Z" />
    <path fill="#EDEED2" d="M696.969 696.974L796 696.962L796 796L696.954 796L696.969 696.974Z" />
    <path fill="#14813D"
        d="M696.969 696.974L696.954 796L597.03 796L596.997 696.986L696.969 696.974Z" />
    <path fill="#14813D"
        d="M696.969 497.034C729.779 496.958 763.231 496.684 796 497.01L796 597.006L696.974 597.004L596.998 596.999L596.998 497.036L696.969 497.034Z" />
    <path fill="#EDEED2"
        d="M696.969 497.034C729.779 496.958 763.231 496.684 796 497.01L796 597.006L696.974 597.004C696.676 586.122 696.949 573.906 696.949 562.937L696.969 497.034Z" />
    <path fill="#EDEED2"
        d="M597 197.02C629.7 197 664.417 196.42 696.974 197.025L796 197.028L796 296.971L696.967 296.981L596.998 296.989C596.515 264.169 596.985 229.924 597 197.02Z" />
    <path fill="#14813D"
        d="M696.974 197.025L796 197.028L796 296.971L696.967 296.981C697.221 285.941 696.994 273.985 696.996 262.886L696.974 197.025Z" />
    <path fill="#EDEED2"
        d="M197.018 596.998L296.98 597.004C297.01 630.054 297.385 663.985 296.978 696.974L296.966 796L197.054 796L197.014 696.987C196.473 664.257 196.988 629.857 197.018 596.998Z" />
    <path fill="#14813D"
        d="M197.014 696.987L296.978 696.974L296.966 796L197.054 796L197.014 696.987Z" />
    <path fill="#EDEED2"
        d="M497.025 497.026L563.461 496.997C574.285 496.999 586.312 496.745 596.998 497.036L596.998 596.999L497.015 597.006C496.75 585.813 496.998 573.581 496.997 562.32L497.025 497.026Z" />
    <path fill="#14813D"
        d="M396.978 396.993L396.925 497.015L296.977 497.031L297.008 397.04L396.978 396.993Z" />
    <path fill="#14813D"
        d="M696.967 296.981C696.432 329.71 696.947 364.136 696.932 396.972L597.012 396.973L596.998 296.989L696.967 296.981Z" />
    <path fill="#14813D"
        d="M97.059 597.021L197.018 596.998C196.988 629.857 196.473 664.257 197.014 696.987C186.018 696.722 174.09 696.957 162.979 696.957L97.0409 696.957L97.059 597.021Z" />
    <path fill="#14813D"
        d="M497.015 197.027L597 197.02C596.985 229.924 596.515 264.169 596.998 296.989C564.401 296.402 529.791 296.969 497.043 296.97L497.015 197.027Z" />
    <path fill="#14813D"
        d="M397.043 497.061L497.025 497.026L496.997 562.32C496.998 573.581 496.75 585.813 497.015 597.006L396.979 596.999C397.373 563.915 397 530.211 397.043 497.061Z" />
    <path fill="#14813D"
        d="M197.015 497.036L296.977 497.031L296.963 563.696C296.964 574.567 296.761 586.19 296.98 597.004L197.018 596.998C197.364 563.924 197.049 530.156 197.015 497.036Z" />
    <path fill="#14813D"
        d="M397.048 297.01L497.003 296.98L496.969 396.97L396.978 396.993C397.139 363.852 396.554 330.029 397.048 297.01Z" />
    <path fill="#14813D"
        d="M397.046 97.0648L497.03 97.014L496.995 161.983C496.994 173.331 496.733 185.754 497.015 197.027C464.5 196.402 429.693 197.007 397.005 197.01L397.046 97.0648Z" />
    <path fill="#14813D"
        d="M97.0626 397.054L197.003 396.989L197.002 463.252C197.002 474.3 196.783 486.089 197.015 497.036L97.0397 497.021L97.0626 397.054Z" />
    <path fill="#14813D"
        d="M497.059 397.053L596.987 396.993C596.987 429.825 596.44 464.343 596.998 497.036C586.312 496.745 574.285 496.999 563.461 496.997L497.025 497.026L497.059 397.053Z" />
    <path fill="#14813D"
        d="M796 397L796 497.01C763.231 496.684 729.779 496.958 696.969 497.034C697.224 486.155 696.992 474.284 696.994 463.289L697.013 397.045L796 397Z" />
    <path fill="#14813D" d="M0 296.993L96.9736 296.983L96.9345 396.97L0 396.973L0 296.993Z" />
    <path fill="#14813D" d="M0 97.045L96.9744 97.0289L96.9379 197.015L0 197.015L0 97.045Z" />
    <path fill="#14813D" d="M0 497.047L96.9862 497.036L96.9365 596.997L0 596.996L0 497.047Z" />
    <path fill="#14813D"
        d="M97.0495 0L196.999 0L196.983 97.007C185.853 96.7496 173.799 96.9764 162.609 96.9756L97.0397 97.01L97.0495 0Z" />
    <path fill="#14813D"
        d="M297.001 0L396.946 0L396.926 97.0006C364.318 96.4265 329.741 96.9207 296.996 97.02L297.001 0Z" />
    <path fill="#14813D" d="M0 696.992L96.9752 696.977L96.9835 796L0 796L0 696.992Z" />
    <path fill="#EDEED2"
        d="M197.046 97.0597L296.962 97.0268L296.962 163.1C296.962 174.207 296.749 186.014 296.98 197.026L396.95 197.025L396.928 296.975L296.978 296.981C296.531 329.91 296.955 363.952 296.949 396.973L197.035 396.973L197.015 296.989C164.409 296.402 129.797 296.968 97.0395 296.969L97.0593 197.045L197.018 197.021L197.046 97.0597Z" />
    <path fill="#14813D"
        d="M197.015 296.989L296.978 296.981C296.531 329.91 296.955 363.952 296.949 396.973L197.035 396.973L197.015 296.989Z" />
    <path fill="#14813D"
        d="M296.98 197.026L396.95 197.025L396.928 296.975L296.978 296.981C297.389 264.009 297.004 230.052 296.98 197.026Z" />
    <path fill="#14813D"
        d="M97.0593 197.045L197.018 197.021C196.987 229.744 196.408 264.426 197.015 296.989C164.409 296.402 129.797 296.968 97.0395 296.969L97.0593 197.045Z" />
    <path fill="#14813D"
        d="M197.046 97.0597L296.962 97.0268L296.962 163.1C296.962 174.207 296.749 186.014 296.98 197.026C286.111 196.807 274.487 197.002 263.536 197L197.018 197.021L197.046 97.0597Z" />
</svg>