<?xml version="1.0" encoding="utf-8" ?><svg xmlns="http://www.w3.org/2000/svg" xmlns:xlink="http://www.w3.org/1999/xlink" width="1024" height="1024" viewBox="0 0 1024 1024"><path d="M502.582 85.2955C526.879 82.7 554.831 89.0776 575.711 102.221C643.791 145.077 638.608 248.663 611.332 314.142C606.997 324.548 597.609 337.874 591.334 347.636C600.445 354.944 602.82 358.492 609.857 367.826C614.437 369.343 618.978 370.976 623.475 372.723C631.802 375.98 648.204 383.396 651.516 392.257C662.046 420.436 628.776 432.186 609.157 439.464C610.791 457.195 610.898 472.8 613.533 491.369C619.626 534.303 630.505 576.43 645.264 617.196C649.985 630.238 655.941 642 660.937 654.486C665.269 655.865 669.456 657.665 673.438 659.858C696.144 672.482 679.45 686.654 682.757 703.535C689.259 736.728 732.932 753.766 741.104 787.628C745.019 803.853 740.729 814.483 733.036 828.265C735.216 829.867 737.651 831.464 739.563 833.386C746.454 840.31 746.463 850.574 746.563 859.718C746.705 872.693 748.684 885.125 738.783 895.079C702.727 931.323 572.83 939.108 520.75 939.38C490.544 939.276 460.354 938.014 430.245 935.594C393.073 932.454 307.554 921.523 282.751 891.711C280.685 889.228 279.182 886.565 278.453 883.397C277.031 877.219 276.864 854.287 277.647 847.751C278.791 838.202 284.822 833.457 291.712 827.809C285.125 819.743 282.672 811.635 281.989 801.541C279.099 758.834 328.615 743.788 340.669 707.973C344.596 696.303 338.419 684.91 339.061 670.963C344.269 661.904 355.561 657.557 364.727 653.471C365.837 647.644 370.733 636.836 373.217 630.834C377.153 621.434 380.81 611.919 384.182 602.302C398.995 559.238 408.673 514.575 413.014 469.242C413.896 459.865 414.983 449.256 415.12 439.915C396.907 431.674 361.44 421.087 373.137 391.804C377.853 379.995 403.369 371.578 415.059 367.354C420.252 359.048 424.842 353.7 432.458 347.805C407.461 307.692 398.831 285.685 394.884 237.287C391.614 197.196 397.449 154.178 424.533 122.481C443.802 99.9306 473.094 87.3025 502.582 85.2955Z"/><path fill="#E5AB99" d="M508.536 91.7355C588.41 91.5055 625.411 148.464 623.868 223.055C622.651 281.914 602.381 342.668 551.337 376.44C540.905 383.342 529.803 386.898 517.381 388.112C494.814 391.377 472.47 378.137 456.588 363.414C417.201 326.757 403.34 277.351 401.002 225.343C397.868 155.624 431.984 94.4329 508.536 91.7355Z"/><path fill="#623E1E" d="M448.454 305.224C456.413 292.415 473.313 287.803 487.214 283.319C495.851 280.533 504.313 283.278 512.251 287.14C523.375 281.528 531.137 280.788 542.879 285.082C555.634 289.746 570.9 294.234 577.164 307.327C580.599 313.943 584.228 333.544 576.526 338.692C572.457 341.411 566.864 334.439 564.106 331.26C563.167 331.19 562.609 331.142 561.682 330.858C556.373 329.231 552.941 328.868 547.414 328.914C538.847 329.227 531.728 329.393 523.354 326.683C519.674 325.493 515.414 323.502 511.785 322.595C495.047 328.96 490.299 329.675 472.161 329.533C468.642 330.071 465.67 331.055 462.298 331.608C461.576 331.251 460.962 330.948 460.455 330.698L459.121 332.167C452.515 341.494 445.066 342.154 443.944 329.204C442.485 320.922 444.409 312.494 448.454 305.224Z"/><path d="M512.176 301.087C514.486 303.066 517.309 304.862 519.848 306.577C519.631 309.381 519.631 309.966 520.812 312.518L520.656 313.126L519.802 312.881L519.274 313.163L521.227 314.696C526.625 317.467 528.234 317.637 534.228 318.363C534.096 319.685 533.955 321.676 533.728 322.922C539.883 323.369 552.625 322.752 557.173 324.993C560.169 326.973 561.866 328.279 564.106 331.26C563.167 331.19 562.609 331.142 561.682 330.858C556.373 329.231 552.941 328.868 547.414 328.914C538.847 329.227 531.728 329.393 523.354 326.683C519.674 325.493 515.414 323.502 511.785 322.595C495.047 328.96 490.299 329.675 472.161 329.533C471.312 328.169 469.339 325.501 467.819 324.875L466.086 325.277L463.873 321.759L463.344 322.015C462.553 319.555 463.922 319.441 462.208 316.567C473.089 308.709 487.998 315.004 501.169 307.802C505.218 305.81 508.436 303.57 512.176 301.087Z"/><path fill="#CA897B" d="M512.242 313.477C515.194 316.647 516.612 317.693 520.437 319.463C521.074 317.257 521.234 316.941 521.227 314.696C526.625 317.467 528.234 317.637 534.228 318.363C534.096 319.685 533.955 321.676 533.728 322.922C539.883 323.369 552.625 322.752 557.173 324.993C560.169 326.973 561.866 328.279 564.106 331.26C563.167 331.19 562.609 331.142 561.682 330.858C556.373 329.231 552.941 328.868 547.414 328.914C538.847 329.227 531.728 329.393 523.354 326.683C519.674 325.493 515.414 323.502 511.785 322.595C495.047 328.96 490.299 329.675 472.161 329.533C471.312 328.169 469.339 325.501 467.819 324.875C472.521 320.445 496.892 328.587 512.242 313.477Z"/><path fill="#252525" d="M521.227 314.696C526.625 317.467 528.234 317.637 534.228 318.363C534.096 319.685 533.955 321.676 533.728 322.922C528.279 322.131 525.566 321.357 520.437 319.463C521.074 317.257 521.234 316.941 521.227 314.696Z"/><path fill="#D59C8F" d="M557.173 324.993C560.169 326.973 561.866 328.279 564.106 331.26C563.167 331.19 562.609 331.142 561.682 330.858C556.373 329.231 552.941 328.868 547.414 328.914L550.291 328.565C554.201 328.113 554.261 327.86 557.173 324.993Z"/><path fill="#452810" d="M501.169 307.802C501.309 308.717 503.627 313.363 504.156 314.214C489.017 322.94 477.751 314.201 463.873 321.759L463.344 322.015C462.553 319.555 463.922 319.441 462.208 316.567C473.089 308.709 487.998 315.004 501.169 307.802Z"/><path fill="#38200C" d="M512.176 301.087C514.486 303.066 517.309 304.862 519.848 306.577C519.631 309.381 519.631 309.966 520.812 312.518L520.656 313.126L519.802 312.881L519.274 313.163C516.375 311.167 513.983 307.683 511.937 304.825C509.437 309.004 507.953 311.1 504.156 314.214C503.627 313.363 501.309 308.717 501.169 307.802C505.218 305.81 508.436 303.57 512.176 301.087Z"/><path d="M448.454 305.224C456.413 292.415 473.313 287.803 487.214 283.319C495.851 280.533 504.313 283.278 512.251 287.14C523.375 281.528 531.137 280.788 542.879 285.082C555.634 289.746 570.9 294.234 577.164 307.327C580.599 313.943 584.228 333.544 576.526 338.692C572.457 341.411 566.864 334.439 564.106 331.26C561.866 328.279 560.169 326.973 557.173 324.993C552.625 322.752 539.883 323.369 533.728 322.922C533.955 321.676 534.096 319.685 534.228 318.363C542.836 318.624 549.953 318.122 558.093 320.814C557.946 319.001 557.774 318.508 558.502 316.815C559.873 315.916 559.839 316.05 561.514 316.13C564.557 318.551 566.958 320.827 569.841 323.229C570.311 323.586 571.962 324.781 572.255 325.137L574.488 326.591L575.392 326.274C576.055 324.849 575.599 320.696 575.63 318.589C573.701 301.755 558.011 295.668 544.241 290.233C531.156 285.069 523.865 286.727 511.815 292.495C504.373 288.662 497.925 285.588 489.395 287.568C476.028 290.672 459.944 297.163 451.846 308.612C450.563 306.659 450.458 306.191 448.454 305.224Z"/><path fill="#563013" d="M561.514 316.13C564.557 318.551 566.958 320.827 569.841 323.229C570.311 323.586 571.962 324.781 572.255 325.137C571.395 326.891 570.749 328.974 569.35 329.94L568.798 329.984C567.283 328.504 566.265 327.421 564.889 325.811C562.309 323.623 560.928 322.658 558.093 320.814C557.946 319.001 557.774 318.508 558.502 316.815C559.873 315.916 559.839 316.05 561.514 316.13Z"/><path fill="#38200C" d="M575.63 318.589C576.279 322.01 576.95 331.021 573.672 333.126C571.281 333.023 570.511 331.808 568.798 329.984L569.35 329.94C570.749 328.974 571.395 326.891 572.255 325.137L574.488 326.591L575.392 326.274C576.055 324.849 575.599 320.696 575.63 318.589Z"/><path fill="#563013" d="M448.575 327.482C451.712 326.867 458.109 319.216 462.208 316.567C463.922 319.441 462.553 319.555 463.344 322.015L463.873 321.759L466.086 325.277L467.819 324.875C469.339 325.501 471.312 328.169 472.161 329.533C468.642 330.071 465.67 331.055 462.298 331.608C461.576 331.251 460.962 330.948 460.455 330.698L459.121 332.167C452.515 341.494 445.066 342.154 443.944 329.204C444.033 326.923 443.649 323.869 446.482 323.642C447.7 324.536 447.609 324.63 448.321 326.006L448.575 327.482Z"/><path d="M443.944 329.204C444.033 326.923 443.649 323.869 446.482 323.642C447.7 324.536 447.609 324.63 448.321 326.006L448.575 327.482C448.941 329.445 449.082 331.527 450.294 333.04C452.597 333.606 453.64 331.79 455.183 330.144C456.526 330.75 457.95 331.297 459.121 332.167C452.515 341.494 445.066 342.154 443.944 329.204Z"/><path fill="#252525" d="M463.344 322.015L463.873 321.759L466.086 325.277L467.819 324.875C469.339 325.501 471.312 328.169 472.161 329.533C468.642 330.071 465.67 331.055 462.298 331.608C461.576 331.251 460.962 330.948 460.455 330.698L459.121 332.167C457.95 331.297 456.526 330.75 455.183 330.144C458.037 326.655 459.829 324.749 463.344 322.015Z"/><path fill="#D59C8F" d="M467.819 324.875C469.339 325.501 471.312 328.169 472.161 329.533C468.642 330.071 465.67 331.055 462.298 331.608C461.576 331.251 460.962 330.948 460.455 330.698C461.705 329.238 464.586 326.665 466.086 325.277L467.819 324.875Z"/><path fill="#452810" d="M519.848 306.577C523.649 308.424 527.123 310.114 531.344 310.821C543.495 312.856 550.223 309.462 561.514 316.13C559.839 316.05 559.873 315.916 558.502 316.815C557.774 318.508 557.946 319.001 558.093 320.814C549.953 318.122 542.836 318.624 534.228 318.363C528.234 317.637 526.625 317.467 521.227 314.696L519.274 313.163L519.802 312.881L520.656 313.126L520.812 312.518C519.631 309.966 519.631 309.381 519.848 306.577Z"/><path fill="#252525" d="M448.454 305.224C450.458 306.191 450.563 306.659 451.846 308.612C448.381 315.281 448.395 318.657 448.321 326.006C447.609 324.63 447.7 324.536 446.482 323.642C443.649 323.869 444.033 326.923 443.944 329.204C442.485 320.922 444.409 312.494 448.454 305.224Z"/><path fill="#3B3B3B" d="M660.846 693.714C668.317 689.636 671.056 689.491 677.724 683.857C675.624 701.273 675.913 714.407 687.086 728.903C704.072 750.942 738.254 770.825 735.687 802.284C733.367 830.71 711.003 841.26 686.939 848.704C630.023 866.312 568.971 870.352 509.73 871.046C507.803 864.632 507.037 859.64 506.103 852.992C500.638 818.451 507.163 782.516 508.099 747.719C508.458 734.362 506.767 724.214 506.404 711.393C517.495 711.756 530.083 711.256 541.245 710.871C580.168 709.529 623.916 706.388 660.846 693.714Z"/><path fill="#252525" d="M660.846 693.714C668.317 689.636 671.056 689.491 677.724 683.857C675.624 701.273 675.913 714.407 687.086 728.903C704.072 750.942 738.254 770.825 735.687 802.284C733.367 830.71 711.003 841.26 686.939 848.704C630.023 866.312 568.971 870.352 509.73 871.046C507.803 864.632 507.037 859.64 506.103 852.992L508.248 853.165C527.613 854.762 562.84 852.173 582.547 850.886C611.716 848.981 699.098 835.894 717.316 814.179C722.495 773.264 674.913 756.166 663.132 722.393C660.446 714.695 660.906 702.195 660.846 693.714Z"/><path fill="#3B3B3B" d="M346.999 685.12C352.431 688.05 359.456 691.826 365.25 693.788C398.481 705.044 434.26 708.286 469.077 710.469C479.193 711.103 493.429 710.404 502.458 711.566C503.868 733.311 504.608 746.738 503.171 768.658C501.536 793.6 497.856 828.013 502.302 852.656C503.51 858.552 504.875 865.021 506.392 870.812C449.924 869.416 391.076 865.521 336.913 848.595C313.275 841.208 293.187 830.767 289.117 804.396C282.121 757.48 355.158 741.884 347.993 691.005C347.697 689.037 347.366 687.075 346.999 685.12Z"/><path fill="#252525" d="M289.117 804.396L289.854 804.749C302.728 810.998 311.412 821.329 329.272 827.685C382.874 846.762 445.104 853.011 501.906 852.818C502.038 852.764 502.17 852.71 502.302 852.656C503.51 858.552 504.875 865.021 506.392 870.812C449.924 869.416 391.076 865.521 336.913 848.595C313.275 841.208 293.187 830.767 289.117 804.396Z"/><path fill="#3B3B3B" d="M584.989 459.371C590.721 457.314 597.408 456.174 603.374 454.656C604.431 466.588 605.534 480.235 607.103 492.077C613.588 542.495 626.958 591.785 646.838 638.57C650.037 646.217 656.294 657.089 658.518 664.93C659.416 668.099 648.841 674.546 645.081 675.28C618.446 683.077 592.359 686.848 564.758 689.697C562.392 689.942 549.099 690.602 548.132 691.865C552.539 692.4 561.471 691.719 566.049 691.521C587.484 690.593 608.817 688.267 629.753 683.45C634.646 682.325 643.305 680.251 647.699 678.254C654.287 680.517 658.931 681.375 661.445 688.505C656.043 691.39 642.415 694.973 636.159 696.333C592.968 705.723 549.838 706.542 505.954 707.6C505.756 689.737 507.364 666.804 508.361 648.757L508.383 643.019C518.829 643.177 518.827 642.339 527.903 637.399L528.222 637.823C536.878 648.985 544.668 647.391 552.652 637.242C554.717 633.773 556.367 630.947 557.806 627.172C562.626 614.528 554.903 611.941 544.751 608.612C544.332 591.875 545.591 570.436 523.971 568.33C523.185 563.884 522.809 562.61 520.178 558.97L523.129 554.032C527.332 545.967 536.441 538.399 542.957 531.748C560.03 514.322 579.094 499.109 595.76 481.333C593.566 474.516 588.925 465.277 584.989 459.371Z"/><path d="M608.896 581.273C613.208 580.529 619.971 579.142 624.146 578.959C625.243 584.685 626.276 592.773 627.204 598.704C629.667 614.43 635.388 638.386 633.715 653.883C633.066 654.828 632.404 655.783 631.648 656.647C624.53 664.79 602.877 667.604 592.674 668.031C586.226 668.301 574.137 668.848 569.175 663.8C562.619 657.13 558.118 598.252 558.528 587.538C574.55 584.533 591.866 584.209 608.896 581.273Z"/><path fill="#3B3B3B" d="M612.658 597.242C616.256 596.192 619.88 595.235 623.526 594.371C624.688 601.941 625.92 609.5 627.225 617.047C629.505 629.62 633.269 640.474 630.392 653.182C623.518 660.678 611.349 663.222 601.567 664.252C591.236 665.34 572.809 669.583 569.03 656.139C567.687 651.104 566.702 640.462 566.032 635.059C564.69 624.24 563.727 613.178 563.01 602.302C577.742 602.727 598.211 601.013 612.658 597.242Z"/><path fill="#252525" d="M612.658 597.242C616.256 596.192 619.88 595.235 623.526 594.371C624.688 601.941 625.92 609.5 627.225 617.047C629.505 629.62 633.269 640.474 630.392 653.182C623.518 660.678 611.349 663.222 601.567 664.252C591.236 665.34 572.809 669.583 569.03 656.139C573.625 656.773 574.355 662.445 581.973 660.885C597.123 657.782 619.521 661.232 629.089 647.655C627.076 637.452 620.631 624.558 617.583 614.188C616.754 611.367 613.58 598.491 612.658 597.242Z"/><path d="M598.327 604.693C600.031 604.366 603.568 604.024 605.213 604.592C607.627 607.509 605.978 619.167 607.533 621.783C611.99 629.424 621.596 637.979 624.165 646.36C626.362 653.528 607.234 654.739 603.305 655.192C598.266 655.695 582.475 659.092 579.969 653.645C577.824 648.983 586.621 633.629 588.904 628.41C592.696 619.737 586.816 611.914 588.127 607.318C590.662 605.038 594.85 605.073 598.327 604.693Z"/><path fill="#3B3B3B" d="M600.841 607.678C601.523 607.575 601.105 607.569 602.057 607.987C603.741 613.071 601.161 617.092 604.91 623.837C616.131 644.026 632.182 648.279 599.719 652.314C595.795 652.688 587.384 653.926 584.488 651.417C580.585 643.96 601.697 626.047 591.083 609.434C594.34 608.712 597.551 608.215 600.841 607.678Z"/><path d="M607.357 632.253L607.993 632.193C610.845 633.752 616.365 643.206 618.565 646.467C610.488 648.521 603.797 649.671 595.617 650.881C591.415 651.328 588.526 651.524 584.308 651.582C586.669 646.693 589.197 639.832 591.262 634.629C597.043 633.203 601.448 632.591 607.357 632.253Z"/><path fill="#3B3B3B" d="M609.712 585.258C610.473 587.638 611.99 593.394 612.097 595.82C604.409 596.809 596.387 598.567 588.656 599.375C580.163 600.262 571.247 600.423 562.713 600.491C562.111 597.304 561.745 593.899 561.337 590.663C575.289 589.801 596.287 588.628 609.712 585.258Z"/><path fill="#252525" d="M609.712 585.258L621.656 582.485C622.078 585.721 622.472 589.444 623.003 592.622C619.526 593.95 615.818 595.387 612.097 595.82C611.99 593.394 610.473 587.638 609.712 585.258Z"/><path fill="#252525" d="M584.989 459.371C590.721 457.314 597.408 456.174 603.374 454.656C604.431 466.588 605.534 480.235 607.103 492.077C613.588 542.495 626.958 591.785 646.838 638.57C650.037 646.217 656.294 657.089 658.518 664.93C659.416 668.099 648.841 674.546 645.081 675.28C640.507 671.818 637.28 660.144 633.715 653.883C635.388 638.386 629.667 614.43 627.204 598.704C626.276 592.773 625.243 584.685 624.146 578.959C619.971 579.142 613.208 580.529 608.896 581.273C603.094 566.444 600.012 547.471 596.742 531.825C594.392 520.58 593.885 508.458 592.031 497.008C585.065 503.607 573.721 512.598 566.112 518.689L537.498 541.944C534.414 544.471 531.297 546.993 528.325 549.648C526.267 551.485 525.94 553.242 523.129 554.032C527.332 545.967 536.441 538.399 542.957 531.748C560.03 514.322 579.094 499.109 595.76 481.333C593.566 474.516 588.925 465.277 584.989 459.371Z"/><path fill="#252525" d="M552.652 637.242C553.494 644.572 549.401 648.254 543.317 651.45C533.067 650.739 534.573 648.872 526.766 644.224C521.846 648.284 519.319 649.985 512.452 649.299C511.082 649.164 509.718 648.984 508.361 648.757L508.383 643.019C518.829 643.177 518.827 642.339 527.903 637.399L528.222 637.823C536.878 648.985 544.668 647.391 552.652 637.242Z"/><path fill="#3B3B3B" d="M421.511 454.84C427.28 456.355 432.417 457.272 438.353 459.042C435.671 464.357 429.803 476.511 427.971 481.843C434.449 486.95 445.348 498.093 451.84 504.109C461.385 512.803 470.784 521.656 480.032 530.665C488.732 539.04 499.627 548.319 504.339 559.495C501.773 563.125 501.266 564.296 500.614 568.678C485.548 570.519 481.616 578.307 480.419 592.617C479.98 597.864 479.449 602.61 480.036 607.936C465.007 612.774 462.029 618.636 469.222 632.94C476.633 647.677 486.506 648.911 497.948 637.521C500.088 639.114 502.324 640.954 504.444 642.621C504.265 663.829 501.748 686.034 502.39 707.595C458.886 706.077 405.501 703.201 364.311 689.017C342.817 681.105 338.764 673.35 361.72 662.523C361.806 663.053 361.895 663.583 361.989 664.112C362.783 668.544 363.612 670.704 367.565 673.359C372.479 676.659 381.235 679.744 386.704 681.355C404.904 686.719 462.566 695.134 479.699 691.613C458.3 689.041 381.27 683.292 368.691 668.643C367.539 667.301 367.018 666.25 367.093 664.445C367.373 657.686 375.742 643.481 378.71 636.66C397.763 592.87 410.084 545.072 416.794 497.838C418.821 483.57 419.763 469.144 421.511 454.84Z"/><path fill="#252525" d="M441.744 356.432C447.54 361.689 453.201 367.458 459.046 372.468C493.52 402.012 536.265 398.996 569.325 369.001C573.711 365.022 578.202 359.456 582.871 355.971C587.189 375.438 584.563 398.239 576.175 416.268C573.358 422.322 569.027 429.279 565.399 434.977C563.947 437.247 562.47 439.501 560.97 441.739C527.375 446.369 497.056 446.907 463.433 441.716C459.8 434.715 455.219 430.032 451.104 421.612C441.572 409.843 438.132 379.527 440.105 364.888C440.578 361.843 440.92 359.408 441.744 356.432Z"/><path fill="#3B3B3B" d="M440.105 364.888C445.382 368.819 452.115 379.022 457.261 384.074C475.29 401.777 500.013 411.787 525.382 409.469C539.715 408.181 559.59 398.466 568.84 387.846C565.725 402.02 563.247 410.079 556.513 423.214C527.207 430.267 480.652 427.846 451.104 421.612C441.572 409.843 438.132 379.527 440.105 364.888Z"/><path fill="#3B3B3B" d="M723.431 863.675C729.136 859.907 734.518 856.378 739.612 851.764C740.63 861.987 742.123 879.746 735.252 888.066C732.393 891.527 728.15 894.705 724.581 897.503C663.097 927.432 575.472 932.249 507.264 932.501C506.735 921.52 506.788 908.475 506.992 897.521C573.68 897.896 662.877 891.861 723.431 863.675Z"/><path fill="#252525" d="M723.431 863.675C729.136 859.907 734.518 856.378 739.612 851.764C740.63 861.987 742.123 879.746 735.252 888.066C732.393 891.527 728.15 894.705 724.581 897.503C723.873 886.233 724.294 874.403 723.431 863.675Z"/><path fill="#3B3B3B" d="M284.183 851.685C289.469 856.134 295.167 860.267 301.268 863.529C351.389 890.323 446.187 895.804 502.949 897.453C502.575 909.23 503.746 920.515 503.385 932.366C502.104 932.401 500.823 932.415 499.543 932.408C441.247 932.054 373.447 925.278 318.404 905.542C283.898 893.169 283.536 885.793 284.183 851.685Z"/><path fill="#3B3B3B" d="M714.338 841.726C717.313 839.208 722.641 834.995 725.918 832.776C730.093 835.085 737.309 838.559 738.655 843.525C739.075 845.114 738.826 846.807 737.965 848.208C736.961 849.857 733.605 852.424 731.986 853.66C725.423 857.651 715.679 863.425 708.709 865.99C647.845 888.391 570.477 892.996 506.257 892.942C507.331 886.919 508.52 880.916 509.823 874.938C566.49 875.589 664.463 869.09 714.338 841.726Z"/><path fill="#252525" d="M714.338 841.726C717.313 839.208 722.641 834.995 725.918 832.776C730.093 835.085 737.309 838.559 738.655 843.525C739.075 845.114 738.826 846.807 737.965 848.208C736.961 849.857 733.605 852.424 731.986 853.66C731.809 853.565 731.632 853.469 731.456 853.373C724.729 851.38 721.811 845.999 714.338 841.726Z"/><path fill="#3B3B3B" d="M465.032 446.641C478.11 447.232 491.037 449.302 504.165 449.528C508.057 449.596 512.194 449.63 516.076 449.78C530.091 450.322 545.52 446.772 559.215 446.885C556.848 452.833 553.384 459.184 550.32 464.844C544.951 474.366 539.271 486.766 534.338 496.772C527.266 511.182 519.931 525.463 512.339 539.607C498.821 514.285 487.151 489.852 474.201 464.46C471.343 459.659 467.787 451.923 465.032 446.641Z"/><path fill="#252525" d="M465.032 446.641C478.11 447.232 491.037 449.302 504.165 449.528C508.057 449.596 512.194 449.63 516.076 449.78C530.091 450.322 545.52 446.772 559.215 446.885C556.848 452.833 553.384 459.184 550.32 464.844C545.995 464.576 527.836 466.116 522.444 466.462C503.329 467.689 492.587 466.654 474.201 464.46C471.343 459.659 467.787 451.923 465.032 446.641Z"/><path fill="#3B3B3B" d="M297.649 833.351C300.725 833.954 308.222 841.329 311.79 842.989C364.076 867.313 423.582 871.497 480.414 874.295C489.057 874.721 497.369 874.558 505.871 875C504.45 881.328 503.689 886.827 502.891 893.205L493.72 892.948C471.695 892.187 449.694 890.825 427.743 888.863C391.234 885.504 329.793 876.541 298.377 857.284C294.718 855.041 290.338 852.376 287.66 848.956C286.459 847.423 285.683 845.677 286.069 843.702C286.983 839.028 293.989 835.609 297.649 833.351Z"/><path d="M484.075 608.961C483.775 582.831 483.161 570.354 515.023 571.109C524.669 571.338 537.256 574.472 538.553 585.724C539.507 593.992 542.021 603.228 538.741 611.067C532.476 612.279 529.793 613.443 526.081 618.899L525.786 619.339C525.381 618.877 520.383 613.247 520.453 613.372C512.252 608.722 506.478 611.03 500.223 617.476C499.131 617.04 498.682 616.632 497.712 615.969C496.076 616.638 496.283 616.189 495.58 617.281C493.053 615.602 490.381 613.647 487.927 611.85L484.075 608.961Z"/><path fill="#727171" d="M484.075 608.961C483.775 582.831 483.161 570.354 515.023 571.109C524.669 571.338 537.256 574.472 538.553 585.724C539.507 593.992 542.021 603.228 538.741 611.067C532.476 612.279 529.793 613.443 526.081 618.899L525.786 619.339C525.381 618.877 520.383 613.247 520.453 613.372C521.554 610.462 520.886 608.911 520.715 605.569L521.158 606.115C530.462 617.371 539.255 609.391 538.202 597.4C537.772 592.5 537.103 581.563 532.783 578.354C524.728 572.37 497.574 572.544 490.283 579.297C486.442 582.855 486.703 600.923 487.257 606.393L487.34 607.186C487.453 610.491 489.447 609.313 488.797 611.287L487.927 611.85L484.075 608.961Z"/><path fill="#8B8A8A" d="M495.527 611.64C502.775 609.235 504.602 601.188 510.167 596.92C515.425 592.887 518.954 602.141 520.715 605.569C520.886 608.911 521.554 610.462 520.453 613.372C512.252 608.722 506.478 611.03 500.223 617.476C499.131 617.04 498.682 616.632 497.712 615.969C497.189 614.746 496.156 612.872 495.527 611.64Z"/><defs><linearGradient id="gradient_0" gradientUnits="userSpaceOnUse" x1="491.74002" y1="614.56647" x2="494.25174" y2="611.77649"><stop offset="0" stop-color="#666566"/><stop offset="1" stop-color="#4B494B"/></linearGradient></defs><path fill="url(#gradient_0)" d="M487.34 607.186C490.933 610.732 493.669 610.227 495.527 611.64C496.156 612.872 497.189 614.746 497.712 615.969C496.076 616.638 496.283 616.189 495.58 617.281C493.053 615.602 490.381 613.647 487.927 611.85L488.797 611.287C489.447 609.313 487.453 610.491 487.34 607.186Z"/><path fill="#FDFDFD" d="M506.088 577.168C507.427 577.286 510.199 576.275 513.898 576.682L519.132 577.353C517.504 580.82 512.946 588.898 510.902 592.693C509.848 593.345 507.498 594.786 506.677 595.684C502.721 600.009 500.707 606.657 494.697 608.625C492.654 608.181 491.621 607.453 489.762 606.433L489.192 603.08C489.095 593.378 488.141 589.376 492.736 580.779C496.021 578.845 498.316 578.237 501.905 577.401C503.156 577.312 504.879 577.127 506.088 577.168Z"/><path fill="#FDFDFD" d="M501.905 577.401C503.156 577.312 504.879 577.127 506.088 577.168C506.163 577.794 506.372 579.492 506.078 580.061C502.2 587.559 497.167 602.211 489.762 606.433L489.192 603.08C489.095 593.378 488.141 589.376 492.736 580.779C496.021 578.845 498.316 578.237 501.905 577.401Z"/><path fill="#BDBBBB" d="M492.736 580.779C496.021 578.845 498.316 578.237 501.905 577.401C500.696 582.501 492.055 597.828 489.192 603.08C489.095 593.378 488.141 589.376 492.736 580.779Z"/><path fill="#BDBBBB" d="M506.088 577.168C507.427 577.286 510.199 576.275 513.898 576.682C509.96 578.815 499.119 602.452 494.806 607.748L494.697 608.625C492.654 608.181 491.621 607.453 489.762 606.433C497.167 602.211 502.2 587.559 506.078 580.061C506.372 579.492 506.163 577.794 506.088 577.168Z"/><path fill="#FDFDFD" d="M519.132 577.353C523.21 577.271 526.364 578.294 530.227 579.399C533.026 582.141 533.636 585.614 534.731 589.383C535.436 594.821 538.505 608.96 529.231 609.081C527.944 609.098 526.6 608.034 525.794 607.078C524.327 605.311 522.112 601.791 520.749 599.743C520.376 599.231 519.999 598.722 519.618 598.216C516.563 594.165 515.815 593.374 510.902 592.693C512.946 588.898 517.504 580.82 519.132 577.353Z"/><defs><linearGradient id="gradient_1" gradientUnits="userSpaceOnUse" x1="518.63" y1="578.25922" x2="522.20929" y2="597.17657"><stop offset="0" stop-color="#B7B2B1"/><stop offset="1" stop-color="#D5D5D4"/></linearGradient></defs><path fill="url(#gradient_1)" d="M519.132 577.353C523.21 577.271 526.364 578.294 530.227 579.399C527.613 584.541 522.812 596.293 520.749 599.743C520.376 599.231 519.999 598.722 519.618 598.216C516.563 594.165 515.815 593.374 510.902 592.693C512.946 588.898 517.504 580.82 519.132 577.353Z"/><path fill="#BDBBBB" d="M534.731 589.383C535.436 594.821 538.505 608.96 529.231 609.081C527.944 609.098 526.6 608.034 525.794 607.078C528.462 602.258 529.625 591.977 534.731 589.383Z"/><path fill="#3B3B3B" d="M436.521 353.435C437.683 354.657 435.789 363.776 435.626 366.234C434.323 385.974 436.776 399.241 443.786 417.499C432.389 415.265 411.11 410.177 400.229 406.547C354.747 390.219 403.185 383.188 418.523 372.427C422.087 369.927 425.664 364.386 428.711 361C431.274 358.152 433.621 355.985 436.521 353.435Z"/><path fill="#3B3B3B" d="M587.013 353.608C595.686 355.978 599.425 368.22 605.424 372.471C617.434 380.982 635.514 380.897 644.407 394.263C639.282 400.264 632.38 403.286 625.184 406.016C616.147 409.658 590.693 415.554 580.54 417.405C588.481 393.57 592.281 379.192 587.013 353.608Z"/><path fill="#3B3B3B" d="M443.394 457.979C445.478 458.298 446.749 459.057 448.698 459.567C452.472 460.555 456.347 461.435 460.168 462.238C461.383 467.197 465.106 476.239 467.03 481.14C474.63 500.174 483.02 518.882 492.178 537.216C486.055 531.624 479.799 524.521 473.377 518.628C459.744 506.12 445.698 493.472 432.394 480.633C435.308 473.212 439.94 465.496 443.394 457.979Z"/><path fill="#3B3B3B" d="M564.294 461.333C568.889 460.364 577.325 459.508 581.095 457.356C584.468 468.691 587.619 471.027 591.551 480.415C587.329 485.141 580.464 491.164 575.649 495.635L548.843 520.65C542.804 526.343 537.248 531.099 532.249 537.762C534.492 531.585 539.482 522.032 542.467 515.518C548.148 503.283 553.425 490.864 558.289 478.282C559.979 474.001 563.536 465.558 564.294 461.333Z"/><path fill="#252525" d="M645.436 399.849C646.032 400.239 645.946 400.317 646.379 400.987C648.05 425.991 593.287 437.303 575.091 439.789C572.749 440.108 570.132 440.842 567.778 441.323L567.262 441.168L567.28 440.117C567.987 438.826 579.619 419.898 579.221 420.052C589.841 415.954 603.986 416.635 615.168 413.41C626.316 410.195 635.845 406.553 645.436 399.849Z"/><path fill="#252525" d="M377.801 399.69C381.31 401.5 384.047 403.502 388.331 405.579C407.378 414.812 424.335 415.851 444.826 419.296C447.778 425.366 456.497 437.937 457.69 441.328C451.659 441.053 445.99 439.279 439.994 438.066C421.795 434.386 403.128 429.262 387.509 418.859C379.893 413.786 379.06 408.086 377.801 399.69Z"/><path fill="#3B3B3B" d="M563.747 446.443L564.194 447.025C563.575 452.285 559.626 461.739 557.555 467.203C549.823 487.957 541.082 508.321 531.364 528.223C527.156 536.895 521.062 550.675 514.151 557.043C513.886 556.105 513.365 554.414 513.261 553.514C512.294 545.156 520.491 532.376 524.142 525.367C529.136 515.671 534.065 505.943 538.929 496.182L556.099 461.899C558.23 457.573 561.19 450.001 563.747 446.443Z"/><path fill="#3B3B3B" d="M460.636 447.915C463.25 450.35 487.951 501.71 490.891 507.493L503.709 532.514C505.688 536.406 508.884 542.207 510.219 546.209C509.674 548.985 509.033 551.625 508.37 554.373L507.673 555.333C503.435 552.913 480.161 500.785 477.206 493.589C472.159 481.298 462.87 460.607 460.636 447.915Z"/><path fill="#252525" d="M422.142 438.653C432.711 442.085 443.604 443.344 454.569 445.4C455.493 450.255 458.382 457.461 460.168 462.238C456.347 461.435 452.472 460.555 448.698 459.567C446.749 459.057 445.478 458.298 443.394 457.979C441.903 456.153 425.55 451.1 422.128 449.995C422.145 446.373 422.265 442.232 422.142 438.653Z"/><path fill="#252525" d="M602.379 439.049C602.282 443.077 602.173 446.61 602.414 450.628C599.248 451.351 582.865 455.517 581.095 457.356C577.325 459.508 568.889 460.364 564.294 461.333C566.764 455.226 568.225 451.883 569.488 445.406C580.547 443.816 591.523 441.694 602.379 439.049Z"/><path d="M504.063 621.171C509.522 616.466 513.585 615.699 519.416 620.034C535.384 635.673 505.794 646.244 501.276 632.509C498.842 627.037 499.642 625.057 504.063 621.171Z"/><path fill="#3B3B3B" d="M519.416 620.034C535.384 635.673 505.794 646.244 501.276 632.509C501.349 627.625 501.943 630.937 503.321 628.003C503.552 629.477 503.675 630.499 504.553 631.717C506.078 633.846 508.44 635.221 511.044 635.497C520.061 636.447 524.105 627.186 518.473 620.53L519.416 620.034Z"/><defs><linearGradient id="gradient_2" gradientUnits="userSpaceOnUse" x1="503.06149" y1="627.47156" x2="501.81915" y2="621.44995"><stop offset="0" stop-color="#6D6D6C"/><stop offset="1" stop-color="#828082"/></linearGradient></defs><path fill="url(#gradient_2)" d="M501.276 632.509C498.842 627.037 499.642 625.057 504.063 621.171L505.007 621.665C503.783 624.266 503.763 625.21 503.321 628.003C501.943 630.937 501.349 627.625 501.276 632.509Z"/><path fill="#8B8A8A" d="M504.063 621.171C509.522 616.466 513.585 615.699 519.416 620.034L518.473 620.53C513.8 617.291 509.285 617.856 505.007 621.665L504.063 621.171Z"/><path fill="#3B3B3B" d="M511.473 622.732C513.178 622.461 514.896 623.135 515.962 624.493C517.028 625.852 517.275 627.681 516.606 629.273C515.938 630.865 514.46 631.97 512.744 632.16C510.175 632.445 507.849 630.627 507.504 628.066C507.159 625.505 508.921 623.137 511.473 622.732Z"/><path fill="#252525" d="M662.995 662.605C671.566 667.897 676.097 668.172 678.607 678.168C672.676 683.703 669.048 685.491 661.445 688.505C658.931 681.375 654.287 680.517 647.699 678.254C653.448 675.337 659.749 673.113 661.835 666.617C662.251 665.289 662.638 663.951 662.995 662.605Z"/><path fill="#ADA881" d="M535.165 623.642C536.758 618.696 540.362 613.365 546.007 612.973C547.71 613.662 547.142 613.101 547.98 614.458L547.39 615.556C543.212 620.782 540.905 624.545 538.776 631.022C538.16 632.895 537.06 638.182 536.248 639.352C528.481 638.793 533.679 627.521 535.165 623.642Z"/><path fill="#F0E5B1" d="M535.165 623.642C536.758 618.696 540.362 613.365 546.007 612.973C547.71 613.662 547.142 613.101 547.98 614.458L547.39 615.556C541.28 616.571 540.759 623.41 535.165 623.642Z"/><path fill="#3B3B3B" d="M548.475 619.442C550.034 617.563 549.472 617.62 551.335 617.278C552.845 618.122 553.353 619.455 553.923 621.097C553.063 627.728 548.998 636.547 543.663 640.648C543.375 640.867 543.083 641.08 542.787 641.287C542.999 639.361 544.248 632.108 543.767 631.114C542.224 634.055 541.805 637.055 541.214 640.287L540.651 640.556L541.126 640.538L540.429 639.866C540.565 631.954 544.012 625.781 548.475 619.442Z"/><path fill="#BDBBBB" d="M548.961 620.239L550.209 619.375C550.07 620.638 550.12 620.434 549.754 621.683C548.5 624.203 546.514 628.855 544.269 630.359L543.767 631.114C542.224 634.055 541.805 637.055 541.214 640.287L540.651 640.556L541.126 640.538L540.429 639.866C540.565 631.954 544.012 625.781 548.475 619.442L548.961 620.239Z"/><path fill="#252525" d="M548.961 620.239L550.209 619.375C550.07 620.638 550.12 620.434 549.754 621.683C548.5 624.203 546.514 628.855 544.269 630.359C545.635 627.056 547.413 623.498 548.961 620.239Z"/><path fill="#727171" d="M548.475 619.442C550.034 617.563 549.472 617.62 551.335 617.278C552.845 618.122 553.353 619.455 553.923 621.097C551.9 621.927 552.104 622.614 550.394 623.387L549.754 621.683C550.12 620.434 550.07 620.638 550.209 619.375L548.961 620.239L548.475 619.442Z"/><path fill="#3B3B3B" d="M482.502 642.338C478.404 638.453 464.132 620.392 471.719 616.092L471.444 617.913L471.345 618.413C476.856 623.646 480.753 635.043 482.502 642.338Z"/><path fill="#F0E5B1" d="M475.006 614.31C475.612 613.946 476.227 613.598 476.851 613.266C483.179 609.966 487.818 620.31 489.897 624.77C488.151 625.542 486.138 626.496 484.36 627.122C482.17 621.732 479.077 618.285 475.006 614.31Z"/><path fill="#BDBBBB" d="M486.03 612.279C489.529 614.331 492.768 616.797 495.679 619.622C495.784 618.644 495.676 618.271 495.58 617.281C496.283 616.189 496.076 616.638 497.712 615.969C498.682 616.632 499.131 617.04 500.223 617.476C498.176 622.269 497.988 624.175 497.307 629.366C497.036 631.037 497.326 630.514 496.455 631.809C495.378 630.503 494.532 625.242 493.334 622.845C491.172 618.522 489.084 615.98 486.03 612.279Z"/><path fill="#727171" d="M497.712 615.969C498.682 616.632 499.131 617.04 500.223 617.476C498.176 622.269 497.988 624.175 497.307 629.366C496.947 625.526 495.421 623.64 495.679 619.622C495.784 618.644 495.676 618.271 495.58 617.281C496.283 616.189 496.076 616.638 497.712 615.969Z"/><path fill="#ADA881" d="M489.897 624.77C491.088 627.796 494.412 637.623 489.671 638.835C486.279 637.232 485.207 630.503 484.36 627.122C486.138 626.496 488.151 625.542 489.897 624.77Z"/><defs><linearGradient id="gradient_3" gradientUnits="userSpaceOnUse" x1="534.20435" y1="626.72455" x2="527.91296" y2="619.32538"><stop offset="0" stop-color="#716D73"/><stop offset="1" stop-color="#858282"/></linearGradient></defs><path fill="url(#gradient_3)" d="M535.843 613.481L536.292 613.723C536.779 614.68 535.894 615.645 534.863 616.798C531.092 621.018 529.89 627.081 528.267 632.653L528.036 632.706L527.452 632.292C527.163 624.182 526.485 616.281 535.843 613.481Z"/><path fill="#3B3B3B" d="M509.87 559.436C511.618 559.43 512.154 559.315 513.786 560.014C515.22 561.953 514.677 565.097 514.596 567.712C512.094 567.398 511.901 567.689 510.22 566.301C509.287 564.348 509.738 561.724 509.87 559.436Z"/><path fill="#BDBBBB" d="M471.719 616.092C476.667 620.385 485.878 633.857 484.112 640.282L483.481 640.877C481.932 639.337 479.24 620.479 471.444 617.913L471.719 616.092Z"/></svg>