<?xml version="1.0" encoding="utf-8" ?><svg xmlns="http://www.w3.org/2000/svg" xmlns:xlink="http://www.w3.org/1999/xlink" width="1024" height="1024" viewBox="0 0 1024 1024"><path d="M508.26 84.7093C531.125 83.9658 554.597 89.2179 574.227 101.174C599.425 116.814 617.418 141.781 624.283 170.633C635.015 215.396 630.066 272.316 610.963 314.514C605.883 325.737 598.275 336.648 591.793 347.185C599.981 354.851 603.115 358.818 609.891 367.675C622.65 371.594 648.088 380.738 652.261 394.603C660.093 420.631 628.3 432.744 609.223 439.277C610.127 501.216 632.633 600.308 662.055 654.897C703.828 667.438 673.863 688.867 685.31 712.736C700.189 743.763 745.366 762.982 742.353 803.003C741.643 812.428 737.193 820.489 732.847 828.572C735.014 829.927 737.215 831.262 739.082 833.023C746.452 839.974 746.478 849.924 746.548 859.314C746.643 872.078 748.77 885.472 738.942 895.301C702.416 931.83 570.622 939.438 517.375 939.516L505.544 939.491C452.152 939.339 321.424 931.509 284.135 893.481C281.969 891.271 280.028 888.77 278.981 885.827C276.183 877.96 277.135 862.577 277.266 853.93C277.486 839.251 280.318 838.177 290.399 828.431C290.608 827.06 285.663 819.441 284.573 816.051C282.285 810.237 282.243 805.108 281.846 798.92C278.968 754.025 345.014 737.573 341.6 693.651C340.999 685.913 338.593 679.829 338.474 671.165C343.72 662.079 354.707 657.86 363.905 653.891C371.09 633.953 379.287 616.121 386.259 595.683C399.107 556.941 407.823 516.95 412.262 476.376C413.537 465.204 415.071 451.044 414.926 439.875C400.156 432.818 377.814 427.464 371.926 409.528C363.455 383.719 396.326 373.6 414.901 367.568C420.577 358.466 424.13 354.032 432.384 347.483C406.151 307.7 397.575 280.263 394.404 232.464C389.273 155.113 423.072 89.2988 508.26 84.7093Z"/><path fill="#E5B29E" d="M465.522 370.681C407.685 326.59 388.185 232.88 408.631 165.002C427.035 103.905 494.077 78.4681 551.667 98.0263C561.672 101.424 568.053 104.818 576.683 111.076C642.913 153.569 631.398 276.963 592.409 334.746C565.133 375.17 519.866 407.207 472.549 376.202C469.947 374.484 467.829 372.801 465.522 370.681Z"/><path fill="#D29275" d="M576.683 111.076C642.913 153.569 631.398 276.963 592.409 334.746C565.133 375.17 519.866 407.207 472.549 376.202C469.947 374.484 467.829 372.801 465.522 370.681C467.945 370.533 474.427 372.66 477.027 373.487C500.048 380.809 525.638 375.634 544.281 360.358C551.875 354.134 563.029 344.207 567.819 335.626C568.06 335.868 568.304 336.107 568.553 336.342C576.173 343.5 580.13 336.291 580.69 328.736C581.037 324.057 580.826 320.256 580.201 315.618C584.662 310.508 588.163 298.084 590.521 291.335C609.004 238.44 610.566 176.227 585.116 125.3C582.732 120.528 577.734 116.383 576.683 111.076Z"/><path d="M458.928 332.797C454.79 337.93 448.459 343.945 444.531 333.394C441.782 326.013 443.907 314.109 447.423 307.028C454.16 293.462 470.397 288.958 483.646 284.277C494.281 280.549 502.536 282.097 512.206 287.269C529.341 276.916 546.75 285.519 563.107 293.442C572.433 297.959 577.487 305.859 580.201 315.618C580.826 320.256 581.037 324.057 580.69 328.736C580.13 336.291 576.173 343.5 568.553 336.342C568.304 336.107 568.06 335.868 567.819 335.626L563.999 331.311C543.64 324.995 535.877 334.87 512.706 322.036C507.822 324.035 502.976 326.166 497.828 327.401C488.65 329.604 479.215 329.024 469.893 329.991C466.401 330.354 462.279 332.902 458.928 332.797Z"/><path fill="#D29275" d="M512.24 313.356C520.403 322.396 533.257 323.328 544.65 323.284C553.677 323.248 558.265 323.833 563.999 331.311C543.64 324.995 535.877 334.87 512.706 322.036C507.822 324.035 502.976 326.166 497.828 327.401C488.65 329.604 479.215 329.024 469.893 329.991C466.401 330.354 462.279 332.902 458.928 332.797C469.593 318.111 479.186 325.523 494.527 322.192C502.348 320.493 506.34 319.045 512.24 313.356Z"/><path fill="#5E3A1A" d="M448.429 328.572C447.573 308.934 454.134 301.134 472.104 293.559C485.971 287.714 498.224 283.314 511.834 292.765C516.616 289.954 520.667 287.746 526.459 287.371C538.842 286.57 558.147 294.824 567.712 302.536C574.595 308.086 575.607 316.981 576.06 325.116C575.628 326.404 575.881 325.99 575.048 327.036C572.978 326.635 572.372 325.577 570.606 324.01L570.214 324.417C568.781 325.925 568.723 326.506 566.823 327.489C563.43 323.945 560.968 321.783 556.355 319.948C551.313 318.148 537.881 318.85 530.776 317.871C526.464 317.054 523.636 315.745 519.693 313.953C516.308 310.86 514.606 308.949 511.887 305.308C509.912 308.464 508.712 310.31 505.889 312.746C493.027 323.106 475.816 314.854 464.752 321.169L464.188 321.519C458.238 325.288 454.267 332.915 450.422 333.487C448.567 332.284 448.686 330.704 448.429 328.572Z"/><path fill="#40220A" d="M503.557 306.808L504.904 312.166L505.889 312.746C493.027 323.106 475.816 314.854 464.752 321.169C464.904 317.932 464.953 318.081 463.115 315.966C476.491 308.647 488.978 315.396 503.557 306.808Z"/><path fill="#40220A" d="M538.319 311.269C544.733 311.746 551.71 311.774 557.633 314.07C556.204 316.742 555.868 316.962 556.355 319.948C551.313 318.148 537.881 318.85 530.776 317.871C533.183 314.738 534.535 312.157 538.319 311.269Z"/><path fill="#502B0C" d="M448.429 328.572C453.761 324.488 456.514 320.04 463.115 315.966C464.953 318.081 464.904 317.932 464.752 321.169L464.188 321.519C458.238 325.288 454.267 332.915 450.422 333.487C448.567 332.284 448.686 330.704 448.429 328.572Z"/><path fill="#502B0C" d="M521.109 307.397C528.678 310.274 530.555 310.402 538.319 311.269C534.535 312.157 533.183 314.738 530.776 317.871C526.464 317.054 523.636 315.745 519.693 313.953C519.722 311.123 520.013 309.936 521.109 307.397Z"/><path fill="#40220A" d="M512.11 301.349C514.855 303.277 518.256 305.793 521.109 307.397C520.013 309.936 519.722 311.123 519.693 313.953C516.308 310.86 514.606 308.949 511.887 305.308C509.912 308.464 508.712 310.31 505.889 312.746L504.904 312.166L503.557 306.808C507.135 304.831 508.819 303.767 512.11 301.349Z"/><path fill="#502B0C" d="M557.633 314.07C563.26 316.409 566.531 319.647 570.606 324.01L570.214 324.417C568.781 325.925 568.723 326.506 566.823 327.489C563.43 323.945 560.968 321.783 556.355 319.948C555.868 316.962 556.204 316.742 557.633 314.07Z"/><path fill="#40220A" d="M566.823 327.489C568.723 326.506 568.781 325.925 570.214 324.417L570.606 324.01C572.372 325.577 572.978 326.635 575.048 327.036C575.881 325.99 575.628 326.404 576.06 325.116C575.888 327.911 576.071 331.082 574.365 333.203C571.202 333.938 568.75 329.807 566.823 327.489Z"/><path fill="#F7C807" d="M660.893 693.574C666.547 690.713 671.68 688.265 676.928 684.69L677.595 684.245L677.992 683.974C675.404 702.668 675.847 713.646 687.541 729.119C705.531 752.923 740.362 770.866 735.432 805.354C731.256 834.571 704.158 844.045 679.573 851.082C624.183 866.938 566.526 870.078 509.286 870.769C508.124 865.579 506.31 858.101 506.069 852.919C504.264 837.536 503.453 825.053 504.168 809.427C505.121 788.629 507.461 767.861 508.018 747.066C508.328 735.462 507.107 723.147 506.382 711.509C549.667 711.398 620.572 708.638 660.893 693.574Z"/><path fill="#DFA305" d="M660.893 693.574C666.547 690.713 671.68 688.265 676.928 684.69L677.595 684.245L677.992 683.974C675.404 702.668 675.847 713.646 687.541 729.119C705.531 752.923 740.362 770.866 735.432 805.354C731.256 834.571 704.158 844.045 679.573 851.082C624.183 866.938 566.526 870.078 509.286 870.769C508.124 865.579 506.31 858.101 506.069 852.919C513.578 853.611 525.692 853.205 533.503 853.058C557.736 852.691 581.935 851.095 606.005 848.276C639.167 844.138 674.109 837.238 704.713 823.402C714.869 818.811 718.619 816.109 717.694 804.864C714.863 770.432 678.002 755.728 664.627 726.155C658.636 712.907 662.521 706.051 660.893 693.574Z"/><path fill="#F7C807" d="M346.963 685.059C385.852 707.568 458.189 710.673 502.408 711.41C503.998 729.94 504.576 743.986 503.596 762.702C502.119 790.915 497.635 825.085 502.306 853.062C503.794 857.159 505.3 866.137 506.198 870.733C452.681 869.266 398.539 866.194 346.742 851.679C321.57 844.625 293.16 834.292 288.85 804.794C288.619 797.485 288.955 788.851 292.085 782.171C310.426 743.027 355.174 736.422 346.963 685.059Z"/><path fill="#DFA305" d="M288.85 804.794C302.186 810.423 313.614 822.041 328.55 827.542C376.291 845.124 426.806 850.289 477.299 852.533C482.45 852.769 498.495 854.278 502.306 853.062C503.794 857.159 505.3 866.137 506.198 870.733C452.681 869.266 398.539 866.194 346.742 851.679C321.57 844.625 293.16 834.292 288.85 804.794Z"/><path fill="#F7C807" d="M584.731 459.077C590.258 457.705 598.221 455.983 603.478 454.346C604.63 465.944 605.396 477.135 606.867 488.756C611.515 527.459 620.374 565.54 633.284 602.321C637.803 615.041 642.711 627.619 648 640.039C651.436 648.041 655.708 656.776 658.91 664.693C655.581 671.307 650.264 673.211 643.727 675.584C613.487 683.969 585.455 688.171 554.223 690.519C550.76 690.779 548.739 691.757 544.736 691.73C553.074 692.388 561.178 691.714 569.445 691.378C588.923 690.587 606.659 688.016 625.723 684.306C630.881 683.303 644.81 678.967 647.884 678.671C654.46 679.817 659.682 681.423 661.649 688.483C623.46 704.292 548.812 707.463 505.965 707.305C506.101 688.148 507.394 667.958 508.063 648.716L508.377 643.091C518.11 643.327 519.761 642.164 527.743 636.787C535.451 647.617 543.077 647.808 551.755 638.346C554.263 633.887 555.583 630.941 557.485 626.191C558.757 621.719 558.557 619.131 558.451 614.545C554.367 613.031 549.104 610.031 544.468 608.161C544.584 599.614 544.405 584.426 539.747 577.071C535.928 571.039 530.814 569.739 524.456 568.385C523.494 564.905 521.936 561.894 520.179 558.777L524.609 551.118C529.679 541.739 568.149 508.547 578.275 498.547C580.537 496.313 594.096 483.516 596.535 481.482C592.594 473.669 588.666 466.651 584.731 459.077Z"/><path d="M608.858 581.354C613.872 580.547 618.877 579.68 623.872 578.754C625.536 588.178 626.621 597.655 628.226 607.047C631 623.275 635.067 637.118 633.72 653.782C624.929 667.924 582.815 672.055 568.996 663.881C563.119 654.623 562.816 637.538 561.348 626.287C561.429 625.167 560.539 615.571 560.42 613.466C558.914 604.965 558.472 596.49 558.429 587.881C567.762 585.698 578.133 585.179 587.752 584.255C594.824 583.578 601.865 582.61 608.858 581.354Z"/><path fill="#F7C807" d="M611.623 597.67C616.065 596.248 619.148 595.436 623.708 594.441C625.129 603.889 626.697 613.315 628.413 622.714C630.387 633.729 632.939 642.561 630.676 653.777C619.896 664.107 597.047 664.976 582.654 665.595C575.272 665.912 570.895 662.173 568.508 655.252C568.321 650.976 566.69 640.647 566.141 636.013C564.775 624.872 563.743 613.692 563.048 602.489C576.796 602.61 598.254 601.06 611.623 597.67Z"/><path fill="#DFA305" d="M611.623 597.67C616.065 596.248 619.148 595.436 623.708 594.441C625.129 603.889 626.697 613.315 628.413 622.714C630.387 633.729 632.939 642.561 630.676 653.777C619.896 664.107 597.047 664.976 582.654 665.595C575.272 665.912 570.895 662.173 568.508 655.252C572.511 656.416 575.284 661.372 582.659 660.641C595.012 659.349 607.906 658.053 620.012 655.294C625.498 654.044 628.827 650.349 627.613 644.589C624.3 628.862 617.072 614.001 612.65 598.508C612.307 598.229 611.965 597.949 611.623 597.67Z"/><path d="M600.781 604.209C603.102 603.856 603.463 603.908 605.167 604.984C607.434 608.444 606.671 616.417 606.646 621.019C611.219 627.887 620.08 637.104 623.315 644.195C628.116 654.717 604.11 655.109 598.446 655.633C562.337 660.741 588.212 639.674 590.286 622.577C590.799 618.35 586.894 609.213 588.136 606.914C591.559 604.62 596.588 604.597 600.781 604.209Z"/><path d="M590.961 609.252C595.14 608.482 598.198 608.142 602.447 607.752C602.405 620.307 602.761 621.429 610.537 631.883C613.715 635.455 618.494 641.753 619.961 646.278C619.765 647.724 620.098 647.145 619.237 648.177C610.786 651.012 591.766 655.292 583.391 651.703C583.354 645.877 587.347 639.157 590.08 634.193C593.998 624.714 596.191 618.703 590.961 609.252Z"/><path fill="#F7C807" d="M590.961 609.252C595.14 608.482 598.198 608.142 602.447 607.752C602.405 620.307 602.761 621.429 610.537 631.883L608.89 632.666C603.36 632.532 596.371 633.381 591.034 634.865L590.08 634.193C593.998 624.714 596.191 618.703 590.961 609.252Z"/><path fill="#DFA305" d="M610.537 631.883C613.715 635.455 618.494 641.753 619.961 646.278C619.765 647.724 620.098 647.145 619.237 648.177C610.786 651.012 591.766 655.292 583.391 651.703L584.454 650.904C590.428 652.457 612.037 648.157 618.573 646.976C617.746 645.128 610.45 634.895 608.89 632.666L610.537 631.883Z"/><path fill="#DFA305" d="M583.391 651.703C583.354 645.877 587.347 639.157 590.08 634.193L591.034 634.865C589.654 640.51 587.436 645.916 584.454 650.904L583.391 651.703Z"/><path fill="#F7C807" d="M609.089 585.165C613.37 584.229 617.38 583.577 621.6 582.725C622.017 585.565 622.508 589.704 623.15 592.404C619.077 593.935 616.696 594.477 612.405 595.438C591.083 599.579 583.793 599.497 562.657 600.342C562.406 597.351 561.717 593.59 561.242 590.564C577.311 590.073 593.314 588.267 609.089 585.165Z"/><path fill="#DFA305" d="M609.089 585.165C613.37 584.229 617.38 583.577 621.6 582.725C622.017 585.565 622.508 589.704 623.15 592.404C619.077 593.935 616.696 594.477 612.405 595.438C611.871 592.663 611.062 587.04 609.089 585.165Z"/><path fill="#DFA305" d="M584.731 459.077C590.258 457.705 598.221 455.983 603.478 454.346C604.63 465.944 605.396 477.135 606.867 488.756C611.515 527.459 620.374 565.54 633.284 602.321C637.803 615.041 642.711 627.619 648 640.039C651.436 648.041 655.708 656.776 658.91 664.693C655.581 671.307 650.264 673.211 643.727 675.584C640.762 668.498 637.275 660.573 633.72 653.782C635.067 637.118 631 623.275 628.226 607.047C626.621 597.655 625.536 588.178 623.872 578.754C618.877 579.68 613.872 580.547 608.858 581.354C601.242 558.079 594.067 522.176 592.409 497.707C575.38 509.202 559.224 525.136 542.514 537.375C536.86 541.517 531.568 549.108 524.609 551.118C529.679 541.739 568.149 508.547 578.275 498.547C580.537 496.313 594.096 483.516 596.535 481.482C592.594 473.669 588.666 466.651 584.731 459.077Z"/><path fill="#DFA305" d="M527.743 636.787C535.451 647.617 543.077 647.808 551.755 638.346C552.16 641.926 552.05 643.999 549.635 646.836C542.24 655.521 534.55 648.98 527.866 644.572C520.917 648.218 516.25 651.242 508.063 648.716L508.377 643.091C518.11 643.327 519.761 642.164 527.743 636.787Z"/><path fill="#F7C807" d="M421.488 454.492C426.636 456.151 432.894 457.467 438.226 458.728C434.961 466.497 431.337 474.111 427.365 481.543L430.151 484.042C444.695 496.396 466.062 516.566 479.581 530.26C489.675 539.825 497.982 546.751 504.59 559.409C501.909 562.745 501.167 564.665 500.044 568.807C478.558 571.566 479.766 590.886 479.979 608.273C471.329 610.432 463.425 615.108 466.298 625.25C467.602 629.856 469.789 632.722 471.823 636.857C481.387 649.071 487.085 646.98 497.096 636.781C499.735 638.646 502.463 640.519 505.01 642.499C504.817 645.925 504.734 648.747 504.052 652.12C503.452 670.397 502.476 688.881 502.465 707.13C460.75 706.576 417.851 703.549 377.316 693.211C371.041 691.352 364.515 689.65 358.557 686.926C337.336 677.224 346.439 669.522 361.572 662.266C362.175 665.52 362.527 668.886 365.067 671.27C383.099 688.198 455.979 692.711 481.112 691.994C456.109 686.263 381.802 686.765 366.449 665.755C367.695 657.479 376.21 642.564 379.906 633.801C385.137 621.154 389.873 608.309 394.102 595.293C404.885 561.941 412.668 527.693 417.358 492.957C419.091 480.206 419.896 467.264 421.488 454.492Z"/><path fill="#DFA305" d="M430.151 484.042C444.695 496.396 466.062 516.566 479.581 530.26C477.713 530.001 475.999 529.559 474.3 528.359C459.968 518.232 445.527 506.594 433.42 493.934C432.03 492.48 430.641 486.056 430.151 484.042Z"/><path fill="#DFA305" d="M497.096 636.781C499.735 638.646 502.463 640.519 505.01 642.499C504.817 645.925 504.734 648.747 504.052 652.12C504.356 646.824 502.355 646.795 497.973 644.582C494.931 646.195 491.767 647.819 488.782 649.521C480.073 654.488 470.029 646.565 471.823 636.857C481.387 649.071 487.085 646.98 497.096 636.781Z"/><path fill="#DFA305" d="M441.462 356.169C446.821 360.915 452.087 366.492 457.345 370.921C473.862 384.834 494.022 394.778 516.115 393.098C544.024 390.975 564.418 374.947 582.708 355.54C588.475 386.057 582.413 409.973 564.958 435.545C563.458 437.73 561.94 439.903 560.401 442.062C523.78 446.343 500.656 446.83 464.142 441.955C458.653 434.667 454.925 429.794 450.631 421.589C441.208 407.666 438.188 381.349 439.91 364.876L441.462 356.169Z"/><path fill="#F7C807" d="M439.91 364.876C446.427 371.631 452.793 379.21 459.323 385.633C473.991 400.06 494.53 409.243 515.278 409.696C534.335 410.172 552.788 402.991 566.512 389.76C567.367 388.93 568.203 388.081 569.021 387.214C566.077 399.509 563.425 412.145 556.983 423.142C532.092 429.629 475.261 428.458 450.631 421.589C441.208 407.666 438.188 381.349 439.91 364.876Z"/><path fill="#F7C807" d="M722.267 864.17C729.375 859.793 733.368 857.583 739.545 851.883C740.894 872.149 744.612 884.567 724.89 897.127C717.029 900.827 711.199 904.057 702.709 907.04C641.336 928.606 571.489 931.424 507.051 932.462C507.025 920.696 506.847 908.931 506.516 897.17C565.97 899.475 669.303 889.395 722.267 864.17Z"/><path fill="#DFA305" d="M722.267 864.17C729.375 859.793 733.368 857.583 739.545 851.883C740.894 872.149 744.612 884.567 724.89 897.127C722.98 888.304 724.525 871.582 722.267 864.17Z"/><path fill="#F7C807" d="M284.475 852.224C292.197 858.506 300.716 863.739 309.811 867.786C358.97 889.862 448.857 896.205 502.936 897.241C502.952 908.814 503.845 920.52 503.401 932.043C498.568 932.285 493.729 932.337 488.892 932.2C473.151 931.847 457.139 930.627 441.437 929.4C398.799 925.983 357.173 920.687 317.065 905.134C284.061 892.336 282.45 885.651 284.475 852.224Z"/><path fill="#F7C807" d="M714.295 841.824C718.364 838.91 722.354 835.887 726.261 832.759C733.724 836.667 735.542 837.388 739.77 844.633C736.307 850.921 734.45 852.547 728.362 856.255C671.107 889.018 571.944 891.772 506.235 893.067C507.143 887.263 508.509 880.573 509.817 874.883C564.983 875.975 665.986 868.283 714.295 841.824Z"/><path fill="#DFA305" d="M714.295 841.824C718.364 838.91 722.354 835.887 726.261 832.759C733.724 836.667 735.542 837.388 739.77 844.633C736.307 850.921 734.45 852.547 728.362 856.255C726.665 848.736 720.462 845.788 714.295 841.824Z"/><path fill="#F7C807" d="M465.696 447.071C481.215 446.92 498.375 450.092 514.607 450.026C528.948 449.968 544.2 447.071 557.714 446.956L558.669 446.953C556.116 453.021 553.845 458.488 550.398 464.151C538.384 488.588 525.174 516.345 512.207 540.178L489.584 495.876C484.674 486.057 479.673 475.174 474.613 465.611C471.483 461.337 467.859 452.192 465.696 447.071Z"/><path fill="#DFA305" d="M465.696 447.071C481.215 446.92 498.375 450.092 514.607 450.026C528.948 449.968 544.2 447.071 557.714 446.956L558.669 446.953C556.116 453.021 553.845 458.488 550.398 464.151C529.234 465.998 508.372 468.572 487.25 465.943C484.472 465.597 476.921 464.376 474.613 465.611C471.483 461.337 467.859 452.192 465.696 447.071Z"/><path fill="#F7C807" d="M297.334 833.388C300.803 833.345 308.043 841.309 311.97 843.117C365.818 867.916 426.198 871.682 484.59 874.068C491.892 874.366 499.125 874.543 506.421 875.071C504.334 881.47 503.822 886.901 502.848 893.527L496.124 893.049C476.068 891.875 456.017 891.327 435.982 889.7C397.537 886.577 330.252 877.248 297.611 857.006C294.2 854.891 290.137 852.479 287.608 849.313C286.402 847.803 285.651 846.062 286.009 844.105C286.891 839.293 293.611 835.8 297.334 833.388Z"/><path d="M484.112 608.946C483.285 601.8 483.146 583.781 488.118 578.489C497.49 568.515 524.56 568.364 534.76 577.588C539.613 581.977 539.115 587.944 539.594 593.833C539.96 598.33 541.794 607.776 538.45 611.207C532.781 611.629 529.455 614.204 526.149 618.643L525.731 619.213C524.519 617.875 524.158 617.583 523.35 615.914C514.05 608.228 507.412 609.469 499.537 618.437C498.555 622.096 497.951 624.738 497.279 628.464C497.135 630.057 497.223 630.134 496.568 631.556C495.546 630.556 495.286 628.53 494.851 626.926C492.285 620.547 490.763 618.287 486.457 612.807C489.671 614.659 492.514 616.833 495.507 619.019L495.652 618.688C495.04 616.032 487.349 612.274 484.112 608.946Z"/><defs><linearGradient id="gradient_0" gradientUnits="userSpaceOnUse" x1="484.65408" y1="607.77759" x2="537.26019" y2="582.58752"><stop offset="0" stop-color="#5F5E60"/><stop offset="1" stop-color="#787879"/></linearGradient></defs><path fill="url(#gradient_0)" d="M484.112 608.946C483.285 601.8 483.146 583.781 488.118 578.489C497.49 568.515 524.56 568.364 534.76 577.588C539.613 581.977 539.115 587.944 539.594 593.833C539.96 598.33 541.794 607.776 538.45 611.207C532.781 611.629 529.455 614.204 526.149 618.643L525.731 619.213C524.519 617.875 524.158 617.583 523.35 615.914C522.925 614.175 521.474 613.442 520.249 611.307C520.594 609.138 520.231 608.55 519.494 606.525L519.163 605.629C519.841 605.903 522.065 608.722 522.829 609.575L523.747 609.369L524.407 609.626C544.18 617.116 538.107 589.143 534.601 580.857C530.742 571.739 499.434 572.868 492.205 578.011C485.268 582.119 486.702 602.099 487.705 608.386C489.105 608.984 494.456 611.17 495.494 611.794C495.34 612.946 498.608 617.394 499.537 618.437C498.555 622.096 497.951 624.738 497.279 628.464C497.135 630.057 497.223 630.134 496.568 631.556C495.546 630.556 495.286 628.53 494.851 626.926C492.285 620.547 490.763 618.287 486.457 612.807C489.671 614.659 492.514 616.833 495.507 619.019L495.652 618.688C495.04 616.032 487.349 612.274 484.112 608.946Z"/><path fill="#C2C1C1" d="M486.457 612.807C489.671 614.659 492.514 616.833 495.507 619.019L495.581 620.71C495.557 622.615 495.794 625.438 494.851 626.926C492.285 620.547 490.763 618.287 486.457 612.807Z"/><path fill="#888787" d="M495.581 620.71C496.129 623.52 496.184 625.961 497.279 628.464C497.135 630.057 497.223 630.134 496.568 631.556C495.546 630.556 495.286 628.53 494.851 626.926C495.794 625.438 495.557 622.615 495.581 620.71Z"/><path fill="#888787" d="M495.494 611.794C503.438 608.511 507.326 595.581 513.836 595.784C516.739 596.918 520.234 605.149 523.28 608.815L523.747 609.369L522.829 609.575C522.065 608.722 519.841 605.903 519.163 605.629L519.494 606.525C520.231 608.55 520.594 609.138 520.249 611.307C521.474 613.442 522.925 614.175 523.35 615.914C514.05 608.228 507.412 609.469 499.537 618.437C498.608 617.394 495.34 612.946 495.494 611.794Z"/><path fill="#FEFEFE" d="M503.214 577.239C505.495 577.272 510.162 576.5 513.137 576.356L517.436 577.22L518.376 578.016C517.731 581.165 512.571 589.811 510.782 592.866C502.507 597.88 504.18 601.47 498.617 606.491C495.786 609.314 494.513 608.881 490.915 607.51C489.691 606.211 489.733 606.332 489.354 604.594C488.717 591.482 486.388 580.854 501.899 577.225L503.214 577.239Z"/><path fill="#FEFEFE" d="M513.137 576.356L517.436 577.22L518.376 578.016C517.731 581.165 512.571 589.811 510.782 592.866C502.507 597.88 504.18 601.47 498.617 606.491L498.193 605.607C498.032 600.507 509.967 581.625 513.137 576.356Z"/><path fill="#C2C1C1" d="M503.214 577.239C505.495 577.272 510.162 576.5 513.137 576.356C509.967 581.625 498.032 600.507 498.193 605.607L498.617 606.491C495.786 609.314 494.513 608.881 490.915 607.51C494.773 603.087 505.195 583.891 506.774 578.445C505.805 577.35 505.055 577.582 503.214 577.239Z"/><path fill="#C2C1C1" d="M489.354 604.594C488.717 591.482 486.388 580.854 501.899 577.225C499.542 585.116 489.462 599.531 489.354 604.594Z"/><path fill="#FEFEFE" d="M517.436 577.22C521.122 577.168 527.8 577.899 530.895 579.879C532.996 583.19 533.568 585.33 534.691 589.077C535.44 594.312 537.132 602.034 534.176 606.708C532.73 608.993 528.419 610.075 526.315 607.941C524.661 605.945 522.296 602.093 520.808 599.81C517.504 595.347 516.638 593.224 510.782 592.866C512.571 589.811 517.731 581.165 518.376 578.016L517.436 577.22Z"/><path fill="#C2C1C1" d="M517.436 577.22C521.122 577.168 527.8 577.899 530.895 579.879C526.241 586.094 523.903 592.705 520.808 599.81C517.504 595.347 516.638 593.224 510.782 592.866C512.571 589.811 517.731 581.165 518.376 578.016L517.436 577.22Z"/><path fill="#C2C1C1" d="M526.315 607.941C527.086 602.5 530.291 592.595 534.691 589.077C535.44 594.312 537.132 602.034 534.176 606.708C532.73 608.993 528.419 610.075 526.315 607.941Z"/><path fill="#F7C807" d="M437.067 353.008C437.369 356.016 435.682 366.133 435.441 370.144C434.314 388.916 437.948 399.998 443.631 417.304C428.293 414.32 415.396 411.359 400.426 406.747C353.653 389.718 403.709 383.197 418.383 372.603C424.109 368.47 428.987 358.907 437.067 353.008Z"/><path fill="#F7C807" d="M586.585 352.882C594.881 356.725 599.728 365.057 604.484 372.497C620.225 380.369 631.382 380.765 644.924 393.709C638.261 401.075 634.238 402.658 625.049 406.247C610.567 411.203 595.786 414.225 580.829 417.324C589.053 391.653 591.48 380.06 586.585 352.882Z"/><path fill="#F7C807" d="M580.68 457.364C583.729 465.354 587.87 472.993 591.845 480.568L551.83 518.124C546.161 523.448 536.896 531.611 531.948 537.214C540.842 521.024 548.517 501.731 555.677 484.722C558.739 477.448 561.436 468.404 564.551 461.399C568.915 459.718 575.314 460.195 580.68 457.364Z"/><path fill="#F7C807" d="M443.592 457.443C448.225 459.703 454.76 462.176 459.941 462.19C465.295 476.979 471.153 491.581 477.504 505.971C482.105 516.297 487.184 526.334 491.796 536.638C485.274 531.029 476.694 522.001 470.068 515.71C457.968 504.223 443.68 492.139 432.176 480.371C436.215 472.733 439.651 465.035 443.592 457.443Z"/><path fill="#DFA305" d="M645.853 399.933C647.592 402.856 644.474 411.314 642.273 413.599C624.582 431.963 591.774 437.281 567.65 441.182L567.333 440.791C567.466 438.877 578.256 421.808 580.149 418.712C602.857 417.396 626.491 412.078 645.853 399.933Z"/><path fill="#DFA305" d="M378.13 399.748C400.405 413.585 419.571 415.822 445.118 419.252C448.332 427.007 453.66 434.625 458.326 441.697C435.382 437.426 403.988 432.172 385.315 417.112C379.086 412.088 378.552 407.195 378.13 399.748Z"/><path fill="#F7C807" d="M459.559 444.216C461.104 446.853 462.753 450.259 464.18 453.028L510.194 544.799C509.553 549.014 508.994 551.902 507.976 556.035C499.827 545.751 465.262 470.926 463.616 459.091C461.743 454.929 460.485 448.712 459.559 444.216Z"/><path fill="#DFA305" d="M459.559 444.216C461.104 446.853 462.753 450.259 464.18 453.028L462.884 453.479C463.108 455.786 463.962 456.807 463.616 459.091C461.743 454.929 460.485 448.712 459.559 444.216Z"/><path fill="#F7C807" d="M563.805 446.37C564.803 452.278 549.167 488.909 546.074 496.256C540.544 509.168 534.642 521.918 528.375 534.489C525.401 540.516 519.884 553.809 513.732 556.312C512.277 551.724 513.553 547.317 515.44 543.06C521.63 529.093 529.47 515.599 536.206 501.859L553.472 466.552C556.035 461.279 560.751 450.852 563.805 446.37Z"/><path fill="#DFA305" d="M422.184 438.564C431.814 441.012 444.718 444.1 454.599 445.181C456.109 451.123 457.965 456.398 459.941 462.19C454.76 462.176 448.225 459.703 443.592 457.443C440.747 455.183 426.798 452.139 421.712 449.985C421.866 446.219 421.968 442.312 422.184 438.564Z"/><path fill="#DFA305" d="M569.796 445.175C581.205 443.709 591.254 441.363 602.468 438.98C602.502 442.959 602.713 446.706 602.941 450.68C599.146 451.471 582.517 454.93 580.68 457.364C575.314 460.195 568.915 459.718 564.551 461.399C565.932 456.567 568.227 450.223 569.796 445.175Z"/><path d="M506.518 619.217C511.994 616.136 516.009 616.588 520.429 621.162C534.405 631.589 506.343 650.9 500.041 629.058C499.823 624.084 502.795 621.932 506.518 619.217Z"/><path fill="#5D5C5D" d="M520.429 621.162C534.405 631.589 506.343 650.9 500.041 629.058C501.63 628.914 501.761 629.05 503.334 629.311C504.396 631.794 506.338 633.797 508.788 634.935C510.905 635.891 513.315 635.971 515.491 635.158C521.549 632.876 521.583 626.792 519.512 621.629L520.429 621.162Z"/><defs><linearGradient id="gradient_1" gradientUnits="userSpaceOnUse" x1="505.12991" y1="624.17303" x2="500.87091" y2="624.34741"><stop offset="0" stop-color="#A09F9D"/><stop offset="1" stop-color="#706F71"/></linearGradient></defs><path fill="url(#gradient_1)" d="M500.041 629.058C499.823 624.084 502.795 621.932 506.518 619.217L506.939 619.967C503.999 622.736 503.526 624.139 503.363 628.32L503.334 629.311C501.761 629.05 501.63 628.914 500.041 629.058Z"/><path fill="#C2C1C1" d="M506.518 619.217C511.994 616.136 516.009 616.588 520.429 621.162L519.512 621.629C514.745 617.461 512.607 617.888 506.939 619.967L506.518 619.217Z"/><path fill="#5D5C5D" d="M512.185 622.743C514.599 622.752 516.592 624.635 516.738 627.046C516.883 629.456 515.132 631.565 512.736 631.865C511.043 632.077 509.373 631.331 508.402 629.928C507.431 628.525 507.321 626.698 508.115 625.189C508.91 623.679 510.479 622.737 512.185 622.743Z"/><path fill="#DFA305" d="M647.884 678.671C655.94 674.635 661.422 672.455 662.965 662.658C668.517 665.358 680.967 670.854 677.21 679.159C675.262 683.465 666.156 687.247 661.649 688.483C659.682 681.423 654.46 679.817 647.884 678.671Z"/><path fill="#A8A764" d="M539.514 615.961C541.79 614.166 544.569 611.926 547.606 613.476L547.952 614.254C547.451 615.441 547.695 615.119 546.885 616.07C543.648 620.444 541.469 623.785 539.215 628.788C537.657 632.245 538.324 638.048 535.711 639.625C529.42 637.167 533.025 628.811 534.725 624.467C536 620.748 537.001 618.943 539.514 615.961Z"/><path fill="#F9E994" d="M539.514 615.961C541.79 614.166 544.569 611.926 547.606 613.476L547.952 614.254C547.451 615.441 547.695 615.119 546.885 616.07C543.866 616.333 543.23 616.928 541.053 619.157L539.514 615.961Z"/><path fill="#F8F1B9" d="M534.725 624.467C536 620.748 537.001 618.943 539.514 615.961L541.053 619.157C539.005 622.24 538.61 623.772 534.725 624.467Z"/><path fill="#5D5C5D" d="M547.937 620.137C549.003 618.746 549.694 617.541 551.227 616.746C557.411 618.253 549.427 636.718 544.339 639.602L543.649 639.252C542.96 636.158 544.203 634.078 543.797 630.436C542.898 632.457 541.241 639.922 540.88 640.205L540.463 639.517C539.906 632.858 544.454 625.608 547.937 620.137Z"/><path fill="#C2C1C1" d="M547.937 620.137C548.086 620.641 548.422 621.588 548.435 622.055C546.837 624.423 546.238 625.221 545.172 627.918C544.476 628.977 544.215 629.255 543.797 630.436C542.898 632.457 541.241 639.922 540.88 640.205L540.463 639.517C539.906 632.858 544.454 625.608 547.937 620.137Z"/><path d="M548.435 622.055C549.646 625.213 547.678 626.303 545.172 627.918C546.238 625.221 546.837 624.423 548.435 622.055Z"/><defs><linearGradient id="gradient_2" gradientUnits="userSpaceOnUse" x1="479.13885" y1="622.08789" x2="471.69864" y2="633.66498"><stop offset="0" stop-color="#545155"/><stop offset="1" stop-color="#656665"/></linearGradient></defs><path fill="url(#gradient_2)" d="M482.181 641.76C477.912 637.557 465.08 621.423 471.311 616.164L472.235 616.597L472.444 618.52L472.32 618.902C477.148 625.371 480.627 633.84 482.181 641.76Z"/><path fill="#F9E994" d="M474.822 614.094L480.676 612.018C484.968 615.693 486.988 619.061 489.477 623.996C487.285 625.301 486.455 625.406 483.937 626.097C481.319 620.837 479.072 617.989 474.822 614.094Z"/><path fill="#A8A764" d="M489.477 623.996C490.698 627.138 495.369 636.686 489.256 638.616C488.498 638.855 488.459 638.526 487.762 638.029C485.727 634.155 485.434 630.081 483.937 626.097C486.455 625.406 487.285 625.301 489.477 623.996Z"/><path fill="#888787" d="M534.201 613.824C535.862 613.939 535.343 613.581 536.3 614.42C532.081 620.68 530.447 624.146 528.02 631.269C527.85 631.726 528.002 631.459 527.347 631.898C526.845 624.23 527.061 617.913 534.201 613.824Z"/><path fill="#5D5C5D" d="M510.306 559.121C512.66 559.461 512.819 559.26 514.312 560.637C515.249 562.804 514.653 565.604 514.413 568.09L513.85 567.937C508.14 566.332 508.901 564.155 510.306 559.121Z"/><path fill="#C2C1C1" d="M472.235 616.597C480.328 623.362 483.469 631.203 483.702 641.566C482.288 635.961 478.038 621.458 472.444 618.52L472.235 616.597Z"/></svg>