<?xml version="1.0" encoding="utf-8"?>
<svg xmlns="http://www.w3.org/2000/svg" width="1024" height="1024" viewBox="0 0 1024 1024">
    <path
        d="M499.866 48.2151C504.778 47.65 516.292 47.9747 520.937 48.5498C575.114 55.2579 611.303 90.4101 643.778 129.953C648.292 128.208 652.843 126.562 657.429 125.017C694.139 112.843 737.994 110.224 773.134 128.198C798.04 140.937 816.359 161.469 824.743 188.202C844.769 252.056 814.903 325.345 786.48 381.559L803.469 381.591L803.404 526.061L747.239 526.239L810.76 846.387L866.808 846.41C867.206 860.714 866.808 876.239 866.851 890.674L866.917 998.054L497.295 998.13L147.551 998.037L147.547 846.444L217.255 846.336C219.933 834.662 222.281 821.531 224.711 809.659L240.997 729.733L283.076 526.122L205.36 526.138L205.205 381.641L224.701 381.492C221.335 375.133 218.114 368.699 215.039 362.195C180.501 289.746 151.465 171.812 244.905 126.614C284.463 107.479 332.734 114.194 372.967 128.94C376.205 124.912 379.515 120.942 382.896 117.033C412.831 82.2008 452.506 51.7447 499.866 48.2151Z" />

    <path fill="#891D47"
        d="M649.249 528.469C661.395 528.231 674.128 528.397 686.32 528.374C688.969 542.71 692.093 556.975 694.857 571.289C712.557 662.944 732.726 754.388 749.929 846.118C692.58 846.964 633.561 846.194 576.035 846.256L515.525 846.19L515.473 772.698C525.718 761.837 541.21 747.911 552.378 737.226L641.411 652.456C639.159 648.263 635.081 642.443 632.362 638.294C626.358 629.296 620.493 620.206 614.769 611.027C630.17 602.705 647.177 595.338 662.906 587.268C659.892 570.577 653.336 545.345 649.249 528.469Z" />

    <path
        d="M545.062 783.654C554.728 781.75 564.099 788.07 565.955 797.745C567.812 807.42 561.445 816.76 551.761 818.568C542.144 820.364 532.885 814.051 531.041 804.444C529.198 794.837 535.464 785.545 545.062 783.654Z" />

    <path fill="#891D47"
        d="M546.135 789.74C552.378 788.415 558.506 792.426 559.789 798.678C561.072 804.929 557.019 811.03 550.759 812.27C544.559 813.499 538.529 809.493 537.258 803.302C535.988 797.11 539.952 791.053 546.135 789.74Z" />

    <path fill="#891D47"
        d="M343.828 528.245C354.458 528.548 366.124 528.384 376.834 528.423C373.176 546.276 366.829 569.55 364.23 586.704C379.08 594.909 396.055 602.477 411.324 610.453C403.256 622.828 391.977 639.378 384.782 652.023C387.195 655.048 393.458 660.687 396.481 663.557L418.702 684.719L473.994 738.275C485.656 749.546 498.126 761.17 509.38 772.712L509.532 846.135C500.721 846.327 491.586 846.226 482.75 846.245L278.176 846.149C279.361 838.602 281.725 828.711 283.303 821.084L292.93 774.087L324.175 622.004L337.85 555.769C338.712 551.584 342.564 531.278 343.828 528.245Z" />

    <path fill="white"
        d="M294.366 175.205C298.515 174.799 305.375 174.855 309.541 175.24C355.252 179.468 397.067 205.637 426.321 240.008C457.615 276.775 479.706 332.941 475.52 381.462C458.534 381.653 441.258 381.492 424.25 381.493L292.938 381.525C262.827 334.291 192.19 184.359 294.366 175.205Z" />
    <path fill="white"
        d="M706.851 175.698C718.634 173.48 737.856 176.894 748.493 183.09C777.898 200.218 774.302 239.694 767.745 269.434C759.016 309.026 738.907 346.059 718.345 381.443C680.771 381.897 642.389 381.498 604.75 381.505L538.261 381.484C538.486 332.828 555.231 285.691 585.753 247.799C615.857 210.191 658.137 181.145 706.851 175.698Z" />
    <path fill="white"
        d="M207.465 907.439L806.078 907.398L806.041 937.388C739.004 938.209 670.201 937.456 603.032 937.456L207.443 937.472L207.465 907.439Z" />
    <path fill="white"
        d="M502.259 108.18C537.506 103.534 568.295 134.953 589.043 159.472C556.361 182.694 531.258 214.168 511.477 248.725L509.165 252.662C486.807 210.679 466.647 186.588 428.47 158.016C447.823 135.651 471.329 111.688 502.259 108.18Z" />

    <path fill="#5C1430"
        d="M610.613 528.448L642.867 528.501C646.8 545.433 651.367 567.517 655.933 583.947L623.647 599.554C618.16 602.236 610.835 605.597 605.813 608.816C612.986 621.472 625.354 638.947 633.459 651.604C608.41 675.063 583.507 698.677 558.75 722.444C546.137 734.229 533.981 746.435 521.308 758.244C524.017 750.398 528.212 740.496 531.331 732.67L553.113 678.147L610.613 528.448Z" />

    <path fill="white"
        d="M266.127 443.6L572.05 443.576C628.49 443.583 685.939 443.034 742.266 443.797C742.223 450.392 742.219 456.986 742.251 463.581L266.112 463.694C266.066 456.996 266.07 450.298 266.127 443.6Z" />

    <path fill="#5C1430"
        d="M383.313 528.305L415.458 528.391C435.45 582.721 456.033 636.833 477.203 690.715C485.616 712.411 494.396 736.951 503.445 758.18C496.397 751.49 489.431 744.715 482.547 737.856C452.562 710.049 422.631 679.664 392.589 651.258C400.511 638.506 413.15 620.653 419.899 608.504C415.912 605.517 406.468 601.082 401.515 598.606L371.162 583.386L383.313 528.305Z" />

    <path fill="#D499B1"
        d="M497.656 583.51L527.851 583.578C529.976 596.193 543.782 680.267 542.8 686.406C541.672 693.463 536.733 702.912 534 709.678L516.738 752.877C515.236 756.727 513.927 759.874 512.175 763.611L491.68 711.164C488.984 704.222 484.174 694.47 482.874 687.358C481.732 681.111 495.694 595.823 497.656 583.51Z" />

    <path fill="white"
        d="M476.79 552.845C478.967 554.98 489.594 576.928 491.718 581.185L477.572 675.127C473.5 664.103 469.302 653.125 464.979 642.196C456.031 616.345 443.382 588.927 434.925 562.848C441.717 568.256 448.837 576.514 456.019 581.15C460.087 577.643 472.766 558.443 476.79 552.845Z" />
    <path fill="white"
        d="M548.34 552.816C553.464 557.358 564.075 578.332 569.981 580.913C572.483 580.258 586.752 566.734 590.325 563.706C581.123 589.845 570.383 615.379 560.693 641.291C556.258 652.177 552.39 663.199 547.776 674.049C546.19 665.355 544.966 654.393 543.601 645.429L533.654 581.029C538.493 571.595 543.388 562.191 548.34 552.816Z" />

    <path fill="#D499B1"
        d="M493.418 528.426L532.327 528.469C535.527 533.945 540.72 541.21 544.355 546.777L529.449 575.647C529.241 576.102 528.821 576.552 528.491 576.971C524.771 577.712 502.074 577.369 496.934 577.357C491.535 567.626 486.273 556.545 481.27 546.521C485.381 540.53 489.43 534.498 493.418 528.426Z" />

    <path fill="white"
        d="M539.648 528.499C561.109 528.207 582.573 528.216 604.033 528.524C598.024 541.878 599.166 548.178 587.79 557.879C581.986 562.843 576.054 568.301 570.326 573.402C559.969 558.524 549.743 543.556 539.648 528.499Z" />
    <path fill="white"
        d="M436.296 528.244C452.928 528.14 469.561 528.173 486.193 528.343C478.849 539.757 470.203 551.814 462.305 562.889L455.206 573.026C448.655 567.132 434.107 555.36 430.026 548.567C428.705 546.366 423.356 531.757 422.108 528.436L436.296 528.244Z" />
</svg>