<?xml version="1.0" encoding="utf-8"?>
<svg xmlns="http://www.w3.org/2000/svg" xmlns:xlink="http://www.w3.org/1999/xlink" width="1024"
    height="1024" viewBox="0 0 1024 1024">
    <path
        d="M429.338 53.2478L448.006 53.145C447.97 95.2522 447.705 137.977 448.243 180.047L575.521 180.024L575.484 53.3891L824.979 53.3666L825.027 422.898C805.846 423.003 786.665 423.011 767.484 422.922L840.432 822.861L899.404 822.892L899.382 984.655L721.75 984.636L124.659 984.688L124.702 822.991L183.645 822.922C185.651 809.81 188.779 794.743 191.189 781.522L207.296 693.391L256.309 423L198.731 422.948C199.447 387.781 198.753 350.179 198.711 314.845L198.678 53.3726L429.338 53.2478Z" />
    
    <path fill="#7A1E3A"
        d="M321.057 424.058L366.05 424.062C360.164 454.345 353.224 484.472 347.38 514.562C363.393 523.03 382.124 534.44 397.966 543.663C389.936 558.41 379.489 578.303 372.175 593.513L463.202 681.874L492.302 710.418C497.391 715.424 504.613 722.124 509.11 727.468C509.457 759.12 508.895 791.01 509.195 822.731C499.876 822.605 490.182 822.772 480.833 822.801L248.223 822.893C257.425 777.279 265.098 730.292 273.518 684.44L321.057 424.058Z" />
    
    <path fill="#7A1E3A"
        d="M658.509 424.009C673.278 424.205 688.422 424.024 703.219 424.011C704.666 436.202 708.277 451.815 710.483 464.242C716.155 496.553 722.013 528.83 728.056 561.074L775.895 822.771L590.25 822.803L515.931 822.875C516.497 792.237 516.208 758.172 515.795 727.509C521.135 721.311 528.247 714.573 534.155 708.797L560.08 683.476L652.836 593.598C645.893 578.225 634.875 559.607 627.064 543.595L677.684 514.727C670.767 484.987 665.148 453.969 658.509 424.009Z" />
    
    <path fill="white"
        d="M261.823 116.835L384.502 116.976L384.508 243.861L639.182 243.881L638.971 116.871L761.94 116.946L761.884 160.75L761.948 286.588L261.954 286.735L261.823 116.835Z" />
    
    <path fill="white"
        d="M189.055 887.96C214.234 887.536 240.735 887.936 266 887.933L416.072 887.921L835.485 888.019L835.471 920.291L189.065 920.374C189.164 909.569 189.161 898.764 189.055 887.96Z" />
    
    <path fill="#7A1E3A"
        d="M630.629 424.002L651.609 424.115C652.365 428.329 653.16 432.587 654.097 436.764C659.646 461.482 664.092 486.62 669.932 511.256C653.093 520.562 634.297 530.989 617.821 540.86C624.752 556.592 636.35 576.299 644.297 592.467C634.264 601.148 622.188 613.697 612.406 623.132C593.261 641.456 574.233 659.901 555.323 678.467C544.618 689.307 533.257 699.813 522.363 710.841C533.548 680.939 545.892 650.625 557.336 620.623C582.179 555.237 606.61 489.695 630.629 424.002Z" />
    
    <path fill="#7A1E3A"
        d="M373.083 424.137C379.814 423.933 387.384 424.124 394.176 424.148C418.044 489.758 442.487 555.158 467.504 620.338C478.758 649.722 490.329 682 502.552 710.819L479.597 688.211L380.753 592.187C388.662 575.467 398.701 558.111 406.957 541.135C401.794 537.66 394.299 533.561 388.736 530.326C377.563 523.807 366.351 517.356 355.1 510.974L373.083 424.137Z" />
    
    <path fill="#7A1E3A"
        d="M494.458 491.825C506.365 492.01 518.468 491.938 530.392 491.962C533.031 504.822 550.399 616.343 549.591 620.324C547.908 628.611 543.208 638.14 540.104 646.199L518.242 702.621C516.344 707.329 514.545 711.75 512.429 716.38C508.732 708.775 475.68 625.526 475.223 619.802C474.7 613.239 478.761 593.167 479.889 585.74L494.458 491.825Z" />
    
    <path fill="white"
        d="M469.284 453.778C471.191 455.376 485.593 485.093 487.733 489.438C486.542 500.503 483.896 514.926 482.184 526.259C478.16 553.048 473.982 579.814 469.65 606.556C464.288 593.511 458.651 577.927 453.717 564.628L430.488 502.569C426.297 491.306 420.873 477.867 417.359 466.632C421.873 471.057 437.99 487.445 442.863 489.544C446.723 488.641 465.448 459.217 469.284 453.778Z" />
    
    <path fill="white"
        d="M555.283 453.767C561.172 458.509 576.516 488.925 582.643 489.393C586.142 487.649 603.262 470.829 607.555 466.939L570.625 565.526C565.646 578.001 560.259 594.856 554.969 606.626C553.662 594.729 551.186 581.942 549.477 570.009C545.628 543.14 540.798 516.028 537.138 489.159C542.133 478.575 549.702 464.004 555.283 453.767Z" />
    
    <path fill="white"
        d="M262.159 350.948L761.735 350.904L761.742 359.449L262.001 359.466L262.159 350.948Z" />
    
    <path fill="#7A1E3A"
        d="M489.686 423.95C504.397 424.375 520.765 424.031 535.606 424.039C540.181 431.558 545.839 439.599 550.797 446.956C544.743 457.981 538.147 471.915 532.345 483.292L531.598 484.503C529.827 485.793 498.471 485.357 493.622 485.399C487.088 473.102 480.401 459.25 474.239 446.721C478.301 439.906 485.034 430.662 489.686 423.95Z" />
    
    <path fill="white"
        d="M401.586 423.993C427.906 424.271 454.914 424.027 481.258 423.973C473.825 435.102 466.33 446.188 458.771 457.231L442.511 481.099C432.938 471.804 421.616 462.291 412.511 452.835C410.923 451.186 402.835 427.401 401.586 423.993Z" />
    
    <path fill="white"
        d="M543.822 423.93C569.054 424.688 597.759 423.99 623.201 423.978C619.84 433.095 616.32 446.348 611.247 454.264C610.37 455.633 605.297 459.859 603.801 461.121L582.508 481.069C569.407 462.162 556.511 443.115 543.822 423.93Z" />
</svg>