<svg xmlns="http://www.w3.org/2000/svg" viewBox="0.64 0.513 437.533 436.791">
  <g transform="matrix(1.124322, 0, 0, 1.124322, -18.145987, -24.01784)" style="">
    <path
      d="M 116.83 197.466 C 126.425 196.507 140.02 197.278 149.952 197.279 L 213.662 197.28 L 270.788 197.246 C 279.618 197.244 300.545 196.109 308.268 199.102 C 315.649 201.964 316.648 223.536 310.114 228.677 C 305.052 232.661 301.303 232.122 294.914 232.041 L 310.189 299.113 C 313.728 314.53 319.882 328.52 315.059 344.027 C 328.365 351.011 326.669 358.888 326.484 372.007 C 330.185 371.925 336.142 371.441 339.433 372.613 C 342.469 375.544 341.579 386.266 341.663 390.689 C 341.756 395.579 342.188 402.303 339.022 406.259 C 334.875 408.152 312.945 407.284 306.655 407.239 L 165.901 407.167 C 156.537 407.164 87.731 407.977 83.203 406.109 C 79.82 401.587 80.601 379.39 82.22 373.414 C 82.892 370.933 93.236 371.771 95.56 371.843 C 95.447 359.283 93.91 350.801 106.812 344.344 C 102.43 330.186 108.217 313.854 111.364 299.63 C 116.551 277.105 121.579 254.545 126.448 231.95 C 120.13 232.124 111.588 231.832 109.095 225.115 C 105.36 215.051 106.5 202.374 116.83 197.466"
      style="stroke-width: 1;" />
    <path fill="#2e88c9"
      d="M 136.386 231.928 L 155.241 231.989 C 153.546 244.101 149.129 257.631 148.489 269.551 C 153.434 273.029 159.161 274.986 164.798 277.238 C 161.692 282.674 159.632 286.108 157.873 292.101 C 162.058 298.651 198.175 331.723 206.483 339.144 C 207.3 339.873 209.715 341.449 210.992 341.176 C 212.548 340.846 216.223 338.605 217.189 337.606 C 224.845 329.681 259.421 298.973 263.808 291.775 C 262.283 286.545 259.717 282.362 257.135 277.586 C 263.199 274.183 268.167 273.728 273.352 268.752 C 271.991 255.931 268.444 244.748 266.542 232.05 C 272.952 231.967 279.491 232.027 285.912 232.02 C 287.016 238.018 288.297 243.983 289.754 249.907 L 302.081 303.583 C 304.234 312.867 307.433 324.506 308.241 333.937 C 308.478 336.692 306.165 340.865 304.797 343.34 L 117.254 343.249 C 115.678 340.392 113.999 336.403 114.361 333.149 C 115.489 323.008 118.526 312.191 120.724 302.114 C 125.744 278.674 130.964 255.278 136.385 231.928"
      style="stroke-width: 1;" />
    <path fill="#fffffe"
      d="M 90.345 381.051 C 170.972 380.304 251.598 380.349 332.225 381.187 C 332.232 386.751 332.177 392.316 332.06 397.881 C 301.728 398.594 269.311 398.024 238.877 397.995 L 90.473 397.83 L 90.345 381.051 Z"
      style="stroke-width: 1;" />
    <path fill="#cceef5"
      d="M 110.499 352.929 C 119.323 352.312 135.959 352.834 145.325 352.836 L 215.485 352.869 L 277.223 352.848 C 288.24 352.824 299.589 352.655 310.603 353.013 C 313.857 353.119 315.233 355.301 317.238 357.684 C 317.374 362.449 318.566 367.012 316.682 370.98 C 314.688 372.322 314.126 371.858 311.393 371.858 L 105.215 371.789 C 104.955 363.916 103.162 357.652 110.499 352.929"
      style="stroke-width: 1;" />
    <path fill="#fffffe"
      d="M 121.614 206.262 C 180.272 207.125 239.144 206.085 297.814 206.331 C 303.537 206.356 305.866 207.301 305.403 213.501 C 305.1 217.547 306.486 221.629 301.641 222.775 L 171.013 222.76 C 154.131 222.778 136.798 223.331 120.028 222.314 C 116.273 222.086 116.895 210.477 117.796 208.118 C 119.26 206.656 119.628 206.701 121.614 206.262"
      style="stroke-width: 1;" />
    <path fill="#2e88c9"
      d="M 165.398 231.522 C 165.765 231.642 167.753 232.329 167.833 232.532 C 171.147 240.941 174.023 249.752 176.98 258.273 C 184.555 279.994 192.662 301.527 201.292 322.852 L 192.75 313.914 C 185.233 306.716 175.196 297.662 168.329 290.179 C 170.287 286.239 175.686 278.579 175.099 274.535 C 174.504 270.445 161.935 266.945 158.125 264.46 C 160.918 253.7 163.118 242.429 165.398 231.522 M 254.888 231.749 C 255.526 231.812 257.133 231.914 257.29 232.343 C 259.535 238.496 263.36 259.41 264.445 264.644 L 256.178 268.275 C 242.324 274.355 248.262 279.776 254.268 290.343 C 247.036 296.636 238.893 304.989 231.928 311.776 L 222.014 321.798 C 233.056 292.166 245.479 261.955 254.888 231.748"
      style="stroke-width: 1;" />
    <path fill="#cceef5"
      d="M 176.692 229.006 L 245.878 229.022 C 242.426 234.678 232.993 245.1 228.368 250.224 C 225.199 250.657 215.721 234.368 211.179 235.038 C 207.333 235.606 197.935 247.506 194.627 250.772 C 188.453 243.897 181.611 236.785 176.692 229.006 M 186.15 254.728 C 192.073 259.614 192.975 265.012 199.585 256.985 L 205.014 264.041 C 203.974 271.049 202.801 278.037 201.495 285.001 L 200.017 292.583 C 195.469 280.181 190.277 267.193 186.15 254.728 M 236.339 254.416 L 236.651 254.882 C 232.621 266.655 227.198 280.11 222.826 291.99 L 221.244 284.188 C 220.024 277.448 218.866 270.975 217.337 264.294 L 222.399 257.151 C 228.977 264.596 230.972 260.521 236.339 254.416"
      style="stroke-width: 1;" />
    <path
      d="M 215.627 42.198 C 260.75 47.938 318.173 98.184 320.53 146.18 C 320.878 161.165 314.086 174.954 301.953 183.58 C 289.828 192.203 275.395 189.945 261.149 189.932 L 213.986 189.869 L 160.063 189.93 C 151.901 189.935 140.123 190.659 132.438 189.247 C 117.705 186.392 104.204 170.81 102.478 156.089 C 96.118 101.829 158.468 50.565 206.247 42.209 C 206.247 42.209 193.17 43.495 193.17 38.808 C 193.17 33.07 196.953 24.653 211.206 24.653 C 224.584 24.653 229.143 32.721 229.143 37.508 C 229.143 42.907 215.627 42.198 215.627 42.198"
      style="stroke-width: 1;" />
    <path fill="#fffffe"
      d="M 208.88 51.218 C 229.489 48.825 265.95 72.691 279.952 87.066 C 295.143 102.663 310.856 124.49 311.344 147.273 C 311.637 160.925 302.149 176.336 288.262 179.798 C 280.964 181.262 269.149 180.63 261.4 180.63 L 214.96 180.597 L 162.952 180.634 C 154.242 180.639 143.427 181.234 135.071 179.985 C 122.573 178.117 113.296 164.693 111.62 152.993 C 109.127 135.581 118.68 116.461 128.543 102.971 C 146.668 78.183 178.295 56.045 208.88 51.218"
      style="stroke-width: 1;" />
    <path
      d="M 216.053 102.865 C 216.053 102.865 223.43 104.992 227.411 108.105 C 232.716 112.227 236.086 118.353 236.728 125.041 C 237.512 131.994 235.492 138.973 231.116 144.434 C 226.204 150.454 220.143 152.929 212.639 153.759 C 207.402 153.775 203.113 152.966 198.489 150.339 C 192.4 146.839 188.026 140.981 186.399 134.15 C 184.787 127.481 185.899 120.444 189.487 114.597 C 193.548 108.042 206.47 103.135 206.47 103.135"
      style="stroke-width: 1;" />
  </g>
</svg>