<?xml version="1.0" encoding="utf-8"?>
<svg xmlns="http://www.w3.org/2000/svg" xmlns:xlink="http://www.w3.org/1999/xlink" width="940"
    height="940" viewBox="0 0 940 940">
    <path transform="scale(0.917969 0.917969)"
        d="M500.367 11.2156C524.369 8.49847 562.026 14.9757 584.837 22.7099C642.479 42.1528 690.027 83.7127 717.008 138.235C743.125 191.058 747.879 251.915 730.28 308.152C727.631 316.833 724.364 325.312 720.504 333.526C718.569 337.751 715.478 343.347 714.041 347.558L714.41 348.276C716.039 348.252 717.031 348.064 718.449 348.846C719.443 350.554 718.997 386.524 718.999 392.085L718.982 479.34L687.938 479.426C688.478 488.026 689.242 496.61 690.229 505.17C701.998 609.692 741.106 715.426 804.45 799.72C818.534 818.462 840.373 843.73 858.766 858.407L914.992 858.434C915.558 912.529 915.031 967.719 914.991 1021.88C869.673 1022.4 823.585 1021.98 778.227 1021.98L525.25 1021.98L251.94 1022L162.68 1021.99C145.069 1021.98 126.689 1022.24 109.128 1021.78C108.474 1003.46 108.987 981.945 108.985 963.492L109.048 858.485L160.848 858.401C175.169 845.559 187 836.286 200.119 821.398C267.745 744.651 309.518 645.609 327.647 545.845C331.446 523.816 334.268 501.63 336.103 479.351C326.298 479.086 314.986 479.333 305.076 479.339L304.989 387.593L304.991 362.038C304.991 359.255 304.817 351.65 305.219 349.248C306.494 348.164 307.428 348.468 309.49 348.221C309.996 344.884 301.513 330.146 299.921 325.657C298.844 322.623 297.13 318.229 296.011 314.994C289.231 295.623 285.124 275.417 283.805 254.936C279.667 194.39 299.794 134.686 339.745 89.003C381.792 41.0993 437.111 15.2819 500.367 11.2156Z" />
    <path fill="#3873A9" transform="scale(0.917969 0.917969)"
        d="M393.067 551.574C398.578 553.835 406.859 558.068 412.166 560.885C408.568 568.578 402.387 580.247 400.038 588.126C403.433 590.628 410.139 594.537 413.996 596.929L441.877 614.152L511.979 657.885L584.613 612.635C595.906 605.666 613.94 595.321 624.215 587.816C622.313 581.459 615.205 567.649 612.105 560.664C618.307 557.556 624.549 554.529 630.83 551.583C635.15 573.749 638.552 591.773 644.393 613.906C667.633 703.145 709.491 786.456 767.216 858.369L757.981 858.436L430.158 858.444L318.465 858.451C297.578 858.451 275.74 858.746 254.924 858.277C328.923 768.592 373.235 665.967 393.067 551.574Z" />
    <path fill="white" transform="scale(0.917969 0.917969)"
        d="M500.585 76.7896C540.468 72.9409 584.171 87.3354 614.904 112.805C648.897 140.761 670.381 181.084 674.623 224.891C679.001 272.508 663.965 312.325 633.792 348.505L523.75 348.535L390.192 348.511C365.442 318.811 352.001 290.476 349.236 251.268C346.187 208.32 360.134 165.893 388.072 133.132C416.514 100.036 457.047 79.7387 500.585 76.7896Z" />
    <path fill="white" transform="scale(0.917969 0.917969)"
        d="M175.227 923.732L849.706 923.821L849.803 956.47L174.331 956.467C174.302 946.354 174.171 935.333 174.412 925.192C174.437 924.115 174.374 924.397 175.227 923.732Z" />
    <path fill="white" transform="scale(0.917969 0.917969)"
        d="M348.523 392.039L557.584 392.104C596.457 392.116 636.742 391.47 675.459 392.174C675.55 406.664 675.535 421.155 675.414 435.644C637.664 436.402 597.948 435.845 560.117 435.833L348.583 435.797L348.523 392.039Z" />
    <path fill="#3873A9" transform="scale(0.917969 0.917969)"
        d="M401.508 479.403L414.902 479.356C443.399 533.82 473.338 591.444 503.523 644.718C499.566 642.332 495.65 639.879 491.774 637.362C464.549 620.55 434.716 602.57 408.039 585.316L420.967 557.74C414.346 553.851 401.711 548.271 394.278 544.743C397.795 526.868 400.46 497.103 401.508 479.403Z" />
    <path fill="#3873A9" transform="scale(0.917969 0.917969)"
        d="M609.282 479.286L622.459 479.38C622.561 496.592 626.694 527.244 629.547 544.808C622.722 548.002 609.244 553.933 603.148 557.897L616.15 585.35C592.311 600.602 566.959 615.778 542.785 630.706C535.514 635.302 528.204 639.836 520.856 644.308C550.865 591.316 580.634 533.304 609.282 479.286Z" />
    <path fill="#3873A9" transform="scale(0.917969 0.917969)"
        d="M498.252 531.434L525.86 531.475C530.704 552.498 534.796 574.744 539.433 596.026C532.198 609.645 524.894 623.227 517.521 636.772C515.742 639.834 513.888 643.485 512.186 646.639C504.007 632.456 492.298 611.679 485.204 597.034C485.951 591.282 488.101 581.999 489.282 575.989C492.168 561.116 495.158 546.265 498.252 531.434Z" />
    <path fill="#3873A9" transform="scale(0.917969 0.917969)"
        d="M493.664 479.463C505.919 479.366 518.176 479.369 530.432 479.473C534.155 484.546 538.919 490.248 542.888 495.236C537.689 504.263 532.581 514.116 527.733 523.356L526.968 524.604C524.249 525.435 501.727 525.036 497.353 525.014C491.919 515.006 486.419 505.034 480.852 495.099C484.914 489.905 489.449 484.575 493.664 479.463Z" />
    <path fill="white" transform="scale(0.917969 0.917969)"
        d="M475.827 501.294C477.992 502.75 489.65 525.396 491.802 529.421C487.905 547.787 483.018 569.586 480.149 587.989L475.553 579.515L450.661 532.451C456.66 523.849 468.804 509.459 475.827 501.294Z" />
    <path fill="white" transform="scale(0.917969 0.917969)"
        d="M547.748 500.949C554.81 508.325 566.659 523.643 573.571 532.11C565.363 546.597 557.236 562.986 549.212 577.823C547.571 580.69 545.885 584.069 544.324 587.022C540.577 568.294 536.593 548.321 532.3 529.744C535.061 522.997 543.937 507.119 547.748 500.949Z" />
    <path fill="white" transform="scale(0.917969 0.917969)"
        d="M538.816 479.457C559.725 479.24 580.635 479.211 601.545 479.368L585.543 509.778L576.994 525.812C572.98 520.485 567.507 514.281 563.153 509.033L538.816 479.457Z" />
    <path fill="white" transform="scale(0.917969 0.917969)"
        d="M422.301 479.341C443.245 479.199 464.19 479.246 485.133 479.483C478.183 487.447 471.277 496.135 464.559 504.341L447.108 525.828L422.301 479.341Z" />
</svg>