<svg xmlns="http://www.w3.org/2000/svg" viewBox="0.64 0.513 437.533 436.791">
  <g transform="matrix(1.08, 0, 0, 1.08, -339.614782, -357.000463)">
    <g transform="matrix(1.123454, 0, 0, 1.123454, -2.431402, 27.781805)"
      style="transform-origin: 520.044px 505.467px;">
      <path
        d="M 442.1 509.26 C 459.67 509.678 478.571 509.355 496.229 509.355 L 598.192 509.375 C 600.142 514.52 602.194 525.373 603.385 530.998 L 610.575 564.644 L 616.599 592.509 C 619.349 605.034 622.082 611.498 617.859 624.161 C 630.687 630.519 628.864 637.826 628.628 650.385 C 643.102 650.142 642.369 649.539 642.26 664.751 C 642.224 669.797 643.002 678.39 640.22 682.491 C 635.918 684.336 604.778 683.562 598.352 683.551 L 457.634 683.541 L 422.344 683.543 C 416.926 683.539 404.949 683.872 400.162 682.752 C 395.994 678.328 398.611 660.149 398.114 653.624 C 397.751 648.861 408.502 650.287 411.523 650.388 C 411.368 638.654 409.635 629.818 422.296 624.423 C 421.841 623.087 421.431 621.735 421.068 620.37 C 418.589 611.146 421.09 603.996 423.112 594.962 C 424.634 588.057 426.108 581.142 427.535 574.217 C 429.756 563.731 439.046 514.602 442.1 509.26 Z" />
      <path fill="#2E88C9"
        d="M 448.433 517.676 L 468.378 517.871 C 467.209 525.856 461.001 546.741 462.504 552.997 C 464.543 555.885 473.261 558.789 476.803 560.246 C 475.524 562.642 469.201 573.22 471.374 575.23 C 482.343 585.381 508.422 615.806 520.189 620.933 C 526.527 617.161 566.413 578.768 569.391 573.656 C 567.965 568.917 565.383 564.816 562.948 560.491 C 580.552 551.847 579.906 556.258 575.261 535.077 C 574.033 529.479 572.795 523.453 571.675 517.828 L 591.903 517.722 C 592.741 523.416 593.928 528.64 595.158 534.253 L 595.252 581.066 C 607.381 590.651 609.84 600.59 611.454 610.253 C 612.343 615.574 611.092 619.4 607.781 623.618 C 549.366 623.057 490.187 624.423 431.883 623.482 C 430.307 620.584 428.394 616.517 428.756 613.197 C 429.909 602.611 432.959 591.017 435.17 580.566 L 448.433 517.676 Z" />
      <path fill="#2E88C9"
        d="M 406.381 658.786 C 414.655 658.526 424.25 658.823 432.683 658.849 L 482.276 658.923 L 633.784 658.793 L 633.599 674.913 L 406.578 674.977 C 406.484 669.58 406.418 664.183 406.381 658.786 Z" />
      <path fill="#CCEEF5"
        d="M 601.31 632.112 C 606.434 632.033 610.429 632.05 615.594 632.354 C 622.137 636.672 620.252 643.218 620.059 650.393 L 438.72 650.423 L 420.139 650.347 C 419.999 644.474 418.308 632.927 426.508 632.444 C 433.305 632.045 440.132 632.177 446.943 632.202 L 480.777 632.259 C 520.799 632.264 561.342 632.562 601.31 632.112 Z" />
      <path fill="#2E88C9"
        d="M 560.806 517.435 L 562.527 517.979 C 564.317 520.535 568.411 543.684 569.661 548.744 C 551.185 556.358 550.359 554.645 559.94 572.785 C 552.476 579.947 545.062 587.161 537.699 594.427 C 534.306 597.591 532.218 599.696 529.182 603.193 C 540.217 574.252 550.27 546.546 560.806 517.435 Z" />
      <path fill="#2E88C9"
        d="M 476.935 517.455 L 478.615 517.871 C 479.261 518.315 479.475 518.475 479.733 519.249 C 489.085 547.272 499.739 574.747 509.896 602.479 L 502.844 595.172 C 495.104 587.71 487.062 580.305 479.54 572.655 C 489.947 554.817 488.818 556.318 470.455 548.931 C 472.695 538.456 474.855 527.964 476.935 517.455 Z" />
      <path fill="#CCEEF5"
        d="M 487.447 517.809 L 552.059 517.742 C 549.772 522.201 539.607 533.572 535.855 537.511 C 532.085 537.144 524.322 523.165 519.509 523.299 C 516.301 523.388 507.123 535.105 504.163 538.134 C 499.82 533.529 490.47 523.027 487.447 517.809 Z" />
      <path fill="#CCEEF5"
        d="M 496.133 541.191 C 501.127 544.523 501.891 552.054 508.936 543.772 C 510.667 545.935 512.371 548.431 513.994 550.698 C 512.905 557.223 511.78 563.741 510.62 570.253 C 510.427 572.08 509.616 575.211 509.189 577.111 C 504.987 565.522 499.838 552.766 496.133 541.191 Z" />
      <path fill="#CCEEF5"
        d="M 542.911 541.779 C 543.038 543.732 532.019 572.412 530.5 576.445 L 529.138 568.871 C 527.844 563.061 526.729 556.342 525.605 550.431 L 530.522 543.93 C 530.967 544.479 531.425 545.017 531.895 545.545 C 536.373 550.522 539.948 545.216 542.911 541.779 Z" />
      <path
        d="M 518.236 327.238 C 521.049 327.154 522.253 327.142 523.956 329.587 C 534.34 344.498 543.394 360.545 553.849 375.398 C 558.609 371.862 571.316 360.562 575.928 359.226 C 577.094 358.888 578.235 358.849 579.285 359.561 C 581.824 361.28 587.485 383.543 588.926 388.256 C 596.763 383.32 604.738 378.412 612.662 373.617 C 615.128 372.124 617.888 370.974 620.741 371.774 C 621.363 372.324 621.92 372.813 622.216 373.623 C 623.36 376.756 604.789 448.746 602.641 455.948 C 601.985 458.147 601.228 460.188 600.047 462.168 C 595.846 463.727 531.678 462.845 522.352 462.832 L 466.495 462.833 C 458.192 462.825 448.905 463.119 440.695 462.374 C 438.552 462.179 434.577 445.044 433.872 442.297 C 430.331 428.141 426.887 413.962 423.539 399.76 C 421.667 392.072 419.088 384.304 417.78 376.52 C 417.604 375.472 417.447 374.398 417.897 373.386 C 418.338 372.393 419.269 371.698 420.295 371.465 C 425.454 370.297 445.825 385.01 451.001 388.575 C 453.284 382.571 457.452 364.647 459.666 361.014 C 460.173 360.182 461.018 359.31 461.999 359.139 C 465.924 358.454 482.372 372.489 486.424 375.374 C 495.114 362.3 503.221 348.766 511.937 335.697 C 513.987 332.623 515.565 329.849 518.236 327.238 Z" />
      <path fill="#2E88C9"
        d="M 519.873 339.623 C 521.707 341.5 527.122 350.235 528.87 352.945 L 552.274 389.282 C 555.904 394.927 559.252 401.031 563.284 406.383 C 564.359 407.809 565.677 409.432 567.39 410.088 C 570.505 411.281 605.026 387.73 610.886 384.948 L 611.521 384.65 C 609.085 394.628 606.753 404.44 603.836 414.296 C 596.72 414.273 591.309 416.19 587.438 422.614 C 584.917 426.892 584.196 431.995 585.432 436.804 C 586.999 442.866 590.476 445.509 595.459 448.459 L 593.76 454.415 C 569.466 454.111 544.684 454.352 520.352 454.371 L 446.409 454.281 L 444.647 448.94 C 446.509 447.735 448.811 446.114 450.317 444.508 C 453.701 440.904 455.482 436.084 455.256 431.145 C 454.874 420.745 446.964 413.757 436.59 414.792 C 434.024 407.289 430.738 392.557 428.622 384.302 C 442.591 391.148 457.566 405.144 472.392 410.035 C 474.913 410.867 488.666 387.67 490.266 385.188 L 519.873 339.623 Z" />
      <path
        d="M 516.019 401.655 C 527.038 399.382 537.797 406.528 539.974 417.567 C 542.151 428.605 534.911 439.301 523.854 441.381 C 512.933 443.436 502.397 436.304 500.247 425.402 C 498.097 414.499 505.136 403.901 516.019 401.655 Z" />
      <path fill="#CCEEF5"
        d="M 518.845 409.996 C 525.175 409.329 530.853 413.907 531.543 420.234 C 532.234 426.562 527.678 432.257 521.353 432.971 C 514.994 433.689 509.263 429.103 508.569 422.742 C 507.874 416.381 512.481 410.667 518.845 409.996 Z" />
      <path fill="#CCEEF5"
        d="M 574.194 370.845 C 575.582 372.514 580.172 389.471 581.177 392.971 C 578.86 394.428 571.898 399.276 569.655 399.606 L 568.634 398.541 C 565.127 393.462 561.83 388.151 558.515 382.939 C 562.48 379.366 569.776 374.143 574.194 370.845 Z" />
      <path fill="#CCEEF5"
        d="M 465.837 370.707 C 471.14 374.615 476.39 378.595 481.585 382.645 C 478.602 387.488 475.586 392.311 472.536 397.112 C 471.905 398.071 471.657 398.331 470.911 399.208 C 468.309 399.607 461.992 394.874 459.203 393.191 C 461.523 386.006 463.629 378.042 465.837 370.707 Z" />
      <path fill="#CCEEF5"
        d="M 438.028 423.119 C 446.463 423.762 448.011 430.729 445.22 437.687 C 443.817 438.93 444.153 439.002 442.568 439.336 C 441.32 436.689 438.77 426.202 438.028 423.119 Z" />
      <path fill="#CCEEF5"
        d="M 601.596 422.891 C 601.834 425.251 598.875 437.471 597.031 439.102 L 595.617 438.546 C 591.252 431.914 593.834 424.959 601.596 422.891 Z" />
      <path
        d="M 431.58 469.945 C 437.078 469.475 447.258 469.755 453.049 469.754 L 492.965 469.776 L 566.576 469.769 C 578.467 469.749 590.591 469.836 602.596 469.825 C 619.313 469.81 617.862 480.911 616.561 493.894 C 616.202 497.477 611.304 500.64 608.248 501.885 C 603.762 502.602 593.305 502.316 588.191 502.314 L 551.92 502.321 L 478.25 502.323 C 463.306 502.32 444.848 503.219 429.935 501.043 C 428.191 500.788 424.951 497.327 424.307 495.526 C 422.385 490.151 422.539 482.142 424.133 476.651 C 425.208 473.188 428.507 471.241 431.58 469.945 Z" />
      <path fill="#2E88C9"
        d="M 433.136 478.392 C 443.965 477.969 456.91 478.283 467.863 478.276 L 534.055 478.277 L 579.78 478.234 C 587.733 478.223 598.76 477.897 606.528 478.528 C 610.194 481.002 609.112 490.176 606.771 493.542 C 601.089 494.036 591.384 493.739 585.47 493.734 L 547.033 493.734 C 511.267 493.774 475.45 493.957 439.683 493.734 C 438.675 493.631 433.942 493.684 433.224 493.059 C 430.198 490.423 431.417 481.057 433.136 478.392 Z" />
    </g>
  </g>
</svg>